M48
;Layer_Color=9474304
;FILE_FORMAT=4:4
METRIC,LZ
;TYPE=PLATED
T1F00S00C0.5000
T3F00S00C0.7000
T4F00S00C0.7500
T5F00S00C0.8500
T6F00S00C0.9000
T8F00S00C1.1500
T9F00S00C1.2000
T10F00S00C1.3000
T11F00S00C1.5000
T12F00S00C1.7000
T13F00S00C1.7500
T14F00S00C4.0000
%
T01
X-0002789Y00047036
X000805Y000455
X00117679Y00049402
X00120929Y00026
X00170164Y00016509
X00167686Y-00010133
X001085Y-00035295
X000835
X00151289Y00072067
X00180421Y0007
X00276086Y00076
X00308929
X0037872Y0007
X00366317Y00006988
X00316032Y-00017308
X00435382Y-00009082
X00430371Y00042037
X00472721Y00040244
X00472084Y-000325
X00495Y00071
X00545Y0007
X0054Y0004226
X0054Y0033
Y0035
X00525
X00495
X0048
Y004
X0054
X0051Y0043
X0046
X0044
X0042
Y0041
X004Y0043
Y00365
X0042
X0044
X0046
Y00385
X0043Y00345
X0041
X00391484Y00304
X0037Y00295
Y00275
Y00255
X0035Y00265
Y00285
Y00305
X0037Y00315
X0033
Y00295
Y00275
X00296284Y0026
X003Y002075
X00314
X00334536Y00204964
X0035625
X00378536Y00204234
X0037771Y00222673
X0047Y00225
Y00185
Y0016
Y00135
Y0011
X004235Y001081
X00412301Y0013838
X00436512
X00389519Y00125527
X00365Y00127928
X00373046Y000948
X00299218Y00102926
X00260835Y00141447
X00184111Y00157335
X00156924Y00153053
X00137036Y0017
X00140179Y00193964
X00125394Y0027
X001Y00255512
Y00315
X00105Y00345
X001Y0036
X0012Y0039
X0011Y0041
Y0043
X002
X0022Y0041
Y00395
X00205
X00197676Y00376562
X00150278Y00371165
X0014873Y00355416
X00158Y00334683
X0016Y0031
X00145Y00308825
X0018Y0031
X002
X00229458Y00304
X00245Y00335
X00265Y0035
X00285Y00345
Y0036
X00251326Y00245805
X00193Y00258737
X00167331Y00268768
X00175541Y00123659
X0014873Y00105751
X00099341Y00126484
X0047Y0027
Y00295
X0006Y00345
X00065Y0036
X0004Y0038
X0003306Y00433133
X-00035Y00364185
X-00015185Y00305817
X-00016052Y00254727
X-00016556Y00204964
X00028818Y001985
X00038892Y00255
X0001Y00139808
X-00009353Y001405
X00063042Y001
T03
X000775Y-0001025
X001155
T04
X0006725Y-000105
X0012575
T05
X003346Y-0003
X0036
X003854
X00442751Y00267784
Y00292784
X00246207Y00292395
Y00317795
T06
X00147036Y0043
X00172036
X00237036
X00262036
X00317036
X00342036
X0044397Y001885
Y001635
X00082036Y0043
X00057036
T08
X00267169Y-000292
Y-000038
X0042Y-0003
X004454
X004327Y00387262
X004073
X003557Y00378565
X003303
X00132536Y001202
Y000948
X000355Y003273
Y003527
T09
X-0001Y000725
Y001075
T10
X00398Y0001
X002115Y0017
X002315Y0023
X002115Y0029
X000885
Y0017
X000765Y002045
Y0023
Y002555
T11
X00193615Y-0003
X00243615
X00293615
X-000035Y0018
Y0023
Y0028
T12
X004846Y003746
Y004254
X0051Y004
X005354Y003746
Y004254
T13
X0024Y0013
T14
X0Y0
X0051
X0Y004
M30
