M48
;Layer_Color=9474304
;FILE_FORMAT=4:4
METRIC,LZ
;TYPE=PLATED
T1F00S00C0.5000
T2F00S00C0.8500
T3F00S00C0.9000
T5F00S00C1.3000
T6F00S00C1.5000
T7F00S00C1.7000
T8F00S00C1.7500
T9F00S00C4.0000
%
T01
X00015Y001
X00105Y00087
X0014575Y000935
X0016644Y0011
X001925Y00121812
X00197Y00015408
X00147Y0001575
X001015Y0001875
X0029875Y000185
X0030275Y000615
X003Y000755
X00305Y00089
X003Y00101693
Y00115
X0031075Y0013475
X00361472Y0011
X00347Y0007225
Y00019
X00397Y000195
X0039675Y0006475
X00391Y0008725
X00422Y0009
X00441Y000765
X00448469Y00063
X00497Y0004625
X00527895Y00080922
X0052775Y001135
X005275Y001327
X0054125Y001035
X005865Y00092
X006Y00085
X0061625Y00096
X006Y0005
X005995Y00019
X005465Y000195
X00464Y0013725
X00418Y00125
X00402
X0024Y001175
X0064975Y00096419
X0068375
X00675Y00395
X00625
X005891Y00406648
X00563721Y00405791
X00536218
X00526Y003712
X00514192Y00371112
X00466608Y00367
X00464933Y00348902
X00481236Y0032925
X0047125Y0031875
X00442485Y00309
X00441Y00289
X00440554Y00276
X0044475Y0026375
X004595Y0026575
X0046Y00285
X00473032Y0025125
X00496847Y002575
X00496997Y00244215
X005245Y0027343
X00524678Y002875
X00532Y0031
X005825Y0029225
Y002615
X0057475Y0019475
X005745Y00178
X00507Y0017482
X0049225Y00153
X00476Y00147
X004385Y0014725
X00422Y001475
X004055
X0038475
X00285Y00152
X00311114Y00182031
X003025Y002075
X00265
X00259118Y0025875
X0029Y002475
X00328
X0033Y002625
X00344217Y00250618
X003785Y0028675
X00371111Y0031275
X00330039Y00332
X00284438Y00355197
X00295293Y00371112
X00285Y00403167
X00245Y003995
X00244476Y0037162
X00245Y003595
X0025975Y004285
X00251Y0045065
X00247056Y00463786
X00319465Y00448075
X003215Y0042
X00330962Y00402
X00361Y0043
X00371Y00422
X004045Y004095
X00425Y00426
X0044314Y00436
X00428844Y00454618
X00468Y00464
X00482Y00466
X0046775Y0048675
X0039325Y00486
X00395Y00472
X00418368Y003855
X00429837Y00371
X00448469Y00370798
X00421626Y003565
X00421624Y00340499
X0043Y00247
X0041425Y00232689
X00284781Y00301952
X00507Y00432266
X00545Y0045
X0054575Y0047525
X0059Y00475
X00605Y0045
X00580728Y00360592
X00203958Y00364
X00203151Y00385
X00178112Y0038
X00148Y0039425
X0015975Y004224
X00178Y00433
X0019475Y0041825
X0020897Y0042475
X00230835Y00428444
X00222Y0040175
X0021875Y003135
X0021925Y0025875
X00194599Y0024375
X0019475Y0022375
X00195Y002075
X00215
X0017102Y00243825
X0016025Y0025775
X0009948Y0027343
X00074227
X00076595Y00211
X00104Y0021
X001Y0015
X00073971Y00149205
X00015Y0015
Y002
Y0025
Y00298
Y00348
X000472Y003545
X001115Y0035987
X0011151Y0037925
X00112Y00340499
X00099Y004295
X000685Y00408
X00018Y00411
X00094403Y00480838
X00185Y00478704
X0018375Y00153
T02
X004464Y0002
X004718
X004972
X005226
X00582751Y00317784
Y00342784
X00457444Y004223
Y004477
X00378Y003537
Y003283
T03
X00233707Y0031
X00258707
X003175Y0037
X003425
X005325Y0043
X005575
X00582751Y002385
Y002135
X00203151Y00401
X00178151
T05
X001385Y0012
X002615
X00539Y0006
X002815Y0018
X002615Y0024
X001735Y002745
X00148
X001225
X001385Y0024
X001265Y002055
Y0018
Y001545
T06
X00122Y000495
X00172
X00222
X000465Y0013
X00272Y000495
X00322
X00372
X00422
X00472
X00522
X00572
X00497Y00196189
X00447
X00397
X000465Y0018
Y0023
Y0028
Y0033
Y0038
T07
X0065Y0045
X006754Y004754
Y004246
X006246
Y004754
T08
X00381Y0018
T09
X0005Y0005
X0065
X0005Y0045
M30
