M48
;Layer_Color=9474304
;FILE_FORMAT=4:4
METRIC,LZ
;TYPE=PLATED
T2F00S00C0.4000
T3F00S00C0.5000
T4F00S00C0.8000
T5F00S00C1.1500
%
T02
X00013239Y0001306
X000105Y000226
X0000925Y000335
X00009Y0004875
X000085Y00061
X000095Y000715
X0000975Y000825
X0000925Y0009575
X0002325Y0008125
X0006225Y000697
X0006275Y0005927
X00064Y0004925
X0006275Y0002225
Y0001
X0005575Y00015
X000485Y000085
X0003675
X0002175Y0000925
X000265Y000165
X001083Y0001
X001283
X0012325Y00114921
X001115
X0010175
X0008825Y0011325
X000745Y00116054
X00063Y00116
X00058Y00106
X00068
X0006125Y0013625
X0004865Y00136
X000325Y00133
X001465Y00126991
Y00114921
X00135Y0011475
X001605Y00114921
X0018175Y0011725
Y0012625
X00191Y00096
X001995Y000965
X0021025
X0021925
Y000862
X00208736Y000863
X0019525Y000865
X001905Y0007875
X00203Y000775
X0023675Y000895
Y0009725
X0024975Y001
X0025Y000917
X00241Y0010925
X002415Y00123
X0025375Y0013125
X0026425Y0014125
X0027325Y00142
X0027225Y00125
X00304Y0013525
X00318348Y0013625
X0033Y0012875
X0033375Y0011725
X00325Y00117693
X0033175Y0009475
X00342Y00098
X0031325Y00087
X003135Y00078
X003075Y00061
X0029625
X0028675Y000655
X00277Y000625
X00288652Y00042612
X003075Y00048
X00302Y0003025
X00287717Y000136
X00278836Y0001165
X002695Y0001225
X00261196
X00252274Y00012551
X00244201Y00012368
X00237Y0001725
X0025Y0002825
X0027Y0002725
X00322Y0001799
X003398Y00006
X0035
X003594
X003748
X003857Y00007
X003943Y000142
X003942Y000257
X003944Y000352
Y000449
X00394Y0005925
X0039075Y0007475
X00395Y00083
X0038225Y00079
X0038025Y0010575
X003815Y0011475
X0039025Y0012175
Y00133
X0035Y00057
Y00048
X00359
X00362Y00036
X0035
X00338
Y00048
Y0006
X0029375Y001005
X002415Y000675
X001945Y0001
X001875
X001683
X001483
X00134Y0014525
X00134875Y00181625
X001825Y00183
Y00172791
X0018225Y001625
X00168Y0016275
X001685Y001505
X0018225Y0014725
X001835Y0019225
X00184Y002015
X00189Y00248
X0018875Y002565
X00187999Y00268
X00168Y0026375
X00158
X00148
X001335Y0026825
X0014075Y0027575
X001735Y0029125
X001995Y00283
X002055Y0027575
Y002605
X00214149Y002495
X001945Y00243
X00246Y0026975
X00246323Y00277823
X00246Y00291499
X0026375Y0026225
Y00254
X00275Y002645
X00286868Y0026125
X00294923Y00261617
X00295Y0025325
X00303652
X003035Y00261792
X0030225Y0023675
X00309Y0020275
X00316064Y00190992
X0031525Y0017975
X002965Y00180468
X00296992Y00190992
X0029575Y001605
X0030575Y00158
X0031975
X0033175
X0032625Y001455
X00309448Y0014425
X0029575Y00147
X002475Y00153
X0024375Y00143
X002635Y0017025
X0027325Y00211169
X00274968Y00223
X002413Y002107
X0024025Y00198
X0032095Y0021325
X003315Y0020775
X0033575Y001965
X003357Y00181
X0039Y0018375
Y0020125
X0038975Y0021625
X003905Y00233084
X00378489Y00241334
X00362256
X00349434Y0024675
X00339316Y00252999
X003295Y00255284
X0039Y00158718
X00126096Y00153
X001185Y001655
X0010925Y0017075
X001125Y00146
X0007675Y0014525
X000766Y00162822
X000825Y0017425
X00081Y0018425
X0004925Y0018125
X0004975Y0019125
X000495Y00205
X0003625Y00213
X000315Y00223
X00026Y0024025
X00016Y0023925
X0001Y002475
X000205Y00249
X00015Y00258883
X000275Y00257775
X0001025Y0027025
X0000925Y0028285
X0000975Y002915
X0007175Y0028775
X0008125
X000825Y0027825
X0007975Y00267886
X00069909Y0027725
X001003Y0027325
X00103Y00266
X001045Y002876
X0013175Y00277
X00128Y0023025
X00118
X00108
X0009775Y00224941
X00098Y002155
X0011025Y0021575
X0011725Y0019125
X0012775Y001895
X00088Y0023025
X000497Y0017075
X000365Y0016875
X000315Y00183
X000325Y00153
Y00143
T03
X000335Y00051
X000525
X0004075Y001085
Y001275
T04
X00244Y00035
X00282
X003663Y0012425
Y0014975
Y0017525
Y0020025
Y0022575
T05
X003573Y00282
X003827
M30
