%FSLAX44Y44*%
%MOMM*%
G71*
G01*
G75*
G04 Layer_Physical_Order=1*
G04 Layer_Color=191*
%ADD10O,2.5000X0.7000*%
%ADD11O,0.7000X2.5000*%
%ADD12R,0.4000X1.4000*%
G04:AMPARAMS|DCode=13|XSize=1.8mm|YSize=1.9mm|CornerRadius=0.45mm|HoleSize=0mm|Usage=FLASHONLY|Rotation=0.000|XOffset=0mm|YOffset=0mm|HoleType=Round|Shape=RoundedRectangle|*
%AMROUNDEDRECTD13*
21,1,1.8000,1.0000,0,0,0.0*
21,1,0.9000,1.9000,0,0,0.0*
1,1,0.9000,0.4500,-0.5000*
1,1,0.9000,-0.4500,-0.5000*
1,1,0.9000,-0.4500,0.5000*
1,1,0.9000,0.4500,0.5000*
%
%ADD13ROUNDEDRECTD13*%
G04:AMPARAMS|DCode=14|XSize=1.5mm|YSize=1.5mm|CornerRadius=0.375mm|HoleSize=0mm|Usage=FLASHONLY|Rotation=180.000|XOffset=0mm|YOffset=0mm|HoleType=Round|Shape=RoundedRectangle|*
%AMROUNDEDRECTD14*
21,1,1.5000,0.7500,0,0,180.0*
21,1,0.7500,1.5000,0,0,180.0*
1,1,0.7500,-0.3750,0.3750*
1,1,0.7500,0.3750,0.3750*
1,1,0.7500,0.3750,-0.3750*
1,1,0.7500,-0.3750,-0.3750*
%
%ADD14ROUNDEDRECTD14*%
%ADD15O,0.8000X1.8000*%
G04:AMPARAMS|DCode=16|XSize=1mm|YSize=1.2mm|CornerRadius=0.165mm|HoleSize=0mm|Usage=FLASHONLY|Rotation=90.000|XOffset=0mm|YOffset=0mm|HoleType=Round|Shape=RoundedRectangle|*
%AMROUNDEDRECTD16*
21,1,1.0000,0.8700,0,0,90.0*
21,1,0.6700,1.2000,0,0,90.0*
1,1,0.3300,0.4350,0.3350*
1,1,0.3300,0.4350,-0.3350*
1,1,0.3300,-0.4350,-0.3350*
1,1,0.3300,-0.4350,0.3350*
%
%ADD16ROUNDEDRECTD16*%
%ADD17C,0.2000*%
%ADD18C,0.2500*%
%ADD19C,0.4000*%
%ADD20C,0.3500*%
%ADD21C,0.6000*%
%ADD22C,1.5000*%
%ADD23C,1.1000*%
%ADD24C,0.7000*%
%ADD25C,0.7000*%
%ADD26C,2.0000*%
%ADD27R,1.3000X1.3000*%
%ADD28C,1.3000*%
%ADD29C,1.8500*%
%ADD30C,0.6000*%
G36*
X61402Y194142D02*
X61185Y192500D01*
Y174500D01*
X61443Y172542D01*
X62199Y170718D01*
X63397Y169156D01*
Y167500D01*
X63805Y165452D01*
X64965Y163715D01*
X72215Y156465D01*
X73952Y155305D01*
X76000Y154897D01*
X84275D01*
X84358Y153627D01*
X83923Y153570D01*
X82220Y152865D01*
X81520Y152327D01*
X80250Y152954D01*
Y153500D01*
X59250D01*
Y132500D01*
X72680D01*
X81409Y123771D01*
X80923Y122598D01*
X79003D01*
X78922Y122795D01*
X77239Y124989D01*
X75045Y126672D01*
X72491Y127730D01*
X69750Y128091D01*
X67009Y127730D01*
X64455Y126672D01*
X62261Y124989D01*
X60578Y122795D01*
X59520Y120241D01*
X59159Y117500D01*
X59520Y114759D01*
X60578Y112205D01*
X62261Y110011D01*
X64455Y108328D01*
X67009Y107270D01*
X69750Y106909D01*
X72491Y107270D01*
X75045Y108328D01*
X77239Y110011D01*
X78922Y112205D01*
X79003Y112402D01*
X105923D01*
X106409Y111229D01*
X72419Y77239D01*
X69750Y77591D01*
X67009Y77230D01*
X64455Y76172D01*
X62261Y74489D01*
X60578Y72295D01*
X59520Y69741D01*
X59159Y67000D01*
X59520Y64259D01*
X60578Y61705D01*
X62261Y59511D01*
X64455Y57828D01*
X67009Y56770D01*
X69750Y56409D01*
X72491Y56770D01*
X75045Y57828D01*
X76627Y59042D01*
X77897Y58416D01*
Y57217D01*
X72419Y51739D01*
X69750Y52091D01*
X67009Y51730D01*
X64455Y50672D01*
X62261Y48989D01*
X60578Y46795D01*
X59520Y44241D01*
X59159Y41500D01*
X59520Y38759D01*
X60578Y36205D01*
X62261Y34011D01*
X64455Y32328D01*
X67009Y31270D01*
X69750Y30909D01*
X72491Y31270D01*
X75045Y32328D01*
X77239Y34011D01*
X78922Y36205D01*
X79409Y37381D01*
X80932Y37740D01*
X81720Y37136D01*
X83423Y36430D01*
X85250Y36190D01*
X87077Y36430D01*
X88780Y37136D01*
X90242Y38258D01*
X91364Y39720D01*
X92070Y41423D01*
X92124Y41833D01*
X95146Y44854D01*
X96416Y46757D01*
X96863Y49000D01*
Y65322D01*
X113167Y81626D01*
X113577Y81680D01*
X115280Y82386D01*
X116742Y83508D01*
X117865Y84970D01*
X118570Y86673D01*
X118810Y88500D01*
X118570Y90327D01*
X117865Y92030D01*
X116742Y93492D01*
X115280Y94614D01*
X114715Y94849D01*
X114417Y96347D01*
X122967Y104897D01*
X148649D01*
X148672Y104851D01*
X149135Y103627D01*
X148443Y101958D01*
X148185Y100000D01*
X148443Y98042D01*
X149199Y96218D01*
X150401Y94651D01*
X151968Y93449D01*
X153792Y92693D01*
X155750Y92435D01*
X173750D01*
X175708Y92693D01*
X176884Y93180D01*
X178154Y92411D01*
Y91270D01*
X184750D01*
Y88730D01*
X178154D01*
Y85000D01*
X178378Y83293D01*
X179037Y81702D01*
X180086Y80336D01*
X181452Y79287D01*
X182147Y78999D01*
X182288Y77566D01*
X181327Y76923D01*
X180078Y75054D01*
X179692Y73117D01*
X178098D01*
X177532Y73551D01*
X175708Y74307D01*
X173750Y74565D01*
X155750D01*
X153792Y74307D01*
X151968Y73551D01*
X150401Y72349D01*
X149199Y70782D01*
X148443Y68958D01*
X148418Y68767D01*
X147063Y68206D01*
X146530Y68615D01*
X144827Y69320D01*
X143000Y69560D01*
X141173Y69320D01*
X139809Y68755D01*
X139486Y68818D01*
X138881Y69133D01*
X138498Y69470D01*
X138320Y70827D01*
X137614Y72530D01*
X136492Y73992D01*
X135030Y75114D01*
X133327Y75820D01*
X131500Y76060D01*
X129673Y75820D01*
X127970Y75114D01*
X126508Y73992D01*
X125386Y72530D01*
X124680Y70827D01*
X124440Y69000D01*
X124680Y67173D01*
X125382Y65477D01*
Y58515D01*
X125848Y56174D01*
X127174Y54189D01*
X147439Y33924D01*
X149424Y32598D01*
X151765Y32132D01*
X166227D01*
X167923Y31430D01*
X169750Y31190D01*
X171577Y31430D01*
X173280Y32136D01*
X174742Y33258D01*
X175865Y34720D01*
X176570Y36423D01*
X176810Y38250D01*
X176622Y39680D01*
X177793Y40306D01*
X179174Y38924D01*
X181159Y37598D01*
X183500Y37132D01*
X190373D01*
X190508Y36958D01*
X191970Y35835D01*
X193673Y35130D01*
X194189Y35062D01*
X194181Y35000D01*
X194456Y32912D01*
X195262Y30965D01*
X196544Y29294D01*
X198216Y28012D01*
X200162Y27206D01*
X202250Y26931D01*
X204338Y27206D01*
X206285Y28012D01*
X206486Y28166D01*
X207840Y27605D01*
X207930Y26923D01*
X208636Y25220D01*
X209757Y23758D01*
X211220Y22636D01*
X212923Y21930D01*
X214750Y21690D01*
X216577Y21930D01*
X218280Y22636D01*
X219742Y23758D01*
X220865Y25220D01*
X221570Y26923D01*
X221810Y28750D01*
X221772Y29045D01*
X222609Y30000D01*
X233750D01*
Y30642D01*
X235020Y31073D01*
X235586Y30336D01*
X236952Y29287D01*
X238543Y28628D01*
X238980Y28571D01*
Y35000D01*
Y42201D01*
X238790Y42367D01*
Y50540D01*
X233750D01*
Y52000D01*
X226348D01*
Y71126D01*
X227521Y71612D01*
X233988Y65145D01*
X235642Y64040D01*
X235966Y63976D01*
X237593Y63652D01*
X242687D01*
X243542Y62382D01*
X243129Y59250D01*
X243610Y55595D01*
X245021Y52190D01*
X247265Y49265D01*
X250190Y47021D01*
X253595Y45610D01*
X257250Y45129D01*
X260905Y45610D01*
X264310Y47021D01*
X267235Y49265D01*
X267750Y49299D01*
X271075Y45974D01*
X270841Y45409D01*
X270386Y41950D01*
X270841Y38491D01*
X272176Y35268D01*
X274300Y32500D01*
X277068Y30376D01*
X280035Y29147D01*
X280181Y28335D01*
X280097Y27798D01*
X277804Y26848D01*
X275341Y24959D01*
X273485Y22540D01*
X273260Y22505D01*
X272103Y22559D01*
X271899Y23050D01*
X270771Y24521D01*
X269300Y25649D01*
X267588Y26359D01*
X265750Y26601D01*
X262520D01*
Y14500D01*
X261250D01*
Y13230D01*
X249649D01*
Y9500D01*
X249891Y7662D01*
X250601Y5950D01*
X250771Y5727D01*
X250210Y4588D01*
X192290D01*
X191729Y5727D01*
X191899Y5950D01*
X192609Y7662D01*
X192851Y9500D01*
Y13230D01*
X181250D01*
Y14500D01*
X179980D01*
Y26601D01*
X176750D01*
X174912Y26359D01*
X173200Y25649D01*
X171729Y24521D01*
X170601Y23050D01*
X169891Y21338D01*
X169649Y19500D01*
Y17168D01*
X168379Y17085D01*
X168140Y18905D01*
X166729Y22310D01*
X164485Y25235D01*
X161560Y27479D01*
X158155Y28890D01*
X154500Y29371D01*
X150845Y28890D01*
X147440Y27479D01*
X144515Y25235D01*
X143517Y23935D01*
X142315Y24343D01*
Y25500D01*
X142057Y27458D01*
X141301Y29282D01*
X140099Y30849D01*
X138532Y32051D01*
X136708Y32807D01*
X134750Y33065D01*
X132792Y32807D01*
X130968Y32051D01*
X129401Y30849D01*
X128281Y31476D01*
X127532Y32051D01*
X125708Y32807D01*
X123750Y33065D01*
X121792Y32807D01*
X119968Y32051D01*
X119752Y31885D01*
X118613Y32447D01*
Y39392D01*
X118864Y39720D01*
X119570Y41423D01*
X119810Y43250D01*
X119570Y45077D01*
X118864Y46780D01*
X117742Y48242D01*
X116280Y49365D01*
X114577Y50070D01*
X112750Y50310D01*
X110923Y50070D01*
X109220Y49365D01*
X107758Y48242D01*
X106636Y46780D01*
X105930Y45077D01*
X105690Y43250D01*
X105930Y41423D01*
X106636Y39720D01*
X106887Y39392D01*
Y30795D01*
X105617Y30180D01*
X104107Y31189D01*
X103020Y31406D01*
Y16500D01*
X100480D01*
Y31406D01*
X99393Y31189D01*
X97395Y29855D01*
X96885Y29091D01*
X95615D01*
X95105Y29855D01*
X93107Y31189D01*
X92020Y31406D01*
Y16500D01*
X90750D01*
Y15230D01*
X84592D01*
Y7500D01*
X84918Y5858D01*
X84020Y4588D01*
X64480D01*
X63582Y5858D01*
X63908Y7500D01*
Y15230D01*
X57750D01*
Y16500D01*
X56480D01*
Y31406D01*
X55393Y31189D01*
X53395Y29855D01*
X52885Y29091D01*
X51615D01*
X51105Y29855D01*
X49107Y31189D01*
X48020Y31406D01*
Y16500D01*
X46750D01*
Y15230D01*
X40592D01*
Y7500D01*
X40918Y5858D01*
X40020Y4588D01*
X4588D01*
Y26049D01*
X5527Y26676D01*
X5858Y26684D01*
X7750Y26435D01*
X24117D01*
X27151Y23401D01*
X28718Y22199D01*
X30542Y21443D01*
X32500Y21185D01*
X34458Y21443D01*
X36282Y22199D01*
X37849Y23401D01*
X39051Y24968D01*
X39355Y25702D01*
X40592Y25500D01*
Y17770D01*
X45480D01*
Y31406D01*
X44393Y31189D01*
X42395Y29855D01*
X41269Y28169D01*
X40049Y28628D01*
X40065Y28750D01*
X39807Y30708D01*
X39065Y32500D01*
X39807Y34292D01*
X40065Y36250D01*
X39807Y38208D01*
X39051Y40032D01*
X37849Y41599D01*
X36282Y42801D01*
X34458Y43557D01*
X32956Y43755D01*
X31881Y44864D01*
X31908Y45000D01*
X31440Y47357D01*
X30105Y49355D01*
X28107Y50690D01*
X25750Y51158D01*
X18020D01*
Y45000D01*
X15480D01*
Y51158D01*
X7750D01*
X5858Y50782D01*
X4588Y51563D01*
Y115437D01*
X5858Y116218D01*
X7750Y115842D01*
X15480D01*
Y122000D01*
Y128158D01*
X7750D01*
X5858Y127782D01*
X4588Y128563D01*
Y195412D01*
X60639D01*
X61402Y194142D01*
D02*
G37*
G36*
X244558D02*
X244378Y193707D01*
X244154Y192000D01*
Y188270D01*
X250750D01*
Y187000D01*
X252020D01*
Y175571D01*
X252457Y175628D01*
X253420Y176027D01*
X254690Y175269D01*
Y174000D01*
X254930Y172173D01*
X255636Y170470D01*
X256758Y169007D01*
X263757Y162008D01*
X265220Y160886D01*
X266923Y160180D01*
X268750Y159940D01*
X277733D01*
X277980Y159342D01*
X279223Y157723D01*
X280319Y156882D01*
X280374Y155391D01*
X280215Y155285D01*
X278825Y153204D01*
X278337Y150750D01*
Y148270D01*
X288500D01*
Y147000D01*
X289770D01*
Y136837D01*
X292250D01*
X294142Y137213D01*
X295412Y136387D01*
Y50604D01*
X294142Y50173D01*
X293200Y51400D01*
X290432Y53524D01*
X287209Y54859D01*
X283750Y55314D01*
X280291Y54859D01*
X279726Y54625D01*
X277367Y56984D01*
Y65049D01*
X276902Y67390D01*
X276050Y68665D01*
X276272Y70081D01*
X276467Y70279D01*
X277742Y71258D01*
X278864Y72720D01*
X279570Y74423D01*
X279810Y76250D01*
X279570Y78077D01*
X278864Y79780D01*
X278846Y79804D01*
X279738Y80965D01*
X280544Y82912D01*
X280819Y85000D01*
Y95000D01*
X280544Y97088D01*
X279738Y99035D01*
X278456Y100706D01*
X276784Y101988D01*
X274838Y102794D01*
X272750Y103069D01*
X270662Y102794D01*
X268715Y101988D01*
X267250Y100864D01*
X265784Y101988D01*
X263838Y102794D01*
X261750Y103069D01*
X259662Y102794D01*
X257715Y101988D01*
X256044Y100706D01*
X254762Y99035D01*
X253956Y97088D01*
X253828Y96117D01*
X247672D01*
X247544Y97088D01*
X246738Y99035D01*
X245456Y100706D01*
X243785Y101988D01*
X241838Y102794D01*
X239750Y103069D01*
X237662Y102794D01*
X235716Y101988D01*
X234044Y100706D01*
X233528Y100032D01*
X232260Y99949D01*
X213855Y118355D01*
X212201Y119460D01*
X210250Y119848D01*
X207855D01*
X206530Y120864D01*
X204827Y121570D01*
X203000Y121810D01*
X201173Y121570D01*
X199470Y120864D01*
X198008Y119742D01*
X196886Y118280D01*
X196180Y116577D01*
X195940Y114750D01*
X195149Y113848D01*
X187180D01*
X186694Y115021D01*
X195855Y124182D01*
X196960Y125836D01*
X197348Y127787D01*
Y137888D01*
X198862Y139402D01*
X207395D01*
X208720Y138385D01*
X210423Y137680D01*
X212250Y137440D01*
X214077Y137680D01*
X215780Y138385D01*
X217242Y139508D01*
X218365Y140970D01*
X219070Y142673D01*
X219310Y144500D01*
X219070Y146327D01*
X218365Y148030D01*
X217242Y149492D01*
X215780Y150615D01*
X214077Y151320D01*
X212250Y151560D01*
X210423Y151320D01*
X208720Y150615D01*
X207395Y149598D01*
X200529D01*
X199601Y150868D01*
X199853Y152136D01*
Y160161D01*
X200808Y160998D01*
X201250Y160940D01*
X203077Y161180D01*
X204780Y161886D01*
X206043Y162855D01*
X207048Y163055D01*
X208785Y164215D01*
X227035Y182465D01*
X228195Y184202D01*
X228395Y185207D01*
X229364Y186470D01*
X230070Y188173D01*
X230310Y190000D01*
X230070Y191827D01*
X229364Y193530D01*
X228895Y194142D01*
X229521Y195412D01*
X243710D01*
X244558Y194142D01*
D02*
G37*
%LPC*%
G36*
X246679Y33730D02*
X241520D01*
Y28571D01*
X241957Y28628D01*
X243548Y29287D01*
X244914Y30336D01*
X245963Y31702D01*
X246622Y33293D01*
X246679Y33730D01*
D02*
G37*
G36*
X241520Y41429D02*
Y36270D01*
X246679D01*
X246622Y36707D01*
X245963Y38298D01*
X244914Y39664D01*
X243548Y40713D01*
X241957Y41372D01*
X241520Y41429D01*
D02*
G37*
G36*
X68480Y91230D02*
X60799D01*
X60943Y90140D01*
X61854Y87941D01*
X63303Y86053D01*
X65191Y84604D01*
X67390Y83693D01*
X68480Y83549D01*
Y91230D01*
D02*
G37*
G36*
X89480Y31406D02*
X88393Y31189D01*
X86395Y29855D01*
X85061Y27857D01*
X84592Y25500D01*
Y17770D01*
X89480D01*
Y31406D01*
D02*
G37*
G36*
X185750Y26601D02*
X182520D01*
Y15770D01*
X192851D01*
Y19500D01*
X192609Y21338D01*
X191899Y23050D01*
X190771Y24521D01*
X189300Y25649D01*
X187588Y26359D01*
X185750Y26601D01*
D02*
G37*
G36*
X259980D02*
X256750D01*
X254912Y26359D01*
X253200Y25649D01*
X251729Y24521D01*
X250601Y23050D01*
X249891Y21338D01*
X249649Y19500D01*
Y15770D01*
X259980D01*
Y26601D01*
D02*
G37*
G36*
X59020Y31406D02*
Y17770D01*
X63908D01*
Y25500D01*
X63440Y27857D01*
X62105Y29855D01*
X60107Y31189D01*
X59020Y31406D01*
D02*
G37*
G36*
X25750Y128158D02*
X18020D01*
Y123270D01*
X31656D01*
X31440Y124357D01*
X30105Y126355D01*
X28107Y127690D01*
X25750Y128158D01*
D02*
G37*
G36*
X287230Y145730D02*
X278337D01*
Y143250D01*
X278825Y140796D01*
X280215Y138715D01*
X282296Y137325D01*
X284750Y136837D01*
X287230D01*
Y145730D01*
D02*
G37*
G36*
X249480Y185730D02*
X244154D01*
Y182000D01*
X244378Y180293D01*
X245037Y178702D01*
X246086Y177336D01*
X247452Y176287D01*
X249043Y175628D01*
X249480Y175571D01*
Y185730D01*
D02*
G37*
G36*
X31656Y120730D02*
X18020D01*
Y115842D01*
X25750D01*
X28107Y116310D01*
X30105Y117645D01*
X31440Y119643D01*
X31656Y120730D01*
D02*
G37*
G36*
X78701Y91230D02*
X71020D01*
Y83549D01*
X72110Y83693D01*
X74309Y84604D01*
X76197Y86053D01*
X77646Y87941D01*
X78557Y90140D01*
X78701Y91230D01*
D02*
G37*
G36*
X68480Y101451D02*
X67390Y101307D01*
X65191Y100396D01*
X63303Y98947D01*
X61854Y97059D01*
X60943Y94860D01*
X60799Y93770D01*
X68480D01*
Y101451D01*
D02*
G37*
G36*
X71020D02*
Y93770D01*
X78701D01*
X78557Y94860D01*
X77646Y97059D01*
X76197Y98947D01*
X74309Y100396D01*
X72110Y101307D01*
X71020Y101451D01*
D02*
G37*
%LPD*%
D10*
X164750Y166000D02*
D03*
Y155000D02*
D03*
Y144000D02*
D03*
Y133000D02*
D03*
Y100000D02*
D03*
Y67000D02*
D03*
Y56000D02*
D03*
X16750Y34000D02*
D03*
Y45000D02*
D03*
Y122000D02*
D03*
D11*
X134750Y183500D02*
D03*
X101750D02*
D03*
X90750Y183500D02*
D03*
X68750Y183500D02*
D03*
X46750Y16500D02*
D03*
X57750D02*
D03*
X90750D02*
D03*
X101750D02*
D03*
X112750D02*
D03*
X123750D02*
D03*
X134750D02*
D03*
X79750Y183500D02*
D03*
D12*
X221250Y41000D02*
D03*
X214750D02*
D03*
X227750D02*
D03*
X208250D02*
D03*
X234250D02*
D03*
D13*
X181250Y14500D02*
D03*
X261250D02*
D03*
D14*
X288500Y167000D02*
D03*
Y187000D02*
D03*
Y147000D02*
D03*
D15*
X184750Y90000D02*
D03*
X195750D02*
D03*
X206750D02*
D03*
X239750D02*
D03*
X261750D02*
D03*
X272750D02*
D03*
Y187000D02*
D03*
X261750D02*
D03*
X250750D02*
D03*
X184750D02*
D03*
D16*
X189750Y54500D02*
D03*
Y69500D02*
D03*
D17*
X79750Y168750D02*
Y183500D01*
X180000Y106250D02*
X182500Y108750D01*
X209426D01*
X210250Y114750D02*
X231500Y93500D01*
X203000Y114750D02*
X210250D01*
X209426Y108750D02*
X227250Y90926D01*
Y79093D02*
Y90926D01*
Y79093D02*
X237593Y68750D01*
X231500Y80500D02*
Y93500D01*
Y80500D02*
X237250Y74750D01*
X237593Y68750D02*
X245735D01*
X253115Y76130D01*
X257000D01*
X237250Y74750D02*
X243250D01*
X214750Y28750D02*
Y41000D01*
X221250Y35250D02*
Y78250D01*
X69750Y117500D02*
X111750D01*
X113500Y119250D01*
X162500D01*
X165750Y122500D01*
X272750Y76250D02*
Y90000D01*
X272750Y90000D01*
X196750Y144500D02*
X212250D01*
X192250Y140000D02*
X196750Y144500D01*
X192250Y127787D02*
Y140000D01*
X164750Y100287D02*
X192250Y127787D01*
X164750Y100000D02*
Y100287D01*
D18*
X119500Y178250D02*
Y180000D01*
X107000Y165750D02*
X119500Y178250D01*
X184750Y187000D02*
X188750Y191000D01*
X194500D01*
X101875Y183625D02*
X110625D01*
X90750Y168250D02*
Y183500D01*
Y168250D02*
X93250Y165750D01*
X107000D01*
X68750Y167500D02*
Y183500D01*
Y167500D02*
X76000Y160250D01*
X178500Y174250D02*
X183250Y169500D01*
Y157500D02*
Y169500D01*
X190000Y154000D02*
Y174997D01*
X183500Y147500D02*
X190000Y154000D01*
X69750Y41500D02*
X83250Y55000D01*
Y72750D01*
X188000Y145636D02*
X194500Y152136D01*
X190000Y174997D02*
X204253Y189250D01*
X76000Y160250D02*
X111250D01*
X118000Y167000D01*
X138179D01*
X145429Y174250D01*
X178500D01*
X69750Y67000D02*
X117500Y114750D01*
X83250Y72750D02*
X120750Y110250D01*
X168703D02*
X188000Y129547D01*
X117500Y114750D02*
X166839D01*
X183500Y131411D01*
Y147500D01*
X120750Y110250D02*
X168703D01*
X188000Y129547D02*
Y145636D01*
X141500Y125750D02*
X149000D01*
X139500Y123750D02*
X141500Y125750D01*
X89000Y123750D02*
X139500D01*
X69750Y143000D02*
X89000Y123750D01*
X203750Y189250D02*
X204253D01*
X201250Y174250D02*
X210250Y183250D01*
X198661Y174250D02*
X201250D01*
X194500Y170089D02*
X198661Y174250D01*
X194500Y152136D02*
Y170089D01*
X201250Y168000D02*
X205000D01*
X223250Y186250D01*
Y190000D01*
D19*
X232250Y58750D02*
X234250Y56750D01*
X232250Y58750D02*
Y61750D01*
X234250Y41000D02*
Y56750D01*
X181250Y14500D02*
X261250D01*
X271250Y54450D02*
X283750Y41950D01*
X271250Y54450D02*
Y65049D01*
X265750Y70549D02*
X271250Y65049D01*
X265750Y70549D02*
Y78500D01*
X261750Y82500D02*
X265750Y78500D01*
X261750Y82500D02*
Y90000D01*
X164750Y67000D02*
X187250D01*
X189750Y69500D01*
X164750Y56000D02*
X188250D01*
X189750Y54500D01*
X195750Y90000D02*
Y97000D01*
X201250Y102500D01*
X207750Y89000D02*
X216250D01*
X206750Y90000D02*
X207750Y89000D01*
X190250Y54000D02*
X205750D01*
X189750Y54500D02*
X190250Y54000D01*
Y70000D02*
X205750D01*
X189750Y69500D02*
X190250Y70000D01*
X239750Y90000D02*
X261750D01*
X206000Y43250D02*
X208250Y41000D01*
X183500Y43250D02*
X206000D01*
X179000Y47750D02*
X183500Y43250D01*
X150750Y47750D02*
X179000D01*
X143000Y55500D02*
X150750Y47750D01*
X151765Y38250D02*
X169750D01*
X131500Y58515D02*
X151765Y38250D01*
X143000Y55500D02*
Y62500D01*
X131500Y58515D02*
Y69000D01*
X285500Y190250D02*
X288500Y187250D01*
X282000Y183250D02*
X282250Y183500D01*
X288500Y185750D02*
Y187000D01*
Y187250D01*
X277750Y147000D02*
X288500D01*
X250750Y174000D02*
X277750Y147000D01*
X250750Y174000D02*
Y187000D01*
X272750D02*
X276000Y190250D01*
X274000Y185750D02*
X276500Y183250D01*
X282000D01*
X272750Y187000D02*
X279250D01*
X288500D01*
X276000Y190250D02*
X285500D01*
X274000Y185750D02*
X288500D01*
X281700Y14500D02*
X283750Y16550D01*
X261250Y14500D02*
X281700D01*
X269964Y30336D02*
X283750Y16550D01*
X264500Y30336D02*
X269964D01*
D20*
X134750Y183500D02*
Y190250D01*
X132750Y192250D02*
X134750Y190250D01*
X125000Y192250D02*
X132750D01*
X144250Y166000D02*
X164750D01*
X111750Y88500D02*
Y88500D01*
X91000Y67750D02*
X111750Y88500D01*
X91000Y49000D02*
Y67750D01*
X84750Y42750D02*
X85250Y43250D01*
X91000Y49000D01*
X112750Y16500D02*
Y43250D01*
Y16500D02*
X112750Y16500D01*
X123750D01*
X134750D01*
X139750Y155000D02*
X164750D01*
X123750Y149500D02*
X126472D01*
X137472Y160500D01*
X138750D01*
X144250Y166000D01*
X127000Y142250D02*
X139750Y155000D01*
X112750Y142250D02*
X127000D01*
X111750Y141250D02*
X112750Y142250D01*
X129750Y135500D02*
X138250Y144000D01*
X164750D01*
X138339Y133000D02*
X164750D01*
X103750Y128750D02*
X134089D01*
X85750Y146750D02*
X103750Y128750D01*
X134089D02*
X138339Y133000D01*
D21*
X261750Y174000D02*
Y187000D01*
Y174000D02*
X268750Y167000D01*
X288500D01*
D22*
X18750Y175091D02*
Y183500D01*
Y175091D02*
X39000Y154841D01*
X26750Y80750D02*
X39000Y93000D01*
X26750Y76750D02*
Y80750D01*
X43250Y44750D02*
Y60250D01*
X26750Y76750D02*
X43250Y60250D01*
X44500Y59000D01*
X236348Y165603D02*
X236833D01*
X232939Y116105D02*
X269000D01*
X232939Y137943D02*
X236348Y141351D01*
Y152348D01*
X207395Y128000D02*
X232939D01*
X274436D01*
X232939Y116105D02*
Y128000D01*
Y137943D01*
X236833Y165603D02*
X274436Y128000D01*
X287500Y114936D01*
X141169Y83250D02*
X172750D01*
X104750Y55750D02*
Y61767D01*
X141233Y98250D01*
X128669Y95750D02*
X133701Y90718D01*
X141169Y83250D01*
X39000Y93000D02*
Y154841D01*
X43250Y60250D02*
Y180750D01*
D23*
X208500Y11250D02*
X218791D01*
D24*
X30250Y34000D02*
X32500Y36250D01*
X27250Y34000D02*
X32500Y28750D01*
X16750Y34000D02*
X27250D01*
X30250D01*
D25*
X202250Y35000D02*
D03*
X240250D02*
D03*
D26*
X154500Y15250D02*
D03*
X257250Y59250D02*
D03*
D27*
X69750Y143000D02*
D03*
D28*
Y117500D02*
D03*
Y92500D02*
D03*
Y67000D02*
D03*
Y41500D02*
D03*
D29*
X283750Y41950D02*
D03*
Y16550D02*
D03*
D30*
X79750Y168750D02*
D03*
X119500Y180000D02*
D03*
X180000Y106250D02*
D03*
X203000Y114750D02*
D03*
X257000Y76130D02*
D03*
X243250Y74750D02*
D03*
X195500Y41950D02*
D03*
X214750Y28750D02*
D03*
X221250Y78250D02*
D03*
X216250Y89000D02*
D03*
X201250Y102500D02*
D03*
X205750Y70000D02*
D03*
Y54000D02*
D03*
X194500Y191000D02*
D03*
X110625Y183625D02*
D03*
X125000Y192250D02*
D03*
X183250Y157500D02*
D03*
X203250Y159500D02*
D03*
X123750Y149500D02*
D03*
X85750Y146750D02*
D03*
X111750Y88500D02*
D03*
X85250Y43250D02*
D03*
X112750D02*
D03*
X169750Y38250D02*
D03*
X143000Y62500D02*
D03*
X131500Y69000D02*
D03*
X165750Y122500D02*
D03*
X149000Y125750D02*
D03*
X129750Y135500D02*
D03*
X111750Y141250D02*
D03*
X275750Y167000D02*
D03*
X268750D02*
D03*
X279250Y187000D02*
D03*
Y193500D02*
D03*
Y180500D02*
D03*
X203750Y189250D02*
D03*
X210250Y183250D02*
D03*
X201250Y168000D02*
D03*
X223250Y190000D02*
D03*
X240250Y180500D02*
D03*
Y193500D02*
D03*
Y187000D02*
D03*
X272750Y76250D02*
D03*
X212250Y144500D02*
D03*
X252250Y133250D02*
D03*
X244250Y133500D02*
D03*
X233750Y133250D02*
D03*
X227500Y126000D02*
D03*
X228750Y117250D02*
D03*
X229250Y106000D02*
D03*
X241750Y105750D02*
D03*
X253000D02*
D03*
X255000Y118250D02*
D03*
X242250Y119000D02*
D03*
X285500Y95683D02*
D03*
X290000Y89000D02*
D03*
X285500Y78250D02*
D03*
X289250Y69430D02*
D03*
X266699Y42250D02*
D03*
X258500Y38298D02*
D03*
X249891Y28500D02*
D03*
X257000Y30000D02*
D03*
X253250Y44000D02*
D03*
X182250Y36250D02*
D03*
X170750Y27258D02*
D03*
X188500Y33500D02*
D03*
X164250Y29287D02*
D03*
X144500Y31885D02*
D03*
X130250Y40125D02*
D03*
X122000Y50540D02*
D03*
X108250Y53250D02*
D03*
X100000Y35000D02*
D03*
X83250Y31406D02*
D03*
X74500Y26359D02*
D03*
X73000Y15000D02*
D03*
X53750Y37000D02*
D03*
X60500Y54500D02*
D03*
X43000Y52000D02*
D03*
X43500Y38000D02*
D03*
X52250Y87750D02*
D03*
X21750Y81174D02*
D03*
X40000Y110500D02*
D03*
X19500Y130250D02*
D03*
X174000Y87500D02*
D03*
X173380Y79000D02*
D03*
X153750Y82912D02*
D03*
X141000Y88000D02*
D03*
X138881Y99750D02*
D03*
X125000Y99035D02*
D03*
X126250Y82180D02*
D03*
X116000Y78250D02*
D03*
X100250Y110011D02*
D03*
X249750Y173000D02*
D03*
X232250Y61750D02*
D03*
X40750Y173750D02*
D03*
X67750Y157000D02*
D03*
X17522Y191250D02*
D03*
X49500D02*
D03*
X32500Y36250D02*
D03*
Y28750D02*
D03*
M02*
