%FSLAX44Y44*%
%MOMM*%
G71*
G01*
G75*
G04 Layer_Physical_Order=2*
G04 Layer_Color=16711680*
%ADD10O,2.5000X0.7000*%
%ADD11O,0.7000X2.5000*%
%ADD12R,0.4000X1.4000*%
G04:AMPARAMS|DCode=13|XSize=1.8mm|YSize=1.9mm|CornerRadius=0.45mm|HoleSize=0mm|Usage=FLASHONLY|Rotation=0.000|XOffset=0mm|YOffset=0mm|HoleType=Round|Shape=RoundedRectangle|*
%AMROUNDEDRECTD13*
21,1,1.8000,1.0000,0,0,0.0*
21,1,0.9000,1.9000,0,0,0.0*
1,1,0.9000,0.4500,-0.5000*
1,1,0.9000,-0.4500,-0.5000*
1,1,0.9000,-0.4500,0.5000*
1,1,0.9000,0.4500,0.5000*
%
%ADD13ROUNDEDRECTD13*%
G04:AMPARAMS|DCode=14|XSize=1.5mm|YSize=1.5mm|CornerRadius=0.375mm|HoleSize=0mm|Usage=FLASHONLY|Rotation=180.000|XOffset=0mm|YOffset=0mm|HoleType=Round|Shape=RoundedRectangle|*
%AMROUNDEDRECTD14*
21,1,1.5000,0.7500,0,0,180.0*
21,1,0.7500,1.5000,0,0,180.0*
1,1,0.7500,-0.3750,0.3750*
1,1,0.7500,0.3750,0.3750*
1,1,0.7500,0.3750,-0.3750*
1,1,0.7500,-0.3750,-0.3750*
%
%ADD14ROUNDEDRECTD14*%
%ADD15O,0.8000X1.8000*%
G04:AMPARAMS|DCode=16|XSize=1mm|YSize=1.2mm|CornerRadius=0.165mm|HoleSize=0mm|Usage=FLASHONLY|Rotation=90.000|XOffset=0mm|YOffset=0mm|HoleType=Round|Shape=RoundedRectangle|*
%AMROUNDEDRECTD16*
21,1,1.0000,0.8700,0,0,90.0*
21,1,0.6700,1.2000,0,0,90.0*
1,1,0.3300,0.4350,0.3350*
1,1,0.3300,0.4350,-0.3350*
1,1,0.3300,-0.4350,-0.3350*
1,1,0.3300,-0.4350,0.3350*
%
%ADD16ROUNDEDRECTD16*%
%ADD17C,0.2000*%
%ADD18C,0.2500*%
%ADD19C,0.4000*%
%ADD20C,0.3500*%
%ADD21C,0.6000*%
%ADD22C,1.5000*%
%ADD23C,1.1000*%
%ADD24C,0.7000*%
%ADD25C,0.7000*%
%ADD26C,2.0000*%
%ADD27R,1.3000X1.3000*%
%ADD28C,1.3000*%
%ADD29C,1.8500*%
%ADD30C,0.6000*%
G04:AMPARAMS|DCode=31|XSize=1mm|YSize=0.9mm|CornerRadius=0.198mm|HoleSize=0mm|Usage=FLASHONLY|Rotation=90.000|XOffset=0mm|YOffset=0mm|HoleType=Round|Shape=RoundedRectangle|*
%AMROUNDEDRECTD31*
21,1,1.0000,0.5040,0,0,90.0*
21,1,0.6040,0.9000,0,0,90.0*
1,1,0.3960,0.2520,0.3020*
1,1,0.3960,0.2520,-0.3020*
1,1,0.3960,-0.2520,-0.3020*
1,1,0.3960,-0.2520,0.3020*
%
%ADD31ROUNDEDRECTD31*%
G04:AMPARAMS|DCode=32|XSize=1mm|YSize=0.9mm|CornerRadius=0.198mm|HoleSize=0mm|Usage=FLASHONLY|Rotation=0.000|XOffset=0mm|YOffset=0mm|HoleType=Round|Shape=RoundedRectangle|*
%AMROUNDEDRECTD32*
21,1,1.0000,0.5040,0,0,0.0*
21,1,0.6040,0.9000,0,0,0.0*
1,1,0.3960,0.3020,-0.2520*
1,1,0.3960,-0.3020,-0.2520*
1,1,0.3960,-0.3020,0.2520*
1,1,0.3960,0.3020,0.2520*
%
%ADD32ROUNDEDRECTD32*%
G04:AMPARAMS|DCode=33|XSize=1mm|YSize=0.95mm|CornerRadius=0.1995mm|HoleSize=0mm|Usage=FLASHONLY|Rotation=270.000|XOffset=0mm|YOffset=0mm|HoleType=Round|Shape=RoundedRectangle|*
%AMROUNDEDRECTD33*
21,1,1.0000,0.5510,0,0,270.0*
21,1,0.6010,0.9500,0,0,270.0*
1,1,0.3990,-0.2755,-0.3005*
1,1,0.3990,-0.2755,0.3005*
1,1,0.3990,0.2755,0.3005*
1,1,0.3990,0.2755,-0.3005*
%
%ADD33ROUNDEDRECTD33*%
G04:AMPARAMS|DCode=34|XSize=1mm|YSize=0.95mm|CornerRadius=0.1995mm|HoleSize=0mm|Usage=FLASHONLY|Rotation=0.000|XOffset=0mm|YOffset=0mm|HoleType=Round|Shape=RoundedRectangle|*
%AMROUNDEDRECTD34*
21,1,1.0000,0.5510,0,0,0.0*
21,1,0.6010,0.9500,0,0,0.0*
1,1,0.3990,0.3005,-0.2755*
1,1,0.3990,-0.3005,-0.2755*
1,1,0.3990,-0.3005,0.2755*
1,1,0.3990,0.3005,0.2755*
%
%ADD34ROUNDEDRECTD34*%
%ADD35R,4.0000X4.0000*%
%ADD36O,0.4000X1.1000*%
%ADD37O,1.1000X0.4000*%
G04:AMPARAMS|DCode=38|XSize=0.375mm|YSize=1.5mm|CornerRadius=0.0825mm|HoleSize=0mm|Usage=FLASHONLY|Rotation=180.000|XOffset=0mm|YOffset=0mm|HoleType=Round|Shape=RoundedRectangle|*
%AMROUNDEDRECTD38*
21,1,0.3750,1.3350,0,0,180.0*
21,1,0.2100,1.5000,0,0,180.0*
1,1,0.1650,-0.1050,0.6675*
1,1,0.1650,0.1050,0.6675*
1,1,0.1650,0.1050,-0.6675*
1,1,0.1650,-0.1050,-0.6675*
%
%ADD38ROUNDEDRECTD38*%
G04:AMPARAMS|DCode=39|XSize=0.375mm|YSize=1.25mm|CornerRadius=0.0825mm|HoleSize=0mm|Usage=FLASHONLY|Rotation=180.000|XOffset=0mm|YOffset=0mm|HoleType=Round|Shape=RoundedRectangle|*
%AMROUNDEDRECTD39*
21,1,0.3750,1.0850,0,0,180.0*
21,1,0.2100,1.2500,0,0,180.0*
1,1,0.1650,-0.1050,0.5425*
1,1,0.1650,0.1050,0.5425*
1,1,0.1650,0.1050,-0.5425*
1,1,0.1650,-0.1050,-0.5425*
%
%ADD39ROUNDEDRECTD39*%
G04:AMPARAMS|DCode=40|XSize=0.375mm|YSize=1.6mm|CornerRadius=0.0825mm|HoleSize=0mm|Usage=FLASHONLY|Rotation=180.000|XOffset=0mm|YOffset=0mm|HoleType=Round|Shape=RoundedRectangle|*
%AMROUNDEDRECTD40*
21,1,0.3750,1.4350,0,0,180.0*
21,1,0.2100,1.6000,0,0,180.0*
1,1,0.1650,-0.1050,0.7175*
1,1,0.1650,0.1050,0.7175*
1,1,0.1650,0.1050,-0.7175*
1,1,0.1650,-0.1050,-0.7175*
%
%ADD40ROUNDEDRECTD40*%
G04:AMPARAMS|DCode=41|XSize=1.1mm|YSize=0.9mm|CornerRadius=0.3015mm|HoleSize=0mm|Usage=FLASHONLY|Rotation=90.000|XOffset=0mm|YOffset=0mm|HoleType=Round|Shape=RoundedRectangle|*
%AMROUNDEDRECTD41*
21,1,1.1000,0.2970,0,0,90.0*
21,1,0.4970,0.9000,0,0,90.0*
1,1,0.6030,0.1485,0.2485*
1,1,0.6030,0.1485,-0.2485*
1,1,0.6030,-0.1485,-0.2485*
1,1,0.6030,-0.1485,0.2485*
%
%ADD41ROUNDEDRECTD41*%
G04:AMPARAMS|DCode=42|XSize=1mm|YSize=0.4mm|CornerRadius=0.1mm|HoleSize=0mm|Usage=FLASHONLY|Rotation=90.000|XOffset=0mm|YOffset=0mm|HoleType=Round|Shape=RoundedRectangle|*
%AMROUNDEDRECTD42*
21,1,1.0000,0.2000,0,0,90.0*
21,1,0.8000,0.4000,0,0,90.0*
1,1,0.2000,0.1000,0.4000*
1,1,0.2000,0.1000,-0.4000*
1,1,0.2000,-0.1000,-0.4000*
1,1,0.2000,-0.1000,0.4000*
%
%ADD42ROUNDEDRECTD42*%
G04:AMPARAMS|DCode=43|XSize=0.75mm|YSize=1.1mm|CornerRadius=0.165mm|HoleSize=0mm|Usage=FLASHONLY|Rotation=180.000|XOffset=0mm|YOffset=0mm|HoleType=Round|Shape=RoundedRectangle|*
%AMROUNDEDRECTD43*
21,1,0.7500,0.7700,0,0,180.0*
21,1,0.4200,1.1000,0,0,180.0*
1,1,0.3300,-0.2100,0.3850*
1,1,0.3300,0.2100,0.3850*
1,1,0.3300,0.2100,-0.3850*
1,1,0.3300,-0.2100,-0.3850*
%
%ADD43ROUNDEDRECTD43*%
G04:AMPARAMS|DCode=44|XSize=1mm|YSize=1.1mm|CornerRadius=0.165mm|HoleSize=0mm|Usage=FLASHONLY|Rotation=180.000|XOffset=0mm|YOffset=0mm|HoleType=Round|Shape=RoundedRectangle|*
%AMROUNDEDRECTD44*
21,1,1.0000,0.7700,0,0,180.0*
21,1,0.6700,1.1000,0,0,180.0*
1,1,0.3300,-0.3350,0.3850*
1,1,0.3300,0.3350,0.3850*
1,1,0.3300,0.3350,-0.3850*
1,1,0.3300,-0.3350,-0.3850*
%
%ADD44ROUNDEDRECTD44*%
G04:AMPARAMS|DCode=45|XSize=1.1mm|YSize=0.75mm|CornerRadius=0.2512mm|HoleSize=0mm|Usage=FLASHONLY|Rotation=90.000|XOffset=0mm|YOffset=0mm|HoleType=Round|Shape=RoundedRectangle|*
%AMROUNDEDRECTD45*
21,1,1.1000,0.2475,0,0,90.0*
21,1,0.5975,0.7500,0,0,90.0*
1,1,0.5025,0.1238,0.2988*
1,1,0.5025,0.1238,-0.2988*
1,1,0.5025,-0.1238,-0.2988*
1,1,0.5025,-0.1238,0.2988*
%
%ADD45ROUNDEDRECTD45*%
G04:AMPARAMS|DCode=46|XSize=1.1mm|YSize=0.6mm|CornerRadius=0.201mm|HoleSize=0mm|Usage=FLASHONLY|Rotation=270.000|XOffset=0mm|YOffset=0mm|HoleType=Round|Shape=RoundedRectangle|*
%AMROUNDEDRECTD46*
21,1,1.1000,0.1980,0,0,270.0*
21,1,0.6980,0.6000,0,0,270.0*
1,1,0.4020,-0.0990,-0.3490*
1,1,0.4020,-0.0990,0.3490*
1,1,0.4020,0.0990,0.3490*
1,1,0.4020,0.0990,-0.3490*
%
%ADD46ROUNDEDRECTD46*%
G04:AMPARAMS|DCode=47|XSize=1.5mm|YSize=3mm|CornerRadius=0.375mm|HoleSize=0mm|Usage=FLASHONLY|Rotation=270.000|XOffset=0mm|YOffset=0mm|HoleType=Round|Shape=RoundedRectangle|*
%AMROUNDEDRECTD47*
21,1,1.5000,2.2500,0,0,270.0*
21,1,0.7500,3.0000,0,0,270.0*
1,1,0.7500,-1.1250,-0.3750*
1,1,0.7500,-1.1250,0.3750*
1,1,0.7500,1.1250,0.3750*
1,1,0.7500,1.1250,-0.3750*
%
%ADD47ROUNDEDRECTD47*%
G36*
X61343Y95827D02*
X60943Y94860D01*
X60799Y93770D01*
X69750D01*
Y91230D01*
X60799D01*
X60943Y90140D01*
X61854Y87941D01*
X63046Y86388D01*
X62575Y85118D01*
X60250D01*
X57909Y84652D01*
X55924Y83326D01*
X46654Y74056D01*
X45481Y74542D01*
Y81675D01*
X45220Y82988D01*
X44476Y84101D01*
X43363Y84845D01*
X42270Y85062D01*
Y75000D01*
X39730D01*
Y85062D01*
X38637Y84845D01*
X37524Y84101D01*
X36780Y82988D01*
X36519Y81675D01*
Y74820D01*
X35249Y74435D01*
X34823Y75073D01*
X32835Y76401D01*
X30490Y76868D01*
X28510D01*
X26165Y76401D01*
X24177Y75073D01*
X23038Y73368D01*
X16962D01*
X16617Y73884D01*
Y84475D01*
X17888Y85344D01*
X18730Y85177D01*
Y93250D01*
X21270D01*
Y85177D01*
X22765Y85474D01*
X23035Y85654D01*
X24177Y85427D01*
X26165Y84099D01*
X28510Y83632D01*
X30490D01*
X32835Y84099D01*
X34823Y85427D01*
X35963Y87133D01*
X42250D01*
X44591Y87598D01*
X46576Y88924D01*
X54534Y96882D01*
X60637D01*
X61343Y95827D01*
D02*
G37*
G36*
X39950Y125144D02*
X40904D01*
X41348Y122909D01*
X42674Y120924D01*
X45382Y118216D01*
Y105034D01*
X39716Y99368D01*
X35963D01*
X34823Y101073D01*
X33642Y101862D01*
X33226Y103509D01*
X33238Y103543D01*
X33527Y103976D01*
X33879Y105745D01*
Y107480D01*
X26500D01*
Y110020D01*
X33879D01*
Y111755D01*
X33527Y113525D01*
X33359Y113776D01*
X33845Y114949D01*
X34594Y115098D01*
X36577Y116423D01*
X37902Y118406D01*
X38367Y120745D01*
Y124174D01*
X39637Y125206D01*
X39950Y125144D01*
D02*
G37*
G36*
X99832Y131885D02*
X100855Y130354D01*
X105887Y125322D01*
Y92358D01*
X105635Y92030D01*
X104930Y90327D01*
X104690Y88500D01*
X104930Y86673D01*
X105635Y84970D01*
X106156Y84292D01*
X105199Y83453D01*
X95367Y93284D01*
Y120500D01*
X95368Y120500D01*
Y129216D01*
X98391Y132239D01*
X99832Y131885D01*
D02*
G37*
G36*
X272538Y20290D02*
X272264Y19628D01*
X272026Y17820D01*
X283750D01*
Y15280D01*
X272026D01*
X272264Y13472D01*
X273451Y10604D01*
X275341Y8141D01*
X277804Y6252D01*
X278754Y5858D01*
X278501Y4588D01*
X256699D01*
X256213Y5762D01*
X271461Y21010D01*
X272538Y20290D01*
D02*
G37*
G36*
X285225Y118886D02*
X285361Y117583D01*
X285312Y117416D01*
X284725Y117024D01*
X283723Y115525D01*
X283371Y113755D01*
Y112270D01*
X291000D01*
Y111000D01*
X292270D01*
Y103621D01*
X294005D01*
X294430Y103706D01*
X295412Y102900D01*
Y50604D01*
X294142Y50173D01*
X293200Y51400D01*
X290432Y53524D01*
X287209Y54859D01*
X283750Y55314D01*
X280291Y54859D01*
X277068Y53524D01*
X274300Y51400D01*
X272176Y48632D01*
X270841Y45409D01*
X270386Y41950D01*
X270841Y38491D01*
X271075Y37926D01*
X252552Y19403D01*
X251378Y19889D01*
Y21770D01*
X251028Y23534D01*
X250029Y25029D01*
X248534Y26028D01*
X246770Y26379D01*
X245520D01*
Y18750D01*
X242980D01*
Y26379D01*
X241730D01*
X239966Y26028D01*
X238471Y25029D01*
X237733Y23925D01*
X236403Y24103D01*
X235081Y26081D01*
X233347Y27240D01*
Y30744D01*
X234475Y31599D01*
X234618Y31597D01*
X235586Y30336D01*
X236952Y29287D01*
X238543Y28628D01*
X238980Y28571D01*
Y35000D01*
X240250D01*
Y36270D01*
X246679D01*
X246622Y36707D01*
X245963Y38298D01*
X244914Y39664D01*
X243617Y40660D01*
X243388Y40930D01*
X243173Y42011D01*
X247605Y46443D01*
X248029Y47078D01*
X249746Y47362D01*
X250190Y47021D01*
X253595Y45610D01*
X257250Y45129D01*
X260905Y45610D01*
X264310Y47021D01*
X267235Y49265D01*
X269479Y52190D01*
X270890Y55595D01*
X271371Y59250D01*
X270890Y62905D01*
X269479Y66310D01*
X267235Y69235D01*
X266329Y69930D01*
X266679Y70912D01*
X267898Y71150D01*
X269220Y70135D01*
X270923Y69430D01*
X272750Y69190D01*
X274577Y69430D01*
X276280Y70135D01*
X277742Y71258D01*
X278864Y72720D01*
X279570Y74423D01*
X279810Y76250D01*
X279570Y78077D01*
X278864Y79780D01*
X277742Y81243D01*
X276280Y82365D01*
X274577Y83070D01*
X272750Y83310D01*
X270923Y83070D01*
X269220Y82365D01*
X268448Y81772D01*
X267265Y82955D01*
X267402Y83159D01*
X267868Y85500D01*
Y92263D01*
X268361Y92889D01*
X268987Y93382D01*
X275750D01*
X278091Y93848D01*
X280076Y95174D01*
X281402Y97159D01*
X281868Y99500D01*
X281402Y101841D01*
X280795Y102750D01*
X281402Y103659D01*
X281868Y106000D01*
X281402Y108341D01*
X280076Y110326D01*
X279856Y110473D01*
X280027Y110729D01*
X280126Y111230D01*
X278723D01*
X278091Y111652D01*
X275750Y112118D01*
X272250D01*
Y112882D01*
X275750D01*
X278091Y113348D01*
X278723Y113770D01*
X280126D01*
X280027Y114271D01*
X279856Y114527D01*
X280076Y114674D01*
X281402Y116659D01*
X281868Y119000D01*
X282181Y119382D01*
X284482D01*
X285225Y118886D01*
D02*
G37*
G36*
X161270Y151834D02*
X161902Y151316D01*
Y142612D01*
X157388Y138098D01*
X147124D01*
X145173Y137710D01*
X143519Y136605D01*
X139395Y132481D01*
X138290Y130827D01*
X137902Y128876D01*
Y123265D01*
X138290Y121314D01*
X139395Y119660D01*
X142910Y116145D01*
X144564Y115040D01*
X146515Y114652D01*
X155638D01*
X167645Y102645D01*
X169299Y101540D01*
X171250Y101152D01*
X175145D01*
X176470Y100135D01*
X178173Y99430D01*
X180000Y99190D01*
X180902Y98399D01*
Y90500D01*
X181290Y88549D01*
X182395Y86895D01*
X183011Y86279D01*
X182716Y85566D01*
X182399Y85096D01*
X181137Y84845D01*
X180024Y84101D01*
X179280Y82988D01*
X179019Y81675D01*
Y76270D01*
X183500D01*
Y75000D01*
X184770D01*
Y64938D01*
X185863Y65155D01*
X186976Y65899D01*
X187720Y67012D01*
X187862Y67729D01*
X189132Y67604D01*
Y65245D01*
X189598Y62906D01*
X190923Y60923D01*
X191353Y60635D01*
Y59365D01*
X190923Y59077D01*
X189598Y57094D01*
X189132Y54755D01*
Y49245D01*
X189598Y46906D01*
X190008Y46292D01*
X189386Y45480D01*
X188680Y43777D01*
X188440Y41950D01*
X188680Y40123D01*
X189382Y38427D01*
Y28928D01*
X188209Y28442D01*
X176567Y40085D01*
X175865Y41780D01*
X174742Y43243D01*
X173280Y44365D01*
X171577Y45070D01*
X169750Y45310D01*
X167923Y45070D01*
X166220Y44365D01*
X164758Y43243D01*
X163636Y41780D01*
X162930Y40077D01*
X162690Y38250D01*
X162930Y36423D01*
X163636Y34720D01*
X164758Y33258D01*
X166220Y32136D01*
X167915Y31433D01*
X180553Y18795D01*
X180067Y17622D01*
X177150D01*
X175515Y17297D01*
X174129Y16371D01*
X173203Y14985D01*
X172878Y13350D01*
Y10770D01*
X180500D01*
Y8230D01*
X172878D01*
Y5650D01*
X172894Y5570D01*
X172088Y4588D01*
X165566D01*
X164940Y5858D01*
X166729Y8190D01*
X168140Y11595D01*
X168621Y15250D01*
X168140Y18905D01*
X166729Y22310D01*
X164485Y25235D01*
X161560Y27479D01*
X158155Y28890D01*
X154500Y29371D01*
X150845Y28890D01*
X147440Y27479D01*
X144515Y25235D01*
X142271Y22310D01*
X140860Y18905D01*
X140379Y15250D01*
X140860Y11595D01*
X142271Y8190D01*
X144060Y5858D01*
X143434Y4588D01*
X50162D01*
X49356Y5570D01*
X49372Y5650D01*
Y8230D01*
X43000D01*
Y9500D01*
X41730D01*
Y17622D01*
X40900D01*
X39265Y17297D01*
X38281Y16639D01*
X37072Y16984D01*
X36890Y17121D01*
X36675Y18204D01*
X35285Y20285D01*
X35198Y20343D01*
X35315Y21792D01*
X36527Y22723D01*
X37077Y23438D01*
X37492Y23758D01*
X38614Y25220D01*
X39320Y26923D01*
X39560Y28750D01*
X39320Y30577D01*
X38817Y31792D01*
Y33208D01*
X39320Y34423D01*
X39560Y36250D01*
X39320Y38077D01*
X38614Y39780D01*
X37492Y41242D01*
X36030Y42365D01*
X35771Y42472D01*
X35655Y43895D01*
X36925Y45796D01*
X37413Y48250D01*
Y50730D01*
X19750D01*
Y53270D01*
X37413D01*
Y55750D01*
X37284Y56401D01*
X38089Y57382D01*
X44750D01*
X47091Y57848D01*
X49076Y59174D01*
X58105Y68203D01*
X59244Y67642D01*
X59159Y67000D01*
X59520Y64259D01*
X60578Y61705D01*
X62261Y59511D01*
X64455Y57828D01*
X67009Y56770D01*
X69750Y56409D01*
X72491Y56770D01*
X75045Y57828D01*
X77239Y59511D01*
X78922Y61705D01*
X79980Y64259D01*
X80341Y67000D01*
X79980Y69741D01*
X79600Y70658D01*
X80407Y72029D01*
X81001Y72097D01*
X95424Y57674D01*
X97409Y56348D01*
X99750Y55883D01*
X140684D01*
X141173Y55680D01*
X143000Y55440D01*
X144827Y55680D01*
X146530Y56385D01*
X147992Y57508D01*
X149115Y58970D01*
X149820Y60673D01*
X150060Y62500D01*
X149820Y64327D01*
X149115Y66030D01*
X147992Y67492D01*
X146530Y68615D01*
X144827Y69320D01*
X143000Y69560D01*
X141173Y69320D01*
X139809Y68755D01*
X139486Y68818D01*
X138881Y69133D01*
X138498Y69470D01*
X138320Y70827D01*
X137614Y72530D01*
X136492Y73992D01*
X135030Y75114D01*
X133327Y75820D01*
X131500Y76060D01*
X129673Y75820D01*
X127977Y75118D01*
X113534D01*
X106702Y81949D01*
X107542Y82906D01*
X108220Y82386D01*
X109923Y81680D01*
X111750Y81440D01*
X113577Y81680D01*
X115280Y82386D01*
X116742Y83508D01*
X117865Y84970D01*
X118570Y86673D01*
X118810Y88500D01*
X118570Y90327D01*
X117865Y92030D01*
X117613Y92358D01*
Y127750D01*
X117166Y129994D01*
X115896Y131896D01*
X114396Y133395D01*
X114694Y134893D01*
X115280Y135135D01*
X116742Y136258D01*
X117865Y137720D01*
X118570Y139423D01*
X118810Y141250D01*
X118574Y143048D01*
X118635Y143125D01*
X119629Y143839D01*
X120220Y143385D01*
X121923Y142680D01*
X123750Y142440D01*
X124647Y141653D01*
Y140349D01*
X123636Y139030D01*
X122930Y137327D01*
X122690Y135500D01*
X122930Y133673D01*
X123636Y131970D01*
X124758Y130508D01*
X125120Y130229D01*
X125965Y128965D01*
X126215Y128715D01*
X127952Y127555D01*
X130000Y127147D01*
X132048Y127555D01*
X133785Y128715D01*
X134945Y130452D01*
X135031Y130884D01*
X135864Y131970D01*
X136570Y133673D01*
X136810Y135500D01*
X136570Y137327D01*
X135864Y139030D01*
X135353Y139697D01*
Y149402D01*
X136750D01*
X138701Y149790D01*
X138750Y149823D01*
X138799Y149790D01*
X140750Y149402D01*
X142750D01*
X144701Y149790D01*
X144750Y149823D01*
X144799Y149790D01*
X146750Y149402D01*
X148750D01*
X150701Y149790D01*
X152355Y150895D01*
X153460Y152549D01*
X153616Y153334D01*
X154964Y153603D01*
X155120Y153370D01*
X156791Y152253D01*
X158730Y151868D01*
Y160000D01*
X161270D01*
Y151834D01*
D02*
G37*
G36*
X264451Y194142D02*
X263825Y193204D01*
X263337Y190750D01*
Y188270D01*
X281000D01*
Y185730D01*
X263337D01*
Y183250D01*
X263825Y180796D01*
X265215Y178715D01*
X265374Y178609D01*
X265319Y177118D01*
X264223Y176277D01*
X262980Y174658D01*
X262199Y172773D01*
X261933Y170750D01*
Y170470D01*
X261884Y170413D01*
X260663Y169843D01*
X259387Y170695D01*
X257339Y171103D01*
X247717D01*
X234853Y183967D01*
Y192589D01*
X234544Y194142D01*
X235339Y195412D01*
X263773D01*
X264451Y194142D01*
D02*
G37*
G36*
X72197Y194238D02*
X67576Y189617D01*
X63995D01*
X61656Y189152D01*
X59673Y187827D01*
X58636Y186275D01*
X57333Y186139D01*
X57167Y186188D01*
X56775Y186775D01*
X55275Y187777D01*
X53505Y188129D01*
X52020D01*
Y180500D01*
Y172871D01*
X53505D01*
X55275Y173223D01*
X56775Y174226D01*
X57167Y174812D01*
X57333Y174861D01*
X58636Y174725D01*
X59673Y173173D01*
X60887Y172361D01*
Y169500D01*
X61012Y168872D01*
X60114Y167974D01*
X59235Y168149D01*
X59020D01*
Y160000D01*
X56480D01*
Y168149D01*
X56265D01*
X54098Y167718D01*
X52260Y166490D01*
X51032Y164653D01*
X50601Y162485D01*
Y161768D01*
X49428Y161282D01*
X41855Y168855D01*
X40201Y169960D01*
X38250Y170348D01*
X36298D01*
X36151Y171085D01*
X35126Y172620D01*
X36327Y173423D01*
X37652Y175406D01*
X38117Y177745D01*
Y183755D01*
X37652Y186094D01*
X36327Y188077D01*
X34344Y189402D01*
X32005Y189867D01*
X26495D01*
X24156Y189402D01*
X22173Y188077D01*
X21136Y186525D01*
X19833Y186389D01*
X19667Y186438D01*
X19274Y187024D01*
X17774Y188027D01*
X16005Y188379D01*
X14520D01*
Y180750D01*
X13250D01*
Y179480D01*
X5871D01*
Y177745D01*
X6223Y175975D01*
X6304Y175854D01*
X5943Y174475D01*
X5858Y174436D01*
X4588Y175244D01*
Y195412D01*
X71712D01*
X72197Y194238D01*
D02*
G37*
%LPC*%
G36*
X69750Y52091D02*
X67009Y51730D01*
X64455Y50672D01*
X62261Y48989D01*
X60578Y46795D01*
X59520Y44241D01*
X59159Y41500D01*
X59520Y38759D01*
X60578Y36205D01*
X62261Y34011D01*
X64455Y32328D01*
X67009Y31270D01*
X69750Y30909D01*
X72491Y31270D01*
X75045Y32328D01*
X77239Y34011D01*
X78922Y36205D01*
X79409Y37381D01*
X80932Y37740D01*
X81720Y37136D01*
X83423Y36430D01*
X85250Y36190D01*
X87077Y36430D01*
X88780Y37136D01*
X89108Y37387D01*
X108892D01*
X109220Y37136D01*
X110923Y36430D01*
X112750Y36190D01*
X114577Y36430D01*
X116280Y37136D01*
X117742Y38258D01*
X118864Y39720D01*
X119570Y41423D01*
X119810Y43250D01*
X119570Y45077D01*
X118864Y46780D01*
X117742Y48242D01*
X116280Y49365D01*
X114577Y50070D01*
X112750Y50310D01*
X110923Y50070D01*
X109220Y49365D01*
X108892Y49113D01*
X89108D01*
X88780Y49365D01*
X87077Y50070D01*
X85250Y50310D01*
X83423Y50070D01*
X81720Y49365D01*
X80258Y48242D01*
X79835Y47691D01*
X78234D01*
X77239Y48989D01*
X75045Y50672D01*
X72491Y51730D01*
X69750Y52091D01*
D02*
G37*
G36*
X246679Y33730D02*
X241520D01*
Y28571D01*
X241957Y28628D01*
X243548Y29287D01*
X244914Y30336D01*
X245963Y31702D01*
X246622Y33293D01*
X246679Y33730D01*
D02*
G37*
G36*
X45100Y17622D02*
X44270D01*
Y10770D01*
X49372D01*
Y13350D01*
X49047Y14985D01*
X48121Y16371D01*
X46735Y17297D01*
X45100Y17622D01*
D02*
G37*
G36*
X182230Y73730D02*
X179019D01*
Y68325D01*
X179280Y67012D01*
X180024Y65899D01*
X181137Y65155D01*
X182230Y64938D01*
Y73730D01*
D02*
G37*
G36*
X49480Y179230D02*
X43371D01*
Y177495D01*
X43723Y175725D01*
X44725Y174226D01*
X46226Y173223D01*
X47995Y172871D01*
X49480D01*
Y179230D01*
D02*
G37*
G36*
X289730Y109730D02*
X283371D01*
Y108245D01*
X283723Y106475D01*
X284725Y104975D01*
X286225Y103973D01*
X287995Y103621D01*
X289730D01*
Y109730D01*
D02*
G37*
G36*
X11980Y188379D02*
X10495D01*
X8726Y188027D01*
X7225Y187024D01*
X6223Y185525D01*
X5871Y183755D01*
Y182020D01*
X11980D01*
Y188379D01*
D02*
G37*
G36*
X49480Y188129D02*
X47995D01*
X46226Y187777D01*
X44725Y186775D01*
X43723Y185275D01*
X43371Y183505D01*
Y181770D01*
X49480D01*
Y188129D01*
D02*
G37*
%LPD*%
D17*
X79750Y168750D02*
X85000Y174000D01*
X160250D01*
X167000Y167250D01*
Y140500D02*
Y167250D01*
X159500Y133000D02*
X167000Y140500D01*
X147124Y133000D02*
X159500D01*
X143000Y128876D02*
X147124Y133000D01*
X143000Y123265D02*
Y128876D01*
Y123265D02*
X146515Y119750D01*
X157750D01*
X171250Y106250D01*
X180000D01*
X248750Y79500D02*
Y90000D01*
Y79500D02*
X249250Y79000D01*
Y70799D02*
Y79000D01*
X244000Y65549D02*
X249250Y70799D01*
X235750Y80333D02*
Y89000D01*
Y80333D02*
X237250Y78833D01*
Y72265D02*
Y78833D01*
Y72265D02*
X238250Y71265D01*
Y50176D02*
Y71265D01*
X242250Y76130D02*
Y89000D01*
Y76130D02*
X243630Y74750D01*
X243250D02*
X244010D01*
X214250Y18750D02*
X228249D01*
Y34298D01*
X244000Y50048D01*
X219000Y33000D02*
X221074D01*
X238250Y50176D01*
X214750Y28750D02*
X219000Y33000D01*
X226500Y78250D02*
X229250Y81000D01*
X223500Y78250D02*
X226500D01*
X221250Y76000D02*
X223500Y78250D01*
X244000Y50048D02*
Y65549D01*
X261750Y81260D02*
X266760Y76250D01*
X261750Y81260D02*
Y89000D01*
X266760Y76250D02*
X272750D01*
X186000Y112500D02*
X194000D01*
X175750D02*
X186000D01*
Y90500D02*
Y112500D01*
Y90500D02*
X194000Y82500D01*
X229250Y81000D02*
Y89000D01*
X165750Y122500D02*
X175750Y112500D01*
X194000D02*
X212250D01*
X212250Y138500D02*
Y144500D01*
X56000Y131250D02*
X69750Y117500D01*
X56000Y131250D02*
Y147500D01*
X38250Y165250D02*
X56000Y147500D01*
X10500Y165250D02*
X29500D01*
X38250D01*
X29500D02*
Y180500D01*
X29250Y180750D02*
X29500Y180500D01*
D18*
X164114Y187750D02*
X171364Y180500D01*
X129339Y187750D02*
X164114D01*
X165500Y180000D02*
X169500Y176000D01*
X119500Y180000D02*
X165500D01*
X127589Y186000D02*
X129339Y187750D01*
X122411Y186000D02*
X127589D01*
X121161Y187250D02*
X122411Y186000D01*
X114250Y187250D02*
X121161D01*
X110625Y183625D02*
X114250Y187250D01*
X171364Y180500D02*
X204161D01*
X169500Y176000D02*
X202250D01*
X171250Y155500D02*
X184250Y168500D01*
X175750Y150000D02*
X183250Y157500D01*
X175750Y136876D02*
Y150000D01*
X175500Y136626D02*
X175750Y136876D01*
X175500Y135886D02*
Y136626D01*
X171250Y138740D02*
Y155500D01*
X171000Y138490D02*
X171250Y138740D01*
X171000Y137750D02*
Y138490D01*
X159000Y125750D02*
X171000Y137750D01*
X175000Y135386D02*
X175500Y135886D01*
X175000Y124500D02*
Y135386D01*
X198686Y120250D02*
X203936Y125500D01*
X179250Y120250D02*
X198686D01*
X255250Y77880D02*
X257000Y76130D01*
X255250Y77880D02*
Y89000D01*
X272250Y132000D02*
X281500D01*
X283794Y134294D01*
Y139294D01*
X203936Y125500D02*
X212250D01*
X194000Y128500D02*
Y143000D01*
X194500Y191000D02*
X199750Y196250D01*
X175000Y124500D02*
X179250Y120250D01*
X194000Y143000D02*
X201250Y150250D01*
X130000Y132500D02*
Y152339D01*
X129750D02*
X130000D01*
X129750D02*
Y158500D01*
X129750Y158500D02*
X129750Y158500D01*
X149000Y125750D02*
X159000D01*
X129750Y132750D02*
X130000Y132500D01*
X129750Y132750D02*
Y135500D01*
X203750Y189250D02*
X204000Y189500D01*
X214136D01*
X225839Y196250D02*
X229500Y192589D01*
X199750Y196250D02*
X225839D01*
X210250Y182772D02*
Y183250D01*
X257339Y165750D02*
X283794Y139294D01*
X184250Y168500D02*
X203250D01*
X210250Y161500D01*
X202250Y176000D02*
X209206Y169044D01*
X229500Y181750D02*
Y192589D01*
Y181750D02*
X245500Y165750D01*
X257339D01*
X235750Y149000D02*
Y156408D01*
X209206Y169044D02*
X210386D01*
X222750Y156680D01*
Y149000D02*
Y156680D01*
X242250Y149000D02*
Y156272D01*
X218750Y179772D02*
X242250Y156272D01*
X248750Y149000D02*
Y156136D01*
X223250Y181636D02*
Y190000D01*
Y181636D02*
X248750Y156136D01*
X210250Y182772D02*
X214250Y178772D01*
Y177908D02*
Y178772D01*
Y177908D02*
X235750Y156408D01*
X218750Y179772D02*
Y184886D01*
X214136Y189500D02*
X218750Y184886D01*
X229250Y149000D02*
Y156544D01*
X209647Y176147D02*
X229250Y156544D01*
X204161Y180500D02*
X208514Y176147D01*
X209647D01*
X201250Y150250D02*
X203500D01*
X210250Y157000D01*
Y161500D01*
D19*
X96000Y169000D02*
X144750D01*
X195500Y21500D02*
Y41950D01*
Y21500D02*
X198250Y18750D01*
Y20250D01*
X169750Y38250D02*
X189660Y18340D01*
Y12090D02*
Y18340D01*
Y12090D02*
X195750Y6000D01*
X247800D01*
X283750Y41950D01*
X232250Y61750D02*
Y70000D01*
Y54000D02*
Y61750D01*
X194000Y98500D02*
X197250D01*
X201250Y102500D01*
X216250Y89000D02*
X222750D01*
X201250Y102500D02*
X204250Y99500D01*
X212250D01*
Y106000D02*
X229250D01*
X242250Y119000D01*
X248750Y112500D02*
X272250D01*
X242250Y119000D02*
X248750Y112500D01*
X272250Y125500D02*
X289500D01*
X291000Y127000D01*
X272250Y112500D02*
X289500D01*
X201250Y54000D02*
X208750D01*
X216250D01*
X201250Y70000D02*
X208750D01*
X216250D01*
X194000Y157500D02*
Y159000D01*
X183500Y147000D02*
X194000Y157500D01*
X183500Y129750D02*
Y147000D01*
X194500Y159500D02*
X203250D01*
X194000Y159000D02*
X194500Y159500D01*
X147750Y158500D02*
Y166000D01*
X144750Y169000D02*
X147750Y166000D01*
X10500Y139250D02*
Y147000D01*
X16500Y153000D01*
X25250D01*
X29500Y148750D01*
Y123750D02*
Y139250D01*
Y148750D01*
X96000Y138500D02*
Y169000D01*
X25250Y153000D02*
X39299D01*
X10500Y93250D02*
Y108750D01*
Y67250D02*
Y93250D01*
Y67250D02*
X29500D01*
Y93250D02*
X42250D01*
X111000Y69000D02*
X131500D01*
X89250Y90750D02*
X111000Y69000D01*
X89250Y90750D02*
Y131750D01*
X142500Y62000D02*
X143000Y62500D01*
X99750Y62000D02*
X142500D01*
X82750Y79000D02*
X99750Y62000D01*
X60250Y79000D02*
X82750D01*
X33250Y63500D02*
X44750D01*
X29500Y67250D02*
X33250Y63500D01*
X44750D02*
X60250Y79000D01*
X42250Y93250D02*
X51500Y102500D01*
X89250Y131750D02*
X96000Y138500D01*
X89250Y120500D02*
Y131750D01*
X51500Y102500D02*
X52000Y103000D01*
X88750D01*
X51500Y102500D02*
Y120750D01*
X47000Y125250D02*
X51500Y120750D01*
X47000Y125250D02*
Y145299D01*
X39299Y153000D02*
X47000Y145299D01*
X13500Y123750D02*
X19500Y129750D01*
Y138750D02*
X20000Y139250D01*
X19500Y129750D02*
Y130250D01*
Y138750D01*
X41000Y116250D02*
Y135750D01*
X39000Y114250D02*
X41000Y116250D01*
D20*
X77750Y158500D02*
X79750D01*
X66750Y169500D02*
X77750Y158500D01*
X66750Y169500D02*
Y180500D01*
X78500Y192250D02*
X125000D01*
X66750Y180500D02*
X78500Y192250D01*
X123750Y149500D02*
Y158500D01*
X105750D02*
X106000Y158250D01*
Y145046D02*
Y158250D01*
X105000Y144046D02*
X106000Y145046D01*
X105000Y134500D02*
Y144046D01*
Y134500D02*
X111750Y127750D01*
Y88500D02*
Y127750D01*
X85750Y146750D02*
Y158500D01*
X85250Y43250D02*
X112750D01*
X111750Y141250D02*
Y158500D01*
D22*
X240250Y187000D02*
X279250D01*
X19750Y52000D02*
X49261D01*
X51261Y50000D01*
Y31390D02*
Y50000D01*
Y31390D02*
X61901Y20750D01*
X118430D01*
X136715Y39035D01*
X143475D01*
X162500Y58060D01*
Y80750D01*
X133250Y110000D02*
X162500Y80750D01*
X133250Y110000D02*
Y118000D01*
X19500Y12000D02*
X53098D01*
X287500Y74250D02*
Y93750D01*
D25*
X202250Y35000D02*
D03*
X240250D02*
D03*
D26*
X154500Y15250D02*
D03*
X257250Y59250D02*
D03*
D27*
X69750Y143000D02*
D03*
D28*
Y117500D02*
D03*
Y92500D02*
D03*
Y67000D02*
D03*
Y41500D02*
D03*
D29*
X283750Y41950D02*
D03*
Y16550D02*
D03*
D30*
X79750Y168750D02*
D03*
X119500Y180000D02*
D03*
X180000Y106250D02*
D03*
X203000Y114750D02*
D03*
X257000Y76130D02*
D03*
X243250Y74750D02*
D03*
X195500Y41950D02*
D03*
X214750Y28750D02*
D03*
X221250Y78250D02*
D03*
X216250Y89000D02*
D03*
X201250Y102500D02*
D03*
X205750Y70000D02*
D03*
Y54000D02*
D03*
X194500Y191000D02*
D03*
X110625Y183625D02*
D03*
X125000Y192250D02*
D03*
X183250Y157500D02*
D03*
X203250Y159500D02*
D03*
X123750Y149500D02*
D03*
X85750Y146750D02*
D03*
X111750Y88500D02*
D03*
X85250Y43250D02*
D03*
X112750D02*
D03*
X169750Y38250D02*
D03*
X143000Y62500D02*
D03*
X131500Y69000D02*
D03*
X165750Y122500D02*
D03*
X149000Y125750D02*
D03*
X129750Y135500D02*
D03*
X111750Y141250D02*
D03*
X275750Y167000D02*
D03*
X268750D02*
D03*
X279250Y187000D02*
D03*
Y193500D02*
D03*
Y180500D02*
D03*
X203750Y189250D02*
D03*
X210250Y183250D02*
D03*
X201250Y168000D02*
D03*
X223250Y190000D02*
D03*
X240250Y180500D02*
D03*
Y193500D02*
D03*
Y187000D02*
D03*
X272750Y76250D02*
D03*
X212250Y144500D02*
D03*
X252250Y133250D02*
D03*
X244250Y133500D02*
D03*
X233750Y133250D02*
D03*
X227500Y126000D02*
D03*
X228750Y117250D02*
D03*
X229250Y106000D02*
D03*
X241750Y105750D02*
D03*
X253000D02*
D03*
X255000Y118250D02*
D03*
X242250Y119000D02*
D03*
X285500Y95683D02*
D03*
X290000Y89000D02*
D03*
X285500Y78250D02*
D03*
X289250Y69430D02*
D03*
X266699Y42250D02*
D03*
X258500Y38298D02*
D03*
X249891Y28500D02*
D03*
X257000Y30000D02*
D03*
X253250Y44000D02*
D03*
X182250Y36250D02*
D03*
X170750Y27258D02*
D03*
X188500Y33500D02*
D03*
X164250Y29287D02*
D03*
X144500Y31885D02*
D03*
X130250Y40125D02*
D03*
X122000Y50540D02*
D03*
X108250Y53250D02*
D03*
X100000Y35000D02*
D03*
X83250Y31406D02*
D03*
X74500Y26359D02*
D03*
X73000Y15000D02*
D03*
X53750Y37000D02*
D03*
X60500Y54500D02*
D03*
X43000Y52000D02*
D03*
X43500Y38000D02*
D03*
X52250Y87750D02*
D03*
X21750Y81174D02*
D03*
X40000Y110500D02*
D03*
X19500Y130250D02*
D03*
X174000Y87500D02*
D03*
X173380Y79000D02*
D03*
X153750Y82912D02*
D03*
X141000Y88000D02*
D03*
X138881Y99750D02*
D03*
X125000Y99035D02*
D03*
X126250Y82180D02*
D03*
X116000Y78250D02*
D03*
X100250Y110011D02*
D03*
X249750Y173000D02*
D03*
X232250Y61750D02*
D03*
X40750Y173750D02*
D03*
X67750Y157000D02*
D03*
X17522Y191250D02*
D03*
X49500D02*
D03*
X32500Y36250D02*
D03*
Y28750D02*
D03*
D31*
X214250Y18750D02*
D03*
X198250D02*
D03*
X244250D02*
D03*
X228250D02*
D03*
D32*
X194000Y82500D02*
D03*
Y98500D02*
D03*
Y112500D02*
D03*
Y128500D02*
D03*
D33*
X213250Y70000D02*
D03*
X229250D02*
D03*
Y54000D02*
D03*
X213250D02*
D03*
X29500Y123750D02*
D03*
X13500D02*
D03*
X10500Y108750D02*
D03*
X26500D02*
D03*
X13250Y180750D02*
D03*
X29250D02*
D03*
X50750Y180500D02*
D03*
X66750D02*
D03*
D34*
X198250Y52000D02*
D03*
Y68000D02*
D03*
X291000Y111000D02*
D03*
Y127000D02*
D03*
X194000Y143000D02*
D03*
Y159000D02*
D03*
D35*
X242250Y119000D02*
D03*
D36*
X261750Y149000D02*
D03*
X255250D02*
D03*
X248750D02*
D03*
X242250D02*
D03*
X235750D02*
D03*
X229250D02*
D03*
X222750D02*
D03*
Y89000D02*
D03*
X229250D02*
D03*
X235750D02*
D03*
X242250D02*
D03*
X248750D02*
D03*
X255250D02*
D03*
X261750D02*
D03*
D37*
X212250Y138500D02*
D03*
Y132000D02*
D03*
Y125500D02*
D03*
Y119000D02*
D03*
Y112500D02*
D03*
Y106000D02*
D03*
Y99500D02*
D03*
X272250D02*
D03*
Y106000D02*
D03*
Y112500D02*
D03*
Y119000D02*
D03*
Y125500D02*
D03*
Y132000D02*
D03*
Y138500D02*
D03*
D38*
X41000Y75000D02*
D03*
X183500D02*
D03*
D39*
Y129750D02*
D03*
D40*
X41000Y135750D02*
D03*
D41*
X57750Y160000D02*
D03*
D42*
X105750Y158500D02*
D03*
X147750D02*
D03*
X141750Y158500D02*
D03*
X129750Y158500D02*
D03*
X85750D02*
D03*
X135750D02*
D03*
X79750D02*
D03*
X111750D02*
D03*
X123750D02*
D03*
X117750D02*
D03*
D43*
X43000Y9500D02*
D03*
D44*
X180500D02*
D03*
D45*
X160000Y160000D02*
D03*
D46*
X10500Y93250D02*
D03*
X20000D02*
D03*
X29500D02*
D03*
Y67250D02*
D03*
X10500D02*
D03*
X29500Y139250D02*
D03*
X20000D02*
D03*
X10500D02*
D03*
Y165250D02*
D03*
X29500D02*
D03*
D47*
X19750Y32000D02*
D03*
X19500Y12000D02*
D03*
X281000Y187000D02*
D03*
Y167000D02*
D03*
X19750Y52000D02*
D03*
M02*
