%FSLAX44Y44*%
%MOMM*%
G71*
G01*
G75*
G04 Layer_Color=65535*
%ADD10O,2.5000X0.7000*%
%ADD11O,0.7000X2.5000*%
%ADD12R,0.4000X1.4000*%
G04:AMPARAMS|DCode=13|XSize=1.8mm|YSize=1.9mm|CornerRadius=0.45mm|HoleSize=0mm|Usage=FLASHONLY|Rotation=0.000|XOffset=0mm|YOffset=0mm|HoleType=Round|Shape=RoundedRectangle|*
%AMROUNDEDRECTD13*
21,1,1.8000,1.0000,0,0,0.0*
21,1,0.9000,1.9000,0,0,0.0*
1,1,0.9000,0.4500,-0.5000*
1,1,0.9000,-0.4500,-0.5000*
1,1,0.9000,-0.4500,0.5000*
1,1,0.9000,0.4500,0.5000*
%
%ADD13ROUNDEDRECTD13*%
G04:AMPARAMS|DCode=14|XSize=1.5mm|YSize=1.5mm|CornerRadius=0.375mm|HoleSize=0mm|Usage=FLASHONLY|Rotation=180.000|XOffset=0mm|YOffset=0mm|HoleType=Round|Shape=RoundedRectangle|*
%AMROUNDEDRECTD14*
21,1,1.5000,0.7500,0,0,180.0*
21,1,0.7500,1.5000,0,0,180.0*
1,1,0.7500,-0.3750,0.3750*
1,1,0.7500,0.3750,0.3750*
1,1,0.7500,0.3750,-0.3750*
1,1,0.7500,-0.3750,-0.3750*
%
%ADD14ROUNDEDRECTD14*%
%ADD15O,0.8000X1.8000*%
G04:AMPARAMS|DCode=16|XSize=1mm|YSize=1.2mm|CornerRadius=0.165mm|HoleSize=0mm|Usage=FLASHONLY|Rotation=90.000|XOffset=0mm|YOffset=0mm|HoleType=Round|Shape=RoundedRectangle|*
%AMROUNDEDRECTD16*
21,1,1.0000,0.8700,0,0,90.0*
21,1,0.6700,1.2000,0,0,90.0*
1,1,0.3300,0.4350,0.3350*
1,1,0.3300,0.4350,-0.3350*
1,1,0.3300,-0.4350,-0.3350*
1,1,0.3300,-0.4350,0.3350*
%
%ADD16ROUNDEDRECTD16*%
%ADD17C,0.2000*%
%ADD18C,0.2500*%
%ADD19C,0.4000*%
%ADD20C,0.3500*%
%ADD21C,0.6000*%
%ADD22C,1.5000*%
%ADD23C,1.1000*%
%ADD24C,0.7000*%
%ADD25C,0.7000*%
%ADD26C,2.0000*%
%ADD27R,1.3000X1.3000*%
%ADD28C,1.3000*%
%ADD29C,1.8500*%
%ADD30C,0.6000*%
G04:AMPARAMS|DCode=31|XSize=1mm|YSize=0.9mm|CornerRadius=0.198mm|HoleSize=0mm|Usage=FLASHONLY|Rotation=90.000|XOffset=0mm|YOffset=0mm|HoleType=Round|Shape=RoundedRectangle|*
%AMROUNDEDRECTD31*
21,1,1.0000,0.5040,0,0,90.0*
21,1,0.6040,0.9000,0,0,90.0*
1,1,0.3960,0.2520,0.3020*
1,1,0.3960,0.2520,-0.3020*
1,1,0.3960,-0.2520,-0.3020*
1,1,0.3960,-0.2520,0.3020*
%
%ADD31ROUNDEDRECTD31*%
G04:AMPARAMS|DCode=32|XSize=1mm|YSize=0.9mm|CornerRadius=0.198mm|HoleSize=0mm|Usage=FLASHONLY|Rotation=0.000|XOffset=0mm|YOffset=0mm|HoleType=Round|Shape=RoundedRectangle|*
%AMROUNDEDRECTD32*
21,1,1.0000,0.5040,0,0,0.0*
21,1,0.6040,0.9000,0,0,0.0*
1,1,0.3960,0.3020,-0.2520*
1,1,0.3960,-0.3020,-0.2520*
1,1,0.3960,-0.3020,0.2520*
1,1,0.3960,0.3020,0.2520*
%
%ADD32ROUNDEDRECTD32*%
G04:AMPARAMS|DCode=33|XSize=1mm|YSize=0.95mm|CornerRadius=0.1995mm|HoleSize=0mm|Usage=FLASHONLY|Rotation=270.000|XOffset=0mm|YOffset=0mm|HoleType=Round|Shape=RoundedRectangle|*
%AMROUNDEDRECTD33*
21,1,1.0000,0.5510,0,0,270.0*
21,1,0.6010,0.9500,0,0,270.0*
1,1,0.3990,-0.2755,-0.3005*
1,1,0.3990,-0.2755,0.3005*
1,1,0.3990,0.2755,0.3005*
1,1,0.3990,0.2755,-0.3005*
%
%ADD33ROUNDEDRECTD33*%
G04:AMPARAMS|DCode=34|XSize=1mm|YSize=0.95mm|CornerRadius=0.1995mm|HoleSize=0mm|Usage=FLASHONLY|Rotation=0.000|XOffset=0mm|YOffset=0mm|HoleType=Round|Shape=RoundedRectangle|*
%AMROUNDEDRECTD34*
21,1,1.0000,0.5510,0,0,0.0*
21,1,0.6010,0.9500,0,0,0.0*
1,1,0.3990,0.3005,-0.2755*
1,1,0.3990,-0.3005,-0.2755*
1,1,0.3990,-0.3005,0.2755*
1,1,0.3990,0.3005,0.2755*
%
%ADD34ROUNDEDRECTD34*%
%ADD35R,4.0000X4.0000*%
%ADD36O,0.4000X1.1000*%
%ADD37O,1.1000X0.4000*%
G04:AMPARAMS|DCode=38|XSize=0.375mm|YSize=1.5mm|CornerRadius=0.0825mm|HoleSize=0mm|Usage=FLASHONLY|Rotation=180.000|XOffset=0mm|YOffset=0mm|HoleType=Round|Shape=RoundedRectangle|*
%AMROUNDEDRECTD38*
21,1,0.3750,1.3350,0,0,180.0*
21,1,0.2100,1.5000,0,0,180.0*
1,1,0.1650,-0.1050,0.6675*
1,1,0.1650,0.1050,0.6675*
1,1,0.1650,0.1050,-0.6675*
1,1,0.1650,-0.1050,-0.6675*
%
%ADD38ROUNDEDRECTD38*%
G04:AMPARAMS|DCode=39|XSize=0.375mm|YSize=1.25mm|CornerRadius=0.0825mm|HoleSize=0mm|Usage=FLASHONLY|Rotation=180.000|XOffset=0mm|YOffset=0mm|HoleType=Round|Shape=RoundedRectangle|*
%AMROUNDEDRECTD39*
21,1,0.3750,1.0850,0,0,180.0*
21,1,0.2100,1.2500,0,0,180.0*
1,1,0.1650,-0.1050,0.5425*
1,1,0.1650,0.1050,0.5425*
1,1,0.1650,0.1050,-0.5425*
1,1,0.1650,-0.1050,-0.5425*
%
%ADD39ROUNDEDRECTD39*%
G04:AMPARAMS|DCode=40|XSize=0.375mm|YSize=1.6mm|CornerRadius=0.0825mm|HoleSize=0mm|Usage=FLASHONLY|Rotation=180.000|XOffset=0mm|YOffset=0mm|HoleType=Round|Shape=RoundedRectangle|*
%AMROUNDEDRECTD40*
21,1,0.3750,1.4350,0,0,180.0*
21,1,0.2100,1.6000,0,0,180.0*
1,1,0.1650,-0.1050,0.7175*
1,1,0.1650,0.1050,0.7175*
1,1,0.1650,0.1050,-0.7175*
1,1,0.1650,-0.1050,-0.7175*
%
%ADD40ROUNDEDRECTD40*%
G04:AMPARAMS|DCode=41|XSize=1.1mm|YSize=0.9mm|CornerRadius=0.3015mm|HoleSize=0mm|Usage=FLASHONLY|Rotation=90.000|XOffset=0mm|YOffset=0mm|HoleType=Round|Shape=RoundedRectangle|*
%AMROUNDEDRECTD41*
21,1,1.1000,0.2970,0,0,90.0*
21,1,0.4970,0.9000,0,0,90.0*
1,1,0.6030,0.1485,0.2485*
1,1,0.6030,0.1485,-0.2485*
1,1,0.6030,-0.1485,-0.2485*
1,1,0.6030,-0.1485,0.2485*
%
%ADD41ROUNDEDRECTD41*%
G04:AMPARAMS|DCode=42|XSize=1mm|YSize=0.4mm|CornerRadius=0.1mm|HoleSize=0mm|Usage=FLASHONLY|Rotation=90.000|XOffset=0mm|YOffset=0mm|HoleType=Round|Shape=RoundedRectangle|*
%AMROUNDEDRECTD42*
21,1,1.0000,0.2000,0,0,90.0*
21,1,0.8000,0.4000,0,0,90.0*
1,1,0.2000,0.1000,0.4000*
1,1,0.2000,0.1000,-0.4000*
1,1,0.2000,-0.1000,-0.4000*
1,1,0.2000,-0.1000,0.4000*
%
%ADD42ROUNDEDRECTD42*%
G04:AMPARAMS|DCode=43|XSize=0.75mm|YSize=1.1mm|CornerRadius=0.165mm|HoleSize=0mm|Usage=FLASHONLY|Rotation=180.000|XOffset=0mm|YOffset=0mm|HoleType=Round|Shape=RoundedRectangle|*
%AMROUNDEDRECTD43*
21,1,0.7500,0.7700,0,0,180.0*
21,1,0.4200,1.1000,0,0,180.0*
1,1,0.3300,-0.2100,0.3850*
1,1,0.3300,0.2100,0.3850*
1,1,0.3300,0.2100,-0.3850*
1,1,0.3300,-0.2100,-0.3850*
%
%ADD43ROUNDEDRECTD43*%
G04:AMPARAMS|DCode=44|XSize=1mm|YSize=1.1mm|CornerRadius=0.165mm|HoleSize=0mm|Usage=FLASHONLY|Rotation=180.000|XOffset=0mm|YOffset=0mm|HoleType=Round|Shape=RoundedRectangle|*
%AMROUNDEDRECTD44*
21,1,1.0000,0.7700,0,0,180.0*
21,1,0.6700,1.1000,0,0,180.0*
1,1,0.3300,-0.3350,0.3850*
1,1,0.3300,0.3350,0.3850*
1,1,0.3300,0.3350,-0.3850*
1,1,0.3300,-0.3350,-0.3850*
%
%ADD44ROUNDEDRECTD44*%
G04:AMPARAMS|DCode=45|XSize=1.1mm|YSize=0.75mm|CornerRadius=0.2512mm|HoleSize=0mm|Usage=FLASHONLY|Rotation=90.000|XOffset=0mm|YOffset=0mm|HoleType=Round|Shape=RoundedRectangle|*
%AMROUNDEDRECTD45*
21,1,1.1000,0.2475,0,0,90.0*
21,1,0.5975,0.7500,0,0,90.0*
1,1,0.5025,0.1238,0.2988*
1,1,0.5025,0.1238,-0.2988*
1,1,0.5025,-0.1238,-0.2988*
1,1,0.5025,-0.1238,0.2988*
%
%ADD45ROUNDEDRECTD45*%
G04:AMPARAMS|DCode=46|XSize=1.1mm|YSize=0.6mm|CornerRadius=0.201mm|HoleSize=0mm|Usage=FLASHONLY|Rotation=270.000|XOffset=0mm|YOffset=0mm|HoleType=Round|Shape=RoundedRectangle|*
%AMROUNDEDRECTD46*
21,1,1.1000,0.1980,0,0,270.0*
21,1,0.6980,0.6000,0,0,270.0*
1,1,0.4020,-0.0990,-0.3490*
1,1,0.4020,-0.0990,0.3490*
1,1,0.4020,0.0990,0.3490*
1,1,0.4020,0.0990,-0.3490*
%
%ADD46ROUNDEDRECTD46*%
G04:AMPARAMS|DCode=47|XSize=1.5mm|YSize=3mm|CornerRadius=0.375mm|HoleSize=0mm|Usage=FLASHONLY|Rotation=270.000|XOffset=0mm|YOffset=0mm|HoleType=Round|Shape=RoundedRectangle|*
%AMROUNDEDRECTD47*
21,1,1.5000,2.2500,0,0,270.0*
21,1,0.7500,3.0000,0,0,270.0*
1,1,0.7500,-1.1250,-0.3750*
1,1,0.7500,-1.1250,0.3750*
1,1,0.7500,1.1250,0.3750*
1,1,0.7500,1.1250,-0.3750*
%
%ADD47ROUNDEDRECTD47*%
%ADD48C,0.2540*%
%ADD49C,0.1000*%
G36*
X177428Y4639D02*
X177782Y3783D01*
X177428Y2927D01*
X176572Y2573D01*
X175716Y2927D01*
X175362Y3783D01*
X175716Y4639D01*
X176572Y4993D01*
X177428Y4639D01*
D02*
G37*
G36*
X178573Y82784D02*
X178927Y81928D01*
X178573Y81072D01*
X177717Y80718D01*
X176861Y81072D01*
X176507Y81928D01*
X176861Y82784D01*
X177717Y83138D01*
X178573Y82784D01*
D02*
G37*
D17*
X169750Y11500D02*
Y188500D01*
X11750D02*
X169750D01*
X11750Y11500D02*
Y188500D01*
Y11500D02*
X169750D01*
X178250Y90000D02*
Y187000D01*
X279250D01*
Y90000D02*
Y187000D01*
X178250Y90000D02*
X279250D01*
X183250Y62000D02*
X196250D01*
D18*
X199781Y46000D02*
G03*
X199781Y46000I-1031J0D01*
G01*
D48*
X209750Y62000D02*
G03*
X209750Y62000I-20000J0D01*
G01*
X171250Y0D02*
X271250D01*
D49*
X228750Y90000D02*
Y187000D01*
X222999Y17334D02*
Y18667D01*
Y18000D01*
X219666D01*
X219000Y18667D01*
Y19333D01*
X219666Y20000D01*
X219000Y16001D02*
Y14668D01*
Y15335D01*
X222999D01*
X222332Y16001D01*
X69166Y106749D02*
X67833D01*
X68500D01*
Y103417D01*
X67833Y102750D01*
X67167D01*
X66500Y103417D01*
X72498Y102750D02*
Y106749D01*
X70499Y104749D01*
X73165D01*
X88725Y96636D02*
X92058D01*
X92724Y97302D01*
Y98635D01*
X92058Y99302D01*
X88725D01*
X89392Y100635D02*
X88725Y101301D01*
Y102634D01*
X89392Y103301D01*
X90058D01*
X90725Y102634D01*
Y101968D01*
Y102634D01*
X91391Y103301D01*
X92058D01*
X92724Y102634D01*
Y101301D01*
X92058Y100635D01*
X195000Y175249D02*
Y171916D01*
X195666Y171250D01*
X196999D01*
X197666Y171916D01*
Y175249D01*
X201665D02*
X200332Y174582D01*
X198999Y173249D01*
Y171916D01*
X199665Y171250D01*
X200998D01*
X201665Y171916D01*
Y172583D01*
X200998Y173249D01*
X198999D01*
X157684Y43711D02*
Y42378D01*
Y43044D01*
X161017D01*
X161683Y42378D01*
Y41711D01*
X161017Y41045D01*
X161683Y47709D02*
Y45044D01*
X159017Y47709D01*
X158351D01*
X157684Y47043D01*
Y45710D01*
X158351Y45044D01*
M02*
