M48
;Layer_Color=9474304
;FILE_FORMAT=4:4
METRIC,LZ
;TYPE=PLATED
T1F00S00C0.5000
T3F00S00C0.6500
T4F00S00C0.7000
T5F00S00C0.7500
T6F00S00C0.8500
T7F00S00C1.0000
T8F00S00C1.1500
T9F00S00C1.2000
T10F00S00C1.3000
T11F00S00C1.5000
T12F00S00C1.7000
T13F00S00C1.7500
T14F00S00C2.1000
T15F00S00C4.0000
%
T01
X-0004Y0002
Y0004
Y0006
Y0008
X00021Y0007325
X0005075Y000775
X000655Y00074
Y00059
X000735Y00013
X0008Y-0004
X00037114Y-00039636
X0002Y-0004
X001
X0012
X00116Y000075
X00127431Y0001118
X00125Y0004775
X00115
X00105
X00095
X00085
X00084Y000075
X0014525Y-00012269
X00145Y0004775
X00135
X00134074Y00059253
X00155Y0004775
X001697Y0003775
X0013Y0009
X00257Y0005025
X002685Y00054
X00283404Y00063335
X00297294Y00074399
X003138Y00092
X00284Y0002
Y000045
X00249035Y00004743
X00266001Y-00039999
X003Y-0004
X0035125Y-0003275
X0038Y-00035
X0042
X0044
Y-00015
X0044375Y000085
X003965Y0004275
Y0005675
X0041175Y00083
X0023Y-0004
X00231818Y00106185
X00194209Y0013467
X001835Y001345
X0013Y001
X0014Y00193
X001308Y00225
X0014Y00235
X001395Y002655
X00118704Y002525
X0008425Y0025025
X0009315Y0024
X00085923Y00224717
X000875Y00199998
X001045Y001995
X00107Y00296
X00095997Y00296294
X00118Y002895
X0012Y0036
X001
X0014
X0016
X0018
X002
X0022
X0024
X0026
X0028
X003
X0032
X0034
Y0038
Y004
Y0042
Y00436
X0036
X0038
X0042
X0044
Y0042
Y0038
X00409577Y00352502
X0039375Y00355
X0039025Y003405
X003985Y00330331
X00388Y00318
X0037725Y00352502
X0036025Y0035
X003595Y0036525
X00340119Y00298316
X003138Y00302
X00322385Y002805
X00321Y00252
X00299Y0025
X00276912
X00274734Y00283926
X00292402Y00285
X00288831Y00333827
X0027225Y0032
X00219406Y00311448
X00218972Y00296294
X00231775Y00298069
X00203717Y00284
X002045Y00263
X0019575Y0024875
X002237Y00183
X00240469Y00182969
X00258241Y0018246
X00265Y00196
Y0021
Y00222
X00295Y0019275
X00307556Y00204322
X00335
X00356608Y00205206
X00369427Y002185
X00357694Y00233069
X00355Y00252
X003765Y00249042
X00396764Y00251675
X00410854Y0027475
X0044Y0022
Y0018
X00442Y0014175
X004025Y001424
X00377711Y0013
X00379066Y0010875
X0040075Y001005
X0043075Y00103003
X0036Y0012325
X00362548Y001412
X00377711Y00161636
X00325898Y00178425
X003325Y00231506
X003138Y00115499
X00303Y00125
X00291Y001196
X00279Y001277
X00077Y00106
X000785Y0009575
X-000287Y001101
X-0004Y0012
Y001
X-00027801Y00172699
X-00006Y001704
X000151Y001994
X000126Y00230652
X00011724Y00241498
X00003867Y0026575
X0003655Y00274
X00037Y00283926
X00043412Y00306609
Y0032
X00057121Y00320633
X00060826Y003
X00073998Y00290272
X0005Y0036
Y0038
Y0042
Y00436
X0007
Y0042
X0Y00436
X-0004Y004
Y0036
Y003
Y0024
Y0022
Y002
X000438Y00186
T03
X004245Y0030475
Y0032075
Y0033675
X00443499Y0032875
Y0031275
T04
X00081Y-00013
X00119
T05
X0007075Y-0001325
X0012925
T06
X000888Y001195
X001142
X001395Y001196
X001649
X001905Y001195
X002155
X002229Y00344
X001975
X001721
X000632Y001449
X000378
X00038Y001195
X000126
X000634
T07
X001075Y0027625
X001525
Y0034125
X001075
T08
X0044075Y000293
Y000547
X-000115Y002093
Y002347
X000119Y00286
Y003114
X-000135
T09
X-000102Y000648
X00231Y-00011
X00266
X00301
X00336
X-000102Y000998
T10
X001875Y000505
X00213
X002385
X002985
X00324
X003495
X002665Y0012
T11
X00425Y0015
Y002
Y0025
X-000135Y00286
Y00336
T12
X-000254Y003746
X000254
Y004254
X0Y004
X-000254Y004254
T13
X003865Y00278
T14
X00434Y0027925
Y0036225
T15
X0Y0
X004
Y004
M30
