%FSLAX44Y44*%
%MOMM*%
G71*
G01*
G75*
G04 Layer_Physical_Order=1*
G04 Layer_Color=191*
G04:AMPARAMS|DCode=10|XSize=0.7mm|YSize=2.5mm|CornerRadius=0.175mm|HoleSize=0mm|Usage=FLASHONLY|Rotation=0.000|XOffset=0mm|YOffset=0mm|HoleType=Round|Shape=RoundedRectangle|*
%AMROUNDEDRECTD10*
21,1,0.7000,2.1500,0,0,0.0*
21,1,0.3500,2.5000,0,0,0.0*
1,1,0.3500,0.1750,-1.0750*
1,1,0.3500,-0.1750,-1.0750*
1,1,0.3500,-0.1750,1.0750*
1,1,0.3500,0.1750,1.0750*
%
%ADD10ROUNDEDRECTD10*%
G04:AMPARAMS|DCode=11|XSize=0.67mm|YSize=0.67mm|CornerRadius=0.1508mm|HoleSize=0mm|Usage=FLASHONLY|Rotation=90.000|XOffset=0mm|YOffset=0mm|HoleType=Round|Shape=RoundedRectangle|*
%AMROUNDEDRECTD11*
21,1,0.6700,0.3685,0,0,90.0*
21,1,0.3685,0.6700,0,0,90.0*
1,1,0.3015,0.1843,0.1843*
1,1,0.3015,0.1843,-0.1843*
1,1,0.3015,-0.1843,-0.1843*
1,1,0.3015,-0.1843,0.1843*
%
%ADD11ROUNDEDRECTD11*%
G04:AMPARAMS|DCode=12|XSize=0.67mm|YSize=0.67mm|CornerRadius=0.1508mm|HoleSize=0mm|Usage=FLASHONLY|Rotation=180.000|XOffset=0mm|YOffset=0mm|HoleType=Round|Shape=RoundedRectangle|*
%AMROUNDEDRECTD12*
21,1,0.6700,0.3685,0,0,180.0*
21,1,0.3685,0.6700,0,0,180.0*
1,1,0.3015,-0.1843,0.1843*
1,1,0.3015,0.1843,0.1843*
1,1,0.3015,0.1843,-0.1843*
1,1,0.3015,-0.1843,-0.1843*
%
%ADD12ROUNDEDRECTD12*%
G04:AMPARAMS|DCode=13|XSize=0.62mm|YSize=0.62mm|CornerRadius=0.1488mm|HoleSize=0mm|Usage=FLASHONLY|Rotation=270.000|XOffset=0mm|YOffset=0mm|HoleType=Round|Shape=RoundedRectangle|*
%AMROUNDEDRECTD13*
21,1,0.6200,0.3224,0,0,270.0*
21,1,0.3224,0.6200,0,0,270.0*
1,1,0.2976,-0.1612,-0.1612*
1,1,0.2976,-0.1612,0.1612*
1,1,0.2976,0.1612,0.1612*
1,1,0.2976,0.1612,-0.1612*
%
%ADD13ROUNDEDRECTD13*%
%ADD14R,1.4000X0.4000*%
%ADD15R,1.9000X1.8000*%
G04:AMPARAMS|DCode=16|XSize=2.35mm|YSize=1.15mm|CornerRadius=0.3852mm|HoleSize=0mm|Usage=FLASHONLY|Rotation=180.000|XOffset=0mm|YOffset=0mm|HoleType=Round|Shape=RoundedRectangle|*
%AMROUNDEDRECTD16*
21,1,2.3500,0.3795,0,0,180.0*
21,1,1.5795,1.1500,0,0,180.0*
1,1,0.7705,-0.7897,0.1898*
1,1,0.7705,0.7897,0.1898*
1,1,0.7705,0.7897,-0.1898*
1,1,0.7705,-0.7897,-0.1898*
%
%ADD16ROUNDEDRECTD16*%
G04:AMPARAMS|DCode=17|XSize=1.3mm|YSize=1mm|CornerRadius=0.25mm|HoleSize=0mm|Usage=FLASHONLY|Rotation=180.000|XOffset=0mm|YOffset=0mm|HoleType=Round|Shape=RoundedRectangle|*
%AMROUNDEDRECTD17*
21,1,1.3000,0.5000,0,0,180.0*
21,1,0.8000,1.0000,0,0,180.0*
1,1,0.5000,-0.4000,0.2500*
1,1,0.5000,0.4000,0.2500*
1,1,0.5000,0.4000,-0.2500*
1,1,0.5000,-0.4000,-0.2500*
%
%ADD17ROUNDEDRECTD17*%
G04:AMPARAMS|DCode=18|XSize=2.5mm|YSize=1.15mm|CornerRadius=0.3852mm|HoleSize=0mm|Usage=FLASHONLY|Rotation=180.000|XOffset=0mm|YOffset=0mm|HoleType=Round|Shape=RoundedRectangle|*
%AMROUNDEDRECTD18*
21,1,2.5000,0.3795,0,0,180.0*
21,1,1.7295,1.1500,0,0,180.0*
1,1,0.7705,-0.8648,0.1898*
1,1,0.7705,0.8648,0.1898*
1,1,0.7705,0.8648,-0.1898*
1,1,0.7705,-0.8648,-0.1898*
%
%ADD18ROUNDEDRECTD18*%
G04:AMPARAMS|DCode=19|XSize=1.1mm|YSize=0.6mm|CornerRadius=0.201mm|HoleSize=0mm|Usage=FLASHONLY|Rotation=270.000|XOffset=0mm|YOffset=0mm|HoleType=Round|Shape=RoundedRectangle|*
%AMROUNDEDRECTD19*
21,1,1.1000,0.1980,0,0,270.0*
21,1,0.6980,0.6000,0,0,270.0*
1,1,0.4020,-0.0990,-0.3490*
1,1,0.4020,-0.0990,0.3490*
1,1,0.4020,0.0990,0.3490*
1,1,0.4020,0.0990,-0.3490*
%
%ADD19ROUNDEDRECTD19*%
G04:AMPARAMS|DCode=20|XSize=0.62mm|YSize=0.62mm|CornerRadius=0.1488mm|HoleSize=0mm|Usage=FLASHONLY|Rotation=180.000|XOffset=0mm|YOffset=0mm|HoleType=Round|Shape=RoundedRectangle|*
%AMROUNDEDRECTD20*
21,1,0.6200,0.3224,0,0,180.0*
21,1,0.3224,0.6200,0,0,180.0*
1,1,0.2976,-0.1612,0.1612*
1,1,0.2976,0.1612,0.1612*
1,1,0.2976,0.1612,-0.1612*
1,1,0.2976,-0.1612,-0.1612*
%
%ADD20ROUNDEDRECTD20*%
G04:AMPARAMS|DCode=21|XSize=1mm|YSize=2mm|CornerRadius=0.25mm|HoleSize=0mm|Usage=FLASHONLY|Rotation=0.000|XOffset=0mm|YOffset=0mm|HoleType=Round|Shape=RoundedRectangle|*
%AMROUNDEDRECTD21*
21,1,1.0000,1.5000,0,0,0.0*
21,1,0.5000,2.0000,0,0,0.0*
1,1,0.5000,0.2500,-0.7500*
1,1,0.5000,-0.2500,-0.7500*
1,1,0.5000,-0.2500,0.7500*
1,1,0.5000,0.2500,0.7500*
%
%ADD21ROUNDEDRECTD21*%
G04:AMPARAMS|DCode=22|XSize=0.7mm|YSize=1mm|CornerRadius=0.175mm|HoleSize=0mm|Usage=FLASHONLY|Rotation=180.000|XOffset=0mm|YOffset=0mm|HoleType=Round|Shape=RoundedRectangle|*
%AMROUNDEDRECTD22*
21,1,0.7000,0.6500,0,0,180.0*
21,1,0.3500,1.0000,0,0,180.0*
1,1,0.3500,-0.1750,0.3250*
1,1,0.3500,0.1750,0.3250*
1,1,0.3500,0.1750,-0.3250*
1,1,0.3500,-0.1750,-0.3250*
%
%ADD22ROUNDEDRECTD22*%
G04:AMPARAMS|DCode=23|XSize=0.8mm|YSize=1mm|CornerRadius=0.2mm|HoleSize=0mm|Usage=FLASHONLY|Rotation=180.000|XOffset=0mm|YOffset=0mm|HoleType=Round|Shape=RoundedRectangle|*
%AMROUNDEDRECTD23*
21,1,0.8000,0.6000,0,0,180.0*
21,1,0.4000,1.0000,0,0,180.0*
1,1,0.4000,-0.2000,0.3000*
1,1,0.4000,0.2000,0.3000*
1,1,0.4000,0.2000,-0.3000*
1,1,0.4000,-0.2000,-0.3000*
%
%ADD23ROUNDEDRECTD23*%
%ADD24O,0.7000X2.5000*%
%ADD25O,2.5000X0.7000*%
G04:AMPARAMS|DCode=26|XSize=1.2mm|YSize=1.2mm|CornerRadius=0.198mm|HoleSize=0mm|Usage=FLASHONLY|Rotation=180.000|XOffset=0mm|YOffset=0mm|HoleType=Round|Shape=RoundedRectangle|*
%AMROUNDEDRECTD26*
21,1,1.2000,0.8040,0,0,180.0*
21,1,0.8040,1.2000,0,0,180.0*
1,1,0.3960,-0.4020,0.4020*
1,1,0.3960,0.4020,0.4020*
1,1,0.3960,0.4020,-0.4020*
1,1,0.3960,-0.4020,-0.4020*
%
%ADD26ROUNDEDRECTD26*%
G04:AMPARAMS|DCode=27|XSize=1.6mm|YSize=2mm|CornerRadius=0.248mm|HoleSize=0mm|Usage=FLASHONLY|Rotation=90.000|XOffset=0mm|YOffset=0mm|HoleType=Round|Shape=RoundedRectangle|*
%AMROUNDEDRECTD27*
21,1,1.6000,1.5040,0,0,90.0*
21,1,1.1040,2.0000,0,0,90.0*
1,1,0.4960,0.7520,0.5520*
1,1,0.4960,0.7520,-0.5520*
1,1,0.4960,-0.7520,-0.5520*
1,1,0.4960,-0.7520,0.5520*
%
%ADD27ROUNDEDRECTD27*%
%ADD28O,0.3000X0.9000*%
%ADD29O,0.9000X0.3000*%
%ADD30R,2.4000X2.4000*%
%ADD31C,0.5000*%
%ADD32C,0.3000*%
%ADD33C,0.2000*%
%ADD34C,0.4000*%
%ADD35C,0.7000*%
%ADD36C,0.3500*%
%ADD37C,0.6000*%
%ADD38C,0.2500*%
%ADD39C,0.7000*%
G04:AMPARAMS|DCode=40|XSize=1.15mm|YSize=2.1mm|CornerRadius=0.2875mm|HoleSize=0mm|Usage=FLASHONLY|Rotation=90.000|XOffset=0mm|YOffset=0mm|HoleType=Round|Shape=RoundedRectangle|*
%AMROUNDEDRECTD40*
21,1,1.1500,1.5250,0,0,90.0*
21,1,0.5750,2.1000,0,0,90.0*
1,1,0.5750,0.7625,0.2875*
1,1,0.5750,0.7625,-0.2875*
1,1,0.5750,-0.7625,-0.2875*
1,1,0.5750,-0.7625,0.2875*
%
%ADD40ROUNDEDRECTD40*%
%ADD41C,1.8500*%
%ADD42C,0.9000*%
%ADD43C,1.3000*%
%ADD44R,1.3000X1.3000*%
G04:AMPARAMS|DCode=45|XSize=0.7mm|YSize=0.7mm|CornerRadius=0.175mm|HoleSize=0mm|Usage=FLASHONLY|Rotation=270.000|XOffset=0mm|YOffset=0mm|HoleType=Round|Shape=RoundedRectangle|*
%AMROUNDEDRECTD45*
21,1,0.7000,0.3500,0,0,270.0*
21,1,0.3500,0.7000,0,0,270.0*
1,1,0.3500,-0.1750,-0.1750*
1,1,0.3500,-0.1750,0.1750*
1,1,0.3500,0.1750,0.1750*
1,1,0.3500,0.1750,-0.1750*
%
%ADD45ROUNDEDRECTD45*%
G04:AMPARAMS|DCode=46|XSize=1.3mm|YSize=1.3mm|CornerRadius=0.1625mm|HoleSize=0mm|Usage=FLASHONLY|Rotation=180.000|XOffset=0mm|YOffset=0mm|HoleType=Round|Shape=RoundedRectangle|*
%AMROUNDEDRECTD46*
21,1,1.3000,0.9750,0,0,180.0*
21,1,0.9750,1.3000,0,0,180.0*
1,1,0.3250,-0.4875,0.4875*
1,1,0.3250,0.4875,0.4875*
1,1,0.3250,0.4875,-0.4875*
1,1,0.3250,-0.4875,-0.4875*
%
%ADD46ROUNDEDRECTD46*%
%ADD47C,0.8000*%
G36*
X30250Y234889D02*
X28284Y234498D01*
X26616Y233384D01*
X25502Y231716D01*
X25111Y229750D01*
Y223520D01*
X32750D01*
Y220980D01*
X25111D01*
Y214750D01*
X25502Y212783D01*
X26616Y211116D01*
X28284Y210002D01*
X30250Y209611D01*
X31626D01*
Y209000D01*
X31959Y207326D01*
X32907Y205907D01*
X34326Y204959D01*
X36000Y204626D01*
X36480D01*
Y219750D01*
X39020D01*
Y204626D01*
X39500D01*
X40185Y203467D01*
Y199250D01*
X40185Y199250D01*
Y181250D01*
X40443Y179292D01*
X41199Y177468D01*
X42401Y175901D01*
X43968Y174699D01*
X45792Y173943D01*
X47750Y173685D01*
X49708Y173943D01*
X51532Y174699D01*
X53099Y175901D01*
X53875Y176912D01*
X54395Y176895D01*
X56393Y175560D01*
X57480Y175344D01*
Y190250D01*
X60020D01*
Y175344D01*
X61107Y175560D01*
X63105Y176895D01*
X63625Y176912D01*
X64401Y175901D01*
X65968Y174699D01*
X67792Y173943D01*
X69750Y173685D01*
X71708Y173943D01*
X73532Y174699D01*
X74282Y175273D01*
X74402Y175341D01*
X75652Y174724D01*
Y167436D01*
X74596Y166730D01*
X73838Y167044D01*
X71750Y167319D01*
X69662Y167044D01*
X67716Y166238D01*
X66044Y164956D01*
X64762Y163284D01*
X63956Y161338D01*
X63681Y159250D01*
X63956Y157162D01*
X64762Y155216D01*
X65633Y154081D01*
Y116338D01*
X49662Y100367D01*
X44779D01*
X44100Y101637D01*
X44939Y102893D01*
X45156Y103980D01*
X30250D01*
Y106520D01*
X45156D01*
X44939Y107607D01*
X43605Y109605D01*
X42841Y110115D01*
Y111385D01*
X43605Y111895D01*
X44939Y113893D01*
X45156Y114980D01*
X30250D01*
Y117520D01*
X45156D01*
X44939Y118607D01*
X43605Y120604D01*
X43587Y121125D01*
X44599Y121901D01*
X45801Y123468D01*
X46557Y125292D01*
X46815Y127250D01*
X46557Y129208D01*
X45801Y131032D01*
X45226Y131781D01*
X44684Y132750D01*
X45226Y133718D01*
X45801Y134467D01*
X46557Y136292D01*
X46815Y138250D01*
X46557Y140208D01*
X45801Y142032D01*
X44599Y143599D01*
X43587Y144375D01*
X43605Y144895D01*
X44939Y146893D01*
X45156Y147980D01*
X15344D01*
X15560Y146893D01*
X16895Y144895D01*
X16912Y144375D01*
X15901Y143599D01*
X15711Y143352D01*
X14111D01*
X13456Y144206D01*
X11784Y145488D01*
X9838Y146294D01*
X7750Y146569D01*
X5662Y146294D01*
X3819Y145531D01*
X2893Y145859D01*
X2549Y146029D01*
Y307451D01*
X30250D01*
Y234889D01*
D02*
G37*
G36*
X398451Y183638D02*
X397181Y183253D01*
X396529Y184229D01*
X394738Y185426D01*
X392625Y185846D01*
X386270D01*
Y177450D01*
Y169054D01*
X392625D01*
X394738Y169474D01*
X396529Y170671D01*
X397181Y171647D01*
X398451Y171262D01*
Y22239D01*
X397181Y21853D01*
X396529Y22829D01*
X394738Y24026D01*
X392625Y24446D01*
X386270D01*
Y16050D01*
Y7654D01*
X392625D01*
X394738Y8074D01*
X396529Y9271D01*
X397181Y10247D01*
X398451Y9862D01*
Y2549D01*
X222635D01*
X222510Y3819D01*
X224343Y4184D01*
X226245Y5454D01*
X231646Y10855D01*
X232916Y12757D01*
X233363Y15000D01*
Y22086D01*
X234778Y22672D01*
X236136Y23714D01*
X237113Y24987D01*
X239350D01*
X241593Y25434D01*
X243496Y26704D01*
X266646Y49854D01*
X267916Y51757D01*
X267990Y52129D01*
X268363Y54000D01*
X268363Y54000D01*
Y80999D01*
X269488Y82465D01*
X270294Y84412D01*
X270569Y86500D01*
X270294Y88588D01*
X269488Y90534D01*
X268206Y92206D01*
X266535Y93488D01*
X264588Y94294D01*
X262500Y94569D01*
X261633Y94455D01*
X260363Y95569D01*
Y96075D01*
X261238Y97215D01*
X262044Y99162D01*
X262319Y101250D01*
X262044Y103338D01*
X261238Y105285D01*
X260363Y106425D01*
Y119750D01*
X259916Y121994D01*
X258645Y123896D01*
X258645Y123896D01*
X245945Y136595D01*
X244044Y137866D01*
X241800Y138313D01*
X237113D01*
X236136Y139586D01*
X234778Y140628D01*
X233197Y141283D01*
X231500Y141506D01*
X223500D01*
X222848Y142078D01*
Y172797D01*
X223873Y173731D01*
X224250Y173681D01*
X226338Y173956D01*
X228284Y174762D01*
X228635Y175031D01*
X229888Y174824D01*
X230744Y173544D01*
X232858Y172131D01*
X235352Y171635D01*
X242730D01*
Y180050D01*
X245270D01*
Y171635D01*
X252647D01*
X255142Y172131D01*
X257138Y173465D01*
X257501Y173522D01*
X258629Y173313D01*
X259794Y171794D01*
X261465Y170512D01*
X263412Y169706D01*
X265500Y169431D01*
X267588Y169706D01*
X269534Y170512D01*
X271206Y171794D01*
X271634Y172352D01*
X303450D01*
X305401Y172740D01*
X307055Y173845D01*
X308787Y175577D01*
X309744Y174738D01*
X309012Y173785D01*
X308206Y171838D01*
X307931Y169750D01*
X308206Y167662D01*
X309012Y165716D01*
X310294Y164044D01*
X311966Y162762D01*
X313912Y161956D01*
X316000Y161681D01*
X318088Y161956D01*
X320034Y162762D01*
X321706Y164044D01*
X322331Y164859D01*
X323598Y164942D01*
X343145Y145395D01*
X344799Y144290D01*
X346750Y143902D01*
X356747D01*
X356828Y143705D01*
X358511Y141511D01*
X360705Y139828D01*
X363259Y138770D01*
X366000Y138409D01*
X368741Y138770D01*
X371295Y139828D01*
X371513Y139995D01*
X372652Y139434D01*
Y137362D01*
X368938Y133648D01*
X368741Y133730D01*
X366000Y134091D01*
X363259Y133730D01*
X360705Y132672D01*
X358511Y130989D01*
X356828Y128795D01*
X355770Y126241D01*
X355409Y123500D01*
X355770Y120759D01*
X356828Y118205D01*
X358511Y116011D01*
X360705Y114328D01*
X363259Y113270D01*
X366000Y112909D01*
X368741Y113270D01*
X371295Y114328D01*
X373489Y116011D01*
X375172Y118205D01*
X376230Y120759D01*
X376591Y123500D01*
X376230Y126241D01*
X376148Y126438D01*
X381355Y131645D01*
X382460Y133299D01*
X382524Y133623D01*
X382848Y135250D01*
Y154750D01*
X382460Y156701D01*
X381355Y158355D01*
X375855Y163855D01*
X374201Y164960D01*
X372250Y165348D01*
X359000D01*
X357049Y164960D01*
X355395Y163855D01*
X351638Y160098D01*
X349612D01*
X341260Y168450D01*
X341558Y169948D01*
X342811Y170467D01*
X344804Y171996D01*
X346333Y173989D01*
X347295Y176310D01*
X347455Y177530D01*
X338000D01*
Y180070D01*
X347455D01*
X347295Y181290D01*
X346536Y183122D01*
X346544Y183313D01*
X347014Y184296D01*
X347236Y184520D01*
X348741Y184820D01*
X350147Y185759D01*
X351315Y184862D01*
X353262Y184056D01*
X355350Y183781D01*
X357438Y184056D01*
X359384Y184862D01*
X361056Y186144D01*
X362338Y187815D01*
X363144Y189762D01*
X363419Y191850D01*
X363144Y193938D01*
X362338Y195884D01*
X362341Y195900D01*
X362976Y196324D01*
X373326Y206674D01*
X374652Y208659D01*
X375117Y211000D01*
Y216466D01*
X379076Y220424D01*
X380402Y222409D01*
X380868Y224750D01*
Y230466D01*
X387926Y237524D01*
X389252Y239509D01*
X389717Y241850D01*
Y261900D01*
X389252Y264241D01*
X387926Y266226D01*
X375826Y278326D01*
X373841Y279652D01*
X371500Y280117D01*
X368867D01*
Y284503D01*
X369532Y285497D01*
X369958Y287638D01*
Y290862D01*
X369532Y293003D01*
X368319Y294818D01*
X368188Y294905D01*
X368156Y295066D01*
X368469Y296638D01*
Y296980D01*
X357031D01*
Y296638D01*
X357259Y295490D01*
X357054Y295225D01*
X355446D01*
X355241Y295490D01*
X355469Y296638D01*
Y296980D01*
X344031D01*
Y296638D01*
X344344Y295066D01*
X344312Y294905D01*
X344181Y294818D01*
X342968Y293003D01*
X342542Y290862D01*
Y287638D01*
X342968Y285497D01*
X343484Y284725D01*
X342762Y283785D01*
X342522Y283205D01*
X341307Y282836D01*
X340835Y283151D01*
X338713Y283573D01*
X337988Y284714D01*
X338248Y285054D01*
X339436Y287922D01*
X339674Y289730D01*
X327950D01*
Y291000D01*
X326680D01*
Y302724D01*
X324872Y302486D01*
X322004Y301299D01*
X319541Y299409D01*
X317652Y296946D01*
X316702Y294653D01*
X316165Y294569D01*
X315353Y294715D01*
X314124Y297682D01*
X312000Y300450D01*
X309232Y302574D01*
X306009Y303909D01*
X302550Y304364D01*
X299091Y303909D01*
X295868Y302574D01*
X293100Y300450D01*
X290976Y297682D01*
X289641Y294459D01*
X289186Y291000D01*
X289641Y287541D01*
X290976Y284318D01*
X293100Y281550D01*
X293856Y280970D01*
X293568Y279733D01*
X293159Y279652D01*
X291174Y278326D01*
X287324Y274476D01*
X285998Y272491D01*
X285532Y270150D01*
Y269808D01*
X284620Y268441D01*
X284192Y266292D01*
Y262607D01*
X284620Y260459D01*
X284893Y260050D01*
X284620Y259641D01*
X284192Y257493D01*
Y253808D01*
X284620Y251659D01*
X285837Y249837D01*
X286975Y249076D01*
X286994Y248984D01*
X286681Y247412D01*
Y247070D01*
X292400D01*
Y245800D01*
X293670D01*
Y240081D01*
X294012D01*
X295584Y240394D01*
X295744Y240362D01*
X295831Y240231D01*
X296631Y239697D01*
X296690Y239399D01*
X297752Y237810D01*
X297392Y236000D01*
Y230000D01*
X297453Y229695D01*
X296555Y228797D01*
X296250Y228858D01*
X290250D01*
X288104Y228431D01*
X286285Y227215D01*
X285069Y225396D01*
X284642Y223250D01*
X285069Y221104D01*
X285738Y220102D01*
X285149Y219029D01*
X285111Y219044D01*
X283023Y219319D01*
X280934Y219044D01*
X279188Y218321D01*
X277243Y218708D01*
X273557D01*
X271409Y218280D01*
X271000Y218008D01*
X270591Y218280D01*
X268442Y218708D01*
X264757D01*
X262609Y218280D01*
X262023Y217889D01*
X260548Y218874D01*
X258020Y219377D01*
X242980D01*
X240452Y218874D01*
X238308Y217442D01*
X236876Y215298D01*
X236528Y215112D01*
X236088Y215294D01*
X234000Y215569D01*
X231912Y215294D01*
X229965Y214488D01*
X228831Y213617D01*
X223750D01*
X221409Y213152D01*
X219424Y211826D01*
X210408Y202810D01*
X209138Y203336D01*
Y205980D01*
X196500D01*
Y207250D01*
X195230D01*
Y217888D01*
X188980D01*
X187021Y217499D01*
X185361Y216389D01*
X184251Y214729D01*
X183862Y212770D01*
Y207039D01*
X182592Y206191D01*
X181708Y206557D01*
X179750Y206815D01*
X177792Y206557D01*
X175968Y205801D01*
X174401Y204599D01*
X174099D01*
X172532Y205801D01*
X170708Y206557D01*
X168750Y206815D01*
X166792Y206557D01*
X164968Y205801D01*
X163401Y204599D01*
X163099D01*
X161532Y205801D01*
X159708Y206557D01*
X157750Y206815D01*
X156138Y206602D01*
X154867Y207378D01*
Y210125D01*
X155201Y210413D01*
X156047Y210828D01*
X157283Y210002D01*
X159250Y209611D01*
X160480D01*
Y220980D01*
X154111D01*
Y215295D01*
X153684Y214998D01*
X152851Y214726D01*
X151091Y215902D01*
X148750Y216367D01*
X144750D01*
X142409Y215902D01*
X140649Y214726D01*
X139816Y214998D01*
X139389Y215295D01*
Y220980D01*
X133020D01*
Y209611D01*
X134250D01*
X136216Y210002D01*
X137453Y210828D01*
X138299Y210413D01*
X138632Y210125D01*
Y205999D01*
X137362Y205088D01*
X137020Y205156D01*
Y190250D01*
X134480D01*
Y205156D01*
X133393Y204939D01*
X131395Y203605D01*
X130875Y203587D01*
X130099Y204599D01*
X128532Y205801D01*
X126708Y206557D01*
X124750Y206815D01*
X122792Y206557D01*
X120968Y205801D01*
X119401Y204599D01*
X119099D01*
X117532Y205801D01*
X115708Y206557D01*
X113750Y206815D01*
X111792Y206557D01*
X109968Y205801D01*
X108401Y204599D01*
X108099D01*
X106532Y205801D01*
X104708Y206557D01*
X102750Y206815D01*
X100792Y206557D01*
X98968Y205801D01*
X97401Y204599D01*
X97099D01*
X95532Y205801D01*
X93708Y206557D01*
X91750Y206815D01*
X89792Y206557D01*
X87968Y205801D01*
X87219Y205226D01*
X86099Y204599D01*
X84532Y205801D01*
X82708Y206557D01*
X80750Y206815D01*
X78792Y206557D01*
X76968Y205801D01*
X75401Y204599D01*
X74282Y205226D01*
X73532Y205801D01*
X71708Y206557D01*
X69750Y206815D01*
X67792Y206557D01*
X65968Y205801D01*
X64401Y204599D01*
X63625Y203587D01*
X63105Y203605D01*
X62269Y204163D01*
Y205690D01*
X62593Y205907D01*
X63541Y207326D01*
X63874Y209000D01*
Y209611D01*
X65250D01*
X67217Y210002D01*
X68884Y211116D01*
X69998Y212783D01*
X70389Y214750D01*
Y220980D01*
X62750D01*
Y223520D01*
X70389D01*
Y229750D01*
X70144Y230980D01*
X71052Y232250D01*
X123448D01*
X124356Y230980D01*
X124111Y229750D01*
Y223520D01*
X139389D01*
Y229750D01*
X139144Y230980D01*
X140052Y232250D01*
X153448Y232250D01*
X154356Y230980D01*
X154111Y229750D01*
Y223520D01*
X169389D01*
Y229750D01*
X169144Y230980D01*
X170052Y232250D01*
X265250D01*
Y307451D01*
X398451D01*
Y183638D01*
D02*
G37*
G36*
X150000Y151459D02*
X142895Y144355D01*
X141790Y142701D01*
X141402Y140750D01*
Y93362D01*
X110145Y62105D01*
X110138Y62093D01*
X108868Y62478D01*
Y90204D01*
X108969Y90218D01*
X111037Y91074D01*
X112812Y92437D01*
X114175Y94212D01*
X115031Y96280D01*
X115323Y98499D01*
X115031Y100718D01*
X114175Y102785D01*
X112812Y104561D01*
X111037Y105924D01*
X108969Y106780D01*
X106750Y107072D01*
X104531Y106780D01*
X102463Y105924D01*
X100688Y104561D01*
X99325Y102785D01*
X98469Y100718D01*
X98214Y98781D01*
X97250Y98285D01*
X96286Y98781D01*
X96031Y100718D01*
X95175Y102785D01*
X93812Y104561D01*
X92037Y105924D01*
X89969Y106780D01*
X87750Y107072D01*
X86142Y106860D01*
X85406Y108045D01*
X85460Y108125D01*
X85848Y110076D01*
Y122595D01*
X95355Y132101D01*
X96460Y133755D01*
X96848Y135706D01*
Y150427D01*
X98118Y151363D01*
X99500Y151181D01*
X101588Y151456D01*
X103534Y152262D01*
X104017Y152633D01*
X149514D01*
X150000Y151459D01*
D02*
G37*
G36*
X79328Y99649D02*
X79177Y98499D01*
X79469Y96280D01*
X80325Y94212D01*
X81688Y92437D01*
X83463Y91074D01*
X85531Y90218D01*
X85632Y90204D01*
Y58360D01*
X84362Y57871D01*
X82708Y58557D01*
X80750Y58815D01*
X78792Y58557D01*
X76968Y57801D01*
X75401Y56599D01*
X74282Y57226D01*
X73532Y57801D01*
X71708Y58557D01*
X69750Y58815D01*
X67792Y58557D01*
X65968Y57801D01*
X65219Y57226D01*
X64099Y56599D01*
X62532Y57801D01*
X60708Y58557D01*
X58750Y58815D01*
X56792Y58557D01*
X54968Y57801D01*
X53456Y56641D01*
X52391Y57196D01*
X52276Y58817D01*
X56867Y63407D01*
X57972Y65061D01*
X58360Y67012D01*
Y80476D01*
X78125Y100242D01*
X79328Y99649D01*
D02*
G37*
G36*
X17468Y65699D02*
X19292Y64943D01*
X21250Y64685D01*
X36409D01*
X36895Y63512D01*
X27895Y54512D01*
X26790Y52858D01*
X26402Y50907D01*
Y34362D01*
X18158Y26117D01*
X16784D01*
X15947Y27072D01*
X16069Y28000D01*
X15794Y30088D01*
X14988Y32034D01*
X14195Y33068D01*
X14457Y34388D01*
Y37612D01*
X14032Y39753D01*
X12819Y41569D01*
X12688Y41656D01*
X12656Y41816D01*
X12969Y43388D01*
Y43730D01*
X7250D01*
Y45000D01*
X5980D01*
Y50719D01*
X5638D01*
X4066Y50406D01*
X3819Y50241D01*
X2549Y50920D01*
Y54045D01*
X3819Y54724D01*
X4013Y54594D01*
X5585Y54281D01*
X5927D01*
Y60000D01*
X7197D01*
Y61270D01*
X12916D01*
Y61612D01*
X12603Y63184D01*
X12635Y63344D01*
X12766Y63431D01*
X13979Y65247D01*
X14155Y66132D01*
X16902D01*
X17468Y65699D01*
D02*
G37*
G36*
X109968Y26699D02*
X111486Y26070D01*
X111762Y25279D01*
X111800Y25112D01*
X111805Y24660D01*
X110597Y22853D01*
X110133Y20520D01*
Y12480D01*
X110597Y10147D01*
X111919Y8169D01*
X113897Y6847D01*
X116230Y6383D01*
X117152D01*
Y5737D01*
X117534Y3819D01*
X117572Y3590D01*
X116840Y2549D01*
X2549D01*
Y20663D01*
X3688Y21225D01*
X3965Y21012D01*
X5457Y20394D01*
X5383Y20020D01*
Y11980D01*
X5847Y9647D01*
X7169Y7669D01*
X9147Y6347D01*
X11480Y5883D01*
X19520D01*
X21853Y6347D01*
X23831Y7669D01*
X25153Y9647D01*
X25353Y10650D01*
X26647D01*
X26847Y9647D01*
X28169Y7669D01*
X30147Y6347D01*
X32480Y5883D01*
X40520D01*
X42853Y6347D01*
X44831Y7669D01*
X46153Y9647D01*
X46617Y11980D01*
Y20020D01*
X46153Y22353D01*
X44831Y24331D01*
X42853Y25653D01*
X41348Y25952D01*
Y27378D01*
X42618Y27734D01*
X43968Y26699D01*
X45792Y25943D01*
X47750Y25685D01*
X49708Y25943D01*
X51532Y26699D01*
X52281Y27273D01*
X53401Y27901D01*
X54968Y26699D01*
X56792Y25943D01*
X57040Y25910D01*
X57764Y24534D01*
X57219Y23219D01*
X56927Y21000D01*
X57219Y18781D01*
X58075Y16713D01*
X59438Y14938D01*
X61213Y13575D01*
X63281Y12719D01*
X65500Y12427D01*
X67719Y12719D01*
X69787Y13575D01*
X71562Y14938D01*
X72925Y16713D01*
X73781Y18781D01*
X74073Y21000D01*
X74024Y21374D01*
X74100Y21449D01*
X75642Y21701D01*
X75819Y21571D01*
X75975Y21368D01*
X75927Y21000D01*
X76219Y18781D01*
X77075Y16713D01*
X78438Y14938D01*
X80213Y13575D01*
X82281Y12719D01*
X84500Y12427D01*
X86719Y12719D01*
X88787Y13575D01*
X89352Y14009D01*
X90622Y13382D01*
Y12480D01*
X90972Y10716D01*
X91971Y9221D01*
X93466Y8222D01*
X95230Y7872D01*
X97980D01*
Y16500D01*
X99250D01*
Y17770D01*
X107879D01*
Y20520D01*
X107528Y22284D01*
X106529Y23779D01*
X105046Y24770D01*
X105033Y24856D01*
X105025Y26074D01*
X106532Y26699D01*
X107281Y27273D01*
X108401Y27901D01*
X109968Y26699D01*
D02*
G37*
%LPC*%
G36*
X383730Y14780D02*
X371854D01*
Y13175D01*
X372274Y11062D01*
X373471Y9271D01*
X375262Y8074D01*
X377375Y7654D01*
X383730D01*
Y14780D01*
D02*
G37*
G36*
X8862Y50719D02*
X8520D01*
Y46270D01*
X12969D01*
Y46612D01*
X12656Y48184D01*
X11766Y49516D01*
X10434Y50406D01*
X8862Y50719D01*
D02*
G37*
G36*
X339270Y48255D02*
Y40070D01*
X347455D01*
X347295Y41290D01*
X346333Y43611D01*
X344804Y45604D01*
X342811Y47133D01*
X340490Y48094D01*
X339270Y48255D01*
D02*
G37*
G36*
X281615Y12180D02*
X268470D01*
Y5035D01*
X275098D01*
X277592Y5531D01*
X279706Y6944D01*
X281119Y9058D01*
X281615Y11552D01*
Y12180D01*
D02*
G37*
G36*
X298500Y170569D02*
X296412Y170294D01*
X294466Y169488D01*
X292794Y168206D01*
X291512Y166535D01*
X290706Y164588D01*
X290431Y162500D01*
X290706Y160412D01*
X291512Y158465D01*
X292794Y156794D01*
X293402Y156328D01*
Y121000D01*
X293790Y119049D01*
X294895Y117395D01*
X348277Y64013D01*
Y60125D01*
X348665Y58174D01*
X349770Y56520D01*
X355500Y50790D01*
Y37000D01*
X376500D01*
Y58000D01*
X362710D01*
X358473Y62237D01*
Y63940D01*
X359743Y64566D01*
X360705Y63828D01*
X363259Y62770D01*
X366000Y62409D01*
X368741Y62770D01*
X371295Y63828D01*
X373489Y65511D01*
X375172Y67705D01*
X376230Y70259D01*
X376591Y73000D01*
X376230Y75741D01*
X375172Y78295D01*
X373489Y80489D01*
X371295Y82172D01*
X368741Y83230D01*
X366000Y83591D01*
X363259Y83230D01*
X360705Y82172D01*
X358511Y80489D01*
X357459Y79117D01*
X356105D01*
X312868Y122355D01*
Y147331D01*
X313738Y148465D01*
X314544Y150412D01*
X314819Y152500D01*
X314544Y154588D01*
X313738Y156535D01*
X312456Y158206D01*
X310784Y159488D01*
X308838Y160294D01*
X307445Y160478D01*
X306465Y161707D01*
X306569Y162500D01*
X306294Y164588D01*
X305488Y166535D01*
X304206Y168206D01*
X302535Y169488D01*
X300588Y170294D01*
X298500Y170569D01*
D02*
G37*
G36*
X265930Y12180D02*
X252785D01*
Y11552D01*
X253281Y9058D01*
X254694Y6944D01*
X256808Y5531D01*
X259303Y5035D01*
X265930D01*
Y12180D01*
D02*
G37*
G36*
X12916Y58730D02*
X8467D01*
Y54281D01*
X8809D01*
X10381Y54594D01*
X11713Y55484D01*
X12603Y56816D01*
X12916Y58388D01*
Y58730D01*
D02*
G37*
G36*
X336730Y37530D02*
X328545D01*
X328706Y36310D01*
X329667Y33989D01*
X331196Y31996D01*
X333189Y30467D01*
X335510Y29506D01*
X336730Y29345D01*
Y37530D01*
D02*
G37*
G36*
X383730Y24446D02*
X377375D01*
X375262Y24026D01*
X373471Y22829D01*
X372274Y21038D01*
X371854Y18925D01*
Y17320D01*
X383730D01*
Y24446D01*
D02*
G37*
G36*
X275098Y21865D02*
X268470D01*
Y14720D01*
X281615D01*
Y15347D01*
X281119Y17842D01*
X279706Y19956D01*
X277592Y21369D01*
X275098Y21865D01*
D02*
G37*
G36*
X107879Y15230D02*
X100520D01*
Y7872D01*
X103270D01*
X105034Y8222D01*
X106529Y9221D01*
X107528Y10716D01*
X107879Y12480D01*
Y15230D01*
D02*
G37*
G36*
X265930Y21865D02*
X259303D01*
X256808Y21369D01*
X254694Y19956D01*
X253281Y17842D01*
X252785Y15347D01*
Y14720D01*
X265930D01*
Y21865D01*
D02*
G37*
G36*
X336730Y48255D02*
X335510Y48094D01*
X333189Y47133D01*
X331196Y45604D01*
X329667Y43611D01*
X328706Y41290D01*
X328545Y40070D01*
X336730D01*
Y48255D01*
D02*
G37*
G36*
X347455Y37530D02*
X339270D01*
Y29345D01*
X340490Y29506D01*
X342811Y30467D01*
X344804Y31996D01*
X346333Y33989D01*
X347295Y36310D01*
X347455Y37530D01*
D02*
G37*
G36*
X364730Y96730D02*
X357049D01*
X357193Y95640D01*
X358104Y93441D01*
X359553Y91553D01*
X361441Y90104D01*
X363640Y89193D01*
X364730Y89049D01*
Y96730D01*
D02*
G37*
G36*
X291130Y244530D02*
X286681D01*
Y244188D01*
X286994Y242616D01*
X287884Y241284D01*
X289216Y240394D01*
X290788Y240081D01*
X291130D01*
Y244530D01*
D02*
G37*
G36*
X329220Y302724D02*
Y292270D01*
X339674D01*
X339436Y294078D01*
X338248Y296946D01*
X336359Y299409D01*
X333896Y301299D01*
X331028Y302486D01*
X329220Y302724D01*
D02*
G37*
G36*
X130480Y220980D02*
X124111D01*
Y214750D01*
X124502Y212784D01*
X125616Y211116D01*
X127283Y210002D01*
X129250Y209611D01*
X130480D01*
Y220980D01*
D02*
G37*
G36*
X169389D02*
X163020D01*
Y209611D01*
X164250D01*
X166217Y210002D01*
X167884Y211116D01*
X168997Y212784D01*
X169389Y214750D01*
Y220980D01*
D02*
G37*
G36*
X361480Y303969D02*
X361138D01*
X359566Y303656D01*
X358234Y302766D01*
X357344Y301433D01*
X357031Y299862D01*
Y299520D01*
X361480D01*
Y303969D01*
D02*
G37*
G36*
X364362D02*
X364020D01*
Y299520D01*
X368469D01*
Y299862D01*
X368156Y301433D01*
X367266Y302766D01*
X365934Y303656D01*
X364362Y303969D01*
D02*
G37*
G36*
X348480D02*
X348138D01*
X346566Y303656D01*
X345234Y302766D01*
X344344Y301433D01*
X344031Y299862D01*
Y299520D01*
X348480D01*
Y303969D01*
D02*
G37*
G36*
X351362D02*
X351020D01*
Y299520D01*
X355469D01*
Y299862D01*
X355156Y301433D01*
X354266Y302766D01*
X352934Y303656D01*
X351362Y303969D01*
D02*
G37*
G36*
X204020Y217888D02*
X197770D01*
Y208520D01*
X209138D01*
Y212770D01*
X208749Y214729D01*
X207639Y216389D01*
X205979Y217499D01*
X204020Y217888D01*
D02*
G37*
G36*
X367270Y106951D02*
Y99270D01*
X374951D01*
X374807Y100360D01*
X373896Y102559D01*
X372447Y104447D01*
X370559Y105896D01*
X368360Y106807D01*
X367270Y106951D01*
D02*
G37*
G36*
X45156Y158980D02*
X15344D01*
X15560Y157893D01*
X16895Y155895D01*
X17659Y155385D01*
Y154115D01*
X16895Y153604D01*
X15560Y151607D01*
X15344Y150520D01*
X45156D01*
X44939Y151607D01*
X43605Y153604D01*
X42841Y154115D01*
Y155385D01*
X43605Y155895D01*
X44939Y157893D01*
X45156Y158980D01*
D02*
G37*
G36*
X374951Y96730D02*
X367270D01*
Y89049D01*
X368360Y89193D01*
X370559Y90104D01*
X372447Y91553D01*
X373896Y93441D01*
X374807Y95640D01*
X374951Y96730D01*
D02*
G37*
G36*
X364730Y106951D02*
X363640Y106807D01*
X361441Y105896D01*
X359553Y104447D01*
X358104Y102559D01*
X357193Y100360D01*
X357049Y99270D01*
X364730D01*
Y106951D01*
D02*
G37*
G36*
X383730Y176180D02*
X371854D01*
Y174575D01*
X372274Y172462D01*
X373471Y170671D01*
X375262Y169474D01*
X377375Y169054D01*
X383730D01*
Y176180D01*
D02*
G37*
G36*
Y185846D02*
X377375D01*
X375262Y185426D01*
X373471Y184229D01*
X372274Y182438D01*
X371854Y180325D01*
Y178720D01*
X383730D01*
Y185846D01*
D02*
G37*
G36*
X28980Y166408D02*
X21250D01*
X18893Y165940D01*
X16895Y164604D01*
X15560Y162607D01*
X15344Y161520D01*
X28980D01*
Y166408D01*
D02*
G37*
G36*
X39250D02*
X31520D01*
Y161520D01*
X45156D01*
X44939Y162607D01*
X43605Y164604D01*
X41607Y165940D01*
X39250Y166408D01*
D02*
G37*
%LPD*%
D10*
X47750Y219750D02*
D03*
X57750D02*
D03*
X37750D02*
D03*
D11*
X278400Y200900D02*
D03*
Y192100D02*
D03*
X301400Y255650D02*
D03*
Y264450D02*
D03*
X291650Y255650D02*
D03*
Y264450D02*
D03*
X268600Y200900D02*
D03*
Y192100D02*
D03*
X344750Y191850D02*
D03*
Y200650D02*
D03*
X214000Y18400D02*
D03*
Y9600D02*
D03*
D12*
X269100Y191600D02*
D03*
X277900D02*
D03*
X266600Y211250D02*
D03*
X275400D02*
D03*
X269100Y201400D02*
D03*
X277900D02*
D03*
D13*
X292400Y245800D02*
D03*
X301400D02*
D03*
X353500Y210250D02*
D03*
X344500D02*
D03*
D14*
X360000Y259000D02*
D03*
Y233000D02*
D03*
Y252500D02*
D03*
Y239500D02*
D03*
Y246000D02*
D03*
D15*
X386500Y286000D02*
D03*
Y206000D02*
D03*
D16*
X267200Y13450D02*
D03*
D17*
X227500Y30850D02*
D03*
Y43550D02*
D03*
Y68950D02*
D03*
Y119750D02*
D03*
Y56250D02*
D03*
Y132450D02*
D03*
Y107050D02*
D03*
Y81650D02*
D03*
Y94350D02*
D03*
D18*
X244000Y180050D02*
D03*
D19*
X337500Y274000D02*
D03*
X328000D02*
D03*
X318500D02*
D03*
Y248000D02*
D03*
X337500D02*
D03*
D20*
X7250Y45000D02*
D03*
Y36000D02*
D03*
X349750Y289250D02*
D03*
Y298250D02*
D03*
X362750Y289250D02*
D03*
Y298250D02*
D03*
X7197Y69000D02*
D03*
Y60000D02*
D03*
X7250Y128250D02*
D03*
Y119250D02*
D03*
X7197Y95250D02*
D03*
Y104250D02*
D03*
X133750Y12000D02*
D03*
Y21000D02*
D03*
D21*
X32750Y222250D02*
D03*
X62750D02*
D03*
X131750Y222250D02*
D03*
X161750D02*
D03*
D22*
X47750Y207250D02*
D03*
D23*
X146750Y207250D02*
D03*
D24*
X179750Y42250D02*
D03*
X168750D02*
D03*
X157750D02*
D03*
X146750D02*
D03*
X135750D02*
D03*
X124750D02*
D03*
X113750D02*
D03*
X102750D02*
D03*
X91750D02*
D03*
X80750D02*
D03*
X69750D02*
D03*
X58750D02*
D03*
X47750D02*
D03*
Y190250D02*
D03*
X58750D02*
D03*
X69750D02*
D03*
X80750D02*
D03*
X91750D02*
D03*
X102750D02*
D03*
X113750D02*
D03*
X124750D02*
D03*
X135750D02*
D03*
X146750D02*
D03*
X157750D02*
D03*
X168750D02*
D03*
X179750D02*
D03*
D25*
X197250Y72250D02*
D03*
Y83250D02*
D03*
Y94250D02*
D03*
Y105250D02*
D03*
Y116250D02*
D03*
Y127250D02*
D03*
Y138250D02*
D03*
Y149250D02*
D03*
Y160250D02*
D03*
X30250D02*
D03*
Y149250D02*
D03*
Y138250D02*
D03*
Y127250D02*
D03*
Y116250D02*
D03*
Y105250D02*
D03*
Y94250D02*
D03*
Y83250D02*
D03*
Y72250D02*
D03*
D26*
X120250Y16500D02*
D03*
X99250D02*
D03*
X15500Y16000D02*
D03*
X36500D02*
D03*
D27*
X250500Y207250D02*
D03*
X196500D02*
D03*
D28*
X303000Y233000D02*
D03*
X309500D02*
D03*
X316000D02*
D03*
X322500D02*
D03*
X303001Y194000D02*
D03*
X309501D02*
D03*
X316000D02*
D03*
X322500D02*
D03*
D29*
X293250Y223250D02*
D03*
Y216750D02*
D03*
Y210250D02*
D03*
Y203750D02*
D03*
X332250Y203750D02*
D03*
Y210250D02*
D03*
Y216750D02*
D03*
Y223250D02*
D03*
D30*
X312750Y213500D02*
D03*
D31*
X353500Y222000D02*
X355000Y223500D01*
X353500Y210250D02*
Y222000D01*
X242950Y166000D02*
X243250D01*
X235700Y173250D02*
X242950Y166000D01*
X235700Y173250D02*
X243250Y180800D01*
X244000Y180050D01*
X36750Y219756D02*
Y225250D01*
X22750Y219712D02*
X36750Y219756D01*
X22750Y219712D02*
Y304750D01*
X27750Y219750D02*
Y304750D01*
X7750Y219750D02*
X27750D01*
X7750D02*
Y304750D01*
X58750Y219795D02*
X87750D01*
X47750D02*
Y274750D01*
X67750D01*
X47750Y304750D02*
X242750D01*
Y254850D02*
Y304750D01*
X227750Y254850D02*
X242750D01*
X67750Y254750D02*
Y274750D01*
Y254750D02*
X87750D01*
Y274750D01*
X107750D01*
Y254850D02*
Y274750D01*
Y254850D02*
X127750D01*
Y274750D01*
X147750D01*
Y254850D02*
Y274750D01*
Y254850D02*
X167750D01*
Y274750D01*
X187750D01*
Y254850D02*
Y274750D01*
Y254850D02*
X207750D01*
Y274750D01*
X227750D01*
Y254850D02*
Y274750D01*
X47750Y284750D02*
Y304750D01*
Y284750D02*
X227750D01*
Y294750D01*
X57750D02*
X227750D01*
X58750Y224772D02*
X267750D01*
X12750Y219750D02*
Y304750D01*
X17750Y219750D02*
Y304750D01*
X22750D01*
X7750D02*
X27750D01*
X272750Y219795D02*
Y304750D01*
X58750Y229750D02*
X267750D01*
Y219795D02*
Y304750D01*
X282750D01*
X277750Y219795D02*
Y304750D01*
X58750Y219795D02*
Y229795D01*
Y219795D02*
Y224795D01*
Y219795D02*
Y229795D01*
X36750Y219795D02*
Y229795D01*
X67750Y219795D02*
X267750D01*
Y229750D01*
X58750Y219795D02*
Y229750D01*
X36750Y219795D02*
Y229795D01*
Y225250D02*
X37750Y219750D01*
X27750Y224750D02*
X37750D01*
X27750Y229750D02*
X32750D01*
X37750D01*
Y224750D02*
Y229750D01*
X267750Y219795D02*
X282750D01*
X277750Y304750D02*
X282750D01*
Y219795D02*
Y304750D01*
X309856Y25744D02*
X310352Y26240D01*
X305671Y21559D02*
X309856Y25744D01*
X303750Y19639D02*
X305671Y21559D01*
X320185Y15415D02*
Y26240D01*
Y7935D02*
Y15415D01*
X293364Y24031D02*
X294608Y22787D01*
Y19477D02*
Y22787D01*
Y19477D02*
X299435Y14650D01*
X303750Y18965D01*
Y19639D01*
X310352Y26240D02*
X320185D01*
X318372Y6122D02*
X320185Y7935D01*
X298974Y6122D02*
X318372D01*
X297687Y7410D02*
X298974Y6122D01*
X286222Y7410D02*
X297687D01*
X286222D02*
Y34512D01*
X380000Y34237D02*
X381488Y32749D01*
X380000Y34237D02*
Y111000D01*
X390000Y31996D02*
Y164250D01*
X377750Y30000D02*
X385748D01*
X368019D02*
X377750D01*
X350500D02*
X368019D01*
X281476Y30750D02*
X282513Y31788D01*
Y60361D01*
X320500Y50861D02*
X322861Y48500D01*
X303668Y67693D02*
X320500Y50861D01*
X297754Y73607D02*
X303668Y67693D01*
X322861Y48500D02*
X326829D01*
X346000Y119250D02*
Y120730D01*
X320582Y146147D02*
X346000Y120730D01*
X277750Y265000D02*
Y281584D01*
Y226250D02*
Y265000D01*
X272750Y270000D02*
X277750Y265000D01*
X272750Y270000D02*
Y290040D01*
X276710Y294000D01*
X131750Y222250D02*
X161750D01*
X117291D02*
X131750D01*
X62750Y224772D02*
X114769D01*
X117291Y222250D01*
X161750D02*
X164272Y224772D01*
X250000D01*
X38250Y184250D02*
Y216750D01*
X32750Y222250D02*
X38250Y216750D01*
D32*
X327950Y291000D02*
X328000Y290950D01*
Y274000D02*
Y290950D01*
X273500Y183000D02*
X298800D01*
X269100Y187400D02*
X273500Y183000D01*
X269100Y187400D02*
Y191600D01*
X298800Y183000D02*
X303001Y187201D01*
Y194000D01*
X278400Y200900D02*
X283900D01*
X286750Y203750D01*
X293250D01*
X332250Y210250D02*
X344500D01*
X312750Y213500D02*
X322500Y223250D01*
Y233000D01*
D33*
X217750Y175250D02*
X224250Y181750D01*
X217750Y112000D02*
Y175250D01*
X243750Y205250D02*
X246125Y202875D01*
X243500Y200250D02*
X246125Y202875D01*
X224400Y200250D02*
X243500D01*
X243625Y205375D02*
X245500Y207250D01*
X250500D02*
X251500D01*
X245500D02*
X250500D01*
X243750Y192500D02*
Y205250D01*
X222750Y192750D02*
X230750D01*
X213750Y183750D02*
X222750Y192750D01*
X213750Y119250D02*
Y183750D01*
X191650Y167500D02*
X224400Y200250D01*
X257500Y192750D02*
X265650Y200900D01*
X265550Y177450D02*
X303450D01*
X278400Y192100D02*
X278500Y192000D01*
X298500Y121000D02*
Y162500D01*
Y121000D02*
X353375Y66125D01*
X311750Y136413D02*
Y141750D01*
X303450Y177450D02*
X309501Y183500D01*
X179000Y167500D02*
X191650D01*
X278500Y192000D02*
X291250D01*
X265650Y200900D02*
X268600D01*
X309501Y183500D02*
Y194000D01*
X344750Y191850D02*
X355350D01*
X316000Y169750D02*
Y194000D01*
X351757Y254000D02*
X358500D01*
X345757Y260000D02*
X351757Y254000D01*
X343000Y260000D02*
X345757D01*
X358500Y254000D02*
X360000Y252500D01*
X349750Y246000D02*
X360000D01*
X340750Y237000D02*
X349750Y246000D01*
X350500Y239500D02*
X360000D01*
X345093Y234093D02*
X350500Y239500D01*
X303000Y233000D02*
Y239750D01*
X301400Y241350D02*
X303000Y239750D01*
X301400Y241350D02*
Y255650D01*
X291650D02*
X301400D01*
X340750Y225000D02*
Y237000D01*
X339000Y223250D02*
X340750Y225000D01*
X332250Y223250D02*
X339000D01*
X332250Y216750D02*
X341700D01*
X345093Y220143D01*
Y234093D01*
X372250Y160250D02*
X377750Y154750D01*
X359000Y160250D02*
X372250D01*
X353750Y155000D02*
X359000Y160250D01*
X377750Y135250D02*
Y154750D01*
X347500Y155000D02*
X353750D01*
X327750Y174750D02*
X347500Y155000D01*
X327750Y174750D02*
Y184500D01*
X332250Y189000D01*
X348732Y145000D02*
X351500Y142232D01*
X345093Y145000D02*
X348732D01*
X332489Y157605D02*
X345093Y145000D01*
X325021Y157605D02*
X332489D01*
X346750Y149000D02*
X366000D01*
X322500Y173249D02*
X346750Y149000D01*
X322500Y173249D02*
Y194000D01*
X351500Y126576D02*
Y142232D01*
X283023Y211250D02*
X284023Y210250D01*
X293250D01*
X332250Y189000D02*
Y203750D01*
X388471Y126971D02*
Y204029D01*
X392625Y233376D02*
Y262513D01*
X395000Y214500D02*
Y260138D01*
X309856Y25744D02*
X320185Y15415D01*
X302750Y32850D02*
X309856Y25744D01*
X305671Y21559D02*
X316000Y11230D01*
X286222Y41007D02*
X305671Y21559D01*
X385748Y30000D02*
X386500Y30752D01*
X384748Y29000D02*
X385748Y30000D01*
X368019D02*
X368769Y30750D01*
X365000Y26981D02*
X368019Y30000D01*
X377750D02*
X378750Y29000D01*
X377000Y30750D02*
X377750Y30000D01*
X303668Y67693D02*
Y88625D01*
Y65944D02*
Y67693D01*
X290969Y45754D02*
X296005Y50790D01*
X286222Y41007D02*
X290969Y45754D01*
X320500Y50861D02*
Y64156D01*
Y15730D02*
Y50861D01*
X309818Y161132D02*
X321493D01*
X325021Y157605D01*
X351500Y126576D02*
X352500Y125576D01*
Y110726D02*
Y125576D01*
X344969Y103195D02*
X352500Y110726D01*
X311750Y136413D02*
X344969Y103195D01*
X392625Y262513D02*
Y279875D01*
X302750Y33973D02*
X305363Y31360D01*
X290969Y45754D02*
X302750Y33973D01*
X288650Y48073D02*
X290969Y45754D01*
X302750Y44046D02*
X311723Y35073D01*
X296005Y50790D02*
X302750Y44046D01*
Y65026D01*
Y33973D02*
Y44046D01*
Y32850D02*
Y33973D01*
X320185Y15415D02*
X324370Y11230D01*
X320185Y15415D02*
X320500Y15730D01*
X316000Y11230D02*
X320185Y15415D01*
X383600Y208900D02*
Y209750D01*
Y208900D02*
X386500Y206000D01*
X395000Y214500D01*
X392625Y262513D02*
X395000Y260138D01*
X386500Y286000D02*
Y296500D01*
X382460Y292460D02*
X386500Y296500D01*
X382460Y290040D02*
Y292460D01*
Y290040D02*
X386500Y286000D01*
X392625Y279875D01*
X386500Y227251D02*
X392625Y233376D01*
X386500Y206000D02*
Y227251D01*
Y206000D02*
X388471Y204029D01*
X385000Y123500D02*
X388471Y126971D01*
X385000Y95000D02*
Y123500D01*
Y95000D02*
X386500Y93500D01*
Y30752D02*
Y93500D01*
X378750Y29000D02*
X384748D01*
X368769Y30750D02*
X377000D01*
X365000Y16350D02*
Y26981D01*
X362100Y13450D02*
X365000Y16350D01*
X342200Y13450D02*
X362100D01*
X339980Y11230D02*
X342200Y13450D01*
X324370Y11230D02*
X339980D01*
X302750Y65026D02*
X303668Y65944D01*
X288650Y73607D02*
X303668Y88625D01*
X288650Y48073D02*
Y73607D01*
X305363Y31360D02*
X311723D01*
Y35073D01*
X325084Y70916D02*
X348913Y47087D01*
X321493Y70916D02*
X325084D01*
X315384Y77025D02*
X321493Y70916D01*
X315384Y77025D02*
Y77400D01*
X298793Y93991D02*
X315384Y77400D01*
X298793Y93991D02*
Y99387D01*
X276500Y121680D02*
X298793Y99387D01*
X276500Y121680D02*
Y122706D01*
X249500Y149706D02*
X276500Y122706D01*
X245794Y149706D02*
X249500D01*
X245794D02*
X269488Y126012D01*
Y111929D02*
Y126012D01*
Y111929D02*
X277951Y103465D01*
Y50713D02*
Y103465D01*
X243496Y16258D02*
X277951Y50713D01*
X243496Y8169D02*
Y16258D01*
X60500Y68593D02*
Y81050D01*
X75200Y95750D01*
X79000D01*
X116500Y78750D02*
Y123000D01*
X61750Y115020D02*
Y165750D01*
X53262Y109662D02*
Y163071D01*
X37150Y170000D02*
X74750D01*
X29000Y173750D02*
Y194250D01*
X20000Y177250D02*
Y199250D01*
X10000Y164998D02*
Y201750D01*
X353375Y60125D02*
X366000Y47500D01*
X353375Y60125D02*
Y66125D01*
X178750Y136750D02*
Y147750D01*
Y136750D02*
X181500Y134000D01*
Y129750D02*
Y134000D01*
Y129750D02*
X184000Y127250D01*
X197250D01*
X162000Y150500D02*
X179000Y167500D01*
X204500Y60805D02*
X213750Y70055D01*
X196750Y28748D02*
X204500Y36498D01*
Y60805D01*
X208500Y59148D02*
X217750Y68398D01*
X208500Y34841D02*
Y59148D01*
X201900Y28241D02*
X208500Y34841D01*
X215794Y30794D02*
Y50000D01*
X214000Y29000D02*
X215794Y30794D01*
X214000Y18400D02*
Y29000D01*
X213750Y70055D02*
Y92250D01*
X217750Y68398D02*
Y98500D01*
X196750Y24000D02*
Y28748D01*
X176500Y14155D02*
X199750Y37405D01*
X176500Y14000D02*
Y14155D01*
X199750Y37405D02*
Y46000D01*
X201900Y14000D02*
Y28241D01*
X180000Y65750D02*
X199750Y46000D01*
X49262Y84245D02*
X76750Y111733D01*
X31500Y50907D02*
X49262Y68669D01*
Y84245D01*
X53262Y67012D02*
Y82588D01*
X36250Y50000D02*
X53262Y67012D01*
X80750Y110076D02*
Y124706D01*
X76750Y111733D02*
Y126363D01*
X53262Y82588D02*
X80750Y110076D01*
Y124706D02*
X91750Y135706D01*
X76750Y126363D02*
X80750Y130363D01*
Y190250D01*
X91750Y135706D02*
Y190250D01*
X7250Y104303D02*
Y116000D01*
Y104250D02*
Y104303D01*
X8197Y105250D01*
X7197Y104250D02*
X7250Y104303D01*
X8197Y105250D02*
X30250D01*
X7250Y116000D02*
X7500Y116250D01*
X30250D01*
X156250Y150500D02*
X162000D01*
X153500Y171750D02*
X158500Y166750D01*
X118250Y171750D02*
X153500D01*
X146500Y140750D02*
X156250Y150500D01*
X146500Y91250D02*
Y140750D01*
X113750Y58500D02*
X146500Y91250D01*
X113750Y42250D02*
Y58500D01*
X180000Y114750D02*
X181500Y116250D01*
X180000Y65750D02*
Y114750D01*
X187250Y36250D02*
X192500Y41500D01*
X187250Y30750D02*
Y36250D01*
X181263Y24763D02*
X187250Y30750D01*
X145513Y24763D02*
X181263D01*
X190250Y17500D02*
X196750Y24000D01*
X190250Y10250D02*
Y17500D01*
X141600Y20850D02*
X145513Y24763D01*
X181500Y116250D02*
X197250D01*
X211000Y105250D02*
X217750Y112000D01*
X210750Y116250D02*
X213750Y119250D01*
X211000Y105250D02*
X217750Y98500D01*
X211750Y94250D02*
X213750Y92250D01*
X197250Y94250D02*
X211750D01*
X183750Y3750D02*
X190250Y10250D01*
X197250Y72250D02*
X197500Y72000D01*
Y59750D02*
Y72000D01*
X197250Y105250D02*
X211000D01*
X146750Y34000D02*
Y42250D01*
X133750Y21000D02*
X146750Y34000D01*
X141600Y16350D02*
Y20850D01*
X137250Y12000D02*
X141600Y16350D01*
X133750Y12000D02*
X137250D01*
X122250Y5737D02*
Y16500D01*
Y5737D02*
X124237Y3750D01*
X183750D01*
X197250Y116250D02*
X210750D01*
X31500Y32250D02*
Y50907D01*
X15250Y16000D02*
X31500Y32250D01*
X36250Y16000D02*
Y50000D01*
X366000Y123500D02*
X377750Y135250D01*
X275400Y211250D02*
X283023D01*
X251500Y207250D02*
X255500Y211250D01*
X266600D01*
D34*
X188750Y172500D02*
X223750Y207500D01*
X234000D01*
X306750Y119821D02*
X353571Y73000D01*
X306750Y119821D02*
Y152500D01*
X176000Y172500D02*
X188750D01*
X374750Y224750D02*
Y233000D01*
X369000Y219000D02*
X374750Y224750D01*
X369000Y211000D02*
Y219000D01*
X360000Y233000D02*
X374750D01*
X358650Y200650D02*
X369000Y211000D01*
X344750Y200650D02*
X358650D01*
X362750Y274050D02*
Y289250D01*
X355364Y274050D02*
X362750D01*
X353064Y271750D02*
X355364Y274050D01*
X314750Y261000D02*
X330250D01*
X318500Y248000D02*
Y261000D01*
X301400Y264450D02*
X311300D01*
X314750Y261000D01*
X360000Y259000D02*
X373500D01*
X383600Y241850D02*
Y261900D01*
X371500Y274000D02*
X383600Y261900D01*
X362750Y274000D02*
X371500D01*
X337500Y268250D02*
Y274000D01*
X330250Y261000D02*
X337500Y268250D01*
X318500Y248000D02*
X337500D01*
X349750Y279750D02*
Y289250D01*
X302550Y274050D02*
Y291000D01*
X291650Y264450D02*
Y270150D01*
X295500Y274000D01*
X318500D01*
X337500D02*
X344186D01*
X346436Y271750D01*
X353064D01*
X353571Y73000D02*
X366000D01*
X162250Y158750D02*
X176000Y172500D01*
X100000Y158750D02*
X162250D01*
X99500Y159250D02*
X100000Y158750D01*
X52196Y94250D02*
X71750Y113804D01*
X30250Y94250D02*
X52196D01*
X71750Y113804D02*
Y159250D01*
X8000Y28000D02*
Y35250D01*
X7250Y36000D02*
X8000Y35250D01*
X7500Y138500D02*
X7750D01*
X7250Y138250D02*
X7500Y138500D01*
X7250Y128250D02*
Y138250D01*
X10447Y72250D02*
X30250D01*
X8197Y94250D02*
X30250D01*
X7697Y83250D02*
X30250D01*
X7197Y69000D02*
Y95250D01*
X30250Y72250D02*
Y83250D01*
Y94250D01*
X374750Y233000D02*
X383600Y241850D01*
X87750Y98499D02*
X89000D01*
X91750Y42250D02*
Y94499D01*
X87750Y98499D02*
X91750Y94499D01*
X102750Y94499D02*
X106750Y98499D01*
X102750Y42250D02*
Y94499D01*
D35*
X58434Y219307D02*
X58750Y219795D01*
X57750Y218250D02*
X58434Y219307D01*
X57750Y218795D02*
X58750Y219795D01*
X58415Y218654D02*
X60295Y219795D01*
X57750Y218250D02*
X58415Y218654D01*
X47750Y184250D02*
Y219750D01*
X47750Y190250D02*
X47750Y190250D01*
X58750Y219795D02*
X58750Y219795D01*
X60295D02*
X62750Y222250D01*
X36750Y219756D02*
X37750Y218756D01*
X57750Y180750D02*
Y218250D01*
D36*
X241800Y132450D02*
X254500Y119750D01*
Y76750D02*
Y119750D01*
X262500Y54000D02*
Y86500D01*
X151250Y114500D02*
X156750Y120000D01*
X151250Y95500D02*
Y114500D01*
Y95500D02*
X153750Y93000D01*
X157800Y97700D02*
X163000Y92500D01*
X157800Y97700D02*
Y107800D01*
X165020Y115020D01*
X153750Y89000D02*
Y93000D01*
Y85000D02*
Y89000D01*
X166500Y96778D02*
Y102750D01*
Y96778D02*
X168500Y94778D01*
Y82222D02*
Y94778D01*
X166500Y80222D02*
X168500Y82222D01*
X166500Y61000D02*
Y80222D01*
X163000Y84500D02*
Y92500D01*
X157800Y79300D02*
X163000Y84500D01*
X146750Y78000D02*
X153750Y85000D01*
X174250Y64000D02*
Y128250D01*
Y64000D02*
X179750Y58500D01*
X146750Y42250D02*
Y78000D01*
X227500Y30850D02*
X239350D01*
X262500Y54000D01*
X227500Y132450D02*
X241800D01*
X231750Y120000D02*
X239750D01*
X229750Y122000D02*
X231750Y120000D01*
X227500Y119750D02*
X229750Y122000D01*
X157500Y131750D02*
Y141000D01*
Y131750D02*
X165020Y124230D01*
Y115020D02*
Y124230D01*
X157800Y68950D02*
Y79300D01*
X157750Y68900D02*
X157800Y68950D01*
X157750Y42250D02*
Y68900D01*
X166500Y61000D02*
X168750Y58750D01*
Y42250D02*
Y58750D01*
X227500Y68950D02*
X241200D01*
X227500Y107050D02*
X243250D01*
X239650Y81650D02*
X239750Y81750D01*
X227500Y81650D02*
X239650D01*
X179750Y42250D02*
Y58500D01*
X214000Y9600D02*
X222100D01*
X227500Y15000D01*
Y30850D01*
D37*
X146750Y183000D02*
Y203250D01*
D38*
X69750Y24500D02*
Y42250D01*
X65750Y20500D02*
X69750Y24500D01*
X80750Y24500D02*
X84750Y20500D01*
X80750Y24500D02*
Y42250D01*
D39*
X366000Y265000D02*
D03*
Y227000D02*
D03*
D40*
X385000Y177450D02*
D03*
Y16050D02*
D03*
D41*
X327950Y291000D02*
D03*
X302550D02*
D03*
D42*
X106750Y98499D02*
D03*
X87750D02*
D03*
X84500Y21000D02*
D03*
X65500D02*
D03*
D43*
X366000Y149000D02*
D03*
Y123500D02*
D03*
Y98000D02*
D03*
Y73000D02*
D03*
X201900Y14000D02*
D03*
X176500D02*
D03*
D44*
X366000Y47500D02*
D03*
D45*
X338000Y178800D02*
D03*
Y38800D02*
D03*
D46*
X151100Y14000D02*
D03*
D47*
X243750Y192500D02*
D03*
X257500Y192750D02*
D03*
X265500Y177500D02*
D03*
X230750Y192750D02*
D03*
X224250Y181750D02*
D03*
X243250Y166000D02*
D03*
X298500Y162500D02*
D03*
X306750Y152500D02*
D03*
X291250Y192000D02*
D03*
X355000Y223500D02*
D03*
X355350Y191850D02*
D03*
X316000Y169750D02*
D03*
X327750Y248000D02*
D03*
X343000Y260000D02*
D03*
X349750Y279750D02*
D03*
X373750Y303250D02*
D03*
X312750Y213500D02*
D03*
X283023Y211250D02*
D03*
X373500Y259000D02*
D03*
X212500Y208750D02*
D03*
X191000Y190500D02*
D03*
X26811Y60000D02*
D03*
X51532Y21500D02*
D03*
X109219Y24446D02*
D03*
X116500Y110380D02*
D03*
X115930Y120976D02*
D03*
X115323Y74880D02*
D03*
X114175Y86880D02*
D03*
X75975Y91630D02*
D03*
X58899Y119630D02*
D03*
X55705Y133718D02*
D03*
X55000Y153513D02*
D03*
X10000Y200380D02*
D03*
Y180380D02*
D03*
X20000Y225000D02*
D03*
Y300380D02*
D03*
Y280380D02*
D03*
Y260380D02*
D03*
Y240380D02*
D03*
X75000Y225380D02*
D03*
X90000D02*
D03*
X146750Y225526D02*
D03*
X110000Y225380D02*
D03*
X180000D02*
D03*
X200000D02*
D03*
X220000D02*
D03*
X240000D02*
D03*
X260000D02*
D03*
X280000Y240380D02*
D03*
Y260380D02*
D03*
Y280380D02*
D03*
Y300380D02*
D03*
X390000Y300000D02*
D03*
Y190380D02*
D03*
Y230380D02*
D03*
Y270380D02*
D03*
X290000Y90000D02*
D03*
X228491Y149000D02*
D03*
X325021Y157605D02*
D03*
X360000Y30000D02*
D03*
X280000Y70000D02*
D03*
X330000D02*
D03*
X310000Y90000D02*
D03*
X290000Y110000D02*
D03*
X320000Y50000D02*
D03*
X300000Y70000D02*
D03*
X260000Y30000D02*
D03*
X280000Y50000D02*
D03*
X300000Y30000D02*
D03*
X240000Y10000D02*
D03*
X300000D02*
D03*
X320000D02*
D03*
X390000Y40000D02*
D03*
Y60000D02*
D03*
Y80000D02*
D03*
Y100000D02*
D03*
Y120000D02*
D03*
Y140000D02*
D03*
Y160000D02*
D03*
X340000Y140000D02*
D03*
Y120000D02*
D03*
X320000Y140000D02*
D03*
X254500Y76750D02*
D03*
X262500Y86500D02*
D03*
X254250Y101250D02*
D03*
X178750Y147750D02*
D03*
X162000Y150500D02*
D03*
X215794Y50000D02*
D03*
X8000Y28000D02*
D03*
X7750Y138500D02*
D03*
X7697Y83250D02*
D03*
X71750Y159250D02*
D03*
X158500Y166750D02*
D03*
X118250Y171750D02*
D03*
X99500Y159250D02*
D03*
X234000Y207500D02*
D03*
X153750Y89000D02*
D03*
X174250Y128250D02*
D03*
X166500Y102750D02*
D03*
X239750Y120000D02*
D03*
X157500Y141000D02*
D03*
X157800Y68950D02*
D03*
X241200D02*
D03*
X192500Y41500D02*
D03*
X239750Y81750D02*
D03*
X243250Y107050D02*
D03*
X156750Y120000D02*
D03*
X197500Y59750D02*
D03*
M02*
