%FSLAX44Y44*%
%MOMM*%
G71*
G01*
G75*
G04 Layer_Color=65535*
G04:AMPARAMS|DCode=10|XSize=0.7mm|YSize=2.5mm|CornerRadius=0.175mm|HoleSize=0mm|Usage=FLASHONLY|Rotation=0.000|XOffset=0mm|YOffset=0mm|HoleType=Round|Shape=RoundedRectangle|*
%AMROUNDEDRECTD10*
21,1,0.7000,2.1500,0,0,0.0*
21,1,0.3500,2.5000,0,0,0.0*
1,1,0.3500,0.1750,-1.0750*
1,1,0.3500,-0.1750,-1.0750*
1,1,0.3500,-0.1750,1.0750*
1,1,0.3500,0.1750,1.0750*
%
%ADD10ROUNDEDRECTD10*%
G04:AMPARAMS|DCode=11|XSize=0.67mm|YSize=0.67mm|CornerRadius=0.1508mm|HoleSize=0mm|Usage=FLASHONLY|Rotation=90.000|XOffset=0mm|YOffset=0mm|HoleType=Round|Shape=RoundedRectangle|*
%AMROUNDEDRECTD11*
21,1,0.6700,0.3685,0,0,90.0*
21,1,0.3685,0.6700,0,0,90.0*
1,1,0.3015,0.1843,0.1843*
1,1,0.3015,0.1843,-0.1843*
1,1,0.3015,-0.1843,-0.1843*
1,1,0.3015,-0.1843,0.1843*
%
%ADD11ROUNDEDRECTD11*%
G04:AMPARAMS|DCode=12|XSize=0.67mm|YSize=0.67mm|CornerRadius=0.1508mm|HoleSize=0mm|Usage=FLASHONLY|Rotation=180.000|XOffset=0mm|YOffset=0mm|HoleType=Round|Shape=RoundedRectangle|*
%AMROUNDEDRECTD12*
21,1,0.6700,0.3685,0,0,180.0*
21,1,0.3685,0.6700,0,0,180.0*
1,1,0.3015,-0.1843,0.1843*
1,1,0.3015,0.1843,0.1843*
1,1,0.3015,0.1843,-0.1843*
1,1,0.3015,-0.1843,-0.1843*
%
%ADD12ROUNDEDRECTD12*%
G04:AMPARAMS|DCode=13|XSize=0.62mm|YSize=0.62mm|CornerRadius=0.1488mm|HoleSize=0mm|Usage=FLASHONLY|Rotation=270.000|XOffset=0mm|YOffset=0mm|HoleType=Round|Shape=RoundedRectangle|*
%AMROUNDEDRECTD13*
21,1,0.6200,0.3224,0,0,270.0*
21,1,0.3224,0.6200,0,0,270.0*
1,1,0.2976,-0.1612,-0.1612*
1,1,0.2976,-0.1612,0.1612*
1,1,0.2976,0.1612,0.1612*
1,1,0.2976,0.1612,-0.1612*
%
%ADD13ROUNDEDRECTD13*%
%ADD14R,1.4000X0.4000*%
%ADD15R,1.9000X1.8000*%
G04:AMPARAMS|DCode=16|XSize=2.35mm|YSize=1.15mm|CornerRadius=0.3852mm|HoleSize=0mm|Usage=FLASHONLY|Rotation=180.000|XOffset=0mm|YOffset=0mm|HoleType=Round|Shape=RoundedRectangle|*
%AMROUNDEDRECTD16*
21,1,2.3500,0.3795,0,0,180.0*
21,1,1.5795,1.1500,0,0,180.0*
1,1,0.7705,-0.7897,0.1898*
1,1,0.7705,0.7897,0.1898*
1,1,0.7705,0.7897,-0.1898*
1,1,0.7705,-0.7897,-0.1898*
%
%ADD16ROUNDEDRECTD16*%
G04:AMPARAMS|DCode=17|XSize=1.3mm|YSize=1mm|CornerRadius=0.25mm|HoleSize=0mm|Usage=FLASHONLY|Rotation=180.000|XOffset=0mm|YOffset=0mm|HoleType=Round|Shape=RoundedRectangle|*
%AMROUNDEDRECTD17*
21,1,1.3000,0.5000,0,0,180.0*
21,1,0.8000,1.0000,0,0,180.0*
1,1,0.5000,-0.4000,0.2500*
1,1,0.5000,0.4000,0.2500*
1,1,0.5000,0.4000,-0.2500*
1,1,0.5000,-0.4000,-0.2500*
%
%ADD17ROUNDEDRECTD17*%
G04:AMPARAMS|DCode=18|XSize=2.5mm|YSize=1.15mm|CornerRadius=0.3852mm|HoleSize=0mm|Usage=FLASHONLY|Rotation=180.000|XOffset=0mm|YOffset=0mm|HoleType=Round|Shape=RoundedRectangle|*
%AMROUNDEDRECTD18*
21,1,2.5000,0.3795,0,0,180.0*
21,1,1.7295,1.1500,0,0,180.0*
1,1,0.7705,-0.8648,0.1898*
1,1,0.7705,0.8648,0.1898*
1,1,0.7705,0.8648,-0.1898*
1,1,0.7705,-0.8648,-0.1898*
%
%ADD18ROUNDEDRECTD18*%
G04:AMPARAMS|DCode=19|XSize=1.1mm|YSize=0.6mm|CornerRadius=0.201mm|HoleSize=0mm|Usage=FLASHONLY|Rotation=270.000|XOffset=0mm|YOffset=0mm|HoleType=Round|Shape=RoundedRectangle|*
%AMROUNDEDRECTD19*
21,1,1.1000,0.1980,0,0,270.0*
21,1,0.6980,0.6000,0,0,270.0*
1,1,0.4020,-0.0990,-0.3490*
1,1,0.4020,-0.0990,0.3490*
1,1,0.4020,0.0990,0.3490*
1,1,0.4020,0.0990,-0.3490*
%
%ADD19ROUNDEDRECTD19*%
G04:AMPARAMS|DCode=20|XSize=0.62mm|YSize=0.62mm|CornerRadius=0.1488mm|HoleSize=0mm|Usage=FLASHONLY|Rotation=180.000|XOffset=0mm|YOffset=0mm|HoleType=Round|Shape=RoundedRectangle|*
%AMROUNDEDRECTD20*
21,1,0.6200,0.3224,0,0,180.0*
21,1,0.3224,0.6200,0,0,180.0*
1,1,0.2976,-0.1612,0.1612*
1,1,0.2976,0.1612,0.1612*
1,1,0.2976,0.1612,-0.1612*
1,1,0.2976,-0.1612,-0.1612*
%
%ADD20ROUNDEDRECTD20*%
G04:AMPARAMS|DCode=21|XSize=1mm|YSize=2mm|CornerRadius=0.25mm|HoleSize=0mm|Usage=FLASHONLY|Rotation=0.000|XOffset=0mm|YOffset=0mm|HoleType=Round|Shape=RoundedRectangle|*
%AMROUNDEDRECTD21*
21,1,1.0000,1.5000,0,0,0.0*
21,1,0.5000,2.0000,0,0,0.0*
1,1,0.5000,0.2500,-0.7500*
1,1,0.5000,-0.2500,-0.7500*
1,1,0.5000,-0.2500,0.7500*
1,1,0.5000,0.2500,0.7500*
%
%ADD21ROUNDEDRECTD21*%
G04:AMPARAMS|DCode=22|XSize=0.7mm|YSize=1mm|CornerRadius=0.175mm|HoleSize=0mm|Usage=FLASHONLY|Rotation=180.000|XOffset=0mm|YOffset=0mm|HoleType=Round|Shape=RoundedRectangle|*
%AMROUNDEDRECTD22*
21,1,0.7000,0.6500,0,0,180.0*
21,1,0.3500,1.0000,0,0,180.0*
1,1,0.3500,-0.1750,0.3250*
1,1,0.3500,0.1750,0.3250*
1,1,0.3500,0.1750,-0.3250*
1,1,0.3500,-0.1750,-0.3250*
%
%ADD22ROUNDEDRECTD22*%
G04:AMPARAMS|DCode=23|XSize=0.8mm|YSize=1mm|CornerRadius=0.2mm|HoleSize=0mm|Usage=FLASHONLY|Rotation=180.000|XOffset=0mm|YOffset=0mm|HoleType=Round|Shape=RoundedRectangle|*
%AMROUNDEDRECTD23*
21,1,0.8000,0.6000,0,0,180.0*
21,1,0.4000,1.0000,0,0,180.0*
1,1,0.4000,-0.2000,0.3000*
1,1,0.4000,0.2000,0.3000*
1,1,0.4000,0.2000,-0.3000*
1,1,0.4000,-0.2000,-0.3000*
%
%ADD23ROUNDEDRECTD23*%
%ADD24O,0.7000X2.5000*%
%ADD25O,2.5000X0.7000*%
G04:AMPARAMS|DCode=26|XSize=1.2mm|YSize=1.2mm|CornerRadius=0.198mm|HoleSize=0mm|Usage=FLASHONLY|Rotation=180.000|XOffset=0mm|YOffset=0mm|HoleType=Round|Shape=RoundedRectangle|*
%AMROUNDEDRECTD26*
21,1,1.2000,0.8040,0,0,180.0*
21,1,0.8040,1.2000,0,0,180.0*
1,1,0.3960,-0.4020,0.4020*
1,1,0.3960,0.4020,0.4020*
1,1,0.3960,0.4020,-0.4020*
1,1,0.3960,-0.4020,-0.4020*
%
%ADD26ROUNDEDRECTD26*%
G04:AMPARAMS|DCode=27|XSize=1.6mm|YSize=2mm|CornerRadius=0.248mm|HoleSize=0mm|Usage=FLASHONLY|Rotation=90.000|XOffset=0mm|YOffset=0mm|HoleType=Round|Shape=RoundedRectangle|*
%AMROUNDEDRECTD27*
21,1,1.6000,1.5040,0,0,90.0*
21,1,1.1040,2.0000,0,0,90.0*
1,1,0.4960,0.7520,0.5520*
1,1,0.4960,0.7520,-0.5520*
1,1,0.4960,-0.7520,-0.5520*
1,1,0.4960,-0.7520,0.5520*
%
%ADD27ROUNDEDRECTD27*%
%ADD28O,0.3000X0.9000*%
%ADD29O,0.9000X0.3000*%
%ADD30R,2.4000X2.4000*%
%ADD31C,0.5000*%
%ADD32C,0.3000*%
%ADD33C,0.2000*%
%ADD34C,0.4000*%
%ADD35C,0.7000*%
%ADD36C,0.3500*%
%ADD37C,0.6000*%
%ADD38C,0.2500*%
%ADD39C,0.7000*%
G04:AMPARAMS|DCode=40|XSize=1.15mm|YSize=2.1mm|CornerRadius=0.2875mm|HoleSize=0mm|Usage=FLASHONLY|Rotation=90.000|XOffset=0mm|YOffset=0mm|HoleType=Round|Shape=RoundedRectangle|*
%AMROUNDEDRECTD40*
21,1,1.1500,1.5250,0,0,90.0*
21,1,0.5750,2.1000,0,0,90.0*
1,1,0.5750,0.7625,0.2875*
1,1,0.5750,0.7625,-0.2875*
1,1,0.5750,-0.7625,-0.2875*
1,1,0.5750,-0.7625,0.2875*
%
%ADD40ROUNDEDRECTD40*%
%ADD41C,1.8500*%
%ADD42C,0.9000*%
%ADD43C,1.3000*%
%ADD44R,1.3000X1.3000*%
G04:AMPARAMS|DCode=45|XSize=0.7mm|YSize=0.7mm|CornerRadius=0.175mm|HoleSize=0mm|Usage=FLASHONLY|Rotation=270.000|XOffset=0mm|YOffset=0mm|HoleType=Round|Shape=RoundedRectangle|*
%AMROUNDEDRECTD45*
21,1,0.7000,0.3500,0,0,270.0*
21,1,0.3500,0.7000,0,0,270.0*
1,1,0.3500,-0.1750,-0.1750*
1,1,0.3500,-0.1750,0.1750*
1,1,0.3500,0.1750,0.1750*
1,1,0.3500,0.1750,-0.1750*
%
%ADD45ROUNDEDRECTD45*%
G04:AMPARAMS|DCode=46|XSize=1.3mm|YSize=1.3mm|CornerRadius=0.1625mm|HoleSize=0mm|Usage=FLASHONLY|Rotation=180.000|XOffset=0mm|YOffset=0mm|HoleType=Round|Shape=RoundedRectangle|*
%AMROUNDEDRECTD46*
21,1,1.3000,0.9750,0,0,180.0*
21,1,0.9750,1.3000,0,0,180.0*
1,1,0.3250,-0.4875,0.4875*
1,1,0.3250,0.4875,0.4875*
1,1,0.3250,0.4875,-0.4875*
1,1,0.3250,-0.4875,-0.4875*
%
%ADD46ROUNDEDRECTD46*%
%ADD47C,0.8000*%
G04:AMPARAMS|DCode=48|XSize=1mm|YSize=1.2mm|CornerRadius=0.165mm|HoleSize=0mm|Usage=FLASHONLY|Rotation=180.000|XOffset=0mm|YOffset=0mm|HoleType=Round|Shape=RoundedRectangle|*
%AMROUNDEDRECTD48*
21,1,1.0000,0.8700,0,0,180.0*
21,1,0.6700,1.2000,0,0,180.0*
1,1,0.3300,-0.3350,0.4350*
1,1,0.3300,0.3350,0.4350*
1,1,0.3300,0.3350,-0.4350*
1,1,0.3300,-0.3350,-0.4350*
%
%ADD48ROUNDEDRECTD48*%
G04:AMPARAMS|DCode=49|XSize=1.6mm|YSize=1.3mm|CornerRadius=0.2015mm|HoleSize=0mm|Usage=FLASHONLY|Rotation=180.000|XOffset=0mm|YOffset=0mm|HoleType=Round|Shape=RoundedRectangle|*
%AMROUNDEDRECTD49*
21,1,1.6000,0.8970,0,0,180.0*
21,1,1.1970,1.3000,0,0,180.0*
1,1,0.4030,-0.5985,0.4485*
1,1,0.4030,0.5985,0.4485*
1,1,0.4030,0.5985,-0.4485*
1,1,0.4030,-0.5985,-0.4485*
%
%ADD49ROUNDEDRECTD49*%
G04:AMPARAMS|DCode=50|XSize=3mm|YSize=2mm|CornerRadius=0.67mm|HoleSize=0mm|Usage=FLASHONLY|Rotation=180.000|XOffset=0mm|YOffset=0mm|HoleType=Round|Shape=RoundedRectangle|*
%AMROUNDEDRECTD50*
21,1,3.0000,0.6600,0,0,180.0*
21,1,1.6600,2.0000,0,0,180.0*
1,1,1.3400,-0.8300,0.3300*
1,1,1.3400,0.8300,0.3300*
1,1,1.3400,0.8300,-0.3300*
1,1,1.3400,-0.8300,-0.3300*
%
%ADD50ROUNDEDRECTD50*%
G04:AMPARAMS|DCode=51|XSize=2.3mm|YSize=0.9mm|CornerRadius=0.225mm|HoleSize=0mm|Usage=FLASHONLY|Rotation=180.000|XOffset=0mm|YOffset=0mm|HoleType=Round|Shape=RoundedRectangle|*
%AMROUNDEDRECTD51*
21,1,2.3000,0.4500,0,0,180.0*
21,1,1.8500,0.9000,0,0,180.0*
1,1,0.4500,-0.9250,0.2250*
1,1,0.4500,0.9250,0.2250*
1,1,0.4500,0.9250,-0.2250*
1,1,0.4500,-0.9250,-0.2250*
%
%ADD51ROUNDEDRECTD51*%
G04:AMPARAMS|DCode=52|XSize=2.7mm|YSize=1.2mm|CornerRadius=0.21mm|HoleSize=0mm|Usage=FLASHONLY|Rotation=270.000|XOffset=0mm|YOffset=0mm|HoleType=Round|Shape=RoundedRectangle|*
%AMROUNDEDRECTD52*
21,1,2.7000,0.7800,0,0,270.0*
21,1,2.2800,1.2000,0,0,270.0*
1,1,0.4200,-0.3900,-1.1400*
1,1,0.4200,-0.3900,1.1400*
1,1,0.4200,0.3900,1.1400*
1,1,0.4200,0.3900,-1.1400*
%
%ADD52ROUNDEDRECTD52*%
%ADD53C,0.2540*%
%ADD54C,0.1000*%
G36*
X18389Y31284D02*
X18743Y30428D01*
X18389Y29572D01*
X17533Y29218D01*
X16677Y29572D01*
X16323Y30428D01*
X16677Y31284D01*
X17533Y31638D01*
X18389Y31284D01*
D02*
G37*
G36*
X289398Y230148D02*
X289874Y229000D01*
X289398Y227852D01*
X288250Y227376D01*
X287102Y227852D01*
X286626Y229000D01*
X287102Y230148D01*
X288250Y230624D01*
X289398Y230148D01*
D02*
G37*
G36*
X344648Y281148D02*
X345124Y280000D01*
X344648Y278852D01*
X343500Y278376D01*
X342352Y278852D01*
X341876Y280000D01*
X342352Y281148D01*
X343500Y281624D01*
X344648Y281148D01*
D02*
G37*
D33*
X313001Y257503D02*
X342999D01*
Y264497D01*
X313001D02*
X342999D01*
X313001Y257503D02*
Y264497D01*
X289750Y278500D02*
X340750D01*
X289750D02*
Y303500D01*
X340750D01*
Y278500D02*
Y303500D01*
X25250Y37250D02*
X202250D01*
Y195250D01*
X25250D02*
X202250D01*
X25250Y37250D02*
Y195250D01*
X138500Y1500D02*
X214500D01*
X138500D02*
Y26500D01*
X214500D01*
Y1500D02*
Y26500D01*
X215000Y187250D02*
X232001D01*
X215000Y227250D02*
X232001D01*
X256003Y187248D02*
Y227253D01*
X190900Y187450D02*
Y227455D01*
X332750Y230000D02*
Y233500D01*
X329250D02*
X332750D01*
X292750Y193500D02*
Y197000D01*
Y193500D02*
X296250D01*
X329250D02*
X332750D01*
Y197000D01*
X296750Y233000D02*
X298250D01*
X293250Y229500D02*
X296750Y233000D01*
X293250Y228000D02*
Y229500D01*
D38*
X356031Y223500D02*
G03*
X356031Y223500I-1031J0D01*
G01*
D53*
X401000Y196000D02*
Y296000D01*
D54*
X396500Y7750D02*
Y185750D01*
X220500Y7750D02*
X396500D01*
X220500D02*
Y185750D01*
X396500D01*
X291209Y306237D02*
X293875D01*
X295208Y304904D01*
X293875Y303571D01*
X291209D01*
X293208D01*
Y306237D01*
X294541Y302238D02*
X295208Y301572D01*
Y300239D01*
X294541Y299573D01*
X293875D01*
X293208Y300239D01*
Y300905D01*
Y300239D01*
X292542Y299573D01*
X291875D01*
X291209Y300239D01*
Y301572D01*
X291875Y302238D01*
X267097Y187737D02*
X263098D01*
Y189736D01*
X263765Y190403D01*
X265098D01*
X265764Y189736D01*
Y187737D01*
Y189070D02*
X267097Y190403D01*
X263765Y191736D02*
X263098Y192402D01*
Y193735D01*
X263765Y194401D01*
X264431D01*
X265098Y193735D01*
X265764Y194401D01*
X266431D01*
X267097Y193735D01*
Y192402D01*
X266431Y191736D01*
X265764D01*
X265098Y192402D01*
X264431Y191736D01*
X263765D01*
X265098Y192402D02*
Y193735D01*
X282263Y180297D02*
Y176298D01*
X280264D01*
X279597Y176965D01*
Y178298D01*
X280264Y178964D01*
X282263D01*
X280930D02*
X279597Y180297D01*
X278264Y176298D02*
X275599D01*
Y176965D01*
X278264Y179631D01*
Y180297D01*
X282263Y190097D02*
Y186098D01*
X280264D01*
X279597Y186765D01*
Y188098D01*
X280264Y188764D01*
X282263D01*
X280930D02*
X279597Y190097D01*
X275599Y186098D02*
X276931Y186765D01*
X278264Y188098D01*
Y189431D01*
X277598Y190097D01*
X276265D01*
X275599Y189431D01*
Y188764D01*
X276265Y188098D01*
X278264D01*
X257297Y187737D02*
X253298D01*
Y189736D01*
X253965Y190403D01*
X255298D01*
X255964Y189736D01*
Y187737D01*
Y189070D02*
X257297Y190403D01*
X253298Y194401D02*
Y191736D01*
X255298D01*
X254631Y193069D01*
Y193735D01*
X255298Y194401D01*
X256631D01*
X257297Y193735D01*
Y192402D01*
X256631Y191736D01*
X279763Y199947D02*
Y195948D01*
X277764D01*
X277097Y196615D01*
Y197948D01*
X277764Y198614D01*
X279763D01*
X278430D02*
X277097Y199947D01*
X273765D02*
Y195948D01*
X275764Y197948D01*
X273099D01*
X302953Y268813D02*
X306952D01*
Y266814D01*
X306285Y266147D01*
X304952D01*
X304286Y266814D01*
Y268813D01*
Y267480D02*
X302953Y266147D01*
X306285Y264814D02*
X306952Y264148D01*
Y262815D01*
X306285Y262148D01*
X305619D01*
X304952Y262815D01*
Y263481D01*
Y262815D01*
X304286Y262148D01*
X303619D01*
X302953Y262815D01*
Y264148D01*
X303619Y264814D01*
X312703Y268813D02*
X316702D01*
Y266814D01*
X316035Y266147D01*
X314702D01*
X314036Y266814D01*
Y268813D01*
Y267480D02*
X312703Y266147D01*
Y262148D02*
Y264814D01*
X315369Y262148D01*
X316035D01*
X316702Y262815D01*
Y264148D01*
X316035Y264814D01*
X343157Y224631D02*
X342490Y225298D01*
X341157D01*
X340491Y224631D01*
Y221965D01*
X341157Y221299D01*
X342490D01*
X343157Y221965D01*
X347155Y221299D02*
X344490D01*
X347155Y223965D01*
Y224631D01*
X346489Y225298D01*
X345156D01*
X344490Y224631D01*
X348488Y225298D02*
X351154D01*
Y224631D01*
X348488Y221965D01*
Y221299D01*
X302743Y231419D02*
X303410Y230752D01*
X304743D01*
X305409Y231419D01*
Y234084D01*
X304743Y234751D01*
X303410D01*
X302743Y234084D01*
X298745Y234751D02*
X301410D01*
X298745Y232085D01*
Y231419D01*
X299411Y230752D01*
X300744D01*
X301410Y231419D01*
X294746Y230752D02*
X296079Y231419D01*
X297412Y232752D01*
Y234084D01*
X296745Y234751D01*
X295412D01*
X294746Y234084D01*
Y233418D01*
X295412Y232752D01*
X297412D01*
X127019Y-9281D02*
X128352D01*
X127685D01*
Y-5282D01*
X127019Y-5949D01*
X130351D02*
X131018Y-5282D01*
X132351D01*
X133017Y-5949D01*
Y-8615D01*
X132351Y-9281D01*
X131018D01*
X130351Y-8615D01*
Y-5949D01*
X134350Y-6615D02*
Y-8615D01*
X135016Y-9281D01*
X137016D01*
Y-6615D01*
X141014Y-5282D02*
X138349D01*
Y-7282D01*
X139682D01*
X138349D01*
Y-9281D01*
X129685Y41549D02*
X129018Y42216D01*
X127685D01*
X127019Y41549D01*
Y38883D01*
X127685Y38217D01*
X129018D01*
X129685Y38883D01*
X131018Y38217D02*
X132351D01*
X131684D01*
Y42216D01*
X131018Y41549D01*
X345034Y269750D02*
X346367D01*
X345701D01*
Y273748D01*
X345034Y273082D01*
X348367Y272416D02*
Y270416D01*
X349033Y269750D01*
X351032D01*
Y272416D01*
X355031Y273748D02*
X352365D01*
Y271749D01*
X353698D01*
X352365D01*
Y269750D01*
X345685Y318799D02*
X345018Y319466D01*
X343685D01*
X343019Y318799D01*
Y316133D01*
X343685Y315467D01*
X345018D01*
X345685Y316133D01*
X349683Y315467D02*
X347018D01*
X349683Y318133D01*
Y318799D01*
X349017Y319466D01*
X347684D01*
X347018Y318799D01*
X357938Y269750D02*
X359270D01*
X358604D01*
Y273748D01*
X357938Y273082D01*
X361270Y272416D02*
Y270416D01*
X361936Y269750D01*
X363936D01*
Y272416D01*
X367934Y273748D02*
X365268D01*
Y271749D01*
X366601D01*
X365268D01*
Y269750D01*
X361416Y295082D02*
X360749Y295749D01*
X359417D01*
X358750Y295082D01*
Y292416D01*
X359417Y291750D01*
X360749D01*
X361416Y292416D01*
X362749Y295082D02*
X363415Y295749D01*
X364748D01*
X365415Y295082D01*
Y294416D01*
X364748Y293749D01*
X364082D01*
X364748D01*
X365415Y293083D01*
Y292416D01*
X364748Y291750D01*
X363415D01*
X362749Y292416D01*
X5168Y15500D02*
X4501Y16166D01*
Y17499D01*
X5168Y18166D01*
X5834D01*
X6501Y17499D01*
Y16833D01*
Y17499D01*
X7167Y18166D01*
X7834D01*
X8500Y17499D01*
Y16166D01*
X7834Y15500D01*
X5168Y19499D02*
X4501Y20165D01*
Y21498D01*
X5168Y22164D01*
X5834D01*
X6501Y21498D01*
Y20832D01*
Y21498D01*
X7167Y22164D01*
X7834D01*
X8500Y21498D01*
Y20165D01*
X7834Y19499D01*
X9833Y23497D02*
X5834D01*
Y25497D01*
X6501Y26163D01*
X7834D01*
X8500Y25497D01*
Y23497D01*
X4501Y30162D02*
Y27496D01*
X6501D01*
Y28829D01*
Y27496D01*
X8500D01*
X5168Y5666D02*
X4501Y4999D01*
Y3666D01*
X5168Y3000D01*
X7834D01*
X8500Y3666D01*
Y4999D01*
X7834Y5666D01*
X5168Y6999D02*
X4501Y7665D01*
Y8998D01*
X5168Y9664D01*
X5834D01*
X6501Y8998D01*
X7167Y9664D01*
X7834D01*
X8500Y8998D01*
Y7665D01*
X7834Y6999D01*
X7167D01*
X6501Y7665D01*
X5834Y6999D01*
X5168D01*
X6501Y7665D02*
Y8998D01*
X291416Y255332D02*
X290749Y255999D01*
X289416D01*
X288750Y255332D01*
Y252666D01*
X289416Y252000D01*
X290749D01*
X291416Y252666D01*
X294748Y255999D02*
X293415D01*
X292749Y255332D01*
Y252666D01*
X293415Y252000D01*
X294748D01*
X295415Y252666D01*
Y255332D01*
X294748Y255999D01*
X296747Y252000D02*
Y255999D01*
X299413Y252000D01*
Y255999D01*
X300746Y251334D02*
X303412D01*
X307411Y252000D02*
X304745D01*
X307411Y254666D01*
Y255332D01*
X306744Y255999D01*
X305411D01*
X304745Y255332D01*
X308743Y252000D02*
Y255999D01*
X310743D01*
X311409Y255332D01*
Y253999D01*
X310743Y253333D01*
X308743D01*
X312742Y255999D02*
X314075D01*
X313409D01*
Y252000D01*
X312742D01*
X314075D01*
X316074D02*
Y255999D01*
X318740Y252000D01*
Y255999D01*
X322739Y255332D02*
X322072Y255999D01*
X320740D01*
X320073Y255332D01*
Y254666D01*
X320740Y253999D01*
X322072D01*
X322739Y253333D01*
Y252666D01*
X322072Y252000D01*
X320740D01*
X320073Y252666D01*
X290916Y262999D02*
X289583D01*
X290249D01*
Y259667D01*
X289583Y259000D01*
X288916D01*
X288250Y259667D01*
X294914Y262999D02*
X292249D01*
Y260999D01*
X293582Y261666D01*
X294248D01*
X294914Y260999D01*
Y259667D01*
X294248Y259000D01*
X292915D01*
X292249Y259667D01*
X294000Y280000D02*
X297999D01*
X296666Y278667D01*
X297999Y277334D01*
X294000D01*
X297332Y273335D02*
X297999Y274002D01*
Y275335D01*
X297332Y276001D01*
X294666D01*
X294000Y275335D01*
Y274002D01*
X294666Y273335D01*
X294000Y272003D02*
X297999D01*
Y270003D01*
X297332Y269337D01*
X295999D01*
X295333Y270003D01*
Y272003D01*
X297999Y268004D02*
Y265338D01*
X297332D01*
X294666Y268004D01*
X294000D01*
X297332Y264005D02*
X297999Y263339D01*
Y262006D01*
X297332Y261339D01*
X296666D01*
X295999Y262006D01*
Y262672D01*
Y262006D01*
X295333Y261339D01*
X294666D01*
X294000Y262006D01*
Y263339D01*
X294666Y264005D01*
X297332Y260007D02*
X297999Y259340D01*
Y258007D01*
X297332Y257341D01*
X296666D01*
X295999Y258007D01*
X295333Y257341D01*
X294666D01*
X294000Y258007D01*
Y259340D01*
X294666Y260007D01*
X295333D01*
X295999Y259340D01*
X296666Y260007D01*
X297332D01*
X295999Y259340D02*
Y258007D01*
X294000Y256008D02*
Y254675D01*
Y255341D01*
X297999D01*
X297332Y256008D01*
X294000Y252676D02*
Y251343D01*
Y252009D01*
X297999D01*
X297332Y252676D01*
X294000Y243345D02*
X297999D01*
X295999Y245345D01*
Y242679D01*
X297999Y238680D02*
Y241346D01*
X295999D01*
X296666Y240013D01*
Y239347D01*
X295999Y238680D01*
X294666D01*
X294000Y239347D01*
Y240679D01*
X294666Y241346D01*
X297332Y237347D02*
X297999Y236681D01*
Y235348D01*
X297332Y234681D01*
X294666D01*
X294000Y235348D01*
Y236681D01*
X294666Y237347D01*
X297332D01*
X294000Y233349D02*
X296666D01*
Y232682D01*
X295999Y232016D01*
X294000D01*
X295999D01*
X296666Y231349D01*
X295999Y230683D01*
X294000D01*
Y229350D02*
X296666D01*
X297999Y228017D01*
X296666Y226684D01*
X294000D01*
X295999D01*
Y229350D01*
X305699Y264067D02*
X302367D01*
X301700Y263400D01*
Y262067D01*
X302367Y261401D01*
X305699D01*
X301700Y258068D02*
X305699D01*
X303699Y260068D01*
Y257402D01*
X269666Y31082D02*
X268999Y31749D01*
X267666D01*
X267000Y31082D01*
Y28416D01*
X267666Y27750D01*
X268999D01*
X269666Y28416D01*
X272998Y31749D02*
X271665D01*
X270999Y31082D01*
Y28416D01*
X271665Y27750D01*
X272998D01*
X273664Y28416D01*
Y31082D01*
X272998Y31749D01*
X274997Y27750D02*
Y31749D01*
X277663Y27750D01*
Y31749D01*
X278996Y27083D02*
X281662D01*
X282995Y27750D02*
X284328D01*
X283661D01*
Y31749D01*
X282995Y31082D01*
X286327D02*
X286994Y31749D01*
X288326D01*
X288993Y31082D01*
Y30416D01*
X288326Y29749D01*
X287660D01*
X288326D01*
X288993Y29083D01*
Y28416D01*
X288326Y27750D01*
X286994D01*
X286327Y28416D01*
X290326Y27750D02*
Y31749D01*
X292325D01*
X292992Y31082D01*
Y29749D01*
X292325Y29083D01*
X290326D01*
X294324Y31749D02*
X295657D01*
X294991D01*
Y27750D01*
X294324D01*
X295657D01*
X297657D02*
Y31749D01*
X300322Y27750D01*
Y31749D01*
X304321Y31082D02*
X303655Y31749D01*
X302322D01*
X301655Y31082D01*
Y30416D01*
X302322Y29749D01*
X303655D01*
X304321Y29083D01*
Y28416D01*
X303655Y27750D01*
X302322D01*
X301655Y28416D01*
X258666Y31749D02*
X257333D01*
X257999D01*
Y28416D01*
X257333Y27750D01*
X256666D01*
X256000Y28416D01*
X259999Y31082D02*
X260665Y31749D01*
X261998D01*
X262665Y31082D01*
Y30416D01*
X261998Y29749D01*
X262665Y29083D01*
Y28416D01*
X261998Y27750D01*
X260665D01*
X259999Y28416D01*
Y29083D01*
X260665Y29749D01*
X259999Y30416D01*
Y31082D01*
X260665Y29749D02*
X261998D01*
X375700Y211700D02*
X373034D01*
X371701Y213033D01*
X373034Y214366D01*
X375700D01*
X373701D01*
Y211700D01*
X371701Y215699D02*
Y218365D01*
Y217032D01*
X375700D01*
X371701Y219697D02*
Y222363D01*
Y221030D01*
X375700D01*
X371701Y226362D02*
Y223696D01*
X375700D01*
Y226362D01*
X373701Y223696D02*
Y225029D01*
X375700Y227695D02*
X371701D01*
X375700Y230361D01*
X371701D01*
Y231693D02*
X375700D01*
Y233693D01*
X375033Y234359D01*
X372368D01*
X371701Y233693D01*
Y231693D01*
X375700Y242357D02*
Y239691D01*
X373034Y242357D01*
X372368D01*
X371701Y241690D01*
Y240357D01*
X372368Y239691D01*
Y243690D02*
X371701Y244356D01*
Y245689D01*
X372368Y246355D01*
X375033D01*
X375700Y245689D01*
Y244356D01*
X375033Y243690D01*
X372368D01*
X371701Y247688D02*
Y250354D01*
X372368D01*
X375033Y247688D01*
X375700D01*
Y251687D02*
X373034D01*
X371701Y253020D01*
X373034Y254353D01*
X375700D01*
X373701D01*
Y251687D01*
Y255686D02*
Y258351D01*
X371701Y259684D02*
X375700D01*
Y261684D01*
X375033Y262350D01*
X374367D01*
X373701Y261684D01*
Y259684D01*
Y261684D01*
X373034Y262350D01*
X372368D01*
X371701Y261684D01*
Y259684D01*
Y263683D02*
X375700D01*
Y265682D01*
X375033Y266349D01*
X374367D01*
X373701Y265682D01*
Y263683D01*
Y265682D01*
X373034Y266349D01*
X372368D01*
X371701Y265682D01*
Y263683D01*
X375700Y267682D02*
X373034D01*
X371701Y269015D01*
X373034Y270347D01*
X375700D01*
X373701D01*
Y267682D01*
X372368Y271680D02*
X371701Y272347D01*
Y273680D01*
X372368Y274346D01*
X375033D01*
X375700Y273680D01*
Y272347D01*
X375033Y271680D01*
X372368D01*
X373701Y275679D02*
Y278345D01*
X375700Y279678D02*
X371701D01*
Y281677D01*
X372368Y282344D01*
X373701D01*
X374367Y281677D01*
Y279678D01*
Y281011D02*
X375700Y282344D01*
X379601Y245439D02*
Y244106D01*
Y244772D01*
X382934D01*
X383600Y244106D01*
Y243439D01*
X382934Y242773D01*
X383600Y246772D02*
Y248104D01*
Y247438D01*
X379601D01*
X380268Y246772D01*
X225303Y22763D02*
X229302D01*
Y20764D01*
X228635Y20097D01*
X227302D01*
X226636Y20764D01*
Y22763D01*
Y21430D02*
X225303Y20097D01*
Y18764D02*
Y17431D01*
Y18098D01*
X229302D01*
X228635Y18764D01*
Y15432D02*
X229302Y14766D01*
Y13433D01*
X228635Y12766D01*
X227969D01*
X227302Y13433D01*
Y14099D01*
Y13433D01*
X226636Y12766D01*
X225969D01*
X225303Y13433D01*
Y14766D01*
X225969Y15432D01*
X27811Y239395D02*
Y242061D01*
X29144Y243394D01*
X30477Y242061D01*
Y239395D01*
Y241394D01*
X27811D01*
X33809Y239395D02*
Y243394D01*
X31810Y241394D01*
X34476D01*
X21578Y70343D02*
X22245Y71010D01*
Y72343D01*
X21578Y73009D01*
X18912D01*
X18246Y72343D01*
Y71010D01*
X18912Y70343D01*
X18246Y66344D02*
Y69010D01*
X20912Y66344D01*
X21578D01*
X22245Y67011D01*
Y68344D01*
X21578Y69010D01*
Y65012D02*
X22245Y64345D01*
Y63012D01*
X21578Y62346D01*
X20912D01*
X20245Y63012D01*
Y63679D01*
Y63012D01*
X19579Y62346D01*
X18912D01*
X18246Y63012D01*
Y64345D01*
X18912Y65012D01*
X21631Y129593D02*
X22298Y130260D01*
Y131593D01*
X21631Y132259D01*
X18965D01*
X18299Y131593D01*
Y130260D01*
X18965Y129593D01*
X18299Y125595D02*
Y128260D01*
X20965Y125595D01*
X21631D01*
X22298Y126261D01*
Y127594D01*
X21631Y128260D01*
X18299Y122262D02*
X22298D01*
X20298Y124262D01*
Y121596D01*
X-7184Y93907D02*
X-7851Y93240D01*
Y91907D01*
X-7184Y91241D01*
X-4518D01*
X-3852Y91907D01*
Y93240D01*
X-4518Y93907D01*
X-3852Y97906D02*
Y95240D01*
X-6518Y97906D01*
X-7184D01*
X-7851Y97239D01*
Y95906D01*
X-7184Y95240D01*
X-7851Y101904D02*
Y99238D01*
X-5851D01*
X-6518Y100571D01*
Y101238D01*
X-5851Y101904D01*
X-4518D01*
X-3852Y101238D01*
Y99905D01*
X-4518Y99238D01*
X362189Y166638D02*
X360856D01*
X361522D01*
Y163305D01*
X360856Y162639D01*
X360189D01*
X359523Y163305D01*
X363522Y162639D02*
X364855D01*
X364188D01*
Y166638D01*
X363522Y165971D01*
X369520Y166638D02*
X366854D01*
Y164638D01*
X368187Y165305D01*
X368853D01*
X369520Y164638D01*
Y163305D01*
X368853Y162639D01*
X367520D01*
X366854Y163305D01*
X126811Y239395D02*
Y242061D01*
X128144Y243394D01*
X129477Y242061D01*
Y239395D01*
Y241394D01*
X126811D01*
X130810Y239395D02*
X132143D01*
X131476D01*
Y243394D01*
X130810Y242727D01*
X3198Y26207D02*
X6531D01*
X7197Y26873D01*
Y28206D01*
X6531Y28873D01*
X3198D01*
X7197Y32205D02*
X3198D01*
X5198Y30206D01*
Y32871D01*
X55272Y24763D02*
X51273D01*
Y22764D01*
X51939Y22097D01*
X54605D01*
X55272Y22764D01*
Y24763D01*
X51273Y18765D02*
X55272D01*
X53272Y20764D01*
Y18098D01*
X80478Y7737D02*
X84477D01*
Y9736D01*
X83811Y10403D01*
X81145D01*
X80478Y9736D01*
Y7737D01*
Y14402D02*
X81145Y13069D01*
X82478Y11736D01*
X83811D01*
X84477Y12402D01*
Y13735D01*
X83811Y14402D01*
X83144D01*
X82478Y13735D01*
Y11736D01*
X333447Y187487D02*
X329448D01*
Y189486D01*
X330115Y190153D01*
X331448D01*
X332114Y189486D01*
Y187487D01*
Y188820D02*
X333447Y190153D01*
Y191486D02*
Y192819D01*
Y192152D01*
X329448D01*
X330115Y191486D01*
X124622Y1299D02*
Y-34D01*
Y632D01*
X127955D01*
X128621Y-34D01*
Y-701D01*
X127955Y-1367D01*
X128621Y4631D02*
X124622D01*
X126622Y2632D01*
Y5297D01*
X272933Y226301D02*
X273600Y226968D01*
Y228301D01*
X272933Y228967D01*
X272267D01*
X271600Y228301D01*
Y226968D01*
X270934Y226301D01*
X270268D01*
X269601Y226968D01*
Y228301D01*
X270268Y228967D01*
X273600Y224968D02*
X269601D01*
X270934Y223635D01*
X269601Y222302D01*
X273600D01*
X269601Y218304D02*
Y220970D01*
X272267Y218304D01*
X272933D01*
X273600Y218970D01*
Y220303D01*
X272933Y220970D01*
X286969Y250392D02*
Y247059D01*
X287635Y246393D01*
X288968D01*
X289635Y247059D01*
Y250392D01*
X290968Y246393D02*
X292301D01*
X291634D01*
Y250392D01*
X290968Y249725D01*
M02*
