%FSLAX44Y44*%
%MOMM*%
G71*
G01*
G75*
G04 Layer_Physical_Order=2*
G04 Layer_Color=16711680*
G04:AMPARAMS|DCode=10|XSize=0.7mm|YSize=2.5mm|CornerRadius=0.175mm|HoleSize=0mm|Usage=FLASHONLY|Rotation=0.000|XOffset=0mm|YOffset=0mm|HoleType=Round|Shape=RoundedRectangle|*
%AMROUNDEDRECTD10*
21,1,0.7000,2.1500,0,0,0.0*
21,1,0.3500,2.5000,0,0,0.0*
1,1,0.3500,0.1750,-1.0750*
1,1,0.3500,-0.1750,-1.0750*
1,1,0.3500,-0.1750,1.0750*
1,1,0.3500,0.1750,1.0750*
%
%ADD10ROUNDEDRECTD10*%
G04:AMPARAMS|DCode=11|XSize=0.67mm|YSize=0.67mm|CornerRadius=0.1508mm|HoleSize=0mm|Usage=FLASHONLY|Rotation=90.000|XOffset=0mm|YOffset=0mm|HoleType=Round|Shape=RoundedRectangle|*
%AMROUNDEDRECTD11*
21,1,0.6700,0.3685,0,0,90.0*
21,1,0.3685,0.6700,0,0,90.0*
1,1,0.3015,0.1843,0.1843*
1,1,0.3015,0.1843,-0.1843*
1,1,0.3015,-0.1843,-0.1843*
1,1,0.3015,-0.1843,0.1843*
%
%ADD11ROUNDEDRECTD11*%
G04:AMPARAMS|DCode=12|XSize=0.67mm|YSize=0.67mm|CornerRadius=0.1508mm|HoleSize=0mm|Usage=FLASHONLY|Rotation=180.000|XOffset=0mm|YOffset=0mm|HoleType=Round|Shape=RoundedRectangle|*
%AMROUNDEDRECTD12*
21,1,0.6700,0.3685,0,0,180.0*
21,1,0.3685,0.6700,0,0,180.0*
1,1,0.3015,-0.1843,0.1843*
1,1,0.3015,0.1843,0.1843*
1,1,0.3015,0.1843,-0.1843*
1,1,0.3015,-0.1843,-0.1843*
%
%ADD12ROUNDEDRECTD12*%
G04:AMPARAMS|DCode=13|XSize=0.62mm|YSize=0.62mm|CornerRadius=0.1488mm|HoleSize=0mm|Usage=FLASHONLY|Rotation=270.000|XOffset=0mm|YOffset=0mm|HoleType=Round|Shape=RoundedRectangle|*
%AMROUNDEDRECTD13*
21,1,0.6200,0.3224,0,0,270.0*
21,1,0.3224,0.6200,0,0,270.0*
1,1,0.2976,-0.1612,-0.1612*
1,1,0.2976,-0.1612,0.1612*
1,1,0.2976,0.1612,0.1612*
1,1,0.2976,0.1612,-0.1612*
%
%ADD13ROUNDEDRECTD13*%
%ADD14R,1.4000X0.4000*%
%ADD15R,1.9000X1.8000*%
G04:AMPARAMS|DCode=16|XSize=2.35mm|YSize=1.15mm|CornerRadius=0.3852mm|HoleSize=0mm|Usage=FLASHONLY|Rotation=180.000|XOffset=0mm|YOffset=0mm|HoleType=Round|Shape=RoundedRectangle|*
%AMROUNDEDRECTD16*
21,1,2.3500,0.3795,0,0,180.0*
21,1,1.5795,1.1500,0,0,180.0*
1,1,0.7705,-0.7897,0.1898*
1,1,0.7705,0.7897,0.1898*
1,1,0.7705,0.7897,-0.1898*
1,1,0.7705,-0.7897,-0.1898*
%
%ADD16ROUNDEDRECTD16*%
G04:AMPARAMS|DCode=17|XSize=1.3mm|YSize=1mm|CornerRadius=0.25mm|HoleSize=0mm|Usage=FLASHONLY|Rotation=180.000|XOffset=0mm|YOffset=0mm|HoleType=Round|Shape=RoundedRectangle|*
%AMROUNDEDRECTD17*
21,1,1.3000,0.5000,0,0,180.0*
21,1,0.8000,1.0000,0,0,180.0*
1,1,0.5000,-0.4000,0.2500*
1,1,0.5000,0.4000,0.2500*
1,1,0.5000,0.4000,-0.2500*
1,1,0.5000,-0.4000,-0.2500*
%
%ADD17ROUNDEDRECTD17*%
G04:AMPARAMS|DCode=18|XSize=2.5mm|YSize=1.15mm|CornerRadius=0.3852mm|HoleSize=0mm|Usage=FLASHONLY|Rotation=180.000|XOffset=0mm|YOffset=0mm|HoleType=Round|Shape=RoundedRectangle|*
%AMROUNDEDRECTD18*
21,1,2.5000,0.3795,0,0,180.0*
21,1,1.7295,1.1500,0,0,180.0*
1,1,0.7705,-0.8648,0.1898*
1,1,0.7705,0.8648,0.1898*
1,1,0.7705,0.8648,-0.1898*
1,1,0.7705,-0.8648,-0.1898*
%
%ADD18ROUNDEDRECTD18*%
G04:AMPARAMS|DCode=19|XSize=1.1mm|YSize=0.6mm|CornerRadius=0.201mm|HoleSize=0mm|Usage=FLASHONLY|Rotation=270.000|XOffset=0mm|YOffset=0mm|HoleType=Round|Shape=RoundedRectangle|*
%AMROUNDEDRECTD19*
21,1,1.1000,0.1980,0,0,270.0*
21,1,0.6980,0.6000,0,0,270.0*
1,1,0.4020,-0.0990,-0.3490*
1,1,0.4020,-0.0990,0.3490*
1,1,0.4020,0.0990,0.3490*
1,1,0.4020,0.0990,-0.3490*
%
%ADD19ROUNDEDRECTD19*%
G04:AMPARAMS|DCode=20|XSize=0.62mm|YSize=0.62mm|CornerRadius=0.1488mm|HoleSize=0mm|Usage=FLASHONLY|Rotation=180.000|XOffset=0mm|YOffset=0mm|HoleType=Round|Shape=RoundedRectangle|*
%AMROUNDEDRECTD20*
21,1,0.6200,0.3224,0,0,180.0*
21,1,0.3224,0.6200,0,0,180.0*
1,1,0.2976,-0.1612,0.1612*
1,1,0.2976,0.1612,0.1612*
1,1,0.2976,0.1612,-0.1612*
1,1,0.2976,-0.1612,-0.1612*
%
%ADD20ROUNDEDRECTD20*%
G04:AMPARAMS|DCode=21|XSize=1mm|YSize=2mm|CornerRadius=0.25mm|HoleSize=0mm|Usage=FLASHONLY|Rotation=0.000|XOffset=0mm|YOffset=0mm|HoleType=Round|Shape=RoundedRectangle|*
%AMROUNDEDRECTD21*
21,1,1.0000,1.5000,0,0,0.0*
21,1,0.5000,2.0000,0,0,0.0*
1,1,0.5000,0.2500,-0.7500*
1,1,0.5000,-0.2500,-0.7500*
1,1,0.5000,-0.2500,0.7500*
1,1,0.5000,0.2500,0.7500*
%
%ADD21ROUNDEDRECTD21*%
G04:AMPARAMS|DCode=22|XSize=0.7mm|YSize=1mm|CornerRadius=0.175mm|HoleSize=0mm|Usage=FLASHONLY|Rotation=180.000|XOffset=0mm|YOffset=0mm|HoleType=Round|Shape=RoundedRectangle|*
%AMROUNDEDRECTD22*
21,1,0.7000,0.6500,0,0,180.0*
21,1,0.3500,1.0000,0,0,180.0*
1,1,0.3500,-0.1750,0.3250*
1,1,0.3500,0.1750,0.3250*
1,1,0.3500,0.1750,-0.3250*
1,1,0.3500,-0.1750,-0.3250*
%
%ADD22ROUNDEDRECTD22*%
G04:AMPARAMS|DCode=23|XSize=0.8mm|YSize=1mm|CornerRadius=0.2mm|HoleSize=0mm|Usage=FLASHONLY|Rotation=180.000|XOffset=0mm|YOffset=0mm|HoleType=Round|Shape=RoundedRectangle|*
%AMROUNDEDRECTD23*
21,1,0.8000,0.6000,0,0,180.0*
21,1,0.4000,1.0000,0,0,180.0*
1,1,0.4000,-0.2000,0.3000*
1,1,0.4000,0.2000,0.3000*
1,1,0.4000,0.2000,-0.3000*
1,1,0.4000,-0.2000,-0.3000*
%
%ADD23ROUNDEDRECTD23*%
%ADD24O,0.7000X2.5000*%
%ADD25O,2.5000X0.7000*%
G04:AMPARAMS|DCode=26|XSize=1.2mm|YSize=1.2mm|CornerRadius=0.198mm|HoleSize=0mm|Usage=FLASHONLY|Rotation=180.000|XOffset=0mm|YOffset=0mm|HoleType=Round|Shape=RoundedRectangle|*
%AMROUNDEDRECTD26*
21,1,1.2000,0.8040,0,0,180.0*
21,1,0.8040,1.2000,0,0,180.0*
1,1,0.3960,-0.4020,0.4020*
1,1,0.3960,0.4020,0.4020*
1,1,0.3960,0.4020,-0.4020*
1,1,0.3960,-0.4020,-0.4020*
%
%ADD26ROUNDEDRECTD26*%
G04:AMPARAMS|DCode=27|XSize=1.6mm|YSize=2mm|CornerRadius=0.248mm|HoleSize=0mm|Usage=FLASHONLY|Rotation=90.000|XOffset=0mm|YOffset=0mm|HoleType=Round|Shape=RoundedRectangle|*
%AMROUNDEDRECTD27*
21,1,1.6000,1.5040,0,0,90.0*
21,1,1.1040,2.0000,0,0,90.0*
1,1,0.4960,0.7520,0.5520*
1,1,0.4960,0.7520,-0.5520*
1,1,0.4960,-0.7520,-0.5520*
1,1,0.4960,-0.7520,0.5520*
%
%ADD27ROUNDEDRECTD27*%
%ADD28O,0.3000X0.9000*%
%ADD29O,0.9000X0.3000*%
%ADD30R,2.4000X2.4000*%
%ADD31C,0.5000*%
%ADD32C,0.3000*%
%ADD33C,0.2000*%
%ADD34C,0.4000*%
%ADD35C,0.7000*%
%ADD36C,0.3500*%
%ADD37C,0.6000*%
%ADD38C,0.2500*%
%ADD39C,0.7000*%
G04:AMPARAMS|DCode=40|XSize=1.15mm|YSize=2.1mm|CornerRadius=0.2875mm|HoleSize=0mm|Usage=FLASHONLY|Rotation=90.000|XOffset=0mm|YOffset=0mm|HoleType=Round|Shape=RoundedRectangle|*
%AMROUNDEDRECTD40*
21,1,1.1500,1.5250,0,0,90.0*
21,1,0.5750,2.1000,0,0,90.0*
1,1,0.5750,0.7625,0.2875*
1,1,0.5750,0.7625,-0.2875*
1,1,0.5750,-0.7625,-0.2875*
1,1,0.5750,-0.7625,0.2875*
%
%ADD40ROUNDEDRECTD40*%
%ADD41C,1.8500*%
%ADD42C,0.9000*%
%ADD43C,1.3000*%
%ADD44R,1.3000X1.3000*%
G04:AMPARAMS|DCode=45|XSize=0.7mm|YSize=0.7mm|CornerRadius=0.175mm|HoleSize=0mm|Usage=FLASHONLY|Rotation=270.000|XOffset=0mm|YOffset=0mm|HoleType=Round|Shape=RoundedRectangle|*
%AMROUNDEDRECTD45*
21,1,0.7000,0.3500,0,0,270.0*
21,1,0.3500,0.7000,0,0,270.0*
1,1,0.3500,-0.1750,-0.1750*
1,1,0.3500,-0.1750,0.1750*
1,1,0.3500,0.1750,0.1750*
1,1,0.3500,0.1750,-0.1750*
%
%ADD45ROUNDEDRECTD45*%
G04:AMPARAMS|DCode=46|XSize=1.3mm|YSize=1.3mm|CornerRadius=0.1625mm|HoleSize=0mm|Usage=FLASHONLY|Rotation=180.000|XOffset=0mm|YOffset=0mm|HoleType=Round|Shape=RoundedRectangle|*
%AMROUNDEDRECTD46*
21,1,1.3000,0.9750,0,0,180.0*
21,1,0.9750,1.3000,0,0,180.0*
1,1,0.3250,-0.4875,0.4875*
1,1,0.3250,0.4875,0.4875*
1,1,0.3250,0.4875,-0.4875*
1,1,0.3250,-0.4875,-0.4875*
%
%ADD46ROUNDEDRECTD46*%
%ADD47C,0.8000*%
G04:AMPARAMS|DCode=48|XSize=1mm|YSize=1.2mm|CornerRadius=0.165mm|HoleSize=0mm|Usage=FLASHONLY|Rotation=180.000|XOffset=0mm|YOffset=0mm|HoleType=Round|Shape=RoundedRectangle|*
%AMROUNDEDRECTD48*
21,1,1.0000,0.8700,0,0,180.0*
21,1,0.6700,1.2000,0,0,180.0*
1,1,0.3300,-0.3350,0.4350*
1,1,0.3300,0.3350,0.4350*
1,1,0.3300,0.3350,-0.4350*
1,1,0.3300,-0.3350,-0.4350*
%
%ADD48ROUNDEDRECTD48*%
G04:AMPARAMS|DCode=49|XSize=1.6mm|YSize=1.3mm|CornerRadius=0.2015mm|HoleSize=0mm|Usage=FLASHONLY|Rotation=180.000|XOffset=0mm|YOffset=0mm|HoleType=Round|Shape=RoundedRectangle|*
%AMROUNDEDRECTD49*
21,1,1.6000,0.8970,0,0,180.0*
21,1,1.1970,1.3000,0,0,180.0*
1,1,0.4030,-0.5985,0.4485*
1,1,0.4030,0.5985,0.4485*
1,1,0.4030,0.5985,-0.4485*
1,1,0.4030,-0.5985,-0.4485*
%
%ADD49ROUNDEDRECTD49*%
G04:AMPARAMS|DCode=50|XSize=3mm|YSize=2mm|CornerRadius=0.67mm|HoleSize=0mm|Usage=FLASHONLY|Rotation=180.000|XOffset=0mm|YOffset=0mm|HoleType=Round|Shape=RoundedRectangle|*
%AMROUNDEDRECTD50*
21,1,3.0000,0.6600,0,0,180.0*
21,1,1.6600,2.0000,0,0,180.0*
1,1,1.3400,-0.8300,0.3300*
1,1,1.3400,0.8300,0.3300*
1,1,1.3400,0.8300,-0.3300*
1,1,1.3400,-0.8300,-0.3300*
%
%ADD50ROUNDEDRECTD50*%
G04:AMPARAMS|DCode=51|XSize=2.3mm|YSize=0.9mm|CornerRadius=0.225mm|HoleSize=0mm|Usage=FLASHONLY|Rotation=180.000|XOffset=0mm|YOffset=0mm|HoleType=Round|Shape=RoundedRectangle|*
%AMROUNDEDRECTD51*
21,1,2.3000,0.4500,0,0,180.0*
21,1,1.8500,0.9000,0,0,180.0*
1,1,0.4500,-0.9250,0.2250*
1,1,0.4500,0.9250,0.2250*
1,1,0.4500,0.9250,-0.2250*
1,1,0.4500,-0.9250,-0.2250*
%
%ADD51ROUNDEDRECTD51*%
G04:AMPARAMS|DCode=52|XSize=2.7mm|YSize=1.2mm|CornerRadius=0.21mm|HoleSize=0mm|Usage=FLASHONLY|Rotation=270.000|XOffset=0mm|YOffset=0mm|HoleType=Round|Shape=RoundedRectangle|*
%AMROUNDEDRECTD52*
21,1,2.7000,0.7800,0,0,270.0*
21,1,2.2800,1.2000,0,0,270.0*
1,1,0.4200,-0.3900,-1.1400*
1,1,0.4200,-0.3900,1.1400*
1,1,0.4200,0.3900,1.1400*
1,1,0.4200,0.3900,-1.1400*
%
%ADD52ROUNDEDRECTD52*%
G36*
X398451Y183638D02*
X397181Y183253D01*
X396529Y184229D01*
X394738Y185426D01*
X392625Y185846D01*
X386270D01*
Y177450D01*
Y169054D01*
X392625D01*
X394738Y169474D01*
X396529Y170671D01*
X397181Y171647D01*
X398451Y171262D01*
Y22239D01*
X397181Y21853D01*
X396529Y22829D01*
X394738Y24026D01*
X392625Y24446D01*
X386270D01*
Y16050D01*
Y7654D01*
X392625D01*
X394738Y8074D01*
X396529Y9271D01*
X397181Y10247D01*
X398451Y9862D01*
Y2549D01*
X361844D01*
X361218Y3819D01*
X361771Y4540D01*
X362702Y6788D01*
X363020Y9200D01*
Y11230D01*
X327780D01*
Y9200D01*
X328098Y6788D01*
X329029Y4540D01*
X329582Y3819D01*
X328956Y2549D01*
X204872D01*
X204641Y3770D01*
X207195Y4828D01*
X209389Y6511D01*
X211072Y8705D01*
X212130Y11259D01*
X212491Y14000D01*
X212130Y16741D01*
X211072Y19295D01*
X209389Y21489D01*
X207195Y23172D01*
X204641Y24230D01*
X201900Y24591D01*
X199159Y24230D01*
X196605Y23172D01*
X194411Y21489D01*
X192728Y19295D01*
X191670Y16741D01*
X191309Y14000D01*
X191670Y11259D01*
X192728Y8705D01*
X194411Y6511D01*
X196605Y4828D01*
X199159Y3770D01*
X198928Y2549D01*
X179472D01*
X179241Y3770D01*
X181795Y4828D01*
X183989Y6511D01*
X185672Y8705D01*
X186730Y11259D01*
X187091Y14000D01*
X186730Y16741D01*
X185672Y19295D01*
X183989Y21489D01*
X181795Y23172D01*
X179241Y24230D01*
X176500Y24591D01*
X173759Y24230D01*
X171205Y23172D01*
X169011Y21489D01*
X167328Y19295D01*
X166270Y16741D01*
X165909Y14000D01*
X166270Y11259D01*
X167328Y8705D01*
X169011Y6511D01*
X171205Y4828D01*
X173759Y3770D01*
X173528Y2549D01*
X2549D01*
Y20663D01*
X3688Y21225D01*
X3965Y21012D01*
X5912Y20206D01*
X8000Y19931D01*
X10088Y20206D01*
X12034Y21012D01*
X13706Y22294D01*
X14988Y23965D01*
X15794Y25912D01*
X16069Y28000D01*
X16036Y28251D01*
X16150Y28381D01*
X18530Y28854D01*
X20548Y30202D01*
X21896Y32220D01*
X22369Y34600D01*
Y57400D01*
X21896Y59780D01*
X20548Y61798D01*
Y62202D01*
X21896Y64220D01*
X22369Y66600D01*
Y89400D01*
X21896Y91780D01*
X20548Y93798D01*
Y94202D01*
X21896Y96220D01*
X22369Y98600D01*
Y121400D01*
X21896Y123780D01*
X20548Y125798D01*
Y126202D01*
X21896Y128220D01*
X22369Y130600D01*
Y153400D01*
X21896Y155780D01*
X20548Y157798D01*
X18530Y159146D01*
X16150Y159620D01*
X8350D01*
X5970Y159146D01*
X3952Y157798D01*
X3819Y157599D01*
X2549Y157984D01*
Y307451D01*
X45250D01*
Y232250D01*
X265250D01*
Y307451D01*
X398451D01*
Y183638D01*
D02*
G37*
%LPC*%
G36*
X90862Y64468D02*
X90520D01*
Y60019D01*
X94969D01*
Y60361D01*
X94656Y61933D01*
X93766Y63266D01*
X92434Y64156D01*
X90862Y64468D01*
D02*
G37*
G36*
X366000Y83591D02*
X363259Y83230D01*
X360705Y82172D01*
X358511Y80489D01*
X356828Y78295D01*
X355770Y75741D01*
X355409Y73000D01*
X355770Y70259D01*
X356828Y67705D01*
X358511Y65511D01*
X360705Y63828D01*
X363259Y62770D01*
X366000Y62409D01*
X368741Y62770D01*
X371295Y63828D01*
X373489Y65511D01*
X375172Y67705D01*
X376230Y70259D01*
X376591Y73000D01*
X376230Y75741D01*
X375172Y78295D01*
X373489Y80489D01*
X371295Y82172D01*
X368741Y83230D01*
X366000Y83591D01*
D02*
G37*
G36*
X49881Y108730D02*
X32619D01*
Y98600D01*
X32979Y96790D01*
X34005Y95255D01*
X34740Y94764D01*
Y93237D01*
X34005Y92745D01*
X32979Y91211D01*
X32619Y89400D01*
Y79270D01*
X49881D01*
Y89400D01*
X49521Y91211D01*
X48495Y92745D01*
X47760Y93237D01*
Y94764D01*
X48495Y95255D01*
X49521Y96790D01*
X49881Y98600D01*
Y108730D01*
D02*
G37*
G36*
X94969Y47480D02*
X90520D01*
Y43031D01*
X90862D01*
X92434Y43344D01*
X93766Y44234D01*
X94656Y45566D01*
X94969Y47138D01*
Y47480D01*
D02*
G37*
G36*
X59980D02*
X55531D01*
Y47138D01*
X55844Y45566D01*
X56734Y44234D01*
X58066Y43344D01*
X59638Y43031D01*
X59980D01*
Y47480D01*
D02*
G37*
G36*
Y64468D02*
X59638D01*
X58066Y64156D01*
X56734Y63266D01*
X55844Y61933D01*
X55531Y60361D01*
Y60019D01*
X59980D01*
Y64468D01*
D02*
G37*
G36*
X49881Y76730D02*
X32619D01*
Y66600D01*
X32979Y64790D01*
X34005Y63255D01*
X34740Y62764D01*
Y61237D01*
X34005Y60745D01*
X32979Y59211D01*
X32619Y57400D01*
Y47270D01*
X49881D01*
Y57400D01*
X49521Y59211D01*
X48495Y60745D01*
X47760Y61237D01*
Y62764D01*
X48495Y63255D01*
X49521Y64790D01*
X49881Y66600D01*
Y76730D01*
D02*
G37*
G36*
X81112Y85707D02*
X77888D01*
X75747Y85281D01*
X75000Y84783D01*
X74253Y85281D01*
X72112Y85707D01*
X68888D01*
X66747Y85281D01*
X64931Y84069D01*
X63718Y82253D01*
X63292Y80112D01*
Y76888D01*
X63718Y74747D01*
X64551Y73500D01*
X63718Y72253D01*
X63292Y70112D01*
Y66888D01*
X63543Y65628D01*
X63271Y65164D01*
X62520Y64492D01*
Y58749D01*
X61250D01*
Y57480D01*
X55531D01*
Y57137D01*
X55844Y55566D01*
X56475Y54621D01*
X56642Y53750D01*
X56475Y52879D01*
X55844Y51934D01*
X55531Y50362D01*
Y50020D01*
X61250D01*
Y48750D01*
X62520D01*
Y43031D01*
X62862D01*
X63779Y43214D01*
X64934Y42303D01*
X64959Y42252D01*
Y29502D01*
X63281Y29281D01*
X61213Y28425D01*
X59438Y27062D01*
X58075Y25287D01*
X57219Y23219D01*
X56927Y21000D01*
X57219Y18781D01*
X58075Y16713D01*
X58389Y16304D01*
Y14650D01*
X58828Y12445D01*
X60077Y10577D01*
X61946Y9328D01*
X64150Y8889D01*
X70850D01*
X73054Y9328D01*
X74923Y10577D01*
X75077D01*
X76946Y9328D01*
X79150Y8889D01*
X85850D01*
X88055Y9328D01*
X89923Y10577D01*
X91172Y12445D01*
X91611Y14650D01*
Y16304D01*
X91925Y16713D01*
X92781Y18781D01*
X93073Y21000D01*
X92781Y23219D01*
X91925Y25287D01*
X90562Y27062D01*
X88787Y28425D01*
X86719Y29281D01*
X85665Y29420D01*
Y42201D01*
X86893Y43179D01*
X87638Y43031D01*
X87980D01*
Y48750D01*
X89250D01*
Y50020D01*
X94969D01*
Y50362D01*
X94656Y51934D01*
X94025Y52879D01*
X93858Y53750D01*
X94025Y54621D01*
X94656Y55566D01*
X94969Y57137D01*
Y57480D01*
X89250D01*
Y58749D01*
X87980D01*
Y64468D01*
X87638D01*
X87487Y64438D01*
X86436Y65524D01*
X86707Y66888D01*
Y70112D01*
X86281Y72253D01*
X85665Y73177D01*
Y73823D01*
X86281Y74747D01*
X86707Y76888D01*
Y80112D01*
X86281Y82253D01*
X85069Y84069D01*
X83253Y85281D01*
X81112Y85707D01*
D02*
G37*
G36*
X49881Y140730D02*
X32619D01*
Y130600D01*
X32979Y128790D01*
X34005Y127255D01*
X34740Y126764D01*
Y125237D01*
X34005Y124745D01*
X32979Y123211D01*
X32619Y121400D01*
Y111270D01*
X49881D01*
Y121400D01*
X49521Y123211D01*
X48495Y124745D01*
X47760Y125237D01*
Y126764D01*
X48495Y127255D01*
X49521Y128790D01*
X49881Y130600D01*
Y140730D01*
D02*
G37*
G36*
X366000Y134091D02*
X363259Y133730D01*
X360705Y132672D01*
X358511Y130989D01*
X356828Y128795D01*
X355770Y126241D01*
X355409Y123500D01*
X355770Y120759D01*
X356828Y118205D01*
X358511Y116011D01*
X360705Y114328D01*
X363259Y113270D01*
X366000Y112909D01*
X368741Y113270D01*
X371295Y114328D01*
X373489Y116011D01*
X375172Y118205D01*
X376230Y120759D01*
X376591Y123500D01*
X376230Y126241D01*
X375172Y128795D01*
X373489Y130989D01*
X371295Y132672D01*
X368741Y133730D01*
X366000Y134091D01*
D02*
G37*
G36*
Y159591D02*
X363259Y159230D01*
X360705Y158172D01*
X358511Y156489D01*
X356828Y154295D01*
X355770Y151741D01*
X355409Y149000D01*
X355770Y146259D01*
X356828Y143705D01*
X358511Y141511D01*
X360705Y139828D01*
X363259Y138770D01*
X366000Y138409D01*
X368741Y138770D01*
X371295Y139828D01*
X373489Y141511D01*
X375172Y143705D01*
X376230Y146259D01*
X376591Y149000D01*
X376230Y151741D01*
X375172Y154295D01*
X373489Y156489D01*
X371295Y158172D01*
X368741Y159230D01*
X366000Y159591D01*
D02*
G37*
G36*
X367270Y106951D02*
Y99270D01*
X374951D01*
X374807Y100360D01*
X373896Y102559D01*
X372447Y104447D01*
X370559Y105896D01*
X368360Y106807D01*
X367270Y106951D01*
D02*
G37*
G36*
X364730Y96730D02*
X357049D01*
X357193Y95640D01*
X358104Y93441D01*
X359553Y91553D01*
X361441Y90104D01*
X363640Y89193D01*
X364730Y89049D01*
Y96730D01*
D02*
G37*
G36*
X374951D02*
X367270D01*
Y89049D01*
X368360Y89193D01*
X370559Y90104D01*
X372447Y91553D01*
X373896Y93441D01*
X374807Y95640D01*
X374951Y96730D01*
D02*
G37*
G36*
X364730Y106951D02*
X363640Y106807D01*
X361441Y105896D01*
X359553Y104447D01*
X358104Y102559D01*
X357193Y100360D01*
X357049Y99270D01*
X364730D01*
Y106951D01*
D02*
G37*
G36*
X353700Y25120D02*
X346670D01*
Y13770D01*
X363020D01*
Y15800D01*
X362702Y18212D01*
X361771Y20460D01*
X360290Y22390D01*
X358360Y23871D01*
X356112Y24802D01*
X353700Y25120D01*
D02*
G37*
G36*
X149830Y23122D02*
X146225D01*
X144600Y22798D01*
X143222Y21878D01*
X142302Y20500D01*
X141978Y18875D01*
Y15270D01*
X149830D01*
Y23122D01*
D02*
G37*
G36*
X155975D02*
X152370D01*
Y15270D01*
X160222D01*
Y18875D01*
X159898Y20500D01*
X158978Y21878D01*
X157600Y22798D01*
X155975Y23122D01*
D02*
G37*
G36*
X344130Y25120D02*
X337100D01*
X334688Y24802D01*
X332440Y23871D01*
X330510Y22390D01*
X329029Y20460D01*
X328098Y18212D01*
X327780Y15800D01*
Y13770D01*
X344130D01*
Y25120D01*
D02*
G37*
G36*
X149830Y12730D02*
X141978D01*
Y9125D01*
X142302Y7500D01*
X143222Y6122D01*
X144600Y5202D01*
X146225Y4878D01*
X149830D01*
Y12730D01*
D02*
G37*
G36*
X160222D02*
X152370D01*
Y4878D01*
X155975D01*
X157600Y5202D01*
X158978Y6122D01*
X159898Y7500D01*
X160222Y9125D01*
Y12730D01*
D02*
G37*
G36*
X383730Y14780D02*
X371854D01*
Y13175D01*
X372274Y11062D01*
X373471Y9271D01*
X375262Y8074D01*
X377375Y7654D01*
X383730D01*
Y14780D01*
D02*
G37*
G36*
Y24446D02*
X377375D01*
X375262Y24026D01*
X373471Y22829D01*
X372274Y21038D01*
X371854Y18925D01*
Y17320D01*
X383730D01*
Y24446D01*
D02*
G37*
G36*
X376500Y58000D02*
X355500D01*
Y37000D01*
X376500D01*
Y58000D01*
D02*
G37*
G36*
X336730Y48255D02*
X335510Y48094D01*
X333189Y47133D01*
X331196Y45604D01*
X329667Y43611D01*
X328706Y41290D01*
X328545Y40070D01*
X336730D01*
Y48255D01*
D02*
G37*
G36*
X339270D02*
Y40070D01*
X347455D01*
X347295Y41290D01*
X346333Y43611D01*
X344804Y45604D01*
X342811Y47133D01*
X340490Y48094D01*
X339270Y48255D01*
D02*
G37*
G36*
X49881Y44730D02*
X42520D01*
Y29869D01*
X45150D01*
X46960Y30229D01*
X48495Y31255D01*
X49521Y32790D01*
X49881Y34600D01*
Y44730D01*
D02*
G37*
G36*
X336730Y37530D02*
X328545D01*
X328706Y36310D01*
X329667Y33989D01*
X331196Y31996D01*
X333189Y30467D01*
X335510Y29506D01*
X336730Y29345D01*
Y37530D01*
D02*
G37*
G36*
X347455D02*
X339270D01*
Y29345D01*
X340490Y29506D01*
X342811Y30467D01*
X344804Y31996D01*
X346333Y33989D01*
X347295Y36310D01*
X347455Y37530D01*
D02*
G37*
G36*
X39980Y44730D02*
X32619D01*
Y34600D01*
X32979Y32790D01*
X34005Y31255D01*
X35540Y30229D01*
X37350Y29869D01*
X39980D01*
Y44730D01*
D02*
G37*
G36*
Y158131D02*
X37350D01*
X35540Y157771D01*
X34005Y156745D01*
X32979Y155211D01*
X32619Y153400D01*
Y143270D01*
X39980D01*
Y158131D01*
D02*
G37*
G36*
X24230Y225879D02*
X19515D01*
X17738Y225526D01*
X16231Y224519D01*
X15224Y223012D01*
X14871Y221235D01*
Y218020D01*
X24230D01*
Y225879D01*
D02*
G37*
G36*
X104230D02*
X99515D01*
X97738Y225526D01*
X96231Y224519D01*
X95224Y223012D01*
X94871Y221235D01*
Y218020D01*
X104230D01*
Y225879D01*
D02*
G37*
G36*
X111485D02*
X106770D01*
Y218020D01*
X116129D01*
Y221235D01*
X115776Y223012D01*
X114769Y224519D01*
X113262Y225526D01*
X111485Y225879D01*
D02*
G37*
G36*
X344130Y224620D02*
X337100D01*
X334688Y224302D01*
X332440Y223371D01*
X330510Y221890D01*
X329029Y219960D01*
X328098Y217712D01*
X327780Y215300D01*
Y213270D01*
X344130D01*
Y224620D01*
D02*
G37*
G36*
X24230Y215480D02*
X14871D01*
Y212265D01*
X15224Y210488D01*
X16231Y208981D01*
X17738Y207974D01*
X19515Y207621D01*
X24230D01*
Y215480D01*
D02*
G37*
G36*
X104230D02*
X94871D01*
Y212265D01*
X95224Y210488D01*
X96231Y208981D01*
X97738Y207974D01*
X99515Y207621D01*
X104230D01*
Y215480D01*
D02*
G37*
G36*
X116129D02*
X106770D01*
Y207621D01*
X111485D01*
X113262Y207974D01*
X114769Y208981D01*
X115776Y210488D01*
X116129Y212265D01*
Y215480D01*
D02*
G37*
G36*
X39500Y234874D02*
X39020D01*
Y221020D01*
X43874D01*
Y230500D01*
X43541Y232174D01*
X42593Y233593D01*
X41174Y234541D01*
X39500Y234874D01*
D02*
G37*
G36*
X364730Y271429D02*
X364293Y271372D01*
X362702Y270713D01*
X361336Y269664D01*
X360287Y268298D01*
X359628Y266707D01*
X359571Y266270D01*
X364730D01*
Y271429D01*
D02*
G37*
G36*
X367270D02*
Y266270D01*
X372429D01*
X372372Y266707D01*
X371713Y268298D01*
X370664Y269664D01*
X369298Y270713D01*
X367707Y271372D01*
X367270Y271429D01*
D02*
G37*
G36*
X329220Y302724D02*
Y292270D01*
X339674D01*
X339436Y294078D01*
X338248Y296946D01*
X336359Y299409D01*
X333896Y301299D01*
X331028Y302486D01*
X329220Y302724D01*
D02*
G37*
G36*
X372429Y263730D02*
X367270D01*
Y258571D01*
X367707Y258628D01*
X369298Y259287D01*
X370664Y260336D01*
X371713Y261702D01*
X372372Y263293D01*
X372429Y263730D01*
D02*
G37*
G36*
X366000Y235069D02*
X363912Y234794D01*
X361965Y233988D01*
X360294Y232706D01*
X359012Y231035D01*
X358206Y229088D01*
X357931Y227000D01*
X358206Y224912D01*
X358257Y224788D01*
X357285Y223816D01*
X356112Y224302D01*
X353700Y224620D01*
X346670D01*
Y213270D01*
X363020D01*
Y215300D01*
X362702Y217712D01*
X362392Y218461D01*
X363364Y219433D01*
X363912Y219206D01*
X366000Y218931D01*
X368088Y219206D01*
X370034Y220012D01*
X371706Y221294D01*
X372988Y222966D01*
X373794Y224912D01*
X374069Y227000D01*
X373794Y229088D01*
X372988Y231035D01*
X371706Y232706D01*
X370034Y233988D01*
X368088Y234794D01*
X366000Y235069D01*
D02*
G37*
G36*
X302550Y304364D02*
X299091Y303909D01*
X295868Y302574D01*
X293100Y300450D01*
X290976Y297682D01*
X289641Y294459D01*
X289186Y291000D01*
X289641Y287541D01*
X290976Y284318D01*
X293100Y281550D01*
X295868Y279426D01*
X296432Y279192D01*
Y274050D01*
X296482Y273799D01*
Y247179D01*
X262921Y213617D01*
X239169D01*
X238034Y214488D01*
X236088Y215294D01*
X234000Y215569D01*
X231912Y215294D01*
X229965Y214488D01*
X228294Y213206D01*
X227012Y211535D01*
X226206Y209588D01*
X225931Y207500D01*
X226206Y205412D01*
X227012Y203465D01*
X228294Y201794D01*
X228395Y201717D01*
X228126Y200322D01*
X226716Y199738D01*
X225044Y198456D01*
X223762Y196784D01*
X222956Y194838D01*
X222681Y192750D01*
X222956Y190662D01*
X222432Y189754D01*
X222061Y189503D01*
X220215Y188738D01*
X218544Y187456D01*
X217262Y185784D01*
X216456Y183838D01*
X216181Y181750D01*
X216456Y179662D01*
X217262Y177715D01*
X218544Y176044D01*
X220215Y174762D01*
X222162Y173956D01*
X224250Y173681D01*
X226338Y173956D01*
X228284Y174762D01*
X229956Y176044D01*
X230422Y176652D01*
X249239D01*
X258996Y166895D01*
X260650Y165790D01*
X262600Y165402D01*
X269750D01*
X271701Y165790D01*
X273355Y166895D01*
X290490Y184031D01*
X291250Y183931D01*
X292132Y184047D01*
X293402Y182933D01*
Y168672D01*
X292794Y168206D01*
X291512Y166535D01*
X290706Y164588D01*
X290431Y162500D01*
X290706Y160412D01*
X291512Y158465D01*
X292794Y156794D01*
X294466Y155512D01*
X296412Y154706D01*
X297805Y154522D01*
X298785Y153293D01*
X298681Y152500D01*
X298956Y150412D01*
X299762Y148465D01*
X301044Y146794D01*
X302715Y145512D01*
X304662Y144706D01*
X306750Y144431D01*
X308838Y144706D01*
X310784Y145512D01*
X312456Y146794D01*
X313738Y148465D01*
X314544Y150412D01*
X314819Y152500D01*
X314544Y154588D01*
X313738Y156535D01*
X312868Y157669D01*
Y161258D01*
X313187Y161472D01*
X314138Y161926D01*
X316000Y161681D01*
X318088Y161956D01*
X320034Y162762D01*
X321706Y164044D01*
X322988Y165716D01*
X323794Y167662D01*
X324069Y169750D01*
X323794Y171838D01*
X322988Y173785D01*
X321706Y175456D01*
X321672Y175963D01*
X327305Y181596D01*
X328599Y181287D01*
X328692Y181186D01*
X328545Y180070D01*
X347455D01*
X347295Y181290D01*
X346333Y183611D01*
X344898Y185482D01*
X345112Y186511D01*
X345194Y186752D01*
X349178D01*
X349644Y186144D01*
X351315Y184862D01*
X353262Y184056D01*
X355350Y183781D01*
X357438Y184056D01*
X359384Y184862D01*
X361056Y186144D01*
X362338Y187815D01*
X363144Y189762D01*
X363419Y191850D01*
X363144Y193938D01*
X362338Y195884D01*
X361056Y197556D01*
X359384Y198838D01*
X358370Y199258D01*
X358360Y200629D01*
X360290Y202110D01*
X361771Y204040D01*
X362702Y206288D01*
X363020Y208700D01*
Y210730D01*
X346670D01*
Y199380D01*
X349936D01*
X350367Y198110D01*
X349644Y197556D01*
X349178Y196948D01*
X330350D01*
X328399Y196560D01*
X326745Y195455D01*
X314041Y182750D01*
X312868Y183237D01*
Y197250D01*
X312402Y199591D01*
X311076Y201576D01*
X307868Y204784D01*
Y219466D01*
X328421Y240019D01*
X329838Y240206D01*
X331785Y241012D01*
X333456Y242294D01*
X334738Y243965D01*
X335544Y245912D01*
X335819Y248000D01*
X335544Y250088D01*
X334738Y252034D01*
X333456Y253706D01*
X333446Y253854D01*
X334402Y254902D01*
X336828D01*
X337294Y254294D01*
X338965Y253012D01*
X340912Y252206D01*
X343000Y251931D01*
X345088Y252206D01*
X347034Y253012D01*
X348706Y254294D01*
X349988Y255965D01*
X350794Y257912D01*
X351069Y260000D01*
X350794Y262088D01*
X349988Y264035D01*
X348706Y265706D01*
X347034Y266988D01*
X346654Y267146D01*
X346560Y267504D01*
X346620Y268534D01*
X348326Y269674D01*
X350421Y271769D01*
X351838Y271956D01*
X353784Y272762D01*
X355456Y274044D01*
X356738Y275716D01*
X357544Y277662D01*
X357819Y279750D01*
X357544Y281838D01*
X356738Y283785D01*
X355456Y285456D01*
X353784Y286738D01*
X351838Y287544D01*
X349750Y287819D01*
X347662Y287544D01*
X345715Y286738D01*
X344044Y285456D01*
X342762Y283785D01*
X341956Y281838D01*
X341769Y280421D01*
X341466Y280117D01*
X335221D01*
X334790Y281388D01*
X336359Y282591D01*
X338248Y285054D01*
X339436Y287922D01*
X339674Y289730D01*
X327950D01*
Y291000D01*
X326680D01*
Y302724D01*
X324872Y302486D01*
X322004Y301299D01*
X319541Y299409D01*
X317652Y296946D01*
X316702Y294653D01*
X316165Y294569D01*
X315353Y294715D01*
X314124Y297682D01*
X312000Y300450D01*
X309232Y302574D01*
X306009Y303909D01*
X302550Y304364D01*
D02*
G37*
G36*
X364730Y263730D02*
X359571D01*
X359628Y263293D01*
X360287Y261702D01*
X361336Y260336D01*
X362702Y259287D01*
X364293Y258628D01*
X364730Y258571D01*
Y263730D01*
D02*
G37*
G36*
X31485Y182368D02*
X19515D01*
X17168Y181901D01*
X15179Y180571D01*
X13849Y178582D01*
X13382Y176235D01*
Y167265D01*
X13849Y164918D01*
X15179Y162929D01*
X17168Y161599D01*
X19515Y161132D01*
X31485D01*
X33832Y161599D01*
X35821Y162929D01*
X37151Y164918D01*
X37618Y167265D01*
Y176235D01*
X37151Y178582D01*
X35821Y180571D01*
X33832Y181901D01*
X31485Y182368D01*
D02*
G37*
G36*
X383730Y176180D02*
X371854D01*
Y174575D01*
X372274Y172462D01*
X373471Y170671D01*
X375262Y169474D01*
X377375Y169054D01*
X383730D01*
Y176180D01*
D02*
G37*
G36*
X336730Y177530D02*
X328545D01*
X328706Y176310D01*
X329667Y173989D01*
X331196Y171996D01*
X333189Y170467D01*
X335510Y169506D01*
X336730Y169345D01*
Y177530D01*
D02*
G37*
G36*
X110230Y149219D02*
X109888D01*
X108316Y148906D01*
X107544Y148390D01*
X106625Y148121D01*
X105706Y148390D01*
X104934Y148906D01*
X103362Y149219D01*
X103020D01*
Y143500D01*
X100480D01*
Y149219D01*
X100138D01*
X98566Y148906D01*
X97250Y148027D01*
X95934Y148906D01*
X94362Y149219D01*
X94020D01*
Y143500D01*
X91480D01*
Y149219D01*
X91138D01*
X89566Y148906D01*
X88621Y148274D01*
X87750Y148108D01*
X86879Y148274D01*
X85934Y148906D01*
X84362Y149219D01*
X84020D01*
Y143500D01*
X82750D01*
Y142230D01*
X77031D01*
Y141888D01*
X77344Y140316D01*
X77312Y140156D01*
X77181Y140069D01*
X75968Y138253D01*
X75542Y136112D01*
Y132888D01*
X75968Y130747D01*
X77181Y128931D01*
X78997Y127718D01*
X81138Y127292D01*
X84362D01*
X84663Y127352D01*
X85383Y126633D01*
X85542Y126232D01*
Y123136D01*
X85968Y120995D01*
X86632Y120001D01*
Y119246D01*
X85968Y118252D01*
X85542Y116110D01*
Y112886D01*
X85968Y110745D01*
X85868Y110504D01*
X84195Y110171D01*
X82327Y108922D01*
X81078Y107053D01*
X80639Y104849D01*
Y103195D01*
X80325Y102785D01*
X79469Y100718D01*
X79177Y98499D01*
X79469Y96280D01*
X80325Y94212D01*
X81688Y92437D01*
X83463Y91074D01*
X85531Y90218D01*
X87750Y89925D01*
X89969Y90218D01*
X90381Y90388D01*
X93100D01*
X95304Y90827D01*
X97173Y92075D01*
X97327D01*
X99195Y90827D01*
X101400Y90388D01*
X104119D01*
X104531Y90218D01*
X106750Y89925D01*
X108969Y90218D01*
X111037Y91074D01*
X112812Y92437D01*
X114175Y94212D01*
X115031Y96280D01*
X115323Y98499D01*
X115031Y100718D01*
X114175Y102785D01*
X113861Y103195D01*
Y104849D01*
X113422Y107053D01*
X112173Y108922D01*
X110304Y110171D01*
X108632Y110504D01*
X108532Y110745D01*
X108958Y112886D01*
Y116110D01*
X108532Y118252D01*
X107867Y119246D01*
Y120001D01*
X108532Y120995D01*
X108958Y123136D01*
Y126183D01*
X109322Y126776D01*
X109466Y126919D01*
X110067Y127292D01*
X113112D01*
X115253Y127718D01*
X117069Y128931D01*
X118282Y130747D01*
X118708Y132888D01*
Y136112D01*
X118282Y138253D01*
X117069Y140069D01*
X116938Y140156D01*
X116906Y140316D01*
X117219Y141888D01*
Y142230D01*
X111500D01*
Y143500D01*
X110230D01*
Y149219D01*
D02*
G37*
G36*
X45150Y158131D02*
X42520D01*
Y143270D01*
X49881D01*
Y153400D01*
X49521Y155211D01*
X48495Y156745D01*
X46960Y157771D01*
X45150Y158131D01*
D02*
G37*
G36*
X81480Y149219D02*
X81138D01*
X79566Y148906D01*
X78234Y148016D01*
X77344Y146684D01*
X77031Y145112D01*
Y144770D01*
X81480D01*
Y149219D01*
D02*
G37*
G36*
X113112D02*
X112770D01*
Y144770D01*
X117219D01*
Y145112D01*
X116906Y146684D01*
X116016Y148016D01*
X114684Y148906D01*
X113112Y149219D01*
D02*
G37*
G36*
X347455Y177530D02*
X339270D01*
Y169345D01*
X340490Y169506D01*
X342811Y170467D01*
X344804Y171996D01*
X346333Y173989D01*
X347295Y176310D01*
X347455Y177530D01*
D02*
G37*
G36*
X344130Y210730D02*
X327780D01*
Y208700D01*
X328098Y206288D01*
X329029Y204040D01*
X330510Y202110D01*
X332440Y200629D01*
X334688Y199698D01*
X337100Y199380D01*
X344130D01*
Y210730D01*
D02*
G37*
G36*
X36480Y234874D02*
X36000D01*
X34326Y234541D01*
X32907Y233593D01*
X31959Y232174D01*
X31626Y230500D01*
Y225995D01*
X31485Y225879D01*
X26770D01*
Y216750D01*
Y207621D01*
X31485D01*
X31510Y207626D01*
X31959Y207326D01*
X32907Y205907D01*
X34326Y204959D01*
X36000Y204626D01*
X36480D01*
Y219750D01*
Y234874D01*
D02*
G37*
G36*
X43874Y218480D02*
X39020D01*
Y204626D01*
X39500D01*
X41174Y204959D01*
X42593Y205907D01*
X43541Y207326D01*
X43874Y209000D01*
Y218480D01*
D02*
G37*
G36*
X146250Y198834D02*
X138270D01*
Y192970D01*
X151134D01*
Y193950D01*
X150762Y195819D01*
X149703Y197403D01*
X148119Y198462D01*
X146250Y198834D01*
D02*
G37*
G36*
X383730Y185846D02*
X377375D01*
X375262Y185426D01*
X373471Y184229D01*
X372274Y182438D01*
X371854Y180325D01*
Y178720D01*
X383730D01*
Y185846D01*
D02*
G37*
G36*
X151134Y190430D02*
X122866D01*
Y189450D01*
X123238Y187581D01*
X123584Y187063D01*
X123336Y185818D01*
X123244Y185756D01*
X121863Y183689D01*
X121378Y181250D01*
Y180238D01*
X121156Y180090D01*
X120107Y179575D01*
X118250Y179819D01*
X116480Y179586D01*
X115822Y180571D01*
X113832Y181901D01*
X111485Y182368D01*
X99515D01*
X97168Y181901D01*
X95178Y180571D01*
X93849Y178582D01*
X93382Y176235D01*
Y167265D01*
X93564Y166349D01*
X92759Y165368D01*
X76919D01*
X75785Y166238D01*
X73838Y167044D01*
X71750Y167319D01*
X69662Y167044D01*
X67716Y166238D01*
X66044Y164956D01*
X64762Y163284D01*
X63956Y161338D01*
X63681Y159250D01*
X63956Y157162D01*
X64762Y155216D01*
X66044Y153544D01*
X67716Y152262D01*
X69662Y151456D01*
X71750Y151181D01*
X73838Y151456D01*
X75785Y152262D01*
X76919Y153132D01*
X94331D01*
X95465Y152262D01*
X97412Y151456D01*
X99500Y151181D01*
X101588Y151456D01*
X103534Y152262D01*
X105206Y153544D01*
X106488Y155216D01*
X107294Y157162D01*
X107569Y159250D01*
X107447Y160177D01*
X108284Y161132D01*
X111485D01*
X113832Y161599D01*
X115822Y162929D01*
X116480Y163914D01*
X118250Y163681D01*
X120156Y163932D01*
X120346Y163950D01*
X121568Y163091D01*
X121863Y161611D01*
X122973Y159950D01*
X121863Y158289D01*
X121378Y155850D01*
Y151350D01*
X121863Y148911D01*
X122973Y147250D01*
X121863Y145589D01*
X121378Y143150D01*
Y138650D01*
X121863Y136211D01*
X122973Y134550D01*
X121863Y132889D01*
X121378Y130450D01*
Y125950D01*
X121863Y123511D01*
X122973Y121850D01*
X121863Y120189D01*
X121378Y117750D01*
Y113250D01*
X121863Y110811D01*
X122973Y109150D01*
X121863Y107489D01*
X121378Y105050D01*
Y100550D01*
X121863Y98111D01*
X122973Y96450D01*
X121863Y94789D01*
X121378Y92350D01*
Y87850D01*
X121863Y85411D01*
X122973Y83750D01*
X121863Y82089D01*
X121378Y79650D01*
Y75150D01*
X121863Y72711D01*
X123244Y70644D01*
X125311Y69263D01*
X127750Y68778D01*
X131430D01*
X131584Y68007D01*
X132854Y66104D01*
X143355Y55605D01*
X145257Y54334D01*
X147500Y53887D01*
X189018D01*
X189504Y52714D01*
X188895Y52105D01*
X187790Y50451D01*
X187402Y48500D01*
Y47672D01*
X186794Y47206D01*
X185512Y45535D01*
X184706Y43588D01*
X184431Y41500D01*
X184706Y39412D01*
X185512Y37466D01*
X186794Y35794D01*
X188465Y34512D01*
X190412Y33706D01*
X192500Y33431D01*
X194588Y33706D01*
X196535Y34512D01*
X198206Y35794D01*
X199488Y37466D01*
X200294Y39412D01*
X200569Y41500D01*
X200294Y43588D01*
X199488Y45535D01*
X198297Y47087D01*
X201105Y49895D01*
X202210Y51549D01*
X202274Y51873D01*
X202598Y53500D01*
Y53578D01*
X203206Y54044D01*
X203672Y54652D01*
X207764D01*
X208536Y53382D01*
X208000Y52088D01*
X207725Y50000D01*
X208000Y47912D01*
X208806Y45965D01*
X210089Y44294D01*
X211760Y43012D01*
X213706Y42206D01*
X215794Y41931D01*
X217883Y42206D01*
X219829Y43012D01*
X221500Y44294D01*
X221966Y44902D01*
X239241D01*
X241192Y45290D01*
X242846Y46395D01*
X277605Y81154D01*
X278710Y82808D01*
X279098Y84759D01*
Y126971D01*
X278710Y128922D01*
X277605Y130576D01*
X265326Y142855D01*
X263672Y143960D01*
X261721Y144348D01*
X189362D01*
X186719Y146990D01*
X186819Y147750D01*
X186544Y149838D01*
X185738Y151784D01*
X184456Y153456D01*
X182785Y154738D01*
X180838Y155544D01*
X178750Y155819D01*
X177883Y155705D01*
X176613Y156819D01*
Y165750D01*
X176166Y167994D01*
X174895Y169895D01*
X161646Y183146D01*
X159743Y184416D01*
X157500Y184863D01*
X151353D01*
X150756Y185756D01*
X150664Y185818D01*
X150416Y187063D01*
X150762Y187581D01*
X151134Y189450D01*
Y190430D01*
D02*
G37*
G36*
X135730Y198834D02*
X127750D01*
X125881Y198462D01*
X124297Y197403D01*
X123238Y195819D01*
X122866Y193950D01*
Y192970D01*
X135730D01*
Y198834D01*
D02*
G37*
%LPD*%
D10*
X37750Y219750D02*
D03*
D13*
X101750Y114498D02*
D03*
X92750D02*
D03*
X101750Y124748D02*
D03*
X92750D02*
D03*
X89250Y48750D02*
D03*
X80250D02*
D03*
X89250Y58749D02*
D03*
X80250D02*
D03*
X79500Y68500D02*
D03*
X70500D02*
D03*
X79500Y78500D02*
D03*
X70500D02*
D03*
X70250Y48750D02*
D03*
X61250D02*
D03*
X70250Y58749D02*
D03*
X61250D02*
D03*
D20*
X254250Y120000D02*
D03*
Y111000D02*
D03*
X111500Y143500D02*
D03*
Y134500D02*
D03*
X101750Y143500D02*
D03*
Y134500D02*
D03*
X92750D02*
D03*
Y143500D02*
D03*
X82750Y134500D02*
D03*
Y143500D02*
D03*
D31*
X355000Y223500D02*
X366500Y212000D01*
X341801Y223500D02*
X355000D01*
X42750Y209750D02*
Y304750D01*
X37750Y209750D02*
X42750D01*
X37750D02*
Y304750D01*
X42750D01*
X32750D02*
X37750D01*
X32750Y209750D02*
Y304750D01*
Y209750D02*
X37750D01*
X27750Y304750D02*
X32750D01*
X27750Y209750D02*
Y304750D01*
Y209750D02*
X32750D01*
X22750D02*
X27750D01*
X22750D02*
Y304750D01*
X27750D01*
X17750D02*
X22750D01*
X17750Y209750D02*
Y304750D01*
Y209750D02*
X22750D01*
X12750D02*
X17750D01*
X12750D02*
Y304750D01*
X17750D01*
X7750D02*
X12750D01*
X7750Y209750D02*
Y304750D01*
Y209750D02*
X12750D01*
X345400Y212000D02*
X366500D01*
X377485D01*
X319308Y218708D02*
X321958D01*
X327750Y224500D01*
X328730Y223520D01*
X341782D01*
X341801Y223500D01*
X366500Y212000D02*
X370000D01*
X377485D02*
X377750Y212265D01*
X314750Y212000D02*
X345400D01*
X332227Y165842D02*
X338000Y171615D01*
Y178800D01*
D33*
X230750Y192750D02*
X238250Y200250D01*
X250000D01*
X257500Y192750D01*
X243750Y192500D02*
X250500Y185750D01*
X257250D01*
X265500Y177500D01*
X251350Y181750D02*
X262600Y170500D01*
X224250Y181750D02*
X251350D01*
X269750Y170500D02*
X291250Y192000D01*
X262600Y170500D02*
X269750D01*
X283023Y211250D02*
X298500Y195773D01*
Y162500D02*
Y195773D01*
X330350Y191850D02*
X355350D01*
X316000Y177500D02*
X330350Y191850D01*
X316000Y169750D02*
Y177500D01*
X326773Y255000D02*
X331773Y260000D01*
X324851Y255000D02*
X326773D01*
X320750Y250900D02*
X324851Y255000D01*
X320750Y248977D02*
Y250900D01*
X283023Y211250D02*
X320750Y248977D01*
X331773Y260000D02*
X343000D01*
X254500Y70916D02*
Y76750D01*
X243334Y59750D02*
X254500Y70916D01*
X197500Y59750D02*
X243334D01*
X274000Y84759D02*
Y126971D01*
X239241Y50000D02*
X274000Y84759D01*
X215794Y50000D02*
X239241D01*
X261721Y139250D02*
X274000Y126971D01*
X187250Y139250D02*
X261721D01*
X178750Y147750D02*
X187250Y139250D01*
X158500Y154000D02*
X162000Y150500D01*
X158500Y154000D02*
Y166750D01*
X197500Y53500D02*
Y59750D01*
X192500Y48500D02*
X197500Y53500D01*
X192500Y41500D02*
Y48500D01*
X105500Y171750D02*
X118250D01*
D34*
X301750Y202250D02*
X306750Y197250D01*
X301750Y202250D02*
Y222000D01*
X306750Y152500D02*
Y197250D01*
X301750Y222000D02*
X327750Y248000D01*
X265455Y207500D02*
X302600Y244645D01*
Y274000D01*
X302550Y274050D02*
X302600Y274000D01*
X302550Y274050D02*
Y291000D01*
X302600Y274000D02*
X344000D01*
X349750Y279750D01*
X234000Y207500D02*
X265455D01*
X8000Y41750D02*
X12250Y46000D01*
X8000Y28000D02*
Y41750D01*
X12250Y110000D02*
Y142000D01*
Y78000D02*
Y110000D01*
Y46000D02*
Y78000D01*
X71750Y159250D02*
X99500D01*
X101750Y104749D02*
Y114498D01*
Y124748D01*
X92750Y114498D02*
Y124748D01*
X87750Y98499D02*
X87750D01*
X89750Y100499D01*
X92750Y103499D01*
Y114498D01*
X101750Y104749D02*
X106750Y99749D01*
X101750Y124748D02*
Y134500D01*
X111500D01*
X92750Y124748D02*
Y134500D01*
X82750D02*
X92750D01*
D36*
X245710Y81750D02*
X263250Y99290D01*
X262500Y86500D02*
X269250Y93250D01*
Y125003D01*
X263250Y99290D02*
Y123000D01*
X239750Y81750D02*
X245710D01*
X254250Y101250D02*
Y111000D01*
X260253Y134000D02*
X269250Y125003D01*
X180750Y134000D02*
X260253D01*
X258000Y128250D02*
X263250Y123000D01*
X137050Y128250D02*
X258000D01*
X170750Y144000D02*
X180750Y134000D01*
X170750Y144000D02*
Y165750D01*
X157500Y179000D02*
X170750Y165750D01*
X137000Y90100D02*
X138100Y89000D01*
X153750D01*
X147500Y59750D02*
X197500D01*
X137000Y70250D02*
X147500Y59750D01*
X137000Y70250D02*
Y77400D01*
X239750Y120000D02*
X251000D01*
X137000Y140900D02*
X137100Y141000D01*
X157500D01*
X157800Y68950D02*
X241200D01*
X137000Y128200D02*
X137050Y128250D01*
X137000Y179000D02*
X157500D01*
X239000Y102800D02*
X243250Y107050D01*
X137000Y102800D02*
X239000D01*
X156750Y120000D02*
X239750D01*
D38*
X65750Y20500D02*
X70312Y25062D01*
Y78500D01*
X80312Y24938D02*
X84750Y20500D01*
X80312Y24938D02*
Y78500D01*
D39*
X366000Y265000D02*
D03*
Y227000D02*
D03*
D40*
X385000Y177450D02*
D03*
Y16050D02*
D03*
D41*
X327950Y291000D02*
D03*
X302550D02*
D03*
D42*
X106750Y98499D02*
D03*
X87750D02*
D03*
X84500Y21000D02*
D03*
X65500D02*
D03*
D43*
X366000Y149000D02*
D03*
Y123500D02*
D03*
Y98000D02*
D03*
Y73000D02*
D03*
X201900Y14000D02*
D03*
X176500D02*
D03*
D44*
X366000Y47500D02*
D03*
D45*
X338000Y178800D02*
D03*
Y38800D02*
D03*
D46*
X151100Y14000D02*
D03*
D47*
X243750Y192500D02*
D03*
X257500Y192750D02*
D03*
X265500Y177500D02*
D03*
X230750Y192750D02*
D03*
X224250Y181750D02*
D03*
X243250Y166000D02*
D03*
X298500Y162500D02*
D03*
X306750Y152500D02*
D03*
X291250Y192000D02*
D03*
X355000Y223500D02*
D03*
X355350Y191850D02*
D03*
X316000Y169750D02*
D03*
X327750Y248000D02*
D03*
X343000Y260000D02*
D03*
X349750Y279750D02*
D03*
X373750Y303250D02*
D03*
X312750Y213500D02*
D03*
X283023Y211250D02*
D03*
X373500Y259000D02*
D03*
X212500Y208750D02*
D03*
X191000Y190500D02*
D03*
X26811Y60000D02*
D03*
X51532Y21500D02*
D03*
X109219Y24446D02*
D03*
X116500Y110380D02*
D03*
X115930Y120976D02*
D03*
X115323Y74880D02*
D03*
X114175Y86880D02*
D03*
X75975Y91630D02*
D03*
X58899Y119630D02*
D03*
X55705Y133718D02*
D03*
X55000Y153513D02*
D03*
X10000Y200380D02*
D03*
Y180380D02*
D03*
X20000Y225000D02*
D03*
Y300380D02*
D03*
Y280380D02*
D03*
Y260380D02*
D03*
Y240380D02*
D03*
X75000Y225380D02*
D03*
X90000D02*
D03*
X146750Y225526D02*
D03*
X110000Y225380D02*
D03*
X180000D02*
D03*
X200000D02*
D03*
X220000D02*
D03*
X240000D02*
D03*
X260000D02*
D03*
X280000Y240380D02*
D03*
Y260380D02*
D03*
Y280380D02*
D03*
Y300380D02*
D03*
X390000Y300000D02*
D03*
Y190380D02*
D03*
Y230380D02*
D03*
Y270380D02*
D03*
X290000Y90000D02*
D03*
X228491Y149000D02*
D03*
X325021Y157605D02*
D03*
X360000Y30000D02*
D03*
X280000Y70000D02*
D03*
X330000D02*
D03*
X310000Y90000D02*
D03*
X290000Y110000D02*
D03*
X320000Y50000D02*
D03*
X300000Y70000D02*
D03*
X260000Y30000D02*
D03*
X280000Y50000D02*
D03*
X300000Y30000D02*
D03*
X240000Y10000D02*
D03*
X300000D02*
D03*
X320000D02*
D03*
X390000Y40000D02*
D03*
Y60000D02*
D03*
Y80000D02*
D03*
Y100000D02*
D03*
Y120000D02*
D03*
Y140000D02*
D03*
Y160000D02*
D03*
X340000Y140000D02*
D03*
Y120000D02*
D03*
X320000Y140000D02*
D03*
X254500Y76750D02*
D03*
X262500Y86500D02*
D03*
X254250Y101250D02*
D03*
X178750Y147750D02*
D03*
X162000Y150500D02*
D03*
X215794Y50000D02*
D03*
X8000Y28000D02*
D03*
X7750Y138500D02*
D03*
X7697Y83250D02*
D03*
X71750Y159250D02*
D03*
X158500Y166750D02*
D03*
X118250Y171750D02*
D03*
X99500Y159250D02*
D03*
X234000Y207500D02*
D03*
X153750Y89000D02*
D03*
X174250Y128250D02*
D03*
X166500Y102750D02*
D03*
X239750Y120000D02*
D03*
X157500Y141000D02*
D03*
X157800Y68950D02*
D03*
X241200D02*
D03*
X192500Y41500D02*
D03*
X239750Y81750D02*
D03*
X243250Y107050D02*
D03*
X156750Y120000D02*
D03*
X197500Y59750D02*
D03*
D48*
X104750Y100499D02*
D03*
X89750D02*
D03*
X82500Y19000D02*
D03*
X67500D02*
D03*
D49*
X25500Y216750D02*
D03*
X105500D02*
D03*
X25500Y171750D02*
D03*
X105500D02*
D03*
D50*
X345400Y12500D02*
D03*
Y212000D02*
D03*
D51*
X137000Y115500D02*
D03*
Y128200D02*
D03*
Y102800D02*
D03*
Y77400D02*
D03*
Y153600D02*
D03*
Y90100D02*
D03*
Y140900D02*
D03*
Y166300D02*
D03*
Y179000D02*
D03*
Y191700D02*
D03*
D52*
X12250Y46000D02*
D03*
X41250D02*
D03*
X12250Y78000D02*
D03*
X41250D02*
D03*
X12250Y110000D02*
D03*
X41250D02*
D03*
X12250Y142000D02*
D03*
X41250D02*
D03*
M02*
