M48
;Layer_Color=9474304
;FILE_FORMAT=4:4
METRIC,LZ
;TYPE=PLATED
T1F00S00C0.3000
T2F00S00C0.8000
T3F00S00C1.1500
T4F00S00C2.0000
%
T01
X000325Y0002875
Y0003625
X000435Y00038
X0005375Y00037
X000605Y000545
X00043Y00052
X0005225Y0008775
X0004Y001105
X000195Y0013025
X0002175Y00081174
X00116Y0007825
X0012625Y0008218
X00125Y00099035
X0011175Y000885
X0010025Y00110011
X0011175Y0014125
X0012975Y001355
X001315Y00069
X00122Y0005054
X0010825Y0005325
X0011275Y0004325
X0013025Y00040125
X001Y00035
X0008325Y00031406
X000745Y00026359
X00073Y00015
X0008525Y0004325
X001445Y00031885
X0016425Y00029287
X0017075Y00027258
X0016975Y0003825
X0018225Y0003625
X001885Y000335
X001955Y0004195
X0020575Y00054
Y0007
X0022125Y0007825
X0021625Y00089
X0020125Y001025
X00203Y0011475
X0022875Y0011725
X002275Y00126
X0023375Y0013325
X0024425Y001335
X0025225Y0013325
X00255Y0011825
X0024225Y00119
X0024175Y0010575
X00253
X0022925Y00106
X0024325Y0007475
X00257Y0007613
X0027275Y0007625
X002855Y0007825
X0028925Y0006943
X0029Y00089
X002855Y00095683
X00266699Y0004225
X002585Y00038298
X00257Y0003
X00249891Y000285
X0025325Y00044
X0023225Y0006175
X0021475Y0002875
X0017338Y00079
X00174Y000875
X0018Y0010625
X0016575Y001225
X00149Y0012575
X00138881Y0009975
X00141Y00088
X0015375Y00082912
X00143Y000625
X0018325Y001575
X0020325Y001595
X0020125Y00168
X0020375Y0018925
X001945Y00191
X0021025Y0018325
X0022325Y0019
X0024025Y00187
Y001935
Y001805
X0024975Y00173
X0026875Y00167
X0027575
X0027925Y001805
Y00187
Y001935
X0021225Y001445
X0012375Y001495
X001195Y0018
X00110625Y00183625
X00125Y0019225
X0007975Y0016875
X0006775Y00157
X0008575Y0014675
X0004075Y0017375
X000495Y0019125
X00017522
T02
X0006975Y000415
Y00067
Y000925
Y001175
X0020225Y00035
X0024025
X0006975Y00143
T03
X0028375Y0001655
Y0004195
T04
X001545Y0001525
X0025725Y0005925
M30
