%FSLAX44Y44*%
%MOMM*%
G71*
G01*
G75*
G04 Layer_Color=65535*
G04:AMPARAMS|DCode=10|XSize=1.05mm|YSize=0.65mm|CornerRadius=0.2015mm|HoleSize=0mm|Usage=FLASHONLY|Rotation=0.000|XOffset=0mm|YOffset=0mm|HoleType=Round|Shape=RoundedRectangle|*
%AMROUNDEDRECTD10*
21,1,1.0500,0.2470,0,0,0.0*
21,1,0.6470,0.6500,0,0,0.0*
1,1,0.4030,0.3235,-0.1235*
1,1,0.4030,-0.3235,-0.1235*
1,1,0.4030,-0.3235,0.1235*
1,1,0.4030,0.3235,0.1235*
%
%ADD10ROUNDEDRECTD10*%
G04:AMPARAMS|DCode=11|XSize=1mm|YSize=0.95mm|CornerRadius=0.1995mm|HoleSize=0mm|Usage=FLASHONLY|Rotation=0.000|XOffset=0mm|YOffset=0mm|HoleType=Round|Shape=RoundedRectangle|*
%AMROUNDEDRECTD11*
21,1,1.0000,0.5510,0,0,0.0*
21,1,0.6010,0.9500,0,0,0.0*
1,1,0.3990,0.3005,-0.2755*
1,1,0.3990,-0.3005,-0.2755*
1,1,0.3990,-0.3005,0.2755*
1,1,0.3990,0.3005,0.2755*
%
%ADD11ROUNDEDRECTD11*%
%ADD12R,0.4000X1.6000*%
G04:AMPARAMS|DCode=13|XSize=1mm|YSize=0.9mm|CornerRadius=0.198mm|HoleSize=0mm|Usage=FLASHONLY|Rotation=270.000|XOffset=0mm|YOffset=0mm|HoleType=Round|Shape=RoundedRectangle|*
%AMROUNDEDRECTD13*
21,1,1.0000,0.5040,0,0,270.0*
21,1,0.6040,0.9000,0,0,270.0*
1,1,0.3960,-0.2520,-0.3020*
1,1,0.3960,-0.2520,0.3020*
1,1,0.3960,0.2520,0.3020*
1,1,0.3960,0.2520,-0.3020*
%
%ADD13ROUNDEDRECTD13*%
G04:AMPARAMS|DCode=14|XSize=1mm|YSize=0.9mm|CornerRadius=0.198mm|HoleSize=0mm|Usage=FLASHONLY|Rotation=0.000|XOffset=0mm|YOffset=0mm|HoleType=Round|Shape=RoundedRectangle|*
%AMROUNDEDRECTD14*
21,1,1.0000,0.5040,0,0,0.0*
21,1,0.6040,0.9000,0,0,0.0*
1,1,0.3960,0.3020,-0.2520*
1,1,0.3960,-0.3020,-0.2520*
1,1,0.3960,-0.3020,0.2520*
1,1,0.3960,0.3020,0.2520*
%
%ADD14ROUNDEDRECTD14*%
G04:AMPARAMS|DCode=15|XSize=0.67mm|YSize=0.67mm|CornerRadius=0.1508mm|HoleSize=0mm|Usage=FLASHONLY|Rotation=180.000|XOffset=0mm|YOffset=0mm|HoleType=Round|Shape=RoundedRectangle|*
%AMROUNDEDRECTD15*
21,1,0.6700,0.3685,0,0,180.0*
21,1,0.3685,0.6700,0,0,180.0*
1,1,0.3015,-0.1843,0.1843*
1,1,0.3015,0.1843,0.1843*
1,1,0.3015,0.1843,-0.1843*
1,1,0.3015,-0.1843,-0.1843*
%
%ADD15ROUNDEDRECTD15*%
G04:AMPARAMS|DCode=16|XSize=2.5mm|YSize=2mm|CornerRadius=0.2mm|HoleSize=0mm|Usage=FLASHONLY|Rotation=90.000|XOffset=0mm|YOffset=0mm|HoleType=Round|Shape=RoundedRectangle|*
%AMROUNDEDRECTD16*
21,1,2.5000,1.6000,0,0,90.0*
21,1,2.1000,2.0000,0,0,90.0*
1,1,0.4000,0.8000,1.0500*
1,1,0.4000,0.8000,-1.0500*
1,1,0.4000,-0.8000,-1.0500*
1,1,0.4000,-0.8000,1.0500*
%
%ADD16ROUNDEDRECTD16*%
G04:AMPARAMS|DCode=17|XSize=2.3mm|YSize=0.5mm|CornerRadius=0.2mm|HoleSize=0mm|Usage=FLASHONLY|Rotation=90.000|XOffset=0mm|YOffset=0mm|HoleType=Round|Shape=RoundedRectangle|*
%AMROUNDEDRECTD17*
21,1,2.3000,0.1000,0,0,90.0*
21,1,1.9000,0.5000,0,0,90.0*
1,1,0.4000,0.0500,0.9500*
1,1,0.4000,0.0500,-0.9500*
1,1,0.4000,-0.0500,-0.9500*
1,1,0.4000,-0.0500,0.9500*
%
%ADD17ROUNDEDRECTD17*%
G04:AMPARAMS|DCode=18|XSize=1.1mm|YSize=0.6mm|CornerRadius=0.201mm|HoleSize=0mm|Usage=FLASHONLY|Rotation=90.000|XOffset=0mm|YOffset=0mm|HoleType=Round|Shape=RoundedRectangle|*
%AMROUNDEDRECTD18*
21,1,1.1000,0.1980,0,0,90.0*
21,1,0.6980,0.6000,0,0,90.0*
1,1,0.4020,0.0990,0.3490*
1,1,0.4020,0.0990,-0.3490*
1,1,0.4020,-0.0990,-0.3490*
1,1,0.4020,-0.0990,0.3490*
%
%ADD18ROUNDEDRECTD18*%
%ADD19O,0.7000X2.5000*%
%ADD20O,2.5000X0.7000*%
%ADD21R,0.4000X1.4000*%
G04:AMPARAMS|DCode=22|XSize=1.8mm|YSize=1.9mm|CornerRadius=0.45mm|HoleSize=0mm|Usage=FLASHONLY|Rotation=0.000|XOffset=0mm|YOffset=0mm|HoleType=Round|Shape=RoundedRectangle|*
%AMROUNDEDRECTD22*
21,1,1.8000,1.0000,0,0,0.0*
21,1,0.9000,1.9000,0,0,0.0*
1,1,0.9000,0.4500,-0.5000*
1,1,0.9000,-0.4500,-0.5000*
1,1,0.9000,-0.4500,0.5000*
1,1,0.9000,0.4500,0.5000*
%
%ADD22ROUNDEDRECTD22*%
G04:AMPARAMS|DCode=23|XSize=1.2mm|YSize=2mm|CornerRadius=0.3mm|HoleSize=0mm|Usage=FLASHONLY|Rotation=270.000|XOffset=0mm|YOffset=0mm|HoleType=Round|Shape=RoundedRectangle|*
%AMROUNDEDRECTD23*
21,1,1.2000,1.4000,0,0,270.0*
21,1,0.6000,2.0000,0,0,270.0*
1,1,0.6000,-0.7000,-0.3000*
1,1,0.6000,-0.7000,0.3000*
1,1,0.6000,0.7000,0.3000*
1,1,0.6000,0.7000,-0.3000*
%
%ADD23ROUNDEDRECTD23*%
G04:AMPARAMS|DCode=24|XSize=0.7mm|YSize=1mm|CornerRadius=0.175mm|HoleSize=0mm|Usage=FLASHONLY|Rotation=90.000|XOffset=0mm|YOffset=0mm|HoleType=Round|Shape=RoundedRectangle|*
%AMROUNDEDRECTD24*
21,1,0.7000,0.6500,0,0,90.0*
21,1,0.3500,1.0000,0,0,90.0*
1,1,0.3500,0.3250,0.1750*
1,1,0.3500,0.3250,-0.1750*
1,1,0.3500,-0.3250,-0.1750*
1,1,0.3500,-0.3250,0.1750*
%
%ADD24ROUNDEDRECTD24*%
G04:AMPARAMS|DCode=25|XSize=0.8mm|YSize=2mm|CornerRadius=0.2mm|HoleSize=0mm|Usage=FLASHONLY|Rotation=90.000|XOffset=0mm|YOffset=0mm|HoleType=Round|Shape=RoundedRectangle|*
%AMROUNDEDRECTD25*
21,1,0.8000,1.6000,0,0,90.0*
21,1,0.4000,2.0000,0,0,90.0*
1,1,0.4000,0.8000,0.2000*
1,1,0.4000,0.8000,-0.2000*
1,1,0.4000,-0.8000,-0.2000*
1,1,0.4000,-0.8000,0.2000*
%
%ADD25ROUNDEDRECTD25*%
G04:AMPARAMS|DCode=26|XSize=0.7mm|YSize=1.5mm|CornerRadius=0.175mm|HoleSize=0mm|Usage=FLASHONLY|Rotation=90.000|XOffset=0mm|YOffset=0mm|HoleType=Round|Shape=RoundedRectangle|*
%AMROUNDEDRECTD26*
21,1,0.7000,1.1500,0,0,90.0*
21,1,0.3500,1.5000,0,0,90.0*
1,1,0.3500,0.5750,0.1750*
1,1,0.3500,0.5750,-0.1750*
1,1,0.3500,-0.5750,-0.1750*
1,1,0.3500,-0.5750,0.1750*
%
%ADD26ROUNDEDRECTD26*%
%ADD27O,0.5000X2.5000*%
%ADD28O,2.5000X0.5000*%
G04:AMPARAMS|DCode=29|XSize=2.5mm|YSize=2mm|CornerRadius=0.25mm|HoleSize=0mm|Usage=FLASHONLY|Rotation=90.000|XOffset=0mm|YOffset=0mm|HoleType=Round|Shape=RoundedRectangle|*
%AMROUNDEDRECTD29*
21,1,2.5000,1.5000,0,0,90.0*
21,1,2.0000,2.0000,0,0,90.0*
1,1,0.5000,0.7500,1.0000*
1,1,0.5000,0.7500,-1.0000*
1,1,0.5000,-0.7500,-1.0000*
1,1,0.5000,-0.7500,1.0000*
%
%ADD29ROUNDEDRECTD29*%
G04:AMPARAMS|DCode=30|XSize=2.5mm|YSize=1.7mm|CornerRadius=0.204mm|HoleSize=0mm|Usage=FLASHONLY|Rotation=90.000|XOffset=0mm|YOffset=0mm|HoleType=Round|Shape=RoundedRectangle|*
%AMROUNDEDRECTD30*
21,1,2.5000,1.2920,0,0,90.0*
21,1,2.0920,1.7000,0,0,90.0*
1,1,0.4080,0.6460,1.0460*
1,1,0.4080,0.6460,-1.0460*
1,1,0.4080,-0.6460,-1.0460*
1,1,0.4080,-0.6460,1.0460*
%
%ADD30ROUNDEDRECTD30*%
G04:AMPARAMS|DCode=31|XSize=3.3mm|YSize=1.65mm|CornerRadius=0.198mm|HoleSize=0mm|Usage=FLASHONLY|Rotation=0.000|XOffset=0mm|YOffset=0mm|HoleType=Round|Shape=RoundedRectangle|*
%AMROUNDEDRECTD31*
21,1,3.3000,1.2540,0,0,0.0*
21,1,2.9040,1.6500,0,0,0.0*
1,1,0.3960,1.4520,-0.6270*
1,1,0.3960,-1.4520,-0.6270*
1,1,0.3960,-1.4520,0.6270*
1,1,0.3960,1.4520,0.6270*
%
%ADD31ROUNDEDRECTD31*%
G04:AMPARAMS|DCode=32|XSize=3.3mm|YSize=1.65mm|CornerRadius=0.198mm|HoleSize=0mm|Usage=FLASHONLY|Rotation=270.000|XOffset=0mm|YOffset=0mm|HoleType=Round|Shape=RoundedRectangle|*
%AMROUNDEDRECTD32*
21,1,3.3000,1.2540,0,0,270.0*
21,1,2.9040,1.6500,0,0,270.0*
1,1,0.3960,-0.6270,-1.4520*
1,1,0.3960,-0.6270,1.4520*
1,1,0.3960,0.6270,1.4520*
1,1,0.3960,0.6270,-1.4520*
%
%ADD32ROUNDEDRECTD32*%
%ADD33O,1.5500X0.6000*%
G04:AMPARAMS|DCode=34|XSize=5.2mm|YSize=2mm|CornerRadius=0.25mm|HoleSize=0mm|Usage=FLASHONLY|Rotation=90.000|XOffset=0mm|YOffset=0mm|HoleType=Round|Shape=RoundedRectangle|*
%AMROUNDEDRECTD34*
21,1,5.2000,1.5000,0,0,90.0*
21,1,4.7000,2.0000,0,0,90.0*
1,1,0.5000,0.7500,2.3500*
1,1,0.5000,0.7500,-2.3500*
1,1,0.5000,-0.7500,-2.3500*
1,1,0.5000,-0.7500,2.3500*
%
%ADD34ROUNDEDRECTD34*%
G04:AMPARAMS|DCode=35|XSize=1.45mm|YSize=0.95mm|CornerRadius=0.1995mm|HoleSize=0mm|Usage=FLASHONLY|Rotation=270.000|XOffset=0mm|YOffset=0mm|HoleType=Round|Shape=RoundedRectangle|*
%AMROUNDEDRECTD35*
21,1,1.4500,0.5510,0,0,270.0*
21,1,1.0510,0.9500,0,0,270.0*
1,1,0.3990,-0.2755,-0.5255*
1,1,0.3990,-0.2755,0.5255*
1,1,0.3990,0.2755,0.5255*
1,1,0.3990,0.2755,-0.5255*
%
%ADD35ROUNDEDRECTD35*%
G04:AMPARAMS|DCode=36|XSize=2.5mm|YSize=1.7mm|CornerRadius=0.204mm|HoleSize=0mm|Usage=FLASHONLY|Rotation=180.000|XOffset=0mm|YOffset=0mm|HoleType=Round|Shape=RoundedRectangle|*
%AMROUNDEDRECTD36*
21,1,2.5000,1.2920,0,0,180.0*
21,1,2.0920,1.7000,0,0,180.0*
1,1,0.4080,-1.0460,0.6460*
1,1,0.4080,1.0460,0.6460*
1,1,0.4080,1.0460,-0.6460*
1,1,0.4080,-1.0460,-0.6460*
%
%ADD36ROUNDEDRECTD36*%
G04:AMPARAMS|DCode=37|XSize=1.45mm|YSize=1.15mm|CornerRadius=0.2013mm|HoleSize=0mm|Usage=FLASHONLY|Rotation=180.000|XOffset=0mm|YOffset=0mm|HoleType=Round|Shape=RoundedRectangle|*
%AMROUNDEDRECTD37*
21,1,1.4500,0.7475,0,0,180.0*
21,1,1.0475,1.1500,0,0,180.0*
1,1,0.4025,-0.5238,0.3738*
1,1,0.4025,0.5238,0.3738*
1,1,0.4025,0.5238,-0.3738*
1,1,0.4025,-0.5238,-0.3738*
%
%ADD37ROUNDEDRECTD37*%
G04:AMPARAMS|DCode=38|XSize=1mm|YSize=0.95mm|CornerRadius=0.1995mm|HoleSize=0mm|Usage=FLASHONLY|Rotation=270.000|XOffset=0mm|YOffset=0mm|HoleType=Round|Shape=RoundedRectangle|*
%AMROUNDEDRECTD38*
21,1,1.0000,0.5510,0,0,270.0*
21,1,0.6010,0.9500,0,0,270.0*
1,1,0.3990,-0.2755,-0.3005*
1,1,0.3990,-0.2755,0.3005*
1,1,0.3990,0.2755,0.3005*
1,1,0.3990,0.2755,-0.3005*
%
%ADD38ROUNDEDRECTD38*%
G04:AMPARAMS|DCode=39|XSize=1.05mm|YSize=0.65mm|CornerRadius=0.2015mm|HoleSize=0mm|Usage=FLASHONLY|Rotation=90.000|XOffset=0mm|YOffset=0mm|HoleType=Round|Shape=RoundedRectangle|*
%AMROUNDEDRECTD39*
21,1,1.0500,0.2470,0,0,90.0*
21,1,0.6470,0.6500,0,0,90.0*
1,1,0.4030,0.1235,0.3235*
1,1,0.4030,0.1235,-0.3235*
1,1,0.4030,-0.1235,-0.3235*
1,1,0.4030,-0.1235,0.3235*
%
%ADD39ROUNDEDRECTD39*%
%ADD40C,2.0000*%
%ADD41C,0.5000*%
%ADD42C,0.7000*%
%ADD43C,0.4000*%
%ADD44C,0.6000*%
%ADD45C,2.2000*%
%ADD46O,2.0000X1.3000*%
%ADD47C,0.5000*%
G04:AMPARAMS|DCode=48|XSize=0.9mm|YSize=2.8mm|CornerRadius=0.225mm|HoleSize=0mm|Usage=FLASHONLY|Rotation=90.000|XOffset=0mm|YOffset=0mm|HoleType=Round|Shape=RoundedRectangle|*
%AMROUNDEDRECTD48*
21,1,0.9000,2.3500,0,0,90.0*
21,1,0.4500,2.8000,0,0,90.0*
1,1,0.4500,1.1750,0.2250*
1,1,0.4500,1.1750,-0.2250*
1,1,0.4500,-1.1750,-0.2250*
1,1,0.4500,-1.1750,0.2250*
%
%ADD48ROUNDEDRECTD48*%
G04:AMPARAMS|DCode=49|XSize=1.3mm|YSize=1.3mm|CornerRadius=0.1625mm|HoleSize=0mm|Usage=FLASHONLY|Rotation=0.000|XOffset=0mm|YOffset=0mm|HoleType=Round|Shape=RoundedRectangle|*
%AMROUNDEDRECTD49*
21,1,1.3000,0.9750,0,0,0.0*
21,1,0.9750,1.3000,0,0,0.0*
1,1,0.3250,0.4875,-0.4875*
1,1,0.3250,-0.4875,-0.4875*
1,1,0.3250,-0.4875,0.4875*
1,1,0.3250,0.4875,0.4875*
%
%ADD49ROUNDEDRECTD49*%
%ADD50C,1.3000*%
%ADD51C,7.0000*%
%ADD52C,0.1000*%
G04:AMPARAMS|DCode=53|XSize=1mm|YSize=1mm|CornerRadius=0.25mm|HoleSize=0mm|Usage=FLASHONLY|Rotation=180.000|XOffset=0mm|YOffset=0mm|HoleType=Round|Shape=RoundedRectangle|*
%AMROUNDEDRECTD53*
21,1,1.0000,0.5000,0,0,180.0*
21,1,0.5000,1.0000,0,0,180.0*
1,1,0.5000,-0.2500,0.2500*
1,1,0.5000,0.2500,0.2500*
1,1,0.5000,0.2500,-0.2500*
1,1,0.5000,-0.2500,-0.2500*
%
%ADD53ROUNDEDRECTD53*%
G04:AMPARAMS|DCode=54|XSize=1.4mm|YSize=1.4mm|CornerRadius=0.175mm|HoleSize=0mm|Usage=FLASHONLY|Rotation=270.000|XOffset=0mm|YOffset=0mm|HoleType=Round|Shape=RoundedRectangle|*
%AMROUNDEDRECTD54*
21,1,1.4000,1.0500,0,0,270.0*
21,1,1.0500,1.4000,0,0,270.0*
1,1,0.3500,-0.5250,-0.5250*
1,1,0.3500,-0.5250,0.5250*
1,1,0.3500,0.5250,0.5250*
1,1,0.3500,0.5250,-0.5250*
%
%ADD54ROUNDEDRECTD54*%
%ADD55C,2.5000*%
%ADD56C,2.0000*%
%ADD57C,1.6000*%
%ADD58R,1.6000X1.6000*%
%ADD59C,1.8000*%
G04:AMPARAMS|DCode=60|XSize=1.85mm|YSize=1.85mm|CornerRadius=0.2313mm|HoleSize=0mm|Usage=FLASHONLY|Rotation=180.000|XOffset=0mm|YOffset=0mm|HoleType=Round|Shape=RoundedRectangle|*
%AMROUNDEDRECTD60*
21,1,1.8500,1.3875,0,0,180.0*
21,1,1.3875,1.8500,0,0,180.0*
1,1,0.4625,-0.6937,0.6937*
1,1,0.4625,0.6937,0.6937*
1,1,0.4625,0.6937,-0.6937*
1,1,0.4625,-0.6937,-0.6937*
%
%ADD60ROUNDEDRECTD60*%
%ADD61C,1.8500*%
G04:AMPARAMS|DCode=62|XSize=1.6mm|YSize=1.6mm|CornerRadius=0.2mm|HoleSize=0mm|Usage=FLASHONLY|Rotation=270.000|XOffset=0mm|YOffset=0mm|HoleType=Round|Shape=RoundedRectangle|*
%AMROUNDEDRECTD62*
21,1,1.6000,1.2000,0,0,270.0*
21,1,1.2000,1.6000,0,0,270.0*
1,1,0.4000,-0.6000,-0.6000*
1,1,0.4000,-0.6000,0.6000*
1,1,0.4000,0.6000,0.6000*
1,1,0.4000,0.6000,-0.6000*
%
%ADD62ROUNDEDRECTD62*%
%ADD63R,2.5000X5.0000*%
%ADD64R,5.0000X2.5000*%
%ADD65C,1.0000*%
G04:AMPARAMS|DCode=66|XSize=2.7mm|YSize=1.2mm|CornerRadius=0.21mm|HoleSize=0mm|Usage=FLASHONLY|Rotation=90.000|XOffset=0mm|YOffset=0mm|HoleType=Round|Shape=RoundedRectangle|*
%AMROUNDEDRECTD66*
21,1,2.7000,0.7800,0,0,90.0*
21,1,2.2800,1.2000,0,0,90.0*
1,1,0.4200,0.3900,1.1400*
1,1,0.4200,0.3900,-1.1400*
1,1,0.4200,-0.3900,-1.1400*
1,1,0.4200,-0.3900,1.1400*
%
%ADD66ROUNDEDRECTD66*%
G04:AMPARAMS|DCode=67|XSize=1.6mm|YSize=1.3mm|CornerRadius=0.2015mm|HoleSize=0mm|Usage=FLASHONLY|Rotation=270.000|XOffset=0mm|YOffset=0mm|HoleType=Round|Shape=RoundedRectangle|*
%AMROUNDEDRECTD67*
21,1,1.6000,0.8970,0,0,270.0*
21,1,1.1970,1.3000,0,0,270.0*
1,1,0.4030,-0.4485,-0.5985*
1,1,0.4030,-0.4485,0.5985*
1,1,0.4030,0.4485,0.5985*
1,1,0.4030,0.4485,-0.5985*
%
%ADD67ROUNDEDRECTD67*%
G04:AMPARAMS|DCode=68|XSize=2.7mm|YSize=1.2mm|CornerRadius=0.21mm|HoleSize=0mm|Usage=FLASHONLY|Rotation=0.000|XOffset=0mm|YOffset=0mm|HoleType=Round|Shape=RoundedRectangle|*
%AMROUNDEDRECTD68*
21,1,2.7000,0.7800,0,0,0.0*
21,1,2.2800,1.2000,0,0,0.0*
1,1,0.4200,1.1400,-0.3900*
1,1,0.4200,-1.1400,-0.3900*
1,1,0.4200,-1.1400,0.3900*
1,1,0.4200,1.1400,0.3900*
%
%ADD68ROUNDEDRECTD68*%
G04:AMPARAMS|DCode=69|XSize=1.2mm|YSize=1.2mm|CornerRadius=0.198mm|HoleSize=0mm|Usage=FLASHONLY|Rotation=270.000|XOffset=0mm|YOffset=0mm|HoleType=Round|Shape=RoundedRectangle|*
%AMROUNDEDRECTD69*
21,1,1.2000,0.8040,0,0,270.0*
21,1,0.8040,1.2000,0,0,270.0*
1,1,0.3960,-0.4020,-0.4020*
1,1,0.3960,-0.4020,0.4020*
1,1,0.3960,0.4020,0.4020*
1,1,0.3960,0.4020,-0.4020*
%
%ADD69ROUNDEDRECTD69*%
G04:AMPARAMS|DCode=70|XSize=0.7mm|YSize=2.5mm|CornerRadius=0.175mm|HoleSize=0mm|Usage=FLASHONLY|Rotation=270.000|XOffset=0mm|YOffset=0mm|HoleType=Round|Shape=RoundedRectangle|*
%AMROUNDEDRECTD70*
21,1,0.7000,2.1500,0,0,270.0*
21,1,0.3500,2.5000,0,0,270.0*
1,1,0.3500,-1.0750,-0.1750*
1,1,0.3500,-1.0750,0.1750*
1,1,0.3500,1.0750,0.1750*
1,1,0.3500,1.0750,-0.1750*
%
%ADD70ROUNDEDRECTD70*%
G04:AMPARAMS|DCode=71|XSize=1.8mm|YSize=1.9mm|CornerRadius=0.225mm|HoleSize=0mm|Usage=FLASHONLY|Rotation=180.000|XOffset=0mm|YOffset=0mm|HoleType=Round|Shape=RoundedRectangle|*
%AMROUNDEDRECTD71*
21,1,1.8000,1.4500,0,0,180.0*
21,1,1.3500,1.9000,0,0,180.0*
1,1,0.4500,-0.6750,0.7250*
1,1,0.4500,0.6750,0.7250*
1,1,0.4500,0.6750,-0.7250*
1,1,0.4500,-0.6750,-0.7250*
%
%ADD71ROUNDEDRECTD71*%
G04:AMPARAMS|DCode=72|XSize=1.7mm|YSize=1.9mm|CornerRadius=0.2125mm|HoleSize=0mm|Usage=FLASHONLY|Rotation=180.000|XOffset=0mm|YOffset=0mm|HoleType=Round|Shape=RoundedRectangle|*
%AMROUNDEDRECTD72*
21,1,1.7000,1.4750,0,0,180.0*
21,1,1.2750,1.9000,0,0,180.0*
1,1,0.4250,-0.6375,0.7375*
1,1,0.4250,0.6375,0.7375*
1,1,0.4250,0.6375,-0.7375*
1,1,0.4250,-0.6375,-0.7375*
%
%ADD72ROUNDEDRECTD72*%
G04:AMPARAMS|DCode=73|XSize=2mm|YSize=2mm|CornerRadius=0.2mm|HoleSize=0mm|Usage=FLASHONLY|Rotation=90.000|XOffset=0mm|YOffset=0mm|HoleType=Round|Shape=RoundedRectangle|*
%AMROUNDEDRECTD73*
21,1,2.0000,1.6000,0,0,90.0*
21,1,1.6000,2.0000,0,0,90.0*
1,1,0.4000,0.8000,0.8000*
1,1,0.4000,0.8000,-0.8000*
1,1,0.4000,-0.8000,-0.8000*
1,1,0.4000,-0.8000,0.8000*
%
%ADD73ROUNDEDRECTD73*%
%ADD74C,1.8000*%
%ADD75C,5.0000*%
%ADD76C,0.2000*%
%ADD77C,0.2500*%
%ADD78C,0.2540*%
%ADD79C,0.1500*%
%ADD80C,0.1000*%
G36*
X23504Y330522D02*
X24106Y330120D01*
X24508Y329518D01*
X24649Y328808D01*
X24508Y328098D01*
X24106Y327496D01*
X23504Y327094D01*
X22794Y326952D01*
X22084Y327094D01*
X21482Y327496D01*
X21079Y328098D01*
X20938Y328808D01*
X21079Y329518D01*
X21482Y330120D01*
X22084Y330522D01*
X22794Y330664D01*
X23504Y330522D01*
D02*
G37*
G36*
X206018Y318921D02*
X206620Y318518D01*
X207022Y317916D01*
X207164Y317206D01*
X207022Y316496D01*
X206620Y315894D01*
X206018Y315492D01*
X205308Y315351D01*
X204598Y315492D01*
X203996Y315894D01*
X203594Y316496D01*
X203452Y317206D01*
X203594Y317916D01*
X203996Y318518D01*
X204598Y318921D01*
X205308Y319062D01*
X206018Y318921D01*
D02*
G37*
G36*
X280184Y372148D02*
X280660Y371000D01*
X280184Y369852D01*
X279036Y369376D01*
X277888Y369852D01*
X277413Y371000D01*
X277888Y372148D01*
X279036Y372624D01*
X280184Y372148D01*
D02*
G37*
G36*
X260284Y357073D02*
X260638Y356217D01*
X260284Y355361D01*
X259428Y355007D01*
X258572Y355361D01*
X258218Y356217D01*
X258572Y357073D01*
X259428Y357427D01*
X260284Y357073D01*
D02*
G37*
D76*
X200886Y277534D02*
G03*
X200886Y277534I-707J0D01*
G01*
X319207Y305095D02*
G03*
X319207Y305095I-50000J0D01*
G01*
X110886Y168000D02*
G03*
X110886Y168000I-707J0D01*
G01*
X165207Y192500D02*
G03*
X165207Y192500I-707J0D01*
G01*
X165243Y235284D02*
G03*
X165243Y235284I-707J0D01*
G01*
X322000Y-42500D02*
Y-17500D01*
Y-42500D02*
X398000D01*
Y-17500D01*
X322000D02*
X398000D01*
X309535Y386503D02*
Y393497D01*
X279538Y386503D02*
X309535D01*
X279538D02*
Y393497D01*
X309535D01*
X266250Y348500D02*
X424250D01*
Y171500D02*
Y348500D01*
X266250Y171500D02*
X424250D01*
X266250D02*
Y348500D01*
X232498Y372997D02*
X234496D01*
X234500Y327000D01*
X232500D02*
X234500D01*
X205504Y327003D02*
X207502D01*
X205500Y373000D02*
X205504Y327003D01*
X205500Y373000D02*
X207500D01*
X453000Y417000D02*
Y438000D01*
X403500D02*
X453000D01*
X387000Y421500D02*
X403500Y438000D01*
X387000Y417000D02*
Y421500D01*
X453000Y372000D02*
Y393000D01*
X403500Y372000D02*
X453000D01*
X387000Y388500D02*
X403500Y372000D01*
X387000Y388500D02*
Y393000D01*
X94036Y329546D02*
X115036D01*
Y379046D01*
X98536Y395546D02*
X115036Y379046D01*
X94036Y395546D02*
X98536D01*
X49036Y329546D02*
X70036D01*
X49036D02*
Y379046D01*
X65536Y395546D01*
X70036D01*
X147500Y433500D02*
X172500D01*
X147500Y378500D02*
X172500D01*
X-32997Y355998D02*
Y357996D01*
X13000Y358000D01*
Y356000D02*
Y358000D01*
X12997Y329004D02*
Y331002D01*
X-33000Y329000D02*
X12997Y329004D01*
X-33000Y329000D02*
Y331000D01*
X254669Y9000D02*
X279669D01*
X254669Y-42000D02*
Y9000D01*
Y-42000D02*
X279669D01*
Y9000D01*
X219207Y305095D02*
X319207D01*
X237707D02*
X250707D01*
X458200Y-42500D02*
Y-17500D01*
X407200D02*
X458200D01*
X407200Y-42500D02*
Y-17500D01*
Y-42500D02*
X458200D01*
X23000Y314500D02*
X48000D01*
Y365500D01*
X23000D02*
X48000D01*
X23000Y314500D02*
Y365500D01*
X317500Y366065D02*
Y391065D01*
Y366065D02*
X368500D01*
Y391065D01*
X317500D02*
X368500D01*
X120036Y133000D02*
X145036D01*
X120036Y82000D02*
Y133000D01*
Y82000D02*
X145036D01*
Y133000D01*
D77*
X120031Y-10500D02*
G03*
X120031Y-10500I-1031J0D01*
G01*
X75031Y750D02*
G03*
X75031Y750I-1031J0D01*
G01*
X381250Y418500D02*
G03*
X381250Y418500I-1250J0D01*
G01*
X96786Y402546D02*
G03*
X96786Y402546I-1250J0D01*
G01*
D78*
X284207Y305095D02*
G03*
X284207Y305095I-30000J0D01*
G01*
X46500Y-45250D02*
X146500D01*
D79*
X214679Y276034D02*
X220679D01*
Y248034D02*
Y276034D01*
X214679Y248034D02*
X220679D01*
X214679D02*
Y276034D01*
X139036Y318000D02*
X194536D01*
X139036Y369000D02*
X180036D01*
X125679Y297000D02*
X129679D01*
X125679Y283000D02*
X129679D01*
X124679Y138500D02*
Y166500D01*
Y138500D02*
X130679D01*
Y166500D01*
X124679D02*
X130679D01*
X166000Y207000D02*
X194000D01*
Y213000D01*
X166000D02*
X194000D01*
X166000Y207000D02*
Y213000D01*
X166036Y249784D02*
X194036D01*
Y255784D01*
X166036D02*
X194036D01*
X166036Y249784D02*
Y255784D01*
D80*
X154500Y156000D02*
X451500D01*
Y-16000D02*
Y156000D01*
X154500Y-16000D02*
X451500D01*
X154500D02*
Y156000D01*
X199010Y289782D02*
Y285783D01*
X201009D01*
X201675Y286450D01*
Y289116D01*
X201009Y289782D01*
X199010D01*
X203008Y285783D02*
X204341D01*
X203675D01*
Y289782D01*
X203008Y289116D01*
X464065Y-10742D02*
X464732Y-11409D01*
X466064D01*
X466731Y-10742D01*
Y-8076D01*
X466064Y-7410D01*
X464732D01*
X464065Y-8076D01*
X462732Y-7410D02*
X461399D01*
X462066D01*
Y-11409D01*
X462732Y-10742D01*
X459400D02*
X458734Y-11409D01*
X457401D01*
X456734Y-10742D01*
Y-10076D01*
X457401Y-9409D01*
X458067D01*
X457401D01*
X456734Y-8743D01*
Y-8076D01*
X457401Y-7410D01*
X458734D01*
X459400Y-8076D01*
X35224Y-19559D02*
Y-20892D01*
Y-20226D01*
X38556D01*
X39223Y-20892D01*
Y-21559D01*
X38556Y-22225D01*
X39223Y-15560D02*
Y-18226D01*
X36557Y-15560D01*
X35891D01*
X35224Y-16227D01*
Y-17560D01*
X35891Y-18226D01*
X35224Y-14228D02*
Y-11562D01*
X35891D01*
X38556Y-14228D01*
X39223D01*
X153888Y63633D02*
X157886D01*
Y61634D01*
X157220Y60967D01*
X155887D01*
X155221Y61634D01*
Y63633D01*
Y62300D02*
X153888Y60967D01*
Y59634D02*
Y58301D01*
Y58968D01*
X157886D01*
X157220Y59634D01*
X157886Y56302D02*
Y53636D01*
X157220D01*
X154554Y56302D01*
X153888D01*
X118448Y85611D02*
Y89610D01*
X120447D01*
X121114Y88943D01*
Y87610D01*
X120447Y86944D01*
X118448D01*
X119781D02*
X121114Y85611D01*
X122446D02*
X123779D01*
X123113D01*
Y89610D01*
X122446Y88943D01*
X128445Y89610D02*
X127112Y88943D01*
X125779Y87610D01*
Y86278D01*
X126445Y85611D01*
X127778D01*
X128445Y86278D01*
Y86944D01*
X127778Y87610D01*
X125779D01*
X146910Y43193D02*
Y39194D01*
X144910D01*
X144244Y39861D01*
Y41194D01*
X144910Y41860D01*
X146910D01*
X145577D02*
X144244Y43193D01*
X142911D02*
X141578D01*
X142245D01*
Y39194D01*
X142911Y39861D01*
X136913Y39194D02*
X139579D01*
Y41194D01*
X138246Y40527D01*
X137579D01*
X136913Y41194D01*
Y42527D01*
X137579Y43193D01*
X138912D01*
X139579Y42527D01*
X111470Y65171D02*
X107471D01*
Y67170D01*
X108138Y67837D01*
X109471D01*
X110137Y67170D01*
Y65171D01*
Y66504D02*
X111470Y67837D01*
Y69170D02*
Y70503D01*
Y69836D01*
X107471D01*
X108138Y69170D01*
X111470Y74501D02*
X107471D01*
X109471Y72502D01*
Y75168D01*
X523763Y314697D02*
Y310698D01*
X521763D01*
X521097Y311365D01*
Y312698D01*
X521763Y313364D01*
X523763D01*
X522430D02*
X521097Y314697D01*
X519764D02*
X518431D01*
X519098D01*
Y310698D01*
X519764Y311365D01*
X516432D02*
X515765Y310698D01*
X514433D01*
X513766Y311365D01*
Y312031D01*
X514433Y312698D01*
X515099D01*
X514433D01*
X513766Y313364D01*
Y314030D01*
X514433Y314697D01*
X515765D01*
X516432Y314030D01*
X452264Y10641D02*
Y11974D01*
Y11308D01*
X448931D01*
X448265Y11974D01*
Y12641D01*
X448931Y13307D01*
X448265Y6643D02*
Y9308D01*
X450931Y6643D01*
X451597D01*
X452264Y7309D01*
Y8642D01*
X451597Y9308D01*
X452264Y2644D02*
Y5310D01*
X450264D01*
X450931Y3977D01*
Y3310D01*
X450264Y2644D01*
X448931D01*
X448265Y3310D01*
Y4643D01*
X448931Y5310D01*
X477741Y46036D02*
X476408D01*
X477074D01*
Y42703D01*
X476408Y42037D01*
X475742D01*
X475075Y42703D01*
X479074Y42037D02*
X480407D01*
X479740D01*
Y46036D01*
X479074Y45369D01*
X484405Y42037D02*
Y46036D01*
X482406Y44036D01*
X485072D01*
X-32259Y446036D02*
X-33592D01*
X-32926D01*
Y442703D01*
X-33592Y442037D01*
X-34259D01*
X-34925Y442703D01*
X-30926Y442037D02*
X-29593D01*
X-30260D01*
Y446036D01*
X-30926Y445369D01*
X-24928Y446036D02*
X-26261Y445369D01*
X-27594Y444036D01*
Y442703D01*
X-26928Y442037D01*
X-25595D01*
X-24928Y442703D01*
Y443370D01*
X-25595Y444036D01*
X-27594D01*
X-32259Y46036D02*
X-33592D01*
X-32926D01*
Y42703D01*
X-33592Y42037D01*
X-34259D01*
X-34925Y42703D01*
X-30926Y42037D02*
X-29593D01*
X-30260D01*
Y46036D01*
X-30926Y45369D01*
X-27594Y46036D02*
X-24928D01*
Y45369D01*
X-27594Y42703D01*
Y42037D01*
X481245Y345939D02*
X483911D01*
X485244Y344606D01*
X483911Y343273D01*
X481245D01*
X483244D01*
Y345939D01*
X481245Y341940D02*
Y340607D01*
Y341274D01*
X485244D01*
X484577Y341940D01*
X266789Y369807D02*
X270121D01*
X270787Y370473D01*
Y371806D01*
X270121Y372473D01*
X266789D01*
X270787Y376471D02*
Y373806D01*
X268122Y376471D01*
X267455D01*
X266789Y375805D01*
Y374472D01*
X267455Y373806D01*
X255207Y370552D02*
Y367219D01*
X255874Y366553D01*
X257206D01*
X257873Y367219D01*
Y370552D01*
X259206Y369885D02*
X259872Y370552D01*
X261205D01*
X261871Y369885D01*
Y369219D01*
X261205Y368552D01*
X260539D01*
X261205D01*
X261871Y367886D01*
Y367219D01*
X261205Y366553D01*
X259872D01*
X259206Y367219D01*
X94497Y-12790D02*
Y-14123D01*
Y-13457D01*
X97830D01*
X98496Y-14123D01*
Y-14790D01*
X97830Y-15456D01*
X98496Y-11457D02*
Y-10124D01*
Y-10791D01*
X94497D01*
X95164Y-11457D01*
X97830Y-8125D02*
X98496Y-7459D01*
Y-6126D01*
X97830Y-5459D01*
X95164D01*
X94497Y-6126D01*
Y-7459D01*
X95164Y-8125D01*
X95830D01*
X96497Y-7459D01*
Y-5459D01*
X98249Y-27916D02*
Y-26583D01*
Y-27250D01*
X94916D01*
X94250Y-26583D01*
Y-25917D01*
X94916Y-25250D01*
X94250Y-29249D02*
Y-30582D01*
Y-29915D01*
X98249D01*
X97582Y-29249D01*
Y-32581D02*
X98249Y-33248D01*
Y-34581D01*
X97582Y-35247D01*
X96916D01*
X96249Y-34581D01*
X95583Y-35247D01*
X94916D01*
X94250Y-34581D01*
Y-33248D01*
X94916Y-32581D01*
X95583D01*
X96249Y-33248D01*
X96916Y-32581D01*
X97582D01*
X96249Y-33248D02*
Y-34581D01*
X143926Y-12749D02*
Y-14082D01*
Y-13416D01*
X147259D01*
X147925Y-14082D01*
Y-14749D01*
X147259Y-15415D01*
X147925Y-8751D02*
Y-11416D01*
X145259Y-8751D01*
X144593D01*
X143926Y-9417D01*
Y-10750D01*
X144593Y-11416D01*
X143926Y-4752D02*
X144593Y-6085D01*
X145926Y-7418D01*
X147259D01*
X147925Y-6751D01*
Y-5418D01*
X147259Y-4752D01*
X146592D01*
X145926Y-5418D01*
Y-7418D01*
X551623Y47301D02*
Y44635D01*
X550290Y43302D01*
X548957Y44635D01*
Y47301D01*
Y45302D01*
X551623D01*
X547624Y43969D02*
X546958Y43302D01*
X545625D01*
X544958Y43969D01*
Y44635D01*
X545625Y45302D01*
X546291D01*
X545625D01*
X544958Y45968D01*
Y46635D01*
X545625Y47301D01*
X546958D01*
X547624Y46635D01*
X477053Y440561D02*
X477720Y441228D01*
Y442561D01*
X477053Y443227D01*
X474387D01*
X473721Y442561D01*
Y441228D01*
X474387Y440561D01*
X473721Y439228D02*
Y437895D01*
Y438562D01*
X477720D01*
X477053Y439228D01*
Y435896D02*
X477720Y435230D01*
Y433897D01*
X477053Y433230D01*
X476387D01*
X475720Y433897D01*
X475054Y433230D01*
X474387D01*
X473721Y433897D01*
Y435230D01*
X474387Y435896D01*
X475054D01*
X475720Y435230D01*
X476387Y435896D01*
X477053D01*
X475720Y435230D02*
Y433897D01*
X117598Y305493D02*
X118264Y304826D01*
X119597D01*
X120263Y305493D01*
Y308158D01*
X119597Y308825D01*
X118264D01*
X117598Y308158D01*
X113599Y308825D02*
X116265D01*
X113599Y306159D01*
Y305493D01*
X114265Y304826D01*
X115598D01*
X116265Y305493D01*
X112266Y308825D02*
X110933D01*
X111600D01*
Y304826D01*
X112266Y305493D01*
X203363Y395782D02*
Y391783D01*
X205362D01*
X206029Y392449D01*
Y395115D01*
X205362Y395782D01*
X203363D01*
X210028D02*
X208695Y395115D01*
X207362Y393782D01*
Y392449D01*
X208028Y391783D01*
X209361D01*
X210028Y392449D01*
Y393116D01*
X209361Y393782D01*
X207362D01*
X125837Y451274D02*
Y447275D01*
X128503D01*
X129836D02*
X131169D01*
X130502D01*
Y451274D01*
X129836Y450607D01*
X111723Y316703D02*
X115055D01*
X115721Y317369D01*
Y318702D01*
X115055Y319369D01*
X111723D01*
X115721Y322701D02*
X111723D01*
X113722Y320702D01*
Y323368D01*
X103930Y280729D02*
X99931D01*
Y282728D01*
X100597Y283395D01*
X101930D01*
X102597Y282728D01*
Y280729D01*
Y282062D02*
X103930Y283395D01*
Y284728D02*
Y286061D01*
Y285394D01*
X99931D01*
X100597Y284728D01*
Y288060D02*
X99931Y288726D01*
Y290059D01*
X100597Y290726D01*
X101264D01*
X101930Y290059D01*
X102597Y290726D01*
X103263D01*
X103930Y290059D01*
Y288726D01*
X103263Y288060D01*
X102597D01*
X101930Y288726D01*
X101264Y288060D01*
X100597D01*
X101930Y288726D02*
Y290059D01*
X166731Y268791D02*
Y264792D01*
X164732D01*
X164065Y265459D01*
Y266792D01*
X164732Y267458D01*
X166731D01*
X165398D02*
X164065Y268791D01*
X162732D02*
X161399D01*
X162066D01*
Y264792D01*
X162732Y265459D01*
X159400Y268125D02*
X158734Y268791D01*
X157401D01*
X156734Y268125D01*
Y265459D01*
X157401Y264792D01*
X158734D01*
X159400Y265459D01*
Y266125D01*
X158734Y266792D01*
X156734D01*
X313041Y396269D02*
X309042D01*
Y398268D01*
X309709Y398935D01*
X311042D01*
X311708Y398268D01*
Y396269D01*
Y397602D02*
X313041Y398935D01*
Y402934D02*
Y400268D01*
X310375Y402934D01*
X309709D01*
X309042Y402267D01*
Y400934D01*
X309709Y400268D01*
Y404266D02*
X309042Y404933D01*
Y406266D01*
X309709Y406932D01*
X312375D01*
X313041Y406266D01*
Y404933D01*
X312375Y404266D01*
X309709D01*
X173269Y311209D02*
Y315208D01*
X175268D01*
X175935Y314541D01*
Y313208D01*
X175268Y312542D01*
X173269D01*
X174602D02*
X175935Y311209D01*
X179933D02*
X177268D01*
X179933Y313875D01*
Y314541D01*
X179267Y315208D01*
X177934D01*
X177268Y314541D01*
X181266Y311209D02*
X182599D01*
X181933D01*
Y315208D01*
X181266Y314541D01*
X244201Y382595D02*
X243535Y383262D01*
X242202D01*
X241535Y382595D01*
Y379929D01*
X242202Y379263D01*
X243535D01*
X244201Y379929D01*
X248200Y379263D02*
X245534D01*
X248200Y381929D01*
Y382595D01*
X247533Y383262D01*
X246201D01*
X245534Y382595D01*
X252199Y383262D02*
X249533D01*
Y381262D01*
X250866Y381929D01*
X251532D01*
X252199Y381262D01*
Y379929D01*
X251532Y379263D01*
X250199D01*
X249533Y379929D01*
X481245Y245923D02*
X483911D01*
X485244Y244590D01*
X483911Y243257D01*
X481245D01*
X483244D01*
Y245923D01*
X481245Y239925D02*
X485244D01*
X483244Y241924D01*
Y239258D01*
X354052Y448311D02*
X353385Y448978D01*
X352052D01*
X351386Y448311D01*
Y445646D01*
X352052Y444979D01*
X353385D01*
X354052Y445646D01*
X355385Y448978D02*
X358050D01*
Y448311D01*
X355385Y445646D01*
Y444979D01*
X269854Y352422D02*
X270520Y351756D01*
X271853D01*
X272520Y352422D01*
Y355088D01*
X271853Y355755D01*
X270520D01*
X269854Y355088D01*
X268521Y352422D02*
X267855Y351756D01*
X266522D01*
X265855Y352422D01*
Y353089D01*
X266522Y353755D01*
X265855Y354422D01*
Y355088D01*
X266522Y355755D01*
X267855D01*
X268521Y355088D01*
Y354422D01*
X267855Y353755D01*
X268521Y353089D01*
Y352422D01*
X267855Y353755D02*
X266522D01*
X273005Y453118D02*
X272339Y453784D01*
X271006D01*
X270339Y453118D01*
Y450452D01*
X271006Y449785D01*
X272339D01*
X273005Y450452D01*
X274338D02*
X275005Y449785D01*
X276337D01*
X277004Y450452D01*
Y453118D01*
X276337Y453784D01*
X275005D01*
X274338Y453118D01*
Y452451D01*
X275005Y451785D01*
X277004D01*
X295935Y451836D02*
X295268Y452502D01*
X293936D01*
X293269Y451836D01*
Y449170D01*
X293936Y448503D01*
X295268D01*
X295935Y449170D01*
X297268Y448503D02*
X298601D01*
X297934D01*
Y452502D01*
X297268Y451836D01*
X300600D02*
X301266Y452502D01*
X302599D01*
X303266Y451836D01*
Y449170D01*
X302599Y448503D01*
X301266D01*
X300600Y449170D01*
Y451836D01*
X234119Y396144D02*
X233453Y395477D01*
Y394144D01*
X234119Y393478D01*
X236785D01*
X237451Y394144D01*
Y395477D01*
X236785Y396144D01*
X237451Y397477D02*
Y398810D01*
Y398143D01*
X233453D01*
X234119Y397477D01*
X237451Y400809D02*
Y402142D01*
Y401475D01*
X233453D01*
X234119Y400809D01*
X378602Y398213D02*
X379268Y397546D01*
X380601D01*
X381267Y398213D01*
Y400879D01*
X380601Y401545D01*
X379268D01*
X378602Y400879D01*
X374603Y401545D02*
X377269D01*
X374603Y398879D01*
Y398213D01*
X375269Y397546D01*
X376602D01*
X377269Y398213D01*
X373270D02*
X372603Y397546D01*
X371271D01*
X370604Y398213D01*
Y398879D01*
X371271Y399546D01*
X370604Y400212D01*
Y400879D01*
X371271Y401545D01*
X372603D01*
X373270Y400879D01*
Y400212D01*
X372603Y399546D01*
X373270Y398879D01*
Y398213D01*
X372603Y399546D02*
X371271D01*
X-55782Y326863D02*
X-51783D01*
Y328862D01*
X-52449Y329529D01*
X-55115D01*
X-55782Y328862D01*
Y326863D01*
Y333527D02*
Y330862D01*
X-53782D01*
X-54449Y332195D01*
Y332861D01*
X-53782Y333527D01*
X-52449D01*
X-51783Y332861D01*
Y331528D01*
X-52449Y330862D01*
X145238Y68068D02*
X146571D01*
X145904D01*
Y71400D01*
X146571Y72067D01*
X147237D01*
X147903Y71400D01*
X141239Y72067D02*
X143905D01*
X141239Y69401D01*
Y68735D01*
X141905Y68068D01*
X143238D01*
X143905Y68735D01*
X382432Y391266D02*
Y392599D01*
Y391933D01*
X379099D01*
X378433Y392599D01*
Y393266D01*
X379099Y393932D01*
X382432Y387267D02*
Y389933D01*
X380432D01*
X381099Y388600D01*
Y387934D01*
X380432Y387267D01*
X379099D01*
X378433Y387934D01*
Y389267D01*
X379099Y389933D01*
X22799Y379432D02*
X21466D01*
X22132D01*
Y376100D01*
X21466Y375433D01*
X20800D01*
X20133Y376100D01*
X24132Y375433D02*
X25465D01*
X24798D01*
Y379432D01*
X24132Y378765D01*
X27464D02*
X28130Y379432D01*
X29463D01*
X30130Y378765D01*
Y376100D01*
X29463Y375433D01*
X28130D01*
X27464Y376100D01*
Y378765D01*
X393268Y-42701D02*
Y-44034D01*
Y-43368D01*
X396601D01*
X397267Y-44034D01*
Y-44700D01*
X396601Y-45367D01*
X397267Y-41368D02*
Y-40035D01*
Y-40702D01*
X393268D01*
X393935Y-41368D01*
X393268Y-35370D02*
Y-38036D01*
X395268D01*
X394601Y-36703D01*
Y-36037D01*
X395268Y-35370D01*
X396601D01*
X397267Y-36037D01*
Y-37370D01*
X396601Y-38036D01*
X208171Y257850D02*
Y256517D01*
Y257183D01*
X211504D01*
X212170Y256517D01*
Y255850D01*
X211504Y255184D01*
X212170Y261848D02*
Y259182D01*
X209504Y261848D01*
X208838D01*
X208171Y261182D01*
Y259849D01*
X208838Y259182D01*
Y263181D02*
X208171Y263848D01*
Y265181D01*
X208838Y265847D01*
X211504D01*
X212170Y265181D01*
Y263848D01*
X211504Y263181D01*
X208838D01*
X279870Y-55932D02*
X281203D01*
X280536D01*
Y-52599D01*
X281203Y-51933D01*
X281869D01*
X282535Y-52599D01*
X275871Y-51933D02*
X278537D01*
X275871Y-54599D01*
Y-55265D01*
X276537Y-55932D01*
X277870D01*
X278537Y-55265D01*
X274538Y-52599D02*
X273872Y-51933D01*
X272539D01*
X271872Y-52599D01*
Y-55265D01*
X272539Y-55932D01*
X273872D01*
X274538Y-55265D01*
Y-54599D01*
X273872Y-53932D01*
X271872D01*
X155621Y236781D02*
X152955D01*
X152289Y236115D01*
Y234782D01*
X152955Y234115D01*
X155621D01*
X156287Y234782D01*
Y236115D01*
X154955Y235448D02*
X156287Y236781D01*
Y236115D02*
X155621Y236781D01*
X156287Y238114D02*
Y239447D01*
Y238780D01*
X152289D01*
X152955Y238114D01*
X155585Y193997D02*
X152919D01*
X152252Y193330D01*
Y191998D01*
X152919Y191331D01*
X155585D01*
X156251Y191998D01*
Y193330D01*
X154918Y192664D02*
X156251Y193997D01*
Y193330D02*
X155585Y193997D01*
X152919Y195330D02*
X152252Y195996D01*
Y197329D01*
X152919Y197995D01*
X153585D01*
X154252Y197329D01*
Y196663D01*
Y197329D01*
X154918Y197995D01*
X155585D01*
X156251Y197329D01*
Y195996D01*
X155585Y195330D01*
X111676Y176915D02*
Y179581D01*
X111009Y180248D01*
X109676D01*
X109010Y179581D01*
Y176915D01*
X109676Y176249D01*
X111009D01*
X110343Y177582D02*
X111676Y176249D01*
X111009D02*
X111676Y176915D01*
X115008Y176249D02*
Y180248D01*
X113008Y178248D01*
X115674D01*
X143245Y200445D02*
X147244D01*
Y198445D01*
X146578Y197779D01*
X145245D01*
X144578Y198445D01*
Y200445D01*
Y199112D02*
X143245Y197779D01*
Y196446D02*
Y195113D01*
Y195779D01*
X147244D01*
X146578Y196446D01*
X165638Y264515D02*
X169636D01*
Y262516D01*
X168970Y261849D01*
X167637D01*
X166971Y262516D01*
Y264515D01*
Y263182D02*
X165638Y261849D01*
Y257851D02*
Y260517D01*
X168304Y257851D01*
X168970D01*
X169636Y258517D01*
Y259850D01*
X168970Y260517D01*
X146157Y223673D02*
Y227671D01*
X148156D01*
X148823Y227005D01*
Y225672D01*
X148156Y225006D01*
X146157D01*
X147490D02*
X148823Y223673D01*
X150155Y227005D02*
X150822Y227671D01*
X152155D01*
X152821Y227005D01*
Y226339D01*
X152155Y225672D01*
X151488D01*
X152155D01*
X152821Y225006D01*
Y224339D01*
X152155Y223673D01*
X150822D01*
X150155Y224339D01*
X146157Y254324D02*
Y258323D01*
X148156D01*
X148823Y257656D01*
Y256324D01*
X148156Y255657D01*
X146157D01*
X147490D02*
X148823Y254324D01*
X152155D02*
Y258323D01*
X150155Y256324D01*
X152821D01*
X203798Y188981D02*
X207797D01*
Y186982D01*
X207130Y186315D01*
X205798D01*
X205131Y186982D01*
Y188981D01*
Y187648D02*
X203798Y186315D01*
X207797Y182316D02*
Y184982D01*
X205798D01*
X206464Y183649D01*
Y182983D01*
X205798Y182316D01*
X204464D01*
X203798Y182983D01*
Y184316D01*
X204464Y184982D01*
X24709Y325249D02*
X28708D01*
Y323250D01*
X28041Y322584D01*
X26708D01*
X26042Y323250D01*
Y325249D01*
Y323917D02*
X24709Y322584D01*
X28708Y318585D02*
X28041Y319918D01*
X26708Y321251D01*
X25375D01*
X24709Y320584D01*
Y319251D01*
X25375Y318585D01*
X26042D01*
X26708Y319251D01*
Y321251D01*
X143245Y184231D02*
X147244D01*
Y182232D01*
X146578Y181565D01*
X145245D01*
X144578Y182232D01*
Y184231D01*
Y182898D02*
X143245Y181565D01*
X147244Y180232D02*
Y177567D01*
X146578D01*
X143912Y180232D01*
X143245D01*
X367805Y401209D02*
Y405208D01*
X369805D01*
X370471Y404541D01*
Y403208D01*
X369805Y402542D01*
X367805D01*
X369138D02*
X370471Y401209D01*
X371804Y404541D02*
X372471Y405208D01*
X373803D01*
X374470Y404541D01*
Y403875D01*
X373803Y403208D01*
X374470Y402542D01*
Y401875D01*
X373803Y401209D01*
X372471D01*
X371804Y401875D01*
Y402542D01*
X372471Y403208D01*
X371804Y403875D01*
Y404541D01*
X372471Y403208D02*
X373803D01*
X173709Y184231D02*
X177708D01*
Y182232D01*
X177041Y181565D01*
X175708D01*
X175042Y182232D01*
Y184231D01*
Y182898D02*
X173709Y181565D01*
X174375Y180232D02*
X173709Y179566D01*
Y178233D01*
X174375Y177567D01*
X177041D01*
X177708Y178233D01*
Y179566D01*
X177041Y180232D01*
X176375D01*
X175708Y179566D01*
Y177567D01*
X239269Y288993D02*
Y292992D01*
X241268D01*
X241935Y292325D01*
Y290993D01*
X241268Y290326D01*
X239269D01*
X240602D02*
X241935Y288993D01*
X243268D02*
X244601D01*
X243934D01*
Y292992D01*
X243268Y292325D01*
X249266Y288993D02*
X246600D01*
X249266Y291659D01*
Y292325D01*
X248599Y292992D01*
X247266D01*
X246600Y292325D01*
M02*
