%FSLAX44Y44*%
%MOMM*%
G71*
G01*
G75*
G04 Layer_Physical_Order=1*
G04 Layer_Color=191*
G04:AMPARAMS|DCode=10|XSize=1.05mm|YSize=0.65mm|CornerRadius=0.2015mm|HoleSize=0mm|Usage=FLASHONLY|Rotation=0.000|XOffset=0mm|YOffset=0mm|HoleType=Round|Shape=RoundedRectangle|*
%AMROUNDEDRECTD10*
21,1,1.0500,0.2470,0,0,0.0*
21,1,0.6470,0.6500,0,0,0.0*
1,1,0.4030,0.3235,-0.1235*
1,1,0.4030,-0.3235,-0.1235*
1,1,0.4030,-0.3235,0.1235*
1,1,0.4030,0.3235,0.1235*
%
%ADD10ROUNDEDRECTD10*%
G04:AMPARAMS|DCode=11|XSize=1mm|YSize=0.95mm|CornerRadius=0.1995mm|HoleSize=0mm|Usage=FLASHONLY|Rotation=0.000|XOffset=0mm|YOffset=0mm|HoleType=Round|Shape=RoundedRectangle|*
%AMROUNDEDRECTD11*
21,1,1.0000,0.5510,0,0,0.0*
21,1,0.6010,0.9500,0,0,0.0*
1,1,0.3990,0.3005,-0.2755*
1,1,0.3990,-0.3005,-0.2755*
1,1,0.3990,-0.3005,0.2755*
1,1,0.3990,0.3005,0.2755*
%
%ADD11ROUNDEDRECTD11*%
%ADD12R,0.4000X1.6000*%
G04:AMPARAMS|DCode=13|XSize=1mm|YSize=0.9mm|CornerRadius=0.198mm|HoleSize=0mm|Usage=FLASHONLY|Rotation=270.000|XOffset=0mm|YOffset=0mm|HoleType=Round|Shape=RoundedRectangle|*
%AMROUNDEDRECTD13*
21,1,1.0000,0.5040,0,0,270.0*
21,1,0.6040,0.9000,0,0,270.0*
1,1,0.3960,-0.2520,-0.3020*
1,1,0.3960,-0.2520,0.3020*
1,1,0.3960,0.2520,0.3020*
1,1,0.3960,0.2520,-0.3020*
%
%ADD13ROUNDEDRECTD13*%
G04:AMPARAMS|DCode=14|XSize=1mm|YSize=0.9mm|CornerRadius=0.198mm|HoleSize=0mm|Usage=FLASHONLY|Rotation=0.000|XOffset=0mm|YOffset=0mm|HoleType=Round|Shape=RoundedRectangle|*
%AMROUNDEDRECTD14*
21,1,1.0000,0.5040,0,0,0.0*
21,1,0.6040,0.9000,0,0,0.0*
1,1,0.3960,0.3020,-0.2520*
1,1,0.3960,-0.3020,-0.2520*
1,1,0.3960,-0.3020,0.2520*
1,1,0.3960,0.3020,0.2520*
%
%ADD14ROUNDEDRECTD14*%
G04:AMPARAMS|DCode=15|XSize=0.67mm|YSize=0.67mm|CornerRadius=0.1508mm|HoleSize=0mm|Usage=FLASHONLY|Rotation=180.000|XOffset=0mm|YOffset=0mm|HoleType=Round|Shape=RoundedRectangle|*
%AMROUNDEDRECTD15*
21,1,0.6700,0.3685,0,0,180.0*
21,1,0.3685,0.6700,0,0,180.0*
1,1,0.3015,-0.1843,0.1843*
1,1,0.3015,0.1843,0.1843*
1,1,0.3015,0.1843,-0.1843*
1,1,0.3015,-0.1843,-0.1843*
%
%ADD15ROUNDEDRECTD15*%
G04:AMPARAMS|DCode=16|XSize=2.5mm|YSize=2mm|CornerRadius=0.2mm|HoleSize=0mm|Usage=FLASHONLY|Rotation=90.000|XOffset=0mm|YOffset=0mm|HoleType=Round|Shape=RoundedRectangle|*
%AMROUNDEDRECTD16*
21,1,2.5000,1.6000,0,0,90.0*
21,1,2.1000,2.0000,0,0,90.0*
1,1,0.4000,0.8000,1.0500*
1,1,0.4000,0.8000,-1.0500*
1,1,0.4000,-0.8000,-1.0500*
1,1,0.4000,-0.8000,1.0500*
%
%ADD16ROUNDEDRECTD16*%
G04:AMPARAMS|DCode=17|XSize=2.3mm|YSize=0.5mm|CornerRadius=0.2mm|HoleSize=0mm|Usage=FLASHONLY|Rotation=90.000|XOffset=0mm|YOffset=0mm|HoleType=Round|Shape=RoundedRectangle|*
%AMROUNDEDRECTD17*
21,1,2.3000,0.1000,0,0,90.0*
21,1,1.9000,0.5000,0,0,90.0*
1,1,0.4000,0.0500,0.9500*
1,1,0.4000,0.0500,-0.9500*
1,1,0.4000,-0.0500,-0.9500*
1,1,0.4000,-0.0500,0.9500*
%
%ADD17ROUNDEDRECTD17*%
G04:AMPARAMS|DCode=18|XSize=1.1mm|YSize=0.6mm|CornerRadius=0.201mm|HoleSize=0mm|Usage=FLASHONLY|Rotation=90.000|XOffset=0mm|YOffset=0mm|HoleType=Round|Shape=RoundedRectangle|*
%AMROUNDEDRECTD18*
21,1,1.1000,0.1980,0,0,90.0*
21,1,0.6980,0.6000,0,0,90.0*
1,1,0.4020,0.0990,0.3490*
1,1,0.4020,0.0990,-0.3490*
1,1,0.4020,-0.0990,-0.3490*
1,1,0.4020,-0.0990,0.3490*
%
%ADD18ROUNDEDRECTD18*%
%ADD19O,0.7000X2.5000*%
%ADD20O,2.5000X0.7000*%
%ADD21R,0.4000X1.4000*%
G04:AMPARAMS|DCode=22|XSize=1.8mm|YSize=1.9mm|CornerRadius=0.45mm|HoleSize=0mm|Usage=FLASHONLY|Rotation=0.000|XOffset=0mm|YOffset=0mm|HoleType=Round|Shape=RoundedRectangle|*
%AMROUNDEDRECTD22*
21,1,1.8000,1.0000,0,0,0.0*
21,1,0.9000,1.9000,0,0,0.0*
1,1,0.9000,0.4500,-0.5000*
1,1,0.9000,-0.4500,-0.5000*
1,1,0.9000,-0.4500,0.5000*
1,1,0.9000,0.4500,0.5000*
%
%ADD22ROUNDEDRECTD22*%
G04:AMPARAMS|DCode=23|XSize=1.2mm|YSize=2mm|CornerRadius=0.3mm|HoleSize=0mm|Usage=FLASHONLY|Rotation=270.000|XOffset=0mm|YOffset=0mm|HoleType=Round|Shape=RoundedRectangle|*
%AMROUNDEDRECTD23*
21,1,1.2000,1.4000,0,0,270.0*
21,1,0.6000,2.0000,0,0,270.0*
1,1,0.6000,-0.7000,-0.3000*
1,1,0.6000,-0.7000,0.3000*
1,1,0.6000,0.7000,0.3000*
1,1,0.6000,0.7000,-0.3000*
%
%ADD23ROUNDEDRECTD23*%
G04:AMPARAMS|DCode=24|XSize=0.7mm|YSize=1mm|CornerRadius=0.175mm|HoleSize=0mm|Usage=FLASHONLY|Rotation=90.000|XOffset=0mm|YOffset=0mm|HoleType=Round|Shape=RoundedRectangle|*
%AMROUNDEDRECTD24*
21,1,0.7000,0.6500,0,0,90.0*
21,1,0.3500,1.0000,0,0,90.0*
1,1,0.3500,0.3250,0.1750*
1,1,0.3500,0.3250,-0.1750*
1,1,0.3500,-0.3250,-0.1750*
1,1,0.3500,-0.3250,0.1750*
%
%ADD24ROUNDEDRECTD24*%
G04:AMPARAMS|DCode=25|XSize=0.8mm|YSize=2mm|CornerRadius=0.2mm|HoleSize=0mm|Usage=FLASHONLY|Rotation=90.000|XOffset=0mm|YOffset=0mm|HoleType=Round|Shape=RoundedRectangle|*
%AMROUNDEDRECTD25*
21,1,0.8000,1.6000,0,0,90.0*
21,1,0.4000,2.0000,0,0,90.0*
1,1,0.4000,0.8000,0.2000*
1,1,0.4000,0.8000,-0.2000*
1,1,0.4000,-0.8000,-0.2000*
1,1,0.4000,-0.8000,0.2000*
%
%ADD25ROUNDEDRECTD25*%
G04:AMPARAMS|DCode=26|XSize=0.7mm|YSize=1.5mm|CornerRadius=0.175mm|HoleSize=0mm|Usage=FLASHONLY|Rotation=90.000|XOffset=0mm|YOffset=0mm|HoleType=Round|Shape=RoundedRectangle|*
%AMROUNDEDRECTD26*
21,1,0.7000,1.1500,0,0,90.0*
21,1,0.3500,1.5000,0,0,90.0*
1,1,0.3500,0.5750,0.1750*
1,1,0.3500,0.5750,-0.1750*
1,1,0.3500,-0.5750,-0.1750*
1,1,0.3500,-0.5750,0.1750*
%
%ADD26ROUNDEDRECTD26*%
%ADD27O,0.5000X2.5000*%
%ADD28O,2.5000X0.5000*%
G04:AMPARAMS|DCode=29|XSize=2.5mm|YSize=2mm|CornerRadius=0.25mm|HoleSize=0mm|Usage=FLASHONLY|Rotation=90.000|XOffset=0mm|YOffset=0mm|HoleType=Round|Shape=RoundedRectangle|*
%AMROUNDEDRECTD29*
21,1,2.5000,1.5000,0,0,90.0*
21,1,2.0000,2.0000,0,0,90.0*
1,1,0.5000,0.7500,1.0000*
1,1,0.5000,0.7500,-1.0000*
1,1,0.5000,-0.7500,-1.0000*
1,1,0.5000,-0.7500,1.0000*
%
%ADD29ROUNDEDRECTD29*%
G04:AMPARAMS|DCode=30|XSize=2.5mm|YSize=1.7mm|CornerRadius=0.204mm|HoleSize=0mm|Usage=FLASHONLY|Rotation=90.000|XOffset=0mm|YOffset=0mm|HoleType=Round|Shape=RoundedRectangle|*
%AMROUNDEDRECTD30*
21,1,2.5000,1.2920,0,0,90.0*
21,1,2.0920,1.7000,0,0,90.0*
1,1,0.4080,0.6460,1.0460*
1,1,0.4080,0.6460,-1.0460*
1,1,0.4080,-0.6460,-1.0460*
1,1,0.4080,-0.6460,1.0460*
%
%ADD30ROUNDEDRECTD30*%
G04:AMPARAMS|DCode=31|XSize=3.3mm|YSize=1.65mm|CornerRadius=0.198mm|HoleSize=0mm|Usage=FLASHONLY|Rotation=0.000|XOffset=0mm|YOffset=0mm|HoleType=Round|Shape=RoundedRectangle|*
%AMROUNDEDRECTD31*
21,1,3.3000,1.2540,0,0,0.0*
21,1,2.9040,1.6500,0,0,0.0*
1,1,0.3960,1.4520,-0.6270*
1,1,0.3960,-1.4520,-0.6270*
1,1,0.3960,-1.4520,0.6270*
1,1,0.3960,1.4520,0.6270*
%
%ADD31ROUNDEDRECTD31*%
G04:AMPARAMS|DCode=32|XSize=3.3mm|YSize=1.65mm|CornerRadius=0.198mm|HoleSize=0mm|Usage=FLASHONLY|Rotation=270.000|XOffset=0mm|YOffset=0mm|HoleType=Round|Shape=RoundedRectangle|*
%AMROUNDEDRECTD32*
21,1,3.3000,1.2540,0,0,270.0*
21,1,2.9040,1.6500,0,0,270.0*
1,1,0.3960,-0.6270,-1.4520*
1,1,0.3960,-0.6270,1.4520*
1,1,0.3960,0.6270,1.4520*
1,1,0.3960,0.6270,-1.4520*
%
%ADD32ROUNDEDRECTD32*%
%ADD33O,1.5500X0.6000*%
G04:AMPARAMS|DCode=34|XSize=5.2mm|YSize=2mm|CornerRadius=0.25mm|HoleSize=0mm|Usage=FLASHONLY|Rotation=90.000|XOffset=0mm|YOffset=0mm|HoleType=Round|Shape=RoundedRectangle|*
%AMROUNDEDRECTD34*
21,1,5.2000,1.5000,0,0,90.0*
21,1,4.7000,2.0000,0,0,90.0*
1,1,0.5000,0.7500,2.3500*
1,1,0.5000,0.7500,-2.3500*
1,1,0.5000,-0.7500,-2.3500*
1,1,0.5000,-0.7500,2.3500*
%
%ADD34ROUNDEDRECTD34*%
G04:AMPARAMS|DCode=35|XSize=1.45mm|YSize=0.95mm|CornerRadius=0.1995mm|HoleSize=0mm|Usage=FLASHONLY|Rotation=270.000|XOffset=0mm|YOffset=0mm|HoleType=Round|Shape=RoundedRectangle|*
%AMROUNDEDRECTD35*
21,1,1.4500,0.5510,0,0,270.0*
21,1,1.0510,0.9500,0,0,270.0*
1,1,0.3990,-0.2755,-0.5255*
1,1,0.3990,-0.2755,0.5255*
1,1,0.3990,0.2755,0.5255*
1,1,0.3990,0.2755,-0.5255*
%
%ADD35ROUNDEDRECTD35*%
G04:AMPARAMS|DCode=36|XSize=2.5mm|YSize=1.7mm|CornerRadius=0.204mm|HoleSize=0mm|Usage=FLASHONLY|Rotation=180.000|XOffset=0mm|YOffset=0mm|HoleType=Round|Shape=RoundedRectangle|*
%AMROUNDEDRECTD36*
21,1,2.5000,1.2920,0,0,180.0*
21,1,2.0920,1.7000,0,0,180.0*
1,1,0.4080,-1.0460,0.6460*
1,1,0.4080,1.0460,0.6460*
1,1,0.4080,1.0460,-0.6460*
1,1,0.4080,-1.0460,-0.6460*
%
%ADD36ROUNDEDRECTD36*%
G04:AMPARAMS|DCode=37|XSize=1.45mm|YSize=1.15mm|CornerRadius=0.2013mm|HoleSize=0mm|Usage=FLASHONLY|Rotation=180.000|XOffset=0mm|YOffset=0mm|HoleType=Round|Shape=RoundedRectangle|*
%AMROUNDEDRECTD37*
21,1,1.4500,0.7475,0,0,180.0*
21,1,1.0475,1.1500,0,0,180.0*
1,1,0.4025,-0.5238,0.3738*
1,1,0.4025,0.5238,0.3738*
1,1,0.4025,0.5238,-0.3738*
1,1,0.4025,-0.5238,-0.3738*
%
%ADD37ROUNDEDRECTD37*%
G04:AMPARAMS|DCode=38|XSize=1mm|YSize=0.95mm|CornerRadius=0.1995mm|HoleSize=0mm|Usage=FLASHONLY|Rotation=270.000|XOffset=0mm|YOffset=0mm|HoleType=Round|Shape=RoundedRectangle|*
%AMROUNDEDRECTD38*
21,1,1.0000,0.5510,0,0,270.0*
21,1,0.6010,0.9500,0,0,270.0*
1,1,0.3990,-0.2755,-0.3005*
1,1,0.3990,-0.2755,0.3005*
1,1,0.3990,0.2755,0.3005*
1,1,0.3990,0.2755,-0.3005*
%
%ADD38ROUNDEDRECTD38*%
G04:AMPARAMS|DCode=39|XSize=1.05mm|YSize=0.65mm|CornerRadius=0.2015mm|HoleSize=0mm|Usage=FLASHONLY|Rotation=90.000|XOffset=0mm|YOffset=0mm|HoleType=Round|Shape=RoundedRectangle|*
%AMROUNDEDRECTD39*
21,1,1.0500,0.2470,0,0,90.0*
21,1,0.6470,0.6500,0,0,90.0*
1,1,0.4030,0.1235,0.3235*
1,1,0.4030,0.1235,-0.3235*
1,1,0.4030,-0.1235,-0.3235*
1,1,0.4030,-0.1235,0.3235*
%
%ADD39ROUNDEDRECTD39*%
%ADD40C,2.0000*%
%ADD41C,0.5000*%
%ADD42C,0.7000*%
%ADD43C,0.4000*%
%ADD44C,0.6000*%
%ADD45C,2.2000*%
%ADD46O,2.0000X1.3000*%
%ADD47C,0.5000*%
G04:AMPARAMS|DCode=48|XSize=0.9mm|YSize=2.8mm|CornerRadius=0.225mm|HoleSize=0mm|Usage=FLASHONLY|Rotation=90.000|XOffset=0mm|YOffset=0mm|HoleType=Round|Shape=RoundedRectangle|*
%AMROUNDEDRECTD48*
21,1,0.9000,2.3500,0,0,90.0*
21,1,0.4500,2.8000,0,0,90.0*
1,1,0.4500,1.1750,0.2250*
1,1,0.4500,1.1750,-0.2250*
1,1,0.4500,-1.1750,-0.2250*
1,1,0.4500,-1.1750,0.2250*
%
%ADD48ROUNDEDRECTD48*%
G04:AMPARAMS|DCode=49|XSize=1.3mm|YSize=1.3mm|CornerRadius=0.1625mm|HoleSize=0mm|Usage=FLASHONLY|Rotation=0.000|XOffset=0mm|YOffset=0mm|HoleType=Round|Shape=RoundedRectangle|*
%AMROUNDEDRECTD49*
21,1,1.3000,0.9750,0,0,0.0*
21,1,0.9750,1.3000,0,0,0.0*
1,1,0.3250,0.4875,-0.4875*
1,1,0.3250,-0.4875,-0.4875*
1,1,0.3250,-0.4875,0.4875*
1,1,0.3250,0.4875,0.4875*
%
%ADD49ROUNDEDRECTD49*%
%ADD50C,1.3000*%
%ADD51C,7.0000*%
%ADD52C,0.1000*%
G04:AMPARAMS|DCode=53|XSize=1mm|YSize=1mm|CornerRadius=0.25mm|HoleSize=0mm|Usage=FLASHONLY|Rotation=180.000|XOffset=0mm|YOffset=0mm|HoleType=Round|Shape=RoundedRectangle|*
%AMROUNDEDRECTD53*
21,1,1.0000,0.5000,0,0,180.0*
21,1,0.5000,1.0000,0,0,180.0*
1,1,0.5000,-0.2500,0.2500*
1,1,0.5000,0.2500,0.2500*
1,1,0.5000,0.2500,-0.2500*
1,1,0.5000,-0.2500,-0.2500*
%
%ADD53ROUNDEDRECTD53*%
G04:AMPARAMS|DCode=54|XSize=1.4mm|YSize=1.4mm|CornerRadius=0.175mm|HoleSize=0mm|Usage=FLASHONLY|Rotation=270.000|XOffset=0mm|YOffset=0mm|HoleType=Round|Shape=RoundedRectangle|*
%AMROUNDEDRECTD54*
21,1,1.4000,1.0500,0,0,270.0*
21,1,1.0500,1.4000,0,0,270.0*
1,1,0.3500,-0.5250,-0.5250*
1,1,0.3500,-0.5250,0.5250*
1,1,0.3500,0.5250,0.5250*
1,1,0.3500,0.5250,-0.5250*
%
%ADD54ROUNDEDRECTD54*%
%ADD55C,2.5000*%
%ADD56C,2.0000*%
%ADD57C,1.6000*%
%ADD58R,1.6000X1.6000*%
%ADD59C,1.8000*%
G04:AMPARAMS|DCode=60|XSize=1.85mm|YSize=1.85mm|CornerRadius=0.2313mm|HoleSize=0mm|Usage=FLASHONLY|Rotation=180.000|XOffset=0mm|YOffset=0mm|HoleType=Round|Shape=RoundedRectangle|*
%AMROUNDEDRECTD60*
21,1,1.8500,1.3875,0,0,180.0*
21,1,1.3875,1.8500,0,0,180.0*
1,1,0.4625,-0.6937,0.6937*
1,1,0.4625,0.6937,0.6937*
1,1,0.4625,0.6937,-0.6937*
1,1,0.4625,-0.6937,-0.6937*
%
%ADD60ROUNDEDRECTD60*%
%ADD61C,1.8500*%
G04:AMPARAMS|DCode=62|XSize=1.6mm|YSize=1.6mm|CornerRadius=0.2mm|HoleSize=0mm|Usage=FLASHONLY|Rotation=270.000|XOffset=0mm|YOffset=0mm|HoleType=Round|Shape=RoundedRectangle|*
%AMROUNDEDRECTD62*
21,1,1.6000,1.2000,0,0,270.0*
21,1,1.2000,1.6000,0,0,270.0*
1,1,0.4000,-0.6000,-0.6000*
1,1,0.4000,-0.6000,0.6000*
1,1,0.4000,0.6000,0.6000*
1,1,0.4000,0.6000,-0.6000*
%
%ADD62ROUNDEDRECTD62*%
%ADD63R,2.5000X5.0000*%
%ADD64R,5.0000X2.5000*%
%ADD65C,1.0000*%
G36*
X181007Y100107D02*
X182470Y98986D01*
X184173Y98280D01*
X186000Y98040D01*
X200000D01*
X201827Y98280D01*
X203530Y98986D01*
X203805Y99196D01*
X204944Y98635D01*
Y92165D01*
X203805Y91604D01*
X203530Y91814D01*
X201827Y92520D01*
X200000Y92760D01*
X186000D01*
X184173Y92520D01*
X182470Y91814D01*
X181007Y90692D01*
X179886Y89230D01*
X179180Y87527D01*
X178940Y85700D01*
Y79700D01*
X179180Y77873D01*
X179886Y76170D01*
X181007Y74707D01*
X182470Y73586D01*
X184173Y72880D01*
X186000Y72640D01*
X200000D01*
X201827Y72880D01*
X203530Y73586D01*
X203805Y73796D01*
X204944Y73235D01*
Y66765D01*
X203805Y66204D01*
X203530Y66414D01*
X201827Y67120D01*
X200000Y67360D01*
X186000D01*
X184173Y67120D01*
X182470Y66414D01*
X181007Y65292D01*
X179886Y63830D01*
X179180Y62127D01*
X178940Y60300D01*
Y54300D01*
X178112Y53356D01*
X175556D01*
Y99384D01*
X177716Y101544D01*
X179905D01*
X181007Y100107D01*
D02*
G37*
G36*
X-21045Y268277D02*
X-18421Y265079D01*
X-15223Y262455D01*
X-11575Y260505D01*
X-7617Y259304D01*
X-3500Y258898D01*
X617Y259304D01*
X2593Y259903D01*
X28000D01*
X31921Y260289D01*
X35691Y261433D01*
X39165Y263290D01*
X42211Y265789D01*
X46324Y269903D01*
X47686D01*
X48172Y268730D01*
X44364Y264923D01*
X43322Y263565D01*
X42859Y262447D01*
X42667Y261984D01*
X42444Y260287D01*
Y195000D01*
X42667Y193303D01*
X42939Y192648D01*
X43322Y191722D01*
X43595Y191367D01*
X42969Y190097D01*
X14915D01*
X14045Y191723D01*
X11421Y194921D01*
X8223Y197545D01*
X4575Y199495D01*
X617Y200696D01*
X-3500Y201102D01*
X-7617Y200696D01*
X-11575Y199495D01*
X-15223Y197545D01*
X-18421Y194921D01*
X-21045Y191723D01*
X-22174Y189612D01*
X-23444Y189930D01*
Y220070D01*
X-22174Y220388D01*
X-21045Y218277D01*
X-18421Y215079D01*
X-15223Y212455D01*
X-11575Y210505D01*
X-7617Y209304D01*
X-3500Y208898D01*
X617Y209304D01*
X4575Y210505D01*
X8223Y212455D01*
X11421Y215079D01*
X14045Y218277D01*
X15995Y221925D01*
X17196Y225883D01*
X17602Y230000D01*
X17196Y234117D01*
X15995Y238075D01*
X14045Y241723D01*
X11421Y244921D01*
X8223Y247545D01*
X4575Y249495D01*
X617Y250696D01*
X-3500Y251102D01*
X-7617Y250696D01*
X-11575Y249495D01*
X-15223Y247545D01*
X-18421Y244921D01*
X-21045Y241723D01*
X-22174Y239612D01*
X-23444Y239930D01*
Y270070D01*
X-22174Y270388D01*
X-21045Y268277D01*
D02*
G37*
G36*
X155980Y348091D02*
Y344283D01*
X156204Y342587D01*
X156531Y341796D01*
X156859Y341005D01*
X157900Y339647D01*
X165034Y332514D01*
X165344Y332276D01*
X164913Y331006D01*
X142864D01*
X142472Y331777D01*
X142370Y332276D01*
X143401Y333620D01*
X144106Y335323D01*
X144347Y337150D01*
X144106Y338977D01*
X143401Y340680D01*
X142279Y342142D01*
X141535Y342713D01*
Y344287D01*
X142279Y344858D01*
X143401Y346320D01*
X143508Y346579D01*
X145127Y347167D01*
X146381Y346648D01*
X148730Y346339D01*
X151080Y346648D01*
X153269Y347555D01*
X154710Y348661D01*
X155980Y348091D01*
D02*
G37*
G36*
X127900Y290507D02*
X128811Y289596D01*
Y284745D01*
X129277Y282406D01*
X130602Y280423D01*
X132585Y279098D01*
X134924Y278633D01*
X140434D01*
X142773Y279098D01*
X144756Y280423D01*
X145711Y280517D01*
X148864Y277364D01*
X150222Y276322D01*
X151803Y275667D01*
X152387Y275590D01*
X152669Y275169D01*
X154647Y273847D01*
X156980Y273383D01*
X163020D01*
X165353Y273847D01*
X167331Y275169D01*
X167515Y275444D01*
X172485D01*
X172669Y275169D01*
X174647Y273847D01*
X175041Y273769D01*
X175310Y272420D01*
X174465Y271856D01*
X173135Y269866D01*
X172668Y267519D01*
Y261049D01*
X173135Y258702D01*
X174465Y256713D01*
X176454Y255383D01*
X178801Y254916D01*
X181271D01*
X183618Y255383D01*
X185608Y256713D01*
X186937Y258702D01*
X187404Y261049D01*
Y262381D01*
X196560Y271537D01*
X197831Y271011D01*
Y270299D01*
X198220Y268342D01*
X199328Y266684D01*
X200987Y265575D01*
X202944Y265186D01*
X203679D01*
Y271534D01*
X206179D01*
Y274034D01*
X214275D01*
X214138Y274726D01*
X213884Y275105D01*
X214408Y276262D01*
X215155Y276360D01*
X215659Y276569D01*
X222623Y269606D01*
Y268284D01*
X221607Y267606D01*
X220278Y265616D01*
X219811Y263269D01*
Y260799D01*
X219557Y260420D01*
X219352Y260379D01*
X217367Y259053D01*
X215527Y257213D01*
X214264Y257338D01*
X213750Y258106D01*
X211761Y259435D01*
X209414Y259902D01*
X202944D01*
X200597Y259435D01*
X198607Y258106D01*
X197278Y256116D01*
X196811Y253769D01*
Y251299D01*
X197278Y248952D01*
X198607Y246963D01*
X200597Y245633D01*
X202318Y245291D01*
X202971Y244088D01*
X202976Y243896D01*
X202537Y241689D01*
Y218345D01*
X203003Y216004D01*
X204329Y214019D01*
X221197Y197151D01*
Y180546D01*
X219928Y179919D01*
X218056Y181355D01*
X214894Y182665D01*
X214000Y182783D01*
Y170000D01*
X211500D01*
Y167500D01*
X198717D01*
X198835Y166606D01*
X200145Y163444D01*
X202228Y160728D01*
X204944Y158645D01*
X208106Y157335D01*
X211500Y156888D01*
X211904Y156941D01*
X212465Y155802D01*
X211628Y154965D01*
X208655D01*
X206314Y154499D01*
X204329Y153173D01*
X189974Y138818D01*
X138654D01*
Y143324D01*
X140463Y145132D01*
X142414D01*
X144761Y145599D01*
X146750Y146928D01*
X148080Y148918D01*
X148547Y151265D01*
Y153735D01*
X148080Y156082D01*
X146750Y158072D01*
X144761Y159401D01*
X142414Y159868D01*
X138756D01*
X138673Y161138D01*
X139386Y161232D01*
X141575Y162139D01*
X143455Y163581D01*
X144898Y165461D01*
X145805Y167651D01*
X145901Y168383D01*
X147020D01*
X149353Y168847D01*
X151331Y170169D01*
X152338Y171675D01*
X153708Y171795D01*
X153807Y171762D01*
X154390Y170890D01*
X156037Y169789D01*
X157980Y169403D01*
X158000D01*
Y177500D01*
X163000D01*
Y169403D01*
X163020D01*
X164963Y169789D01*
X166610Y170890D01*
X167711Y172537D01*
X167866Y173319D01*
X169278Y173903D01*
X169736Y173597D01*
X172069Y173133D01*
X177109D01*
X179442Y173597D01*
X181420Y174919D01*
X182427Y176425D01*
X183797Y176545D01*
X183896Y176512D01*
X184479Y175640D01*
X186126Y174539D01*
X188069Y174153D01*
X188089D01*
Y182250D01*
X190589D01*
Y184750D01*
X198187D01*
Y185270D01*
X197800Y187213D01*
X196700Y188860D01*
X195052Y189961D01*
X194326Y190105D01*
X194058Y191454D01*
X194351Y191649D01*
X195459Y193308D01*
X195848Y195265D01*
Y196000D01*
X183152D01*
Y195265D01*
X183541Y193308D01*
X184649Y191649D01*
X185556Y191044D01*
X185508Y189548D01*
X184479Y188860D01*
X183896Y187988D01*
X183797Y187955D01*
X182427Y188075D01*
X181420Y189581D01*
X179442Y190903D01*
X177502Y191289D01*
X177185Y192525D01*
X177191Y192603D01*
X177401Y192918D01*
X177868Y195265D01*
Y201735D01*
X177401Y204082D01*
X176072Y206072D01*
X174082Y207401D01*
X171735Y207868D01*
X169265D01*
X166918Y207401D01*
X166448Y207087D01*
X165638Y208073D01*
X172545Y214980D01*
X173809Y214856D01*
X174428Y213929D01*
X176418Y212599D01*
X178765Y212132D01*
X181235D01*
X183582Y212599D01*
X185572Y213929D01*
X186901Y215918D01*
X187368Y218265D01*
Y224735D01*
X186901Y227082D01*
X185572Y229072D01*
X183582Y230401D01*
X181235Y230868D01*
X178765D01*
X178492Y230814D01*
X176654Y231179D01*
Y234530D01*
X177437Y235702D01*
X177904Y238049D01*
Y244519D01*
X177437Y246866D01*
X176108Y248856D01*
X174989Y249604D01*
X162172Y262420D01*
X160814Y263462D01*
X160193Y263719D01*
X159260Y265116D01*
X157282Y266437D01*
X154949Y266901D01*
X149909D01*
X147576Y266437D01*
X145597Y265116D01*
X145064Y264317D01*
X143794D01*
X143260Y265116D01*
X141282Y266437D01*
X138949Y266901D01*
X136583D01*
X134357Y269128D01*
X134472Y270000D01*
X134163Y272349D01*
X133256Y274539D01*
X131813Y276419D01*
X129933Y277861D01*
X127744Y278768D01*
X125394Y279078D01*
X124939Y279018D01*
X124480Y280238D01*
X124756Y280423D01*
X126081Y282406D01*
X126546Y284745D01*
Y290185D01*
X127816Y290616D01*
X127900Y290507D01*
D02*
G37*
G36*
X555162Y312500D02*
X527454D01*
X526556Y313398D01*
Y322640D01*
X526858Y324157D01*
Y327842D01*
X526430Y329991D01*
X525213Y331813D01*
X523391Y333030D01*
X521242Y333458D01*
X517557D01*
X517538Y333454D01*
X516556Y334260D01*
Y384795D01*
X519211Y386214D01*
X521724Y388276D01*
X523786Y390789D01*
X525318Y393655D01*
X526261Y396765D01*
X526580Y400000D01*
X526261Y403235D01*
X525318Y406345D01*
X523786Y409211D01*
X521724Y411724D01*
X519211Y413786D01*
X516345Y415318D01*
X513234Y416261D01*
X510000Y416580D01*
X506765Y416261D01*
X503655Y415318D01*
X500789Y413786D01*
X498276Y411724D01*
X496214Y409211D01*
X494682Y406345D01*
X493739Y403235D01*
X493420Y400000D01*
X493739Y396765D01*
X494682Y393655D01*
X496214Y390789D01*
X498276Y388276D01*
X500789Y386214D01*
X503444Y384795D01*
Y333060D01*
X454752D01*
X454593Y333166D01*
X452350Y333613D01*
X445850D01*
X445609Y333565D01*
X410250D01*
X408292Y333307D01*
X406468Y332551D01*
X404901Y331349D01*
X403699Y329782D01*
X402943Y327958D01*
X402685Y326000D01*
X402943Y324042D01*
X403699Y322218D01*
X404901Y320651D01*
X404954Y320610D01*
X405067Y318923D01*
X404572Y318278D01*
X404250Y317500D01*
X434612D01*
X435237Y318435D01*
X445609D01*
X445850Y318387D01*
X452350D01*
X454593Y318834D01*
X454752Y318940D01*
X506759D01*
X508757Y318542D01*
X512442D01*
X512462Y318546D01*
X513444Y317740D01*
Y312500D01*
X477250D01*
Y247578D01*
X475980Y247193D01*
X475705Y247605D01*
X474051Y248710D01*
X472100Y249098D01*
X466600D01*
Y242000D01*
Y234902D01*
X472100D01*
X474051Y235290D01*
X475705Y236395D01*
X475980Y236807D01*
X477250Y236422D01*
Y217578D01*
X475980Y217193D01*
X475705Y217605D01*
X474051Y218710D01*
X472100Y219098D01*
X466600D01*
Y212000D01*
Y204902D01*
X472100D01*
X474051Y205290D01*
X475705Y206395D01*
X475980Y206807D01*
X477250Y206422D01*
X477250Y78541D01*
X555162Y78500D01*
Y-45412D01*
X298857D01*
X298669Y-44142D01*
X299383Y-43925D01*
X301989Y-42532D01*
X304273Y-40658D01*
X306147Y-38374D01*
X307540Y-35768D01*
X308398Y-32940D01*
X308688Y-30000D01*
X308398Y-27060D01*
X307540Y-24232D01*
X306147Y-21626D01*
X304273Y-19342D01*
X301989Y-17468D01*
X299383Y-16075D01*
X296556Y-15217D01*
X293615Y-14927D01*
X290674Y-15217D01*
X287847Y-16075D01*
X285241Y-17468D01*
X282957Y-19342D01*
X281083Y-21626D01*
X280331Y-23033D01*
X278927Y-22964D01*
X278742Y-22518D01*
X276618Y-19750D01*
X273851Y-17626D01*
X272665Y-17135D01*
Y-15865D01*
X273851Y-15374D01*
X276618Y-13250D01*
X278742Y-10482D01*
X280077Y-7259D01*
X280533Y-3800D01*
X280077Y-341D01*
X278742Y2882D01*
X276618Y5650D01*
X273851Y7774D01*
X270627Y9109D01*
X267169Y9564D01*
X263710Y9109D01*
X260486Y7774D01*
X257719Y5650D01*
X255595Y2882D01*
X254260Y-341D01*
X253804Y-3800D01*
X254260Y-7259D01*
X255595Y-10482D01*
X257719Y-13250D01*
X260486Y-15374D01*
X261672Y-15865D01*
Y-17135D01*
X260486Y-17626D01*
X257719Y-19750D01*
X256358Y-21523D01*
X254757Y-21523D01*
X253600Y-20015D01*
X250675Y-17771D01*
X247270Y-16360D01*
X246115Y-16208D01*
Y-30000D01*
Y-43792D01*
X247270Y-43640D01*
X250675Y-42229D01*
X253600Y-39985D01*
X255371Y-37677D01*
X256914Y-37601D01*
X257719Y-38650D01*
X260486Y-40774D01*
X263710Y-42109D01*
X267169Y-42564D01*
X270627Y-42109D01*
X273851Y-40774D01*
X276618Y-38650D01*
X278512Y-36182D01*
X278641Y-36137D01*
X279549Y-36139D01*
X279957Y-36268D01*
X281083Y-38374D01*
X282957Y-40658D01*
X285241Y-42532D01*
X287847Y-43925D01*
X288561Y-44142D01*
X288373Y-45412D01*
X198857D01*
X198669Y-44142D01*
X199383Y-43925D01*
X201989Y-42532D01*
X204273Y-40658D01*
X206147Y-38374D01*
X207540Y-35768D01*
X208398Y-32940D01*
X208688Y-30000D01*
X208398Y-27060D01*
X207540Y-24232D01*
X206147Y-21626D01*
X204273Y-19342D01*
X201989Y-17468D01*
X199383Y-16075D01*
X196556Y-15217D01*
X193615Y-14927D01*
X190674Y-15217D01*
X187847Y-16075D01*
X185241Y-17468D01*
X182957Y-19342D01*
X181083Y-21626D01*
X179690Y-24232D01*
X178832Y-27060D01*
X178542Y-30000D01*
X178832Y-32940D01*
X179690Y-35768D01*
X181083Y-38374D01*
X182957Y-40658D01*
X185241Y-42532D01*
X187847Y-43925D01*
X188561Y-44142D01*
X188373Y-45412D01*
X152935D01*
X152549Y-44142D01*
X152605Y-44105D01*
X153710Y-42451D01*
X154098Y-40500D01*
Y-32500D01*
X141000D01*
Y-30000D01*
X138500D01*
Y-14402D01*
X133000D01*
X132760Y-14450D01*
X131884Y-13329D01*
X132021Y-13000D01*
X125750D01*
Y-8000D01*
X132021D01*
X131646Y-7096D01*
X130564Y-5686D01*
X129154Y-4604D01*
X127512Y-3924D01*
X126940Y-3848D01*
X126139Y-2462D01*
X126294Y-2088D01*
X126569Y0D01*
X126294Y2088D01*
X125488Y4035D01*
X124206Y5706D01*
X122535Y6988D01*
X120588Y7794D01*
X118915Y8014D01*
X118263Y8992D01*
X118182Y9308D01*
X118617Y11500D01*
Y14108D01*
X118652Y14159D01*
X119117Y16500D01*
X119773Y17075D01*
X120929Y16922D01*
X123278Y17232D01*
X125468Y18139D01*
X126622Y19024D01*
X127892Y18398D01*
Y13250D01*
X154108D01*
Y20750D01*
X154098Y20799D01*
Y22500D01*
X141000D01*
Y27500D01*
X154098D01*
Y35500D01*
X153710Y37451D01*
X152605Y39105D01*
X150951Y40210D01*
X149000Y40598D01*
X143873D01*
X143387Y41771D01*
X144505Y42889D01*
X145300Y44078D01*
X145831Y44873D01*
X146296Y47214D01*
Y48760D01*
X147510Y49571D01*
X148832Y51549D01*
X149296Y53882D01*
Y58922D01*
X149296Y58922D01*
Y59922D01*
X148877Y62026D01*
X149349Y62795D01*
X149732Y63194D01*
X151289Y62989D01*
X153638Y63299D01*
X154441Y63631D01*
X155498Y62926D01*
Y39452D01*
X155963Y37111D01*
X157289Y35126D01*
X163541Y28874D01*
X165526Y27548D01*
X167867Y27082D01*
X395766D01*
X403535Y19314D01*
X402791Y18298D01*
X400500Y19247D01*
Y12500D01*
X407247D01*
X406298Y14791D01*
X407314Y15535D01*
X413882Y8966D01*
Y-18192D01*
X413318Y-18426D01*
X410550Y-20550D01*
X408426Y-23318D01*
X407091Y-26541D01*
X406636Y-30000D01*
X407091Y-33459D01*
X408426Y-36682D01*
X410550Y-39450D01*
X413318Y-41574D01*
X416541Y-42909D01*
X420000Y-43364D01*
X423459Y-42909D01*
X426682Y-41574D01*
X429450Y-39450D01*
X431574Y-36682D01*
X432554Y-34316D01*
X433928D01*
X434700Y-36178D01*
X436663Y-38737D01*
X439222Y-40700D01*
X442202Y-41935D01*
X442900Y-42027D01*
Y-30000D01*
Y-17973D01*
X442202Y-18065D01*
X439222Y-19300D01*
X436663Y-21263D01*
X434700Y-23822D01*
X433928Y-25684D01*
X432554D01*
X431574Y-23318D01*
X429450Y-20550D01*
X426682Y-18426D01*
X426118Y-18192D01*
Y11500D01*
X425652Y13841D01*
X424326Y15826D01*
X402626Y37526D01*
X400641Y38852D01*
X400028Y38974D01*
X400153Y40244D01*
X403191D01*
X441764Y1671D01*
X443122Y629D01*
X443912Y302D01*
X444703Y-26D01*
X446400Y-249D01*
X452325D01*
X452673Y-770D01*
X454656Y-2095D01*
X456995Y-2560D01*
X463005D01*
X465344Y-2095D01*
X467327Y-770D01*
X468652Y1213D01*
X469117Y3552D01*
Y9062D01*
X468652Y11401D01*
X467327Y13384D01*
X466896Y13672D01*
Y14942D01*
X467327Y15230D01*
X468652Y17213D01*
X469117Y19552D01*
Y25062D01*
X468652Y27401D01*
X467327Y29384D01*
X465344Y30709D01*
X463005Y31174D01*
X456995D01*
X454656Y30709D01*
X452673Y29384D01*
X452330Y29350D01*
X439420Y42260D01*
X439140Y44387D01*
X438484Y45970D01*
X439203Y47197D01*
X439270Y47240D01*
X452000D01*
X453827Y47480D01*
X455530Y48186D01*
X456992Y49307D01*
X458115Y50770D01*
X458820Y52473D01*
X459060Y54300D01*
Y60300D01*
X458820Y62127D01*
X458115Y63830D01*
X456992Y65292D01*
X455530Y66414D01*
X453827Y67120D01*
X452000Y67360D01*
X438000D01*
X436173Y67120D01*
X434470Y66414D01*
X433008Y65292D01*
X431905Y63856D01*
X371416D01*
X360398Y74874D01*
X360924Y76144D01*
X431905D01*
X433008Y74707D01*
X434470Y73586D01*
X436173Y72880D01*
X438000Y72640D01*
X452000D01*
X453827Y72880D01*
X455530Y73586D01*
X456992Y74707D01*
X458115Y76170D01*
X458820Y77873D01*
X459060Y79700D01*
Y85700D01*
X458820Y87527D01*
X458115Y89230D01*
X456992Y90692D01*
X455530Y91814D01*
X453827Y92520D01*
X452000Y92760D01*
X438000D01*
X436173Y92520D01*
X434470Y91814D01*
X433008Y90692D01*
X431905Y89256D01*
X362752D01*
X351591Y100417D01*
X352260Y101544D01*
X417260D01*
X418961Y100239D01*
X421151Y99332D01*
X423500Y99022D01*
X425849Y99332D01*
X428039Y100239D01*
X429740Y101544D01*
X431905D01*
X433008Y100107D01*
X434470Y98986D01*
X436173Y98280D01*
X438000Y98040D01*
X452000D01*
X453827Y98280D01*
X455530Y98986D01*
X456992Y100107D01*
X458115Y101570D01*
X458820Y103273D01*
X459060Y105100D01*
Y111100D01*
X458820Y112927D01*
X458115Y114630D01*
X456992Y116092D01*
X455530Y117214D01*
X453827Y117920D01*
X452000Y118160D01*
X438000D01*
X436173Y117920D01*
X434470Y117214D01*
X433008Y116092D01*
X431905Y114656D01*
X429740D01*
X428039Y115961D01*
X425849Y116868D01*
X423500Y117178D01*
X421151Y116868D01*
X418961Y115961D01*
X417260Y114656D01*
X354652D01*
X310412Y158896D01*
X311005Y160099D01*
X312250Y159935D01*
X314208Y160193D01*
X315424Y160697D01*
X316694Y159951D01*
Y159750D01*
X316917Y158053D01*
X317245Y157262D01*
X317572Y156472D01*
X318614Y155114D01*
X327364Y146364D01*
X328722Y145322D01*
X329840Y144859D01*
X330303Y144667D01*
X332000Y144444D01*
X388998D01*
X390695Y144667D01*
X391485Y144995D01*
X392276Y145322D01*
X393634Y146364D01*
X416713Y169444D01*
X431470D01*
X433167Y169667D01*
X433331Y169735D01*
X433603Y169554D01*
X434231Y168734D01*
X433253Y166372D01*
X433204Y166000D01*
X441470D01*
Y174266D01*
X441098Y174217D01*
X440511Y173974D01*
X439792Y175050D01*
X441124Y176383D01*
X449970D01*
X452311Y176848D01*
X454295Y178174D01*
X455622Y180159D01*
X456087Y182500D01*
Y194500D01*
X455622Y196841D01*
X454295Y198826D01*
X452311Y200152D01*
X449970Y200618D01*
X437970D01*
X435629Y200152D01*
X435538Y200091D01*
X434658Y201031D01*
X434801Y201218D01*
X435557Y203042D01*
X435815Y205000D01*
X435557Y206958D01*
X434801Y208782D01*
X434226Y209531D01*
X433684Y210500D01*
X434226Y211469D01*
X434801Y212218D01*
X435557Y214042D01*
X435815Y216000D01*
X435557Y217958D01*
X435382Y218379D01*
X436088Y219435D01*
X445609D01*
X445850Y219387D01*
X452350D01*
X453100Y219537D01*
X453596Y218340D01*
X452495Y217605D01*
X451390Y215951D01*
X451101Y214500D01*
X461600D01*
Y219098D01*
X456100D01*
X455642Y219007D01*
X455146Y220203D01*
X456495Y221105D01*
X457766Y223006D01*
X458213Y225250D01*
Y228750D01*
X457766Y230993D01*
X456495Y232896D01*
X455146Y233797D01*
X455642Y234993D01*
X456100Y234902D01*
X461600D01*
Y239500D01*
X451101D01*
X451390Y238049D01*
X452495Y236395D01*
X453596Y235660D01*
X453100Y234463D01*
X452350Y234613D01*
X445850D01*
X445609Y234565D01*
X435237D01*
X434612Y235500D01*
X404250D01*
X404572Y234722D01*
X405067Y234077D01*
X404954Y232390D01*
X404901Y232349D01*
X403699Y230782D01*
X402943Y228958D01*
X402685Y227000D01*
X402943Y225042D01*
X403699Y223218D01*
X404274Y222468D01*
X404816Y221500D01*
X404274Y220532D01*
X403699Y219782D01*
X402943Y217958D01*
X402685Y216000D01*
X402943Y214042D01*
X403699Y212218D01*
X404274Y211469D01*
X404816Y210500D01*
X404274Y209531D01*
X403699Y208782D01*
X402943Y206958D01*
X402685Y205000D01*
X402943Y203042D01*
X403699Y201218D01*
X404274Y200469D01*
X404816Y199500D01*
X404274Y198531D01*
X403699Y197782D01*
X402943Y195958D01*
X402685Y194000D01*
X402943Y192042D01*
X403699Y190218D01*
X404901Y188651D01*
X406468Y187449D01*
X408292Y186693D01*
X410250Y186435D01*
X428250D01*
X429981Y186663D01*
X430536Y186411D01*
X431285Y185766D01*
X431336Y185138D01*
X428754Y182556D01*
X413998D01*
X412301Y182333D01*
X411304Y181920D01*
X410720Y181678D01*
X409362Y180636D01*
X397988Y169262D01*
X396815Y169748D01*
Y185500D01*
X396557Y187458D01*
X395806Y189271D01*
Y211133D01*
X395583Y212829D01*
X395170Y213827D01*
X394928Y214411D01*
X393886Y215769D01*
X386758Y222896D01*
X386478Y225022D01*
X385571Y227211D01*
X384129Y229091D01*
X382249Y230534D01*
X380060Y231441D01*
X377710Y231750D01*
X375360Y231441D01*
X373171Y230534D01*
X371291Y229091D01*
X369849Y227211D01*
X368942Y225022D01*
X368632Y222673D01*
X368942Y220323D01*
X369849Y218134D01*
X371291Y216254D01*
X373171Y214811D01*
X375204Y213969D01*
X375338Y213466D01*
X375294Y212632D01*
X373998Y212095D01*
X372118Y210652D01*
X370675Y208772D01*
X369768Y206583D01*
X369459Y204234D01*
X369768Y201884D01*
X370675Y199695D01*
X371694Y198367D01*
Y193049D01*
X370424Y192303D01*
X369208Y192807D01*
X367250Y193065D01*
X365292Y192807D01*
X363468Y192051D01*
X362719Y191476D01*
X361599Y190849D01*
X360032Y192051D01*
X358208Y192807D01*
X356250Y193065D01*
X355293Y192939D01*
X354700Y194142D01*
X356474Y195915D01*
X358600Y196195D01*
X360789Y197102D01*
X362669Y198545D01*
X364112Y200425D01*
X365018Y202614D01*
X365328Y204964D01*
X365018Y207313D01*
X364112Y209503D01*
X362669Y211383D01*
X360789Y212825D01*
X358600Y213732D01*
X356250Y214041D01*
X353900Y213732D01*
X351711Y212825D01*
X349831Y211383D01*
X348389Y209503D01*
X347482Y207313D01*
X347202Y205187D01*
X344579Y202564D01*
X343376Y203158D01*
X343614Y204964D01*
X343305Y207313D01*
X342398Y209503D01*
X340955Y211383D01*
X339075Y212825D01*
X336886Y213732D01*
X334536Y214041D01*
X332187Y213732D01*
X329997Y212825D01*
X328117Y211383D01*
X326675Y209503D01*
X325768Y207313D01*
X325459Y204964D01*
X325768Y202614D01*
X326675Y200425D01*
X327694Y199097D01*
Y193049D01*
X326424Y192303D01*
X325208Y192807D01*
X323250Y193065D01*
X321292Y192807D01*
X319468Y192051D01*
X317901Y190849D01*
X316782Y191476D01*
X316032Y192051D01*
X314208Y192807D01*
X312250Y193065D01*
X310292Y192807D01*
X308468Y192051D01*
X307719Y191476D01*
X306599Y190849D01*
X305032Y192051D01*
X303208Y192807D01*
X301250Y193065D01*
X299292Y192807D01*
X297826Y192200D01*
X296556Y192799D01*
Y198042D01*
X297279Y198525D01*
X297826Y198709D01*
X300000Y198422D01*
X302349Y198732D01*
X304539Y199639D01*
X306419Y201081D01*
X307581D01*
X309461Y199639D01*
X311651Y198732D01*
X314000Y198422D01*
X316350Y198732D01*
X318539Y199639D01*
X320419Y201081D01*
X321861Y202961D01*
X322768Y205151D01*
X323078Y207500D01*
X322768Y209849D01*
X321861Y212039D01*
X320556Y213740D01*
Y277534D01*
X320333Y279231D01*
X320141Y279694D01*
X319678Y280812D01*
X318636Y282170D01*
X314170Y286636D01*
X312812Y287678D01*
X311886Y288061D01*
X311231Y288333D01*
X309534Y288556D01*
X287799D01*
X287053Y289826D01*
X287557Y291042D01*
X287815Y293000D01*
X287557Y294958D01*
X286801Y296782D01*
X285599Y298349D01*
Y298651D01*
X286801Y300218D01*
X287557Y302042D01*
X287815Y304000D01*
X287557Y305958D01*
X286801Y307782D01*
X285599Y309349D01*
Y309651D01*
X286801Y311218D01*
X287557Y313042D01*
X287815Y315000D01*
X287557Y316958D01*
X286801Y318782D01*
X285599Y320349D01*
Y320651D01*
X286801Y322218D01*
X287557Y324042D01*
X287815Y326000D01*
X287557Y327958D01*
X286801Y329782D01*
X285599Y331349D01*
X284032Y332551D01*
X282208Y333307D01*
X280250Y333565D01*
X262250D01*
X260292Y333307D01*
X258468Y332551D01*
X256901Y331349D01*
X255699Y329782D01*
X254943Y327958D01*
X254694Y326062D01*
X254282Y325741D01*
X253477Y325452D01*
X251502Y326967D01*
X248948Y328024D01*
X246207Y328385D01*
X243466Y328024D01*
X240912Y326967D01*
X238718Y325284D01*
X237035Y323090D01*
X235977Y320536D01*
X235616Y317795D01*
X235977Y315054D01*
X237035Y312500D01*
X238718Y310306D01*
X240912Y308623D01*
X243466Y307565D01*
X246207Y307204D01*
X247372Y307358D01*
X252112Y302618D01*
X251502Y301567D01*
X248948Y302624D01*
X246207Y302985D01*
X243466Y302624D01*
X240912Y301567D01*
X238718Y299883D01*
X237035Y297690D01*
X235977Y295136D01*
X235616Y292395D01*
X235977Y289654D01*
X237035Y287099D01*
X238718Y284906D01*
X240065Y283873D01*
X240014Y282311D01*
X239390Y281895D01*
X238289Y280247D01*
X237903Y278304D01*
Y278284D01*
X246000D01*
Y273284D01*
X237903D01*
Y273264D01*
X238289Y271321D01*
X239390Y269674D01*
X240262Y269091D01*
X240295Y268992D01*
X240175Y267622D01*
X238856Y266741D01*
X238398Y266655D01*
X237277Y266818D01*
X236750Y267606D01*
X235735Y268284D01*
Y272321D01*
X235511Y274018D01*
X235184Y274809D01*
X234856Y275599D01*
X233815Y276957D01*
X224931Y285841D01*
X225140Y286345D01*
X225621Y290000D01*
X225140Y293655D01*
X223729Y297060D01*
X221485Y299985D01*
X218560Y302229D01*
X215155Y303640D01*
X211500Y304121D01*
X207845Y303640D01*
X204440Y302229D01*
X201515Y299985D01*
X199271Y297060D01*
X197860Y293655D01*
X197516Y291035D01*
X190290Y283810D01*
X189117Y284296D01*
Y284520D01*
X188653Y286853D01*
X187331Y288831D01*
X185825Y289838D01*
X185705Y291208D01*
X185738Y291307D01*
X186610Y291890D01*
X187711Y293537D01*
X188097Y295480D01*
Y295500D01*
X171903D01*
Y295480D01*
X172289Y293537D01*
X173390Y291890D01*
X174262Y291307D01*
X174295Y291208D01*
X174175Y289838D01*
X172669Y288831D01*
X172485Y288556D01*
X167515D01*
X167331Y288831D01*
X166533Y289365D01*
Y290635D01*
X167331Y291169D01*
X168653Y293147D01*
X169117Y295480D01*
Y300520D01*
X168653Y302853D01*
X167353Y304799D01*
X167861Y305461D01*
X168768Y307651D01*
X169078Y310000D01*
X168768Y312349D01*
X167861Y314539D01*
X166419Y316419D01*
X166152Y316624D01*
X166583Y317894D01*
X179322D01*
X179959Y317630D01*
X181786Y317390D01*
X191286D01*
X193114Y317630D01*
X194817Y318336D01*
X196279Y319458D01*
X197401Y320920D01*
X198106Y322623D01*
X198347Y324450D01*
X198106Y326277D01*
X197401Y327980D01*
X196370Y329324D01*
X196472Y329823D01*
X196864Y330594D01*
X207382D01*
Y319540D01*
X207850Y317183D01*
X209185Y315185D01*
X211183Y313850D01*
X213540Y313382D01*
X226460D01*
X228817Y313850D01*
X230815Y315185D01*
X232150Y317183D01*
X232618Y319540D01*
Y340460D01*
X232307Y342024D01*
X233242Y343294D01*
X240388D01*
X240939Y342469D01*
X242922Y341144D01*
X245261Y340678D01*
X251271D01*
X253610Y341144D01*
X255593Y342469D01*
X256919Y344452D01*
X257384Y346791D01*
Y352301D01*
X256919Y354640D01*
X255593Y356623D01*
X254455Y357383D01*
X254455Y358911D01*
X254873Y359190D01*
X255977Y360842D01*
X256364Y362791D01*
Y368301D01*
X255977Y370250D01*
X254873Y371902D01*
X253220Y373006D01*
X251271Y373394D01*
X250766D01*
Y365546D01*
X248266D01*
Y363046D01*
X240169D01*
Y362791D01*
X240556Y360842D01*
X241660Y359190D01*
X242077Y358911D01*
X242077Y357383D01*
X240939Y356623D01*
X240794Y356406D01*
X231775D01*
X231258Y357373D01*
X231228Y357676D01*
X231599Y359540D01*
Y367500D01*
X208401D01*
Y359540D01*
X208772Y357676D01*
X208742Y357373D01*
X208225Y356406D01*
X195183D01*
X194798Y357676D01*
X195612Y358220D01*
X196832Y360046D01*
X176241D01*
X177461Y358220D01*
X178579Y357473D01*
X178438Y356040D01*
X178256Y355965D01*
X176794Y354842D01*
X175672Y353380D01*
X174967Y351677D01*
X174726Y349850D01*
X174967Y348023D01*
X175672Y346320D01*
X176703Y344976D01*
X176600Y344477D01*
X176208Y343706D01*
X172385D01*
X169092Y346999D01*
Y375501D01*
X170362Y376350D01*
X170803Y376167D01*
X172500Y375944D01*
X187500D01*
X189197Y376167D01*
X190778Y376822D01*
X192136Y377864D01*
X193178Y379222D01*
X193833Y380803D01*
X194056Y382500D01*
Y399444D01*
X194536D01*
X196233Y399667D01*
X196888Y399939D01*
X197814Y400322D01*
X199172Y401364D01*
X221252Y423444D01*
X225036D01*
Y418000D01*
X230480D01*
Y390935D01*
X230704Y389238D01*
X230975Y388583D01*
X231359Y387657D01*
X232400Y386299D01*
X237864Y380836D01*
X239222Y379794D01*
X239806Y379552D01*
X240803Y379139D01*
X242500Y378915D01*
X258113D01*
X258462Y378394D01*
X259600Y377634D01*
X259600Y376106D01*
X259182Y375828D01*
X258078Y374175D01*
X257691Y372226D01*
Y366716D01*
X258078Y364767D01*
X259182Y363115D01*
X260835Y362011D01*
X262784Y361624D01*
X263289D01*
Y369471D01*
X265789D01*
Y371971D01*
X273887D01*
Y372226D01*
X273499Y374175D01*
X272395Y375828D01*
X271978Y376106D01*
X271978Y377634D01*
X273116Y378394D01*
X273965Y379665D01*
X277919D01*
Y373510D01*
X278385Y371165D01*
X279713Y369177D01*
X281701Y367849D01*
X284046Y367382D01*
X286026D01*
X288371Y367849D01*
X290359Y369177D01*
X290863Y369277D01*
X291592Y368791D01*
X292036Y368702D01*
Y372916D01*
X292155Y373510D01*
Y377000D01*
Y380490D01*
X292036Y381084D01*
Y385973D01*
X291592Y386504D01*
Y396444D01*
X297867D01*
X298713Y395177D01*
X300701Y393849D01*
X303046Y393382D01*
X305026D01*
X307371Y393849D01*
X309359Y395177D01*
X310206Y396444D01*
X318901D01*
X319419Y395669D01*
X321397Y394347D01*
X323730Y393883D01*
X328770D01*
X331103Y394347D01*
X333081Y395669D01*
X333615Y396467D01*
X334885D01*
X335419Y395669D01*
X335694Y395485D01*
Y392216D01*
X334603Y391124D01*
X333759Y391474D01*
X330300Y391929D01*
X326841Y391474D01*
X323618Y390139D01*
X320850Y388015D01*
X318726Y385247D01*
X318026Y383556D01*
X310206D01*
X309359Y384823D01*
X307371Y386151D01*
X305026Y386618D01*
X303046D01*
X300701Y386151D01*
X298713Y384823D01*
X298209Y384723D01*
X297481Y385209D01*
X297036Y385298D01*
Y381084D01*
X296918Y380490D01*
Y377000D01*
Y373510D01*
X297036Y372916D01*
Y368702D01*
X297481Y368791D01*
X298209Y369277D01*
X298713Y369177D01*
X299433Y368697D01*
X299474Y367427D01*
X299179Y367201D01*
X296614Y364636D01*
X295572Y363278D01*
X295109Y362160D01*
X294917Y361697D01*
X294694Y360000D01*
Y356271D01*
X293943Y354458D01*
X293685Y352500D01*
Y334500D01*
X293943Y332542D01*
X294699Y330718D01*
X295901Y329151D01*
X297468Y327949D01*
X299292Y327193D01*
X301250Y326935D01*
X303208Y327193D01*
X305032Y327949D01*
X305781Y328524D01*
X306901Y329151D01*
X308468Y327949D01*
X310292Y327193D01*
X312250Y326935D01*
X314208Y327193D01*
X316032Y327949D01*
X317599Y329151D01*
X318718Y328524D01*
X319468Y327949D01*
X321292Y327193D01*
X323250Y326935D01*
X325208Y327193D01*
X327032Y327949D01*
X328599Y329151D01*
X328640Y329204D01*
X330327Y329317D01*
X330972Y328822D01*
X331750Y328500D01*
Y343500D01*
X336750D01*
Y328500D01*
X337528Y328822D01*
X338886Y329864D01*
X339115Y330163D01*
X340385D01*
X340614Y329864D01*
X341972Y328822D01*
X342750Y328500D01*
Y343500D01*
X347750D01*
Y328500D01*
X348528Y328822D01*
X349173Y329317D01*
X350860Y329204D01*
X350901Y329151D01*
X352468Y327949D01*
X354292Y327193D01*
X356250Y326935D01*
X358208Y327193D01*
X360032Y327949D01*
X360782Y328524D01*
X361750Y329066D01*
X362719Y328524D01*
X363468Y327949D01*
X365292Y327193D01*
X367250Y326935D01*
X369208Y327193D01*
X371032Y327949D01*
X372599Y329151D01*
X372640Y329204D01*
X374327Y329317D01*
X374972Y328822D01*
X375750Y328500D01*
Y343500D01*
Y358500D01*
X374972Y358178D01*
X374327Y357683D01*
X372640Y357795D01*
X372599Y357849D01*
X371032Y359051D01*
X369208Y359807D01*
X367250Y360065D01*
X365292Y359807D01*
X363468Y359051D01*
X362719Y358476D01*
X361750Y357934D01*
X360782Y358476D01*
X360032Y359051D01*
X358208Y359807D01*
X356250Y360065D01*
X354292Y359807D01*
X352468Y359051D01*
X350901Y357849D01*
X350860Y357795D01*
X349173Y357683D01*
X348528Y358178D01*
X346947Y358833D01*
X346861Y358844D01*
X346453Y360047D01*
X352115Y365708D01*
X352241Y365656D01*
X355700Y365201D01*
X359159Y365656D01*
X359877Y365953D01*
X359913Y365939D01*
X360568Y365667D01*
X362265Y365444D01*
X367021D01*
X367205Y365169D01*
X369183Y363847D01*
X371516Y363383D01*
X377556D01*
X379890Y363847D01*
X381868Y365169D01*
X383189Y367147D01*
X383653Y369480D01*
Y374520D01*
X383189Y376853D01*
X381868Y378831D01*
X381069Y379365D01*
Y380635D01*
X381868Y381169D01*
X383189Y383147D01*
X383653Y385480D01*
Y390520D01*
X383428Y391651D01*
X384234Y392633D01*
X393926D01*
Y380325D01*
X394416Y377862D01*
X395812Y375774D01*
X397900Y374378D01*
X400363Y373889D01*
X414238D01*
X416701Y374378D01*
X418788Y375774D01*
X420184Y377862D01*
X420674Y380325D01*
Y380967D01*
X421944Y381219D01*
X422000Y381084D01*
X423963Y378525D01*
X426522Y376562D01*
X429502Y375327D01*
X430200Y375235D01*
Y387262D01*
X432700D01*
Y389762D01*
X444727D01*
X444635Y390460D01*
X443838Y392382D01*
X444687Y393652D01*
X460520D01*
X462463Y394039D01*
X464110Y395140D01*
X465211Y396787D01*
X465597Y398730D01*
Y402500D01*
X426402D01*
Y398730D01*
X426553Y397975D01*
X426522Y397962D01*
X423963Y395999D01*
X422000Y393440D01*
X421944Y393305D01*
X420674Y393557D01*
Y394200D01*
X420184Y396663D01*
X418788Y398751D01*
X416701Y400146D01*
X414617Y400560D01*
Y411270D01*
X414153Y413603D01*
X412831Y415581D01*
X410853Y416903D01*
X408520Y417367D01*
X383654D01*
Y418017D01*
X383189Y420356D01*
X381864Y422339D01*
X380725Y423100D01*
X380725Y424627D01*
X381143Y424906D01*
X382247Y426558D01*
X382634Y428507D01*
Y428762D01*
X374536D01*
Y431262D01*
X372036D01*
Y439110D01*
X371531D01*
X369582Y438722D01*
X367930Y437618D01*
X367032Y436274D01*
X366716Y436194D01*
X365937D01*
X365621Y436274D01*
X364723Y437618D01*
X363071Y438722D01*
X361122Y439110D01*
X360617D01*
Y431262D01*
X355617D01*
Y439110D01*
X355112D01*
X355018Y439091D01*
X354036Y439897D01*
Y442000D01*
X355136Y442412D01*
X555162D01*
Y312500D01*
D02*
G37*
G36*
X135036Y442000D02*
Y436056D01*
X132500D01*
X130803Y435833D01*
X129222Y435178D01*
X127864Y434136D01*
X126822Y432778D01*
X126167Y431197D01*
X125944Y429500D01*
Y382500D01*
X126167Y380803D01*
X126822Y379222D01*
X127864Y377864D01*
X129222Y376822D01*
X130803Y376167D01*
X132500Y375944D01*
X147500D01*
X149197Y376167D01*
X150778Y376822D01*
X152136Y377864D01*
X153178Y379222D01*
X153833Y380803D01*
X153867Y381065D01*
X155001Y381450D01*
X155980Y380637D01*
Y362742D01*
X154710Y362172D01*
X153269Y363278D01*
X151080Y364185D01*
X148954Y364464D01*
X146236Y367182D01*
X144879Y368224D01*
X143952Y368607D01*
X143297Y368879D01*
X141601Y369102D01*
X139750D01*
X139114Y369366D01*
X137286Y369606D01*
X127786D01*
X125959Y369366D01*
X125288Y369088D01*
X124062Y369056D01*
X123730Y369734D01*
X123357Y370636D01*
X122836Y371315D01*
X122315Y371993D01*
X101126Y393182D01*
X99768Y394224D01*
X98978Y394551D01*
X98187Y394879D01*
X96490Y395102D01*
X94403D01*
Y403066D01*
X93939Y405399D01*
X92618Y407377D01*
X90640Y408699D01*
X88306Y409163D01*
X75766D01*
X73433Y408699D01*
X71455Y407377D01*
X70133Y405399D01*
X69669Y403066D01*
Y395102D01*
X63592D01*
Y418000D01*
X69036D01*
Y442000D01*
X70136Y442412D01*
X133937D01*
X135036Y442000D01*
D02*
G37*
G36*
X122346Y-16396D02*
X123988Y-17076D01*
X125750Y-17308D01*
X127164Y-17122D01*
X127955Y-17826D01*
X128164Y-18181D01*
X127916Y-19430D01*
X126651Y-20401D01*
X125449Y-21968D01*
X124693Y-23792D01*
X124435Y-25750D01*
Y-28250D01*
X136500D01*
Y-33250D01*
X124435D01*
Y-35750D01*
X124693Y-37708D01*
X125449Y-39532D01*
X126651Y-41099D01*
X128218Y-42301D01*
X128264Y-42320D01*
X128290Y-42451D01*
X129395Y-44105D01*
X129451Y-44142D01*
X129065Y-45412D01*
X63934D01*
X63549Y-44142D01*
X63605Y-44105D01*
X64710Y-42451D01*
X64736Y-42320D01*
X64782Y-42301D01*
X66349Y-41099D01*
X67551Y-39532D01*
X68307Y-37708D01*
X68565Y-35750D01*
Y-33250D01*
X56500D01*
Y-28250D01*
X68565D01*
Y-25750D01*
X68307Y-23792D01*
X67551Y-21968D01*
X66349Y-20401D01*
X65084Y-19430D01*
X64836Y-18181D01*
X65045Y-17826D01*
X65836Y-17122D01*
X67250Y-17308D01*
X69012Y-17076D01*
X70654Y-16396D01*
X71981Y-15378D01*
X72151Y-15599D01*
X73718Y-16801D01*
X75542Y-17557D01*
X77500Y-17815D01*
X78442Y-17691D01*
X79397Y-18528D01*
Y-20500D01*
X79805Y-22548D01*
X80965Y-24285D01*
X82702Y-25445D01*
X84750Y-25853D01*
X94000D01*
Y-18250D01*
X99000D01*
Y-25853D01*
X108250D01*
X110298Y-25445D01*
X112035Y-24285D01*
X113195Y-22548D01*
X113603Y-20500D01*
Y-18528D01*
X114558Y-17691D01*
X115500Y-17815D01*
X117458Y-17557D01*
X119282Y-16801D01*
X120849Y-15599D01*
X121019Y-15378D01*
X122346Y-16396D01*
D02*
G37*
G36*
X255628Y252612D02*
X254943Y250958D01*
X254685Y249000D01*
X254943Y247042D01*
X255699Y245218D01*
X256901Y243651D01*
Y243349D01*
X255699Y241782D01*
X254943Y239958D01*
X254685Y238000D01*
X254943Y236042D01*
X255699Y234218D01*
X256901Y232651D01*
Y232349D01*
X255699Y230782D01*
X255170Y229505D01*
X252568Y226903D01*
X251349Y227480D01*
X251597Y230000D01*
X251211Y233921D01*
X250067Y237691D01*
X248210Y241165D01*
X245711Y244211D01*
X242665Y246710D01*
X239191Y248567D01*
X238693Y248718D01*
X238506Y249974D01*
X239231Y250459D01*
X240501Y251729D01*
X240647Y251631D01*
X242980Y251167D01*
X249020D01*
X251353Y251631D01*
X253331Y252953D01*
X253952Y253883D01*
X255140D01*
X255628Y252612D01*
D02*
G37*
G36*
X-42817Y331351D02*
X-40460Y330882D01*
X-36556D01*
Y327150D01*
Y92500D01*
X-36333Y90803D01*
X-36061Y90148D01*
X-35678Y89222D01*
X-34636Y87864D01*
X-22665Y75894D01*
X-23112Y72500D01*
X-22665Y69106D01*
X-21356Y65944D01*
X-19272Y63228D01*
X-16556Y61145D01*
X-13394Y59835D01*
X-10000Y59388D01*
X-6606Y59835D01*
X-3444Y61145D01*
X-728Y63228D01*
X1355Y65944D01*
X2665Y69106D01*
X3112Y72500D01*
X2665Y75894D01*
X1355Y79056D01*
X-728Y81772D01*
X-3444Y83855D01*
X-6606Y85165D01*
X-10000Y85612D01*
X-13394Y85165D01*
X-23444Y95216D01*
Y170070D01*
X-22174Y170388D01*
X-21045Y168277D01*
X-18421Y165079D01*
X-15223Y162455D01*
X-13403Y161481D01*
X-7711Y155789D01*
X-4665Y153290D01*
X-1191Y151433D01*
X2579Y150289D01*
X6500Y149903D01*
X88500D01*
X91935Y150241D01*
X92337Y149969D01*
X92815Y149433D01*
X92957Y149125D01*
X92785Y147818D01*
Y132724D01*
X91480Y131023D01*
X90573Y128834D01*
X90263Y126484D01*
X90573Y124135D01*
X91480Y121946D01*
X92922Y120065D01*
X94802Y118623D01*
X96992Y117716D01*
X99341Y117407D01*
X101691Y117716D01*
X103880Y118623D01*
X105760Y120065D01*
X107203Y121946D01*
X108109Y124135D01*
X108419Y126484D01*
X108109Y128834D01*
X107203Y131023D01*
X105897Y132724D01*
Y145102D01*
X106910Y146115D01*
X108060Y145500D01*
X113679D01*
Y149348D01*
X112944D01*
X111690Y149099D01*
X111064Y150269D01*
X115427Y154632D01*
X119414D01*
X121761Y155099D01*
X123750Y156428D01*
X125080Y158418D01*
X125547Y160765D01*
Y163235D01*
X125080Y165582D01*
X123750Y167572D01*
X123346Y167842D01*
X123373Y168529D01*
X124670Y169189D01*
X125183Y168847D01*
X127516Y168383D01*
X128172D01*
X128268Y167651D01*
X129175Y165461D01*
X130618Y163581D01*
X132498Y162139D01*
X134687Y161232D01*
X135652Y161105D01*
X135694Y159818D01*
X133597Y159401D01*
X131607Y158072D01*
X130278Y156082D01*
X129811Y153735D01*
Y151784D01*
X128211Y150183D01*
X126884Y148199D01*
X126419Y145857D01*
Y132008D01*
X125854Y131774D01*
X123086Y129650D01*
X120962Y126882D01*
X119627Y123659D01*
X119172Y120200D01*
X119627Y116741D01*
X120962Y113518D01*
X123086Y110750D01*
X125854Y108626D01*
X128220Y107646D01*
Y106271D01*
X126358Y105500D01*
X123799Y103537D01*
X121836Y100978D01*
X120602Y97998D01*
X120510Y97300D01*
X144563D01*
X144471Y97998D01*
X143237Y100978D01*
X141273Y103537D01*
X138714Y105500D01*
X136853Y106271D01*
Y107646D01*
X139219Y108626D01*
X141986Y110750D01*
X144110Y113518D01*
X145445Y116741D01*
X145901Y120200D01*
X145445Y123659D01*
X144672Y125527D01*
X145377Y126582D01*
X155498D01*
Y81208D01*
X154441Y80503D01*
X153638Y80835D01*
X151289Y81145D01*
X148939Y80835D01*
X146750Y79928D01*
X146620Y79828D01*
X146470Y79928D01*
X145532Y80555D01*
X143199Y81019D01*
X137159D01*
X134826Y80555D01*
X133670Y79783D01*
X132679Y79313D01*
X131687Y79783D01*
X130532Y80555D01*
X128199Y81019D01*
X122159D01*
X119826Y80555D01*
X117847Y79233D01*
X117037Y78020D01*
X114970D01*
X112629Y77554D01*
X110644Y76228D01*
X107770Y73354D01*
X106500Y73880D01*
Y111700D01*
X73500D01*
Y53700D01*
X74316D01*
X74747Y52430D01*
X74081Y51919D01*
X72639Y50039D01*
X71732Y47849D01*
X71422Y45500D01*
X71732Y43151D01*
X72639Y40961D01*
X74081Y39081D01*
X74383Y38850D01*
Y37892D01*
X74348Y37841D01*
X73882Y35500D01*
Y16500D01*
X74348Y14159D01*
X74383Y14108D01*
Y10404D01*
X74600Y9311D01*
X74594Y9232D01*
X73576Y7947D01*
X72412Y7794D01*
X70465Y6988D01*
X68794Y5706D01*
X67512Y4035D01*
X66706Y2088D01*
X66431Y0D01*
X66706Y-2088D01*
X66861Y-2462D01*
X66060Y-3848D01*
X65488Y-3924D01*
X63846Y-4604D01*
X62436Y-5686D01*
X61354Y-7096D01*
X60979Y-8000D01*
X67250D01*
Y-13000D01*
X60979D01*
X61116Y-13329D01*
X60240Y-14450D01*
X60000Y-14402D01*
X54500D01*
Y-30000D01*
X52000D01*
Y-32500D01*
X38902D01*
Y-40500D01*
X39290Y-42451D01*
X40395Y-44105D01*
X40451Y-44142D01*
X40065Y-45412D01*
X-45412D01*
X-45412Y331557D01*
X-44142Y332236D01*
X-42817Y331351D01*
D02*
G37*
G36*
X45036Y442000D02*
Y418000D01*
X50480D01*
Y387296D01*
Y376902D01*
X39120Y365542D01*
X38959Y365609D01*
X35500Y366064D01*
X32041Y365609D01*
X28818Y364274D01*
X26050Y362150D01*
X23926Y359382D01*
X22591Y356159D01*
X22084Y355795D01*
X20460Y356118D01*
X-460D01*
X-2817Y355650D01*
X-4815Y354315D01*
X-6150Y352317D01*
X-6618Y349960D01*
Y337040D01*
X-6471Y336301D01*
X-9136Y333636D01*
X-10178Y332278D01*
X-10561Y331352D01*
X-10833Y330697D01*
X-11056Y329000D01*
Y326034D01*
X-11331Y325850D01*
X-12653Y323872D01*
X-13117Y321538D01*
Y315499D01*
X-12653Y313165D01*
X-11331Y311187D01*
X-9353Y309865D01*
X-7020Y309401D01*
X-1980D01*
X353Y309865D01*
X2331Y311187D01*
X2865Y311986D01*
X4135D01*
X4669Y311187D01*
X6647Y309865D01*
X8980Y309401D01*
X14020D01*
X16353Y309865D01*
X18331Y311187D01*
X18849Y311962D01*
X26718D01*
X28415Y312186D01*
X29206Y312513D01*
X29997Y312841D01*
X31354Y313883D01*
X31915Y314443D01*
X32041Y314391D01*
X35500Y313936D01*
X38959Y314391D01*
X42182Y315726D01*
X44950Y317850D01*
X47074Y320618D01*
X48409Y323841D01*
X48864Y327300D01*
X48409Y330759D01*
X47074Y333982D01*
X44950Y336750D01*
X42182Y338874D01*
X40996Y339365D01*
Y340635D01*
X42182Y341126D01*
X44950Y343250D01*
X47074Y346018D01*
X48409Y349241D01*
X48864Y352700D01*
X48409Y356159D01*
X48371Y356250D01*
X61672Y369551D01*
X62714Y370908D01*
X63098Y371835D01*
X63369Y372490D01*
X63592Y374186D01*
Y381990D01*
X69669D01*
Y374026D01*
X70133Y371693D01*
X71455Y369715D01*
X73433Y368393D01*
X75766Y367929D01*
X88306D01*
X90640Y368393D01*
X92618Y369715D01*
X93939Y371693D01*
X94403Y374026D01*
Y379702D01*
X95577Y380188D01*
X111123Y364642D01*
Y350000D01*
Y299925D01*
X110602Y299577D01*
X109277Y297594D01*
X108939Y295896D01*
X107631Y295831D01*
X107067Y297691D01*
X105210Y301165D01*
X102711Y304211D01*
X99665Y306710D01*
X96191Y308567D01*
X92421Y309711D01*
X88500Y310097D01*
X38000D01*
X34079Y309711D01*
X30309Y308567D01*
X26835Y306710D01*
X23789Y304211D01*
X19676Y300097D01*
X2593D01*
X617Y300696D01*
X-3500Y301102D01*
X-7617Y300696D01*
X-11575Y299495D01*
X-15223Y297545D01*
X-18421Y294921D01*
X-21045Y291723D01*
X-22174Y289612D01*
X-23444Y289930D01*
Y327150D01*
Y330882D01*
X-19540D01*
X-17183Y331351D01*
X-15185Y332685D01*
X-13851Y334683D01*
X-13382Y337040D01*
Y349960D01*
X-13851Y352317D01*
X-15185Y354315D01*
X-17183Y355650D01*
X-19540Y356118D01*
X-40460D01*
X-42817Y355650D01*
X-44142Y354764D01*
X-45412Y355443D01*
X-45412Y441514D01*
X-44514Y442412D01*
X43937D01*
X45036Y442000D01*
D02*
G37*
G36*
X254943Y192042D02*
X255699Y190218D01*
X256901Y188651D01*
X258468Y187449D01*
X260292Y186693D01*
X262250Y186435D01*
X264694D01*
Y154750D01*
X264917Y153053D01*
X265189Y152398D01*
X265572Y151472D01*
X266614Y150114D01*
X362199Y54529D01*
X361713Y53356D01*
X213537D01*
X213051Y54529D01*
X216136Y57614D01*
X217178Y58972D01*
X217561Y59898D01*
X217833Y60553D01*
X218056Y62250D01*
Y118711D01*
X227272Y127928D01*
X228475Y127520D01*
X228552Y126933D01*
X229736Y124074D01*
X231620Y121620D01*
X234074Y119736D01*
X236933Y118552D01*
X237500Y118478D01*
Y130000D01*
X240000D01*
Y132500D01*
X251522D01*
X251448Y133067D01*
X250264Y135926D01*
X248380Y138380D01*
X245926Y140264D01*
X243067Y141447D01*
X242480Y141525D01*
X242072Y142727D01*
X251636Y152291D01*
X252678Y153649D01*
X253061Y154575D01*
X253333Y155230D01*
X253556Y156927D01*
Y192847D01*
X254826Y192931D01*
X254943Y192042D01*
D02*
G37*
G36*
X117191Y53332D02*
X117468Y51939D01*
X118568Y50292D01*
X120216Y49191D01*
X122159Y48804D01*
X124857D01*
X125383Y47534D01*
X120853Y43005D01*
X119527Y41020D01*
X119189Y39323D01*
X117841Y39055D01*
X117326Y39826D01*
X115341Y41152D01*
X113000Y41618D01*
X112000D01*
X109659Y41152D01*
X108500Y40377D01*
X107341Y41152D01*
X105000Y41618D01*
X104000D01*
X101659Y41152D01*
X100500Y40377D01*
X99341Y41152D01*
X97000Y41618D01*
X96000D01*
X93659Y41152D01*
X92500Y40377D01*
X91341Y41152D01*
X89931Y41432D01*
X89240Y42664D01*
X89715Y43882D01*
X103930D01*
X106271Y44348D01*
X108256Y45674D01*
X115160Y52578D01*
X115842Y53600D01*
X117191Y53332D01*
D02*
G37*
G36*
X193571Y125499D02*
X188364Y120292D01*
X187322Y118934D01*
X187002Y118160D01*
X186000D01*
X184173Y117920D01*
X182470Y117214D01*
X181007Y116092D01*
X179905Y114656D01*
X175000D01*
X173303Y114433D01*
X172648Y114161D01*
X171722Y113778D01*
X170364Y112736D01*
X168906Y111278D01*
X167733Y111764D01*
Y126582D01*
X192508D01*
X192945Y126669D01*
X193571Y125499D01*
D02*
G37*
G36*
X127812Y257130D02*
Y254764D01*
X128276Y252431D01*
X129598Y250453D01*
X131576Y249131D01*
X133909Y248667D01*
X138949D01*
X141282Y249131D01*
X143260Y250453D01*
X143794Y251252D01*
X145064D01*
X145597Y250453D01*
X147210Y249376D01*
X147363Y248200D01*
X147296Y247907D01*
X146277Y247226D01*
X145177Y245578D01*
X144790Y243635D01*
Y243615D01*
X152888D01*
Y238615D01*
X144790D01*
Y238595D01*
X145177Y236652D01*
X146277Y235005D01*
X147149Y234422D01*
X147183Y234323D01*
X147063Y232953D01*
X145556Y231947D01*
X144235Y229968D01*
X143771Y227635D01*
Y222595D01*
X144235Y220262D01*
X145308Y218656D01*
X145466Y217789D01*
X145308Y216923D01*
X144235Y215317D01*
X143771Y212984D01*
Y211056D01*
X88204D01*
X87489Y211989D01*
X85888Y213217D01*
X86144Y214621D01*
X86345Y214682D01*
X89211Y216214D01*
X91724Y218276D01*
X93786Y220789D01*
X95318Y223655D01*
X96261Y226765D01*
X96580Y230000D01*
X96261Y233235D01*
X95318Y236345D01*
X93786Y239211D01*
X91724Y241724D01*
X89211Y243786D01*
X86345Y245318D01*
X84738Y245805D01*
X84672Y247152D01*
X84791Y247202D01*
X86776Y248724D01*
X88298Y250709D01*
X89247Y253000D01*
X63753D01*
X64702Y250709D01*
X66224Y248724D01*
X68209Y247202D01*
X68328Y247152D01*
X68262Y245805D01*
X66655Y245318D01*
X63789Y243786D01*
X61276Y241724D01*
X59214Y239211D01*
X57682Y236345D01*
X56826Y233522D01*
X55556Y233711D01*
Y257571D01*
X58647Y260662D01*
X63481D01*
X64329Y259392D01*
X63753Y258000D01*
X89247D01*
X88671Y259392D01*
X89519Y260662D01*
X122612D01*
X124086Y260856D01*
X127812Y257130D01*
D02*
G37*
G36*
X225036Y442000D02*
Y436556D01*
X218536D01*
X216840Y436333D01*
X215258Y435678D01*
X213901Y434636D01*
X195229Y415965D01*
X194056Y416451D01*
Y429500D01*
X193833Y431197D01*
X193178Y432778D01*
X192136Y434136D01*
X190778Y435178D01*
X189197Y435833D01*
X187500Y436056D01*
X182515D01*
X180595Y438559D01*
X178088Y440482D01*
X176495Y441142D01*
X176747Y442412D01*
X223937D01*
X225036Y442000D01*
D02*
G37*
G36*
X269927Y441142D02*
X269651Y440730D01*
X269460Y439770D01*
X268061Y439243D01*
X267584Y439608D01*
X264908Y440717D01*
X264536Y440766D01*
Y430000D01*
Y419234D01*
X264908Y419283D01*
X266973Y420138D01*
X268204Y419413D01*
X268243Y419353D01*
Y414940D01*
X262533Y409230D01*
X262281Y408902D01*
X262074Y408861D01*
X260091Y407536D01*
X259331Y406398D01*
X257803Y406398D01*
X257525Y406815D01*
X255872Y407919D01*
X253923Y408307D01*
X253668D01*
Y400209D01*
X248668D01*
Y408307D01*
X248414D01*
X246465Y407919D01*
X244862Y406849D01*
X244569Y406907D01*
X243592Y407276D01*
Y418000D01*
X249036D01*
Y442000D01*
X250136Y442412D01*
X269248D01*
X269927Y441142D01*
D02*
G37*
%LPC*%
G36*
X60000Y40598D02*
X54500D01*
Y27500D01*
X65098D01*
Y35500D01*
X64710Y37451D01*
X63605Y39105D01*
X61951Y40210D01*
X60000Y40598D01*
D02*
G37*
G36*
X45500Y80200D02*
X32500D01*
Y54700D01*
X45500D01*
Y80200D01*
D02*
G37*
G36*
X27500D02*
X14500D01*
Y54700D01*
X27500D01*
Y80200D01*
D02*
G37*
G36*
X130036Y92300D02*
X120510D01*
X120602Y91602D01*
X121836Y88622D01*
X123799Y86063D01*
X126358Y84100D01*
X129339Y82865D01*
X130036Y82773D01*
Y92300D01*
D02*
G37*
G36*
X57500Y130200D02*
X32000D01*
Y117200D01*
X57500D01*
Y130200D01*
D02*
G37*
G36*
X-7500Y119274D02*
Y110000D01*
X1774D01*
X1691Y110633D01*
X482Y113552D01*
X-1442Y116059D01*
X-3948Y117982D01*
X-6867Y119191D01*
X-7500Y119274D01*
D02*
G37*
G36*
X88000Y130200D02*
X62500D01*
Y117200D01*
X88000D01*
Y130200D01*
D02*
G37*
G36*
X57500Y148200D02*
X32000D01*
Y135200D01*
X57500D01*
Y148200D01*
D02*
G37*
G36*
X251522Y127500D02*
X242500D01*
Y118478D01*
X243067Y118552D01*
X245926Y119736D01*
X248380Y121620D01*
X250264Y124074D01*
X251448Y126933D01*
X251522Y127500D01*
D02*
G37*
G36*
X-12500Y119274D02*
X-13133Y119191D01*
X-16052Y117982D01*
X-18558Y116059D01*
X-20482Y113552D01*
X-21691Y110633D01*
X-21774Y110000D01*
X-12500D01*
Y119274D01*
D02*
G37*
G36*
X27500Y110700D02*
X14500D01*
Y85200D01*
X27500D01*
Y110700D01*
D02*
G37*
G36*
X144563Y92300D02*
X135036D01*
Y82773D01*
X135734Y82865D01*
X138714Y84100D01*
X141273Y86063D01*
X143237Y88622D01*
X144471Y91602D01*
X144563Y92300D01*
D02*
G37*
G36*
X45500Y110700D02*
X32500D01*
Y85200D01*
X45500D01*
Y110700D01*
D02*
G37*
G36*
X1774Y105000D02*
X-7500D01*
Y95726D01*
X-6867Y95809D01*
X-3948Y97018D01*
X-1442Y98941D01*
X482Y101448D01*
X1691Y104367D01*
X1774Y105000D01*
D02*
G37*
G36*
X-12500D02*
X-21774D01*
X-21691Y104367D01*
X-20482Y101448D01*
X-18558Y98941D01*
X-16052Y97018D01*
X-13133Y95809D01*
X-12500Y95726D01*
Y105000D01*
D02*
G37*
G36*
X49500Y40598D02*
X44000D01*
X42049Y40210D01*
X40395Y39105D01*
X39290Y37451D01*
X38902Y35500D01*
Y27500D01*
X49500D01*
Y40598D01*
D02*
G37*
G36*
X547921Y-2500D02*
X512500D01*
Y-37921D01*
X515963Y-37648D01*
X521779Y-36252D01*
X527305Y-33963D01*
X532405Y-30838D01*
X536953Y-26953D01*
X540838Y-22405D01*
X543963Y-17305D01*
X546252Y-11779D01*
X547648Y-5963D01*
X547921Y-2500D01*
D02*
G37*
G36*
X507500D02*
X472079D01*
X472352Y-5963D01*
X473748Y-11779D01*
X476037Y-17305D01*
X479162Y-22405D01*
X483047Y-26953D01*
X487595Y-30838D01*
X492695Y-33963D01*
X498221Y-36252D01*
X504037Y-37648D01*
X507500Y-37921D01*
Y-2500D01*
D02*
G37*
G36*
X-2500D02*
X-37921D01*
X-37648Y-5963D01*
X-36252Y-11779D01*
X-33963Y-17305D01*
X-30838Y-22405D01*
X-26953Y-26953D01*
X-22405Y-30838D01*
X-17305Y-33963D01*
X-11779Y-36252D01*
X-5963Y-37648D01*
X-2500Y-37921D01*
Y-2500D01*
D02*
G37*
G36*
X390275Y-20409D02*
X387900D01*
Y-27500D01*
X394991D01*
Y-25125D01*
X394632Y-23320D01*
X393609Y-21791D01*
X392080Y-20768D01*
X390275Y-20409D01*
D02*
G37*
G36*
X382900D02*
X380525D01*
X378720Y-20768D01*
X377191Y-21791D01*
X376168Y-23320D01*
X375809Y-25125D01*
Y-27500D01*
X382900D01*
Y-20409D01*
D02*
G37*
G36*
X241115Y-16208D02*
X239960Y-16360D01*
X236555Y-17771D01*
X233630Y-20015D01*
X231386Y-22940D01*
X229975Y-26345D01*
X229823Y-27500D01*
X241115D01*
Y-16208D01*
D02*
G37*
G36*
X334600Y-19409D02*
X331859Y-19770D01*
X329305Y-20828D01*
X327111Y-22511D01*
X325428Y-24705D01*
X324370Y-27259D01*
X324009Y-30000D01*
X324370Y-32741D01*
X325428Y-35295D01*
X327111Y-37489D01*
X329305Y-39172D01*
X331859Y-40230D01*
X334600Y-40591D01*
X337341Y-40230D01*
X339895Y-39172D01*
X342089Y-37489D01*
X343772Y-35295D01*
X344830Y-32741D01*
X345191Y-30000D01*
X344830Y-27259D01*
X343772Y-24705D01*
X342089Y-22511D01*
X339895Y-20828D01*
X337341Y-19770D01*
X334600Y-19409D01*
D02*
G37*
G36*
X457427Y-32500D02*
X447900D01*
Y-42027D01*
X448598Y-41935D01*
X451578Y-40700D01*
X454137Y-38737D01*
X456100Y-36178D01*
X457335Y-33198D01*
X457427Y-32500D01*
D02*
G37*
G36*
X241115Y-32500D02*
X229823D01*
X229975Y-33655D01*
X231386Y-37060D01*
X233630Y-39985D01*
X236555Y-42229D01*
X239960Y-43640D01*
X241115Y-43792D01*
Y-32500D01*
D02*
G37*
G36*
X394991D02*
X387900D01*
Y-39591D01*
X390275D01*
X392080Y-39232D01*
X393609Y-38209D01*
X394632Y-36680D01*
X394991Y-34875D01*
Y-32500D01*
D02*
G37*
G36*
X382900D02*
X375809D01*
Y-34875D01*
X376168Y-36680D01*
X377191Y-38209D01*
X378720Y-39232D01*
X380525Y-39591D01*
X382900D01*
Y-32500D01*
D02*
G37*
G36*
X360000Y-19409D02*
X357259Y-19770D01*
X354705Y-20828D01*
X352511Y-22511D01*
X350828Y-24705D01*
X349770Y-27259D01*
X349409Y-30000D01*
X349770Y-32741D01*
X350828Y-35295D01*
X352511Y-37489D01*
X354705Y-39172D01*
X357259Y-40230D01*
X360000Y-40591D01*
X362741Y-40230D01*
X365295Y-39172D01*
X367489Y-37489D01*
X369172Y-35295D01*
X370230Y-32741D01*
X370591Y-30000D01*
X370230Y-27259D01*
X369172Y-24705D01*
X367489Y-22511D01*
X365295Y-20828D01*
X362741Y-19770D01*
X360000Y-19409D01*
D02*
G37*
G36*
X49500Y-14402D02*
X44000D01*
X42049Y-14790D01*
X40395Y-15895D01*
X39290Y-17549D01*
X38902Y-19500D01*
Y-27500D01*
X49500D01*
Y-14402D01*
D02*
G37*
G36*
X-2500Y37921D02*
X-5963Y37648D01*
X-11779Y36252D01*
X-17305Y33963D01*
X-22405Y30838D01*
X-26953Y26953D01*
X-30838Y22405D01*
X-33963Y17305D01*
X-36252Y11779D01*
X-37648Y5963D01*
X-37921Y2500D01*
X-2500D01*
Y37921D01*
D02*
G37*
G36*
X407247Y7500D02*
X400500D01*
Y753D01*
X402791Y1702D01*
X404775Y3225D01*
X406298Y5209D01*
X407247Y7500D01*
D02*
G37*
G36*
X395500D02*
X388753D01*
X389702Y5209D01*
X391225Y3225D01*
X393209Y1702D01*
X395500Y753D01*
Y7500D01*
D02*
G37*
G36*
Y19247D02*
X393209Y18298D01*
X391225Y16775D01*
X389702Y14791D01*
X388753Y12500D01*
X395500D01*
Y19247D01*
D02*
G37*
G36*
X512500Y37921D02*
Y2500D01*
X547921D01*
X547648Y5963D01*
X546252Y11779D01*
X543963Y17305D01*
X540838Y22405D01*
X536953Y26953D01*
X532405Y30838D01*
X527305Y33963D01*
X521779Y36252D01*
X515963Y37648D01*
X512500Y37921D01*
D02*
G37*
G36*
X507500D02*
X504037Y37648D01*
X498221Y36252D01*
X492695Y33963D01*
X487595Y30838D01*
X483047Y26953D01*
X479162Y22405D01*
X476037Y17305D01*
X473748Y11779D01*
X472352Y5963D01*
X472079Y2500D01*
X507500D01*
Y37921D01*
D02*
G37*
G36*
X2500D02*
Y0D01*
Y-37921D01*
X5963Y-37648D01*
X11779Y-36252D01*
X17305Y-33963D01*
X22405Y-30838D01*
X26953Y-26953D01*
X30838Y-22405D01*
X33963Y-17305D01*
X36252Y-11779D01*
X37648Y-5963D01*
X38012Y-1336D01*
X39292Y-1261D01*
X39319Y-1396D01*
X40535Y-3215D01*
X42354Y-4431D01*
X44500Y-4858D01*
X49500D01*
Y10750D01*
X52000D01*
Y13250D01*
X65108D01*
Y20750D01*
X65098Y20799D01*
Y22500D01*
X38902D01*
Y20799D01*
X38892Y20750D01*
Y6106D01*
X37648Y5963D01*
X36252Y11779D01*
X33963Y17305D01*
X30838Y22405D01*
X26953Y26953D01*
X22405Y30838D01*
X17305Y33963D01*
X11779Y36252D01*
X5963Y37648D01*
X2500Y37921D01*
D02*
G37*
G36*
X447900Y-17973D02*
Y-27500D01*
X457427D01*
X457335Y-26802D01*
X456100Y-23822D01*
X454137Y-21263D01*
X451578Y-19300D01*
X448598Y-18065D01*
X447900Y-17973D01*
D02*
G37*
G36*
X149000Y-14402D02*
X143500D01*
Y-27500D01*
X154098D01*
Y-19500D01*
X153710Y-17549D01*
X152605Y-15895D01*
X150951Y-14790D01*
X149000Y-14402D01*
D02*
G37*
G36*
X154108Y8250D02*
X143500D01*
Y-4858D01*
X148500D01*
X150646Y-4431D01*
X152465Y-3215D01*
X153681Y-1396D01*
X154108Y750D01*
Y8250D01*
D02*
G37*
G36*
X138500D02*
X127892D01*
Y750D01*
X128319Y-1396D01*
X129535Y-3215D01*
X131354Y-4431D01*
X133500Y-4858D01*
X138500D01*
Y8250D01*
D02*
G37*
G36*
X65108D02*
X54500D01*
Y-4858D01*
X59500D01*
X61646Y-4431D01*
X63465Y-3215D01*
X64681Y-1396D01*
X65108Y750D01*
Y8250D01*
D02*
G37*
G36*
X88000Y148200D02*
X62500D01*
Y135200D01*
X88000D01*
Y148200D01*
D02*
G37*
G36*
X191286Y368663D02*
X189036D01*
Y365046D01*
X196832D01*
X195612Y366872D01*
X193627Y368198D01*
X191286Y368663D01*
D02*
G37*
G36*
X184036D02*
X181786D01*
X179445Y368198D01*
X177461Y366872D01*
X176241Y365046D01*
X184036D01*
Y368663D01*
D02*
G37*
G36*
X245766Y373394D02*
X245261D01*
X243312Y373006D01*
X241660Y371902D01*
X240556Y370250D01*
X240169Y368301D01*
Y368046D01*
X245766D01*
Y373394D01*
D02*
G37*
G36*
X226460Y385599D02*
X222500D01*
Y372500D01*
X231599D01*
Y380460D01*
X231208Y382426D01*
X230094Y384094D01*
X228426Y385208D01*
X226460Y385599D01*
D02*
G37*
G36*
X217500D02*
X213540D01*
X211574Y385208D01*
X209906Y384094D01*
X208792Y382426D01*
X208401Y380460D01*
Y372500D01*
X217500D01*
Y385599D01*
D02*
G37*
G36*
X37921Y397500D02*
X2500D01*
Y362079D01*
X5963Y362352D01*
X11779Y363748D01*
X17305Y366037D01*
X22405Y369162D01*
X26953Y373047D01*
X30838Y377595D01*
X33963Y382695D01*
X36252Y388221D01*
X37648Y394037D01*
X37921Y397500D01*
D02*
G37*
G36*
X391750Y358500D02*
Y346000D01*
X395806D01*
Y352500D01*
X395583Y354197D01*
X394928Y355778D01*
X393886Y357136D01*
X392528Y358178D01*
X391750Y358500D01*
D02*
G37*
G36*
X88306Y356143D02*
X84536D01*
Y339046D01*
X93384D01*
Y351066D01*
X92997Y353009D01*
X91897Y354656D01*
X90250Y355757D01*
X88306Y356143D01*
D02*
G37*
G36*
X386750Y358500D02*
X385972Y358178D01*
X384614Y357136D01*
X384385Y356837D01*
X383115D01*
X382886Y357136D01*
X381528Y358178D01*
X380750Y358500D01*
Y343500D01*
Y328500D01*
X381528Y328822D01*
X382886Y329864D01*
X383115Y330163D01*
X384385D01*
X384614Y329864D01*
X385972Y328822D01*
X386750Y328500D01*
Y343500D01*
Y358500D01*
D02*
G37*
G36*
X-2500Y397500D02*
X-37921D01*
X-37648Y394037D01*
X-36252Y388221D01*
X-33963Y382695D01*
X-30838Y377595D01*
X-26953Y373047D01*
X-22405Y369162D01*
X-17305Y366037D01*
X-11779Y363748D01*
X-5963Y362352D01*
X-2500Y362079D01*
Y397500D01*
D02*
G37*
G36*
X273887Y366972D02*
X268289D01*
Y361624D01*
X268794D01*
X270743Y362011D01*
X272395Y363115D01*
X273499Y364767D01*
X273887Y366716D01*
Y366972D01*
D02*
G37*
G36*
X444727Y384762D02*
X435200D01*
Y375235D01*
X435898Y375327D01*
X438878Y376562D01*
X441437Y378525D01*
X443400Y381084D01*
X444635Y384064D01*
X444727Y384762D01*
D02*
G37*
G36*
X79536Y440766D02*
X79165Y440717D01*
X76489Y439608D01*
X74191Y437845D01*
X72428Y435547D01*
X71319Y432872D01*
X71271Y432500D01*
X79536D01*
Y440766D01*
D02*
G37*
G36*
X259536Y427500D02*
X251271D01*
X251320Y427128D01*
X252428Y424453D01*
X254191Y422155D01*
X256489Y420392D01*
X259165Y419283D01*
X259536Y419234D01*
Y427500D01*
D02*
G37*
G36*
X84536Y440766D02*
Y432500D01*
X92802D01*
X92753Y432872D01*
X91645Y435547D01*
X89882Y437845D01*
X87584Y439608D01*
X84908Y440717D01*
X84536Y440766D01*
D02*
G37*
G36*
X377541Y439110D02*
X377036D01*
Y433762D01*
X382634D01*
Y434017D01*
X382247Y435966D01*
X381143Y437618D01*
X379490Y438722D01*
X377541Y439110D01*
D02*
G37*
G36*
X259536Y440766D02*
X259165Y440717D01*
X256489Y439608D01*
X254191Y437845D01*
X252428Y435547D01*
X251320Y432872D01*
X251271Y432500D01*
X259536D01*
Y440766D01*
D02*
G37*
G36*
X92802Y427500D02*
X84536D01*
Y419234D01*
X84908Y419283D01*
X87584Y420392D01*
X89882Y422155D01*
X91645Y424453D01*
X92753Y427128D01*
X92802Y427500D01*
D02*
G37*
G36*
X2500Y437921D02*
Y402500D01*
X37921D01*
X37648Y405963D01*
X36252Y411779D01*
X33963Y417305D01*
X30838Y422405D01*
X26953Y426953D01*
X22405Y430838D01*
X17305Y433963D01*
X11779Y436252D01*
X5963Y437648D01*
X2500Y437921D01*
D02*
G37*
G36*
X-2500D02*
X-5963Y437648D01*
X-11779Y436252D01*
X-17305Y433963D01*
X-22405Y430838D01*
X-26953Y426953D01*
X-30838Y422405D01*
X-33963Y417305D01*
X-36252Y411779D01*
X-37648Y405963D01*
X-37921Y402500D01*
X-2500D01*
Y437921D01*
D02*
G37*
G36*
X443500Y416348D02*
X431480D01*
X429537Y415961D01*
X427890Y414860D01*
X426789Y413213D01*
X426402Y411270D01*
Y407500D01*
X443500D01*
Y416348D01*
D02*
G37*
G36*
X79536Y427500D02*
X71271D01*
X71319Y427128D01*
X72428Y424453D01*
X74191Y422155D01*
X76489Y420392D01*
X79165Y419283D01*
X79536Y419234D01*
Y427500D01*
D02*
G37*
G36*
X460520Y416348D02*
X448500D01*
Y407500D01*
X465597D01*
Y411270D01*
X465211Y413213D01*
X464110Y414860D01*
X462463Y415961D01*
X460520Y416348D01*
D02*
G37*
G36*
X79536Y356143D02*
X75766D01*
X73823Y355757D01*
X72176Y354656D01*
X71075Y353009D01*
X70689Y351066D01*
Y339046D01*
X79536D01*
Y356143D01*
D02*
G37*
G36*
X198187Y179750D02*
X193089D01*
Y174153D01*
X193109D01*
X195052Y174539D01*
X196700Y175640D01*
X197800Y177287D01*
X198187Y179230D01*
Y179750D01*
D02*
G37*
G36*
X209000Y182783D02*
X208106Y182665D01*
X204944Y181355D01*
X202228Y179272D01*
X200145Y176556D01*
X198835Y173394D01*
X198717Y172500D01*
X209000D01*
Y182783D01*
D02*
G37*
G36*
X187000Y206597D02*
X186308Y206459D01*
X184649Y205351D01*
X183541Y203692D01*
X183152Y201735D01*
Y201000D01*
X187000D01*
Y206597D01*
D02*
G37*
G36*
X461600Y209500D02*
X451101D01*
X451390Y208049D01*
X452495Y206395D01*
X454149Y205290D01*
X456100Y204902D01*
X461600D01*
Y209500D01*
D02*
G37*
G36*
X192000Y206597D02*
Y201000D01*
X195848D01*
Y201735D01*
X195459Y203692D01*
X194351Y205351D01*
X192692Y206459D01*
X192000Y206597D01*
D02*
G37*
G36*
X446470Y174266D02*
Y166000D01*
X454735D01*
X454687Y166372D01*
X453578Y169047D01*
X451815Y171345D01*
X449517Y173109D01*
X446841Y174217D01*
X446470Y174266D01*
D02*
G37*
G36*
X124275Y140500D02*
X118679D01*
Y136652D01*
X119414D01*
X121371Y137041D01*
X123029Y138149D01*
X124138Y139808D01*
X124275Y140500D01*
D02*
G37*
G36*
X113679D02*
X108082D01*
X108220Y139808D01*
X109328Y138149D01*
X110987Y137041D01*
X112944Y136652D01*
X113679D01*
Y140500D01*
D02*
G37*
G36*
X119414Y149348D02*
X118679D01*
Y145500D01*
X124275D01*
X124138Y146192D01*
X123029Y147851D01*
X121371Y148959D01*
X119414Y149348D01*
D02*
G37*
G36*
X454735Y161000D02*
X446470D01*
Y152734D01*
X446841Y152783D01*
X449517Y153891D01*
X451815Y155655D01*
X453578Y157953D01*
X454687Y160628D01*
X454735Y161000D01*
D02*
G37*
G36*
X441470D02*
X433204D01*
X433253Y160628D01*
X434361Y157953D01*
X436124Y155655D01*
X438422Y153891D01*
X441098Y152783D01*
X441470Y152734D01*
Y161000D01*
D02*
G37*
G36*
X187036Y238784D02*
X183188D01*
Y238049D01*
X183577Y236092D01*
X184686Y234434D01*
X186345Y233325D01*
X187036Y233188D01*
Y238784D01*
D02*
G37*
G36*
X183020Y305598D02*
X182500D01*
Y300500D01*
X188097D01*
Y300520D01*
X187711Y302463D01*
X186610Y304110D01*
X184963Y305211D01*
X183020Y305598D01*
D02*
G37*
G36*
X177500D02*
X176980D01*
X175037Y305211D01*
X173390Y304110D01*
X172289Y302463D01*
X171903Y300520D01*
Y300500D01*
X177500D01*
Y305598D01*
D02*
G37*
G36*
X79536Y334046D02*
X70689D01*
Y322026D01*
X71075Y320083D01*
X72176Y318435D01*
X73823Y317335D01*
X75766Y316948D01*
X79536D01*
Y334046D01*
D02*
G37*
G36*
X395806Y341000D02*
X391750D01*
Y328500D01*
X392528Y328822D01*
X393886Y329864D01*
X394928Y331222D01*
X395583Y332803D01*
X395806Y334500D01*
Y341000D01*
D02*
G37*
G36*
X93384Y334046D02*
X84536D01*
Y316948D01*
X88306D01*
X90250Y317335D01*
X91897Y318435D01*
X92997Y320083D01*
X93384Y322026D01*
Y334046D01*
D02*
G37*
G36*
X214275Y269034D02*
X208679D01*
Y265186D01*
X209414D01*
X211371Y265575D01*
X213029Y266684D01*
X214138Y268342D01*
X214275Y269034D01*
D02*
G37*
G36*
X187036Y249381D02*
X186345Y249243D01*
X184686Y248135D01*
X183577Y246476D01*
X183188Y244519D01*
Y243784D01*
X187036D01*
Y249381D01*
D02*
G37*
G36*
X195885Y238784D02*
X192036D01*
Y233188D01*
X192728Y233325D01*
X194387Y234434D01*
X195495Y236092D01*
X195885Y238049D01*
Y238784D01*
D02*
G37*
G36*
X192036Y249381D02*
Y243784D01*
X195885D01*
Y244519D01*
X195495Y246476D01*
X194387Y248135D01*
X192728Y249243D01*
X192036Y249381D01*
D02*
G37*
G36*
X391484Y313078D02*
X389135Y312768D01*
X386945Y311861D01*
X385065Y310419D01*
X383623Y308539D01*
X382716Y306350D01*
X382407Y304000D01*
X382716Y301651D01*
X383623Y299461D01*
X385065Y297581D01*
X386945Y296138D01*
X389135Y295232D01*
X391484Y294922D01*
X393834Y295232D01*
X396023Y296138D01*
X397724Y297444D01*
X402701D01*
X403447Y296174D01*
X402943Y294958D01*
X402685Y293000D01*
X402943Y291042D01*
X403699Y289218D01*
X404901Y287651D01*
Y287349D01*
X403699Y285782D01*
X402943Y283958D01*
X402685Y282000D01*
X402943Y280042D01*
X403699Y278218D01*
X404274Y277468D01*
X404816Y276500D01*
X404274Y275532D01*
X403699Y274782D01*
X402943Y272958D01*
X402685Y271000D01*
X402943Y269042D01*
X403699Y267218D01*
X404274Y266469D01*
X404816Y265500D01*
X404274Y264531D01*
X403699Y263782D01*
X402943Y261958D01*
X402685Y260000D01*
X402943Y258042D01*
X403699Y256218D01*
X404274Y255469D01*
X404816Y254500D01*
X404274Y253531D01*
X403699Y252782D01*
X402943Y250958D01*
X402685Y249000D01*
X402943Y247042D01*
X403699Y245218D01*
X404901Y243651D01*
X404954Y243610D01*
X405067Y241923D01*
X404572Y241278D01*
X404250Y240500D01*
X434250D01*
X433928Y241278D01*
X433433Y241923D01*
X433545Y243610D01*
X433599Y243651D01*
X434801Y245218D01*
X435557Y247042D01*
X435815Y249000D01*
X435557Y250958D01*
X434801Y252782D01*
X434226Y253531D01*
X433684Y254500D01*
X434226Y255469D01*
X434801Y256218D01*
X435557Y258042D01*
X435634Y258624D01*
X436807Y259110D01*
X437455Y258613D01*
X440010Y257555D01*
X442751Y257194D01*
X445492Y257555D01*
X448046Y258613D01*
X450239Y260296D01*
X451922Y262489D01*
X452980Y265043D01*
X453341Y267784D01*
X452980Y270525D01*
X451922Y273080D01*
X450239Y275273D01*
X448046Y276956D01*
X445492Y278014D01*
X445189Y278054D01*
X442744Y280498D01*
X443230Y281672D01*
X448001D01*
X450244Y282118D01*
X452146Y283389D01*
X453417Y285291D01*
X453863Y287534D01*
Y298034D01*
X453417Y300278D01*
X452146Y302180D01*
X450244Y303451D01*
X448001Y303897D01*
X437501D01*
X436974Y303792D01*
X435705Y304834D01*
X435557Y305958D01*
X434801Y307782D01*
X433599Y309349D01*
X433545Y309390D01*
X433433Y311077D01*
X433928Y311722D01*
X434250Y312500D01*
X404250D01*
X404529Y311826D01*
X404201Y310900D01*
X404031Y310556D01*
X397724D01*
X396023Y311861D01*
X393834Y312768D01*
X391484Y313078D01*
D02*
G37*
G36*
X461600Y249098D02*
X456100D01*
X454149Y248710D01*
X452495Y247605D01*
X451390Y245951D01*
X451101Y244500D01*
X461600D01*
Y249098D01*
D02*
G37*
%LPD*%
D10*
X206179Y271534D02*
D03*
Y252534D02*
D03*
X229179Y262034D02*
D03*
X139179Y152500D02*
D03*
X116179Y143000D02*
D03*
Y162000D02*
D03*
D11*
X460000Y6307D02*
D03*
Y22307D02*
D03*
X248266Y349546D02*
D03*
Y365546D02*
D03*
X374536Y431262D02*
D03*
Y415262D02*
D03*
X300000Y418786D02*
D03*
Y434786D02*
D03*
X358117Y415262D02*
D03*
Y431262D02*
D03*
X265789Y385471D02*
D03*
Y369471D02*
D03*
D12*
X96500Y0D02*
D03*
X90000D02*
D03*
X103000D02*
D03*
X83500D02*
D03*
X109500D02*
D03*
D13*
X124679Y71902D02*
D03*
X140679D02*
D03*
X140679Y56902D02*
D03*
X124679D02*
D03*
X342250Y403000D02*
D03*
X326250D02*
D03*
X144500Y177500D02*
D03*
X160500D02*
D03*
X114036D02*
D03*
X130036D02*
D03*
X-4500Y318518D02*
D03*
X11500D02*
D03*
X174589Y182250D02*
D03*
X190589D02*
D03*
X114036Y193714D02*
D03*
X130036D02*
D03*
X136429Y257784D02*
D03*
X152429D02*
D03*
D14*
X140179Y56402D02*
D03*
Y72402D02*
D03*
X125179D02*
D03*
Y56402D02*
D03*
X180000Y282000D02*
D03*
Y298000D02*
D03*
X160000D02*
D03*
Y282000D02*
D03*
X246000Y259784D02*
D03*
Y275784D02*
D03*
X374536Y372000D02*
D03*
Y388000D02*
D03*
X152888Y225115D02*
D03*
Y241115D02*
D03*
Y194464D02*
D03*
Y210464D02*
D03*
D15*
X510600Y326000D02*
D03*
X519400D02*
D03*
D16*
X52000Y25000D02*
D03*
Y-30000D02*
D03*
X141000D02*
D03*
Y25000D02*
D03*
D17*
X112500Y26000D02*
D03*
X104500D02*
D03*
X96500D02*
D03*
X88500D02*
D03*
X80500D02*
D03*
D18*
X285036Y403000D02*
D03*
X304036D02*
D03*
Y377000D02*
D03*
X294536D02*
D03*
X285036D02*
D03*
D19*
X301250Y343500D02*
D03*
X312250D02*
D03*
X323250D02*
D03*
X334250D02*
D03*
X345250D02*
D03*
X356250D02*
D03*
X367250D02*
D03*
X378250D02*
D03*
X389250D02*
D03*
Y176500D02*
D03*
X378250D02*
D03*
X367250D02*
D03*
X356250D02*
D03*
X345250D02*
D03*
X334250D02*
D03*
X323250D02*
D03*
X312250D02*
D03*
X301250D02*
D03*
D20*
X419250Y194000D02*
D03*
Y205000D02*
D03*
Y216000D02*
D03*
Y227000D02*
D03*
Y238000D02*
D03*
Y249000D02*
D03*
Y260000D02*
D03*
Y271000D02*
D03*
Y282000D02*
D03*
Y293000D02*
D03*
Y304000D02*
D03*
Y315000D02*
D03*
Y326000D02*
D03*
X271250D02*
D03*
Y315000D02*
D03*
Y304000D02*
D03*
Y293000D02*
D03*
Y282000D02*
D03*
Y271000D02*
D03*
Y260000D02*
D03*
Y249000D02*
D03*
Y238000D02*
D03*
Y227000D02*
D03*
Y216000D02*
D03*
Y205000D02*
D03*
Y194000D02*
D03*
D21*
X109500Y-4250D02*
D03*
X83500D02*
D03*
X103000D02*
D03*
X90000D02*
D03*
X96500D02*
D03*
D22*
X136500Y-30750D02*
D03*
X56500D02*
D03*
D23*
X193000Y57300D02*
D03*
Y108100D02*
D03*
X445000D02*
D03*
Y82700D02*
D03*
Y57300D02*
D03*
X193000Y82700D02*
D03*
D24*
X449100Y326000D02*
D03*
Y227000D02*
D03*
D25*
X464100Y311000D02*
D03*
Y341000D02*
D03*
Y242000D02*
D03*
Y212000D02*
D03*
D26*
X470000Y285000D02*
D03*
D27*
X520000Y286000D02*
D03*
D28*
X540000Y315000D02*
D03*
X475022D02*
D03*
D29*
X52000Y10750D02*
D03*
X141000D02*
D03*
D30*
X220000Y370000D02*
D03*
Y330000D02*
D03*
D31*
X394000Y405000D02*
D03*
X446000D02*
D03*
D32*
X82036Y388546D02*
D03*
Y336546D02*
D03*
D33*
X186536Y324450D02*
D03*
Y337150D02*
D03*
Y349850D02*
D03*
Y362546D02*
D03*
X132536D02*
D03*
Y349850D02*
D03*
Y337150D02*
D03*
Y324450D02*
D03*
D34*
X140000Y406000D02*
D03*
X180000D02*
D03*
D35*
X137679Y290000D02*
D03*
X117679D02*
D03*
D36*
X-30000Y343500D02*
D03*
X10000D02*
D03*
D37*
X279610Y417036D02*
D03*
Y435036D02*
D03*
D38*
X267169Y400209D02*
D03*
X251168D02*
D03*
D39*
X180000Y221500D02*
D03*
X189500Y198500D02*
D03*
X170500D02*
D03*
X180036Y264284D02*
D03*
X189536Y241284D02*
D03*
X170536D02*
D03*
D40*
X38000Y290000D02*
X88500D01*
X28000Y280000D02*
X38000Y290000D01*
X-3500Y280000D02*
X28000D01*
X-3500Y180000D02*
X6500Y170000D01*
X88500D01*
D41*
X55931Y267218D02*
X122612D01*
X49000Y260287D02*
X55931Y267218D01*
X49000Y195000D02*
Y260287D01*
X262036Y430000D02*
X317036D01*
X300000Y432017D02*
X301708Y430308D01*
X300000Y432017D02*
Y434786D01*
X279610Y431036D02*
Y435036D01*
X99341Y147818D02*
X113523Y162000D01*
X99341Y126484D02*
Y147818D01*
X261936Y227000D02*
X271250D01*
X237500Y160156D02*
Y202564D01*
X261936Y216000D02*
X271250D01*
X247000Y201064D02*
X261936Y216000D01*
X247000Y156927D02*
Y201064D01*
X237500Y202564D02*
X261936Y227000D01*
X122612Y267218D02*
X125394Y270000D01*
X113523Y162000D02*
X116179D01*
X140179Y72402D02*
X150954D01*
X151289Y72067D01*
X170500Y186339D02*
X174589Y182250D01*
X170500Y186339D02*
Y198500D01*
X246207Y317795D02*
X260002Y304000D01*
X271250D01*
X246207Y292395D02*
X270645D01*
X271250Y293000D01*
Y271000D02*
X304851D01*
X306750Y269101D01*
Y249144D02*
Y269101D01*
X300000Y242394D02*
X306750Y249144D01*
X300000Y207500D02*
Y242394D01*
X314000Y207500D02*
Y277534D01*
X309534Y282000D02*
X314000Y277534D01*
X271250Y282000D02*
X309534D01*
X285053Y205000D02*
X290000Y200053D01*
Y185964D02*
Y200053D01*
X285036Y181000D02*
X290000Y185964D01*
X271250Y205000D02*
X285053D01*
X377710Y222673D02*
X389250Y211133D01*
X334250Y176500D02*
Y204677D01*
X334536Y204964D01*
X211500Y121427D02*
X247000Y156927D01*
X193000Y115656D02*
X237500Y160156D01*
X329750Y377000D02*
X342250Y389500D01*
X423500Y108100D02*
X445000D01*
X351936D02*
X423500D01*
X430371Y42037D02*
X450101Y22307D01*
X460000D01*
X446400Y6307D02*
X460000D01*
X405907Y46800D02*
X446400Y6307D01*
X170039Y46800D02*
X405907D01*
X169000Y47839D02*
X170039Y46800D01*
X169000Y47839D02*
Y102100D01*
X175000Y108100D01*
X193000D01*
X112823Y192500D02*
X114036Y193714D01*
X51500Y192500D02*
X112823D01*
X49000Y195000D02*
X51500Y192500D01*
X114036Y177500D02*
Y193714D01*
X139929D02*
X140179Y193964D01*
X130036Y193714D02*
X139929D01*
X76500Y204500D02*
X146924D01*
X152888Y210464D01*
X125179Y269034D02*
Y269784D01*
Y269034D02*
X136429Y257784D01*
X211500Y290000D02*
X229179Y272321D01*
Y262034D02*
Y272321D01*
X193000Y108100D02*
Y115656D01*
X114036Y177500D02*
X116179Y175357D01*
Y162000D02*
Y175357D01*
X137000Y170000D02*
Y170536D01*
Y170000D02*
X144500Y177500D01*
X130036D02*
X137000Y170536D01*
X130036Y177500D02*
X144500D01*
X137000Y170000D02*
X137036D01*
X125179Y269784D02*
X125394Y270000D01*
X170536Y241284D02*
Y244784D01*
X157536Y257784D02*
X170536Y244784D01*
X152429Y257784D02*
X157536D01*
X267169Y400209D02*
Y404594D01*
X279610Y417036D01*
X285036Y386222D02*
Y403000D01*
Y377000D02*
Y386222D01*
X266539D02*
X285036D01*
X265789Y385471D02*
X266539Y386222D01*
X242500Y385471D02*
X265789D01*
X237036Y390935D02*
X242500Y385471D01*
X237036Y390935D02*
Y430000D01*
X342036Y415262D02*
Y416607D01*
Y403214D02*
Y415262D01*
X343381D02*
X358117D01*
X342036D02*
X343381D01*
X312779D02*
X342036D01*
X309255Y418786D02*
X312779Y415262D01*
X300000Y418786D02*
X309255D01*
X298250Y417036D02*
X300000Y418786D01*
X279610Y417036D02*
X298250D01*
X152888Y194464D02*
X156924Y198500D01*
X152388Y193964D02*
X152888Y194464D01*
X156924Y198500D02*
X170500D01*
X140179Y193964D02*
X152388D01*
X389250Y176500D02*
Y211133D01*
X378250Y203947D02*
X378536Y204234D01*
X378250Y176500D02*
Y203947D01*
X180036Y264284D02*
X205752Y290000D01*
X211500D01*
X26718Y318518D02*
X35500Y327300D01*
X11500Y318518D02*
X26718D01*
X-4500Y329000D02*
X10000Y343500D01*
X-4500Y318518D02*
Y329000D01*
X14573Y340000D02*
X22850D01*
X57036Y374186D02*
Y387296D01*
X22850Y340000D02*
X57036Y374186D01*
X-30000Y327150D02*
Y340000D01*
X391484Y304000D02*
X419250D01*
X323250Y343500D02*
Y362565D01*
X312250Y343500D02*
Y360815D01*
X301250Y343500D02*
Y360000D01*
X303815Y362565D01*
X339700D01*
X355700Y378565D01*
X362265Y372000D01*
X374536D01*
Y403000D02*
X392000D01*
X358117D02*
X374536D01*
X342250D02*
X358117D01*
X374536D02*
Y415262D01*
Y388000D02*
Y403000D01*
X358117Y415262D02*
X374536D01*
X358117Y403000D02*
Y415262D01*
X342036Y416607D02*
Y430000D01*
Y416607D02*
X343381Y415262D01*
X342036Y403214D02*
X342250Y403000D01*
X407300Y387262D02*
Y391700D01*
X394000Y405000D02*
X407300Y391700D01*
X392000Y403000D02*
X394000Y405000D01*
X342250Y389500D02*
Y403000D01*
X304036Y377000D02*
X329750D01*
X304036Y403000D02*
X326250D01*
X285036D02*
X304036D01*
X212850Y337150D02*
X220000Y330000D01*
X186536Y337150D02*
X212850D01*
X169670D02*
X186536D01*
X162536Y344283D02*
X169670Y337150D01*
X162536Y344283D02*
Y383464D01*
X140000Y406000D02*
X162536Y383464D01*
X180000Y406000D02*
X194536D01*
X218536Y430000D01*
X237036D01*
X247962Y349850D02*
X248266Y349546D01*
X186536Y349850D02*
X247962D01*
X145000Y308825D02*
X148730Y305095D01*
Y286770D02*
Y305095D01*
X180000Y298000D02*
Y310000D01*
X160000Y298000D02*
Y310000D01*
X132536Y324450D02*
X186536D01*
X132536Y295142D02*
Y324450D01*
X172371Y406000D02*
X180000D01*
X210977Y370000D02*
X220000D01*
X203523Y362546D02*
X210977Y370000D01*
X186536Y362546D02*
X203523D01*
X160000Y282000D02*
X180000D01*
X153500D02*
X160000D01*
X148730Y286770D02*
X153500Y282000D01*
X141601Y362546D02*
X148730Y355416D01*
X132536Y362546D02*
X141601D01*
X132536Y324450D02*
Y337150D01*
Y295142D02*
X137679Y290000D01*
X117679Y350000D02*
Y367358D01*
Y290000D02*
Y350000D01*
X117829Y349850D01*
X132536D01*
X96490Y388546D02*
X117679Y367358D01*
X82036Y388546D02*
X96490D01*
X57036Y387296D02*
Y430000D01*
Y387296D02*
X58286Y388546D01*
X82036D01*
X-30000Y92500D02*
Y327150D01*
Y92500D02*
X-10000Y72500D01*
X117679Y49402D02*
X124679Y56402D01*
X125179D01*
X510600Y326000D02*
X510600Y326000D01*
X510000Y326600D02*
X510600Y326000D01*
X510000Y326600D02*
Y400000D01*
X519400Y326000D02*
X520000Y325400D01*
Y286000D02*
Y325400D01*
X345250Y176500D02*
Y193964D01*
X356250Y204964D01*
X356250D01*
X388998Y151000D02*
X413998Y176000D01*
X332000Y151000D02*
X388998D01*
X323250Y159750D02*
X332000Y151000D01*
X431470Y176000D02*
X443970Y188500D01*
X413998Y176000D02*
X431470D01*
X360036Y82700D02*
X445000D01*
X285036Y157700D02*
X360036Y82700D01*
X285036Y157700D02*
Y181000D01*
X301250Y158786D02*
Y176500D01*
Y158786D02*
X351936Y108100D01*
X368700Y57300D02*
X445000D01*
X271250Y154750D02*
X368700Y57300D01*
X271250Y154750D02*
Y194000D01*
X211500Y62250D02*
Y121427D01*
X206550Y57300D02*
X211500Y62250D01*
X193000Y57300D02*
X206550D01*
X323250Y159750D02*
Y176500D01*
X442751Y267784D02*
Y271220D01*
X431971Y282000D02*
X442751Y271220D01*
X419250Y282000D02*
X431971D01*
X442535Y293000D02*
X442751Y292784D01*
X419250Y293000D02*
X442535D01*
X470022Y268000D02*
Y285000D01*
X466250D02*
X470000D01*
X465045D02*
X466250D01*
X470000D01*
X465045D02*
X466250D01*
X470000D01*
X465045D02*
X466250D01*
X470000D01*
X465045D02*
X466250D01*
X465045Y256000D02*
Y276000D01*
Y285000D01*
Y76000D02*
Y168889D01*
Y256000D01*
Y56000D02*
Y61000D01*
Y71000D01*
Y76000D01*
Y256000D02*
Y276000D01*
X475000Y76000D02*
X550000D01*
X470022D02*
X475000D01*
X465045D02*
X470022D01*
X475000D01*
X465045D02*
X470022D01*
X520000Y276000D02*
X520000D01*
X500000D02*
X520000D01*
X465045Y61000D02*
X550000D01*
Y66000D01*
X465045D02*
X550000D01*
X465045Y56000D02*
X550000D01*
Y76000D01*
X465045Y71000D02*
X550000D01*
X540000Y116000D02*
Y286000D01*
X530000Y116000D02*
X540000D01*
X530000D02*
Y296000D01*
X550000D01*
X500100Y116000D02*
X520000D01*
Y136000D01*
X500100D02*
X520000D01*
X500100D02*
Y156000D01*
X520000D01*
Y176000D01*
X500100D02*
X520000D01*
X500100D02*
Y196000D01*
X520000D01*
Y216000D01*
X500100D02*
X520000D01*
X500100D02*
Y236000D01*
X520000D01*
Y256000D01*
X500000D02*
X520000D01*
X500000D02*
Y276000D01*
X500100Y101000D02*
Y116000D01*
Y101000D02*
X550000D01*
Y296000D01*
X470000Y285000D02*
X470022D01*
X470045D01*
X470000D02*
X470022D01*
X470045D01*
X475000D01*
X475045D01*
X470000D02*
X470022D01*
X470045D01*
X475000D01*
X475045D01*
X470000D02*
X470022D01*
X470045D01*
X475000D01*
X470022Y238000D02*
Y268000D01*
Y76000D02*
Y238000D01*
X475000Y280284D02*
Y285000D01*
Y76000D02*
Y280284D01*
D42*
X419250Y227000D02*
X449100D01*
X419250Y326000D02*
X449100D01*
D43*
X83500Y-4250D02*
Y0D01*
X77500Y-10250D02*
X83500Y-4250D01*
X109500D02*
X115500Y-10250D01*
X161615Y132700D02*
X192508D01*
X132679D02*
X161615D01*
Y39452D02*
Y132700D01*
Y39452D02*
X167867Y33200D01*
X398300D01*
X420000Y11500D01*
Y-30000D02*
Y11500D01*
X238429Y258737D02*
X239692Y260000D01*
X238429Y258308D02*
Y258737D01*
X234905Y254784D02*
X238429Y258308D01*
X234476Y254784D02*
X234905D01*
X234419Y254727D02*
X234476Y254784D01*
X239692Y260000D02*
X271250D01*
X221693Y254727D02*
X234419D01*
X208655Y241689D02*
X221693Y254727D01*
X227315Y162000D02*
Y199685D01*
X208655Y218345D02*
X227315Y199685D01*
X208655Y218345D02*
Y241689D01*
X214162Y148847D02*
X227315Y162000D01*
X208655Y148847D02*
X214162D01*
X192508Y132700D02*
X208655Y148847D01*
X132536Y145857D02*
X139179Y152500D01*
X132536Y120200D02*
Y145857D01*
X170536Y225115D02*
Y241284D01*
Y221623D02*
Y225115D01*
X176385D01*
X152888D02*
X170536D01*
X176385D02*
X180000Y221500D01*
X152888Y210464D02*
Y225115D01*
Y210464D02*
X159377D01*
X170536Y221623D01*
X271250Y260000D02*
X271250Y260000D01*
X296284D01*
X125179Y38679D02*
X130693Y44193D01*
X125179Y30250D02*
Y38679D01*
X120929Y26000D02*
X125179Y30250D01*
X112500Y26000D02*
X120929D01*
X130693Y44193D02*
X137157D01*
X80500Y26000D02*
Y45500D01*
X85000Y50000D01*
X103930D01*
X110834Y56904D01*
Y67766D01*
X114970Y71902D01*
X124679D01*
X140179Y47214D02*
Y56402D01*
X137157Y44193D02*
X140179Y47214D01*
X83500Y0D02*
Y7404D01*
X80500Y10404D02*
Y26000D01*
Y10404D02*
X83500Y7404D01*
X109500Y0D02*
Y8500D01*
Y-4250D02*
Y0D01*
X112500Y11500D02*
Y26000D01*
X109500Y8500D02*
X112500Y11500D01*
D44*
X449100Y326000D02*
X510600D01*
D45*
X193615Y-30000D02*
D03*
X243615D02*
D03*
X293615D02*
D03*
X-3500Y180000D02*
D03*
Y230000D02*
D03*
Y280000D02*
D03*
D46*
X76500Y255500D02*
D03*
Y230000D02*
D03*
Y204500D02*
D03*
D47*
X125750Y-10500D02*
D03*
X67250D02*
D03*
X115500Y-10250D02*
D03*
X77500D02*
D03*
D48*
X96500Y-18250D02*
D03*
D49*
X385400Y-30000D02*
D03*
D50*
X360000D02*
D03*
X334600D02*
D03*
X442751Y267784D02*
D03*
X246207Y292395D02*
D03*
Y317795D02*
D03*
D51*
X510000Y0D02*
D03*
X0Y400000D02*
D03*
Y0D02*
D03*
D52*
X118500Y0D02*
D03*
X74500D02*
D03*
D53*
X240000Y130000D02*
D03*
X398000Y10000D02*
D03*
D54*
X442751Y292784D02*
D03*
D55*
X484600Y425400D02*
D03*
X510000Y400000D02*
D03*
X484600Y374600D02*
D03*
X535400D02*
D03*
Y425400D02*
D03*
D56*
X211500Y170000D02*
D03*
Y290000D02*
D03*
X231500Y230000D02*
D03*
X88500Y170000D02*
D03*
Y290000D02*
D03*
D57*
X172036Y430000D02*
D03*
X82036D02*
D03*
X262036D02*
D03*
X443970Y163500D02*
D03*
X317036Y430000D02*
D03*
D58*
X147036D02*
D03*
X57036D02*
D03*
X237036D02*
D03*
X342036D02*
D03*
D59*
X-10000Y72500D02*
D03*
Y107500D02*
D03*
D60*
X407300Y387262D02*
D03*
D61*
X432700D02*
D03*
X267169Y-29200D02*
D03*
Y-3800D02*
D03*
X420000Y-30000D02*
D03*
X445400D02*
D03*
X35500Y352700D02*
D03*
Y327300D02*
D03*
X355700Y378565D02*
D03*
X330300D02*
D03*
X132536Y94800D02*
D03*
Y120200D02*
D03*
D62*
X443970Y188500D02*
D03*
D63*
X30000Y82700D02*
D03*
X90000D02*
D03*
D64*
X60000Y132700D02*
D03*
D65*
X83500Y-35295D02*
D03*
X316032Y-17308D02*
D03*
X193000Y258737D02*
D03*
X148730Y105751D02*
D03*
X180421Y70000D02*
D03*
X435382Y-9082D02*
D03*
X472721Y40244D02*
D03*
X472084Y-32500D02*
D03*
X540000Y42260D02*
D03*
X366317Y6988D02*
D03*
X389519Y125527D02*
D03*
X365000Y127928D02*
D03*
X251326Y245805D02*
D03*
X-27890Y47036D02*
D03*
X-9353Y140500D02*
D03*
X10000Y139808D02*
D03*
X63042Y100000D02*
D03*
X175541Y123659D02*
D03*
X308929Y76000D02*
D03*
X167686Y-10133D02*
D03*
X108500Y-35295D02*
D03*
X276086Y76000D02*
D03*
X378720Y70000D02*
D03*
X373046Y94800D02*
D03*
X260835Y141447D02*
D03*
X495000Y71000D02*
D03*
X545000Y70000D02*
D03*
X412301Y138380D02*
D03*
X436512D02*
D03*
X470000Y110000D02*
D03*
Y135000D02*
D03*
Y160000D02*
D03*
Y185000D02*
D03*
Y225000D02*
D03*
X170164Y16509D02*
D03*
X299218Y102926D02*
D03*
X184111Y157335D02*
D03*
X156924Y153053D02*
D03*
X28818Y198500D02*
D03*
X-16052Y254727D02*
D03*
X100000Y255512D02*
D03*
X-15185Y305817D02*
D03*
X-35000Y364185D02*
D03*
X33060Y433133D02*
D03*
X167331Y268768D02*
D03*
X197676Y376562D02*
D03*
X158000Y334683D02*
D03*
X100000Y315000D02*
D03*
X105000Y345000D02*
D03*
X60000D02*
D03*
X40000Y380000D02*
D03*
X120000Y390000D02*
D03*
X470000Y295000D02*
D03*
X200000Y310000D02*
D03*
X229458Y304000D02*
D03*
X200000Y430000D02*
D03*
X220000Y410000D02*
D03*
X245000Y335000D02*
D03*
X265000Y350000D02*
D03*
X285000Y345000D02*
D03*
Y360000D02*
D03*
X330000Y315000D02*
D03*
Y275000D02*
D03*
Y295000D02*
D03*
X350000Y305000D02*
D03*
Y265000D02*
D03*
Y285000D02*
D03*
X370000Y255000D02*
D03*
Y275000D02*
D03*
Y295000D02*
D03*
Y315000D02*
D03*
X430000Y345000D02*
D03*
X410000D02*
D03*
X400000Y365000D02*
D03*
X440000D02*
D03*
X480000Y350000D02*
D03*
X495000D02*
D03*
X540000Y330000D02*
D03*
Y350000D02*
D03*
Y400000D02*
D03*
X510000Y430000D02*
D03*
X420000Y410000D02*
D03*
X460000Y365000D02*
D03*
Y385000D02*
D03*
Y430000D02*
D03*
X440000D02*
D03*
X420000D02*
D03*
X400000D02*
D03*
X420000Y365000D02*
D03*
X470000Y270000D02*
D03*
X220000Y395000D02*
D03*
X525000Y350000D02*
D03*
X480000Y400000D02*
D03*
X205000Y395000D02*
D03*
X150278Y371165D02*
D03*
X-16556Y204964D02*
D03*
X38892Y255000D02*
D03*
X65000Y360000D02*
D03*
X100000D02*
D03*
X110000Y410000D02*
D03*
Y430000D02*
D03*
X99341Y126484D02*
D03*
X151289Y72067D02*
D03*
X377710Y222673D02*
D03*
X334536Y204964D02*
D03*
X300000Y207500D02*
D03*
X314000D02*
D03*
X430371Y42037D02*
D03*
X423500Y108100D02*
D03*
X137036Y170000D02*
D03*
X125394Y270000D02*
D03*
X140179Y193964D02*
D03*
X378536Y204234D02*
D03*
X391484Y304000D02*
D03*
X296284Y260000D02*
D03*
X148730Y355416D02*
D03*
X145000Y308825D02*
D03*
X160000Y310000D02*
D03*
X180000D02*
D03*
X120929Y26000D02*
D03*
X80500Y45500D02*
D03*
X117679Y49402D02*
D03*
X356250Y204964D02*
D03*
M02*
