M48
;Layer_Color=9474304
;FILE_FORMAT=4:4
METRIC,LZ
;TYPE=PLATED
T2F00S00C0.4000
T3F00S00C0.7500
T4F00S00C0.8000
T5F00S00C0.9000
T6F00S00C1.1000
T7F00S00C1.1500
T8F00S00C1.3000
T9F00S00C1.4000
T10F00S00C1.5000
T11F00S00C1.7000
T12F00S00C1.7500
T13F00S00C4.0000
%
T02
X001Y0002
X0012
X001Y0005
Y0007
Y0009
Y0011
Y0013
X0007Y001
X0005
X0003
X0014Y0002
X0016
X0018
X002
X0022
X0023Y0003
X0024Y0002
X0026
X0028
X003
X0032
X0034
X0036
X0038
Y0004
Y0006
Y0008
Y001
X004
X0042
X0044
X0043625Y0011975
X0046275Y0011325
X00468418Y00126606
X0047425Y0013875
X00522485Y0012675
X00509967Y00084616
X0052285Y00069
X0049745Y0005
X00485Y00056
X0045Y0006
Y0008
Y0004
X0044Y0002
X0046
X004
X0038Y0012
Y0014
X0028Y0013
Y0011
Y0009
Y0007
X00279Y0005
X0023
Y0007
Y0009
Y0011
Y0013
X00548078Y00127029
X00559659Y00125
X005782Y00124902
X00580673Y00099
X00554104Y00090893
X00537916Y00084616
X0059945Y0008
X0062Y0005
Y0004
X006Y0002
X0056
X0054
X0065
X0067
X0069
X0074
X0076
X0078
X008
X0082
X0084
X0086
X0088
X009
X008935Y0008
X00907863Y00093307
X00923047Y001085
X00809912Y00092942
X00798674Y00085339
X0077812
X00756317
X00736751
X00697127Y0007368
X0072Y0005
Y0004
X0064175Y0010175
X0081Y0013
X00929684Y00127837
X0098Y0013
Y0011
Y0015
Y0017
Y0019
Y0021
Y0023
Y0025
Y0027
Y0029
Y0031
Y0033
Y0035
Y0037
Y0039
Y0041
X0091Y0042
X0089
X0087
X0085
Y0044
X0087
X0089
X009Y0046
X0088
X0086
X0084
X0082
X008
X0078
X0076
X0074
X0072
X007
X0068
X0066
X0064
X0062
X006
X0058
X0056
X0054
X0055Y0044
X0057
X0059
X0061
X0063
X0065
X0067
X0069
X0071
X0073
X0075
X0077
X0079
X0081
X0083
Y0042
X0081
Y004
X008309
X007875
X0079Y0042
X0077
X0075
X0073
X0071
X0069
X0067
X0065
X0063
X0061
X0059
X0057
X0055
X0053
X0053Y0044
X0053Y0048
X0055
X0057
X0059
X0061
X0063
X0065
X0067
X0069
X0071
X0073
X0075
X0077
X0079
X0081
X0083
X0085
X0087
X0089
X0091
X008765Y00398817
X0089525Y00375
X00895Y00365
Y00355
Y00345
Y00335
X00876091Y00322327
X008755Y00307
X00886113Y00287
X00907485Y00278516
X00916111Y00254
X00914612Y00233337
X00915384Y00205
X00914455Y001775
X00915969Y001535
X0081Y0015
X00809912Y00173633
Y00195759
X00810433Y00217505
X0081Y0023
X00825Y00245574
X00825787Y00259249
Y00276541
X00808084Y003065
X0079Y003035
Y003235
X0076675Y00304205
X00705787Y00299714
X00686459Y0030076
X00665Y00335
X00673751Y00345
Y00355
X00684633Y0039916
X007035Y003995
X00762
X007505Y00246035
Y0023
X0075Y0022
X00699673Y00227673
X006625Y0024025
X00633363Y002145
X00612307Y0023075
X00581107Y0023
Y0026
X00605091Y00275302
Y00293628
X00549Y00298802
X00548078Y00341218
X00564697Y00341551
X00584
X005825Y004
X00565
X005475
X005545Y00213
X00559296Y00178159
X0057075Y0018
X00559296Y0016
X0064175Y001495
X0052295Y00153
X00523Y00190501
X004849Y00189
X004722Y00201
Y00237
X005102Y00221122
X0049755Y003
X00474501Y0033
X00449183Y00350462
X00435Y00365
X00432Y00335501
X0042425Y00321
X00398484Y00307348
X00388569Y00282973
X00410332Y00284175
X0044Y0028644
X00349
X00332Y00287
X00322496Y00236
X00311Y0021
X003005Y0022
X00295Y00202
X003Y0017
X0028
X0026
X0024
X0025Y00226
X00261Y00226
X00272
X0027Y0025
X0026Y0026
X00263Y00277624
X0026Y003
X0024
X0022
X002
X0018
X0016
X00173Y00324727
X00184Y00325
X00195
X00206
X00217Y00325
X00228Y00325
X0023Y0038
X0021
X0019
X002Y004
X0022
X0018
X0028
X003
X0032
X0034
X0036
X0038
X0037Y0038
X0035
X0033
X0031
X0029
X0027
X0031Y00355
X00391Y003605
X00390527Y00374
X00408Y00350001
X00435Y00401
X0043Y0042
X0045
Y0044
X0047
X0049
X0051
Y0042
X0049
X0047
X0048Y0046
X005
X0052
X0051Y0048
X0049
X0047
X0045
X0043
X0044Y0046
X0042
X0043Y0044
X0041
X0046Y0046
X00499001Y00375
X00360074Y00254
X00398601Y00187042
X0021Y0024
Y0027
X0023
X0019
X0017
X00156Y00254
X0017Y0023
X0019
X00151Y001775
X0014Y0017
X0012
X001
Y0015
Y0019
Y0021
Y0023
Y0025
Y0027
Y0029
Y0031
Y0033
Y0037
X0011Y0038
X0012Y004
X001
X0008
X0006
X0004
X0002
X001Y0042
Y0044
Y0046
Y0048
T03
X00167Y00081
X00191
T04
X00651249Y00035
X00689249
T05
X006165Y0011325
Y0013875
Y0016425
Y0018925
Y0021475
X003685Y00195
X003435
X00355Y003375
Y003625
T06
X0067775Y0013025
X0090775
T07
X0064955Y00189
X0067495
X00829363Y001923
Y002177
X00889
Y001923
X008027Y0028
X007773
T08
X0042475Y000805
X0057025
T09
X004342Y0006
X005742
T10
X00154Y000415
X00204
X00254
X00304
X00354
X00815Y000465
X00865
X009585Y00125
Y00175
X009585Y00225
Y00275
X009585Y00325
Y00375
X00677199Y00157352
T11
X001764Y004246
Y004754
X00151Y0045
X001256Y004754
Y004246
T12
X0054475Y002385
X0045025
T13
X0005Y0005
X0095
Y0045
X0005
M30
