%FSLAX44Y44*%
%MOMM*%
G71*
G01*
G75*
G04 Layer_Color=16711935*
G04:AMPARAMS|DCode=10|XSize=1mm|YSize=0.9mm|CornerRadius=0.198mm|HoleSize=0mm|Usage=FLASHONLY|Rotation=90.000|XOffset=0mm|YOffset=0mm|HoleType=Round|Shape=RoundedRectangle|*
%AMROUNDEDRECTD10*
21,1,1.0000,0.5040,0,0,90.0*
21,1,0.6040,0.9000,0,0,90.0*
1,1,0.3960,0.2520,0.3020*
1,1,0.3960,0.2520,-0.3020*
1,1,0.3960,-0.2520,-0.3020*
1,1,0.3960,-0.2520,0.3020*
%
%ADD10ROUNDEDRECTD10*%
G04:AMPARAMS|DCode=11|XSize=2.5mm|YSize=2.3mm|CornerRadius=0.1955mm|HoleSize=0mm|Usage=FLASHONLY|Rotation=270.000|XOffset=0mm|YOffset=0mm|HoleType=Round|Shape=RoundedRectangle|*
%AMROUNDEDRECTD11*
21,1,2.5000,1.9090,0,0,270.0*
21,1,2.1090,2.3000,0,0,270.0*
1,1,0.3910,-0.9545,-1.0545*
1,1,0.3910,-0.9545,1.0545*
1,1,0.3910,0.9545,1.0545*
1,1,0.3910,0.9545,-1.0545*
%
%ADD11ROUNDEDRECTD11*%
G04:AMPARAMS|DCode=12|XSize=2.5mm|YSize=1.7mm|CornerRadius=0.204mm|HoleSize=0mm|Usage=FLASHONLY|Rotation=90.000|XOffset=0mm|YOffset=0mm|HoleType=Round|Shape=RoundedRectangle|*
%AMROUNDEDRECTD12*
21,1,2.5000,1.2920,0,0,90.0*
21,1,2.0920,1.7000,0,0,90.0*
1,1,0.4080,0.6460,1.0460*
1,1,0.4080,0.6460,-1.0460*
1,1,0.4080,-0.6460,-1.0460*
1,1,0.4080,-0.6460,1.0460*
%
%ADD12ROUNDEDRECTD12*%
G04:AMPARAMS|DCode=13|XSize=1.05mm|YSize=0.65mm|CornerRadius=0.2015mm|HoleSize=0mm|Usage=FLASHONLY|Rotation=90.000|XOffset=0mm|YOffset=0mm|HoleType=Round|Shape=RoundedRectangle|*
%AMROUNDEDRECTD13*
21,1,1.0500,0.2470,0,0,90.0*
21,1,0.6470,0.6500,0,0,90.0*
1,1,0.4030,0.1235,0.3235*
1,1,0.4030,0.1235,-0.3235*
1,1,0.4030,-0.1235,-0.3235*
1,1,0.4030,-0.1235,0.3235*
%
%ADD13ROUNDEDRECTD13*%
G04:AMPARAMS|DCode=14|XSize=0.67mm|YSize=0.67mm|CornerRadius=0.1508mm|HoleSize=0mm|Usage=FLASHONLY|Rotation=90.000|XOffset=0mm|YOffset=0mm|HoleType=Round|Shape=RoundedRectangle|*
%AMROUNDEDRECTD14*
21,1,0.6700,0.3685,0,0,90.0*
21,1,0.3685,0.6700,0,0,90.0*
1,1,0.3015,0.1843,0.1843*
1,1,0.3015,0.1843,-0.1843*
1,1,0.3015,-0.1843,-0.1843*
1,1,0.3015,-0.1843,0.1843*
%
%ADD14ROUNDEDRECTD14*%
G04:AMPARAMS|DCode=15|XSize=0.5mm|YSize=0.6mm|CornerRadius=0.1625mm|HoleSize=0mm|Usage=FLASHONLY|Rotation=270.000|XOffset=0mm|YOffset=0mm|HoleType=Round|Shape=RoundedRectangle|*
%AMROUNDEDRECTD15*
21,1,0.5000,0.2750,0,0,270.0*
21,1,0.1750,0.6000,0,0,270.0*
1,1,0.3250,-0.1375,-0.0875*
1,1,0.3250,-0.1375,0.0875*
1,1,0.3250,0.1375,0.0875*
1,1,0.3250,0.1375,-0.0875*
%
%ADD15ROUNDEDRECTD15*%
G04:AMPARAMS|DCode=16|XSize=1mm|YSize=0.9mm|CornerRadius=0.198mm|HoleSize=0mm|Usage=FLASHONLY|Rotation=180.000|XOffset=0mm|YOffset=0mm|HoleType=Round|Shape=RoundedRectangle|*
%AMROUNDEDRECTD16*
21,1,1.0000,0.5040,0,0,180.0*
21,1,0.6040,0.9000,0,0,180.0*
1,1,0.3960,-0.3020,0.2520*
1,1,0.3960,0.3020,0.2520*
1,1,0.3960,0.3020,-0.2520*
1,1,0.3960,-0.3020,-0.2520*
%
%ADD16ROUNDEDRECTD16*%
G04:AMPARAMS|DCode=17|XSize=2.5mm|YSize=1.7mm|CornerRadius=0.204mm|HoleSize=0mm|Usage=FLASHONLY|Rotation=0.000|XOffset=0mm|YOffset=0mm|HoleType=Round|Shape=RoundedRectangle|*
%AMROUNDEDRECTD17*
21,1,2.5000,1.2920,0,0,0.0*
21,1,2.0920,1.7000,0,0,0.0*
1,1,0.4080,1.0460,-0.6460*
1,1,0.4080,-1.0460,-0.6460*
1,1,0.4080,-1.0460,0.6460*
1,1,0.4080,1.0460,0.6460*
%
%ADD17ROUNDEDRECTD17*%
G04:AMPARAMS|DCode=18|XSize=1mm|YSize=0.95mm|CornerRadius=0.1995mm|HoleSize=0mm|Usage=FLASHONLY|Rotation=180.000|XOffset=0mm|YOffset=0mm|HoleType=Round|Shape=RoundedRectangle|*
%AMROUNDEDRECTD18*
21,1,1.0000,0.5510,0,0,180.0*
21,1,0.6010,0.9500,0,0,180.0*
1,1,0.3990,-0.3005,0.2755*
1,1,0.3990,0.3005,0.2755*
1,1,0.3990,0.3005,-0.2755*
1,1,0.3990,-0.3005,-0.2755*
%
%ADD18ROUNDEDRECTD18*%
G04:AMPARAMS|DCode=19|XSize=1mm|YSize=0.95mm|CornerRadius=0.1995mm|HoleSize=0mm|Usage=FLASHONLY|Rotation=90.000|XOffset=0mm|YOffset=0mm|HoleType=Round|Shape=RoundedRectangle|*
%AMROUNDEDRECTD19*
21,1,1.0000,0.5510,0,0,90.0*
21,1,0.6010,0.9500,0,0,90.0*
1,1,0.3990,0.2755,0.3005*
1,1,0.3990,0.2755,-0.3005*
1,1,0.3990,-0.2755,-0.3005*
1,1,0.3990,-0.2755,0.3005*
%
%ADD19ROUNDEDRECTD19*%
G04:AMPARAMS|DCode=20|XSize=1.1mm|YSize=0.6mm|CornerRadius=0.201mm|HoleSize=0mm|Usage=FLASHONLY|Rotation=270.000|XOffset=0mm|YOffset=0mm|HoleType=Round|Shape=RoundedRectangle|*
%AMROUNDEDRECTD20*
21,1,1.1000,0.1980,0,0,270.0*
21,1,0.6980,0.6000,0,0,270.0*
1,1,0.4020,-0.0990,-0.3490*
1,1,0.4020,-0.0990,0.3490*
1,1,0.4020,0.0990,0.3490*
1,1,0.4020,0.0990,-0.3490*
%
%ADD20ROUNDEDRECTD20*%
%ADD21O,2.5000X0.7000*%
%ADD22O,0.7000X2.5000*%
G04:AMPARAMS|DCode=23|XSize=1.2mm|YSize=2mm|CornerRadius=0.3mm|HoleSize=0mm|Usage=FLASHONLY|Rotation=180.000|XOffset=0mm|YOffset=0mm|HoleType=Round|Shape=RoundedRectangle|*
%AMROUNDEDRECTD23*
21,1,1.2000,1.4000,0,0,180.0*
21,1,0.6000,2.0000,0,0,180.0*
1,1,0.6000,-0.3000,0.7000*
1,1,0.6000,0.3000,0.7000*
1,1,0.6000,0.3000,-0.7000*
1,1,0.6000,-0.3000,-0.7000*
%
%ADD23ROUNDEDRECTD23*%
G04:AMPARAMS|DCode=24|XSize=0.7mm|YSize=1mm|CornerRadius=0.175mm|HoleSize=0mm|Usage=FLASHONLY|Rotation=180.000|XOffset=0mm|YOffset=0mm|HoleType=Round|Shape=RoundedRectangle|*
%AMROUNDEDRECTD24*
21,1,0.7000,0.6500,0,0,180.0*
21,1,0.3500,1.0000,0,0,180.0*
1,1,0.3500,-0.1750,0.3250*
1,1,0.3500,0.1750,0.3250*
1,1,0.3500,0.1750,-0.3250*
1,1,0.3500,-0.1750,-0.3250*
%
%ADD24ROUNDEDRECTD24*%
G04:AMPARAMS|DCode=25|XSize=0.8mm|YSize=2mm|CornerRadius=0.2mm|HoleSize=0mm|Usage=FLASHONLY|Rotation=180.000|XOffset=0mm|YOffset=0mm|HoleType=Round|Shape=RoundedRectangle|*
%AMROUNDEDRECTD25*
21,1,0.8000,1.6000,0,0,180.0*
21,1,0.4000,2.0000,0,0,180.0*
1,1,0.4000,-0.2000,0.8000*
1,1,0.4000,0.2000,0.8000*
1,1,0.4000,0.2000,-0.8000*
1,1,0.4000,-0.2000,-0.8000*
%
%ADD25ROUNDEDRECTD25*%
G04:AMPARAMS|DCode=26|XSize=0.7mm|YSize=1.5mm|CornerRadius=0.175mm|HoleSize=0mm|Usage=FLASHONLY|Rotation=180.000|XOffset=0mm|YOffset=0mm|HoleType=Round|Shape=RoundedRectangle|*
%AMROUNDEDRECTD26*
21,1,0.7000,1.1500,0,0,180.0*
21,1,0.3500,1.5000,0,0,180.0*
1,1,0.3500,-0.1750,0.5750*
1,1,0.3500,0.1750,0.5750*
1,1,0.3500,0.1750,-0.5750*
1,1,0.3500,-0.1750,-0.5750*
%
%ADD26ROUNDEDRECTD26*%
%ADD27O,2.5000X0.5000*%
%ADD28O,0.5000X2.5000*%
G04:AMPARAMS|DCode=29|XSize=1.05mm|YSize=0.65mm|CornerRadius=0.2015mm|HoleSize=0mm|Usage=FLASHONLY|Rotation=0.000|XOffset=0mm|YOffset=0mm|HoleType=Round|Shape=RoundedRectangle|*
%AMROUNDEDRECTD29*
21,1,1.0500,0.2470,0,0,0.0*
21,1,0.6470,0.6500,0,0,0.0*
1,1,0.4030,0.3235,-0.1235*
1,1,0.4030,-0.3235,-0.1235*
1,1,0.4030,-0.3235,0.1235*
1,1,0.4030,0.3235,0.1235*
%
%ADD29ROUNDEDRECTD29*%
G04:AMPARAMS|DCode=30|XSize=1.45mm|YSize=1.15mm|CornerRadius=0.2013mm|HoleSize=0mm|Usage=FLASHONLY|Rotation=270.000|XOffset=0mm|YOffset=0mm|HoleType=Round|Shape=RoundedRectangle|*
%AMROUNDEDRECTD30*
21,1,1.4500,0.7475,0,0,270.0*
21,1,1.0475,1.1500,0,0,270.0*
1,1,0.4025,-0.3738,-0.5238*
1,1,0.4025,-0.3738,0.5238*
1,1,0.4025,0.3738,0.5238*
1,1,0.4025,0.3738,-0.5238*
%
%ADD30ROUNDEDRECTD30*%
%ADD31C,0.5000*%
%ADD32C,0.4000*%
%ADD33C,1.2000*%
%ADD34C,1.8500*%
%ADD35C,1.8000*%
%ADD36C,1.3000*%
G04:AMPARAMS|DCode=37|XSize=1.3mm|YSize=1.3mm|CornerRadius=0.1625mm|HoleSize=0mm|Usage=FLASHONLY|Rotation=180.000|XOffset=0mm|YOffset=0mm|HoleType=Round|Shape=RoundedRectangle|*
%AMROUNDEDRECTD37*
21,1,1.3000,0.9750,0,0,180.0*
21,1,0.9750,1.3000,0,0,180.0*
1,1,0.3250,-0.4875,0.4875*
1,1,0.3250,0.4875,0.4875*
1,1,0.3250,0.4875,-0.4875*
1,1,0.3250,-0.4875,-0.4875*
%
%ADD37ROUNDEDRECTD37*%
G04:AMPARAMS|DCode=38|XSize=2mm|YSize=2mm|CornerRadius=0.25mm|HoleSize=0mm|Usage=FLASHONLY|Rotation=180.000|XOffset=0mm|YOffset=0mm|HoleType=Round|Shape=RoundedRectangle|*
%AMROUNDEDRECTD38*
21,1,2.0000,1.5000,0,0,180.0*
21,1,1.5000,2.0000,0,0,180.0*
1,1,0.5000,-0.7500,0.7500*
1,1,0.5000,0.7500,0.7500*
1,1,0.5000,0.7500,-0.7500*
1,1,0.5000,-0.7500,-0.7500*
%
%ADD38ROUNDEDRECTD38*%
%ADD39C,2.0000*%
%ADD40C,7.0000*%
G04:AMPARAMS|DCode=41|XSize=1mm|YSize=1mm|CornerRadius=0.25mm|HoleSize=0mm|Usage=FLASHONLY|Rotation=90.000|XOffset=0mm|YOffset=0mm|HoleType=Round|Shape=RoundedRectangle|*
%AMROUNDEDRECTD41*
21,1,1.0000,0.5000,0,0,90.0*
21,1,0.5000,1.0000,0,0,90.0*
1,1,0.5000,0.2500,0.2500*
1,1,0.5000,0.2500,-0.2500*
1,1,0.5000,-0.2500,-0.2500*
1,1,0.5000,-0.2500,0.2500*
%
%ADD41ROUNDEDRECTD41*%
G04:AMPARAMS|DCode=42|XSize=1.4mm|YSize=1.4mm|CornerRadius=0.175mm|HoleSize=0mm|Usage=FLASHONLY|Rotation=0.000|XOffset=0mm|YOffset=0mm|HoleType=Round|Shape=RoundedRectangle|*
%AMROUNDEDRECTD42*
21,1,1.4000,1.0500,0,0,0.0*
21,1,1.0500,1.4000,0,0,0.0*
1,1,0.3500,0.5250,-0.5250*
1,1,0.3500,-0.5250,-0.5250*
1,1,0.3500,-0.5250,0.5250*
1,1,0.3500,0.5250,0.5250*
%
%ADD42ROUNDEDRECTD42*%
G04:AMPARAMS|DCode=43|XSize=2.2mm|YSize=2.2mm|CornerRadius=0.275mm|HoleSize=0mm|Usage=FLASHONLY|Rotation=90.000|XOffset=0mm|YOffset=0mm|HoleType=Round|Shape=RoundedRectangle|*
%AMROUNDEDRECTD43*
21,1,2.2000,1.6500,0,0,90.0*
21,1,1.6500,2.2000,0,0,90.0*
1,1,0.5500,0.8250,0.8250*
1,1,0.5500,0.8250,-0.8250*
1,1,0.5500,-0.8250,-0.8250*
1,1,0.5500,-0.8250,0.8250*
%
%ADD43ROUNDEDRECTD43*%
%ADD44C,2.2000*%
%ADD45C,2.5000*%
%ADD46C,1.7000*%
%ADD47C,0.5000*%
%ADD48C,0.8000*%
G04:AMPARAMS|DCode=49|XSize=0.7mm|YSize=2.5mm|CornerRadius=0.175mm|HoleSize=0mm|Usage=FLASHONLY|Rotation=0.000|XOffset=0mm|YOffset=0mm|HoleType=Round|Shape=RoundedRectangle|*
%AMROUNDEDRECTD49*
21,1,0.7000,2.1500,0,0,0.0*
21,1,0.3500,2.5000,0,0,0.0*
1,1,0.3500,0.1750,-1.0750*
1,1,0.3500,-0.1750,-1.0750*
1,1,0.3500,-0.1750,1.0750*
1,1,0.3500,0.1750,1.0750*
%
%ADD49ROUNDEDRECTD49*%
G04:AMPARAMS|DCode=50|XSize=1.2mm|YSize=1.2mm|CornerRadius=0.198mm|HoleSize=0mm|Usage=FLASHONLY|Rotation=0.000|XOffset=0mm|YOffset=0mm|HoleType=Round|Shape=RoundedRectangle|*
%AMROUNDEDRECTD50*
21,1,1.2000,0.8040,0,0,0.0*
21,1,0.8040,1.2000,0,0,0.0*
1,1,0.3960,0.4020,-0.4020*
1,1,0.3960,-0.4020,-0.4020*
1,1,0.3960,-0.4020,0.4020*
1,1,0.3960,0.4020,0.4020*
%
%ADD50ROUNDEDRECTD50*%
G04:AMPARAMS|DCode=51|XSize=1.6mm|YSize=1.3mm|CornerRadius=0.2015mm|HoleSize=0mm|Usage=FLASHONLY|Rotation=180.000|XOffset=0mm|YOffset=0mm|HoleType=Round|Shape=RoundedRectangle|*
%AMROUNDEDRECTD51*
21,1,1.6000,0.8970,0,0,180.0*
21,1,1.1970,1.3000,0,0,180.0*
1,1,0.4030,-0.5985,0.4485*
1,1,0.4030,0.5985,0.4485*
1,1,0.4030,0.5985,-0.4485*
1,1,0.4030,-0.5985,-0.4485*
%
%ADD51ROUNDEDRECTD51*%
G04:AMPARAMS|DCode=52|XSize=2.7mm|YSize=1.2mm|CornerRadius=0.21mm|HoleSize=0mm|Usage=FLASHONLY|Rotation=0.000|XOffset=0mm|YOffset=0mm|HoleType=Round|Shape=RoundedRectangle|*
%AMROUNDEDRECTD52*
21,1,2.7000,0.7800,0,0,0.0*
21,1,2.2800,1.2000,0,0,0.0*
1,1,0.4200,1.1400,-0.3900*
1,1,0.4200,-1.1400,-0.3900*
1,1,0.4200,-1.1400,0.3900*
1,1,0.4200,1.1400,0.3900*
%
%ADD52ROUNDEDRECTD52*%
%ADD53C,5.0000*%
%ADD54C,0.3000*%
%ADD55C,0.2000*%
%ADD56C,0.1500*%
%ADD57C,0.1000*%
G04:AMPARAMS|DCode=58|XSize=1.15mm|YSize=1.05mm|CornerRadius=0.273mm|HoleSize=0mm|Usage=FLASHONLY|Rotation=90.000|XOffset=0mm|YOffset=0mm|HoleType=Round|Shape=RoundedRectangle|*
%AMROUNDEDRECTD58*
21,1,1.1500,0.5040,0,0,90.0*
21,1,0.6040,1.0500,0,0,90.0*
1,1,0.5460,0.2520,0.3020*
1,1,0.5460,0.2520,-0.3020*
1,1,0.5460,-0.2520,-0.3020*
1,1,0.5460,-0.2520,0.3020*
%
%ADD58ROUNDEDRECTD58*%
G04:AMPARAMS|DCode=59|XSize=2.65mm|YSize=2.45mm|CornerRadius=0.2705mm|HoleSize=0mm|Usage=FLASHONLY|Rotation=270.000|XOffset=0mm|YOffset=0mm|HoleType=Round|Shape=RoundedRectangle|*
%AMROUNDEDRECTD59*
21,1,2.6500,1.9090,0,0,270.0*
21,1,2.1090,2.4500,0,0,270.0*
1,1,0.5410,-0.9545,-1.0545*
1,1,0.5410,-0.9545,1.0545*
1,1,0.5410,0.9545,1.0545*
1,1,0.5410,0.9545,-1.0545*
%
%ADD59ROUNDEDRECTD59*%
G04:AMPARAMS|DCode=60|XSize=2.65mm|YSize=1.85mm|CornerRadius=0.279mm|HoleSize=0mm|Usage=FLASHONLY|Rotation=90.000|XOffset=0mm|YOffset=0mm|HoleType=Round|Shape=RoundedRectangle|*
%AMROUNDEDRECTD60*
21,1,2.6500,1.2920,0,0,90.0*
21,1,2.0920,1.8500,0,0,90.0*
1,1,0.5580,0.6460,1.0460*
1,1,0.5580,0.6460,-1.0460*
1,1,0.5580,-0.6460,-1.0460*
1,1,0.5580,-0.6460,1.0460*
%
%ADD60ROUNDEDRECTD60*%
G04:AMPARAMS|DCode=61|XSize=1.2mm|YSize=0.8mm|CornerRadius=0.2765mm|HoleSize=0mm|Usage=FLASHONLY|Rotation=90.000|XOffset=0mm|YOffset=0mm|HoleType=Round|Shape=RoundedRectangle|*
%AMROUNDEDRECTD61*
21,1,1.2000,0.2470,0,0,90.0*
21,1,0.6470,0.8000,0,0,90.0*
1,1,0.5530,0.1235,0.3235*
1,1,0.5530,0.1235,-0.3235*
1,1,0.5530,-0.1235,-0.3235*
1,1,0.5530,-0.1235,0.3235*
%
%ADD61ROUNDEDRECTD61*%
G04:AMPARAMS|DCode=62|XSize=0.77mm|YSize=0.77mm|CornerRadius=0.2008mm|HoleSize=0mm|Usage=FLASHONLY|Rotation=90.000|XOffset=0mm|YOffset=0mm|HoleType=Round|Shape=RoundedRectangle|*
%AMROUNDEDRECTD62*
21,1,0.7700,0.3685,0,0,90.0*
21,1,0.3685,0.7700,0,0,90.0*
1,1,0.4015,0.1843,0.1843*
1,1,0.4015,0.1843,-0.1843*
1,1,0.4015,-0.1843,-0.1843*
1,1,0.4015,-0.1843,0.1843*
%
%ADD62ROUNDEDRECTD62*%
G04:AMPARAMS|DCode=63|XSize=0.6mm|YSize=0.7mm|CornerRadius=0.2125mm|HoleSize=0mm|Usage=FLASHONLY|Rotation=270.000|XOffset=0mm|YOffset=0mm|HoleType=Round|Shape=RoundedRectangle|*
%AMROUNDEDRECTD63*
21,1,0.6000,0.2750,0,0,270.0*
21,1,0.1750,0.7000,0,0,270.0*
1,1,0.4250,-0.1375,-0.0875*
1,1,0.4250,-0.1375,0.0875*
1,1,0.4250,0.1375,0.0875*
1,1,0.4250,0.1375,-0.0875*
%
%ADD63ROUNDEDRECTD63*%
G04:AMPARAMS|DCode=64|XSize=1.15mm|YSize=1.05mm|CornerRadius=0.273mm|HoleSize=0mm|Usage=FLASHONLY|Rotation=180.000|XOffset=0mm|YOffset=0mm|HoleType=Round|Shape=RoundedRectangle|*
%AMROUNDEDRECTD64*
21,1,1.1500,0.5040,0,0,180.0*
21,1,0.6040,1.0500,0,0,180.0*
1,1,0.5460,-0.3020,0.2520*
1,1,0.5460,0.3020,0.2520*
1,1,0.5460,0.3020,-0.2520*
1,1,0.5460,-0.3020,-0.2520*
%
%ADD64ROUNDEDRECTD64*%
G04:AMPARAMS|DCode=65|XSize=2.65mm|YSize=1.85mm|CornerRadius=0.279mm|HoleSize=0mm|Usage=FLASHONLY|Rotation=0.000|XOffset=0mm|YOffset=0mm|HoleType=Round|Shape=RoundedRectangle|*
%AMROUNDEDRECTD65*
21,1,2.6500,1.2920,0,0,0.0*
21,1,2.0920,1.8500,0,0,0.0*
1,1,0.5580,1.0460,-0.6460*
1,1,0.5580,-1.0460,-0.6460*
1,1,0.5580,-1.0460,0.6460*
1,1,0.5580,1.0460,0.6460*
%
%ADD65ROUNDEDRECTD65*%
G04:AMPARAMS|DCode=66|XSize=1.15mm|YSize=1.1mm|CornerRadius=0.2745mm|HoleSize=0mm|Usage=FLASHONLY|Rotation=180.000|XOffset=0mm|YOffset=0mm|HoleType=Round|Shape=RoundedRectangle|*
%AMROUNDEDRECTD66*
21,1,1.1500,0.5510,0,0,180.0*
21,1,0.6010,1.1000,0,0,180.0*
1,1,0.5490,-0.3005,0.2755*
1,1,0.5490,0.3005,0.2755*
1,1,0.5490,0.3005,-0.2755*
1,1,0.5490,-0.3005,-0.2755*
%
%ADD66ROUNDEDRECTD66*%
G04:AMPARAMS|DCode=67|XSize=1.15mm|YSize=1.1mm|CornerRadius=0.2745mm|HoleSize=0mm|Usage=FLASHONLY|Rotation=90.000|XOffset=0mm|YOffset=0mm|HoleType=Round|Shape=RoundedRectangle|*
%AMROUNDEDRECTD67*
21,1,1.1500,0.5510,0,0,90.0*
21,1,0.6010,1.1000,0,0,90.0*
1,1,0.5490,0.2755,0.3005*
1,1,0.5490,0.2755,-0.3005*
1,1,0.5490,-0.2755,-0.3005*
1,1,0.5490,-0.2755,0.3005*
%
%ADD67ROUNDEDRECTD67*%
G04:AMPARAMS|DCode=68|XSize=1.25mm|YSize=0.75mm|CornerRadius=0.276mm|HoleSize=0mm|Usage=FLASHONLY|Rotation=270.000|XOffset=0mm|YOffset=0mm|HoleType=Round|Shape=RoundedRectangle|*
%AMROUNDEDRECTD68*
21,1,1.2500,0.1980,0,0,270.0*
21,1,0.6980,0.7500,0,0,270.0*
1,1,0.5520,-0.0990,-0.3490*
1,1,0.5520,-0.0990,0.3490*
1,1,0.5520,0.0990,0.3490*
1,1,0.5520,0.0990,-0.3490*
%
%ADD68ROUNDEDRECTD68*%
%ADD69O,2.6500X0.8500*%
%ADD70O,0.8500X2.6500*%
G04:AMPARAMS|DCode=71|XSize=1.3mm|YSize=2.1mm|CornerRadius=0.35mm|HoleSize=0mm|Usage=FLASHONLY|Rotation=180.000|XOffset=0mm|YOffset=0mm|HoleType=Round|Shape=RoundedRectangle|*
%AMROUNDEDRECTD71*
21,1,1.3000,1.4000,0,0,180.0*
21,1,0.6000,2.1000,0,0,180.0*
1,1,0.7000,-0.3000,0.7000*
1,1,0.7000,0.3000,0.7000*
1,1,0.7000,0.3000,-0.7000*
1,1,0.7000,-0.3000,-0.7000*
%
%ADD71ROUNDEDRECTD71*%
G04:AMPARAMS|DCode=72|XSize=0.9032mm|YSize=1.2032mm|CornerRadius=0.2766mm|HoleSize=0mm|Usage=FLASHONLY|Rotation=180.000|XOffset=0mm|YOffset=0mm|HoleType=Round|Shape=RoundedRectangle|*
%AMROUNDEDRECTD72*
21,1,0.9032,0.6500,0,0,180.0*
21,1,0.3500,1.2032,0,0,180.0*
1,1,0.5532,-0.1750,0.3250*
1,1,0.5532,0.1750,0.3250*
1,1,0.5532,0.1750,-0.3250*
1,1,0.5532,-0.1750,-0.3250*
%
%ADD72ROUNDEDRECTD72*%
G04:AMPARAMS|DCode=73|XSize=1.0032mm|YSize=2.2032mm|CornerRadius=0.3016mm|HoleSize=0mm|Usage=FLASHONLY|Rotation=180.000|XOffset=0mm|YOffset=0mm|HoleType=Round|Shape=RoundedRectangle|*
%AMROUNDEDRECTD73*
21,1,1.0032,1.6000,0,0,180.0*
21,1,0.4000,2.2032,0,0,180.0*
1,1,0.6032,-0.2000,0.8000*
1,1,0.6032,0.2000,0.8000*
1,1,0.6032,0.2000,-0.8000*
1,1,0.6032,-0.2000,-0.8000*
%
%ADD73ROUNDEDRECTD73*%
G04:AMPARAMS|DCode=74|XSize=1.2mm|YSize=0.8mm|CornerRadius=0.2765mm|HoleSize=0mm|Usage=FLASHONLY|Rotation=0.000|XOffset=0mm|YOffset=0mm|HoleType=Round|Shape=RoundedRectangle|*
%AMROUNDEDRECTD74*
21,1,1.2000,0.2470,0,0,0.0*
21,1,0.6470,0.8000,0,0,0.0*
1,1,0.5530,0.3235,-0.1235*
1,1,0.5530,-0.3235,-0.1235*
1,1,0.5530,-0.3235,0.1235*
1,1,0.5530,0.3235,0.1235*
%
%ADD74ROUNDEDRECTD74*%
G04:AMPARAMS|DCode=75|XSize=1.6mm|YSize=1.3mm|CornerRadius=0.2763mm|HoleSize=0mm|Usage=FLASHONLY|Rotation=270.000|XOffset=0mm|YOffset=0mm|HoleType=Round|Shape=RoundedRectangle|*
%AMROUNDEDRECTD75*
21,1,1.6000,0.7475,0,0,270.0*
21,1,1.0475,1.3000,0,0,270.0*
1,1,0.5525,-0.3738,-0.5238*
1,1,0.5525,-0.3738,0.5238*
1,1,0.5525,0.3738,0.5238*
1,1,0.5525,0.3738,-0.5238*
%
%ADD75ROUNDEDRECTD75*%
%ADD76C,1.9500*%
%ADD77C,1.4500*%
G04:AMPARAMS|DCode=78|XSize=1.45mm|YSize=1.45mm|CornerRadius=0.2375mm|HoleSize=0mm|Usage=FLASHONLY|Rotation=180.000|XOffset=0mm|YOffset=0mm|HoleType=Round|Shape=RoundedRectangle|*
%AMROUNDEDRECTD78*
21,1,1.4500,0.9750,0,0,180.0*
21,1,0.9750,1.4500,0,0,180.0*
1,1,0.4750,-0.4875,0.4875*
1,1,0.4750,0.4875,0.4875*
1,1,0.4750,0.4875,-0.4875*
1,1,0.4750,-0.4875,-0.4875*
%
%ADD78ROUNDEDRECTD78*%
G04:AMPARAMS|DCode=79|XSize=2.15mm|YSize=2.15mm|CornerRadius=0.325mm|HoleSize=0mm|Usage=FLASHONLY|Rotation=180.000|XOffset=0mm|YOffset=0mm|HoleType=Round|Shape=RoundedRectangle|*
%AMROUNDEDRECTD79*
21,1,2.1500,1.5000,0,0,180.0*
21,1,1.5000,2.1500,0,0,180.0*
1,1,0.6500,-0.7500,0.7500*
1,1,0.6500,0.7500,0.7500*
1,1,0.6500,0.7500,-0.7500*
1,1,0.6500,-0.7500,-0.7500*
%
%ADD79ROUNDEDRECTD79*%
%ADD80C,2.1500*%
%ADD81C,7.2032*%
G04:AMPARAMS|DCode=82|XSize=1.1mm|YSize=1.1mm|CornerRadius=0.3mm|HoleSize=0mm|Usage=FLASHONLY|Rotation=90.000|XOffset=0mm|YOffset=0mm|HoleType=Round|Shape=RoundedRectangle|*
%AMROUNDEDRECTD82*
21,1,1.1000,0.5000,0,0,90.0*
21,1,0.5000,1.1000,0,0,90.0*
1,1,0.6000,0.2500,0.2500*
1,1,0.6000,0.2500,-0.2500*
1,1,0.6000,-0.2500,-0.2500*
1,1,0.6000,-0.2500,0.2500*
%
%ADD82ROUNDEDRECTD82*%
G04:AMPARAMS|DCode=83|XSize=1.55mm|YSize=1.55mm|CornerRadius=0.25mm|HoleSize=0mm|Usage=FLASHONLY|Rotation=0.000|XOffset=0mm|YOffset=0mm|HoleType=Round|Shape=RoundedRectangle|*
%AMROUNDEDRECTD83*
21,1,1.5500,1.0500,0,0,0.0*
21,1,1.0500,1.5500,0,0,0.0*
1,1,0.5000,0.5250,-0.5250*
1,1,0.5000,-0.5250,-0.5250*
1,1,0.5000,-0.5250,0.5250*
1,1,0.5000,0.5250,0.5250*
%
%ADD83ROUNDEDRECTD83*%
G04:AMPARAMS|DCode=84|XSize=2.35mm|YSize=2.35mm|CornerRadius=0.35mm|HoleSize=0mm|Usage=FLASHONLY|Rotation=90.000|XOffset=0mm|YOffset=0mm|HoleType=Round|Shape=RoundedRectangle|*
%AMROUNDEDRECTD84*
21,1,2.3500,1.6500,0,0,90.0*
21,1,1.6500,2.3500,0,0,90.0*
1,1,0.7000,0.8250,0.8250*
1,1,0.7000,0.8250,-0.8250*
1,1,0.7000,-0.8250,-0.8250*
1,1,0.7000,-0.8250,0.8250*
%
%ADD84ROUNDEDRECTD84*%
%ADD85C,2.3500*%
G04:AMPARAMS|DCode=86|XSize=1.5032mm|YSize=1.5032mm|CornerRadius=0.2641mm|HoleSize=0mm|Usage=FLASHONLY|Rotation=180.000|XOffset=0mm|YOffset=0mm|HoleType=Round|Shape=RoundedRectangle|*
%AMROUNDEDRECTD86*
21,1,1.5032,0.9750,0,0,180.0*
21,1,0.9750,1.5032,0,0,180.0*
1,1,0.5282,-0.4875,0.4875*
1,1,0.5282,0.4875,0.4875*
1,1,0.5282,0.4875,-0.4875*
1,1,0.5282,-0.4875,-0.4875*
%
%ADD86ROUNDEDRECTD86*%
%ADD87C,1.5032*%
%ADD88C,2.7032*%
%ADD89C,1.8500*%
G04:AMPARAMS|DCode=90|XSize=1.35mm|YSize=1.35mm|CornerRadius=0.273mm|HoleSize=0mm|Usage=FLASHONLY|Rotation=0.000|XOffset=0mm|YOffset=0mm|HoleType=Round|Shape=RoundedRectangle|*
%AMROUNDEDRECTD90*
21,1,1.3500,0.8040,0,0,0.0*
21,1,0.8040,1.3500,0,0,0.0*
1,1,0.5460,0.4020,-0.4020*
1,1,0.5460,-0.4020,-0.4020*
1,1,0.5460,-0.4020,0.4020*
1,1,0.5460,0.4020,0.4020*
%
%ADD90ROUNDEDRECTD90*%
G04:AMPARAMS|DCode=91|XSize=1.75mm|YSize=1.45mm|CornerRadius=0.2765mm|HoleSize=0mm|Usage=FLASHONLY|Rotation=180.000|XOffset=0mm|YOffset=0mm|HoleType=Round|Shape=RoundedRectangle|*
%AMROUNDEDRECTD91*
21,1,1.7500,0.8970,0,0,180.0*
21,1,1.1970,1.4500,0,0,180.0*
1,1,0.5530,-0.5985,0.4485*
1,1,0.5530,0.5985,0.4485*
1,1,0.5530,0.5985,-0.4485*
1,1,0.5530,-0.5985,-0.4485*
%
%ADD91ROUNDEDRECTD91*%
G04:AMPARAMS|DCode=92|XSize=2.85mm|YSize=1.35mm|CornerRadius=0.285mm|HoleSize=0mm|Usage=FLASHONLY|Rotation=0.000|XOffset=0mm|YOffset=0mm|HoleType=Round|Shape=RoundedRectangle|*
%AMROUNDEDRECTD92*
21,1,2.8500,0.7800,0,0,0.0*
21,1,2.2800,1.3500,0,0,0.0*
1,1,0.5700,1.1400,-0.3900*
1,1,0.5700,-1.1400,-0.3900*
1,1,0.5700,-1.1400,0.3900*
1,1,0.5700,1.1400,0.3900*
%
%ADD92ROUNDEDRECTD92*%
%ADD93C,5.2032*%
D39*
X52100Y-2100D02*
D03*
Y-27500D02*
D03*
X-11500Y234700D02*
D03*
Y209300D02*
D03*
X440750Y54700D02*
D03*
Y29300D02*
D03*
X11900Y311400D02*
D03*
X-13500D02*
D03*
X11900Y286000D02*
D03*
D66*
X279000Y211000D02*
D03*
Y195000D02*
D03*
D76*
X301000Y-11000D02*
D03*
X336000D02*
D03*
X231000D02*
D03*
X266000D02*
D03*
X-10200Y99800D02*
D03*
Y64800D02*
D03*
D77*
X63200Y144900D02*
D03*
X37800D02*
D03*
X63400Y119500D02*
D03*
X38000D02*
D03*
X12600D02*
D03*
X164900Y119600D02*
D03*
X139500D02*
D03*
X197500Y344000D02*
D03*
X222900D02*
D03*
X215500Y119500D02*
D03*
D78*
X172100Y344000D02*
D03*
D79*
X349500Y50500D02*
D03*
X187500D02*
D03*
D80*
X324000D02*
D03*
X298500D02*
D03*
X213000D02*
D03*
X238500D02*
D03*
D81*
X400000Y0D02*
D03*
Y400000D02*
D03*
D82*
X386500Y278000D02*
D03*
X266500Y120000D02*
D03*
D83*
X190500Y119500D02*
D03*
D84*
X425000Y250000D02*
D03*
D85*
Y200000D02*
D03*
Y150000D02*
D03*
X-13500Y286000D02*
D03*
Y336000D02*
D03*
D86*
X88800Y119500D02*
D03*
D87*
X114200D02*
D03*
D88*
X-25400Y425400D02*
D03*
X0Y400000D02*
D03*
X25400Y425400D02*
D03*
Y374600D02*
D03*
X-25400D02*
D03*
D89*
X152500Y341250D02*
D03*
Y276250D02*
D03*
X107500Y341250D02*
D03*
Y276250D02*
D03*
D90*
X212500Y99250D02*
D03*
X191500D02*
D03*
X280500Y229000D02*
D03*
X301500D02*
D03*
D91*
X144000Y207500D02*
D03*
X64000D02*
D03*
X144000Y252500D02*
D03*
X64000D02*
D03*
X90000Y331249D02*
D03*
X170000D02*
D03*
X90000Y286249D02*
D03*
X170000D02*
D03*
D92*
X23200Y211200D02*
D03*
Y182200D02*
D03*
D93*
X0Y0D02*
D03*
M02*
