%FSLAX44Y44*%
%MOMM*%
G71*
G01*
G75*
G04 Layer_Physical_Order=1*
G04 Layer_Color=191*
G04:AMPARAMS|DCode=10|XSize=1mm|YSize=0.9mm|CornerRadius=0.198mm|HoleSize=0mm|Usage=FLASHONLY|Rotation=90.000|XOffset=0mm|YOffset=0mm|HoleType=Round|Shape=RoundedRectangle|*
%AMROUNDEDRECTD10*
21,1,1.0000,0.5040,0,0,90.0*
21,1,0.6040,0.9000,0,0,90.0*
1,1,0.3960,0.2520,0.3020*
1,1,0.3960,0.2520,-0.3020*
1,1,0.3960,-0.2520,-0.3020*
1,1,0.3960,-0.2520,0.3020*
%
%ADD10ROUNDEDRECTD10*%
G04:AMPARAMS|DCode=11|XSize=2.5mm|YSize=2.3mm|CornerRadius=0.1955mm|HoleSize=0mm|Usage=FLASHONLY|Rotation=270.000|XOffset=0mm|YOffset=0mm|HoleType=Round|Shape=RoundedRectangle|*
%AMROUNDEDRECTD11*
21,1,2.5000,1.9090,0,0,270.0*
21,1,2.1090,2.3000,0,0,270.0*
1,1,0.3910,-0.9545,-1.0545*
1,1,0.3910,-0.9545,1.0545*
1,1,0.3910,0.9545,1.0545*
1,1,0.3910,0.9545,-1.0545*
%
%ADD11ROUNDEDRECTD11*%
G04:AMPARAMS|DCode=12|XSize=2.5mm|YSize=1.7mm|CornerRadius=0.204mm|HoleSize=0mm|Usage=FLASHONLY|Rotation=90.000|XOffset=0mm|YOffset=0mm|HoleType=Round|Shape=RoundedRectangle|*
%AMROUNDEDRECTD12*
21,1,2.5000,1.2920,0,0,90.0*
21,1,2.0920,1.7000,0,0,90.0*
1,1,0.4080,0.6460,1.0460*
1,1,0.4080,0.6460,-1.0460*
1,1,0.4080,-0.6460,-1.0460*
1,1,0.4080,-0.6460,1.0460*
%
%ADD12ROUNDEDRECTD12*%
G04:AMPARAMS|DCode=13|XSize=1.05mm|YSize=0.65mm|CornerRadius=0.2015mm|HoleSize=0mm|Usage=FLASHONLY|Rotation=90.000|XOffset=0mm|YOffset=0mm|HoleType=Round|Shape=RoundedRectangle|*
%AMROUNDEDRECTD13*
21,1,1.0500,0.2470,0,0,90.0*
21,1,0.6470,0.6500,0,0,90.0*
1,1,0.4030,0.1235,0.3235*
1,1,0.4030,0.1235,-0.3235*
1,1,0.4030,-0.1235,-0.3235*
1,1,0.4030,-0.1235,0.3235*
%
%ADD13ROUNDEDRECTD13*%
G04:AMPARAMS|DCode=14|XSize=0.67mm|YSize=0.67mm|CornerRadius=0.1508mm|HoleSize=0mm|Usage=FLASHONLY|Rotation=90.000|XOffset=0mm|YOffset=0mm|HoleType=Round|Shape=RoundedRectangle|*
%AMROUNDEDRECTD14*
21,1,0.6700,0.3685,0,0,90.0*
21,1,0.3685,0.6700,0,0,90.0*
1,1,0.3015,0.1843,0.1843*
1,1,0.3015,0.1843,-0.1843*
1,1,0.3015,-0.1843,-0.1843*
1,1,0.3015,-0.1843,0.1843*
%
%ADD14ROUNDEDRECTD14*%
G04:AMPARAMS|DCode=15|XSize=0.5mm|YSize=0.6mm|CornerRadius=0.1625mm|HoleSize=0mm|Usage=FLASHONLY|Rotation=270.000|XOffset=0mm|YOffset=0mm|HoleType=Round|Shape=RoundedRectangle|*
%AMROUNDEDRECTD15*
21,1,0.5000,0.2750,0,0,270.0*
21,1,0.1750,0.6000,0,0,270.0*
1,1,0.3250,-0.1375,-0.0875*
1,1,0.3250,-0.1375,0.0875*
1,1,0.3250,0.1375,0.0875*
1,1,0.3250,0.1375,-0.0875*
%
%ADD15ROUNDEDRECTD15*%
G04:AMPARAMS|DCode=16|XSize=1mm|YSize=0.9mm|CornerRadius=0.198mm|HoleSize=0mm|Usage=FLASHONLY|Rotation=180.000|XOffset=0mm|YOffset=0mm|HoleType=Round|Shape=RoundedRectangle|*
%AMROUNDEDRECTD16*
21,1,1.0000,0.5040,0,0,180.0*
21,1,0.6040,0.9000,0,0,180.0*
1,1,0.3960,-0.3020,0.2520*
1,1,0.3960,0.3020,0.2520*
1,1,0.3960,0.3020,-0.2520*
1,1,0.3960,-0.3020,-0.2520*
%
%ADD16ROUNDEDRECTD16*%
G04:AMPARAMS|DCode=17|XSize=2.5mm|YSize=1.7mm|CornerRadius=0.204mm|HoleSize=0mm|Usage=FLASHONLY|Rotation=0.000|XOffset=0mm|YOffset=0mm|HoleType=Round|Shape=RoundedRectangle|*
%AMROUNDEDRECTD17*
21,1,2.5000,1.2920,0,0,0.0*
21,1,2.0920,1.7000,0,0,0.0*
1,1,0.4080,1.0460,-0.6460*
1,1,0.4080,-1.0460,-0.6460*
1,1,0.4080,-1.0460,0.6460*
1,1,0.4080,1.0460,0.6460*
%
%ADD17ROUNDEDRECTD17*%
G04:AMPARAMS|DCode=18|XSize=1mm|YSize=0.95mm|CornerRadius=0.1995mm|HoleSize=0mm|Usage=FLASHONLY|Rotation=180.000|XOffset=0mm|YOffset=0mm|HoleType=Round|Shape=RoundedRectangle|*
%AMROUNDEDRECTD18*
21,1,1.0000,0.5510,0,0,180.0*
21,1,0.6010,0.9500,0,0,180.0*
1,1,0.3990,-0.3005,0.2755*
1,1,0.3990,0.3005,0.2755*
1,1,0.3990,0.3005,-0.2755*
1,1,0.3990,-0.3005,-0.2755*
%
%ADD18ROUNDEDRECTD18*%
G04:AMPARAMS|DCode=19|XSize=1mm|YSize=0.95mm|CornerRadius=0.1995mm|HoleSize=0mm|Usage=FLASHONLY|Rotation=90.000|XOffset=0mm|YOffset=0mm|HoleType=Round|Shape=RoundedRectangle|*
%AMROUNDEDRECTD19*
21,1,1.0000,0.5510,0,0,90.0*
21,1,0.6010,0.9500,0,0,90.0*
1,1,0.3990,0.2755,0.3005*
1,1,0.3990,0.2755,-0.3005*
1,1,0.3990,-0.2755,-0.3005*
1,1,0.3990,-0.2755,0.3005*
%
%ADD19ROUNDEDRECTD19*%
G04:AMPARAMS|DCode=20|XSize=1.1mm|YSize=0.6mm|CornerRadius=0.201mm|HoleSize=0mm|Usage=FLASHONLY|Rotation=270.000|XOffset=0mm|YOffset=0mm|HoleType=Round|Shape=RoundedRectangle|*
%AMROUNDEDRECTD20*
21,1,1.1000,0.1980,0,0,270.0*
21,1,0.6980,0.6000,0,0,270.0*
1,1,0.4020,-0.0990,-0.3490*
1,1,0.4020,-0.0990,0.3490*
1,1,0.4020,0.0990,0.3490*
1,1,0.4020,0.0990,-0.3490*
%
%ADD20ROUNDEDRECTD20*%
%ADD21O,2.5000X0.7000*%
%ADD22O,0.7000X2.5000*%
G04:AMPARAMS|DCode=23|XSize=1.2mm|YSize=2mm|CornerRadius=0.3mm|HoleSize=0mm|Usage=FLASHONLY|Rotation=180.000|XOffset=0mm|YOffset=0mm|HoleType=Round|Shape=RoundedRectangle|*
%AMROUNDEDRECTD23*
21,1,1.2000,1.4000,0,0,180.0*
21,1,0.6000,2.0000,0,0,180.0*
1,1,0.6000,-0.3000,0.7000*
1,1,0.6000,0.3000,0.7000*
1,1,0.6000,0.3000,-0.7000*
1,1,0.6000,-0.3000,-0.7000*
%
%ADD23ROUNDEDRECTD23*%
G04:AMPARAMS|DCode=24|XSize=0.7mm|YSize=1mm|CornerRadius=0.175mm|HoleSize=0mm|Usage=FLASHONLY|Rotation=180.000|XOffset=0mm|YOffset=0mm|HoleType=Round|Shape=RoundedRectangle|*
%AMROUNDEDRECTD24*
21,1,0.7000,0.6500,0,0,180.0*
21,1,0.3500,1.0000,0,0,180.0*
1,1,0.3500,-0.1750,0.3250*
1,1,0.3500,0.1750,0.3250*
1,1,0.3500,0.1750,-0.3250*
1,1,0.3500,-0.1750,-0.3250*
%
%ADD24ROUNDEDRECTD24*%
G04:AMPARAMS|DCode=25|XSize=0.8mm|YSize=2mm|CornerRadius=0.2mm|HoleSize=0mm|Usage=FLASHONLY|Rotation=180.000|XOffset=0mm|YOffset=0mm|HoleType=Round|Shape=RoundedRectangle|*
%AMROUNDEDRECTD25*
21,1,0.8000,1.6000,0,0,180.0*
21,1,0.4000,2.0000,0,0,180.0*
1,1,0.4000,-0.2000,0.8000*
1,1,0.4000,0.2000,0.8000*
1,1,0.4000,0.2000,-0.8000*
1,1,0.4000,-0.2000,-0.8000*
%
%ADD25ROUNDEDRECTD25*%
G04:AMPARAMS|DCode=26|XSize=0.7mm|YSize=1.5mm|CornerRadius=0.175mm|HoleSize=0mm|Usage=FLASHONLY|Rotation=180.000|XOffset=0mm|YOffset=0mm|HoleType=Round|Shape=RoundedRectangle|*
%AMROUNDEDRECTD26*
21,1,0.7000,1.1500,0,0,180.0*
21,1,0.3500,1.5000,0,0,180.0*
1,1,0.3500,-0.1750,0.5750*
1,1,0.3500,0.1750,0.5750*
1,1,0.3500,0.1750,-0.5750*
1,1,0.3500,-0.1750,-0.5750*
%
%ADD26ROUNDEDRECTD26*%
%ADD27O,2.5000X0.5000*%
%ADD28O,0.5000X2.5000*%
G04:AMPARAMS|DCode=29|XSize=1.05mm|YSize=0.65mm|CornerRadius=0.2015mm|HoleSize=0mm|Usage=FLASHONLY|Rotation=0.000|XOffset=0mm|YOffset=0mm|HoleType=Round|Shape=RoundedRectangle|*
%AMROUNDEDRECTD29*
21,1,1.0500,0.2470,0,0,0.0*
21,1,0.6470,0.6500,0,0,0.0*
1,1,0.4030,0.3235,-0.1235*
1,1,0.4030,-0.3235,-0.1235*
1,1,0.4030,-0.3235,0.1235*
1,1,0.4030,0.3235,0.1235*
%
%ADD29ROUNDEDRECTD29*%
G04:AMPARAMS|DCode=30|XSize=1.45mm|YSize=1.15mm|CornerRadius=0.2013mm|HoleSize=0mm|Usage=FLASHONLY|Rotation=270.000|XOffset=0mm|YOffset=0mm|HoleType=Round|Shape=RoundedRectangle|*
%AMROUNDEDRECTD30*
21,1,1.4500,0.7475,0,0,270.0*
21,1,1.0475,1.1500,0,0,270.0*
1,1,0.4025,-0.3738,-0.5238*
1,1,0.4025,-0.3738,0.5238*
1,1,0.4025,0.3738,0.5238*
1,1,0.4025,0.3738,-0.5238*
%
%ADD30ROUNDEDRECTD30*%
%ADD31C,0.5000*%
%ADD32C,0.4000*%
%ADD33C,1.2000*%
%ADD34C,1.8500*%
%ADD35C,1.8000*%
%ADD36C,1.3000*%
G04:AMPARAMS|DCode=37|XSize=1.3mm|YSize=1.3mm|CornerRadius=0.1625mm|HoleSize=0mm|Usage=FLASHONLY|Rotation=180.000|XOffset=0mm|YOffset=0mm|HoleType=Round|Shape=RoundedRectangle|*
%AMROUNDEDRECTD37*
21,1,1.3000,0.9750,0,0,180.0*
21,1,0.9750,1.3000,0,0,180.0*
1,1,0.3250,-0.4875,0.4875*
1,1,0.3250,0.4875,0.4875*
1,1,0.3250,0.4875,-0.4875*
1,1,0.3250,-0.4875,-0.4875*
%
%ADD37ROUNDEDRECTD37*%
G04:AMPARAMS|DCode=38|XSize=2mm|YSize=2mm|CornerRadius=0.25mm|HoleSize=0mm|Usage=FLASHONLY|Rotation=180.000|XOffset=0mm|YOffset=0mm|HoleType=Round|Shape=RoundedRectangle|*
%AMROUNDEDRECTD38*
21,1,2.0000,1.5000,0,0,180.0*
21,1,1.5000,2.0000,0,0,180.0*
1,1,0.5000,-0.7500,0.7500*
1,1,0.5000,0.7500,0.7500*
1,1,0.5000,0.7500,-0.7500*
1,1,0.5000,-0.7500,-0.7500*
%
%ADD38ROUNDEDRECTD38*%
%ADD39C,2.0000*%
%ADD40C,7.0000*%
G04:AMPARAMS|DCode=41|XSize=1mm|YSize=1mm|CornerRadius=0.25mm|HoleSize=0mm|Usage=FLASHONLY|Rotation=90.000|XOffset=0mm|YOffset=0mm|HoleType=Round|Shape=RoundedRectangle|*
%AMROUNDEDRECTD41*
21,1,1.0000,0.5000,0,0,90.0*
21,1,0.5000,1.0000,0,0,90.0*
1,1,0.5000,0.2500,0.2500*
1,1,0.5000,0.2500,-0.2500*
1,1,0.5000,-0.2500,-0.2500*
1,1,0.5000,-0.2500,0.2500*
%
%ADD41ROUNDEDRECTD41*%
G04:AMPARAMS|DCode=42|XSize=1.4mm|YSize=1.4mm|CornerRadius=0.175mm|HoleSize=0mm|Usage=FLASHONLY|Rotation=0.000|XOffset=0mm|YOffset=0mm|HoleType=Round|Shape=RoundedRectangle|*
%AMROUNDEDRECTD42*
21,1,1.4000,1.0500,0,0,0.0*
21,1,1.0500,1.4000,0,0,0.0*
1,1,0.3500,0.5250,-0.5250*
1,1,0.3500,-0.5250,-0.5250*
1,1,0.3500,-0.5250,0.5250*
1,1,0.3500,0.5250,0.5250*
%
%ADD42ROUNDEDRECTD42*%
G04:AMPARAMS|DCode=43|XSize=2.2mm|YSize=2.2mm|CornerRadius=0.275mm|HoleSize=0mm|Usage=FLASHONLY|Rotation=90.000|XOffset=0mm|YOffset=0mm|HoleType=Round|Shape=RoundedRectangle|*
%AMROUNDEDRECTD43*
21,1,2.2000,1.6500,0,0,90.0*
21,1,1.6500,2.2000,0,0,90.0*
1,1,0.5500,0.8250,0.8250*
1,1,0.5500,0.8250,-0.8250*
1,1,0.5500,-0.8250,-0.8250*
1,1,0.5500,-0.8250,0.8250*
%
%ADD43ROUNDEDRECTD43*%
%ADD44C,2.2000*%
%ADD45C,2.5000*%
%ADD46C,1.7000*%
%ADD47C,0.5000*%
%ADD48C,0.8000*%
G36*
X30311Y137411D02*
X32505Y135728D01*
X35059Y134670D01*
X37800Y134309D01*
X40541Y134670D01*
X43095Y135728D01*
X43505Y136043D01*
X44644Y135481D01*
Y127812D01*
X43505Y127250D01*
X42791Y127798D01*
X40500Y128747D01*
Y119500D01*
X38000D01*
Y117000D01*
X28753D01*
X29702Y114709D01*
X31225Y112725D01*
X33209Y111202D01*
X35520Y110245D01*
X38000Y109918D01*
X38979Y110047D01*
X39572Y108844D01*
X38614Y107886D01*
X37572Y106528D01*
X37189Y105602D01*
X36917Y104947D01*
X36907Y104867D01*
X32730D01*
X30397Y104403D01*
X28419Y103081D01*
X27097Y101103D01*
X26633Y98770D01*
Y97595D01*
X25363Y97209D01*
X14554Y108018D01*
X14962Y109220D01*
X15341Y109270D01*
X17895Y110328D01*
X20089Y112011D01*
X21772Y114205D01*
X22830Y116759D01*
X23191Y119500D01*
X22830Y122241D01*
X21772Y124795D01*
X20089Y126989D01*
X17895Y128672D01*
X15341Y129730D01*
X12600Y130091D01*
X9859Y129730D01*
X7305Y128672D01*
X5111Y126989D01*
X3428Y124795D01*
X2370Y122241D01*
X2320Y121862D01*
X1118Y121454D01*
X-10708Y133280D01*
X-10340Y134495D01*
X-9818Y134599D01*
X-7828Y135928D01*
X-6499Y137918D01*
X-6327Y138783D01*
X29259D01*
X30311Y137411D01*
D02*
G37*
G36*
X-5718Y177047D02*
X-6136Y175669D01*
X-7482Y175401D01*
X-9472Y174072D01*
X-10801Y172082D01*
X-10924Y171466D01*
X-12136Y170536D01*
X-15378Y167293D01*
X-16552Y167779D01*
Y169735D01*
X-16941Y171692D01*
X-18049Y173351D01*
X-19708Y174459D01*
X-20400Y174597D01*
Y166500D01*
X-25400D01*
Y174597D01*
X-26092Y174459D01*
X-26624Y174104D01*
X-27744Y174702D01*
Y177934D01*
X-20134Y185544D01*
X-14216D01*
X-5718Y177047D01*
D02*
G37*
G36*
X453941Y60796D02*
X452671Y60543D01*
X452324Y61382D01*
X450200Y64150D01*
X447432Y66274D01*
X447306Y66326D01*
Y76750D01*
X447118Y78176D01*
Y93460D01*
X446650Y95817D01*
X445315Y97815D01*
X443317Y99150D01*
X440960Y99618D01*
X439150D01*
X438445Y100674D01*
X438544Y100914D01*
X438819Y103003D01*
X438544Y105091D01*
X438447Y105326D01*
X439152Y106382D01*
X440960D01*
X443317Y106851D01*
X445315Y108185D01*
X446650Y110183D01*
X447118Y112540D01*
Y133460D01*
X446650Y135817D01*
X445315Y137815D01*
X443317Y139150D01*
X440960Y139618D01*
X437370D01*
X436827Y140766D01*
X437532Y141626D01*
X438925Y144232D01*
X439783Y147059D01*
X440073Y150000D01*
X439783Y152941D01*
X438925Y155768D01*
X437532Y158374D01*
X435658Y160658D01*
X433374Y162532D01*
X430768Y163925D01*
X427940Y164783D01*
X425000Y165073D01*
X422059Y164783D01*
X419232Y163925D01*
X416626Y162532D01*
X414342Y160658D01*
X412468Y158374D01*
X411075Y155768D01*
X410217Y152941D01*
X409927Y150000D01*
X410217Y147059D01*
X411075Y144232D01*
X412468Y141626D01*
X414342Y139342D01*
X416626Y137468D01*
X419232Y136075D01*
X422059Y135217D01*
X422195Y135034D01*
X421882Y133460D01*
Y112540D01*
X422351Y110183D01*
X423685Y108185D01*
X423762Y107037D01*
X422956Y105091D01*
X422681Y103003D01*
X422956Y100914D01*
X423762Y98968D01*
X423856Y98846D01*
X423685Y97815D01*
X422351Y95817D01*
X421882Y93460D01*
Y89556D01*
X416347D01*
X415784Y89988D01*
X413838Y90794D01*
X411750Y91069D01*
X409662Y90794D01*
X407715Y89988D01*
X406044Y88706D01*
X404762Y87035D01*
X403956Y85088D01*
X403681Y83000D01*
X403956Y80912D01*
X404762Y78966D01*
X406044Y77294D01*
X407715Y76012D01*
X409662Y75206D01*
X411750Y74931D01*
X413838Y75206D01*
X415784Y76012D01*
X416347Y76444D01*
X421882D01*
Y72540D01*
X422351Y70183D01*
X423685Y68185D01*
X425683Y66850D01*
X428040Y66382D01*
X432122D01*
X432553Y65112D01*
X431300Y64150D01*
X429486Y61786D01*
X429317Y61899D01*
X426960Y62368D01*
X406040D01*
X403683Y61899D01*
X402989Y61435D01*
X402206Y62456D01*
X400535Y63738D01*
X398588Y64544D01*
X396500Y64819D01*
X394412Y64544D01*
X392466Y63738D01*
X391903Y63306D01*
X383500D01*
X381803Y63083D01*
X381340Y62891D01*
X380222Y62428D01*
X380145Y62368D01*
X375047D01*
X374198Y63638D01*
X374420Y64173D01*
X374660Y66000D01*
Y80000D01*
X374420Y81827D01*
X373714Y83530D01*
X372592Y84993D01*
X371130Y86115D01*
X370650Y86313D01*
X370278Y87213D01*
X369236Y88570D01*
X323356Y134450D01*
Y144510D01*
X323133Y146207D01*
X322861Y146861D01*
X322478Y147788D01*
X321436Y149146D01*
X272840Y197742D01*
X272794Y198088D01*
X271988Y200035D01*
X270706Y201706D01*
X270095Y202174D01*
X270527Y203444D01*
X279000D01*
X280697Y203667D01*
X281487Y203995D01*
X282278Y204322D01*
X283636Y205364D01*
X322385Y244113D01*
X323088Y244206D01*
X325034Y245012D01*
X326706Y246294D01*
X327988Y247966D01*
X328794Y249912D01*
X328887Y250615D01*
X369236Y290964D01*
X369757Y291643D01*
X370278Y292322D01*
X370933Y293903D01*
X371156Y295600D01*
Y311905D01*
X372592Y313008D01*
X373714Y314470D01*
X374420Y316173D01*
X374660Y318000D01*
Y332000D01*
X374420Y333827D01*
X373714Y335530D01*
X372592Y336992D01*
X371130Y338115D01*
X369427Y338820D01*
X367600Y339060D01*
X361600D01*
X359773Y338820D01*
X358070Y338115D01*
X356608Y336992D01*
X355485Y335530D01*
X354780Y333827D01*
X354540Y332000D01*
Y318000D01*
X354780Y316173D01*
X355485Y314470D01*
X356608Y313008D01*
X358044Y311905D01*
Y298316D01*
X319615Y259887D01*
X318912Y259794D01*
X316966Y258988D01*
X315294Y257706D01*
X314012Y256035D01*
X313206Y254088D01*
X313113Y253385D01*
X276284Y216556D01*
X272342D01*
X271780Y217695D01*
X271988Y217966D01*
X272794Y219912D01*
X273069Y222000D01*
X272794Y224088D01*
X271988Y226035D01*
X270706Y227706D01*
X269035Y228988D01*
X267088Y229794D01*
X265000Y230069D01*
X262912Y229794D01*
X260965Y228988D01*
X259294Y227706D01*
X258012Y226035D01*
X257400Y224556D01*
X247860D01*
X247374Y225729D01*
X257636Y235991D01*
X258678Y237349D01*
X259061Y238275D01*
X259333Y238930D01*
X259556Y240627D01*
Y312650D01*
X259333Y314347D01*
X259141Y314810D01*
X258678Y315928D01*
X257636Y317286D01*
X233192Y341730D01*
X233491Y344000D01*
X233130Y346741D01*
X232072Y349295D01*
X230389Y351489D01*
X228195Y353172D01*
X225641Y354230D01*
X222900Y354591D01*
X220159Y354230D01*
X217605Y353172D01*
X215411Y351489D01*
X213728Y349295D01*
X212670Y346741D01*
X212309Y344000D01*
X212596Y341826D01*
X211721Y340556D01*
X208966D01*
X207792Y341730D01*
X208091Y344000D01*
X207730Y346741D01*
X206672Y349295D01*
X204989Y351489D01*
X202795Y353172D01*
X200241Y354230D01*
X197500Y354591D01*
X194759Y354230D01*
X192205Y353172D01*
X190011Y351489D01*
X188328Y349295D01*
X187270Y346741D01*
X186909Y344000D01*
X187270Y341259D01*
X188328Y338705D01*
X190011Y336511D01*
X192205Y334828D01*
X194759Y333770D01*
X197500Y333409D01*
X197561Y333417D01*
X200190Y330789D01*
X199966Y329216D01*
X199531Y328976D01*
X198782Y329551D01*
X196958Y330307D01*
X195000Y330565D01*
X193042Y330307D01*
X191218Y329551D01*
X190469Y328976D01*
X189500Y328434D01*
X188531Y328976D01*
X187782Y329551D01*
X185958Y330307D01*
X184000Y330565D01*
X182042Y330307D01*
X180218Y329551D01*
X179468Y328976D01*
X178500Y328434D01*
X177532Y328976D01*
X176782Y329551D01*
X174958Y330307D01*
X173000Y330565D01*
X171042Y330307D01*
X169218Y329551D01*
X167651Y328349D01*
X167610Y328296D01*
X165923Y328183D01*
X165278Y328678D01*
X164500Y329000D01*
Y314000D01*
Y299000D01*
X165278Y299322D01*
X165923Y299817D01*
X167610Y299704D01*
X167651Y299651D01*
X169218Y298449D01*
X171042Y297693D01*
X173000Y297435D01*
X174958Y297693D01*
X176782Y298449D01*
X177532Y299024D01*
X178500Y299566D01*
X179468Y299024D01*
X180218Y298449D01*
X182042Y297693D01*
X184000Y297435D01*
X185958Y297693D01*
X187782Y298449D01*
X188531Y299024D01*
X189500Y299566D01*
X190469Y299024D01*
X191218Y298449D01*
X193042Y297693D01*
X195000Y297435D01*
X196958Y297693D01*
X198782Y298449D01*
X199531Y299024D01*
X200500Y299566D01*
X201469Y299024D01*
X202218Y298449D01*
X204042Y297693D01*
X206000Y297435D01*
X207958Y297693D01*
X209782Y298449D01*
X211349Y299651D01*
X212551Y301218D01*
X213307Y303042D01*
X213565Y305000D01*
Y322939D01*
X213692Y323055D01*
X214777Y323523D01*
X238444Y299856D01*
Y290493D01*
X237174Y289867D01*
X236282Y290551D01*
X234458Y291307D01*
X232500Y291565D01*
X214500D01*
X212542Y291307D01*
X210729Y290556D01*
X208314D01*
X207752Y290988D01*
X205805Y291794D01*
X203717Y292069D01*
X201629Y291794D01*
X199683Y290988D01*
X198011Y289706D01*
X196729Y288034D01*
X195923Y286088D01*
X195648Y284000D01*
X195923Y281912D01*
X196373Y280826D01*
X195524Y279556D01*
X194700D01*
X193003Y279333D01*
X192540Y279141D01*
X191422Y278678D01*
X190064Y277636D01*
X139767Y227339D01*
X138338Y227706D01*
X137788Y229035D01*
X136506Y230706D01*
X134834Y231988D01*
X132888Y232794D01*
X130993Y233044D01*
X130304Y234151D01*
X133326Y237173D01*
X134652Y239157D01*
X135118Y241498D01*
Y297890D01*
X136388Y298378D01*
X138042Y297693D01*
X140000Y297435D01*
X141958Y297693D01*
X143782Y298449D01*
X144531Y299024D01*
X145500Y299566D01*
X146468Y299024D01*
X147218Y298449D01*
X149042Y297693D01*
X151000Y297435D01*
X152958Y297693D01*
X154782Y298449D01*
X156349Y299651D01*
X156390Y299704D01*
X158077Y299817D01*
X158722Y299322D01*
X159500Y299000D01*
Y314000D01*
Y329000D01*
X158722Y328678D01*
X158596Y328581D01*
X157571Y328823D01*
X158059Y330023D01*
X158804Y330331D01*
X161415Y332335D01*
X163419Y334946D01*
X164872Y335135D01*
X165420Y334768D01*
X167225Y334409D01*
X169600D01*
Y344000D01*
Y353591D01*
X167225D01*
X165420Y353232D01*
X163891Y352209D01*
X162868Y350680D01*
X162817Y350424D01*
X161460Y350107D01*
X161415Y350165D01*
X158804Y352169D01*
X155763Y353428D01*
X152500Y353858D01*
X149237Y353428D01*
X146196Y352169D01*
X143585Y350165D01*
X141581Y347554D01*
X140322Y344513D01*
X139892Y341250D01*
X140322Y337987D01*
X141581Y334946D01*
X143585Y332335D01*
X146045Y330447D01*
X146065Y329152D01*
X145179Y328614D01*
X144531Y328976D01*
X143782Y329551D01*
X141958Y330307D01*
X140000Y330565D01*
X138042Y330307D01*
X136218Y329551D01*
X135469Y328976D01*
X134500Y328434D01*
X133532Y328976D01*
X132782Y329551D01*
X130958Y330307D01*
X129000Y330565D01*
X127042Y330307D01*
X125218Y329551D01*
X124468Y328976D01*
X123500Y328434D01*
X122531Y328976D01*
X121782Y329551D01*
X119958Y330307D01*
X118000Y330565D01*
X116042Y330307D01*
X114218Y329551D01*
X112651Y328349D01*
X111531Y328976D01*
X111429Y329055D01*
X111620Y330509D01*
X113300Y331205D01*
X115702Y333048D01*
X117545Y335450D01*
X118704Y338248D01*
X118770Y338750D01*
X96230D01*
X96296Y338248D01*
X97455Y335450D01*
X99298Y333048D01*
X101700Y331205D01*
X102940Y330691D01*
X102922Y329324D01*
X102469Y328976D01*
X101349Y328349D01*
X99782Y329551D01*
X97958Y330307D01*
X96000Y330565D01*
X94042Y330307D01*
X92218Y329551D01*
X90651Y328349D01*
X90610Y328296D01*
X88923Y328183D01*
X88278Y328678D01*
X87500Y329000D01*
Y314000D01*
Y298480D01*
X88139Y297890D01*
X87928Y296294D01*
X88203Y294206D01*
X89009Y292260D01*
X90292Y290589D01*
X91963Y289306D01*
X93909Y288500D01*
X95997Y288225D01*
X98086Y288500D01*
X100032Y289306D01*
X101307Y290285D01*
X102965Y289012D01*
X103953Y288603D01*
Y287228D01*
X101700Y286295D01*
X99298Y284452D01*
X97455Y282050D01*
X96296Y279252D01*
X96230Y278750D01*
X118770D01*
X118704Y279252D01*
X118315Y280191D01*
X119115Y281578D01*
X120088Y281706D01*
X121612Y282337D01*
X122882Y281701D01*
Y244032D01*
X86829Y207979D01*
X85412Y207792D01*
X83465Y206986D01*
X81794Y205704D01*
X80512Y204033D01*
X79706Y202087D01*
X79431Y199998D01*
X79706Y197910D01*
X80512Y195964D01*
X81794Y194293D01*
X83465Y193010D01*
X85412Y192204D01*
X87500Y191929D01*
X89588Y192204D01*
X91535Y193010D01*
X93206Y194293D01*
X94488Y195964D01*
X95294Y197910D01*
X95327Y198158D01*
X96608D01*
X96706Y197412D01*
X97512Y195466D01*
X98794Y193794D01*
X100465Y192512D01*
X102107Y191832D01*
X101854Y190562D01*
X72382D01*
X71755Y191832D01*
X72051Y192218D01*
X72807Y194042D01*
X73065Y196000D01*
X72807Y197958D01*
X72051Y199782D01*
X70849Y201349D01*
Y201651D01*
X72051Y203218D01*
X72807Y205042D01*
X73065Y207000D01*
X72807Y208958D01*
X72051Y210782D01*
X70849Y212349D01*
Y212651D01*
X72051Y214218D01*
X72807Y216042D01*
X73065Y218000D01*
X72807Y219958D01*
X72051Y221782D01*
X70849Y223349D01*
X70795Y223390D01*
X70683Y225077D01*
X71178Y225722D01*
X71500Y226500D01*
X56500D01*
Y231500D01*
X71500D01*
X71178Y232278D01*
X70136Y233636D01*
X69837Y233865D01*
Y235135D01*
X70136Y235364D01*
X71178Y236722D01*
X71500Y237500D01*
X56500D01*
Y242500D01*
X71500D01*
X71178Y243278D01*
X70683Y243923D01*
X70795Y245610D01*
X70849Y245651D01*
X72051Y247218D01*
X72807Y249042D01*
X73065Y251000D01*
X72807Y252958D01*
X72051Y254782D01*
X71476Y255532D01*
X70934Y256500D01*
X71476Y257468D01*
X72051Y258218D01*
X72807Y260042D01*
X73065Y262000D01*
X72807Y263958D01*
X72051Y265782D01*
X70849Y267349D01*
X70795Y267390D01*
X70683Y269077D01*
X71178Y269722D01*
X71500Y270500D01*
X41500D01*
X41822Y269722D01*
X42317Y269077D01*
X42204Y267390D01*
X42151Y267349D01*
X40949Y265782D01*
X40193Y263958D01*
X39935Y262000D01*
X40193Y260042D01*
X40949Y258218D01*
X41523Y257468D01*
X42066Y256500D01*
X41523Y255532D01*
X40949Y254782D01*
X40193Y252958D01*
X40128Y252465D01*
X38807Y252157D01*
X38406Y252756D01*
X36754Y253860D01*
X34805Y254248D01*
X34300D01*
Y246400D01*
X29300D01*
Y254248D01*
X28795D01*
X28538Y254197D01*
X27556Y255002D01*
Y263984D01*
X31504Y267932D01*
X32546Y269290D01*
X32929Y270216D01*
X33201Y270871D01*
X33424Y272568D01*
Y296432D01*
X33201Y298129D01*
X32787Y299126D01*
X32546Y299710D01*
X31504Y301068D01*
X24757Y307815D01*
X24809Y307941D01*
X25264Y311400D01*
X24809Y314859D01*
X23474Y318082D01*
X21350Y320850D01*
X18582Y322974D01*
X15359Y324309D01*
X11900Y324764D01*
X8441Y324309D01*
X5218Y322974D01*
X2450Y320850D01*
X326Y318082D01*
X-165Y316896D01*
X-1435D01*
X-1926Y318082D01*
X-4050Y320850D01*
X-5573Y322019D01*
X-5469Y323284D01*
X-5126Y323468D01*
X-2842Y325342D01*
X-968Y327626D01*
X425Y330232D01*
X1283Y333060D01*
X1573Y336000D01*
X1283Y338941D01*
X425Y341768D01*
X-968Y344374D01*
X-2842Y346658D01*
X-5126Y348532D01*
X-7732Y349925D01*
X-10560Y350783D01*
X-13500Y351073D01*
X-16441Y350783D01*
X-19268Y349925D01*
X-21874Y348532D01*
X-24158Y346658D01*
X-26032Y344374D01*
X-27425Y341768D01*
X-28283Y338941D01*
X-28572Y336000D01*
X-28283Y333060D01*
X-27425Y330232D01*
X-26032Y327626D01*
X-24158Y325342D01*
X-21874Y323468D01*
X-21531Y323284D01*
X-21427Y322019D01*
X-22950Y320850D01*
X-25074Y318082D01*
X-26409Y314859D01*
X-26864Y311400D01*
X-26409Y307941D01*
X-25074Y304718D01*
X-22950Y301950D01*
X-20182Y299826D01*
X-19976Y299741D01*
Y298471D01*
X-20560Y298229D01*
X-23485Y295985D01*
X-25729Y293060D01*
X-27140Y289655D01*
X-27292Y288500D01*
X-13500D01*
Y286000D01*
X-11000D01*
Y272208D01*
X-9845Y272360D01*
X-6440Y273771D01*
X-3515Y276015D01*
X-1271Y278940D01*
X-1029Y279524D01*
X241D01*
X326Y279318D01*
X2450Y276550D01*
X5218Y274426D01*
X8441Y273091D01*
X11900Y272636D01*
X15359Y273091D01*
X17005Y273773D01*
X17725Y272696D01*
X16364Y271336D01*
X15322Y269978D01*
X14939Y269052D01*
X14667Y268397D01*
X14444Y266700D01*
Y241200D01*
X14667Y239503D01*
X14939Y238848D01*
X15322Y237922D01*
X16364Y236564D01*
X22683Y230246D01*
Y227645D01*
X23148Y225306D01*
X24158Y223794D01*
X24372Y222900D01*
X24158Y222006D01*
X23148Y220494D01*
X22683Y218155D01*
Y212645D01*
X23148Y210306D01*
X24473Y208323D01*
X25611Y207562D01*
X25611Y206035D01*
X25194Y205756D01*
X24090Y204104D01*
X23702Y202155D01*
Y201900D01*
X31800D01*
Y199400D01*
X34300D01*
Y191552D01*
X34805D01*
X36659Y191921D01*
X36895Y191732D01*
X37468Y190890D01*
X36812Y190035D01*
X36755Y189896D01*
X35953Y189653D01*
X33620Y190117D01*
X28580D01*
X26247Y189653D01*
X24269Y188331D01*
X23735Y187533D01*
X22465D01*
X21931Y188331D01*
X19953Y189653D01*
X17620Y190117D01*
X12580D01*
X10247Y189653D01*
X8269Y188331D01*
X7550Y187256D01*
X2616D01*
X-4944Y194816D01*
Y197674D01*
X-4818Y197726D01*
X-2050Y199850D01*
X74Y202618D01*
X1409Y205841D01*
X1864Y209300D01*
X1409Y212759D01*
X74Y215982D01*
X-2050Y218750D01*
X-4818Y220874D01*
X-7184Y221854D01*
Y223228D01*
X-5322Y224000D01*
X-2763Y225963D01*
X-800Y228522D01*
X435Y231502D01*
X527Y232200D01*
X-23527D01*
X-23435Y231502D01*
X-22200Y228522D01*
X-20237Y225963D01*
X-17678Y224000D01*
X-15816Y223228D01*
Y221854D01*
X-18182Y220874D01*
X-20950Y218750D01*
X-23074Y215982D01*
X-24409Y212759D01*
X-24864Y209300D01*
X-24409Y205841D01*
X-23074Y202618D01*
X-21008Y199926D01*
X-21096Y199419D01*
X-21355Y198656D01*
X-22850D01*
X-24547Y198433D01*
X-25010Y198241D01*
X-26128Y197778D01*
X-27486Y196736D01*
X-38936Y185286D01*
X-39978Y183928D01*
X-40441Y182810D01*
X-40633Y182347D01*
X-40856Y180650D01*
Y132400D01*
X-40633Y130703D01*
X-40361Y130048D01*
X-39978Y129122D01*
X-38936Y127764D01*
X-35656Y124484D01*
Y92400D01*
X-35433Y90703D01*
X-35105Y89913D01*
X-34778Y89122D01*
X-33736Y87764D01*
X-23636Y77664D01*
X-22278Y76622D01*
X-21352Y76239D01*
X-20697Y75967D01*
X-19000Y75744D01*
X-17736D01*
X-17305Y74474D01*
X-18758Y73358D01*
X-20682Y70852D01*
X-21891Y67933D01*
X-21974Y67300D01*
X1574D01*
X1491Y67933D01*
X282Y70852D01*
X-1641Y73358D01*
X-3095Y74474D01*
X-2664Y75744D01*
X3076D01*
X13905Y64915D01*
X13997Y64212D01*
X14803Y62266D01*
X16086Y60594D01*
X17757Y59312D01*
X19703Y58506D01*
X21791Y58231D01*
X23880Y58506D01*
X25826Y59312D01*
X27497Y60594D01*
X28779Y62266D01*
X29585Y64212D01*
X29763Y65558D01*
X31091Y65914D01*
X31114Y65883D01*
X62383Y34614D01*
X63741Y33572D01*
X64325Y33331D01*
X65322Y32917D01*
X67019Y32694D01*
X88521D01*
X88899Y32744D01*
X91084D01*
X92560Y31268D01*
X92034Y29998D01*
X91710D01*
X89755Y29609D01*
X89027Y29123D01*
X88523Y29223D01*
X86535Y30551D01*
X84190Y31018D01*
X82210D01*
X79865Y30551D01*
X77877Y29223D01*
X77031Y27956D01*
X71792D01*
X71277Y28727D01*
X69294Y30052D01*
X66955Y30517D01*
X61445D01*
X59106Y30052D01*
X57123Y28727D01*
X56362Y27589D01*
X54835Y27589D01*
X54556Y28006D01*
X52904Y29110D01*
X50955Y29498D01*
X50700D01*
Y21400D01*
Y13302D01*
X50955D01*
X52904Y13690D01*
X54556Y14794D01*
X54835Y15211D01*
X56362Y15211D01*
X57123Y14073D01*
X57403Y13886D01*
X57488Y12559D01*
X55685Y10757D01*
X55559Y10809D01*
X52100Y11264D01*
X48641Y10809D01*
X45418Y9474D01*
X42650Y7350D01*
X40526Y4582D01*
X39191Y1359D01*
X38736Y-2100D01*
X39191Y-5559D01*
X40526Y-8782D01*
X42650Y-11550D01*
X45418Y-13674D01*
X47784Y-14654D01*
Y-16028D01*
X45922Y-16800D01*
X43363Y-18763D01*
X41400Y-21322D01*
X40165Y-24302D01*
X40073Y-25000D01*
X64127D01*
X64035Y-24302D01*
X62800Y-21322D01*
X60837Y-18763D01*
X58278Y-16800D01*
X56416Y-16028D01*
Y-14654D01*
X58782Y-13674D01*
X61550Y-11550D01*
X63674Y-8782D01*
X65009Y-5559D01*
X65464Y-2100D01*
X65009Y1359D01*
X64957Y1485D01*
X68836Y5364D01*
X69878Y6722D01*
X70205Y7513D01*
X70533Y8303D01*
X70756Y10000D01*
Y13725D01*
X71277Y14073D01*
X71792Y14844D01*
X77031D01*
X77877Y13577D01*
X79865Y12249D01*
X82210Y11782D01*
X84190D01*
X86535Y12249D01*
X88523Y13577D01*
X89027Y13677D01*
X89755Y13191D01*
X91710Y12802D01*
X93690D01*
X93745Y12813D01*
X94371Y11642D01*
X90064Y7336D01*
X89022Y5978D01*
X88695Y5187D01*
X88516Y4755D01*
X87194Y4111D01*
X86535Y4551D01*
X84190Y5018D01*
X82210D01*
X79865Y4551D01*
X77877Y3223D01*
X76549Y1235D01*
X76082Y-1110D01*
Y-8090D01*
X76494Y-10163D01*
X75804Y-11432D01*
X72595D01*
X70256Y-11898D01*
X68273Y-13223D01*
X66948Y-15206D01*
X66483Y-17545D01*
Y-23055D01*
X66948Y-25394D01*
X68273Y-27377D01*
X69411Y-28138D01*
X69411Y-29665D01*
X68994Y-29944D01*
X67890Y-31596D01*
X67502Y-33545D01*
Y-33800D01*
X75600D01*
Y-36300D01*
X78100D01*
Y-44148D01*
X78605D01*
X80554Y-43760D01*
X82206Y-42656D01*
X82378Y-42399D01*
X83648D01*
X83990Y-42910D01*
X85637Y-44011D01*
X87580Y-44398D01*
X87600D01*
Y-36300D01*
X92600D01*
Y-44398D01*
X92620D01*
X94563Y-44011D01*
X96210Y-42910D01*
X96793Y-42038D01*
X96892Y-42005D01*
X98262Y-42125D01*
X99269Y-43631D01*
X101247Y-44953D01*
X103580Y-45417D01*
X108620D01*
X110953Y-44953D01*
X112931Y-43631D01*
X114253Y-41653D01*
X114717Y-39320D01*
Y-33280D01*
X114253Y-30947D01*
X112931Y-28969D01*
X112918Y-28960D01*
Y-27641D01*
X112931Y-27631D01*
X114253Y-25653D01*
X114717Y-23320D01*
Y-17280D01*
X114253Y-14947D01*
X112931Y-12969D01*
X110953Y-11647D01*
X109654Y-11389D01*
X109600Y-11324D01*
X108942Y-9977D01*
X109318Y-8090D01*
Y-1110D01*
X108851Y1235D01*
X107523Y3223D01*
X106540Y3880D01*
X106415Y5144D01*
X106836Y5564D01*
X107878Y6922D01*
X108120Y7506D01*
X108533Y8503D01*
X108756Y10200D01*
Y15423D01*
X108851Y15565D01*
X109006Y16344D01*
X119983D01*
Y855D01*
X120445Y-1469D01*
X121762Y-3438D01*
X123731Y-4755D01*
X126055Y-5217D01*
X127416D01*
X127901Y-5942D01*
X128083Y-6487D01*
X127831Y-8400D01*
X128106Y-10488D01*
X128912Y-12435D01*
X130194Y-14106D01*
X131012Y-14733D01*
X130581Y-16003D01*
X126055D01*
X124122Y-16387D01*
X122483Y-17483D01*
X121388Y-19122D01*
X121003Y-21055D01*
Y-29100D01*
X150197D01*
Y-21055D01*
X149812Y-19122D01*
X148717Y-17483D01*
X147884Y-16926D01*
X148270Y-15656D01*
X152384D01*
X156383Y-19655D01*
Y-22020D01*
X156847Y-24353D01*
X158169Y-26331D01*
X158182Y-26340D01*
Y-27659D01*
X158169Y-27669D01*
X156847Y-29647D01*
X156383Y-31980D01*
Y-38020D01*
X156847Y-40353D01*
X158169Y-42331D01*
X160147Y-43653D01*
X162480Y-44117D01*
X167520D01*
X169853Y-43653D01*
X171831Y-42331D01*
X172365Y-41533D01*
X173635D01*
X174169Y-42331D01*
X176147Y-43653D01*
X178480Y-44117D01*
X183520D01*
X185853Y-43653D01*
X187585Y-42496D01*
X188669Y-41831D01*
X190647Y-43153D01*
X192980Y-43617D01*
X199020D01*
X201353Y-43153D01*
X203331Y-41831D01*
X203515Y-41556D01*
X204700D01*
X206397Y-41333D01*
X207188Y-41005D01*
X207978Y-40678D01*
X209336Y-39636D01*
X213636Y-35336D01*
X214678Y-33978D01*
X215061Y-33052D01*
X215333Y-32397D01*
X215556Y-30700D01*
Y2000D01*
X215333Y3697D01*
X215005Y4487D01*
X214678Y5278D01*
X213636Y6636D01*
X207636Y12636D01*
X206278Y13678D01*
X205487Y14005D01*
X204697Y14333D01*
X203000Y14556D01*
X199256D01*
Y30000D01*
X199033Y31697D01*
X198378Y33278D01*
X197336Y34636D01*
X196478Y35494D01*
X196982Y36786D01*
X198278Y37322D01*
X199636Y38364D01*
X200678Y39722D01*
X200881Y40211D01*
X202323Y40547D01*
X202914Y40027D01*
Y29000D01*
X203257Y26390D01*
X204265Y23957D01*
X205868Y21868D01*
X220914Y6822D01*
Y-2790D01*
X219645Y-4444D01*
X218335Y-7606D01*
X217888Y-11000D01*
X218335Y-14394D01*
X219645Y-17556D01*
X221728Y-20272D01*
X224444Y-22355D01*
X227606Y-23665D01*
X231000Y-24112D01*
X234394Y-23665D01*
X237556Y-22355D01*
X240272Y-20272D01*
X242355Y-17556D01*
X243665Y-14394D01*
X244112Y-11000D01*
X243665Y-7606D01*
X242355Y-4444D01*
X241086Y-2790D01*
Y11000D01*
X240743Y13611D01*
X239735Y16043D01*
X238132Y18132D01*
X223086Y33178D01*
Y40647D01*
X225229Y43440D01*
X225656Y44471D01*
X226926D01*
X227145Y43944D01*
X229228Y41228D01*
X231944Y39144D01*
X235106Y37835D01*
X236000Y37717D01*
Y50500D01*
X238500D01*
Y53000D01*
X251283D01*
X251165Y53894D01*
X249855Y57056D01*
X247772Y59772D01*
X245056Y61856D01*
X243734Y62403D01*
X243459Y63308D01*
X243848Y65265D01*
Y66000D01*
X237500D01*
Y68500D01*
X235000D01*
Y77145D01*
X234556Y77509D01*
Y85402D01*
X234901Y85918D01*
X235368Y88265D01*
Y94735D01*
X234901Y97082D01*
X233572Y99072D01*
X231582Y100401D01*
X229235Y100868D01*
X226765D01*
X224418Y100401D01*
X222428Y99072D01*
X221099Y97082D01*
X220632Y94735D01*
Y88265D01*
X221099Y85918D01*
X221444Y85402D01*
Y78529D01*
X220462Y77723D01*
X219735Y77868D01*
X217265D01*
X214918Y77401D01*
X212928Y76072D01*
X212250Y75056D01*
X210849D01*
X210331Y75831D01*
X208353Y77153D01*
X206020Y77617D01*
X200980D01*
X198647Y77153D01*
X196669Y75831D01*
X195662Y74325D01*
X194292Y74205D01*
X194193Y74238D01*
X193610Y75110D01*
X191963Y76211D01*
X190020Y76597D01*
X190000D01*
Y68500D01*
X187500D01*
Y66000D01*
X179902D01*
Y65480D01*
X178822Y64401D01*
X178303Y64333D01*
X176722Y63678D01*
X175364Y62636D01*
X174322Y61278D01*
X173667Y59697D01*
X173444Y58000D01*
Y46001D01*
X172388Y45296D01*
X171788Y45544D01*
X169700Y45819D01*
X167612Y45544D01*
X165665Y44738D01*
X163994Y43456D01*
X162712Y41785D01*
X161906Y39838D01*
X161631Y37750D01*
X161906Y35662D01*
X162712Y33716D01*
X163144Y33153D01*
Y23750D01*
X162128Y23072D01*
X160799Y21082D01*
X160332Y18735D01*
Y16265D01*
X160799Y13918D01*
X162128Y11928D01*
X164118Y10599D01*
X166465Y10132D01*
X172935D01*
X173462Y10237D01*
X174444Y9431D01*
Y5549D01*
X173462Y4743D01*
X172935Y4848D01*
X172200D01*
Y-1500D01*
X171448D01*
Y-3250D01*
X169700D01*
Y-4000D01*
X161350D01*
Y-4419D01*
X160177Y-4905D01*
X159736Y-4464D01*
X158378Y-3422D01*
X157452Y-3039D01*
X156797Y-2767D01*
X155100Y-2544D01*
X151362D01*
X150793Y-1274D01*
X151217Y855D01*
Y21945D01*
X150754Y24269D01*
X149438Y26238D01*
X147469Y27555D01*
X145145Y28017D01*
X128109D01*
X127378Y28578D01*
X126587Y28905D01*
X125797Y29233D01*
X124100Y29456D01*
X108756D01*
Y30900D01*
X108533Y32597D01*
X108341Y33060D01*
X107878Y34178D01*
X106836Y35536D01*
X98486Y43886D01*
X97128Y44928D01*
X96337Y45255D01*
X95547Y45583D01*
X93850Y45806D01*
X91808D01*
X91429Y45856D01*
X88571D01*
X88192Y45806D01*
X69735D01*
X42995Y72545D01*
X43081Y73419D01*
X44403Y75397D01*
X44867Y77730D01*
Y82770D01*
X44403Y85103D01*
X43081Y87081D01*
X43025Y87119D01*
X43074Y87272D01*
X44455Y87726D01*
X45397Y87097D01*
X47730Y86633D01*
X52770D01*
X55103Y87097D01*
X57081Y88419D01*
X58088Y89925D01*
X59458Y90045D01*
X59557Y90012D01*
X60140Y89140D01*
X61787Y88039D01*
X63730Y87653D01*
X63750D01*
Y95750D01*
Y103848D01*
X63730D01*
X61787Y103461D01*
X60140Y102360D01*
X59557Y101488D01*
X59458Y101455D01*
X58088Y101575D01*
X57081Y103081D01*
X55324Y104256D01*
X54910Y105638D01*
X55836Y106564D01*
X56878Y107922D01*
X57261Y108848D01*
X57445Y109290D01*
X57595Y109526D01*
X58880Y110007D01*
X60659Y109270D01*
X63400Y108909D01*
X66141Y109270D01*
X68695Y110328D01*
X70889Y112011D01*
X72572Y114205D01*
X73630Y116759D01*
X73991Y119500D01*
X73630Y122241D01*
X72572Y124795D01*
X70889Y126989D01*
X68695Y128672D01*
X66141Y129730D01*
X63400Y130091D01*
X60659Y129730D01*
X59026Y129053D01*
X57756Y129902D01*
Y135595D01*
X59026Y136346D01*
X60700Y135653D01*
Y144900D01*
X63200D01*
Y147400D01*
X72447D01*
X72027Y148414D01*
X72920Y149578D01*
X74000Y149435D01*
X75958Y149693D01*
X77782Y150449D01*
X79349Y151651D01*
X79651D01*
X81218Y150449D01*
X83042Y149693D01*
X85000Y149435D01*
X86958Y149693D01*
X88782Y150449D01*
X89174Y150749D01*
X90444Y150123D01*
Y147101D01*
X89970Y146391D01*
X89542Y144242D01*
Y140557D01*
X89970Y138409D01*
X90243Y138000D01*
X89970Y137591D01*
X89542Y135442D01*
Y131757D01*
X89675Y131092D01*
X88869Y130110D01*
X83925D01*
X81730Y129674D01*
X79870Y128430D01*
X78626Y126570D01*
X78190Y124375D01*
Y114625D01*
X78626Y112430D01*
X79870Y110570D01*
X81730Y109326D01*
X83925Y108890D01*
X84394Y108319D01*
X84132Y107005D01*
Y100995D01*
X84598Y98656D01*
X85923Y96673D01*
Y96327D01*
X84598Y94344D01*
X84132Y92005D01*
Y85995D01*
X84598Y83656D01*
X85923Y81673D01*
X85377Y80510D01*
X85162Y80189D01*
X83635Y80189D01*
X83356Y80606D01*
X81704Y81710D01*
X79755Y82098D01*
X79500D01*
Y74000D01*
X77000D01*
Y71500D01*
X69152D01*
Y70995D01*
X69540Y69046D01*
X70644Y67394D01*
X71031Y67135D01*
Y65865D01*
X70644Y65606D01*
X69540Y63954D01*
X69152Y62005D01*
Y61500D01*
X77000D01*
Y59000D01*
X79500D01*
Y50902D01*
X79755D01*
X81704Y51290D01*
X83356Y52394D01*
X83635Y52811D01*
X85162Y52811D01*
X85923Y51673D01*
X87906Y50348D01*
X90245Y49883D01*
X95755D01*
X98094Y50348D01*
X100077Y51673D01*
X100365Y52104D01*
X101635D01*
X101923Y51673D01*
X103906Y50348D01*
X106245Y49883D01*
X111755D01*
X114094Y50348D01*
X116077Y51673D01*
X116838Y52811D01*
X118365Y52811D01*
X118644Y52394D01*
X120296Y51290D01*
X122245Y50902D01*
X122500D01*
Y59000D01*
X125000D01*
Y61500D01*
X132848D01*
Y62005D01*
X132460Y63954D01*
X131356Y65606D01*
X130969Y65865D01*
Y67135D01*
X131356Y67394D01*
X132460Y69046D01*
X132848Y70995D01*
Y71500D01*
X125000D01*
Y74000D01*
X122500D01*
Y82098D01*
X122245D01*
X120296Y81710D01*
X118644Y80606D01*
X118365Y80189D01*
X116838Y80189D01*
X116623Y80510D01*
X116077Y81673D01*
X117402Y83656D01*
X117867Y85995D01*
Y92005D01*
X117402Y94344D01*
X116077Y96327D01*
Y96673D01*
X117402Y98656D01*
X117867Y100995D01*
Y107005D01*
X117402Y109344D01*
X117443Y109478D01*
X119495Y110328D01*
X121689Y112011D01*
X123372Y114205D01*
X124430Y116759D01*
X124791Y119500D01*
X124430Y122241D01*
X123372Y124795D01*
X124423Y125405D01*
X129063Y120765D01*
X128909Y119600D01*
X129270Y116859D01*
X130328Y114305D01*
X132011Y112111D01*
X134205Y110428D01*
X135422Y109924D01*
X135598Y109344D01*
X135133Y107005D01*
Y100995D01*
X135598Y98656D01*
X136923Y96673D01*
Y96327D01*
X135598Y94344D01*
X135133Y92005D01*
Y85995D01*
X135598Y83656D01*
X136415Y82432D01*
X136673Y81077D01*
X135348Y79094D01*
X134883Y76755D01*
Y71245D01*
X135348Y68906D01*
X136673Y66923D01*
X137811Y66162D01*
X137811Y64635D01*
X137394Y64356D01*
X136290Y62704D01*
X135902Y60755D01*
Y60500D01*
X144000D01*
Y58000D01*
X146500D01*
Y50152D01*
X147005D01*
X148954Y50540D01*
X150606Y51644D01*
X151236Y52587D01*
X152764D01*
X153394Y51644D01*
X155046Y50540D01*
X156995Y50152D01*
X157500D01*
Y58000D01*
X160000D01*
Y60500D01*
X168098D01*
Y60755D01*
X167710Y62704D01*
X166606Y64356D01*
X166189Y64635D01*
X166189Y66162D01*
X167327Y66923D01*
X168652Y68906D01*
X169117Y71245D01*
Y76755D01*
X168652Y79094D01*
X167971Y80113D01*
X168887Y81029D01*
X169906Y80348D01*
X172245Y79883D01*
X177755D01*
X180094Y80348D01*
X182077Y81673D01*
X182838Y82811D01*
X184365Y82811D01*
X184644Y82394D01*
X186296Y81290D01*
X188245Y80902D01*
X188500D01*
Y89000D01*
X191000D01*
Y91500D01*
X198848D01*
Y92005D01*
X198460Y93954D01*
X197356Y95606D01*
X196969Y95865D01*
Y97135D01*
X197356Y97394D01*
X198460Y99046D01*
X198848Y100995D01*
Y101500D01*
X191000D01*
Y106500D01*
X198848D01*
Y107005D01*
X198460Y108954D01*
X198372Y109086D01*
X199895Y110105D01*
X201166Y112007D01*
X201613Y114250D01*
Y124750D01*
X201166Y126994D01*
X199895Y128896D01*
X197994Y130166D01*
X195750Y130613D01*
X185250D01*
X183006Y130166D01*
X181105Y128896D01*
X179834Y126994D01*
X179387Y124750D01*
Y114250D01*
X179466Y113854D01*
X178568Y112956D01*
X177755Y113117D01*
X174596D01*
X174035Y114256D01*
X174072Y114305D01*
X175130Y116859D01*
X175491Y119600D01*
X175130Y122341D01*
X174072Y124895D01*
X172389Y127089D01*
X170195Y128772D01*
X167641Y129830D01*
X164900Y130191D01*
X162159Y129830D01*
X159605Y128772D01*
X157622Y127250D01*
X153509Y131363D01*
X154035Y132633D01*
X158520D01*
X160853Y133097D01*
X162831Y134419D01*
X163838Y135925D01*
X165208Y136045D01*
X165307Y136012D01*
X165890Y135140D01*
X167537Y134039D01*
X169480Y133652D01*
X169500D01*
Y141750D01*
X172000D01*
Y144250D01*
X179598D01*
Y144770D01*
X179211Y146713D01*
X178110Y148360D01*
X176943Y149141D01*
X176858Y149833D01*
X176933Y150564D01*
X178349Y151651D01*
X179468Y151024D01*
X180218Y150449D01*
X182042Y149693D01*
X184000Y149435D01*
X185958Y149693D01*
X187174Y150197D01*
X188444Y149451D01*
Y148400D01*
X188667Y146703D01*
X188995Y145913D01*
X189322Y145122D01*
X190364Y143764D01*
X205064Y129064D01*
X206422Y128022D01*
X207023Y127773D01*
X207461Y126616D01*
X207429Y126230D01*
X206328Y124795D01*
X205270Y122241D01*
X204909Y119500D01*
X205270Y116759D01*
X206328Y114205D01*
X208011Y112011D01*
X210205Y110328D01*
X212759Y109270D01*
X215500Y108909D01*
X218241Y109270D01*
X220795Y110328D01*
X222989Y112011D01*
X224672Y114205D01*
X225730Y116759D01*
X225968Y118565D01*
X227308Y119021D01*
X250365Y95964D01*
X251723Y94922D01*
X252649Y94539D01*
X253304Y94267D01*
X255001Y94044D01*
X305037D01*
X305874Y93089D01*
X305731Y92000D01*
X306006Y89912D01*
X306812Y87965D01*
X307244Y87403D01*
Y86095D01*
X305807Y84993D01*
X304685Y83530D01*
X303980Y81827D01*
X303740Y80000D01*
Y66000D01*
X303899Y64792D01*
X302798Y63873D01*
X302155Y64140D01*
X298500Y64621D01*
X294845Y64140D01*
X291440Y62729D01*
X288515Y60485D01*
X286271Y57560D01*
X284860Y54155D01*
X284379Y50500D01*
X284860Y46845D01*
X286271Y43440D01*
X288515Y40515D01*
X291440Y38271D01*
X294845Y36860D01*
X298500Y36379D01*
X302155Y36860D01*
X302659Y37069D01*
X304317Y35411D01*
Y33307D01*
X304540Y31610D01*
X304868Y30820D01*
X305195Y30029D01*
X306237Y28671D01*
X307620Y27288D01*
X307847Y26147D01*
X309169Y24169D01*
X311147Y22847D01*
X313480Y22383D01*
X318520D01*
X320853Y22847D01*
X322831Y24169D01*
X323365Y24967D01*
X324635D01*
X325169Y24169D01*
X327147Y22847D01*
X329480Y22383D01*
X334520D01*
X336853Y22847D01*
X338831Y24169D01*
X340153Y26147D01*
X340257Y26669D01*
X340511Y26864D01*
X341553Y28222D01*
X342208Y29803D01*
X342431Y31500D01*
Y34159D01*
X344716Y36444D01*
X357000D01*
X358697Y36667D01*
X360278Y37322D01*
X361636Y38364D01*
X361942Y38764D01*
X363683Y37601D01*
X366040Y37132D01*
X386960D01*
X389317Y37601D01*
X390011Y38065D01*
X390794Y37044D01*
X392466Y35762D01*
X394412Y34956D01*
X396500Y34681D01*
X398588Y34956D01*
X400535Y35762D01*
X401097Y36194D01*
X409500D01*
X411197Y36417D01*
X411852Y36689D01*
X412778Y37072D01*
X412855Y37132D01*
X426960D01*
X428727Y37483D01*
X429444Y36331D01*
X429176Y35982D01*
X427841Y32759D01*
X427386Y29300D01*
X427841Y25841D01*
X429176Y22618D01*
X431300Y19850D01*
X434068Y17726D01*
X437291Y16391D01*
X440750Y15936D01*
X444209Y16391D01*
X447432Y17726D01*
X450200Y19850D01*
X452324Y22618D01*
X452671Y23456D01*
X453941Y23204D01*
Y-46941D01*
X149171D01*
X148802Y-45945D01*
X148748Y-45671D01*
X149812Y-44078D01*
X150197Y-42145D01*
Y-34100D01*
X121003D01*
Y-42145D01*
X121388Y-44078D01*
X122452Y-45671D01*
X122398Y-45945D01*
X122029Y-46941D01*
X-8733D01*
X-46941Y-8733D01*
Y443941D01*
X87500D01*
Y417454D01*
X86602Y416556D01*
X77360D01*
X75842Y416858D01*
X72158D01*
X70009Y416430D01*
X68187Y415213D01*
X66970Y413391D01*
X66542Y411242D01*
Y407557D01*
X66546Y407538D01*
X65740Y406556D01*
X15205D01*
X13786Y409211D01*
X11724Y411724D01*
X9211Y413786D01*
X6345Y415318D01*
X3235Y416261D01*
X0Y416580D01*
X-3235Y416261D01*
X-6345Y415318D01*
X-9211Y413786D01*
X-11724Y411724D01*
X-13786Y409211D01*
X-15318Y406345D01*
X-16261Y403235D01*
X-16580Y400000D01*
X-16261Y396765D01*
X-15318Y393655D01*
X-13786Y390789D01*
X-11724Y388276D01*
X-9211Y386214D01*
X-6345Y384682D01*
X-3235Y383739D01*
X0Y383420D01*
X3235Y383739D01*
X6345Y384682D01*
X9211Y386214D01*
X11724Y388276D01*
X13786Y390789D01*
X15205Y393444D01*
X67444D01*
Y341407D01*
X66834Y340494D01*
X66387Y338250D01*
Y331750D01*
X66834Y329506D01*
X67444Y328593D01*
Y326771D01*
X66693Y324958D01*
X66435Y323000D01*
Y305000D01*
X66693Y303042D01*
X67449Y301218D01*
X68651Y299651D01*
X70218Y298449D01*
X72042Y297693D01*
X74000Y297435D01*
X75958Y297693D01*
X77782Y298449D01*
X79349Y299651D01*
X79390Y299704D01*
X81077Y299817D01*
X81722Y299322D01*
X82500Y299000D01*
Y314000D01*
Y329000D01*
X82241Y328893D01*
X81952Y329058D01*
X81235Y329850D01*
X81613Y331750D01*
Y338250D01*
X81166Y340494D01*
X80556Y341407D01*
Y395899D01*
X81030Y396609D01*
X81458Y398758D01*
Y402443D01*
X81454Y402462D01*
X82260Y403444D01*
X87500D01*
Y365022D01*
X321459Y365022D01*
X321501Y443941D01*
X322771Y443941D01*
X453941D01*
Y60796D01*
D02*
G37*
%LPC*%
G36*
X-12700Y62300D02*
X-21974D01*
X-21891Y61667D01*
X-20682Y58748D01*
X-18758Y56241D01*
X-16252Y54318D01*
X-13333Y53109D01*
X-12700Y53026D01*
Y62300D01*
D02*
G37*
G36*
X1574D02*
X-7700D01*
Y53026D01*
X-7067Y53109D01*
X-4148Y54318D01*
X-1641Y56241D01*
X282Y58748D01*
X1491Y61667D01*
X1574Y62300D01*
D02*
G37*
G36*
X168098Y55500D02*
X162500D01*
Y50152D01*
X163005D01*
X164954Y50540D01*
X166606Y51644D01*
X167710Y53296D01*
X168098Y55245D01*
Y55500D01*
D02*
G37*
G36*
X74500Y56500D02*
X69152D01*
Y55995D01*
X69540Y54046D01*
X70644Y52394D01*
X72296Y51290D01*
X74245Y50902D01*
X74500D01*
Y56500D01*
D02*
G37*
G36*
X132848D02*
X127500D01*
Y50902D01*
X127755D01*
X129704Y51290D01*
X131356Y52394D01*
X132460Y54046D01*
X132848Y55995D01*
Y56500D01*
D02*
G37*
G36*
X185000Y76597D02*
X184980D01*
X183037Y76211D01*
X181390Y75110D01*
X180289Y73463D01*
X179902Y71520D01*
Y71000D01*
X185000D01*
Y76597D01*
D02*
G37*
G36*
X73848Y93250D02*
X68750D01*
Y87653D01*
X68770D01*
X70713Y88039D01*
X72360Y89140D01*
X73461Y90787D01*
X73848Y92730D01*
Y93250D01*
D02*
G37*
G36*
X198848Y86500D02*
X193500D01*
Y80902D01*
X193755D01*
X195704Y81290D01*
X197356Y82394D01*
X198460Y84046D01*
X198848Y85995D01*
Y86500D01*
D02*
G37*
G36*
X127755Y82098D02*
X127500D01*
Y76500D01*
X132848D01*
Y77005D01*
X132460Y78954D01*
X131356Y80606D01*
X129704Y81710D01*
X127755Y82098D01*
D02*
G37*
G36*
X240000Y76597D02*
Y71000D01*
X243848D01*
Y71735D01*
X243459Y73692D01*
X242351Y75351D01*
X240692Y76459D01*
X240000Y76597D01*
D02*
G37*
G36*
X74500Y82098D02*
X74245D01*
X72296Y81710D01*
X70644Y80606D01*
X69540Y78954D01*
X69152Y77005D01*
Y76500D01*
X74500D01*
Y82098D01*
D02*
G37*
G36*
X141500Y55500D02*
X135902D01*
Y55245D01*
X136290Y53296D01*
X137394Y51644D01*
X139046Y50540D01*
X140995Y50152D01*
X141500D01*
Y55500D01*
D02*
G37*
G36*
X301000Y2112D02*
X297606Y1665D01*
X294444Y355D01*
X291728Y-1728D01*
X289645Y-4444D01*
X288335Y-7606D01*
X287888Y-11000D01*
X288335Y-14394D01*
X289645Y-17556D01*
X291728Y-20272D01*
X294444Y-22355D01*
X297606Y-23665D01*
X301000Y-24112D01*
X304394Y-23665D01*
X307556Y-22355D01*
X310272Y-20272D01*
X312355Y-17556D01*
X313665Y-14394D01*
X314112Y-11000D01*
X313665Y-7606D01*
X312355Y-4444D01*
X310272Y-1728D01*
X307556Y355D01*
X304394Y1665D01*
X301000Y2112D01*
D02*
G37*
G36*
X336000D02*
X332606Y1665D01*
X329444Y355D01*
X326728Y-1728D01*
X324645Y-4444D01*
X323335Y-7606D01*
X322888Y-11000D01*
X323335Y-14394D01*
X324645Y-17556D01*
X326728Y-20272D01*
X329444Y-22355D01*
X332606Y-23665D01*
X336000Y-24112D01*
X339394Y-23665D01*
X342556Y-22355D01*
X345272Y-20272D01*
X347355Y-17556D01*
X348665Y-14394D01*
X349112Y-11000D01*
X348665Y-7606D01*
X347355Y-4444D01*
X345272Y-1728D01*
X342556Y355D01*
X339394Y1665D01*
X336000Y2112D01*
D02*
G37*
G36*
X263500Y-13500D02*
X254226D01*
X254309Y-14133D01*
X255518Y-17052D01*
X257442Y-19559D01*
X259948Y-21482D01*
X262867Y-22691D01*
X263500Y-22774D01*
Y-13500D01*
D02*
G37*
G36*
X73100Y-38800D02*
X67502D01*
Y-39055D01*
X67890Y-41004D01*
X68994Y-42656D01*
X70646Y-43760D01*
X72595Y-44148D01*
X73100D01*
Y-38800D01*
D02*
G37*
G36*
X49600Y-30000D02*
X40073D01*
X40165Y-30698D01*
X41400Y-33678D01*
X43363Y-36237D01*
X45922Y-38200D01*
X48902Y-39435D01*
X49600Y-39527D01*
Y-30000D01*
D02*
G37*
G36*
X64127D02*
X54600D01*
Y-39527D01*
X55298Y-39435D01*
X58278Y-38200D01*
X60837Y-36237D01*
X62800Y-33678D01*
X64035Y-30698D01*
X64127Y-30000D01*
D02*
G37*
G36*
X277774Y-13500D02*
X268500D01*
Y-22774D01*
X269133Y-22691D01*
X272052Y-21482D01*
X274559Y-19559D01*
X276482Y-17052D01*
X277691Y-14133D01*
X277774Y-13500D01*
D02*
G37*
G36*
X45700Y18900D02*
X40352D01*
Y18395D01*
X40740Y16446D01*
X41844Y14794D01*
X43496Y13690D01*
X45445Y13302D01*
X45700D01*
Y18900D01*
D02*
G37*
G36*
Y29498D02*
X45445D01*
X43496Y29110D01*
X41844Y28006D01*
X40740Y26354D01*
X40352Y24405D01*
Y23900D01*
X45700D01*
Y29498D01*
D02*
G37*
G36*
X251283Y48000D02*
X241000D01*
Y37717D01*
X241894Y37835D01*
X245056Y39144D01*
X247772Y41228D01*
X249855Y43944D01*
X251165Y47106D01*
X251283Y48000D01*
D02*
G37*
G36*
X263500Y774D02*
X262867Y691D01*
X259948Y-518D01*
X257442Y-2441D01*
X255518Y-4948D01*
X254309Y-7867D01*
X254226Y-8500D01*
X263500D01*
Y774D01*
D02*
G37*
G36*
X268500D02*
Y-8500D01*
X277774D01*
X277691Y-7867D01*
X276482Y-4948D01*
X274559Y-2441D01*
X272052Y-518D01*
X269133Y691D01*
X268500Y774D01*
D02*
G37*
G36*
X166448Y4848D02*
X166428D01*
X164485Y4461D01*
X162837Y3360D01*
X161737Y1713D01*
X161595Y1000D01*
X166448D01*
Y4848D01*
D02*
G37*
G36*
X389000Y289522D02*
Y280500D01*
X398022D01*
X397948Y281067D01*
X396764Y283926D01*
X394880Y286380D01*
X392426Y288264D01*
X389567Y289448D01*
X389000Y289522D01*
D02*
G37*
G36*
X54000Y290556D02*
X47500D01*
X45803Y290333D01*
X44222Y289678D01*
X42864Y288636D01*
X41822Y287278D01*
X41500Y286500D01*
X54000D01*
Y290556D01*
D02*
G37*
G36*
X65500D02*
X59000D01*
Y286500D01*
X71500D01*
X71178Y287278D01*
X70136Y288636D01*
X68778Y289678D01*
X67197Y290333D01*
X65500Y290556D01*
D02*
G37*
G36*
X-16000Y283500D02*
X-27292D01*
X-27140Y282345D01*
X-25729Y278940D01*
X-23485Y276015D01*
X-20560Y273771D01*
X-17155Y272360D01*
X-16000Y272208D01*
Y283500D01*
D02*
G37*
G36*
X71500Y281500D02*
X41500D01*
X41822Y280722D01*
X42864Y279364D01*
X43163Y279135D01*
Y277865D01*
X42864Y277636D01*
X41822Y276278D01*
X41500Y275500D01*
X71500D01*
X71178Y276278D01*
X70136Y277636D01*
X69837Y277865D01*
Y279135D01*
X70136Y279364D01*
X71178Y280722D01*
X71500Y281500D01*
D02*
G37*
G36*
X384000Y289522D02*
X383433Y289448D01*
X380574Y288264D01*
X378120Y286380D01*
X376236Y283926D01*
X375052Y281067D01*
X374978Y280500D01*
X384000D01*
Y289522D01*
D02*
G37*
G36*
X105000Y352520D02*
X104498Y352454D01*
X101700Y351295D01*
X99298Y349452D01*
X97455Y347050D01*
X96296Y344252D01*
X96230Y343750D01*
X105000D01*
Y352520D01*
D02*
G37*
G36*
X110000D02*
Y343750D01*
X118770D01*
X118704Y344252D01*
X117545Y347050D01*
X115702Y349452D01*
X113300Y351295D01*
X110502Y352454D01*
X110000Y352520D01*
D02*
G37*
G36*
X176975Y353591D02*
X174600D01*
Y346500D01*
X181691D01*
Y348875D01*
X181332Y350680D01*
X180309Y352209D01*
X178780Y353232D01*
X176975Y353591D01*
D02*
G37*
G36*
X316800Y339060D02*
X310800D01*
X308973Y338820D01*
X307270Y338115D01*
X305807Y336992D01*
X304685Y335530D01*
X303980Y333827D01*
X303740Y332000D01*
Y318000D01*
X303980Y316173D01*
X304685Y314470D01*
X305807Y313008D01*
X307244Y311905D01*
Y306597D01*
X306812Y306035D01*
X306006Y304088D01*
X305731Y302000D01*
X306006Y299912D01*
X306812Y297966D01*
X308094Y296294D01*
X309765Y295012D01*
X311712Y294206D01*
X313800Y293931D01*
X315888Y294206D01*
X317834Y295012D01*
X319506Y296294D01*
X320788Y297966D01*
X321594Y299912D01*
X321869Y302000D01*
X321594Y304088D01*
X320788Y306035D01*
X320356Y306597D01*
Y311905D01*
X321792Y313008D01*
X322914Y314470D01*
X323620Y316173D01*
X323860Y318000D01*
Y332000D01*
X323620Y333827D01*
X322914Y335530D01*
X321792Y336992D01*
X320330Y338115D01*
X318627Y338820D01*
X316800Y339060D01*
D02*
G37*
G36*
X342200D02*
X336200D01*
X334373Y338820D01*
X332670Y338115D01*
X331208Y336992D01*
X330085Y335530D01*
X329380Y333827D01*
X329140Y332000D01*
Y318000D01*
X329380Y316173D01*
X330085Y314470D01*
X331208Y313008D01*
X332670Y311886D01*
X334373Y311180D01*
X336200Y310940D01*
X342200D01*
X344027Y311180D01*
X345730Y311886D01*
X347192Y313008D01*
X348314Y314470D01*
X349020Y316173D01*
X349260Y318000D01*
Y332000D01*
X349020Y333827D01*
X348314Y335530D01*
X347192Y336992D01*
X345730Y338115D01*
X344027Y338820D01*
X342200Y339060D01*
D02*
G37*
G36*
X181691Y341500D02*
X174600D01*
Y334409D01*
X176975D01*
X178780Y334768D01*
X180309Y335791D01*
X181332Y337320D01*
X181691Y339125D01*
Y341500D01*
D02*
G37*
G36*
X152500Y285328D02*
X150150Y285018D01*
X147961Y284111D01*
X146081Y282669D01*
X144639Y280789D01*
X143732Y278599D01*
X143422Y276250D01*
X143732Y273901D01*
X144639Y271711D01*
X146081Y269831D01*
X147961Y268389D01*
X150150Y267482D01*
X152500Y267172D01*
X154850Y267482D01*
X157039Y268389D01*
X158919Y269831D01*
X160361Y271711D01*
X161268Y273901D01*
X161578Y276250D01*
X161268Y278599D01*
X160361Y280789D01*
X158919Y282669D01*
X157039Y284111D01*
X154850Y285018D01*
X152500Y285328D01*
D02*
G37*
G36*
X72447Y142400D02*
X65700D01*
Y135653D01*
X67991Y136602D01*
X69976Y138125D01*
X71498Y140109D01*
X72447Y142400D01*
D02*
G37*
G36*
X29300Y196900D02*
X23702D01*
Y196645D01*
X24090Y194696D01*
X25194Y193044D01*
X26846Y191940D01*
X28795Y191552D01*
X29300D01*
Y196900D01*
D02*
G37*
G36*
X433250Y265058D02*
X416750D01*
X414988Y264826D01*
X413346Y264146D01*
X411936Y263064D01*
X410854Y261654D01*
X410174Y260012D01*
X409942Y258250D01*
Y241750D01*
X410174Y239988D01*
X410854Y238346D01*
X411936Y236936D01*
X413346Y235854D01*
X414988Y235174D01*
X416750Y234942D01*
X433250D01*
X435012Y235174D01*
X436654Y235854D01*
X438064Y236936D01*
X439146Y238346D01*
X439826Y239988D01*
X440058Y241750D01*
Y258250D01*
X439826Y260012D01*
X439146Y261654D01*
X438064Y263064D01*
X436654Y264146D01*
X435012Y264826D01*
X433250Y265058D01*
D02*
G37*
G36*
X68770Y103848D02*
X68750D01*
Y98250D01*
X73848D01*
Y98770D01*
X73461Y100713D01*
X72360Y102360D01*
X70713Y103461D01*
X68770Y103848D01*
D02*
G37*
G36*
X35500Y128747D02*
X33209Y127798D01*
X31225Y126275D01*
X29702Y124291D01*
X28753Y122000D01*
X35500D01*
Y128747D01*
D02*
G37*
G36*
X179598Y139250D02*
X174500D01*
Y133652D01*
X174520D01*
X176463Y134039D01*
X178110Y135140D01*
X179211Y136787D01*
X179598Y138730D01*
Y139250D01*
D02*
G37*
G36*
X118770Y273750D02*
X110000D01*
Y264980D01*
X110502Y265046D01*
X113300Y266205D01*
X115702Y268048D01*
X117545Y270450D01*
X118704Y273248D01*
X118770Y273750D01*
D02*
G37*
G36*
X384000Y275500D02*
X374978D01*
X375052Y274933D01*
X376236Y272074D01*
X378120Y269620D01*
X380574Y267736D01*
X383433Y266553D01*
X384000Y266478D01*
Y275500D01*
D02*
G37*
G36*
X398022D02*
X389000D01*
Y266478D01*
X389567Y266553D01*
X392426Y267736D01*
X394880Y269620D01*
X396764Y272074D01*
X397948Y274933D01*
X398022Y275500D01*
D02*
G37*
G36*
X-14000Y246727D02*
X-14698Y246635D01*
X-17678Y245400D01*
X-20237Y243437D01*
X-22200Y240878D01*
X-23435Y237898D01*
X-23527Y237200D01*
X-14000D01*
Y246727D01*
D02*
G37*
G36*
X-9000D02*
Y237200D01*
X527D01*
X435Y237898D01*
X-800Y240878D01*
X-2763Y243437D01*
X-5322Y245400D01*
X-8302Y246635D01*
X-9000Y246727D01*
D02*
G37*
G36*
X105000Y273750D02*
X96230D01*
X96296Y273248D01*
X97455Y270450D01*
X99298Y268048D01*
X101700Y266205D01*
X104498Y265046D01*
X105000Y264980D01*
Y273750D01*
D02*
G37*
%LPD*%
D10*
X106100Y-20300D02*
D03*
X90100D02*
D03*
Y-36300D02*
D03*
X106100D02*
D03*
X316000Y31500D02*
D03*
X332000D02*
D03*
X66250Y95750D02*
D03*
X50250D02*
D03*
X165000Y-19000D02*
D03*
X181000D02*
D03*
X165000Y-35000D02*
D03*
X181000D02*
D03*
X203500Y68500D02*
D03*
X187500D02*
D03*
X184948Y-3250D02*
D03*
X168948D02*
D03*
X156000Y141750D02*
D03*
X172000D02*
D03*
X31100Y181000D02*
D03*
X15100D02*
D03*
D11*
X135600Y-31600D02*
D03*
Y11400D02*
D03*
D12*
X434500Y83000D02*
D03*
Y123000D02*
D03*
D13*
X218500Y68500D02*
D03*
X237500D02*
D03*
X228000Y91500D02*
D03*
X-13400Y143500D02*
D03*
X-22900Y166500D02*
D03*
X-3900D02*
D03*
D14*
X106000Y142400D02*
D03*
Y133600D02*
D03*
X97000Y142400D02*
D03*
Y133600D02*
D03*
X74000Y400600D02*
D03*
Y409400D02*
D03*
D15*
X106000Y133943D02*
D03*
Y141943D02*
D03*
X97000D02*
D03*
Y133943D02*
D03*
D16*
X35750Y96250D02*
D03*
Y80250D02*
D03*
X196000Y-19000D02*
D03*
Y-35000D02*
D03*
D17*
X376500Y49750D02*
D03*
X416500D02*
D03*
D18*
X31800Y246400D02*
D03*
Y230400D02*
D03*
Y199400D02*
D03*
Y215400D02*
D03*
X144000Y58000D02*
D03*
Y74000D02*
D03*
X160000Y58000D02*
D03*
Y74000D02*
D03*
X75600Y-20300D02*
D03*
Y-36300D02*
D03*
D19*
X93000Y59000D02*
D03*
X77000D02*
D03*
X93000Y74000D02*
D03*
X77000D02*
D03*
X109000Y89000D02*
D03*
X93000D02*
D03*
X109000Y104000D02*
D03*
X93000D02*
D03*
X125000Y59000D02*
D03*
X109000D02*
D03*
X125000Y74000D02*
D03*
X109000D02*
D03*
X48200Y21400D02*
D03*
X64200D02*
D03*
X175000Y104000D02*
D03*
X191000D02*
D03*
X175000Y89000D02*
D03*
X191000D02*
D03*
X144000Y104000D02*
D03*
X160000D02*
D03*
X144000Y89000D02*
D03*
X160000D02*
D03*
D20*
X102200Y-4600D02*
D03*
X83200D02*
D03*
Y21400D02*
D03*
X92700D02*
D03*
X102200D02*
D03*
D21*
X56500Y196000D02*
D03*
Y207000D02*
D03*
Y218000D02*
D03*
Y229000D02*
D03*
Y240000D02*
D03*
Y251000D02*
D03*
Y262000D02*
D03*
Y273000D02*
D03*
Y284000D02*
D03*
X223500D02*
D03*
Y273000D02*
D03*
Y262000D02*
D03*
Y251000D02*
D03*
Y240000D02*
D03*
Y229000D02*
D03*
Y218000D02*
D03*
Y207000D02*
D03*
Y196000D02*
D03*
D22*
X206000Y314000D02*
D03*
X195000D02*
D03*
X184000D02*
D03*
X173000D02*
D03*
X162000D02*
D03*
X151000D02*
D03*
X140000D02*
D03*
X129000D02*
D03*
X118000D02*
D03*
X107000D02*
D03*
X96000D02*
D03*
X85000D02*
D03*
X74000D02*
D03*
Y166000D02*
D03*
X85000D02*
D03*
X96000D02*
D03*
X107000D02*
D03*
X118000D02*
D03*
X129000D02*
D03*
X140000D02*
D03*
X151000D02*
D03*
X162000D02*
D03*
X173000D02*
D03*
X184000D02*
D03*
X195000D02*
D03*
X206000D02*
D03*
D23*
X313800Y325000D02*
D03*
X364600D02*
D03*
Y73000D02*
D03*
X339200D02*
D03*
X313800D02*
D03*
X339200Y325000D02*
D03*
D24*
X74000Y335000D02*
D03*
D25*
X89000Y350000D02*
D03*
X59000D02*
D03*
D26*
X115000Y360000D02*
D03*
D27*
X114000Y410000D02*
D03*
D28*
X85000Y430000D02*
D03*
Y365022D02*
D03*
D29*
X192700Y8000D02*
D03*
X169700Y-1500D02*
D03*
Y17500D02*
D03*
D30*
X30500Y160900D02*
D03*
X12500D02*
D03*
D31*
X135600Y11400D02*
X135900Y11100D01*
Y-8400D02*
Y11100D01*
X136600Y-9100D02*
X155100D01*
X135900Y-8400D02*
X136600Y-9100D01*
X155100D02*
X165000Y-19000D01*
X52100Y-2100D02*
X64200Y10000D01*
Y21400D01*
X65500Y-14100D02*
X70100Y-9500D01*
X52100Y-27500D02*
X65500Y-14100D01*
Y-31900D02*
X69900Y-36300D01*
X61100Y-27500D02*
X65500Y-31900D01*
Y-14100D02*
X65600Y-14000D01*
X65500Y-31900D02*
Y-14100D01*
X69900Y-36300D02*
X75600D01*
X52100Y-27500D02*
X61100D01*
X70100Y-9500D02*
Y1500D01*
X76700Y8100D01*
X86900D01*
X92700Y13900D01*
Y21400D01*
X94700Y-1100D02*
Y2700D01*
X102200Y10200D01*
X91200Y-4600D02*
X94700Y-1100D01*
X83200Y-4600D02*
X91200D01*
X102200Y22900D02*
X124100D01*
X102200Y10200D02*
Y21400D01*
X75600Y-20300D02*
X75800Y-20100D01*
X83200D01*
X83400Y-20300D02*
X90100D01*
X83200Y-20100D02*
X83400Y-20300D01*
X83200Y-20100D02*
Y-4600D01*
X102200Y-16400D02*
Y-4600D01*
Y-16400D02*
X106100Y-20300D01*
Y-36300D02*
Y-20300D01*
X64200Y21400D02*
X83200D01*
X48199Y21499D02*
Y28399D01*
X51800Y32000D01*
X89700D01*
X92700Y29000D01*
X35750Y70519D02*
X67019Y39250D01*
X88521D01*
X93850D02*
X102200Y30900D01*
X91479Y39250D02*
X93850D01*
X91429Y39300D02*
X91479Y39250D01*
X88571Y39300D02*
X91429D01*
X88521Y39250D02*
X88571Y39300D01*
X79600Y46885D02*
X166334D01*
X77000Y49485D02*
X79600Y46885D01*
X92700Y22900D02*
Y29000D01*
X35750Y70519D02*
Y80250D01*
X102200Y22900D02*
Y30900D01*
X124100Y22900D02*
X135600Y11400D01*
X5791Y82300D02*
X21791Y66300D01*
X-19000Y82300D02*
X5791D01*
X-29100Y92400D02*
X-19000Y82300D01*
X-34300Y132400D02*
X-29100Y127200D01*
Y92400D02*
Y127200D01*
X-34300Y132400D02*
Y180650D01*
X-22850Y192100D01*
X-11500D01*
X-217Y154169D02*
X6514Y160900D01*
X12500D01*
X-22400Y135700D02*
Y151000D01*
Y135700D02*
X21000Y92300D01*
X27496Y80251D02*
X35749D01*
X21000Y86747D02*
X27496Y80251D01*
X21000Y86747D02*
Y92300D01*
X-22400Y151000D02*
X-7500Y165900D01*
X-4500D01*
X-3900Y166500D01*
X-22900D02*
Y178000D01*
X-11500Y192100D02*
X-100Y180700D01*
X-11500Y192100D02*
Y209300D01*
X106000Y165000D02*
X107000Y166000D01*
X106000Y142400D02*
Y165000D01*
X434500Y83000D02*
X440750Y76750D01*
Y54700D02*
Y76750D01*
X376500Y49750D02*
X383500Y56750D01*
X396500D01*
Y42750D02*
X409500D01*
X416500Y49750D01*
X335875Y31500D02*
Y36875D01*
X332000Y31500D02*
X335875D01*
Y36875D02*
X349500Y50500D01*
X312680Y31500D02*
X316000D01*
X310873Y33307D02*
X312680Y31500D01*
X310873Y33307D02*
Y38127D01*
X298500Y50500D02*
X310873Y38127D01*
X349500Y50500D02*
X350250Y49750D01*
X376500D01*
X411750Y83000D02*
X430750D01*
X430749Y103001D02*
X430750Y103003D01*
Y123000D01*
X169700Y17500D02*
Y37750D01*
X75735Y50750D02*
X77000Y49485D01*
X43250Y95750D02*
X50250D01*
X36250D02*
X43250D01*
Y103250D01*
X35750Y96250D02*
X36250Y95750D01*
X43250Y103250D02*
X51200Y111200D01*
X65500Y59000D02*
Y74000D01*
X77000D01*
X65500Y59000D02*
X77000D01*
Y49485D02*
Y59000D01*
X203500Y68500D02*
X218500D01*
X213000Y50500D02*
X214850D01*
X228000Y63650D01*
Y91500D01*
X71292Y184006D02*
X105706D01*
X51200Y163914D02*
X71292Y184006D01*
X51200Y111200D02*
Y163914D01*
X105706Y184006D02*
X194700Y273000D01*
X293249Y72656D02*
X299237D01*
X228733Y109270D02*
X234903Y103100D01*
X227735Y109270D02*
X228733D01*
X78737Y284000D02*
X85000Y290263D01*
Y314000D01*
X78737Y284000D02*
X83465D01*
X76574Y273000D02*
X77500Y272074D01*
X56500Y273000D02*
X76574D01*
X93150Y240000D02*
Y249650D01*
Y226100D02*
Y240000D01*
X84250D02*
Y250250D01*
Y229000D02*
Y240000D01*
X93150D02*
X98700D01*
X84250D02*
X93150D01*
X56500D02*
X84250D01*
X98700D02*
X101500Y237200D01*
X93150Y249650D02*
X103000Y259500D01*
X89000Y245500D02*
X93150Y249650D01*
Y226100D02*
X103600D01*
X90302D02*
X93150D01*
Y223050D02*
Y226100D01*
Y223050D02*
X96500Y219700D01*
X84250Y229000D02*
X87402D01*
X56500D02*
X84250D01*
Y211162D02*
Y229000D01*
X83088Y210000D02*
X84250Y211162D01*
X81311Y250250D02*
X84250D01*
X89000Y245500D01*
X103000Y259500D02*
Y273437D01*
X104563Y275000D01*
X105585D01*
X122000Y258585D01*
Y244500D02*
Y258585D01*
X103600Y226100D02*
X122000Y244500D01*
X87402Y229000D02*
X90302Y226100D01*
X162000Y290272D02*
X185587D01*
X140000Y235000D02*
Y251372D01*
X214728Y298316D02*
X216712Y300299D01*
Y303917D01*
X217896Y305101D01*
Y309939D01*
X219406Y311448D01*
X220884D01*
X231775Y300558D01*
Y298069D02*
Y300558D01*
X229767Y296061D02*
X231775Y298069D01*
X191377Y296061D02*
X229767D01*
X185587Y290272D02*
X191377Y296061D01*
X162000Y290272D02*
Y314000D01*
X203717Y284000D02*
X223500D01*
X364600Y73000D02*
Y83934D01*
X316800Y131735D02*
X364600Y83934D01*
X316800Y131735D02*
Y144510D01*
X265310Y196000D02*
X316800Y144510D01*
X223500Y196000D02*
X265310D01*
X144000Y58000D02*
X160000D01*
X191000Y89000D02*
Y104000D01*
X125000Y59000D02*
Y74000D01*
X77000Y59000D02*
Y74000D01*
X429477Y224556D02*
X437270D01*
X416329D02*
X429477D01*
X442500Y237579D01*
Y242500D01*
X407500Y177500D02*
Y228988D01*
Y174391D02*
Y177500D01*
X430817Y177855D02*
X439322Y169350D01*
X430247Y178425D02*
X430817Y177855D01*
X429505Y176544D02*
X438601Y185640D01*
X442500Y147364D02*
Y160032D01*
X439322Y163210D02*
X442500Y160032D01*
X439322Y163210D02*
Y169350D01*
X427934Y178425D02*
X430247D01*
X420227Y186133D02*
X427934Y178425D01*
X416133Y186133D02*
X420227D01*
X407500Y177500D02*
X416133Y186133D01*
X407500Y177500D02*
X408456Y176544D01*
X429505D01*
X438601Y185640D02*
Y186318D01*
X440250Y187967D01*
Y205364D01*
X437532Y208082D02*
X440250Y205364D01*
X437532Y208082D02*
Y224293D01*
X437270Y224556D02*
X437532Y224293D01*
X407500Y174391D02*
X407500Y174391D01*
X288515Y12000D02*
X296822D01*
X280042D02*
X288515D01*
X296822D02*
X302433Y6389D01*
X278000Y9958D02*
X280042Y12000D01*
X278000Y4250D02*
Y9958D01*
Y4250D02*
X284964Y-2714D01*
X166334Y46885D02*
X167200Y47750D01*
X125700Y89766D02*
X126287Y89179D01*
X125700Y89766D02*
Y106100D01*
X72703Y137209D02*
X79628Y144134D01*
X72703Y133203D02*
Y137209D01*
Y133203D02*
X77000D01*
X83294Y139497D01*
Y145200D01*
X77500Y103500D02*
X78436Y102563D01*
Y92430D02*
Y102563D01*
X1525Y56500D02*
X2697Y57672D01*
X-23312Y56500D02*
X1525D01*
X115000Y360022D02*
X132000D01*
X115000Y356250D02*
Y360000D01*
Y355045D02*
Y356250D01*
Y360000D01*
Y355045D02*
Y356250D01*
Y360000D01*
Y355045D02*
Y356250D01*
Y360000D01*
Y355045D02*
Y356250D01*
X124000Y355045D02*
X144000D01*
X115000D02*
X124000D01*
X231111D02*
X324000D01*
X144000D02*
X231111D01*
X339000D02*
X344000D01*
X329000D02*
X339000D01*
X324000D02*
X329000D01*
X124000D02*
X144000D01*
X324000Y365000D02*
Y440000D01*
Y360022D02*
Y365000D01*
Y355045D02*
Y360022D01*
Y365000D01*
Y355045D02*
Y360022D01*
X194700Y273000D02*
X223500D01*
X106000Y133600D02*
Y133943D01*
Y127700D02*
Y133600D01*
Y141943D02*
Y142400D01*
Y133943D02*
Y141943D01*
X97000Y142400D02*
Y165000D01*
Y141943D02*
Y142400D01*
Y133600D02*
Y133943D01*
Y127700D02*
Y133600D01*
X96000Y166000D02*
X97000Y165000D01*
Y133943D02*
Y141943D01*
X74000Y314000D02*
Y400000D01*
X0D02*
X74000D01*
X124000Y410000D02*
Y410000D01*
Y390000D02*
Y410000D01*
X114000D02*
X124000D01*
X74000D02*
X114000D01*
X124000D02*
X124000Y410000D01*
X213572Y334000D02*
X245000Y302572D01*
X206250Y334000D02*
X213572D01*
X198500Y341750D02*
X206250Y334000D01*
X173100Y166100D02*
Y237600D01*
X173000Y166000D02*
X173100Y166100D01*
X261500Y218500D02*
X265000Y222000D01*
X261479Y218500D02*
X261500D01*
X260979Y218000D02*
X261479Y218500D01*
X223500Y218000D02*
X260979D01*
X241373Y229000D02*
X253000Y240627D01*
X223500Y229000D02*
X241373D01*
X239500Y240000D02*
X245000Y245500D01*
X223500Y240000D02*
X239500D01*
X245000Y245500D02*
Y302572D01*
X253000Y240627D02*
Y312650D01*
X364600Y295600D02*
Y325000D01*
X279000Y210000D02*
X364600Y295600D01*
X265000Y210000D02*
X279000D01*
X303000Y125000D02*
Y137700D01*
X258241Y182460D02*
X303000Y137700D01*
X240469Y182969D02*
X291000Y132438D01*
Y119600D02*
Y132438D01*
X223700Y183000D02*
X279000Y127700D01*
X306301Y108000D02*
X313800Y115499D01*
X259000Y108000D02*
X306301D01*
X224000Y143000D02*
X259000Y108000D01*
X212200Y143000D02*
X224000D01*
X329900Y100600D02*
X339200Y91300D01*
X255001Y100600D02*
X329900D01*
X221901Y133700D02*
X255001Y100600D01*
X209700Y133700D02*
X221901D01*
X56500Y207000D02*
Y218000D01*
Y196000D02*
Y207000D01*
X169700Y17500D02*
X177700D01*
X181000Y14200D01*
Y-19000D02*
Y14200D01*
Y-19000D02*
X196000D01*
X187500Y35200D02*
Y50500D01*
Y35200D02*
X192700Y30000D01*
Y8000D02*
Y30000D01*
Y8000D02*
X203000D01*
X209000Y2000D01*
Y-30700D02*
Y2000D01*
X204700Y-35000D02*
X209000Y-30700D01*
X196000Y-35000D02*
X204700D01*
X181000D02*
X196000D01*
X165000D02*
Y-19000D01*
X140000Y193000D02*
X140000Y193000D01*
X140000Y166000D02*
Y193000D01*
X313800Y302000D02*
Y325000D01*
X223500Y218000D02*
X223500Y218000D01*
X223900Y341750D02*
X253000Y312650D01*
X206000Y149200D02*
X212200Y143000D01*
X206000Y149200D02*
Y166000D01*
X195000Y148400D02*
X209700Y133700D01*
X313800Y73000D02*
Y92000D01*
X339200Y73000D02*
Y91300D01*
X195000Y148400D02*
Y166000D01*
X339000Y355045D02*
Y440000D01*
X334000D02*
X339000D01*
X334000Y355045D02*
Y440000D01*
X344000Y355045D02*
Y440000D01*
X324000D02*
X344000D01*
X329000Y355045D02*
Y440000D01*
X114000Y430000D02*
X284000D01*
Y420000D02*
Y430000D01*
X104000Y420000D02*
X284000D01*
X104000D02*
Y440000D01*
X284000Y390100D02*
Y410000D01*
X264000D02*
X284000D01*
X264000Y390100D02*
Y410000D01*
X244000Y390100D02*
X264000D01*
X244000D02*
Y410000D01*
X224000D02*
X244000D01*
X224000Y390100D02*
Y410000D01*
X204000Y390100D02*
X224000D01*
X204000D02*
Y410000D01*
X184000D02*
X204000D01*
X184000Y390100D02*
Y410000D01*
X164000Y390100D02*
X184000D01*
X164000D02*
Y410000D01*
X144000D02*
X164000D01*
X144000Y390000D02*
Y410000D01*
X124000Y390000D02*
X144000D01*
X284000Y390100D02*
X299000D01*
Y440000D01*
X104000D02*
X299000D01*
X115000Y360000D02*
Y360022D01*
Y360045D01*
Y360000D02*
Y360022D01*
Y360045D01*
Y365000D01*
Y365045D01*
Y360000D02*
Y360022D01*
Y360045D01*
Y365000D01*
Y365045D01*
Y360000D02*
Y360022D01*
Y360045D01*
Y365000D01*
X132000Y360022D02*
X162000D01*
X324000D01*
X115000Y365000D02*
X119716D01*
X324000D01*
X88800Y119500D02*
X97000Y127700D01*
X88800Y119500D02*
X93000Y115300D01*
Y104000D02*
Y115300D01*
Y89000D02*
Y104000D01*
Y59000D02*
X93000Y59000D01*
X93000Y59000D02*
Y89000D01*
X109000Y60000D02*
X110000Y59000D01*
X109000Y60000D02*
Y89000D01*
Y104000D01*
Y114300D01*
X114200Y119500D01*
X106000Y127700D02*
X114200Y119500D01*
X129000Y146600D02*
Y166000D01*
Y146600D02*
X156000Y119600D01*
X164900D01*
Y108900D02*
Y119600D01*
X160000Y104000D02*
X164900Y108900D01*
X160000Y104000D02*
X175000D01*
Y89000D02*
Y104000D01*
X160000Y89000D02*
X175000D01*
X160000D02*
Y104000D01*
X118000Y141100D02*
Y166000D01*
Y141100D02*
X139500Y119600D01*
X144000Y115100D01*
Y104000D02*
Y115100D01*
Y89000D02*
Y104000D01*
Y74000D02*
Y89000D01*
Y74000D02*
X160000D01*
X140000Y148443D02*
Y166000D01*
Y148443D02*
X147243Y141200D01*
X155400D01*
X107000Y296000D02*
Y314000D01*
X118000Y289500D02*
Y314000D01*
X184000Y166000D02*
Y210500D01*
X204500Y231000D01*
Y263000D01*
X173100Y237600D02*
X184250Y248750D01*
X195750D01*
X95997Y296294D02*
Y313997D01*
X96000Y314000D01*
X238500Y50500D02*
Y69750D01*
X187500Y50500D02*
X203500Y66500D01*
X-100Y180700D02*
X14800D01*
X15100Y181000D01*
X34400Y218000D02*
X56500D01*
X31800Y215400D02*
X34400Y218000D01*
X31800Y215400D02*
Y230400D01*
X38200Y240000D02*
X56500D01*
X31800Y246400D02*
X38200Y240000D01*
X37550Y273000D02*
X56500D01*
X36550Y274000D02*
X37550Y273000D01*
X37074Y284000D02*
X56500D01*
X37000Y283926D02*
X37074Y284000D01*
X11900Y311400D02*
X26868Y296432D01*
Y272568D02*
Y296432D01*
X21000Y266700D02*
X26868Y272568D01*
X21000Y241200D02*
Y266700D01*
Y241200D02*
X31800Y230400D01*
X54200Y196000D02*
X56500Y196000D01*
X31600Y163800D02*
Y181000D01*
Y182698D01*
X29902Y181000D02*
X30501Y181599D01*
X31600Y182698D01*
X39200Y181000D02*
X44000Y185800D01*
X54200Y196000D01*
X29902Y181000D02*
X31600D01*
X39200D01*
X56500Y284000D02*
X78737D01*
D32*
X-12000Y146900D02*
X-10000Y144900D01*
X37800D01*
X105300Y199500D02*
X130800Y225000D01*
X104500Y199500D02*
X105300D01*
X87500Y199998D02*
X129000Y241498D01*
Y314000D01*
X-10200Y99800D02*
X-7100D01*
D33*
X434450Y-27500D02*
X437500Y-24450D01*
X238500Y36122D02*
X266000Y8622D01*
X58728Y305464D02*
Y386214D01*
Y304008D02*
Y305464D01*
X377250Y352502D02*
X389676D01*
X253002D02*
X377250D01*
Y355250D01*
Y345958D02*
Y352502D01*
X395530Y295012D02*
X398736D01*
X386500Y304042D02*
X395530Y295012D01*
X386500Y304042D02*
Y336708D01*
X377250Y345958D02*
X386500Y336708D01*
X288515Y12000D02*
Y24953D01*
Y2984D02*
Y12000D01*
X12660Y44471D02*
X32450Y24681D01*
X-35000Y198426D02*
Y237947D01*
X-36450Y239397D02*
X-35000Y237947D01*
X-36450Y239397D02*
Y250250D01*
X-35700Y251000D01*
X-18015D01*
X-12014Y257000D01*
X-7500D01*
X10096Y239403D01*
Y237990D02*
Y239403D01*
X-18300Y432500D02*
X76118D01*
X11558Y422500D02*
X18844Y415213D01*
X57268D01*
X-35000Y415800D02*
X-18300Y432500D01*
X-35000Y351249D02*
Y415800D01*
X-25400Y374600D02*
X38012D01*
X43412Y306609D02*
Y380000D01*
X40000Y301237D02*
Y320000D01*
X39200Y320800D02*
X40000Y320000D01*
X39200Y320800D02*
Y354250D01*
X35494Y350544D02*
X39200Y354250D01*
X38012Y374600D02*
X43412Y380000D01*
Y306609D02*
X51642Y298378D01*
X58728Y305464D01*
X105250Y356250D02*
X115000D01*
X99000Y347588D02*
X109088Y337500D01*
X99000Y347588D02*
Y350000D01*
X105250Y356250D01*
X275000Y320000D02*
X289201D01*
X269500D02*
X275000D01*
Y335763D01*
Y256640D02*
Y320000D01*
X389676Y352502D02*
X402500Y339678D01*
X386928Y355250D02*
X389676Y352502D01*
X337791Y298316D02*
X340119D01*
X288275Y248800D02*
X337791Y298316D01*
X282840Y248800D02*
X288275D01*
X275000Y256640D02*
X282840Y248800D01*
X275000Y335763D02*
X289797D01*
Y320597D02*
Y335763D01*
X289201Y320000D02*
X289797Y320597D01*
X245000Y344500D02*
X269500Y320000D01*
X245000Y344500D02*
X253002Y352502D01*
X367776Y435000D02*
X413633D01*
X337737Y204322D02*
X391013Y151046D01*
X350000Y229326D02*
X352174Y231500D01*
X367237D01*
X370661Y228076D01*
Y208388D02*
Y228076D01*
X363140Y200867D02*
X370661Y208388D01*
X366169Y249912D02*
X381912D01*
X410000Y278000D01*
Y292923D01*
X402500Y300423D02*
X410000Y292923D01*
X402500Y300423D02*
Y339678D01*
X377250Y355250D02*
X386928D01*
X355000Y377500D02*
X377250Y355250D01*
X355000Y377500D02*
Y422224D01*
X367776Y435000D01*
X413633D02*
X414507Y435874D01*
X435000D01*
X391013Y151046D02*
Y245925D01*
X316800Y190912D02*
X394880Y112831D01*
X307556Y204322D02*
X337737D01*
X421647Y-39250D02*
X435658Y-25239D01*
X374748Y-39250D02*
X421647D01*
X32450Y4816D02*
Y24681D01*
X-21499Y44471D02*
X12660D01*
X36016Y-29131D02*
Y-18645D01*
X27647Y-37500D02*
X36016Y-29131D01*
X266000Y-11000D02*
Y8622D01*
X238500Y36122D02*
Y50500D01*
X213000Y29000D02*
Y50500D01*
Y29000D02*
X231000Y11000D01*
Y-11000D02*
Y11000D01*
X58728Y304008D02*
X78737Y284000D01*
D34*
X52100Y-2100D02*
D03*
Y-27500D02*
D03*
X-11500Y234700D02*
D03*
Y209300D02*
D03*
X440750Y54700D02*
D03*
Y29300D02*
D03*
X11900Y311400D02*
D03*
X-13500D02*
D03*
X11900Y286000D02*
D03*
D35*
X301000Y-11000D02*
D03*
X336000D02*
D03*
X231000D02*
D03*
X266000D02*
D03*
X-10200Y99800D02*
D03*
Y64800D02*
D03*
D36*
X63200Y144900D02*
D03*
X37800D02*
D03*
X63400Y119500D02*
D03*
X38000D02*
D03*
X12600D02*
D03*
X164900Y119600D02*
D03*
X139500D02*
D03*
X197500Y344000D02*
D03*
X222900D02*
D03*
X215500Y119500D02*
D03*
X114200Y119500D02*
D03*
D37*
X172100Y344000D02*
D03*
X88800Y119500D02*
D03*
D38*
X349500Y50500D02*
D03*
X187500D02*
D03*
D39*
X324000D02*
D03*
X298500D02*
D03*
X213000D02*
D03*
X238500D02*
D03*
D40*
X400000Y0D02*
D03*
Y400000D02*
D03*
X0Y0D02*
D03*
D41*
X386500Y278000D02*
D03*
X266500Y120000D02*
D03*
D42*
X190500Y119500D02*
D03*
D43*
X425000Y250000D02*
D03*
D44*
Y200000D02*
D03*
Y150000D02*
D03*
X-13500Y286000D02*
D03*
Y336000D02*
D03*
D45*
X-25400Y425400D02*
D03*
X0Y400000D02*
D03*
X25400Y425400D02*
D03*
Y374600D02*
D03*
X-25400D02*
D03*
D46*
X152500Y341250D02*
D03*
X107500D02*
D03*
Y276250D02*
D03*
D47*
X152500D02*
D03*
D48*
X135900Y-8400D02*
D03*
X56500Y31700D02*
D03*
X21791Y66300D02*
D03*
X-22900Y178000D02*
D03*
X396500Y56750D02*
D03*
Y42750D02*
D03*
X400750Y100500D02*
D03*
X393750Y355000D02*
D03*
X390250Y340500D02*
D03*
X410854Y274750D02*
D03*
X359500Y365250D02*
D03*
X398500Y330331D02*
D03*
X360250Y350000D02*
D03*
X430750Y103003D02*
D03*
X411750Y83000D02*
D03*
X284000Y20000D02*
D03*
X169700Y37750D02*
D03*
X257000Y50250D02*
D03*
X443750Y8500D02*
D03*
X379066Y108750D02*
D03*
X78500Y95750D02*
D03*
X77000Y106000D02*
D03*
X65500Y59000D02*
D03*
X118704Y252500D02*
D03*
X194209Y134670D02*
D03*
X183500Y134500D02*
D03*
X134074Y59253D02*
D03*
X380000Y-35000D02*
D03*
X420000D02*
D03*
X440000D02*
D03*
Y-15000D02*
D03*
X351250Y-32750D02*
D03*
X283404Y63335D02*
D03*
X297294Y74399D02*
D03*
X268500Y54000D02*
D03*
X231818Y106185D02*
D03*
X12600Y230652D02*
D03*
X11724Y241498D02*
D03*
X43412Y306609D02*
D03*
Y320000D02*
D03*
X57121Y320633D02*
D03*
X60826Y300000D02*
D03*
X231775Y298069D02*
D03*
X219406Y311448D02*
D03*
X218972Y296294D02*
D03*
X85923Y224717D02*
D03*
X93150Y240000D02*
D03*
X84250Y250250D02*
D03*
X299000Y250000D02*
D03*
X276912D02*
D03*
X409577Y352502D02*
D03*
X377250D02*
D03*
X288831Y333827D02*
D03*
X272250Y320000D02*
D03*
X274734Y283926D02*
D03*
X292402Y285000D02*
D03*
X322385Y280500D02*
D03*
X340119Y298316D02*
D03*
X396764Y251675D02*
D03*
X376500Y249042D02*
D03*
X355000Y252000D02*
D03*
X357694Y233069D02*
D03*
X332500Y231506D02*
D03*
X369427Y218500D02*
D03*
X356608Y205206D02*
D03*
X335000Y204322D02*
D03*
X307556D02*
D03*
X325898Y178425D02*
D03*
X402500Y142400D02*
D03*
X377711Y161636D02*
D03*
Y130000D02*
D03*
X362548Y141200D02*
D03*
X284000Y4500D02*
D03*
X249035Y4743D02*
D03*
X300000Y-40000D02*
D03*
X266001Y-39999D02*
D03*
X230000Y-40000D02*
D03*
X155000Y47750D02*
D03*
X145000D02*
D03*
X135000D02*
D03*
X125000D02*
D03*
X115000D02*
D03*
X105000D02*
D03*
X95000D02*
D03*
X85000D02*
D03*
X65500Y74000D02*
D03*
X130000Y100000D02*
D03*
Y90000D02*
D03*
X116800Y-41100D02*
D03*
X8700Y-41000D02*
D03*
X63100Y-40600D02*
D03*
X37114Y-39636D02*
D03*
X20000Y-40000D02*
D03*
X-40000Y20000D02*
D03*
Y40000D02*
D03*
Y60000D02*
D03*
Y80000D02*
D03*
Y100000D02*
D03*
Y120000D02*
D03*
Y200000D02*
D03*
Y220000D02*
D03*
Y240000D02*
D03*
Y300000D02*
D03*
Y360000D02*
D03*
Y400000D02*
D03*
X0Y436000D02*
D03*
X360000Y123250D02*
D03*
X442000Y141750D02*
D03*
X440000Y180000D02*
D03*
Y220000D02*
D03*
X388000Y318000D02*
D03*
X440000Y380000D02*
D03*
Y420000D02*
D03*
Y436000D02*
D03*
X420000D02*
D03*
X380000D02*
D03*
X360000D02*
D03*
X70000Y420000D02*
D03*
Y436000D02*
D03*
X50000D02*
D03*
Y420000D02*
D03*
Y380000D02*
D03*
Y360000D02*
D03*
X100000D02*
D03*
X120000D02*
D03*
X140000D02*
D03*
X160000D02*
D03*
X180000D02*
D03*
X200000D02*
D03*
X220000D02*
D03*
X240000D02*
D03*
X260000D02*
D03*
X280000D02*
D03*
X300000D02*
D03*
X320000D02*
D03*
X340000D02*
D03*
Y380000D02*
D03*
Y400000D02*
D03*
Y420000D02*
D03*
Y436000D02*
D03*
X130800Y225000D02*
D03*
X104500Y199500D02*
D03*
X87500Y199998D02*
D03*
X203717Y284000D02*
D03*
X265000Y222000D02*
D03*
X321000Y252000D02*
D03*
X265000Y196000D02*
D03*
Y210000D02*
D03*
X223700Y183000D02*
D03*
X240469Y182969D02*
D03*
X258241Y182460D02*
D03*
X303000Y125000D02*
D03*
X291000Y119600D02*
D03*
X279000Y127700D02*
D03*
X140000Y193000D02*
D03*
X313800Y302000D02*
D03*
Y115499D02*
D03*
Y92000D02*
D03*
X107000Y296000D02*
D03*
X118000Y289500D02*
D03*
X73998Y290272D02*
D03*
X140000Y235000D02*
D03*
X204500Y263000D02*
D03*
X195750Y248750D02*
D03*
X139500Y265500D02*
D03*
X95997Y296294D02*
D03*
X3867Y265750D02*
D03*
X15100Y199400D02*
D03*
X37000Y283926D02*
D03*
X36550Y274000D02*
D03*
X-26400Y72400D02*
D03*
X-217Y154169D02*
D03*
X43800Y186000D02*
D03*
M02*
