%FSLAX44Y44*%
%MOMM*%
G71*
G01*
G75*
G04 Layer_Color=65535*
G04:AMPARAMS|DCode=10|XSize=1mm|YSize=0.95mm|CornerRadius=0.1995mm|HoleSize=0mm|Usage=FLASHONLY|Rotation=90.000|XOffset=0mm|YOffset=0mm|HoleType=Round|Shape=RoundedRectangle|*
%AMROUNDEDRECTD10*
21,1,1.0000,0.5510,0,0,90.0*
21,1,0.6010,0.9500,0,0,90.0*
1,1,0.3990,0.2755,0.3005*
1,1,0.3990,0.2755,-0.3005*
1,1,0.3990,-0.2755,-0.3005*
1,1,0.3990,-0.2755,0.3005*
%
%ADD10ROUNDEDRECTD10*%
G04:AMPARAMS|DCode=11|XSize=1.05mm|YSize=0.65mm|CornerRadius=0.2015mm|HoleSize=0mm|Usage=FLASHONLY|Rotation=0.000|XOffset=0mm|YOffset=0mm|HoleType=Round|Shape=RoundedRectangle|*
%AMROUNDEDRECTD11*
21,1,1.0500,0.2470,0,0,0.0*
21,1,0.6470,0.6500,0,0,0.0*
1,1,0.4030,0.3235,-0.1235*
1,1,0.4030,-0.3235,-0.1235*
1,1,0.4030,-0.3235,0.1235*
1,1,0.4030,0.3235,0.1235*
%
%ADD11ROUNDEDRECTD11*%
G04:AMPARAMS|DCode=12|XSize=1mm|YSize=0.9mm|CornerRadius=0.198mm|HoleSize=0mm|Usage=FLASHONLY|Rotation=270.000|XOffset=0mm|YOffset=0mm|HoleType=Round|Shape=RoundedRectangle|*
%AMROUNDEDRECTD12*
21,1,1.0000,0.5040,0,0,270.0*
21,1,0.6040,0.9000,0,0,270.0*
1,1,0.3960,-0.2520,-0.3020*
1,1,0.3960,-0.2520,0.3020*
1,1,0.3960,0.2520,0.3020*
1,1,0.3960,0.2520,-0.3020*
%
%ADD12ROUNDEDRECTD12*%
G04:AMPARAMS|DCode=13|XSize=1.45mm|YSize=1.15mm|CornerRadius=0.2013mm|HoleSize=0mm|Usage=FLASHONLY|Rotation=270.000|XOffset=0mm|YOffset=0mm|HoleType=Round|Shape=RoundedRectangle|*
%AMROUNDEDRECTD13*
21,1,1.4500,0.7475,0,0,270.0*
21,1,1.0475,1.1500,0,0,270.0*
1,1,0.4025,-0.3738,-0.5238*
1,1,0.4025,-0.3738,0.5238*
1,1,0.4025,0.3738,0.5238*
1,1,0.4025,0.3738,-0.5238*
%
%ADD13ROUNDEDRECTD13*%
G04:AMPARAMS|DCode=14|XSize=2.5mm|YSize=2mm|CornerRadius=0.25mm|HoleSize=0mm|Usage=FLASHONLY|Rotation=270.000|XOffset=0mm|YOffset=0mm|HoleType=Round|Shape=RoundedRectangle|*
%AMROUNDEDRECTD14*
21,1,2.5000,1.5000,0,0,270.0*
21,1,2.0000,2.0000,0,0,270.0*
1,1,0.5000,-0.7500,-1.0000*
1,1,0.5000,-0.7500,1.0000*
1,1,0.5000,0.7500,1.0000*
1,1,0.5000,0.7500,-1.0000*
%
%ADD14ROUNDEDRECTD14*%
G04:AMPARAMS|DCode=15|XSize=1mm|YSize=0.9mm|CornerRadius=0.198mm|HoleSize=0mm|Usage=FLASHONLY|Rotation=0.000|XOffset=0mm|YOffset=0mm|HoleType=Round|Shape=RoundedRectangle|*
%AMROUNDEDRECTD15*
21,1,1.0000,0.5040,0,0,0.0*
21,1,0.6040,0.9000,0,0,0.0*
1,1,0.3960,0.3020,-0.2520*
1,1,0.3960,-0.3020,-0.2520*
1,1,0.3960,-0.3020,0.2520*
1,1,0.3960,0.3020,0.2520*
%
%ADD15ROUNDEDRECTD15*%
%ADD16O,0.5000X2.5000*%
%ADD17O,2.5000X0.5000*%
G04:AMPARAMS|DCode=18|XSize=0.7mm|YSize=1.5mm|CornerRadius=0.175mm|HoleSize=0mm|Usage=FLASHONLY|Rotation=180.000|XOffset=0mm|YOffset=0mm|HoleType=Round|Shape=RoundedRectangle|*
%AMROUNDEDRECTD18*
21,1,0.7000,1.1500,0,0,180.0*
21,1,0.3500,1.5000,0,0,180.0*
1,1,0.3500,-0.1750,0.5750*
1,1,0.3500,0.1750,0.5750*
1,1,0.3500,0.1750,-0.5750*
1,1,0.3500,-0.1750,-0.5750*
%
%ADD18ROUNDEDRECTD18*%
G04:AMPARAMS|DCode=19|XSize=0.8mm|YSize=2mm|CornerRadius=0.2mm|HoleSize=0mm|Usage=FLASHONLY|Rotation=0.000|XOffset=0mm|YOffset=0mm|HoleType=Round|Shape=RoundedRectangle|*
%AMROUNDEDRECTD19*
21,1,0.8000,1.6000,0,0,0.0*
21,1,0.4000,2.0000,0,0,0.0*
1,1,0.4000,0.2000,-0.8000*
1,1,0.4000,-0.2000,-0.8000*
1,1,0.4000,-0.2000,0.8000*
1,1,0.4000,0.2000,0.8000*
%
%ADD19ROUNDEDRECTD19*%
G04:AMPARAMS|DCode=20|XSize=0.7mm|YSize=1mm|CornerRadius=0.175mm|HoleSize=0mm|Usage=FLASHONLY|Rotation=180.000|XOffset=0mm|YOffset=0mm|HoleType=Round|Shape=RoundedRectangle|*
%AMROUNDEDRECTD20*
21,1,0.7000,0.6500,0,0,180.0*
21,1,0.3500,1.0000,0,0,180.0*
1,1,0.3500,-0.1750,0.3250*
1,1,0.3500,0.1750,0.3250*
1,1,0.3500,0.1750,-0.3250*
1,1,0.3500,-0.1750,-0.3250*
%
%ADD20ROUNDEDRECTD20*%
G04:AMPARAMS|DCode=21|XSize=1.2mm|YSize=2mm|CornerRadius=0.3mm|HoleSize=0mm|Usage=FLASHONLY|Rotation=180.000|XOffset=0mm|YOffset=0mm|HoleType=Round|Shape=RoundedRectangle|*
%AMROUNDEDRECTD21*
21,1,1.2000,1.4000,0,0,180.0*
21,1,0.6000,2.0000,0,0,180.0*
1,1,0.6000,-0.3000,0.7000*
1,1,0.6000,0.3000,0.7000*
1,1,0.6000,0.3000,-0.7000*
1,1,0.6000,-0.3000,-0.7000*
%
%ADD21ROUNDEDRECTD21*%
G04:AMPARAMS|DCode=22|XSize=1mm|YSize=0.95mm|CornerRadius=0.1995mm|HoleSize=0mm|Usage=FLASHONLY|Rotation=180.000|XOffset=0mm|YOffset=0mm|HoleType=Round|Shape=RoundedRectangle|*
%AMROUNDEDRECTD22*
21,1,1.0000,0.5510,0,0,180.0*
21,1,0.6010,0.9500,0,0,180.0*
1,1,0.3990,-0.3005,0.2755*
1,1,0.3990,0.3005,0.2755*
1,1,0.3990,0.3005,-0.2755*
1,1,0.3990,-0.3005,-0.2755*
%
%ADD22ROUNDEDRECTD22*%
%ADD23R,0.4000X1.4000*%
G04:AMPARAMS|DCode=24|XSize=1.8mm|YSize=1.9mm|CornerRadius=0.45mm|HoleSize=0mm|Usage=FLASHONLY|Rotation=0.000|XOffset=0mm|YOffset=0mm|HoleType=Round|Shape=RoundedRectangle|*
%AMROUNDEDRECTD24*
21,1,1.8000,1.0000,0,0,0.0*
21,1,0.9000,1.9000,0,0,0.0*
1,1,0.9000,0.4500,-0.5000*
1,1,0.9000,-0.4500,-0.5000*
1,1,0.9000,-0.4500,0.5000*
1,1,0.9000,0.4500,0.5000*
%
%ADD24ROUNDEDRECTD24*%
%ADD25O,0.7000X2.5000*%
%ADD26O,2.5000X0.7000*%
G04:AMPARAMS|DCode=27|XSize=1.1mm|YSize=0.6mm|CornerRadius=0.201mm|HoleSize=0mm|Usage=FLASHONLY|Rotation=180.000|XOffset=0mm|YOffset=0mm|HoleType=Round|Shape=RoundedRectangle|*
%AMROUNDEDRECTD27*
21,1,1.1000,0.1980,0,0,180.0*
21,1,0.6980,0.6000,0,0,180.0*
1,1,0.4020,-0.3490,0.0990*
1,1,0.4020,0.3490,0.0990*
1,1,0.4020,0.3490,-0.0990*
1,1,0.4020,-0.3490,-0.0990*
%
%ADD27ROUNDEDRECTD27*%
G04:AMPARAMS|DCode=28|XSize=2.3mm|YSize=0.5mm|CornerRadius=0.2mm|HoleSize=0mm|Usage=FLASHONLY|Rotation=90.000|XOffset=0mm|YOffset=0mm|HoleType=Round|Shape=RoundedRectangle|*
%AMROUNDEDRECTD28*
21,1,2.3000,0.1000,0,0,90.0*
21,1,1.9000,0.5000,0,0,90.0*
1,1,0.4000,0.0500,0.9500*
1,1,0.4000,0.0500,-0.9500*
1,1,0.4000,-0.0500,-0.9500*
1,1,0.4000,-0.0500,0.9500*
%
%ADD28ROUNDEDRECTD28*%
G04:AMPARAMS|DCode=29|XSize=2.5mm|YSize=2mm|CornerRadius=0.2mm|HoleSize=0mm|Usage=FLASHONLY|Rotation=90.000|XOffset=0mm|YOffset=0mm|HoleType=Round|Shape=RoundedRectangle|*
%AMROUNDEDRECTD29*
21,1,2.5000,1.6000,0,0,90.0*
21,1,2.1000,2.0000,0,0,90.0*
1,1,0.4000,0.8000,1.0500*
1,1,0.4000,0.8000,-1.0500*
1,1,0.4000,-0.8000,-1.0500*
1,1,0.4000,-0.8000,1.0500*
%
%ADD29ROUNDEDRECTD29*%
G04:AMPARAMS|DCode=30|XSize=2.5mm|YSize=1.7mm|CornerRadius=0.204mm|HoleSize=0mm|Usage=FLASHONLY|Rotation=0.000|XOffset=0mm|YOffset=0mm|HoleType=Round|Shape=RoundedRectangle|*
%AMROUNDEDRECTD30*
21,1,2.5000,1.2920,0,0,0.0*
21,1,2.0920,1.7000,0,0,0.0*
1,1,0.4080,1.0460,-0.6460*
1,1,0.4080,-1.0460,-0.6460*
1,1,0.4080,-1.0460,0.6460*
1,1,0.4080,1.0460,0.6460*
%
%ADD30ROUNDEDRECTD30*%
G04:AMPARAMS|DCode=31|XSize=0.5mm|YSize=0.6mm|CornerRadius=0.1625mm|HoleSize=0mm|Usage=FLASHONLY|Rotation=270.000|XOffset=0mm|YOffset=0mm|HoleType=Round|Shape=RoundedRectangle|*
%AMROUNDEDRECTD31*
21,1,0.5000,0.2750,0,0,270.0*
21,1,0.1750,0.6000,0,0,270.0*
1,1,0.3250,-0.1375,-0.0875*
1,1,0.3250,-0.1375,0.0875*
1,1,0.3250,0.1375,0.0875*
1,1,0.3250,0.1375,-0.0875*
%
%ADD31ROUNDEDRECTD31*%
G04:AMPARAMS|DCode=32|XSize=0.67mm|YSize=0.67mm|CornerRadius=0.1508mm|HoleSize=0mm|Usage=FLASHONLY|Rotation=270.000|XOffset=0mm|YOffset=0mm|HoleType=Round|Shape=RoundedRectangle|*
%AMROUNDEDRECTD32*
21,1,0.6700,0.3685,0,0,270.0*
21,1,0.3685,0.6700,0,0,270.0*
1,1,0.3015,-0.1843,-0.1843*
1,1,0.3015,-0.1843,0.1843*
1,1,0.3015,0.1843,0.1843*
1,1,0.3015,0.1843,-0.1843*
%
%ADD32ROUNDEDRECTD32*%
G04:AMPARAMS|DCode=33|XSize=1.05mm|YSize=0.65mm|CornerRadius=0.2015mm|HoleSize=0mm|Usage=FLASHONLY|Rotation=90.000|XOffset=0mm|YOffset=0mm|HoleType=Round|Shape=RoundedRectangle|*
%AMROUNDEDRECTD33*
21,1,1.0500,0.2470,0,0,90.0*
21,1,0.6470,0.6500,0,0,90.0*
1,1,0.4030,0.1235,0.3235*
1,1,0.4030,0.1235,-0.3235*
1,1,0.4030,-0.1235,-0.3235*
1,1,0.4030,-0.1235,0.3235*
%
%ADD33ROUNDEDRECTD33*%
G04:AMPARAMS|DCode=34|XSize=2.5mm|YSize=1.7mm|CornerRadius=0.204mm|HoleSize=0mm|Usage=FLASHONLY|Rotation=90.000|XOffset=0mm|YOffset=0mm|HoleType=Round|Shape=RoundedRectangle|*
%AMROUNDEDRECTD34*
21,1,2.5000,1.2920,0,0,90.0*
21,1,2.0920,1.7000,0,0,90.0*
1,1,0.4080,0.6460,1.0460*
1,1,0.4080,0.6460,-1.0460*
1,1,0.4080,-0.6460,-1.0460*
1,1,0.4080,-0.6460,1.0460*
%
%ADD34ROUNDEDRECTD34*%
%ADD35R,0.4000X1.6000*%
%ADD36C,0.5000*%
%ADD37C,1.2000*%
%ADD38C,0.4000*%
%ADD39C,1.8500*%
%ADD40C,2.2000*%
%ADD41C,1.7000*%
%ADD42C,0.5000*%
G04:AMPARAMS|DCode=43|XSize=1.85mm|YSize=1.85mm|CornerRadius=0.2313mm|HoleSize=0mm|Usage=FLASHONLY|Rotation=270.000|XOffset=0mm|YOffset=0mm|HoleType=Round|Shape=RoundedRectangle|*
%AMROUNDEDRECTD43*
21,1,1.8500,1.3875,0,0,270.0*
21,1,1.3875,1.8500,0,0,270.0*
1,1,0.4625,-0.6937,-0.6937*
1,1,0.4625,-0.6937,0.6937*
1,1,0.4625,0.6937,0.6937*
1,1,0.4625,0.6937,-0.6937*
%
%ADD43ROUNDEDRECTD43*%
%ADD44C,1.8000*%
%ADD45C,2.5000*%
%ADD46C,1.3000*%
G04:AMPARAMS|DCode=47|XSize=1.3mm|YSize=1.3mm|CornerRadius=0.1625mm|HoleSize=0mm|Usage=FLASHONLY|Rotation=180.000|XOffset=0mm|YOffset=0mm|HoleType=Round|Shape=RoundedRectangle|*
%AMROUNDEDRECTD47*
21,1,1.3000,0.9750,0,0,180.0*
21,1,0.9750,1.3000,0,0,180.0*
1,1,0.3250,-0.4875,0.4875*
1,1,0.3250,0.4875,0.4875*
1,1,0.3250,0.4875,-0.4875*
1,1,0.3250,-0.4875,-0.4875*
%
%ADD47ROUNDEDRECTD47*%
%ADD48C,2.0000*%
G04:AMPARAMS|DCode=49|XSize=2mm|YSize=2mm|CornerRadius=0.25mm|HoleSize=0mm|Usage=FLASHONLY|Rotation=0.000|XOffset=0mm|YOffset=0mm|HoleType=Round|Shape=RoundedRectangle|*
%AMROUNDEDRECTD49*
21,1,2.0000,1.5000,0,0,0.0*
21,1,1.5000,2.0000,0,0,0.0*
1,1,0.5000,0.7500,-0.7500*
1,1,0.5000,-0.7500,-0.7500*
1,1,0.5000,-0.7500,0.7500*
1,1,0.5000,0.7500,0.7500*
%
%ADD49ROUNDEDRECTD49*%
G04:AMPARAMS|DCode=50|XSize=2.2mm|YSize=2.2mm|CornerRadius=0.275mm|HoleSize=0mm|Usage=FLASHONLY|Rotation=90.000|XOffset=0mm|YOffset=0mm|HoleType=Round|Shape=RoundedRectangle|*
%AMROUNDEDRECTD50*
21,1,2.2000,1.6500,0,0,90.0*
21,1,1.6500,2.2000,0,0,90.0*
1,1,0.5500,0.8250,0.8250*
1,1,0.5500,0.8250,-0.8250*
1,1,0.5500,-0.8250,-0.8250*
1,1,0.5500,-0.8250,0.8250*
%
%ADD50ROUNDEDRECTD50*%
G04:AMPARAMS|DCode=51|XSize=1.4mm|YSize=1.4mm|CornerRadius=0.175mm|HoleSize=0mm|Usage=FLASHONLY|Rotation=0.000|XOffset=0mm|YOffset=0mm|HoleType=Round|Shape=RoundedRectangle|*
%AMROUNDEDRECTD51*
21,1,1.4000,1.0500,0,0,0.0*
21,1,1.0500,1.4000,0,0,0.0*
1,1,0.3500,0.5250,-0.5250*
1,1,0.3500,-0.5250,-0.5250*
1,1,0.3500,-0.5250,0.5250*
1,1,0.3500,0.5250,0.5250*
%
%ADD51ROUNDEDRECTD51*%
G04:AMPARAMS|DCode=52|XSize=1mm|YSize=1mm|CornerRadius=0.25mm|HoleSize=0mm|Usage=FLASHONLY|Rotation=90.000|XOffset=0mm|YOffset=0mm|HoleType=Round|Shape=RoundedRectangle|*
%AMROUNDEDRECTD52*
21,1,1.0000,0.5000,0,0,90.0*
21,1,0.5000,1.0000,0,0,90.0*
1,1,0.5000,0.2500,0.2500*
1,1,0.5000,0.2500,-0.2500*
1,1,0.5000,-0.2500,-0.2500*
1,1,0.5000,-0.2500,0.2500*
%
%ADD52ROUNDEDRECTD52*%
%ADD53C,0.1000*%
%ADD54C,7.0000*%
G04:AMPARAMS|DCode=55|XSize=0.9mm|YSize=2.8mm|CornerRadius=0.225mm|HoleSize=0mm|Usage=FLASHONLY|Rotation=90.000|XOffset=0mm|YOffset=0mm|HoleType=Round|Shape=RoundedRectangle|*
%AMROUNDEDRECTD55*
21,1,0.9000,2.3500,0,0,90.0*
21,1,0.4500,2.8000,0,0,90.0*
1,1,0.4500,1.1750,0.2250*
1,1,0.4500,1.1750,-0.2250*
1,1,0.4500,-1.1750,-0.2250*
1,1,0.4500,-1.1750,0.2250*
%
%ADD55ROUNDEDRECTD55*%
%ADD56C,2.7000*%
%ADD57C,1.2000*%
%ADD58C,0.8000*%
G04:AMPARAMS|DCode=59|XSize=2mm|YSize=2mm|CornerRadius=0.2mm|HoleSize=0mm|Usage=FLASHONLY|Rotation=90.000|XOffset=0mm|YOffset=0mm|HoleType=Round|Shape=RoundedRectangle|*
%AMROUNDEDRECTD59*
21,1,2.0000,1.6000,0,0,90.0*
21,1,1.6000,2.0000,0,0,90.0*
1,1,0.4000,0.8000,0.8000*
1,1,0.4000,0.8000,-0.8000*
1,1,0.4000,-0.8000,-0.8000*
1,1,0.4000,-0.8000,0.8000*
%
%ADD59ROUNDEDRECTD59*%
G04:AMPARAMS|DCode=60|XSize=1.7mm|YSize=1.9mm|CornerRadius=0.2125mm|HoleSize=0mm|Usage=FLASHONLY|Rotation=180.000|XOffset=0mm|YOffset=0mm|HoleType=Round|Shape=RoundedRectangle|*
%AMROUNDEDRECTD60*
21,1,1.7000,1.4750,0,0,180.0*
21,1,1.2750,1.9000,0,0,180.0*
1,1,0.4250,-0.6375,0.7375*
1,1,0.4250,0.6375,0.7375*
1,1,0.4250,0.6375,-0.7375*
1,1,0.4250,-0.6375,-0.7375*
%
%ADD60ROUNDEDRECTD60*%
G04:AMPARAMS|DCode=61|XSize=1.8mm|YSize=1.9mm|CornerRadius=0.225mm|HoleSize=0mm|Usage=FLASHONLY|Rotation=180.000|XOffset=0mm|YOffset=0mm|HoleType=Round|Shape=RoundedRectangle|*
%AMROUNDEDRECTD61*
21,1,1.8000,1.4500,0,0,180.0*
21,1,1.3500,1.9000,0,0,180.0*
1,1,0.4500,-0.6750,0.7250*
1,1,0.4500,0.6750,0.7250*
1,1,0.4500,0.6750,-0.7250*
1,1,0.4500,-0.6750,-0.7250*
%
%ADD61ROUNDEDRECTD61*%
G04:AMPARAMS|DCode=62|XSize=1.6mm|YSize=1.3mm|CornerRadius=0.2015mm|HoleSize=0mm|Usage=FLASHONLY|Rotation=180.000|XOffset=0mm|YOffset=0mm|HoleType=Round|Shape=RoundedRectangle|*
%AMROUNDEDRECTD62*
21,1,1.6000,0.8970,0,0,180.0*
21,1,1.1970,1.3000,0,0,180.0*
1,1,0.4030,-0.5985,0.4485*
1,1,0.4030,0.5985,0.4485*
1,1,0.4030,0.5985,-0.4485*
1,1,0.4030,-0.5985,-0.4485*
%
%ADD62ROUNDEDRECTD62*%
G04:AMPARAMS|DCode=63|XSize=2.7mm|YSize=1.2mm|CornerRadius=0.21mm|HoleSize=0mm|Usage=FLASHONLY|Rotation=0.000|XOffset=0mm|YOffset=0mm|HoleType=Round|Shape=RoundedRectangle|*
%AMROUNDEDRECTD63*
21,1,2.7000,0.7800,0,0,0.0*
21,1,2.2800,1.2000,0,0,0.0*
1,1,0.4200,1.1400,-0.3900*
1,1,0.4200,-1.1400,-0.3900*
1,1,0.4200,-1.1400,0.3900*
1,1,0.4200,1.1400,0.3900*
%
%ADD63ROUNDEDRECTD63*%
G04:AMPARAMS|DCode=64|XSize=1.2mm|YSize=1.2mm|CornerRadius=0.198mm|HoleSize=0mm|Usage=FLASHONLY|Rotation=0.000|XOffset=0mm|YOffset=0mm|HoleType=Round|Shape=RoundedRectangle|*
%AMROUNDEDRECTD64*
21,1,1.2000,0.8040,0,0,0.0*
21,1,0.8040,1.2000,0,0,0.0*
1,1,0.3960,0.4020,-0.4020*
1,1,0.3960,-0.4020,-0.4020*
1,1,0.3960,-0.4020,0.4020*
1,1,0.3960,0.4020,0.4020*
%
%ADD64ROUNDEDRECTD64*%
G04:AMPARAMS|DCode=65|XSize=0.7mm|YSize=2.5mm|CornerRadius=0.175mm|HoleSize=0mm|Usage=FLASHONLY|Rotation=0.000|XOffset=0mm|YOffset=0mm|HoleType=Round|Shape=RoundedRectangle|*
%AMROUNDEDRECTD65*
21,1,0.7000,2.1500,0,0,0.0*
21,1,0.3500,2.5000,0,0,0.0*
1,1,0.3500,0.1750,-1.0750*
1,1,0.3500,-0.1750,-1.0750*
1,1,0.3500,-0.1750,1.0750*
1,1,0.3500,0.1750,1.0750*
%
%ADD65ROUNDEDRECTD65*%
%ADD66C,0.3000*%
%ADD67C,5.0000*%
%ADD68C,0.2000*%
%ADD69C,0.2500*%
%ADD70C,0.1500*%
%ADD71C,0.1000*%
%ADD72C,0.2540*%
G36*
X-31158Y49674D02*
X-30496Y49232D01*
X-30054Y48570D01*
X-29899Y47790D01*
X-30054Y47010D01*
X-30496Y46348D01*
X-31158Y45906D01*
X-31938Y45751D01*
X-32719Y45906D01*
X-33380Y46348D01*
X-33822Y47010D01*
X-33978Y47790D01*
X-33822Y48570D01*
X-33380Y49232D01*
X-32719Y49674D01*
X-31938Y49829D01*
X-31158Y49674D01*
D02*
G37*
G36*
X364416Y66156D02*
X365018Y65754D01*
X365421Y65152D01*
X365562Y64442D01*
X365421Y63732D01*
X365018Y63130D01*
X364416Y62728D01*
X363706Y62586D01*
X362996Y62728D01*
X362394Y63130D01*
X361992Y63732D01*
X361851Y64442D01*
X361992Y65152D01*
X362394Y65754D01*
X362996Y66156D01*
X363706Y66298D01*
X364416Y66156D01*
D02*
G37*
G36*
X375000Y24500D02*
X273000D01*
Y31500D01*
X375000D01*
Y24500D01*
D02*
G37*
G36*
X214771Y12622D02*
X215432Y12180D01*
X215874Y11519D01*
X216029Y10738D01*
X215874Y9958D01*
X215432Y9297D01*
X214771Y8854D01*
X213990Y8699D01*
X213210Y8854D01*
X212548Y9297D01*
X212106Y9958D01*
X211951Y10738D01*
X212106Y11519D01*
X212548Y12180D01*
X213210Y12622D01*
X213990Y12778D01*
X214771Y12622D01*
D02*
G37*
G36*
X284771D02*
X285432Y12180D01*
X285874Y11519D01*
X286029Y10738D01*
X285874Y9958D01*
X285432Y9297D01*
X284771Y8854D01*
X283990Y8699D01*
X283210Y8854D01*
X282548Y9297D01*
X282106Y9958D01*
X281951Y10738D01*
X282106Y11519D01*
X282548Y12180D01*
X283210Y12622D01*
X283990Y12778D01*
X284771Y12622D01*
D02*
G37*
G36*
X-7652Y158348D02*
X-7176Y157200D01*
X-7652Y156052D01*
X-8800Y155576D01*
X-9948Y156052D01*
X-10424Y157200D01*
X-9948Y158348D01*
X-8800Y158824D01*
X-7652Y158348D01*
D02*
G37*
G36*
X32280Y370884D02*
X32942Y370442D01*
X33384Y369780D01*
X33539Y369000D01*
X33384Y368220D01*
X32942Y367558D01*
X32280Y367116D01*
X31500Y366961D01*
X30720Y367116D01*
X30058Y367558D01*
X29616Y368220D01*
X29461Y369000D01*
X29616Y369780D01*
X30058Y370442D01*
X30720Y370884D01*
X31500Y371039D01*
X32280Y370884D01*
D02*
G37*
G36*
X44639Y155034D02*
X44993Y154178D01*
X44639Y153322D01*
X43783Y152968D01*
X42927Y153322D01*
X42573Y154178D01*
X42927Y155034D01*
X43783Y155388D01*
X44639Y155034D01*
D02*
G37*
G36*
X420518Y71921D02*
X421120Y71518D01*
X421522Y70916D01*
X421664Y70206D01*
X421522Y69496D01*
X421120Y68894D01*
X420518Y68492D01*
X419808Y68351D01*
X419098Y68492D01*
X418496Y68894D01*
X418094Y69496D01*
X417952Y70206D01*
X418094Y70916D01*
X418496Y71518D01*
X419098Y71921D01*
X419808Y72062D01*
X420518Y71921D01*
D02*
G37*
G36*
X264000Y69500D02*
X162000D01*
Y76500D01*
X264000D01*
Y69500D01*
D02*
G37*
D36*
X-35000Y390000D02*
Y410000D01*
X-10000Y365000D02*
X10000D01*
X-10000Y435000D02*
X10000D01*
X35000Y390000D02*
Y410000D01*
X115000Y374600D02*
Y400000D01*
Y374600D02*
Y425000D01*
X88800Y119500D02*
X114200D01*
X114100Y119600D02*
X139500D01*
X164900D01*
X190300D01*
X215700D01*
X63400Y119500D02*
X88800D01*
X38000D02*
X63400D01*
D68*
X-43993Y154800D02*
G03*
X-43993Y154800I-707J0D01*
G01*
X164407Y23500D02*
G03*
X164407Y23500I-707J0D01*
G01*
X155535Y39500D02*
G03*
X155535Y39500I-3535J0D01*
G01*
X388535Y61500D02*
G03*
X388535Y61500I-3535J0D01*
G01*
X213207Y62500D02*
G03*
X213207Y62500I-707J0D01*
G01*
X190500Y289000D02*
G03*
X190500Y289000I-17500J0D01*
G01*
X208500Y-45000D02*
Y23000D01*
Y-45000D02*
X323500D01*
Y23000D01*
X208500D02*
X323500D01*
X-26300Y273500D02*
X24700D01*
X-26300D02*
Y298500D01*
X24700D01*
Y273500D02*
Y298500D01*
X30000Y258500D02*
Y363500D01*
X-50000Y258500D02*
X30000D01*
X-50000D02*
Y363500D01*
X30000D01*
X-26300Y323900D02*
X24700D01*
Y298900D02*
Y323900D01*
X-26300Y298900D02*
X24700D01*
X-26300D02*
Y323900D01*
X21000Y192000D02*
Y252000D01*
X-29000Y192000D02*
X21000D01*
X-29000D02*
Y252000D01*
X21000D01*
X-44200Y42300D02*
Y122300D01*
X23800D01*
Y42300D02*
Y122300D01*
X-44200Y42300D02*
X23800D01*
X162000Y31500D02*
Y76500D01*
X264000D01*
Y31500D02*
Y76500D01*
X162000Y31500D02*
X264000D01*
X51500Y161000D02*
X228500D01*
Y319000D01*
X51500D02*
X228500D01*
X51500Y161000D02*
Y319000D01*
X-31297Y157701D02*
Y187699D01*
Y157701D02*
X-24303D01*
Y187699D01*
X-31297D02*
X-24303D01*
X61500Y-14750D02*
Y4250D01*
X138500Y-14750D02*
Y4250D01*
X61500Y-49750D02*
X138500D01*
X61500Y38750D02*
X138500D01*
X419497Y35254D02*
Y37252D01*
X373500Y35250D02*
X419497Y35254D01*
X373500Y35250D02*
Y37250D01*
X373503Y62248D02*
Y64246D01*
X419500Y64250D01*
Y62250D02*
Y64250D01*
X375000Y24500D02*
Y69500D01*
X273000Y24500D02*
X375000D01*
X273000D02*
Y69500D01*
X375000D01*
X159500Y331500D02*
X235500D01*
X159500D02*
Y356500D01*
X235500D01*
Y331500D02*
Y356500D01*
X126700Y132100D02*
X177700D01*
Y107100D02*
Y132100D01*
X126700Y107100D02*
X177700D01*
X126700D02*
Y132100D01*
X0Y132000D02*
X76000D01*
Y107000D02*
Y132000D01*
X0Y107000D02*
X76000D01*
X0D02*
Y132000D01*
X76000Y132400D02*
Y157400D01*
X25000D02*
X76000D01*
X25000Y132400D02*
Y157400D01*
Y132400D02*
X76000D01*
X208500Y-45000D02*
Y23000D01*
Y-45000D02*
X288500D01*
Y23000D01*
X208500D02*
X288500D01*
X446998Y125997D02*
X448996D01*
X449000Y80000D01*
X447000D02*
X449000D01*
X420004Y80003D02*
X422002D01*
X420000Y126000D02*
X420004Y80003D01*
X420000Y126000D02*
X422000D01*
X278500Y-45000D02*
Y23000D01*
Y-45000D02*
X358500D01*
Y23000D01*
X278500D02*
X358500D01*
X414000Y359250D02*
X454000D01*
X414000Y282250D02*
Y359250D01*
Y282250D02*
X454000D01*
Y359250D01*
X428250Y67500D02*
X453250D01*
X428250Y16500D02*
Y67500D01*
Y16500D02*
X453250D01*
Y67500D01*
D69*
X78531Y-2000D02*
G03*
X78531Y-2000I-1031J0D01*
G01*
X123531Y-13250D02*
G03*
X123531Y-13250I-1031J0D01*
G01*
X437030Y341000D02*
G03*
X437030Y341000I-1031J0D01*
G01*
D70*
X-30200Y153300D02*
X-24200D01*
Y125300D02*
Y153300D01*
X-30200Y125300D02*
X-24200D01*
X-30200D02*
Y153300D01*
X178200Y22000D02*
X184200D01*
Y-6000D02*
Y22000D01*
X178200Y-6000D02*
X184200D01*
X178200D02*
Y22000D01*
X214000Y77000D02*
X242000D01*
Y83000D01*
X214000D02*
X242000D01*
X214000Y77000D02*
Y83000D01*
D71*
X240500Y363500D02*
X412500D01*
X240500Y66500D02*
Y363500D01*
Y66500D02*
X412500D01*
Y363500D01*
X32749Y149993D02*
X33416Y150660D01*
Y151993D01*
X32749Y152659D01*
X30083D01*
X29417Y151993D01*
Y150660D01*
X30083Y149993D01*
X33416Y145995D02*
Y148660D01*
X31416D01*
X32083Y147327D01*
Y146661D01*
X31416Y145995D01*
X30083D01*
X29417Y146661D01*
Y147994D01*
X30083Y148660D01*
X-43203Y163715D02*
Y166381D01*
X-43870Y167048D01*
X-45203D01*
X-45869Y166381D01*
Y163715D01*
X-45203Y163049D01*
X-43870D01*
X-44536Y164382D02*
X-43203Y163049D01*
X-43870D02*
X-43203Y163715D01*
X-41870D02*
X-41204Y163049D01*
X-39871D01*
X-39204Y163715D01*
Y166381D01*
X-39871Y167048D01*
X-41204D01*
X-41870Y166381D01*
Y165715D01*
X-41204Y165048D01*
X-39204D01*
X338452Y23545D02*
Y24878D01*
Y24212D01*
X335119D01*
X334453Y24878D01*
Y25545D01*
X335119Y26211D01*
X334453Y19547D02*
Y22212D01*
X337119Y19547D01*
X337785D01*
X338452Y20213D01*
Y21546D01*
X337785Y22212D01*
Y18214D02*
X338452Y17547D01*
Y16214D01*
X337785Y15548D01*
X337119D01*
X336452Y16214D01*
X335786Y15548D01*
X335119D01*
X334453Y16214D01*
Y17547D01*
X335119Y18214D01*
X335786D01*
X336452Y17547D01*
X337119Y18214D01*
X337785D01*
X336452Y17547D02*
Y16214D01*
X1891Y174269D02*
X-2108D01*
Y176268D01*
X-1441Y176935D01*
X-108D01*
X558Y176268D01*
Y174269D01*
Y175602D02*
X1891Y176935D01*
Y178268D02*
Y179601D01*
Y178934D01*
X-2108D01*
X-1441Y178268D01*
X-2108Y184266D02*
X-1441Y182933D01*
X-108Y181600D01*
X1225D01*
X1891Y182266D01*
Y183599D01*
X1225Y184266D01*
X558D01*
X-108Y183599D01*
Y181600D01*
X-36999Y270666D02*
Y269333D01*
Y269999D01*
X-33667D01*
X-33000Y269333D01*
Y268666D01*
X-33667Y268000D01*
X-33000Y274664D02*
Y271999D01*
X-35666Y274664D01*
X-36332D01*
X-36999Y273998D01*
Y272665D01*
X-36332Y271999D01*
X-33000Y278663D02*
Y275997D01*
X-35666Y278663D01*
X-36332D01*
X-36999Y277997D01*
Y276664D01*
X-36332Y275997D01*
X38632Y324101D02*
Y325434D01*
Y324768D01*
X35299D01*
X34633Y325434D01*
Y326101D01*
X35299Y326767D01*
X34633Y320103D02*
Y322768D01*
X37299Y320103D01*
X37965D01*
X38632Y320769D01*
Y322102D01*
X37965Y322768D01*
X34633Y318770D02*
Y317437D01*
Y318103D01*
X38632D01*
X37965Y318770D01*
X155237Y153053D02*
Y157052D01*
X157236D01*
X157903Y156385D01*
Y155052D01*
X157236Y154386D01*
X155237D01*
X156570D02*
X157903Y153053D01*
X159236D02*
X160569D01*
X159902D01*
Y157052D01*
X159236Y156385D01*
X165234Y157052D02*
X162568D01*
Y155052D01*
X163901Y155719D01*
X164567D01*
X165234Y155052D01*
Y153720D01*
X164567Y153053D01*
X163234D01*
X162568Y153720D01*
X155739Y-9981D02*
X151740D01*
Y-7982D01*
X152406Y-7315D01*
X153739D01*
X154406Y-7982D01*
Y-9981D01*
Y-8648D02*
X155739Y-7315D01*
Y-5982D02*
Y-4649D01*
Y-5316D01*
X151740D01*
X152406Y-5982D01*
Y-2650D02*
X151740Y-1984D01*
Y-651D01*
X152406Y16D01*
X155072D01*
X155739Y-651D01*
Y-1984D01*
X155072Y-2650D01*
X152406D01*
X174291Y61769D02*
X170292D01*
Y63768D01*
X170959Y64435D01*
X172292D01*
X172958Y63768D01*
Y61769D01*
Y63102D02*
X174291Y64435D01*
X173624Y65768D02*
X174291Y66434D01*
Y67767D01*
X173624Y68433D01*
X170959D01*
X170292Y67767D01*
Y66434D01*
X170959Y65768D01*
X171625D01*
X172292Y66434D01*
Y68433D01*
X202731Y-48209D02*
Y-52208D01*
X200732D01*
X200065Y-51541D01*
Y-50208D01*
X200732Y-49542D01*
X202731D01*
X201398D02*
X200065Y-48209D01*
X196066Y-52208D02*
X198732D01*
Y-50208D01*
X197399Y-50875D01*
X196733D01*
X196066Y-50208D01*
Y-48875D01*
X196733Y-48209D01*
X198066D01*
X198732Y-48875D01*
X194209Y-28269D02*
X198208D01*
Y-30268D01*
X197541Y-30935D01*
X196208D01*
X195542Y-30268D01*
Y-28269D01*
Y-29602D02*
X194209Y-30935D01*
Y-34267D02*
X198208D01*
X196208Y-32268D01*
Y-34934D01*
X194209Y-12269D02*
X198208D01*
Y-14268D01*
X197541Y-14935D01*
X196208D01*
X195542Y-14268D01*
Y-12269D01*
Y-13602D02*
X194209Y-14935D01*
X197541Y-16268D02*
X198208Y-16934D01*
Y-18267D01*
X197541Y-18934D01*
X196875D01*
X196208Y-18267D01*
Y-17601D01*
Y-18267D01*
X195542Y-18934D01*
X194876D01*
X194209Y-18267D01*
Y-16934D01*
X194876Y-16268D01*
X165197Y32415D02*
Y35081D01*
X164530Y35748D01*
X163197D01*
X162531Y35081D01*
Y32415D01*
X163197Y31749D01*
X164530D01*
X163864Y33082D02*
X165197Y31749D01*
X164530D02*
X165197Y32415D01*
X169195Y31749D02*
X166530D01*
X169195Y34415D01*
Y35081D01*
X168529Y35748D01*
X167196D01*
X166530Y35081D01*
X352699Y441623D02*
X355365D01*
X356698Y440290D01*
X355365Y438957D01*
X352699D01*
X354698D01*
Y441623D01*
X356031Y437624D02*
X356698Y436958D01*
Y435625D01*
X356031Y434958D01*
X355365D01*
X354698Y435625D01*
Y436291D01*
Y435625D01*
X354032Y434958D01*
X353365D01*
X352699Y435625D01*
Y436958D01*
X353365Y437624D01*
X243751Y374074D02*
X242418D01*
X243084D01*
Y370741D01*
X242418Y370075D01*
X241751D01*
X241085Y370741D01*
X245084Y370075D02*
X246417D01*
X245750D01*
Y374074D01*
X245084Y373407D01*
X248416D02*
X249082Y374074D01*
X250415D01*
X251082Y373407D01*
Y372741D01*
X250415Y372074D01*
X251082Y371408D01*
Y370741D01*
X250415Y370075D01*
X249082D01*
X248416Y370741D01*
Y371408D01*
X249082Y372074D01*
X248416Y372741D01*
Y373407D01*
X249082Y372074D02*
X250415D01*
X219572Y160241D02*
Y161574D01*
Y160908D01*
X216239D01*
X215573Y161574D01*
Y162241D01*
X216239Y162907D01*
X215573Y158908D02*
Y157575D01*
Y158242D01*
X219572D01*
X218905Y158908D01*
X219572Y155576D02*
Y152910D01*
X218905D01*
X216239Y155576D01*
X215573D01*
X208049Y93065D02*
X208716Y93732D01*
Y95065D01*
X208049Y95731D01*
X205383D01*
X204717Y95065D01*
Y93732D01*
X205383Y93065D01*
X204717Y89066D02*
Y91732D01*
X207383Y89066D01*
X208049D01*
X208716Y89733D01*
Y91066D01*
X208049Y91732D01*
X204717Y87734D02*
Y86401D01*
Y87067D01*
X208716D01*
X208049Y87734D01*
Y108065D02*
X208716Y108732D01*
Y110064D01*
X208049Y110731D01*
X205383D01*
X204717Y110064D01*
Y108732D01*
X205383Y108065D01*
X204717Y104066D02*
Y106732D01*
X207383Y104066D01*
X208049D01*
X208716Y104733D01*
Y106066D01*
X208049Y106732D01*
Y102734D02*
X208716Y102067D01*
Y100734D01*
X208049Y100068D01*
X205383D01*
X204717Y100734D01*
Y102067D01*
X205383Y102734D01*
X208049D01*
X177049Y93065D02*
X177716Y93732D01*
Y95065D01*
X177049Y95731D01*
X174383D01*
X173717Y95065D01*
Y93732D01*
X174383Y93065D01*
X173717Y91732D02*
Y90399D01*
Y91066D01*
X177716D01*
X177049Y91732D01*
X174383Y88400D02*
X173717Y87734D01*
Y86401D01*
X174383Y85734D01*
X177049D01*
X177716Y86401D01*
Y87734D01*
X177049Y88400D01*
X176383D01*
X175716Y87734D01*
Y85734D01*
X177049Y108065D02*
X177716Y108732D01*
Y110064D01*
X177049Y110731D01*
X174383D01*
X173717Y110064D01*
Y108732D01*
X174383Y108065D01*
X173717Y106732D02*
Y105399D01*
Y106066D01*
X177716D01*
X177049Y106732D01*
Y103400D02*
X177716Y102734D01*
Y101401D01*
X177049Y100734D01*
X176383D01*
X175716Y101401D01*
X175050Y100734D01*
X174383D01*
X173717Y101401D01*
Y102734D01*
X174383Y103400D01*
X175050D01*
X175716Y102734D01*
X176383Y103400D01*
X177049D01*
X175716Y102734D02*
Y101401D01*
X155935Y91049D02*
X155268Y91716D01*
X153935D01*
X153269Y91049D01*
Y88383D01*
X153935Y87717D01*
X155268D01*
X155935Y88383D01*
X157268Y87717D02*
X158601D01*
X157934D01*
Y91716D01*
X157268Y91049D01*
X160600Y91716D02*
X163266D01*
Y91049D01*
X160600Y88383D01*
Y87717D01*
X139935Y91049D02*
X139268Y91716D01*
X137935D01*
X137269Y91049D01*
Y88383D01*
X137935Y87717D01*
X139268D01*
X139935Y88383D01*
X141268Y87717D02*
X142601D01*
X141934D01*
Y91716D01*
X141268Y91049D01*
X147266Y91716D02*
X145933Y91049D01*
X144600Y89716D01*
Y88383D01*
X145266Y87717D01*
X146599D01*
X147266Y88383D01*
Y89050D01*
X146599Y89716D01*
X144600D01*
X101749Y-30666D02*
Y-29333D01*
Y-30000D01*
X98416D01*
X97750Y-29333D01*
Y-28667D01*
X98416Y-28000D01*
X97750Y-31999D02*
Y-33332D01*
Y-32665D01*
X101749D01*
X101082Y-31999D01*
X97750Y-35331D02*
Y-36664D01*
Y-35998D01*
X101749D01*
X101082Y-35331D01*
X98053Y-13044D02*
Y-14377D01*
Y-13711D01*
X101385D01*
X102052Y-14377D01*
Y-15044D01*
X101385Y-15710D01*
X102052Y-11711D02*
Y-10378D01*
Y-11045D01*
X98053D01*
X98720Y-11711D01*
X102052Y-5713D02*
Y-8379D01*
X99386Y-5713D01*
X98720D01*
X98053Y-6380D01*
Y-7713D01*
X98720Y-8379D01*
X3965Y147651D02*
X4632Y146984D01*
X5965D01*
X6631Y147651D01*
Y150317D01*
X5965Y150983D01*
X4632D01*
X3965Y150317D01*
X2632Y150983D02*
X1299D01*
X1966D01*
Y146984D01*
X2632Y147651D01*
X-3366Y150983D02*
X-700D01*
X-3366Y148317D01*
Y147651D01*
X-2699Y146984D01*
X-1366D01*
X-700Y147651D01*
X110049Y78065D02*
X110716Y78732D01*
Y80065D01*
X110049Y80731D01*
X107383D01*
X106717Y80065D01*
Y78732D01*
X107383Y78065D01*
X106717Y76732D02*
Y75399D01*
Y76066D01*
X110716D01*
X110049Y76732D01*
Y63065D02*
X110716Y63732D01*
Y65065D01*
X110049Y65731D01*
X107383D01*
X106717Y65065D01*
Y63732D01*
X107383Y63065D01*
X106717Y59067D02*
Y61732D01*
X109383Y59067D01*
X110049D01*
X110716Y59733D01*
Y61066D01*
X110049Y61732D01*
X126049Y108065D02*
X126716Y108732D01*
Y110064D01*
X126049Y110731D01*
X123383D01*
X122717Y110064D01*
Y108732D01*
X123383Y108065D01*
X126716Y106732D02*
Y104066D01*
X126049D01*
X123383Y106732D01*
X122717D01*
X126049Y93065D02*
X126716Y93732D01*
Y95065D01*
X126049Y95731D01*
X123383D01*
X122717Y95065D01*
Y93732D01*
X123383Y93065D01*
X126049Y91732D02*
X126716Y91066D01*
Y89733D01*
X126049Y89066D01*
X125383D01*
X124716Y89733D01*
X124050Y89066D01*
X123383D01*
X122717Y89733D01*
Y91066D01*
X123383Y91732D01*
X124050D01*
X124716Y91066D01*
X125383Y91732D01*
X126049D01*
X124716Y91066D02*
Y89733D01*
X142049Y78065D02*
X142716Y78732D01*
Y80065D01*
X142049Y80731D01*
X139383D01*
X138717Y80065D01*
Y78732D01*
X139383Y78065D01*
X138717Y76732D02*
Y75399D01*
Y76066D01*
X142716D01*
X142049Y76732D01*
Y73400D02*
X142716Y72734D01*
Y71401D01*
X142049Y70734D01*
X139383D01*
X138717Y71401D01*
Y72734D01*
X139383Y73400D01*
X142049D01*
Y63065D02*
X142716Y63732D01*
Y65065D01*
X142049Y65731D01*
X139383D01*
X138717Y65065D01*
Y63732D01*
X139383Y63065D01*
X138717Y61732D02*
Y60399D01*
Y61066D01*
X142716D01*
X142049Y61732D01*
X138717Y58400D02*
Y57067D01*
Y57734D01*
X142716D01*
X142049Y58400D01*
X1201Y182568D02*
X2534D01*
X1868D01*
Y185900D01*
X2534Y186567D01*
X3201D01*
X3867Y185900D01*
X-132Y183235D02*
X-798Y182568D01*
X-2131D01*
X-2797Y183235D01*
Y183901D01*
X-2131Y184568D01*
X-2797Y185234D01*
Y185900D01*
X-2131Y186567D01*
X-798D01*
X-132Y185900D01*
Y185234D01*
X-798Y184568D01*
X-132Y183901D01*
Y183235D01*
X-798Y184568D02*
X-2131D01*
X29448Y149957D02*
X32781D01*
X33447Y150623D01*
Y151956D01*
X32781Y152623D01*
X29448D01*
X33447Y155955D02*
X29448D01*
X31448Y153956D01*
Y156622D01*
X-7607Y144952D02*
Y148285D01*
X-8273Y148951D01*
X-9606D01*
X-10273Y148285D01*
Y144952D01*
X-14272Y148951D02*
X-11606D01*
X-14272Y146285D01*
Y145619D01*
X-13605Y144952D01*
X-12272D01*
X-11606Y145619D01*
X30641Y243628D02*
X31974D01*
X31308D01*
Y246961D01*
X31974Y247627D01*
X32641D01*
X33307Y246961D01*
X26642Y243628D02*
X29308D01*
Y245628D01*
X27975Y244961D01*
X27309D01*
X26642Y245628D01*
Y246961D01*
X27309Y247627D01*
X28642D01*
X29308Y246961D01*
X-50841Y149672D02*
X-52174D01*
X-51508D01*
Y146339D01*
X-52174Y145673D01*
X-52841D01*
X-53507Y146339D01*
X-46842Y149672D02*
X-48175Y149005D01*
X-49508Y147672D01*
Y146339D01*
X-48842Y145673D01*
X-47509D01*
X-46842Y146339D01*
Y147006D01*
X-47509Y147672D01*
X-49508D01*
X377831Y77498D02*
Y73499D01*
X379830D01*
X380497Y74165D01*
Y76831D01*
X379830Y77498D01*
X377831D01*
X384496Y73499D02*
X381830D01*
X384496Y76165D01*
Y76831D01*
X383829Y77498D01*
X382496D01*
X381830Y76831D01*
X315872Y29641D02*
Y30974D01*
Y30308D01*
X312540D01*
X311873Y30974D01*
Y31641D01*
X312540Y32307D01*
X311873Y26309D02*
X315872D01*
X313872Y28308D01*
Y25642D01*
X227672Y-9261D02*
X231005D01*
X231671Y-8594D01*
Y-7262D01*
X231005Y-6595D01*
X227672D01*
X231671Y-5262D02*
Y-3929D01*
Y-4596D01*
X227672D01*
X228339Y-5262D01*
X54061Y367145D02*
Y369811D01*
X55394Y371144D01*
X56727Y369811D01*
Y367145D01*
Y369144D01*
X54061D01*
X58060Y367145D02*
X59393D01*
X58726D01*
Y371144D01*
X58060Y370477D01*
X-37973Y445085D02*
Y447751D01*
X-36640Y449084D01*
X-35307Y447751D01*
Y445085D01*
Y447084D01*
X-37973D01*
X-31309Y445085D02*
X-33974D01*
X-31309Y447751D01*
Y448417D01*
X-31975Y449084D01*
X-33308D01*
X-33974Y448417D01*
X-2449Y159735D02*
X-3116Y159068D01*
Y157735D01*
X-2449Y157069D01*
X217D01*
X883Y157735D01*
Y159068D01*
X217Y159735D01*
X-2449Y161068D02*
X-3116Y161734D01*
Y163067D01*
X-2449Y163734D01*
X-1783D01*
X-1116Y163067D01*
Y162401D01*
Y163067D01*
X-450Y163734D01*
X217D01*
X883Y163067D01*
Y161734D01*
X217Y161068D01*
X-3116Y167732D02*
X-2449Y166399D01*
X-1116Y165066D01*
X217D01*
X883Y165733D01*
Y167066D01*
X217Y167732D01*
X-450D01*
X-1116Y167066D01*
Y165066D01*
X35865Y182351D02*
X36532Y181684D01*
X37865D01*
X38531Y182351D01*
Y185016D01*
X37865Y185683D01*
X36532D01*
X35865Y185016D01*
X34532Y182351D02*
X33866Y181684D01*
X32533D01*
X31867Y182351D01*
Y183017D01*
X32533Y183684D01*
X33199D01*
X32533D01*
X31867Y184350D01*
Y185016D01*
X32533Y185683D01*
X33866D01*
X34532Y185016D01*
X30534Y181684D02*
X27868D01*
Y182351D01*
X30534Y185016D01*
Y185683D01*
X27735Y263449D02*
X27068Y264116D01*
X25735D01*
X25069Y263449D01*
Y260784D01*
X25735Y260117D01*
X27068D01*
X27735Y260784D01*
X29068Y263449D02*
X29734Y264116D01*
X31067D01*
X31734Y263449D01*
Y262783D01*
X31067Y262116D01*
X30401D01*
X31067D01*
X31734Y261450D01*
Y260784D01*
X31067Y260117D01*
X29734D01*
X29068Y260784D01*
X33066D02*
X33733Y260117D01*
X35066D01*
X35732Y260784D01*
Y263449D01*
X35066Y264116D01*
X33733D01*
X33066Y263449D01*
Y262783D01*
X33733Y262116D01*
X35732D01*
X118580Y142262D02*
Y143595D01*
Y142929D01*
X115247D01*
X114581Y143595D01*
Y144262D01*
X115247Y144928D01*
X114581Y140929D02*
Y139596D01*
Y140263D01*
X118580D01*
X117913Y140929D01*
X-32259Y46036D02*
X-33592D01*
X-32926D01*
Y42703D01*
X-33592Y42037D01*
X-34259D01*
X-34925Y42703D01*
X-28261Y42037D02*
X-30926D01*
X-28261Y44703D01*
Y45369D01*
X-28927Y46036D01*
X-30260D01*
X-30926Y45369D01*
X-26928D02*
X-26261Y46036D01*
X-24928D01*
X-24262Y45369D01*
Y42703D01*
X-24928Y42037D01*
X-26261D01*
X-26928Y42703D01*
Y45369D01*
X367741Y446036D02*
X366408D01*
X367074D01*
Y442703D01*
X366408Y442037D01*
X365741D01*
X365075Y442703D01*
X369074Y445369D02*
X369740Y446036D01*
X371073D01*
X371740Y445369D01*
Y444703D01*
X371073Y444036D01*
X370407D01*
X371073D01*
X371740Y443370D01*
Y442703D01*
X371073Y442037D01*
X369740D01*
X369074Y442703D01*
X367741Y46036D02*
X366408D01*
X367074D01*
Y42703D01*
X366408Y42037D01*
X365741D01*
X365075Y42703D01*
X371740Y42037D02*
X369074D01*
X371740Y44703D01*
Y45369D01*
X371073Y46036D01*
X369740D01*
X369074Y45369D01*
X79459Y102481D02*
X83458D01*
Y100482D01*
X82791Y99815D01*
X81458D01*
X80792Y100482D01*
Y102481D01*
Y101148D02*
X79459Y99815D01*
Y95816D02*
Y98482D01*
X82125Y95816D01*
X82791D01*
X83458Y96483D01*
Y97816D01*
X82791Y98482D01*
X29019Y109459D02*
Y113458D01*
X31018D01*
X31685Y112791D01*
Y111458D01*
X31018Y110792D01*
X29019D01*
X30352D02*
X31685Y109459D01*
X33018D02*
X34351D01*
X33684D01*
Y113458D01*
X33018Y112791D01*
X105236Y303359D02*
Y302026D01*
Y302692D01*
X108569D01*
X109235Y302026D01*
Y301359D01*
X108569Y300693D01*
Y304692D02*
X109235Y305358D01*
Y306691D01*
X108569Y307358D01*
X105903D01*
X105236Y306691D01*
Y305358D01*
X105903Y304692D01*
X106569D01*
X107236Y305358D01*
Y307358D01*
X279072Y86513D02*
X281737D01*
X282404Y87180D01*
Y88512D01*
X281737Y89179D01*
X279072D01*
X278405Y88512D01*
Y87180D01*
X279738Y87846D02*
X278405Y86513D01*
Y87180D02*
X279072Y86513D01*
X278405Y85180D02*
Y83847D01*
Y84514D01*
X282404D01*
X281737Y85180D01*
X77432Y132201D02*
Y133534D01*
Y132868D01*
X74099D01*
X73433Y133534D01*
Y134200D01*
X74099Y134867D01*
X73433Y130868D02*
Y129535D01*
Y130202D01*
X77432D01*
X76765Y130868D01*
X77432Y124870D02*
Y127536D01*
X75432D01*
X76099Y126203D01*
Y125537D01*
X75432Y124870D01*
X74099D01*
X73433Y125537D01*
Y126870D01*
X74099Y127536D01*
X85303Y413763D02*
X89302D01*
Y411764D01*
X88635Y411097D01*
X87302D01*
X86636Y411764D01*
Y413763D01*
Y412430D02*
X85303Y411097D01*
X89302Y407099D02*
X88635Y408431D01*
X87302Y409764D01*
X85969D01*
X85303Y409098D01*
Y407765D01*
X85969Y407099D01*
X86636D01*
X87302Y407765D01*
Y409764D01*
X85697Y129237D02*
X81698D01*
Y131236D01*
X82365Y131903D01*
X83698D01*
X84364Y131236D01*
Y129237D01*
Y130570D02*
X85697Y131903D01*
X81698Y133236D02*
Y135901D01*
X82365D01*
X85031Y133236D01*
X85697D01*
X94697Y129237D02*
X90698D01*
Y131236D01*
X91365Y131903D01*
X92698D01*
X93364Y131236D01*
Y129237D01*
Y130570D02*
X94697Y131903D01*
X91365Y133236D02*
X90698Y133902D01*
Y135235D01*
X91365Y135901D01*
X92031D01*
X92698Y135235D01*
X93364Y135901D01*
X94031D01*
X94697Y135235D01*
Y133902D01*
X94031Y133236D01*
X93364D01*
X92698Y133902D01*
X92031Y133236D01*
X91365D01*
X92698Y133902D02*
Y135235D01*
X11068Y132199D02*
Y130866D01*
Y131532D01*
X14401D01*
X15067Y130866D01*
Y130199D01*
X14401Y129533D01*
X15067Y133532D02*
Y134865D01*
Y134198D01*
X11068D01*
X11735Y133532D01*
X15067Y138863D02*
X11068D01*
X13068Y136864D01*
Y139530D01*
X203585Y63997D02*
X200919D01*
X200252Y63330D01*
Y61997D01*
X200919Y61331D01*
X203585D01*
X204251Y61997D01*
Y63330D01*
X202918Y62664D02*
X204251Y63997D01*
Y63330D02*
X203585Y63997D01*
X200919Y65330D02*
X200252Y65996D01*
Y67329D01*
X200919Y67996D01*
X201585D01*
X202252Y67329D01*
Y66663D01*
Y67329D01*
X202918Y67996D01*
X203585D01*
X204251Y67329D01*
Y65996D01*
X203585Y65330D01*
X42481Y37041D02*
Y33042D01*
X40482D01*
X39815Y33709D01*
Y35042D01*
X40482Y35708D01*
X42481D01*
X41148D02*
X39815Y37041D01*
X38482D02*
X37149D01*
X37816D01*
Y33042D01*
X38482Y33709D01*
X35150Y37041D02*
X33817D01*
X34484D01*
Y33042D01*
X35150Y33709D01*
X64459Y72481D02*
X68458D01*
Y70482D01*
X67791Y69815D01*
X66458D01*
X65792Y70482D01*
Y72481D01*
Y71148D02*
X64459Y69815D01*
Y68482D02*
Y67149D01*
Y67816D01*
X68458D01*
X67791Y68482D01*
X64459Y62484D02*
Y65150D01*
X67125Y62484D01*
X67791D01*
X68458Y63151D01*
Y64484D01*
X67791Y65150D01*
X22041Y44019D02*
X18042D01*
Y46018D01*
X18709Y46685D01*
X20042D01*
X20708Y46018D01*
Y44019D01*
Y45352D02*
X22041Y46685D01*
Y48018D02*
Y49351D01*
Y48684D01*
X18042D01*
X18709Y48018D01*
Y51350D02*
X18042Y52016D01*
Y53349D01*
X18709Y54016D01*
X19375D01*
X20042Y53349D01*
Y52683D01*
Y53349D01*
X20708Y54016D01*
X21375D01*
X22041Y53349D01*
Y52016D01*
X21375Y51350D01*
X44019Y79459D02*
Y83458D01*
X46018D01*
X46685Y82791D01*
Y81458D01*
X46018Y80792D01*
X44019D01*
X45352D02*
X46685Y79459D01*
X48018D02*
X49351D01*
X48684D01*
Y83458D01*
X48018Y82791D01*
X53349Y79459D02*
Y83458D01*
X51350Y81458D01*
X54016D01*
X417863Y148782D02*
Y144783D01*
X419862D01*
X420529Y145449D01*
Y148115D01*
X419862Y148782D01*
X417863D01*
X421862Y144783D02*
X423195D01*
X422528D01*
Y148782D01*
X421862Y148115D01*
X373426Y23545D02*
Y24878D01*
Y24212D01*
X370093D01*
X369427Y24878D01*
Y25545D01*
X370093Y26211D01*
X369427Y19547D02*
Y22212D01*
X372093Y19547D01*
X372759D01*
X373426Y20213D01*
Y21546D01*
X372759Y22212D01*
Y18214D02*
X373426Y17547D01*
Y16214D01*
X372759Y15548D01*
X372093D01*
X371426Y16214D01*
Y16881D01*
Y16214D01*
X370760Y15548D01*
X370093D01*
X369427Y16214D01*
Y17547D01*
X370093Y18214D01*
X302791Y24769D02*
X298792D01*
Y26768D01*
X299459Y27435D01*
X300792D01*
X301458Y26768D01*
Y24769D01*
Y26102D02*
X302791Y27435D01*
Y28768D02*
Y30101D01*
Y29434D01*
X298792D01*
X299459Y28768D01*
X298792Y32100D02*
Y34766D01*
X299459D01*
X302125Y32100D01*
X302791D01*
X38724Y-22309D02*
Y-23642D01*
Y-22976D01*
X42057D01*
X42723Y-23642D01*
Y-24309D01*
X42057Y-24975D01*
X42723Y-18311D02*
Y-20976D01*
X40057Y-18311D01*
X39391D01*
X38724Y-18977D01*
Y-20310D01*
X39391Y-20976D01*
X38724Y-14312D02*
Y-16978D01*
X40724D01*
X40057Y-15645D01*
Y-14978D01*
X40724Y-14312D01*
X42057D01*
X42723Y-14978D01*
Y-16311D01*
X42057Y-16978D01*
X453813Y254648D02*
X455146D01*
X454480D01*
Y257981D01*
X455146Y258647D01*
X455813D01*
X456479Y257981D01*
X449814Y258647D02*
X452480D01*
X449814Y255981D01*
Y255315D01*
X450481Y254648D01*
X451814D01*
X452480Y255315D01*
X445816Y254648D02*
X447149Y255315D01*
X448482Y256648D01*
Y257981D01*
X447815Y258647D01*
X446482D01*
X445816Y257981D01*
Y257314D01*
X446482Y256648D01*
X448482D01*
X453451Y2568D02*
X454784D01*
X454118D01*
Y5900D01*
X454784Y6567D01*
X455451D01*
X456117Y5900D01*
X449453Y6567D02*
X452118D01*
X449453Y3901D01*
Y3235D01*
X450119Y2568D01*
X451452D01*
X452118Y3235D01*
X448120Y2568D02*
X445454D01*
Y3235D01*
X448120Y5900D01*
Y6567D01*
D72*
X50000Y-48000D02*
X150000D01*
M02*
