%FSLAX44Y44*%
%MOMM*%
G71*
G01*
G75*
G04 Layer_Physical_Order=2*
G04 Layer_Color=16711680*
G04:AMPARAMS|DCode=10|XSize=1mm|YSize=1.2mm|CornerRadius=0.165mm|HoleSize=0mm|Usage=FLASHONLY|Rotation=180.000|XOffset=0mm|YOffset=0mm|HoleType=Round|Shape=RoundedRectangle|*
%AMROUNDEDRECTD10*
21,1,1.0000,0.8700,0,0,180.0*
21,1,0.6700,1.2000,0,0,180.0*
1,1,0.3300,-0.3350,0.4350*
1,1,0.3300,0.3350,0.4350*
1,1,0.3300,0.3350,-0.4350*
1,1,0.3300,-0.3350,-0.4350*
%
%ADD10ROUNDEDRECTD10*%
G04:AMPARAMS|DCode=11|XSize=1.5mm|YSize=3mm|CornerRadius=0.375mm|HoleSize=0mm|Usage=FLASHONLY|Rotation=180.000|XOffset=0mm|YOffset=0mm|HoleType=Round|Shape=RoundedRectangle|*
%AMROUNDEDRECTD11*
21,1,1.5000,2.2500,0,0,180.0*
21,1,0.7500,3.0000,0,0,180.0*
1,1,0.7500,-0.3750,1.1250*
1,1,0.7500,0.3750,1.1250*
1,1,0.7500,0.3750,-1.1250*
1,1,0.7500,-0.3750,-1.1250*
%
%ADD11ROUNDEDRECTD11*%
%ADD12R,0.4000X1.4000*%
G04:AMPARAMS|DCode=13|XSize=1.8mm|YSize=1.9mm|CornerRadius=0.45mm|HoleSize=0mm|Usage=FLASHONLY|Rotation=0.000|XOffset=0mm|YOffset=0mm|HoleType=Round|Shape=RoundedRectangle|*
%AMROUNDEDRECTD13*
21,1,1.8000,1.0000,0,0,0.0*
21,1,0.9000,1.9000,0,0,0.0*
1,1,0.9000,0.4500,-0.5000*
1,1,0.9000,-0.4500,-0.5000*
1,1,0.9000,-0.4500,0.5000*
1,1,0.9000,0.4500,0.5000*
%
%ADD13ROUNDEDRECTD13*%
G04:AMPARAMS|DCode=14|XSize=1.1mm|YSize=0.6mm|CornerRadius=0.201mm|HoleSize=0mm|Usage=FLASHONLY|Rotation=270.000|XOffset=0mm|YOffset=0mm|HoleType=Round|Shape=RoundedRectangle|*
%AMROUNDEDRECTD14*
21,1,1.1000,0.1980,0,0,270.0*
21,1,0.6980,0.6000,0,0,270.0*
1,1,0.4020,-0.0990,-0.3490*
1,1,0.4020,-0.0990,0.3490*
1,1,0.4020,0.0990,0.3490*
1,1,0.4020,0.0990,-0.3490*
%
%ADD14ROUNDEDRECTD14*%
G04:AMPARAMS|DCode=15|XSize=1.1mm|YSize=0.6mm|CornerRadius=0.201mm|HoleSize=0mm|Usage=FLASHONLY|Rotation=180.000|XOffset=0mm|YOffset=0mm|HoleType=Round|Shape=RoundedRectangle|*
%AMROUNDEDRECTD15*
21,1,1.1000,0.1980,0,0,180.0*
21,1,0.6980,0.6000,0,0,180.0*
1,1,0.4020,-0.3490,0.0990*
1,1,0.4020,0.3490,0.0990*
1,1,0.4020,0.3490,-0.0990*
1,1,0.4020,-0.3490,-0.0990*
%
%ADD15ROUNDEDRECTD15*%
%ADD16O,1.8000X0.8000*%
%ADD17O,1.0000X2.5000*%
G04:AMPARAMS|DCode=18|XSize=1.5mm|YSize=3mm|CornerRadius=0.375mm|HoleSize=0mm|Usage=FLASHONLY|Rotation=270.000|XOffset=0mm|YOffset=0mm|HoleType=Round|Shape=RoundedRectangle|*
%AMROUNDEDRECTD18*
21,1,1.5000,2.2500,0,0,270.0*
21,1,0.7500,3.0000,0,0,270.0*
1,1,0.7500,-1.1250,-0.3750*
1,1,0.7500,-1.1250,0.3750*
1,1,0.7500,1.1250,0.3750*
1,1,0.7500,1.1250,-0.3750*
%
%ADD18ROUNDEDRECTD18*%
%ADD19O,2.5000X0.7000*%
%ADD20O,0.7000X2.5000*%
%ADD21C,0.4000*%
%ADD22C,0.2500*%
%ADD23C,0.2000*%
%ADD24C,0.3500*%
%ADD25C,0.7000*%
%ADD26C,1.0000*%
%ADD27C,0.8000*%
%ADD28C,0.7000*%
%ADD29C,2.0000*%
%ADD30R,1.3000X1.3000*%
%ADD31C,1.3000*%
%ADD32C,1.8500*%
G04:AMPARAMS|DCode=33|XSize=1mm|YSize=0.95mm|CornerRadius=0.1995mm|HoleSize=0mm|Usage=FLASHONLY|Rotation=90.000|XOffset=0mm|YOffset=0mm|HoleType=Round|Shape=RoundedRectangle|*
%AMROUNDEDRECTD33*
21,1,1.0000,0.5510,0,0,90.0*
21,1,0.6010,0.9500,0,0,90.0*
1,1,0.3990,0.2755,0.3005*
1,1,0.3990,0.2755,-0.3005*
1,1,0.3990,-0.2755,-0.3005*
1,1,0.3990,-0.2755,0.3005*
%
%ADD33ROUNDEDRECTD33*%
G04:AMPARAMS|DCode=34|XSize=1mm|YSize=0.95mm|CornerRadius=0.1995mm|HoleSize=0mm|Usage=FLASHONLY|Rotation=180.000|XOffset=0mm|YOffset=0mm|HoleType=Round|Shape=RoundedRectangle|*
%AMROUNDEDRECTD34*
21,1,1.0000,0.5510,0,0,180.0*
21,1,0.6010,0.9500,0,0,180.0*
1,1,0.3990,-0.3005,0.2755*
1,1,0.3990,0.3005,0.2755*
1,1,0.3990,0.3005,-0.2755*
1,1,0.3990,-0.3005,-0.2755*
%
%ADD34ROUNDEDRECTD34*%
G04:AMPARAMS|DCode=35|XSize=1mm|YSize=0.9mm|CornerRadius=0.198mm|HoleSize=0mm|Usage=FLASHONLY|Rotation=0.000|XOffset=0mm|YOffset=0mm|HoleType=Round|Shape=RoundedRectangle|*
%AMROUNDEDRECTD35*
21,1,1.0000,0.5040,0,0,0.0*
21,1,0.6040,0.9000,0,0,0.0*
1,1,0.3960,0.3020,-0.2520*
1,1,0.3960,-0.3020,-0.2520*
1,1,0.3960,-0.3020,0.2520*
1,1,0.3960,0.3020,0.2520*
%
%ADD35ROUNDEDRECTD35*%
%ADD36R,4.0000X4.0000*%
%ADD37O,0.4000X1.1000*%
%ADD38O,1.1000X0.4000*%
G04:AMPARAMS|DCode=39|XSize=0.375mm|YSize=1.5mm|CornerRadius=0.0825mm|HoleSize=0mm|Usage=FLASHONLY|Rotation=0.000|XOffset=0mm|YOffset=0mm|HoleType=Round|Shape=RoundedRectangle|*
%AMROUNDEDRECTD39*
21,1,0.3750,1.3350,0,0,0.0*
21,1,0.2100,1.5000,0,0,0.0*
1,1,0.1650,0.1050,-0.6675*
1,1,0.1650,-0.1050,-0.6675*
1,1,0.1650,-0.1050,0.6675*
1,1,0.1650,0.1050,0.6675*
%
%ADD39ROUNDEDRECTD39*%
G04:AMPARAMS|DCode=40|XSize=0.375mm|YSize=1.25mm|CornerRadius=0.0825mm|HoleSize=0mm|Usage=FLASHONLY|Rotation=0.000|XOffset=0mm|YOffset=0mm|HoleType=Round|Shape=RoundedRectangle|*
%AMROUNDEDRECTD40*
21,1,0.3750,1.0850,0,0,0.0*
21,1,0.2100,1.2500,0,0,0.0*
1,1,0.1650,0.1050,-0.5425*
1,1,0.1650,-0.1050,-0.5425*
1,1,0.1650,-0.1050,0.5425*
1,1,0.1650,0.1050,0.5425*
%
%ADD40ROUNDEDRECTD40*%
G04:AMPARAMS|DCode=41|XSize=0.375mm|YSize=1.6mm|CornerRadius=0.0825mm|HoleSize=0mm|Usage=FLASHONLY|Rotation=0.000|XOffset=0mm|YOffset=0mm|HoleType=Round|Shape=RoundedRectangle|*
%AMROUNDEDRECTD41*
21,1,0.3750,1.4350,0,0,0.0*
21,1,0.2100,1.6000,0,0,0.0*
1,1,0.1650,0.1050,-0.7175*
1,1,0.1650,-0.1050,-0.7175*
1,1,0.1650,-0.1050,0.7175*
1,1,0.1650,0.1050,0.7175*
%
%ADD41ROUNDEDRECTD41*%
G04:AMPARAMS|DCode=42|XSize=1.1mm|YSize=0.9mm|CornerRadius=0.3015mm|HoleSize=0mm|Usage=FLASHONLY|Rotation=270.000|XOffset=0mm|YOffset=0mm|HoleType=Round|Shape=RoundedRectangle|*
%AMROUNDEDRECTD42*
21,1,1.1000,0.2970,0,0,270.0*
21,1,0.4970,0.9000,0,0,270.0*
1,1,0.6030,-0.1485,-0.2485*
1,1,0.6030,-0.1485,0.2485*
1,1,0.6030,0.1485,0.2485*
1,1,0.6030,0.1485,-0.2485*
%
%ADD42ROUNDEDRECTD42*%
G04:AMPARAMS|DCode=43|XSize=1mm|YSize=0.4mm|CornerRadius=0.1mm|HoleSize=0mm|Usage=FLASHONLY|Rotation=270.000|XOffset=0mm|YOffset=0mm|HoleType=Round|Shape=RoundedRectangle|*
%AMROUNDEDRECTD43*
21,1,1.0000,0.2000,0,0,270.0*
21,1,0.8000,0.4000,0,0,270.0*
1,1,0.2000,-0.1000,-0.4000*
1,1,0.2000,-0.1000,0.4000*
1,1,0.2000,0.1000,0.4000*
1,1,0.2000,0.1000,-0.4000*
%
%ADD43ROUNDEDRECTD43*%
G04:AMPARAMS|DCode=44|XSize=0.75mm|YSize=1.1mm|CornerRadius=0.165mm|HoleSize=0mm|Usage=FLASHONLY|Rotation=0.000|XOffset=0mm|YOffset=0mm|HoleType=Round|Shape=RoundedRectangle|*
%AMROUNDEDRECTD44*
21,1,0.7500,0.7700,0,0,0.0*
21,1,0.4200,1.1000,0,0,0.0*
1,1,0.3300,0.2100,-0.3850*
1,1,0.3300,-0.2100,-0.3850*
1,1,0.3300,-0.2100,0.3850*
1,1,0.3300,0.2100,0.3850*
%
%ADD44ROUNDEDRECTD44*%
G04:AMPARAMS|DCode=45|XSize=1mm|YSize=1.1mm|CornerRadius=0.165mm|HoleSize=0mm|Usage=FLASHONLY|Rotation=0.000|XOffset=0mm|YOffset=0mm|HoleType=Round|Shape=RoundedRectangle|*
%AMROUNDEDRECTD45*
21,1,1.0000,0.7700,0,0,0.0*
21,1,0.6700,1.1000,0,0,0.0*
1,1,0.3300,0.3350,-0.3850*
1,1,0.3300,-0.3350,-0.3850*
1,1,0.3300,-0.3350,0.3850*
1,1,0.3300,0.3350,0.3850*
%
%ADD45ROUNDEDRECTD45*%
G04:AMPARAMS|DCode=46|XSize=1.1mm|YSize=0.75mm|CornerRadius=0.2512mm|HoleSize=0mm|Usage=FLASHONLY|Rotation=270.000|XOffset=0mm|YOffset=0mm|HoleType=Round|Shape=RoundedRectangle|*
%AMROUNDEDRECTD46*
21,1,1.1000,0.2475,0,0,270.0*
21,1,0.5975,0.7500,0,0,270.0*
1,1,0.5025,-0.1238,-0.2988*
1,1,0.5025,-0.1238,0.2988*
1,1,0.5025,0.1238,0.2988*
1,1,0.5025,0.1238,-0.2988*
%
%ADD46ROUNDEDRECTD46*%
%ADD47C,0.9000*%
%ADD48C,0.5000*%
G36*
X150882Y85214D02*
X151215Y84715D01*
X156402Y79528D01*
Y67151D01*
X156790Y65201D01*
X157895Y63547D01*
X162014Y59428D01*
X161883Y58770D01*
Y56905D01*
X160613Y56530D01*
X159282Y57551D01*
X157458Y58307D01*
X155500Y58565D01*
X153542Y58307D01*
X151718Y57551D01*
X150151Y56349D01*
X148949Y54782D01*
X148193Y52958D01*
X147935Y51000D01*
X148167Y49240D01*
X147923Y49077D01*
X146622Y47131D01*
X146523Y47109D01*
X145352Y47342D01*
Y58750D01*
X144945Y60799D01*
X143785Y62535D01*
X140774Y65546D01*
X140844Y66175D01*
X141153Y66439D01*
X142165Y66969D01*
X144015Y66601D01*
X144230D01*
Y74750D01*
X145500D01*
Y76020D01*
X152649D01*
Y77235D01*
X152218Y79402D01*
X150990Y81240D01*
X149152Y82468D01*
X148309Y82635D01*
X147992Y83993D01*
X148849Y84651D01*
X149320Y85265D01*
X150882Y85214D01*
D02*
G37*
G36*
X178641Y175478D02*
X178680Y175112D01*
X178435Y173250D01*
X178693Y171292D01*
X179449Y169468D01*
X180647Y167906D01*
Y165378D01*
X179377Y164530D01*
X178708Y164807D01*
X176750Y165065D01*
X174792Y164807D01*
X172968Y164051D01*
X171401Y162849D01*
X170199Y161282D01*
X169443Y159458D01*
X169185Y157500D01*
X169443Y155542D01*
X170199Y153718D01*
X171397Y152156D01*
Y126082D01*
X170224Y125596D01*
X164103Y131717D01*
Y133250D01*
X163695Y135298D01*
X162535Y137035D01*
X127873Y171697D01*
X128171Y173195D01*
X128782Y173449D01*
X129347Y173883D01*
X136885D01*
X139226Y174348D01*
X141210Y175674D01*
X141919Y176383D01*
X178037D01*
X178641Y175478D01*
D02*
G37*
G36*
X120549Y67540D02*
X122500Y67152D01*
X122786D01*
X123312Y65882D01*
X120215Y62785D01*
X119054Y61048D01*
X118647Y59000D01*
Y34979D01*
X116923Y33827D01*
X115606Y34142D01*
X114094Y35152D01*
X111755Y35617D01*
X106245D01*
X103906Y35152D01*
X101923Y33827D01*
X100886Y32275D01*
X99583Y32139D01*
X99417Y32188D01*
X99024Y32775D01*
X98101Y33391D01*
Y34859D01*
X99025Y35475D01*
X100027Y36976D01*
X100379Y38745D01*
Y40480D01*
X93000D01*
Y43020D01*
X100379D01*
Y44755D01*
X100027Y46525D01*
X99025Y48025D01*
X98334Y48486D01*
Y50014D01*
X99025Y50476D01*
X100027Y51975D01*
X100379Y53745D01*
Y55480D01*
X93000D01*
Y56750D01*
X91730D01*
Y64379D01*
X90245D01*
X88476Y64027D01*
X86975Y63025D01*
X86583Y62438D01*
X86417Y62389D01*
X85114Y62525D01*
X84077Y64077D01*
X82585Y65074D01*
X82435Y66316D01*
X83386Y67323D01*
X83480Y67355D01*
X84500Y67152D01*
X86500D01*
X88451Y67540D01*
X88500Y67573D01*
X88549Y67540D01*
X90500Y67152D01*
X92500D01*
X94451Y67540D01*
X94500Y67573D01*
X94549Y67540D01*
X96500Y67152D01*
X98500D01*
X99032Y67258D01*
X100064Y66518D01*
X100193Y65542D01*
X100949Y63718D01*
X102151Y62151D01*
X103718Y60949D01*
X105542Y60193D01*
X107500Y59935D01*
X109458Y60193D01*
X111282Y60949D01*
X112849Y62151D01*
X114051Y63718D01*
X114807Y65542D01*
X114935Y66518D01*
X115968Y67258D01*
X116500Y67152D01*
X118500D01*
X120451Y67540D01*
X120500Y67573D01*
X120549Y67540D01*
D02*
G37*
G36*
X270250Y83250D02*
X271371Y82890D01*
X271881Y82268D01*
X271633Y81020D01*
Y75980D01*
X272097Y73647D01*
X273419Y71669D01*
X274217Y71135D01*
Y69865D01*
X273419Y69331D01*
X272097Y67353D01*
X271633Y65020D01*
Y59980D01*
X272097Y57647D01*
X273419Y55669D01*
X274068Y55235D01*
X274193Y53971D01*
X270790Y50568D01*
X269617Y51054D01*
Y53021D01*
X269153Y55354D01*
X267831Y57332D01*
X265853Y58654D01*
X263520Y59118D01*
X257480D01*
X255147Y58654D01*
X253169Y57332D01*
X252831D01*
X250853Y58654D01*
X249858Y58852D01*
X249440Y60230D01*
X258686Y69477D01*
X259000Y69435D01*
X260958Y69693D01*
X262782Y70449D01*
X264349Y71651D01*
X265551Y73218D01*
X266307Y75042D01*
X266565Y77000D01*
X266307Y78958D01*
X265551Y80782D01*
X265115Y81351D01*
X265741Y82621D01*
X267505D01*
X269275Y82973D01*
X269305Y82993D01*
X270250Y83250D01*
X270250D01*
D02*
G37*
G36*
X273261Y162261D02*
X275455Y160578D01*
X278009Y159520D01*
X280750Y159159D01*
X283491Y159520D01*
X286045Y160578D01*
X286508Y160933D01*
X287647Y160372D01*
Y151953D01*
X286377Y151327D01*
X285309Y152146D01*
X283110Y153057D01*
X282020Y153201D01*
Y144250D01*
X280750D01*
Y142980D01*
X271799D01*
X271943Y141890D01*
X272854Y139691D01*
X274169Y137976D01*
X274193Y137554D01*
X274161Y137304D01*
X273930Y136488D01*
X272504Y135535D01*
X265777Y128808D01*
X264609Y129436D01*
X264815Y131000D01*
X264557Y132958D01*
X263801Y134782D01*
X262599Y136349D01*
X261032Y137551D01*
X259208Y138307D01*
X257250Y138565D01*
X256936Y138523D01*
X248025Y147435D01*
Y148705D01*
X263717Y164397D01*
X271622D01*
X273261Y162261D01*
D02*
G37*
G36*
X142903Y141527D02*
X142793Y139841D01*
X142151Y139349D01*
X140949Y137782D01*
X140193Y135958D01*
X139935Y134000D01*
X140193Y132042D01*
X140949Y130218D01*
X142151Y128651D01*
X143718Y127449D01*
X145542Y126693D01*
X147494Y126436D01*
X162397Y111533D01*
Y109606D01*
X161200D01*
X159887Y109345D01*
X158774Y108601D01*
X158030Y107488D01*
X157881Y106735D01*
X156555Y106265D01*
X143314Y119506D01*
X143057Y121458D01*
X142301Y123282D01*
X141099Y124849D01*
X139532Y126051D01*
X137708Y126807D01*
X135750Y127065D01*
X133792Y126807D01*
X131968Y126051D01*
X130633Y125027D01*
X129363Y125397D01*
Y153408D01*
X130536Y153894D01*
X142903Y141527D01*
D02*
G37*
G36*
X153944Y229430D02*
X153878Y229100D01*
Y226520D01*
X160250D01*
Y223980D01*
X153878D01*
Y221400D01*
X154203Y219765D01*
X155129Y218379D01*
X156325Y217580D01*
X156750Y216210D01*
X155138Y214598D01*
X96750D01*
X95123Y214274D01*
X94799Y214210D01*
X93145Y213105D01*
X85372Y205331D01*
X85099Y205349D01*
X83532Y206551D01*
X81708Y207307D01*
X79750Y207565D01*
X77792Y207307D01*
X75968Y206551D01*
X74401Y205349D01*
X74099D01*
X72532Y206551D01*
X70708Y207307D01*
X68750Y207565D01*
X66792Y207307D01*
X64968Y206551D01*
X63401Y205349D01*
X62199Y203782D01*
X61443Y201958D01*
X61185Y200000D01*
X61443Y198042D01*
X62199Y196218D01*
X63401Y194651D01*
X64968Y193449D01*
X66792Y192693D01*
X68744Y192436D01*
X72788Y188391D01*
X74525Y187231D01*
X76574Y186824D01*
X87677D01*
X89725Y187231D01*
X91462Y188391D01*
X101354Y198284D01*
X101498Y198212D01*
X102456Y197590D01*
X102693Y195792D01*
X103449Y193968D01*
X104137Y193070D01*
Y169500D01*
X104584Y167257D01*
X104463Y166860D01*
X103718Y166551D01*
X102151Y165349D01*
X100949Y163782D01*
X100193Y161958D01*
X100045Y160836D01*
X92925Y153716D01*
X91849Y154436D01*
X92307Y155542D01*
X92565Y157500D01*
X92307Y159458D01*
X91551Y161282D01*
X90349Y162849D01*
X88782Y164051D01*
X86958Y164807D01*
X85000Y165065D01*
X83042Y164807D01*
X81218Y164051D01*
X79651Y162849D01*
X78449Y161282D01*
X77693Y159458D01*
X77435Y157500D01*
X77693Y155542D01*
X78449Y153718D01*
X79137Y152820D01*
Y150279D01*
X77867Y149430D01*
X76958Y149807D01*
X75000Y150065D01*
X73042Y149807D01*
X71218Y149051D01*
X69651Y147849D01*
X68449Y146282D01*
X67693Y144458D01*
X67435Y142500D01*
X67693Y140542D01*
X68449Y138718D01*
X69137Y137820D01*
Y136821D01*
X68084Y135244D01*
X67637Y133000D01*
Y85348D01*
X66500D01*
X64549Y84960D01*
X64500Y84927D01*
X64451Y84960D01*
X62500Y85348D01*
X60500D01*
X58549Y84960D01*
X58500Y84927D01*
X58451Y84960D01*
X56500Y85348D01*
X54500D01*
X52549Y84960D01*
X50895Y83855D01*
X49790Y82201D01*
X49634Y81416D01*
X48286Y81147D01*
X48130Y81380D01*
X46459Y82497D01*
X44520Y82882D01*
Y74750D01*
Y66617D01*
X46459Y67003D01*
X48130Y68120D01*
X49383Y67708D01*
Y67500D01*
X49848Y65159D01*
X51174Y63174D01*
X53674Y60674D01*
X55659Y59348D01*
X58000Y58882D01*
X68133D01*
Y53745D01*
X68598Y51406D01*
X69923Y49423D01*
Y49077D01*
X68598Y47094D01*
X68133Y44755D01*
Y41137D01*
X66718Y40551D01*
X65151Y39349D01*
X63949Y37782D01*
X63193Y35958D01*
X62935Y34000D01*
X63193Y32042D01*
X63949Y30218D01*
X65151Y28651D01*
X66718Y27449D01*
X68542Y26693D01*
X70500Y26435D01*
X72458Y26693D01*
X74282Y27449D01*
X75849Y28651D01*
X77051Y30218D01*
X77807Y32042D01*
X77885Y32633D01*
X79755D01*
X82094Y33098D01*
X84077Y34423D01*
X85114Y35975D01*
X86417Y36111D01*
X86583Y36062D01*
X86975Y35475D01*
X87899Y34859D01*
Y33391D01*
X86975Y32775D01*
X85973Y31274D01*
X85621Y29505D01*
Y27770D01*
X93000D01*
Y25230D01*
X85621D01*
Y23495D01*
X85973Y21725D01*
X86975Y20226D01*
X87666Y19764D01*
Y18236D01*
X86975Y17774D01*
X85973Y16274D01*
X85621Y14505D01*
Y12770D01*
X93000D01*
Y10230D01*
X85621D01*
Y8495D01*
X85973Y6726D01*
X86552Y5858D01*
X85873Y4588D01*
X37381D01*
X36782Y5708D01*
X37175Y6296D01*
X37663Y8750D01*
Y11230D01*
X20000D01*
Y13770D01*
X37663D01*
Y16250D01*
X37175Y18704D01*
X35785Y20785D01*
X35626Y20891D01*
X35681Y22381D01*
X36777Y23223D01*
X38020Y24842D01*
X38800Y26727D01*
X39067Y28750D01*
Y36250D01*
X38800Y38273D01*
X38020Y40158D01*
X36777Y41777D01*
X35158Y43020D01*
X33273Y43801D01*
X31250Y44067D01*
X27565D01*
Y57999D01*
X27565Y58000D01*
X27307Y59958D01*
X26551Y61782D01*
X25349Y63349D01*
X23782Y64551D01*
X21958Y65307D01*
X20000Y65565D01*
X18042Y65307D01*
X16218Y64551D01*
X14651Y63349D01*
X14651Y63349D01*
X13449Y61782D01*
X13227Y61248D01*
X12693Y59958D01*
X12435Y58000D01*
Y44067D01*
X8750D01*
X6727Y43801D01*
X5858Y43441D01*
X4588Y44289D01*
Y230412D01*
X14388D01*
X15194Y229430D01*
X15128Y229100D01*
Y226520D01*
X30372D01*
Y229100D01*
X30306Y229430D01*
X31112Y230412D01*
X153138D01*
X153944Y229430D01*
D02*
G37*
G36*
X340412Y54396D02*
X339142Y53770D01*
X337182Y55274D01*
X333959Y56609D01*
X330500Y57064D01*
X327041Y56609D01*
X326476Y56375D01*
X323117Y59734D01*
Y62653D01*
X323551Y63218D01*
X324307Y65042D01*
X324565Y67000D01*
X324307Y68958D01*
X323551Y70782D01*
X322349Y72349D01*
X320782Y73551D01*
X319127Y74237D01*
X319129Y74245D01*
Y75980D01*
X311750D01*
Y78520D01*
X319129D01*
Y80255D01*
X318777Y82024D01*
X317775Y83525D01*
X316275Y84527D01*
X314956Y84789D01*
X314078Y85990D01*
X314307Y86542D01*
X314565Y88500D01*
X314307Y90458D01*
X313551Y92282D01*
X312349Y93849D01*
X312348Y93850D01*
Y107500D01*
X311960Y109451D01*
X310855Y111105D01*
X295598Y126362D01*
Y127331D01*
X301605Y133338D01*
X302710Y134992D01*
X303098Y136942D01*
Y194750D01*
X302710Y196701D01*
X301605Y198355D01*
X299577Y200383D01*
X300057Y201542D01*
X300315Y203500D01*
X300057Y205458D01*
X299301Y207282D01*
X298099Y208849D01*
X296532Y210051D01*
X294708Y210807D01*
X292750Y211065D01*
X290792Y210807D01*
X288968Y210051D01*
X287401Y208849D01*
X286199Y207282D01*
X285443Y205458D01*
X284650Y205000D01*
X283491Y205480D01*
X280750Y205841D01*
X278009Y205480D01*
X275455Y204422D01*
X273261Y202739D01*
X271578Y200545D01*
X270520Y197991D01*
X270159Y195250D01*
X270498Y192682D01*
X240980Y163164D01*
X239711Y163691D01*
X239051Y165282D01*
X238617Y165848D01*
Y179965D01*
X246252Y187599D01*
X246958Y187692D01*
X248782Y188448D01*
X250349Y189650D01*
X251551Y191217D01*
X252307Y193041D01*
X252565Y194999D01*
X252307Y196957D01*
X251551Y198782D01*
X250349Y200348D01*
X248782Y201551D01*
X246958Y202306D01*
X245000Y202564D01*
X243042Y202306D01*
X241218Y201551D01*
X239651Y200348D01*
X238449Y198782D01*
X237693Y196957D01*
X237600Y196251D01*
X228174Y186825D01*
X226848Y184840D01*
X226383Y182499D01*
Y165848D01*
X225949Y165282D01*
X225193Y163458D01*
X224935Y161500D01*
X225074Y160444D01*
X223315Y160094D01*
X221578Y158934D01*
X210291Y147646D01*
X209118Y148132D01*
Y178735D01*
X208652Y181076D01*
X207326Y183061D01*
X196926Y193461D01*
X197087Y195096D01*
X197577Y195423D01*
X198614Y196975D01*
X199917Y197111D01*
X200084Y197062D01*
X200476Y196476D01*
X201975Y195473D01*
X203745Y195121D01*
X205230D01*
Y202750D01*
Y210379D01*
X203745D01*
X201975Y210027D01*
X200476Y209025D01*
X200084Y208438D01*
X199917Y208389D01*
X198614Y208525D01*
X197577Y210077D01*
X195594Y211402D01*
X193255Y211867D01*
X187745D01*
X185406Y211402D01*
X183423Y210077D01*
X182444Y208613D01*
X165232D01*
X164746Y209786D01*
X173249Y218290D01*
X174354Y219943D01*
X174742Y221894D01*
Y222083D01*
X176962Y224302D01*
X285207D01*
X285449Y223718D01*
X286651Y222151D01*
X288218Y220949D01*
X290042Y220193D01*
X292000Y219935D01*
X293958Y220193D01*
X295782Y220949D01*
X297349Y222151D01*
X298551Y223718D01*
X299307Y225542D01*
X299565Y227500D01*
X299349Y229142D01*
X300111Y230412D01*
X340412D01*
Y54396D01*
D02*
G37*
G36*
X308566Y68884D02*
X309515Y67603D01*
X309435Y67000D01*
X309693Y65042D01*
X310449Y63218D01*
X310882Y62653D01*
Y57200D01*
X311348Y54859D01*
X312674Y52874D01*
X317825Y47724D01*
X317591Y47159D01*
X317407Y45757D01*
X316233Y45271D01*
X315310Y45979D01*
X311905Y47390D01*
X308250Y47871D01*
X304595Y47390D01*
X301190Y45979D01*
X298265Y43735D01*
X296021Y40810D01*
X294610Y37405D01*
X294129Y33750D01*
X294610Y30095D01*
X296021Y26690D01*
X298265Y23765D01*
X301190Y21521D01*
X304595Y20110D01*
X308250Y19629D01*
X311905Y20110D01*
X315310Y21521D01*
X318235Y23765D01*
X319192Y25013D01*
X320201Y24246D01*
X319014Y21378D01*
X318776Y19570D01*
X330500D01*
Y18300D01*
X331770D01*
Y6575D01*
X333578Y6813D01*
X336446Y8001D01*
X338909Y9891D01*
X339209Y10283D01*
X340412Y9875D01*
Y4588D01*
X178126D01*
X177447Y5858D01*
X178027Y6726D01*
X178379Y8495D01*
Y10230D01*
X171000D01*
Y12770D01*
X178379D01*
Y14505D01*
X178027Y16274D01*
X177024Y17774D01*
X176333Y18236D01*
Y19764D01*
X177025Y20226D01*
X178027Y21725D01*
X178379Y23495D01*
Y25230D01*
X171000D01*
Y27770D01*
X178379D01*
Y29505D01*
X178027Y31274D01*
X177025Y32775D01*
X176101Y33391D01*
Y34859D01*
X177025Y35475D01*
X178027Y36976D01*
X178379Y38745D01*
Y41075D01*
X179649Y41461D01*
X180968Y40449D01*
X182792Y39693D01*
X184112Y39519D01*
X184973Y38280D01*
X184610Y37405D01*
X184129Y33750D01*
X184610Y30095D01*
X186021Y26690D01*
X188265Y23765D01*
X191190Y21521D01*
X194595Y20110D01*
X198250Y19629D01*
X201905Y20110D01*
X205310Y21521D01*
X208235Y23765D01*
X210457Y26661D01*
X210634Y26861D01*
X211906Y27008D01*
X224438Y14476D01*
X224693Y12542D01*
X225449Y10718D01*
X226651Y9151D01*
X228218Y7949D01*
X230042Y7193D01*
X232000Y6935D01*
X233958Y7193D01*
X235782Y7949D01*
X237349Y9151D01*
X238551Y10718D01*
X239307Y12542D01*
X239371Y13027D01*
X240378Y13800D01*
X241250Y13685D01*
X243208Y13943D01*
X245032Y14699D01*
X246599Y15901D01*
X247801Y17468D01*
X248557Y19292D01*
X248815Y21250D01*
X248557Y23208D01*
X247975Y24614D01*
X248391Y25584D01*
X248428Y25641D01*
X248718Y25923D01*
X250853Y26348D01*
X252831Y27669D01*
X253535Y28722D01*
X254221D01*
X255716Y27723D01*
X257480Y27372D01*
X259230D01*
Y34501D01*
X261770D01*
Y27372D01*
X263520D01*
X265284Y27723D01*
X266779Y28722D01*
X267164Y29299D01*
X268417Y29506D01*
X268702Y29287D01*
X270293Y28628D01*
X270730Y28571D01*
Y35000D01*
X272000D01*
Y36270D01*
X278429D01*
X278372Y36707D01*
X277713Y38298D01*
X276664Y39664D01*
X276502Y39789D01*
X276419Y41056D01*
X284535Y49173D01*
X285695Y50909D01*
X286103Y52958D01*
Y54347D01*
X286103Y54347D01*
X288081Y55669D01*
X289069Y57147D01*
X290000D01*
X292048Y57555D01*
X293785Y58715D01*
X298717Y63647D01*
X300678D01*
X302726Y64055D01*
X304463Y65215D01*
X307535Y68287D01*
X307841Y68745D01*
X308219Y68922D01*
X308566Y68884D01*
D02*
G37*
G36*
X117637Y153572D02*
Y140770D01*
X116367Y139885D01*
X115001Y140065D01*
X113043Y139807D01*
X111218Y139051D01*
X109652Y137849D01*
X108449Y136282D01*
X107694Y134458D01*
X107436Y132500D01*
X107694Y130542D01*
X108449Y128718D01*
X109138Y127820D01*
Y117499D01*
X109584Y115256D01*
X110855Y113354D01*
X111637Y112572D01*
Y81433D01*
X111402Y80250D01*
Y79409D01*
X110229Y78923D01*
X108576Y80576D01*
X106591Y81902D01*
X104250Y82367D01*
X103098D01*
X102105Y83855D01*
X100451Y84960D01*
X98500Y85348D01*
X97363D01*
Y141572D01*
X108336Y152545D01*
X109458Y152693D01*
X111282Y153449D01*
X112849Y154651D01*
X113680Y155733D01*
X115208Y156001D01*
X117637Y153572D01*
D02*
G37*
%LPC*%
G36*
X18480Y113812D02*
X17387Y113595D01*
X16274Y112851D01*
X15530Y111738D01*
X15269Y110425D01*
Y106270D01*
X18480D01*
Y113812D01*
D02*
G37*
G36*
X24231Y103730D02*
X21020D01*
Y96188D01*
X22113Y96405D01*
X23226Y97149D01*
X23970Y98262D01*
X24231Y99575D01*
Y103730D01*
D02*
G37*
G36*
X18480D02*
X15269D01*
Y99575D01*
X15530Y98262D01*
X16274Y97149D01*
X17387Y96405D01*
X18480Y96188D01*
Y103730D01*
D02*
G37*
G36*
X41980Y82882D02*
X40041Y82497D01*
X38370Y81380D01*
X37253Y79709D01*
X36861Y77737D01*
Y76020D01*
X41980D01*
Y82882D01*
D02*
G37*
G36*
X278429Y33730D02*
X273270D01*
Y28571D01*
X273707Y28628D01*
X275298Y29287D01*
X276664Y30336D01*
X277713Y31702D01*
X278372Y33293D01*
X278429Y33730D01*
D02*
G37*
G36*
X329230Y17030D02*
X318776D01*
X319014Y15222D01*
X320201Y12354D01*
X322091Y9891D01*
X324554Y8001D01*
X327422Y6813D01*
X329230Y6575D01*
Y17030D01*
D02*
G37*
G36*
X95755Y64379D02*
X94270D01*
Y58020D01*
X100379D01*
Y59755D01*
X100027Y61525D01*
X99025Y63025D01*
X97524Y64027D01*
X95755Y64379D01*
D02*
G37*
G36*
X41980Y73480D02*
X36861D01*
Y71762D01*
X37253Y69791D01*
X38370Y68120D01*
X40041Y67003D01*
X41980Y66617D01*
Y73480D01*
D02*
G37*
G36*
X152649D02*
X146770D01*
Y66601D01*
X146985D01*
X149152Y67032D01*
X150990Y68260D01*
X152218Y70097D01*
X152649Y72265D01*
Y73480D01*
D02*
G37*
G36*
X163520Y169812D02*
Y161020D01*
X166731D01*
Y166425D01*
X166470Y167738D01*
X165726Y168851D01*
X164613Y169595D01*
X163520Y169812D01*
D02*
G37*
G36*
X160980D02*
X159887Y169595D01*
X158774Y168851D01*
X158030Y167738D01*
X157769Y166425D01*
Y161020D01*
X160980D01*
Y169812D01*
D02*
G37*
G36*
X21020D02*
Y161020D01*
X24231D01*
Y166425D01*
X23970Y167738D01*
X23226Y168851D01*
X22113Y169595D01*
X21020Y169812D01*
D02*
G37*
G36*
X213879Y201480D02*
X207770D01*
Y195121D01*
X209255D01*
X211024Y195473D01*
X212525Y196476D01*
X213527Y197976D01*
X213879Y199745D01*
Y201480D01*
D02*
G37*
G36*
X30372Y223980D02*
X24020D01*
Y217128D01*
X26100D01*
X27735Y217453D01*
X29121Y218379D01*
X30047Y219765D01*
X30372Y221400D01*
Y223980D01*
D02*
G37*
G36*
X21480D02*
X15128D01*
Y221400D01*
X15453Y219765D01*
X16379Y218379D01*
X17765Y217453D01*
X19400Y217128D01*
X21480D01*
Y223980D01*
D02*
G37*
G36*
X209255Y210379D02*
X207770D01*
Y204020D01*
X213879D01*
Y205755D01*
X213527Y207525D01*
X212525Y209025D01*
X211024Y210027D01*
X209255Y210379D01*
D02*
G37*
G36*
X18480Y158480D02*
X15269D01*
Y153075D01*
X15530Y151762D01*
X16274Y150649D01*
X17387Y149905D01*
X18480Y149688D01*
Y158480D01*
D02*
G37*
G36*
X279480Y153201D02*
X278390Y153057D01*
X276191Y152146D01*
X274303Y150697D01*
X272854Y148809D01*
X271943Y146610D01*
X271799Y145520D01*
X279480D01*
Y153201D01*
D02*
G37*
G36*
X21020Y113812D02*
Y106270D01*
X24231D01*
Y110425D01*
X23970Y111738D01*
X23226Y112851D01*
X22113Y113595D01*
X21020Y113812D01*
D02*
G37*
G36*
X24231Y158480D02*
X21020D01*
Y149688D01*
X22113Y149905D01*
X23226Y150649D01*
X23970Y151762D01*
X24231Y153075D01*
Y158480D01*
D02*
G37*
G36*
X18480Y169812D02*
X17387Y169595D01*
X16274Y168851D01*
X15530Y167738D01*
X15269Y166425D01*
Y161020D01*
X18480D01*
Y169812D01*
D02*
G37*
G36*
X166731Y158480D02*
X163520D01*
Y149688D01*
X164613Y149905D01*
X165726Y150649D01*
X166470Y151762D01*
X166731Y153075D01*
Y158480D01*
D02*
G37*
G36*
X160980D02*
X157769D01*
Y153075D01*
X158030Y151762D01*
X158774Y150649D01*
X159887Y149905D01*
X160980Y149688D01*
Y158480D01*
D02*
G37*
%LPD*%
D18*
X20000Y32500D02*
D03*
Y12500D02*
D03*
D21*
X309000Y62282D02*
Y75250D01*
X304618Y57901D02*
X309000Y62282D01*
X315282Y82367D02*
Y95490D01*
X140000Y11500D02*
X155000D01*
X109000D02*
X124000D01*
X140000D02*
Y26500D01*
X140000Y26500D02*
X155000D01*
X109000Y26500D02*
X124000D01*
Y11500D02*
Y26500D01*
X183750Y71500D02*
X186000Y73750D01*
X186000D01*
Y78500D01*
X190150Y68000D02*
X196500D01*
X185650Y63500D02*
X186649Y64500D01*
X190150Y68000D01*
X55500Y67500D02*
Y76250D01*
Y67500D02*
X58000Y65000D01*
X97500Y76250D02*
X104250D01*
X107500Y73000D01*
Y67500D02*
Y73000D01*
X70500Y34000D02*
Y34000D01*
X58000Y65000D02*
X74250D01*
X77000Y62250D01*
Y56750D02*
Y62250D01*
X70500Y34000D02*
X78250Y41750D01*
X203000Y85000D02*
X216000Y98000D01*
X317000Y57200D02*
X330500Y43700D01*
X317000Y57200D02*
Y67750D01*
X232500Y161500D02*
Y182499D01*
X245000Y194999D01*
X196500Y128000D02*
Y176750D01*
X203000Y128000D02*
Y178735D01*
X139385Y182500D02*
X190750D01*
X196500Y176750D01*
X125000Y180000D02*
X136885D01*
X139385Y182500D01*
X125000Y190000D02*
X191735D01*
X203000Y178735D01*
X93000Y41750D02*
Y56750D01*
Y40250D02*
Y41750D01*
X162250Y99000D02*
Y106400D01*
X150900Y117750D02*
X162250Y106400D01*
X81000Y28250D02*
X93000Y40250D01*
X93000Y40250D01*
X308750Y67750D02*
X309000Y68000D01*
X311750Y78000D02*
X323750D01*
X326250Y75500D01*
X310000Y76250D02*
X311750Y78000D01*
X314378Y80628D01*
D22*
X246000Y91500D02*
X261500D01*
X216000Y139422D02*
X226828Y150250D01*
X209500Y139285D02*
X225363Y155149D01*
X229305D01*
X209500Y128000D02*
Y139285D01*
X226828Y150250D02*
X242000D01*
X216000Y128000D02*
Y139422D01*
X242000Y150250D02*
X261500Y169750D01*
X240136Y154750D02*
X280636Y195250D01*
X229704Y154750D02*
X240136D01*
X229305Y155149D02*
X229704Y154750D01*
X303750Y72072D02*
Y72822D01*
X300678Y69000D02*
X303750Y72072D01*
X296500Y69000D02*
X300678D01*
X290000Y62500D02*
X296500Y69000D01*
X214750Y31734D02*
X231984Y14500D01*
X219250Y33598D02*
X231598Y21250D01*
X231984Y14500D02*
X232000D01*
X231598Y21250D02*
X241250D01*
X227163Y49383D02*
X232750Y43796D01*
X219867Y49383D02*
X227163D01*
X216000Y53250D02*
X219867Y49383D01*
X232750Y43500D02*
X233750Y42500D01*
X232750Y43500D02*
Y43796D01*
X233750Y42500D02*
X270292D01*
X216000Y53250D02*
Y68000D01*
X295000Y91750D02*
X300500Y86250D01*
X100500Y205000D02*
X115500D01*
X87677Y192177D02*
X100500Y205000D01*
X115500D02*
X117750Y202750D01*
X140000Y26500D02*
Y58750D01*
X124000Y26500D02*
Y59000D01*
X130000Y65000D01*
Y87000D01*
X135000Y63750D02*
X140000Y58750D01*
X135000Y63750D02*
Y81500D01*
X143500Y90000D01*
X130000Y87000D02*
X143750Y100750D01*
X222500Y91500D02*
X246000D01*
X216000Y98000D02*
X222500Y91500D01*
X186000Y85000D02*
X203000D01*
X246000Y111000D02*
X255539D01*
X117750Y174250D02*
Y202750D01*
X229000Y135250D02*
X232500Y138750D01*
X229000Y128000D02*
Y135250D01*
X117750Y174250D02*
X158750Y133250D01*
Y129500D02*
Y133250D01*
X186000Y117500D02*
Y173250D01*
X135750Y119500D02*
X155000Y100250D01*
Y88500D02*
Y100250D01*
Y88500D02*
X161500Y82000D01*
X177500Y91500D02*
X186000D01*
X147500Y134000D02*
X167750Y113750D01*
X158750Y129500D02*
X172250Y116000D01*
Y107250D02*
Y116000D01*
Y107250D02*
X175000Y104500D01*
X186000D01*
X167750Y105386D02*
X175136Y98000D01*
X167750Y105386D02*
Y113750D01*
X175136Y98000D02*
X186000D01*
X178250Y111000D02*
X186000D01*
X176750Y112500D02*
X178250Y111000D01*
X176750Y112500D02*
Y157500D01*
X261500Y91500D02*
X264500Y88500D01*
X280750Y62500D02*
X290000D01*
X284750Y182500D02*
X293000Y174250D01*
Y139000D02*
Y174250D01*
X285750Y131750D02*
X293000Y139000D01*
X255539Y111000D02*
X276289Y131750D01*
X285750D01*
X261500Y169750D02*
X280750D01*
X280636Y195250D02*
X280750D01*
X180800Y19250D02*
X181750Y18300D01*
X171000Y11500D02*
X171000Y11500D01*
Y19250D01*
X171000D02*
X171000D01*
X180800D01*
X171000Y26500D02*
Y41750D01*
Y19250D02*
Y26500D01*
X93000Y41750D02*
X93000Y41750D01*
X93000Y11500D02*
Y40250D01*
Y41750D01*
X209500Y49247D02*
Y68000D01*
X280750Y52958D02*
Y62500D01*
X270292Y42500D02*
X280750Y52958D01*
X203000Y49383D02*
Y68000D01*
X209500Y49247D02*
X219250Y39497D01*
Y33598D02*
Y39497D01*
X203000Y49383D02*
X214750Y37633D01*
Y31734D02*
Y37633D01*
X168250Y82250D02*
X177500Y91500D01*
X161500Y82250D02*
X168250D01*
X171000Y72250D02*
X183000D01*
X183750Y71500D01*
X295000Y91750D02*
Y105000D01*
X280750Y119250D02*
X295000Y105000D01*
X68750Y200000D02*
X76574Y192177D01*
X87677D01*
D23*
X230907Y58250D02*
X240250D01*
X222500Y137235D02*
X226000Y140735D01*
Y141442D01*
X229808Y145250D01*
X243000D01*
X257250Y131000D01*
X222500Y128000D02*
Y137235D01*
X300500Y85324D02*
X303750Y82074D01*
X300500Y85324D02*
Y86250D01*
X303750Y72822D02*
Y82074D01*
X238446Y27638D02*
X245308Y34501D01*
X245500D01*
X231221Y27638D02*
X238446D01*
X226000Y32859D02*
X231221Y27638D01*
X242251Y53750D02*
X245500Y50501D01*
X228250Y53750D02*
X242251D01*
X222500Y59500D02*
X228250Y53750D01*
X222500Y59500D02*
Y68000D01*
X229000Y60157D02*
X230907Y58250D01*
X240250D02*
X259000Y77000D01*
X229000Y60157D02*
Y68000D01*
X259000Y77000D02*
Y77250D01*
X307250Y89000D02*
Y107500D01*
X290500Y129442D02*
X298000Y136942D01*
X290500Y124250D02*
Y129442D01*
X298000Y136942D02*
Y194750D01*
X292750Y200000D02*
X298000Y194750D01*
X96750Y209500D02*
X157250D01*
X155000Y41750D02*
X155500Y42250D01*
X246000Y104500D02*
X264500D01*
X280750Y80250D02*
Y93750D01*
X281250Y78000D02*
X295750D01*
X280750Y78500D02*
X281250Y78000D01*
X226000Y32859D02*
Y41000D01*
X181750Y56250D02*
X182750Y55250D01*
X245500Y50501D02*
X260500D01*
X290500Y124250D02*
X307250Y107500D01*
X79750Y200000D02*
X87250D01*
X96750Y209500D01*
X157250D02*
X169644Y221894D01*
X174850Y229400D02*
X288100D01*
X290000Y227500D01*
X292000D01*
X292750Y200000D02*
Y203500D01*
X169644Y221894D02*
Y224194D01*
X174850Y229400D01*
X161500Y67151D02*
Y82250D01*
Y67151D02*
X172402Y56250D01*
X181750D01*
D24*
X110000Y169500D02*
Y197750D01*
X73500Y76250D02*
Y133000D01*
X75000Y134500D01*
Y142500D01*
X79500Y76250D02*
Y130000D01*
X85000Y135500D01*
Y157500D01*
X91500Y76250D02*
Y144000D01*
X107500Y160000D01*
X117500Y76250D02*
Y115000D01*
X115001Y117499D02*
X117500Y115000D01*
X115001Y117499D02*
Y132500D01*
X110000Y169500D02*
X123500Y156000D01*
Y76250D02*
Y156000D01*
X134750Y202750D02*
X190500D01*
X130750Y198750D02*
X134750Y202750D01*
D25*
X20000Y32500D02*
Y58000D01*
X20000Y58000D01*
D26*
X311494Y218750D02*
X326250Y203994D01*
X117000Y217500D02*
X119500Y220000D01*
X46750Y217500D02*
X117000D01*
X119500Y220000D02*
X147090D01*
X50254Y115256D02*
Y184110D01*
X37115Y197250D02*
X50254Y184110D01*
X26500Y197250D02*
X37115D01*
X20000Y12500D02*
X50070D01*
X326250Y153000D02*
Y174000D01*
Y203994D01*
Y75500D02*
Y153000D01*
X26500Y197250D02*
X46750Y217500D01*
X179500Y221400D02*
X260600D01*
X264500Y217500D01*
D27*
X141500Y22000D02*
D03*
X122500D02*
D03*
D28*
X234000Y35000D02*
D03*
X272000D02*
D03*
X75000Y65000D02*
D03*
X85500Y65500D02*
D03*
X241250Y21250D02*
D03*
X219750Y49500D02*
D03*
X180750Y71500D02*
D03*
X259000Y77000D02*
D03*
X211558Y82169D02*
D03*
X307000Y88500D02*
D03*
X110000Y197750D02*
D03*
X302000Y131750D02*
D03*
X305750Y165750D02*
D03*
X252614Y149000D02*
D03*
X242024Y169500D02*
D03*
X220500Y164320D02*
D03*
X212250Y153500D02*
D03*
X143500Y90000D02*
D03*
X144000Y101000D02*
D03*
X185650Y63750D02*
D03*
X107500Y67500D02*
D03*
X70500Y34000D02*
D03*
X84750Y19000D02*
D03*
X135750Y119500D02*
D03*
X125000Y190000D02*
D03*
Y180000D02*
D03*
X85000Y157500D02*
D03*
X107500Y160000D02*
D03*
X115001Y132500D02*
D03*
X75000Y142500D02*
D03*
X68750Y200000D02*
D03*
X317000Y67000D02*
D03*
X232500Y138750D02*
D03*
Y161500D02*
D03*
X245000Y194999D02*
D03*
X147500Y134000D02*
D03*
X8750Y8750D02*
D03*
X16250D02*
D03*
Y16000D02*
D03*
X8750D02*
D03*
X20000Y58000D02*
D03*
X130750Y198750D02*
D03*
X186000Y173250D02*
D03*
X176750Y157500D02*
D03*
X257250Y131000D02*
D03*
X284750Y182500D02*
D03*
X150900Y117750D02*
D03*
X131250Y109750D02*
D03*
Y100000D02*
D03*
X104584Y106265D02*
D03*
X104488Y94525D02*
D03*
X102500Y130000D02*
D03*
X104012Y85745D02*
D03*
X55750Y91118D02*
D03*
X43250Y91250D02*
D03*
Y102500D02*
D03*
X55750D02*
D03*
X219650Y112680D02*
D03*
X232500Y100000D02*
D03*
X229911Y83500D02*
D03*
X253000Y61000D02*
D03*
X195000Y17500D02*
D03*
X240000Y6568D02*
D03*
X252000Y6750D02*
D03*
X276289Y7000D02*
D03*
X275500Y21500D02*
D03*
X300250Y48250D02*
D03*
X310500Y51500D02*
D03*
X331250Y69500D02*
D03*
X195000Y8750D02*
D03*
X57750Y19500D02*
D03*
X48286Y24750D02*
D03*
X47750Y12000D02*
D03*
X33250Y114395D02*
D03*
X150588Y153500D02*
D03*
X163114Y146610D02*
D03*
X135000Y136637D02*
D03*
X208500Y221250D02*
D03*
X219750D02*
D03*
X229250Y220500D02*
D03*
X263750Y221000D02*
D03*
X273500D02*
D03*
X284379Y220500D02*
D03*
X326250Y174000D02*
D03*
X326603Y162500D02*
D03*
X326250Y153000D02*
D03*
X327422Y145520D02*
D03*
X35250Y205250D02*
D03*
X41750Y191000D02*
D03*
X49848Y178500D02*
D03*
X50254Y158750D02*
D03*
X49634Y145750D02*
D03*
X49848Y127250D02*
D03*
X50245Y117500D02*
D03*
X54500Y215500D02*
D03*
X117326Y216750D02*
D03*
X148000Y220250D02*
D03*
X178000Y220000D02*
D03*
X171000Y19250D02*
D03*
X157000Y60000D02*
D03*
X154751Y75072D02*
D03*
X256871Y90230D02*
D03*
X232000Y14500D02*
D03*
X226000Y41000D02*
D03*
X155500Y51000D02*
D03*
X180500Y55250D02*
D03*
X184750Y47000D02*
D03*
X79750Y200000D02*
D03*
X148500Y227750D02*
D03*
X178500Y211000D02*
D03*
X168250Y210750D02*
D03*
X301250Y218250D02*
D03*
X292000Y227500D02*
D03*
X292750Y203500D02*
D03*
D29*
X198250Y33750D02*
D03*
X308250D02*
D03*
D30*
X280750Y93750D02*
D03*
D31*
Y119250D02*
D03*
Y144250D02*
D03*
Y169750D02*
D03*
Y195250D02*
D03*
D32*
X330500Y43700D02*
D03*
Y18300D02*
D03*
D33*
X171000Y26500D02*
D03*
X155000D02*
D03*
X140000Y26500D02*
D03*
X124000D02*
D03*
X109000Y26500D02*
D03*
X93000D02*
D03*
X109000Y11500D02*
D03*
X93000D02*
D03*
X171000D02*
D03*
X155000D02*
D03*
X140000D02*
D03*
X124000D02*
D03*
X77000Y56750D02*
D03*
X93000D02*
D03*
X155000Y41750D02*
D03*
X171000D02*
D03*
X93000D02*
D03*
X77000D02*
D03*
X295750Y77250D02*
D03*
X311750D02*
D03*
X206500Y202750D02*
D03*
X190500D02*
D03*
D34*
X264500Y90000D02*
D03*
Y106000D02*
D03*
D35*
X280750Y62500D02*
D03*
Y78500D02*
D03*
X260500Y50501D02*
D03*
Y34501D02*
D03*
X245500D02*
D03*
Y50501D02*
D03*
X171000Y72250D02*
D03*
Y56250D02*
D03*
D36*
X216000Y98000D02*
D03*
D37*
X235500Y128000D02*
D03*
X229000D02*
D03*
X222500D02*
D03*
X216000D02*
D03*
X209500D02*
D03*
X203000D02*
D03*
X196500D02*
D03*
Y68000D02*
D03*
X203000D02*
D03*
X209500D02*
D03*
X216000D02*
D03*
X222500D02*
D03*
X229000D02*
D03*
X235500D02*
D03*
D38*
X186000Y117500D02*
D03*
Y111000D02*
D03*
Y104500D02*
D03*
Y98000D02*
D03*
Y91500D02*
D03*
Y85000D02*
D03*
Y78500D02*
D03*
X246000D02*
D03*
Y85000D02*
D03*
Y91500D02*
D03*
Y98000D02*
D03*
Y104500D02*
D03*
Y111000D02*
D03*
Y117500D02*
D03*
D39*
X162250Y159750D02*
D03*
X19750D02*
D03*
D40*
Y105000D02*
D03*
D41*
X162250Y99000D02*
D03*
D42*
X145500Y74750D02*
D03*
D43*
X97500Y76250D02*
D03*
X55500D02*
D03*
X61500Y76250D02*
D03*
X73500Y76250D02*
D03*
X117500D02*
D03*
X67500D02*
D03*
X123500D02*
D03*
X91500D02*
D03*
X79500D02*
D03*
X85500D02*
D03*
D44*
X160250Y225250D02*
D03*
D45*
X22750D02*
D03*
D46*
X43250Y74750D02*
D03*
D47*
X297392Y218750D02*
X311494D01*
X296142Y217500D02*
X297392Y218750D01*
X264500Y217500D02*
X296142D01*
D48*
X155500Y42250D02*
Y51000D01*
M02*
