%FSLAX44Y44*%
%MOMM*%
G71*
G01*
G75*
G04 Layer_Color=8388736*
G04:AMPARAMS|DCode=10|XSize=1mm|YSize=1.2mm|CornerRadius=0.165mm|HoleSize=0mm|Usage=FLASHONLY|Rotation=180.000|XOffset=0mm|YOffset=0mm|HoleType=Round|Shape=RoundedRectangle|*
%AMROUNDEDRECTD10*
21,1,1.0000,0.8700,0,0,180.0*
21,1,0.6700,1.2000,0,0,180.0*
1,1,0.3300,-0.3350,0.4350*
1,1,0.3300,0.3350,0.4350*
1,1,0.3300,0.3350,-0.4350*
1,1,0.3300,-0.3350,-0.4350*
%
%ADD10ROUNDEDRECTD10*%
G04:AMPARAMS|DCode=11|XSize=1.5mm|YSize=3mm|CornerRadius=0.375mm|HoleSize=0mm|Usage=FLASHONLY|Rotation=180.000|XOffset=0mm|YOffset=0mm|HoleType=Round|Shape=RoundedRectangle|*
%AMROUNDEDRECTD11*
21,1,1.5000,2.2500,0,0,180.0*
21,1,0.7500,3.0000,0,0,180.0*
1,1,0.7500,-0.3750,1.1250*
1,1,0.7500,0.3750,1.1250*
1,1,0.7500,0.3750,-1.1250*
1,1,0.7500,-0.3750,-1.1250*
%
%ADD11ROUNDEDRECTD11*%
%ADD12R,0.4000X1.4000*%
G04:AMPARAMS|DCode=13|XSize=1.8mm|YSize=1.9mm|CornerRadius=0.45mm|HoleSize=0mm|Usage=FLASHONLY|Rotation=0.000|XOffset=0mm|YOffset=0mm|HoleType=Round|Shape=RoundedRectangle|*
%AMROUNDEDRECTD13*
21,1,1.8000,1.0000,0,0,0.0*
21,1,0.9000,1.9000,0,0,0.0*
1,1,0.9000,0.4500,-0.5000*
1,1,0.9000,-0.4500,-0.5000*
1,1,0.9000,-0.4500,0.5000*
1,1,0.9000,0.4500,0.5000*
%
%ADD13ROUNDEDRECTD13*%
G04:AMPARAMS|DCode=14|XSize=1.1mm|YSize=0.6mm|CornerRadius=0.201mm|HoleSize=0mm|Usage=FLASHONLY|Rotation=270.000|XOffset=0mm|YOffset=0mm|HoleType=Round|Shape=RoundedRectangle|*
%AMROUNDEDRECTD14*
21,1,1.1000,0.1980,0,0,270.0*
21,1,0.6980,0.6000,0,0,270.0*
1,1,0.4020,-0.0990,-0.3490*
1,1,0.4020,-0.0990,0.3490*
1,1,0.4020,0.0990,0.3490*
1,1,0.4020,0.0990,-0.3490*
%
%ADD14ROUNDEDRECTD14*%
G04:AMPARAMS|DCode=15|XSize=1.1mm|YSize=0.6mm|CornerRadius=0.201mm|HoleSize=0mm|Usage=FLASHONLY|Rotation=180.000|XOffset=0mm|YOffset=0mm|HoleType=Round|Shape=RoundedRectangle|*
%AMROUNDEDRECTD15*
21,1,1.1000,0.1980,0,0,180.0*
21,1,0.6980,0.6000,0,0,180.0*
1,1,0.4020,-0.3490,0.0990*
1,1,0.4020,0.3490,0.0990*
1,1,0.4020,0.3490,-0.0990*
1,1,0.4020,-0.3490,-0.0990*
%
%ADD15ROUNDEDRECTD15*%
%ADD16O,1.8000X0.8000*%
%ADD17O,1.0000X2.5000*%
G04:AMPARAMS|DCode=18|XSize=1.5mm|YSize=3mm|CornerRadius=0.375mm|HoleSize=0mm|Usage=FLASHONLY|Rotation=270.000|XOffset=0mm|YOffset=0mm|HoleType=Round|Shape=RoundedRectangle|*
%AMROUNDEDRECTD18*
21,1,1.5000,2.2500,0,0,270.0*
21,1,0.7500,3.0000,0,0,270.0*
1,1,0.7500,-1.1250,-0.3750*
1,1,0.7500,-1.1250,0.3750*
1,1,0.7500,1.1250,0.3750*
1,1,0.7500,1.1250,-0.3750*
%
%ADD18ROUNDEDRECTD18*%
%ADD19O,2.5000X0.7000*%
%ADD20O,0.7000X2.5000*%
%ADD21C,0.4000*%
%ADD22C,0.2500*%
%ADD23C,0.2000*%
%ADD24C,0.3500*%
%ADD25C,0.7000*%
%ADD26C,1.0000*%
%ADD27C,0.8000*%
%ADD28C,0.7000*%
%ADD29C,2.0000*%
%ADD30R,1.3000X1.3000*%
%ADD31C,1.3000*%
%ADD32C,1.8500*%
G04:AMPARAMS|DCode=33|XSize=1mm|YSize=0.95mm|CornerRadius=0.1995mm|HoleSize=0mm|Usage=FLASHONLY|Rotation=90.000|XOffset=0mm|YOffset=0mm|HoleType=Round|Shape=RoundedRectangle|*
%AMROUNDEDRECTD33*
21,1,1.0000,0.5510,0,0,90.0*
21,1,0.6010,0.9500,0,0,90.0*
1,1,0.3990,0.2755,0.3005*
1,1,0.3990,0.2755,-0.3005*
1,1,0.3990,-0.2755,-0.3005*
1,1,0.3990,-0.2755,0.3005*
%
%ADD33ROUNDEDRECTD33*%
G04:AMPARAMS|DCode=34|XSize=1mm|YSize=0.95mm|CornerRadius=0.1995mm|HoleSize=0mm|Usage=FLASHONLY|Rotation=180.000|XOffset=0mm|YOffset=0mm|HoleType=Round|Shape=RoundedRectangle|*
%AMROUNDEDRECTD34*
21,1,1.0000,0.5510,0,0,180.0*
21,1,0.6010,0.9500,0,0,180.0*
1,1,0.3990,-0.3005,0.2755*
1,1,0.3990,0.3005,0.2755*
1,1,0.3990,0.3005,-0.2755*
1,1,0.3990,-0.3005,-0.2755*
%
%ADD34ROUNDEDRECTD34*%
G04:AMPARAMS|DCode=35|XSize=1mm|YSize=0.9mm|CornerRadius=0.198mm|HoleSize=0mm|Usage=FLASHONLY|Rotation=0.000|XOffset=0mm|YOffset=0mm|HoleType=Round|Shape=RoundedRectangle|*
%AMROUNDEDRECTD35*
21,1,1.0000,0.5040,0,0,0.0*
21,1,0.6040,0.9000,0,0,0.0*
1,1,0.3960,0.3020,-0.2520*
1,1,0.3960,-0.3020,-0.2520*
1,1,0.3960,-0.3020,0.2520*
1,1,0.3960,0.3020,0.2520*
%
%ADD35ROUNDEDRECTD35*%
%ADD36R,4.0000X4.0000*%
%ADD37O,0.4000X1.1000*%
%ADD38O,1.1000X0.4000*%
G04:AMPARAMS|DCode=39|XSize=0.375mm|YSize=1.5mm|CornerRadius=0.0825mm|HoleSize=0mm|Usage=FLASHONLY|Rotation=0.000|XOffset=0mm|YOffset=0mm|HoleType=Round|Shape=RoundedRectangle|*
%AMROUNDEDRECTD39*
21,1,0.3750,1.3350,0,0,0.0*
21,1,0.2100,1.5000,0,0,0.0*
1,1,0.1650,0.1050,-0.6675*
1,1,0.1650,-0.1050,-0.6675*
1,1,0.1650,-0.1050,0.6675*
1,1,0.1650,0.1050,0.6675*
%
%ADD39ROUNDEDRECTD39*%
G04:AMPARAMS|DCode=40|XSize=0.375mm|YSize=1.25mm|CornerRadius=0.0825mm|HoleSize=0mm|Usage=FLASHONLY|Rotation=0.000|XOffset=0mm|YOffset=0mm|HoleType=Round|Shape=RoundedRectangle|*
%AMROUNDEDRECTD40*
21,1,0.3750,1.0850,0,0,0.0*
21,1,0.2100,1.2500,0,0,0.0*
1,1,0.1650,0.1050,-0.5425*
1,1,0.1650,-0.1050,-0.5425*
1,1,0.1650,-0.1050,0.5425*
1,1,0.1650,0.1050,0.5425*
%
%ADD40ROUNDEDRECTD40*%
G04:AMPARAMS|DCode=41|XSize=0.375mm|YSize=1.6mm|CornerRadius=0.0825mm|HoleSize=0mm|Usage=FLASHONLY|Rotation=0.000|XOffset=0mm|YOffset=0mm|HoleType=Round|Shape=RoundedRectangle|*
%AMROUNDEDRECTD41*
21,1,0.3750,1.4350,0,0,0.0*
21,1,0.2100,1.6000,0,0,0.0*
1,1,0.1650,0.1050,-0.7175*
1,1,0.1650,-0.1050,-0.7175*
1,1,0.1650,-0.1050,0.7175*
1,1,0.1650,0.1050,0.7175*
%
%ADD41ROUNDEDRECTD41*%
G04:AMPARAMS|DCode=42|XSize=1.1mm|YSize=0.9mm|CornerRadius=0.3015mm|HoleSize=0mm|Usage=FLASHONLY|Rotation=270.000|XOffset=0mm|YOffset=0mm|HoleType=Round|Shape=RoundedRectangle|*
%AMROUNDEDRECTD42*
21,1,1.1000,0.2970,0,0,270.0*
21,1,0.4970,0.9000,0,0,270.0*
1,1,0.6030,-0.1485,-0.2485*
1,1,0.6030,-0.1485,0.2485*
1,1,0.6030,0.1485,0.2485*
1,1,0.6030,0.1485,-0.2485*
%
%ADD42ROUNDEDRECTD42*%
G04:AMPARAMS|DCode=43|XSize=1mm|YSize=0.4mm|CornerRadius=0.1mm|HoleSize=0mm|Usage=FLASHONLY|Rotation=270.000|XOffset=0mm|YOffset=0mm|HoleType=Round|Shape=RoundedRectangle|*
%AMROUNDEDRECTD43*
21,1,1.0000,0.2000,0,0,270.0*
21,1,0.8000,0.4000,0,0,270.0*
1,1,0.2000,-0.1000,-0.4000*
1,1,0.2000,-0.1000,0.4000*
1,1,0.2000,0.1000,0.4000*
1,1,0.2000,0.1000,-0.4000*
%
%ADD43ROUNDEDRECTD43*%
G04:AMPARAMS|DCode=44|XSize=0.75mm|YSize=1.1mm|CornerRadius=0.165mm|HoleSize=0mm|Usage=FLASHONLY|Rotation=0.000|XOffset=0mm|YOffset=0mm|HoleType=Round|Shape=RoundedRectangle|*
%AMROUNDEDRECTD44*
21,1,0.7500,0.7700,0,0,0.0*
21,1,0.4200,1.1000,0,0,0.0*
1,1,0.3300,0.2100,-0.3850*
1,1,0.3300,-0.2100,-0.3850*
1,1,0.3300,-0.2100,0.3850*
1,1,0.3300,0.2100,0.3850*
%
%ADD44ROUNDEDRECTD44*%
G04:AMPARAMS|DCode=45|XSize=1mm|YSize=1.1mm|CornerRadius=0.165mm|HoleSize=0mm|Usage=FLASHONLY|Rotation=0.000|XOffset=0mm|YOffset=0mm|HoleType=Round|Shape=RoundedRectangle|*
%AMROUNDEDRECTD45*
21,1,1.0000,0.7700,0,0,0.0*
21,1,0.6700,1.1000,0,0,0.0*
1,1,0.3300,0.3350,-0.3850*
1,1,0.3300,-0.3350,-0.3850*
1,1,0.3300,-0.3350,0.3850*
1,1,0.3300,0.3350,0.3850*
%
%ADD45ROUNDEDRECTD45*%
G04:AMPARAMS|DCode=46|XSize=1.1mm|YSize=0.75mm|CornerRadius=0.2512mm|HoleSize=0mm|Usage=FLASHONLY|Rotation=270.000|XOffset=0mm|YOffset=0mm|HoleType=Round|Shape=RoundedRectangle|*
%AMROUNDEDRECTD46*
21,1,1.1000,0.2475,0,0,270.0*
21,1,0.5975,0.7500,0,0,270.0*
1,1,0.5025,-0.1238,-0.2988*
1,1,0.5025,-0.1238,0.2988*
1,1,0.5025,0.1238,0.2988*
1,1,0.5025,0.1238,-0.2988*
%
%ADD46ROUNDEDRECTD46*%
%ADD47C,0.9000*%
%ADD48C,0.5000*%
%ADD49C,0.2540*%
%ADD50C,0.1000*%
G04:AMPARAMS|DCode=51|XSize=1.15mm|YSize=1.35mm|CornerRadius=0.24mm|HoleSize=0mm|Usage=FLASHONLY|Rotation=180.000|XOffset=0mm|YOffset=0mm|HoleType=Round|Shape=RoundedRectangle|*
%AMROUNDEDRECTD51*
21,1,1.1500,0.8700,0,0,180.0*
21,1,0.6700,1.3500,0,0,180.0*
1,1,0.4800,-0.3350,0.4350*
1,1,0.4800,0.3350,0.4350*
1,1,0.4800,0.3350,-0.4350*
1,1,0.4800,-0.3350,-0.4350*
%
%ADD51ROUNDEDRECTD51*%
G04:AMPARAMS|DCode=52|XSize=1.7032mm|YSize=3.2032mm|CornerRadius=0.4766mm|HoleSize=0mm|Usage=FLASHONLY|Rotation=180.000|XOffset=0mm|YOffset=0mm|HoleType=Round|Shape=RoundedRectangle|*
%AMROUNDEDRECTD52*
21,1,1.7032,2.2500,0,0,180.0*
21,1,0.7500,3.2032,0,0,180.0*
1,1,0.9532,-0.3750,1.1250*
1,1,0.9532,0.3750,1.1250*
1,1,0.9532,0.3750,-1.1250*
1,1,0.9532,-0.3750,-1.1250*
%
%ADD52ROUNDEDRECTD52*%
%ADD53R,0.6032X1.6032*%
G04:AMPARAMS|DCode=54|XSize=2.0032mm|YSize=2.1032mm|CornerRadius=0.5516mm|HoleSize=0mm|Usage=FLASHONLY|Rotation=0.000|XOffset=0mm|YOffset=0mm|HoleType=Round|Shape=RoundedRectangle|*
%AMROUNDEDRECTD54*
21,1,2.0032,1.0000,0,0,0.0*
21,1,0.9000,2.1032,0,0,0.0*
1,1,1.1032,0.4500,-0.5000*
1,1,1.1032,-0.4500,-0.5000*
1,1,1.1032,-0.4500,0.5000*
1,1,1.1032,0.4500,0.5000*
%
%ADD54ROUNDEDRECTD54*%
G04:AMPARAMS|DCode=55|XSize=1.25mm|YSize=0.75mm|CornerRadius=0.276mm|HoleSize=0mm|Usage=FLASHONLY|Rotation=270.000|XOffset=0mm|YOffset=0mm|HoleType=Round|Shape=RoundedRectangle|*
%AMROUNDEDRECTD55*
21,1,1.2500,0.1980,0,0,270.0*
21,1,0.6980,0.7500,0,0,270.0*
1,1,0.5520,-0.0990,-0.3490*
1,1,0.5520,-0.0990,0.3490*
1,1,0.5520,0.0990,0.3490*
1,1,0.5520,0.0990,-0.3490*
%
%ADD55ROUNDEDRECTD55*%
G04:AMPARAMS|DCode=56|XSize=1.25mm|YSize=0.75mm|CornerRadius=0.276mm|HoleSize=0mm|Usage=FLASHONLY|Rotation=180.000|XOffset=0mm|YOffset=0mm|HoleType=Round|Shape=RoundedRectangle|*
%AMROUNDEDRECTD56*
21,1,1.2500,0.1980,0,0,180.0*
21,1,0.6980,0.7500,0,0,180.0*
1,1,0.5520,-0.3490,0.0990*
1,1,0.5520,0.3490,0.0990*
1,1,0.5520,0.3490,-0.0990*
1,1,0.5520,-0.3490,-0.0990*
%
%ADD56ROUNDEDRECTD56*%
%ADD57O,1.9500X0.9500*%
%ADD58O,1.1500X2.6500*%
G04:AMPARAMS|DCode=59|XSize=1.7032mm|YSize=3.2032mm|CornerRadius=0.4766mm|HoleSize=0mm|Usage=FLASHONLY|Rotation=270.000|XOffset=0mm|YOffset=0mm|HoleType=Round|Shape=RoundedRectangle|*
%AMROUNDEDRECTD59*
21,1,1.7032,2.2500,0,0,270.0*
21,1,0.7500,3.2032,0,0,270.0*
1,1,0.9532,-1.1250,-0.3750*
1,1,0.9532,-1.1250,0.3750*
1,1,0.9532,1.1250,0.3750*
1,1,0.9532,1.1250,-0.3750*
%
%ADD59ROUNDEDRECTD59*%
%ADD60O,2.6500X0.8500*%
%ADD61O,0.8500X2.6500*%
%ADD62C,1.0032*%
%ADD63C,0.9032*%
%ADD64C,2.2032*%
%ADD65R,1.5032X1.5032*%
%ADD66C,1.5032*%
D29*
X330500Y43700D02*
D03*
Y18300D02*
D03*
D51*
X139500Y20000D02*
D03*
X124500D02*
D03*
D52*
X32500D02*
D03*
X12500D02*
D03*
D53*
X253000Y41000D02*
D03*
X246500D02*
D03*
X259500D02*
D03*
X240000D02*
D03*
X266000D02*
D03*
D54*
X213000Y14500D02*
D03*
X293000D02*
D03*
D55*
X179250Y36250D02*
D03*
X169750D02*
D03*
X160250D02*
D03*
Y10250D02*
D03*
X179250D02*
D03*
D56*
X104250Y8500D02*
D03*
Y18000D02*
D03*
Y27500D02*
D03*
X78250D02*
D03*
Y8500D02*
D03*
D57*
X300250Y185999D02*
D03*
Y119999D02*
D03*
Y108999D02*
D03*
Y97999D02*
D03*
X203250D02*
D03*
Y108999D02*
D03*
Y130999D02*
D03*
Y163999D02*
D03*
Y174999D02*
D03*
Y185999D02*
D03*
D58*
X194250Y67750D02*
D03*
X219650D02*
D03*
X245050D02*
D03*
X270450D02*
D03*
X295850D02*
D03*
X321250Y217750D02*
D03*
X245050D02*
D03*
X194250D02*
D03*
D59*
X327500Y109000D02*
D03*
Y129000D02*
D03*
Y89000D02*
D03*
D60*
X165000Y200000D02*
D03*
Y189000D02*
D03*
Y178000D02*
D03*
Y167000D02*
D03*
Y134000D02*
D03*
Y101000D02*
D03*
Y90000D02*
D03*
X17000Y68000D02*
D03*
Y79000D02*
D03*
Y156000D02*
D03*
D61*
X135000Y217500D02*
D03*
X102000D02*
D03*
X91000Y217500D02*
D03*
X69000Y217500D02*
D03*
X47000Y50500D02*
D03*
X58000D02*
D03*
X91000D02*
D03*
X102000D02*
D03*
X113000D02*
D03*
X124000D02*
D03*
X135000D02*
D03*
X80000Y217500D02*
D03*
D62*
X141500Y22000D02*
D03*
X122500D02*
D03*
D63*
X234000Y35000D02*
D03*
X272000D02*
D03*
D64*
X198250Y33750D02*
D03*
X308250D02*
D03*
D65*
X280750Y93750D02*
D03*
D66*
Y119250D02*
D03*
Y144250D02*
D03*
Y169750D02*
D03*
Y195250D02*
D03*
M02*
