M48
;Layer_Color=9474304
;FILE_FORMAT=4:4
METRIC,LZ
;TYPE=PLATED
T2F00S00C0.5000
T3F00S00C0.6500
T4F00S00C0.8000
T5F00S00C0.8500
T6F00S00C0.9000
T7F00S00C1.1500
T8F00S00C1.4000
%
T02
X00008Y00028
X00051532Y000215
X00109219Y00024446
X00115323Y0007488
X00114175Y0008688
X001165Y0011038
X0011593Y00120976
X00058899Y0011963
X00055705Y00133718
X0000775Y001385
X00007697Y0008325
X00026811Y0006
X00075975Y0009163
X0015375Y00089
X001578Y0006895
X001665Y0010275
X0015675Y0012
X001575Y00141
X0017425Y0012825
X0023975Y0012
X0024325Y0010705
X0025425Y0010125
X002625Y000865
X002545Y0007675
X0023975Y0008175
X002412Y0006895
X0028Y0007
X003
X0031Y0009
X0029
Y0011
X0034Y0012
Y0014
X0032
X0039
Y0012
Y001
Y0008
Y0006
Y0004
X0036Y0003
X003
Y0001
X0032
Y0005
X0033Y0007
X0028Y0005
X0026Y0003
X0024Y0001
X00215794Y0005
X001975Y0005975
X001925Y000415
X0017875Y0014775
X00162Y001505
X001585Y0016675
X00191Y001905
X002125Y0020875
X00234Y002075
X0023075Y0019275
X0024375Y001925
X002575Y0019275
X002655Y001775
X0024325Y00166
X00228491Y00149
X0022425Y0018175
X0022Y0022538
X002
X0018
X0014675Y00225526
X0024Y0022538
X0026
X0028Y0024038
Y0026038
Y0028038
Y0030038
X0034975Y0027975
X00343Y0026
X0032775Y00248
X0031275Y002135
X00283023Y0021125
X0029125Y00192
X002985Y001625
X0030675Y001525
X00325021Y00157605
X00316Y0016975
X0035535Y0019185
X00355Y002235
X0039Y0023038
Y0019038
Y0016
Y0027038
X003735Y00259
X0037375Y0030325
X0039Y003
X0011Y0022538
X0009
X00075
X0002Y00225
Y0024038
Y0026038
Y0028038
Y0030038
X0001Y0020038
Y0018038
X00055Y00153513
X0007175Y0015925
X000995
X0011825Y0017175
T03
X000655Y00021
X000845
X0008775Y00098499
X0010675
T04
X00366Y00227
Y00265
T05
X001511Y00014
X001765
X002019
T06
X00366Y000475
Y00073
Y00098
Y001235
Y00149
T07
X0030255Y00291
X0032795
T08
X00338Y000388
Y001788
M30
