M48
;Layer_Color=9474304
;FILE_FORMAT=4:4
METRIC,LZ
;TYPE=PLATED
T1F00S00C0.3500
T2F00S00C0.5000
T3F00S00C0.8000
T4F00S00C1.1500
T5F00S00C2.0000
%
T01
X0000875Y0000875
Y00016
X0001625
Y0000875
X0004775Y00012
X00048286Y0002475
X0005775Y000195
X000705Y00034
X0008475Y00019
X000855Y000655
X00075Y00065
X001075Y000675
X00104012Y00085745
X00104488Y00094525
X00104584Y00106265
X001025Y0013
X00115001Y001325
X0013125Y0010975
Y001
X0005575Y001025
Y00091118
X0004325Y0009125
Y001025
X0003325Y00114395
X00050245Y001175
X00049848Y0012725
X00075Y001425
X0002Y00058
X00157Y0006
X001555Y00051
X00154751Y00075072
X001435Y0009
X00144Y00101
X001509Y0011775
X0013575Y001195
X00135Y00136637
X001475Y00134
X002325Y0013875
X0025725Y00131
X00256871Y0009023
X00259Y00077
X00253Y00061
X0021975Y000495
X00226Y00041
X00232Y000145
X0024Y00006568
X00252Y0000675
X00276289Y00007
X002755Y000215
X0024125Y0002125
X00195Y000175
Y0000875
X00171Y0001925
X0018475Y00047
X001805Y0005525
X0018565Y0006375
X0018075Y000715
X00211558Y00082169
X00229911Y000835
X002325Y001
X0021965Y0011268
X00302Y0013175
X00307Y000885
X00317Y00067
X0033125Y000695
X003105Y000515
X0030025Y0004825
X0030575Y0016575
X00326603Y001625
X0032625Y00153
X00327422Y0014552
X0032625Y00174
X0028475Y001825
X0029275Y002035
X0030125Y0021825
X00292Y002275
X00284379Y002205
X002735Y00221
X0026375
X0022925Y002205
X0021975Y0022125
X002085
X00178Y0022
X001785Y00211
X0016825Y0021075
X00148Y0022025
X001485Y0022775
X00150588Y001535
X00163114Y0014661
X0017675Y001575
X00186Y0017325
X002205Y0016432
X002325Y001615
X00242024Y001695
X00245Y00194999
X00252614Y00149
X0021225Y001535
X001075Y0016
X00085Y001575
X00050254Y0015875
X00049634Y0014575
X00049848Y001785
X0004175Y00191
X0003525Y0020525
X000545Y002155
X0006875Y002
X0007975
X0011Y0019775
X0013075Y0019875
X00125Y0019
Y0018
X00117326Y0021675
T02
X001225Y00022
X001415
T03
X00234Y00035
X00272
X0028075Y0009375
Y0011925
Y0014425
Y0016975
Y0019525
T04
X003305Y000183
Y000437
T05
X0019825Y0003375
X0030825
M30
