%FSLAX44Y44*%
%MOMM*%
G71*
G01*
G75*
G04 Layer_Physical_Order=2*
G04 Layer_Color=16711680*
G04:AMPARAMS|DCode=10|XSize=0.7mm|YSize=2.5mm|CornerRadius=0.175mm|HoleSize=0mm|Usage=FLASHONLY|Rotation=0.000|XOffset=0mm|YOffset=0mm|HoleType=Round|Shape=RoundedRectangle|*
%AMROUNDEDRECTD10*
21,1,0.7000,2.1500,0,0,0.0*
21,1,0.3500,2.5000,0,0,0.0*
1,1,0.3500,0.1750,-1.0750*
1,1,0.3500,-0.1750,-1.0750*
1,1,0.3500,-0.1750,1.0750*
1,1,0.3500,0.1750,1.0750*
%
%ADD10ROUNDEDRECTD10*%
G04:AMPARAMS|DCode=11|XSize=2.5mm|YSize=2.5mm|CornerRadius=0.625mm|HoleSize=0mm|Usage=FLASHONLY|Rotation=0.000|XOffset=0mm|YOffset=0mm|HoleType=Round|Shape=RoundedRectangle|*
%AMROUNDEDRECTD11*
21,1,2.5000,1.2500,0,0,0.0*
21,1,1.2500,2.5000,0,0,0.0*
1,1,1.2500,0.6250,-0.6250*
1,1,1.2500,-0.6250,-0.6250*
1,1,1.2500,-0.6250,0.6250*
1,1,1.2500,0.6250,0.6250*
%
%ADD11ROUNDEDRECTD11*%
G04:AMPARAMS|DCode=12|XSize=0.7mm|YSize=2.5mm|CornerRadius=0.175mm|HoleSize=0mm|Usage=FLASHONLY|Rotation=270.000|XOffset=0mm|YOffset=0mm|HoleType=Round|Shape=RoundedRectangle|*
%AMROUNDEDRECTD12*
21,1,0.7000,2.1500,0,0,270.0*
21,1,0.3500,2.5000,0,0,270.0*
1,1,0.3500,-1.0750,-0.1750*
1,1,0.3500,-1.0750,0.1750*
1,1,0.3500,1.0750,0.1750*
1,1,0.3500,1.0750,-0.1750*
%
%ADD12ROUNDEDRECTD12*%
G04:AMPARAMS|DCode=13|XSize=0.8mm|YSize=1mm|CornerRadius=0.2mm|HoleSize=0mm|Usage=FLASHONLY|Rotation=180.000|XOffset=0mm|YOffset=0mm|HoleType=Round|Shape=RoundedRectangle|*
%AMROUNDEDRECTD13*
21,1,0.8000,0.6000,0,0,180.0*
21,1,0.4000,1.0000,0,0,180.0*
1,1,0.4000,-0.2000,0.3000*
1,1,0.4000,0.2000,0.3000*
1,1,0.4000,0.2000,-0.3000*
1,1,0.4000,-0.2000,-0.3000*
%
%ADD13ROUNDEDRECTD13*%
G04:AMPARAMS|DCode=14|XSize=1mm|YSize=2mm|CornerRadius=0.25mm|HoleSize=0mm|Usage=FLASHONLY|Rotation=180.000|XOffset=0mm|YOffset=0mm|HoleType=Round|Shape=RoundedRectangle|*
%AMROUNDEDRECTD14*
21,1,1.0000,1.5000,0,0,180.0*
21,1,0.5000,2.0000,0,0,180.0*
1,1,0.5000,-0.2500,0.7500*
1,1,0.5000,0.2500,0.7500*
1,1,0.5000,0.2500,-0.7500*
1,1,0.5000,-0.2500,-0.7500*
%
%ADD14ROUNDEDRECTD14*%
G04:AMPARAMS|DCode=15|XSize=4.1mm|YSize=2.1mm|CornerRadius=0.1995mm|HoleSize=0mm|Usage=FLASHONLY|Rotation=90.000|XOffset=0mm|YOffset=0mm|HoleType=Round|Shape=RoundedRectangle|*
%AMROUNDEDRECTD15*
21,1,4.1000,1.7010,0,0,90.0*
21,1,3.7010,2.1000,0,0,90.0*
1,1,0.3990,0.8505,1.8505*
1,1,0.3990,0.8505,-1.8505*
1,1,0.3990,-0.8505,-1.8505*
1,1,0.3990,-0.8505,1.8505*
%
%ADD15ROUNDEDRECTD15*%
G04:AMPARAMS|DCode=16|XSize=3.95mm|YSize=1.2mm|CornerRadius=0.198mm|HoleSize=0mm|Usage=FLASHONLY|Rotation=270.000|XOffset=0mm|YOffset=0mm|HoleType=Round|Shape=RoundedRectangle|*
%AMROUNDEDRECTD16*
21,1,3.9500,0.8040,0,0,270.0*
21,1,3.5540,1.2000,0,0,270.0*
1,1,0.3960,-0.4020,-1.7770*
1,1,0.3960,-0.4020,1.7770*
1,1,0.3960,0.4020,1.7770*
1,1,0.3960,0.4020,-1.7770*
%
%ADD16ROUNDEDRECTD16*%
G04:AMPARAMS|DCode=17|XSize=11.3mm|YSize=10.75mm|CornerRadius=0.215mm|HoleSize=0mm|Usage=FLASHONLY|Rotation=270.000|XOffset=0mm|YOffset=0mm|HoleType=Round|Shape=RoundedRectangle|*
%AMROUNDEDRECTD17*
21,1,11.3000,10.3200,0,0,270.0*
21,1,10.8700,10.7500,0,0,270.0*
1,1,0.4300,-5.1600,-5.4350*
1,1,0.4300,-5.1600,5.4350*
1,1,0.4300,5.1600,5.4350*
1,1,0.4300,5.1600,-5.4350*
%
%ADD17ROUNDEDRECTD17*%
G04:AMPARAMS|DCode=18|XSize=1.1mm|YSize=0.7mm|CornerRadius=0.2345mm|HoleSize=0mm|Usage=FLASHONLY|Rotation=270.000|XOffset=0mm|YOffset=0mm|HoleType=Round|Shape=RoundedRectangle|*
%AMROUNDEDRECTD18*
21,1,1.1000,0.2310,0,0,270.0*
21,1,0.6310,0.7000,0,0,270.0*
1,1,0.4690,-0.1155,-0.3155*
1,1,0.4690,-0.1155,0.3155*
1,1,0.4690,0.1155,0.3155*
1,1,0.4690,0.1155,-0.3155*
%
%ADD18ROUNDEDRECTD18*%
G04:AMPARAMS|DCode=19|XSize=1.1mm|YSize=0.6mm|CornerRadius=0.201mm|HoleSize=0mm|Usage=FLASHONLY|Rotation=270.000|XOffset=0mm|YOffset=0mm|HoleType=Round|Shape=RoundedRectangle|*
%AMROUNDEDRECTD19*
21,1,1.1000,0.1980,0,0,270.0*
21,1,0.6980,0.6000,0,0,270.0*
1,1,0.4020,-0.0990,-0.3490*
1,1,0.4020,-0.0990,0.3490*
1,1,0.4020,0.0990,0.3490*
1,1,0.4020,0.0990,-0.3490*
%
%ADD19ROUNDEDRECTD19*%
G04:AMPARAMS|DCode=20|XSize=1.05mm|YSize=0.65mm|CornerRadius=0.2015mm|HoleSize=0mm|Usage=FLASHONLY|Rotation=90.000|XOffset=0mm|YOffset=0mm|HoleType=Round|Shape=RoundedRectangle|*
%AMROUNDEDRECTD20*
21,1,1.0500,0.2470,0,0,90.0*
21,1,0.6470,0.6500,0,0,90.0*
1,1,0.4030,0.1235,0.3235*
1,1,0.4030,0.1235,-0.3235*
1,1,0.4030,-0.1235,-0.3235*
1,1,0.4030,-0.1235,0.3235*
%
%ADD20ROUNDEDRECTD20*%
G04:AMPARAMS|DCode=21|XSize=1.75mm|YSize=1.05mm|CornerRadius=0.1995mm|HoleSize=0mm|Usage=FLASHONLY|Rotation=180.000|XOffset=0mm|YOffset=0mm|HoleType=Round|Shape=RoundedRectangle|*
%AMROUNDEDRECTD21*
21,1,1.7500,0.6510,0,0,180.0*
21,1,1.3510,1.0500,0,0,180.0*
1,1,0.3990,-0.6755,0.3255*
1,1,0.3990,0.6755,0.3255*
1,1,0.3990,0.6755,-0.3255*
1,1,0.3990,-0.6755,-0.3255*
%
%ADD21ROUNDEDRECTD21*%
G04:AMPARAMS|DCode=22|XSize=1.75mm|YSize=1.05mm|CornerRadius=0.1995mm|HoleSize=0mm|Usage=FLASHONLY|Rotation=90.000|XOffset=0mm|YOffset=0mm|HoleType=Round|Shape=RoundedRectangle|*
%AMROUNDEDRECTD22*
21,1,1.7500,0.6510,0,0,90.0*
21,1,1.3510,1.0500,0,0,90.0*
1,1,0.3990,0.3255,0.6755*
1,1,0.3990,0.3255,-0.6755*
1,1,0.3990,-0.3255,-0.6755*
1,1,0.3990,-0.3255,0.6755*
%
%ADD22ROUNDEDRECTD22*%
G04:AMPARAMS|DCode=23|XSize=2.7mm|YSize=1.2mm|CornerRadius=0.21mm|HoleSize=0mm|Usage=FLASHONLY|Rotation=180.000|XOffset=0mm|YOffset=0mm|HoleType=Round|Shape=RoundedRectangle|*
%AMROUNDEDRECTD23*
21,1,2.7000,0.7800,0,0,180.0*
21,1,2.2800,1.2000,0,0,180.0*
1,1,0.4200,-1.1400,0.3900*
1,1,0.4200,1.1400,0.3900*
1,1,0.4200,1.1400,-0.3900*
1,1,0.4200,-1.1400,-0.3900*
%
%ADD23ROUNDEDRECTD23*%
G04:AMPARAMS|DCode=24|XSize=2.5mm|YSize=1.7mm|CornerRadius=0.204mm|HoleSize=0mm|Usage=FLASHONLY|Rotation=0.000|XOffset=0mm|YOffset=0mm|HoleType=Round|Shape=RoundedRectangle|*
%AMROUNDEDRECTD24*
21,1,2.5000,1.2920,0,0,0.0*
21,1,2.0920,1.7000,0,0,0.0*
1,1,0.4080,1.0460,-0.6460*
1,1,0.4080,-1.0460,-0.6460*
1,1,0.4080,-1.0460,0.6460*
1,1,0.4080,1.0460,0.6460*
%
%ADD24ROUNDEDRECTD24*%
G04:AMPARAMS|DCode=25|XSize=1.2mm|YSize=1.2mm|CornerRadius=0.198mm|HoleSize=0mm|Usage=FLASHONLY|Rotation=270.000|XOffset=0mm|YOffset=0mm|HoleType=Round|Shape=RoundedRectangle|*
%AMROUNDEDRECTD25*
21,1,1.2000,0.8040,0,0,270.0*
21,1,0.8040,1.2000,0,0,270.0*
1,1,0.3960,-0.4020,-0.4020*
1,1,0.3960,-0.4020,0.4020*
1,1,0.3960,0.4020,0.4020*
1,1,0.3960,0.4020,-0.4020*
%
%ADD25ROUNDEDRECTD25*%
G04:AMPARAMS|DCode=26|XSize=1.2mm|YSize=1.2mm|CornerRadius=0.198mm|HoleSize=0mm|Usage=FLASHONLY|Rotation=0.000|XOffset=0mm|YOffset=0mm|HoleType=Round|Shape=RoundedRectangle|*
%AMROUNDEDRECTD26*
21,1,1.2000,0.8040,0,0,0.0*
21,1,0.8040,1.2000,0,0,0.0*
1,1,0.3960,0.4020,-0.4020*
1,1,0.3960,-0.4020,-0.4020*
1,1,0.3960,-0.4020,0.4020*
1,1,0.3960,0.4020,0.4020*
%
%ADD26ROUNDEDRECTD26*%
G04:AMPARAMS|DCode=27|XSize=2.5mm|YSize=2mm|CornerRadius=0.2mm|HoleSize=0mm|Usage=FLASHONLY|Rotation=90.000|XOffset=0mm|YOffset=0mm|HoleType=Round|Shape=RoundedRectangle|*
%AMROUNDEDRECTD27*
21,1,2.5000,1.6000,0,0,90.0*
21,1,2.1000,2.0000,0,0,90.0*
1,1,0.4000,0.8000,1.0500*
1,1,0.4000,0.8000,-1.0500*
1,1,0.4000,-0.8000,-1.0500*
1,1,0.4000,-0.8000,1.0500*
%
%ADD27ROUNDEDRECTD27*%
G04:AMPARAMS|DCode=28|XSize=2.3mm|YSize=0.5mm|CornerRadius=0.2mm|HoleSize=0mm|Usage=FLASHONLY|Rotation=90.000|XOffset=0mm|YOffset=0mm|HoleType=Round|Shape=RoundedRectangle|*
%AMROUNDEDRECTD28*
21,1,2.3000,0.1000,0,0,90.0*
21,1,1.9000,0.5000,0,0,90.0*
1,1,0.4000,0.0500,0.9500*
1,1,0.4000,0.0500,-0.9500*
1,1,0.4000,-0.0500,-0.9500*
1,1,0.4000,-0.0500,0.9500*
%
%ADD28ROUNDEDRECTD28*%
G04:AMPARAMS|DCode=29|XSize=1mm|YSize=0.95mm|CornerRadius=0.1995mm|HoleSize=0mm|Usage=FLASHONLY|Rotation=90.000|XOffset=0mm|YOffset=0mm|HoleType=Round|Shape=RoundedRectangle|*
%AMROUNDEDRECTD29*
21,1,1.0000,0.5510,0,0,90.0*
21,1,0.6010,0.9500,0,0,90.0*
1,1,0.3990,0.2755,0.3005*
1,1,0.3990,0.2755,-0.3005*
1,1,0.3990,-0.2755,-0.3005*
1,1,0.3990,-0.2755,0.3005*
%
%ADD29ROUNDEDRECTD29*%
G04:AMPARAMS|DCode=30|XSize=1.1mm|YSize=0.6mm|CornerRadius=0.201mm|HoleSize=0mm|Usage=FLASHONLY|Rotation=0.000|XOffset=0mm|YOffset=0mm|HoleType=Round|Shape=RoundedRectangle|*
%AMROUNDEDRECTD30*
21,1,1.1000,0.1980,0,0,0.0*
21,1,0.6980,0.6000,0,0,0.0*
1,1,0.4020,0.3490,-0.0990*
1,1,0.4020,-0.3490,-0.0990*
1,1,0.4020,-0.3490,0.0990*
1,1,0.4020,0.3490,0.0990*
%
%ADD30ROUNDEDRECTD30*%
G04:AMPARAMS|DCode=31|XSize=1mm|YSize=0.95mm|CornerRadius=0.1995mm|HoleSize=0mm|Usage=FLASHONLY|Rotation=0.000|XOffset=0mm|YOffset=0mm|HoleType=Round|Shape=RoundedRectangle|*
%AMROUNDEDRECTD31*
21,1,1.0000,0.5510,0,0,0.0*
21,1,0.6010,0.9500,0,0,0.0*
1,1,0.3990,0.3005,-0.2755*
1,1,0.3990,-0.3005,-0.2755*
1,1,0.3990,-0.3005,0.2755*
1,1,0.3990,0.3005,0.2755*
%
%ADD31ROUNDEDRECTD31*%
%ADD32O,2.5000X0.7000*%
%ADD33O,0.7000X2.5000*%
G04:AMPARAMS|DCode=34|XSize=1.6mm|YSize=1.3mm|CornerRadius=0.2015mm|HoleSize=0mm|Usage=FLASHONLY|Rotation=270.000|XOffset=0mm|YOffset=0mm|HoleType=Round|Shape=RoundedRectangle|*
%AMROUNDEDRECTD34*
21,1,1.6000,0.8970,0,0,270.0*
21,1,1.1970,1.3000,0,0,270.0*
1,1,0.4030,-0.4485,-0.5985*
1,1,0.4030,-0.4485,0.5985*
1,1,0.4030,0.4485,0.5985*
1,1,0.4030,0.4485,-0.5985*
%
%ADD34ROUNDEDRECTD34*%
G04:AMPARAMS|DCode=35|XSize=2.5mm|YSize=1.15mm|CornerRadius=0.3852mm|HoleSize=0mm|Usage=FLASHONLY|Rotation=90.000|XOffset=0mm|YOffset=0mm|HoleType=Round|Shape=RoundedRectangle|*
%AMROUNDEDRECTD35*
21,1,2.5000,0.3795,0,0,90.0*
21,1,1.7295,1.1500,0,0,90.0*
1,1,0.7705,0.1898,0.8648*
1,1,0.7705,0.1898,-0.8648*
1,1,0.7705,-0.1898,-0.8648*
1,1,0.7705,-0.1898,0.8648*
%
%ADD35ROUNDEDRECTD35*%
G04:AMPARAMS|DCode=36|XSize=1.3mm|YSize=1mm|CornerRadius=0.25mm|HoleSize=0mm|Usage=FLASHONLY|Rotation=90.000|XOffset=0mm|YOffset=0mm|HoleType=Round|Shape=RoundedRectangle|*
%AMROUNDEDRECTD36*
21,1,1.3000,0.5000,0,0,90.0*
21,1,0.8000,1.0000,0,0,90.0*
1,1,0.5000,0.2500,0.4000*
1,1,0.5000,0.2500,-0.4000*
1,1,0.5000,-0.2500,-0.4000*
1,1,0.5000,-0.2500,0.4000*
%
%ADD36ROUNDEDRECTD36*%
G04:AMPARAMS|DCode=37|XSize=2.35mm|YSize=1.15mm|CornerRadius=0.3852mm|HoleSize=0mm|Usage=FLASHONLY|Rotation=90.000|XOffset=0mm|YOffset=0mm|HoleType=Round|Shape=RoundedRectangle|*
%AMROUNDEDRECTD37*
21,1,2.3500,0.3795,0,0,90.0*
21,1,1.5795,1.1500,0,0,90.0*
1,1,0.7705,0.1898,0.7897*
1,1,0.7705,0.1898,-0.7897*
1,1,0.7705,-0.1898,-0.7897*
1,1,0.7705,-0.1898,0.7897*
%
%ADD37ROUNDEDRECTD37*%
%ADD38R,0.4000X1.4000*%
G04:AMPARAMS|DCode=39|XSize=1.8mm|YSize=1.9mm|CornerRadius=0.45mm|HoleSize=0mm|Usage=FLASHONLY|Rotation=0.000|XOffset=0mm|YOffset=0mm|HoleType=Round|Shape=RoundedRectangle|*
%AMROUNDEDRECTD39*
21,1,1.8000,1.0000,0,0,0.0*
21,1,0.9000,1.9000,0,0,0.0*
1,1,0.9000,0.4500,-0.5000*
1,1,0.9000,-0.4500,-0.5000*
1,1,0.9000,-0.4500,0.5000*
1,1,0.9000,0.4500,0.5000*
%
%ADD39ROUNDEDRECTD39*%
G04:AMPARAMS|DCode=40|XSize=2.5mm|YSize=1.7mm|CornerRadius=0.204mm|HoleSize=0mm|Usage=FLASHONLY|Rotation=90.000|XOffset=0mm|YOffset=0mm|HoleType=Round|Shape=RoundedRectangle|*
%AMROUNDEDRECTD40*
21,1,2.5000,1.2920,0,0,90.0*
21,1,2.0920,1.7000,0,0,90.0*
1,1,0.4080,0.6460,1.0460*
1,1,0.4080,0.6460,-1.0460*
1,1,0.4080,-0.6460,-1.0460*
1,1,0.4080,-0.6460,1.0460*
%
%ADD40ROUNDEDRECTD40*%
G04:AMPARAMS|DCode=41|XSize=1.8mm|YSize=1.7mm|CornerRadius=0.204mm|HoleSize=0mm|Usage=FLASHONLY|Rotation=180.000|XOffset=0mm|YOffset=0mm|HoleType=Round|Shape=RoundedRectangle|*
%AMROUNDEDRECTD41*
21,1,1.8000,1.2920,0,0,180.0*
21,1,1.3920,1.7000,0,0,180.0*
1,1,0.4080,-0.6960,0.6460*
1,1,0.4080,0.6960,0.6460*
1,1,0.4080,0.6960,-0.6460*
1,1,0.4080,-0.6960,-0.6460*
%
%ADD41ROUNDEDRECTD41*%
G04:AMPARAMS|DCode=42|XSize=1mm|YSize=1.2mm|CornerRadius=0.165mm|HoleSize=0mm|Usage=FLASHONLY|Rotation=0.000|XOffset=0mm|YOffset=0mm|HoleType=Round|Shape=RoundedRectangle|*
%AMROUNDEDRECTD42*
21,1,1.0000,0.8700,0,0,0.0*
21,1,0.6700,1.2000,0,0,0.0*
1,1,0.3300,0.3350,-0.4350*
1,1,0.3300,-0.3350,-0.4350*
1,1,0.3300,-0.3350,0.4350*
1,1,0.3300,0.3350,0.4350*
%
%ADD42ROUNDEDRECTD42*%
G04:AMPARAMS|DCode=43|XSize=3mm|YSize=2mm|CornerRadius=0.67mm|HoleSize=0mm|Usage=FLASHONLY|Rotation=90.000|XOffset=0mm|YOffset=0mm|HoleType=Round|Shape=RoundedRectangle|*
%AMROUNDEDRECTD43*
21,1,3.0000,0.6600,0,0,90.0*
21,1,1.6600,2.0000,0,0,90.0*
1,1,1.3400,0.3300,0.8300*
1,1,1.3400,0.3300,-0.8300*
1,1,1.3400,-0.3300,-0.8300*
1,1,1.3400,-0.3300,0.8300*
%
%ADD43ROUNDEDRECTD43*%
G04:AMPARAMS|DCode=44|XSize=2.3mm|YSize=0.9mm|CornerRadius=0.225mm|HoleSize=0mm|Usage=FLASHONLY|Rotation=90.000|XOffset=0mm|YOffset=0mm|HoleType=Round|Shape=RoundedRectangle|*
%AMROUNDEDRECTD44*
21,1,2.3000,0.4500,0,0,90.0*
21,1,1.8500,0.9000,0,0,90.0*
1,1,0.4500,0.2250,0.9250*
1,1,0.4500,0.2250,-0.9250*
1,1,0.4500,-0.2250,-0.9250*
1,1,0.4500,-0.2250,0.9250*
%
%ADD44ROUNDEDRECTD44*%
G04:AMPARAMS|DCode=45|XSize=1.2mm|YSize=2mm|CornerRadius=0.3mm|HoleSize=0mm|Usage=FLASHONLY|Rotation=180.000|XOffset=0mm|YOffset=0mm|HoleType=Round|Shape=RoundedRectangle|*
%AMROUNDEDRECTD45*
21,1,1.2000,1.4000,0,0,180.0*
21,1,0.6000,2.0000,0,0,180.0*
1,1,0.6000,-0.3000,0.7000*
1,1,0.6000,0.3000,0.7000*
1,1,0.6000,0.3000,-0.7000*
1,1,0.6000,-0.3000,-0.7000*
%
%ADD45ROUNDEDRECTD45*%
G04:AMPARAMS|DCode=46|XSize=1.05mm|YSize=0.65mm|CornerRadius=0.2015mm|HoleSize=0mm|Usage=FLASHONLY|Rotation=0.000|XOffset=0mm|YOffset=0mm|HoleType=Round|Shape=RoundedRectangle|*
%AMROUNDEDRECTD46*
21,1,1.0500,0.2470,0,0,0.0*
21,1,0.6470,0.6500,0,0,0.0*
1,1,0.4030,0.3235,-0.1235*
1,1,0.4030,-0.3235,-0.1235*
1,1,0.4030,-0.3235,0.1235*
1,1,0.4030,0.3235,0.1235*
%
%ADD46ROUNDEDRECTD46*%
G04:AMPARAMS|DCode=47|XSize=1mm|YSize=0.9mm|CornerRadius=0.198mm|HoleSize=0mm|Usage=FLASHONLY|Rotation=270.000|XOffset=0mm|YOffset=0mm|HoleType=Round|Shape=RoundedRectangle|*
%AMROUNDEDRECTD47*
21,1,1.0000,0.5040,0,0,270.0*
21,1,0.6040,0.9000,0,0,270.0*
1,1,0.3960,-0.2520,-0.3020*
1,1,0.3960,-0.2520,0.3020*
1,1,0.3960,0.2520,0.3020*
1,1,0.3960,0.2520,-0.3020*
%
%ADD47ROUNDEDRECTD47*%
G04:AMPARAMS|DCode=48|XSize=1.45mm|YSize=0.95mm|CornerRadius=0.1995mm|HoleSize=0mm|Usage=FLASHONLY|Rotation=180.000|XOffset=0mm|YOffset=0mm|HoleType=Round|Shape=RoundedRectangle|*
%AMROUNDEDRECTD48*
21,1,1.4500,0.5510,0,0,180.0*
21,1,1.0510,0.9500,0,0,180.0*
1,1,0.3990,-0.5255,0.2755*
1,1,0.3990,0.5255,0.2755*
1,1,0.3990,0.5255,-0.2755*
1,1,0.3990,-0.5255,-0.2755*
%
%ADD48ROUNDEDRECTD48*%
G04:AMPARAMS|DCode=49|XSize=1.45mm|YSize=1.15mm|CornerRadius=0.2013mm|HoleSize=0mm|Usage=FLASHONLY|Rotation=180.000|XOffset=0mm|YOffset=0mm|HoleType=Round|Shape=RoundedRectangle|*
%AMROUNDEDRECTD49*
21,1,1.4500,0.7475,0,0,180.0*
21,1,1.0475,1.1500,0,0,180.0*
1,1,0.4025,-0.5238,0.3738*
1,1,0.4025,0.5238,0.3738*
1,1,0.4025,0.5238,-0.3738*
1,1,0.4025,-0.5238,-0.3738*
%
%ADD49ROUNDEDRECTD49*%
%ADD50C,0.3500*%
%ADD51C,0.4000*%
%ADD52C,0.5000*%
%ADD53C,0.7000*%
%ADD54C,0.2500*%
%ADD55C,2.2000*%
%ADD56C,7.0000*%
%ADD57C,2.5000*%
%ADD58C,1.8000*%
%ADD59C,1.8500*%
%ADD60C,1.6000*%
G04:AMPARAMS|DCode=61|XSize=1.6mm|YSize=1.6mm|CornerRadius=0.2mm|HoleSize=0mm|Usage=FLASHONLY|Rotation=270.000|XOffset=0mm|YOffset=0mm|HoleType=Round|Shape=RoundedRectangle|*
%AMROUNDEDRECTD61*
21,1,1.6000,1.2000,0,0,270.0*
21,1,1.2000,1.6000,0,0,270.0*
1,1,0.4000,-0.6000,-0.6000*
1,1,0.4000,-0.6000,0.6000*
1,1,0.4000,0.6000,0.6000*
1,1,0.4000,0.6000,-0.6000*
%
%ADD61ROUNDEDRECTD61*%
G04:AMPARAMS|DCode=62|XSize=1.6mm|YSize=1.6mm|CornerRadius=0.2mm|HoleSize=0mm|Usage=FLASHONLY|Rotation=0.000|XOffset=0mm|YOffset=0mm|HoleType=Round|Shape=RoundedRectangle|*
%AMROUNDEDRECTD62*
21,1,1.6000,1.2000,0,0,0.0*
21,1,1.2000,1.6000,0,0,0.0*
1,1,0.4000,0.6000,-0.6000*
1,1,0.4000,-0.6000,-0.6000*
1,1,0.4000,-0.6000,0.6000*
1,1,0.4000,0.6000,0.6000*
%
%ADD62ROUNDEDRECTD62*%
%ADD63C,0.5000*%
%ADD64R,1.8500X1.8500*%
%ADD65R,1.3000X1.3000*%
%ADD66C,1.3000*%
G04:AMPARAMS|DCode=67|XSize=1.15mm|YSize=2.1mm|CornerRadius=0.2875mm|HoleSize=0mm|Usage=FLASHONLY|Rotation=0.000|XOffset=0mm|YOffset=0mm|HoleType=Round|Shape=RoundedRectangle|*
%AMROUNDEDRECTD67*
21,1,1.1500,1.5250,0,0,0.0*
21,1,0.5750,2.1000,0,0,0.0*
1,1,0.5750,0.2875,-0.7625*
1,1,0.5750,-0.2875,-0.7625*
1,1,0.5750,-0.2875,0.7625*
1,1,0.5750,0.2875,0.7625*
%
%ADD67ROUNDEDRECTD67*%
%ADD68C,0.7000*%
%ADD69C,1.2000*%
G04:AMPARAMS|DCode=70|XSize=0.7mm|YSize=0.7mm|CornerRadius=0.175mm|HoleSize=0mm|Usage=FLASHONLY|Rotation=0.000|XOffset=0mm|YOffset=0mm|HoleType=Round|Shape=RoundedRectangle|*
%AMROUNDEDRECTD70*
21,1,0.7000,0.3500,0,0,0.0*
21,1,0.3500,0.7000,0,0,0.0*
1,1,0.3500,0.1750,-0.1750*
1,1,0.3500,-0.1750,-0.1750*
1,1,0.3500,-0.1750,0.1750*
1,1,0.3500,0.1750,0.1750*
%
%ADD70ROUNDEDRECTD70*%
G04:AMPARAMS|DCode=71|XSize=1mm|YSize=1mm|CornerRadius=0.25mm|HoleSize=0mm|Usage=FLASHONLY|Rotation=90.000|XOffset=0mm|YOffset=0mm|HoleType=Round|Shape=RoundedRectangle|*
%AMROUNDEDRECTD71*
21,1,1.0000,0.5000,0,0,90.0*
21,1,0.5000,1.0000,0,0,90.0*
1,1,0.5000,0.2500,0.2500*
1,1,0.5000,0.2500,-0.2500*
1,1,0.5000,-0.2500,-0.2500*
1,1,0.5000,-0.2500,0.2500*
%
%ADD71ROUNDEDRECTD71*%
G36*
X995412Y4588D02*
X590190D01*
X589263Y5858D01*
X589565Y7375D01*
Y12500D01*
X571835D01*
Y7375D01*
X572137Y5858D01*
X571210Y4588D01*
X428790D01*
X427863Y5858D01*
X428165Y7375D01*
Y12500D01*
X410435D01*
Y7375D01*
X410737Y5858D01*
X409810Y4588D01*
X4588D01*
Y132199D01*
X77792Y132199D01*
Y367296D01*
X4588Y367332D01*
Y495412D01*
X222000D01*
Y422593D01*
X377475Y422593D01*
X377514Y495412D01*
X995412D01*
Y4588D01*
D02*
G37*
%LPC*%
G36*
X571700Y57500D02*
X564443D01*
X564457Y57389D01*
X565465Y54957D01*
X567068Y52868D01*
X569157Y51265D01*
X571590Y50257D01*
X571700Y50243D01*
Y57500D01*
D02*
G37*
G36*
X583957D02*
X576700D01*
Y50243D01*
X576810Y50257D01*
X579243Y51265D01*
X581332Y52868D01*
X582935Y54957D01*
X583943Y57389D01*
X583957Y57500D01*
D02*
G37*
G36*
X52500Y87921D02*
Y52500D01*
X87921D01*
X87648Y55963D01*
X86252Y61779D01*
X83963Y67305D01*
X80838Y72405D01*
X76953Y76953D01*
X72405Y80838D01*
X67305Y83963D01*
X61779Y86252D01*
X55963Y87648D01*
X52500Y87921D01*
D02*
G37*
G36*
X47500D02*
X44037Y87648D01*
X38221Y86252D01*
X32695Y83963D01*
X27595Y80838D01*
X23047Y76953D01*
X19162Y72405D01*
X16037Y67305D01*
X13748Y61779D01*
X12352Y55963D01*
X12079Y52500D01*
X47500D01*
Y87921D01*
D02*
G37*
G36*
X862500Y60292D02*
X861345Y60140D01*
X857940Y58729D01*
X855015Y56485D01*
X852771Y53560D01*
X851360Y50155D01*
X851208Y49000D01*
X862500D01*
Y60292D01*
D02*
G37*
G36*
X692249Y55573D02*
X690030Y55281D01*
X687962Y54425D01*
X686187Y53062D01*
X684824Y51287D01*
X683968Y49219D01*
X683676Y47000D01*
X683968Y44781D01*
X684824Y42713D01*
X685805Y41435D01*
X685719Y41115D01*
X684256Y39992D01*
X683134Y38530D01*
X682708Y37500D01*
X695790D01*
X695363Y38530D01*
X695532Y39160D01*
X696535Y39575D01*
X698311Y40938D01*
X699673Y42713D01*
X700530Y44781D01*
X700822Y47000D01*
X700530Y49219D01*
X699673Y51287D01*
X698311Y53062D01*
X696535Y54425D01*
X694468Y55281D01*
X692249Y55573D01*
D02*
G37*
G36*
X867500Y60292D02*
Y49000D01*
X878792D01*
X878640Y50155D01*
X877229Y53560D01*
X874985Y56485D01*
X872060Y58729D01*
X868655Y60140D01*
X867500Y60292D01*
D02*
G37*
G36*
X443957Y57500D02*
X436700D01*
Y50243D01*
X436810Y50257D01*
X439243Y51265D01*
X441332Y52868D01*
X442935Y54957D01*
X443943Y57389D01*
X443957Y57500D01*
D02*
G37*
G36*
X431700D02*
X424443D01*
X424457Y57389D01*
X425465Y54957D01*
X427068Y52868D01*
X429157Y51265D01*
X431590Y50257D01*
X431700Y50243D01*
Y57500D01*
D02*
G37*
G36*
X947500Y87921D02*
X944037Y87648D01*
X938221Y86252D01*
X932695Y83963D01*
X927595Y80838D01*
X923047Y76953D01*
X919163Y72405D01*
X916037Y67305D01*
X913748Y61779D01*
X912352Y55963D01*
X912079Y52500D01*
X947500D01*
Y87921D01*
D02*
G37*
G36*
X167000Y91086D02*
X164389Y90743D01*
X161957Y89735D01*
X159868Y88132D01*
X158265Y86043D01*
X157257Y83610D01*
X156914Y81000D01*
X157257Y78390D01*
X158265Y75957D01*
X159868Y73868D01*
X161957Y72265D01*
X164389Y71257D01*
X167000Y70914D01*
X169611Y71257D01*
X172043Y72265D01*
X174132Y73868D01*
X175735Y75957D01*
X176743Y78390D01*
X177086Y81000D01*
X176743Y83610D01*
X175735Y86043D01*
X174132Y88132D01*
X172043Y89735D01*
X169611Y90743D01*
X167000Y91086D01*
D02*
G37*
G36*
X424750Y91091D02*
X422009Y90730D01*
X419455Y89672D01*
X417261Y87989D01*
X415578Y85795D01*
X414520Y83241D01*
X414159Y80500D01*
X414520Y77759D01*
X415578Y75205D01*
X417261Y73011D01*
X419455Y71328D01*
X422009Y70270D01*
X424750Y69909D01*
X427491Y70270D01*
X430045Y71328D01*
X432239Y73011D01*
X433922Y75205D01*
X434980Y77759D01*
X435341Y80500D01*
X434980Y83241D01*
X433922Y85795D01*
X432239Y87989D01*
X430045Y89672D01*
X427491Y90730D01*
X424750Y91091D01*
D02*
G37*
G36*
X956000Y122500D02*
X944708D01*
X944860Y121345D01*
X946271Y117940D01*
X948515Y115015D01*
X951440Y112771D01*
X954845Y111360D01*
X956000Y111208D01*
Y122500D01*
D02*
G37*
G36*
X191000Y91086D02*
X188389Y90743D01*
X185957Y89735D01*
X183868Y88132D01*
X182265Y86043D01*
X181257Y83610D01*
X180914Y81000D01*
X181257Y78390D01*
X182265Y75957D01*
X183868Y73868D01*
X185957Y72265D01*
X188389Y71257D01*
X191000Y70914D01*
X193610Y71257D01*
X196043Y72265D01*
X198132Y73868D01*
X199735Y75957D01*
X200743Y78390D01*
X201086Y81000D01*
X200743Y83610D01*
X199735Y86043D01*
X198132Y88132D01*
X196043Y89735D01*
X193610Y90743D01*
X191000Y91086D01*
D02*
G37*
G36*
X570250Y91091D02*
X567509Y90730D01*
X564955Y89672D01*
X562761Y87989D01*
X561078Y85795D01*
X560020Y83241D01*
X559659Y80500D01*
X560020Y77759D01*
X561078Y75205D01*
X562761Y73011D01*
X564955Y71328D01*
X567509Y70270D01*
X569054Y70067D01*
X569225Y68763D01*
X569157Y68735D01*
X567068Y67132D01*
X565465Y65043D01*
X564457Y62611D01*
X564443Y62500D01*
X583957D01*
X583943Y62611D01*
X582935Y65043D01*
X581332Y67132D01*
X579243Y68735D01*
X576810Y69743D01*
X575464Y69920D01*
X575292Y71224D01*
X575545Y71328D01*
X577739Y73011D01*
X579422Y75205D01*
X580480Y77759D01*
X580841Y80500D01*
X580480Y83241D01*
X579422Y85795D01*
X577739Y87989D01*
X575545Y89672D01*
X572991Y90730D01*
X570250Y91091D01*
D02*
G37*
G36*
X522850Y76565D02*
X520892Y76307D01*
X519068Y75551D01*
X518170Y74863D01*
X484000D01*
X481757Y74416D01*
X479855Y73145D01*
X468004Y61295D01*
X466734Y59394D01*
X466287Y57150D01*
Y46891D01*
X465620Y46614D01*
X464158Y45493D01*
X463036Y44030D01*
X462330Y42327D01*
X462090Y40500D01*
Y26500D01*
X462330Y24673D01*
X463036Y22970D01*
X464158Y21508D01*
X465620Y20385D01*
X467323Y19680D01*
X469150Y19440D01*
X475150D01*
X476977Y19680D01*
X478680Y20385D01*
X480142Y21508D01*
X481264Y22970D01*
X481970Y24673D01*
X482210Y26500D01*
Y40500D01*
X481970Y42327D01*
X481264Y44030D01*
X480142Y45493D01*
X478680Y46614D01*
X478013Y46891D01*
Y50700D01*
X479283Y51131D01*
X479651Y50651D01*
X481218Y49449D01*
X483042Y48693D01*
X485000Y48435D01*
X486958Y48693D01*
X488682Y49407D01*
X488849Y49415D01*
X490041Y48814D01*
X490143Y48042D01*
X490803Y46448D01*
X489558Y45493D01*
X488436Y44030D01*
X487730Y42327D01*
X487490Y40500D01*
Y26500D01*
X487730Y24673D01*
X488436Y22970D01*
X489558Y21508D01*
X491020Y20385D01*
X492723Y19680D01*
X494550Y19440D01*
X500550D01*
X502377Y19680D01*
X504080Y20385D01*
X505542Y21508D01*
X506665Y22970D01*
X507370Y24673D01*
X507610Y26500D01*
Y40500D01*
X507370Y42327D01*
X506665Y44030D01*
X505542Y45493D01*
X504145Y46565D01*
X504757Y48042D01*
X505015Y50000D01*
X504757Y51958D01*
X504001Y53782D01*
X503836Y53998D01*
X504398Y55137D01*
X509572D01*
X516645Y48064D01*
X516436Y46621D01*
X516420Y46614D01*
X514958Y45493D01*
X513835Y44030D01*
X513130Y42327D01*
X512890Y40500D01*
Y26500D01*
X513130Y24673D01*
X513835Y22970D01*
X514958Y21508D01*
X516420Y20385D01*
X518123Y19680D01*
X519950Y19440D01*
X525950D01*
X527777Y19680D01*
X529480Y20385D01*
X530942Y21508D01*
X532065Y22970D01*
X532770Y24673D01*
X533010Y26500D01*
Y40500D01*
X532770Y42327D01*
X532065Y44030D01*
X530942Y45493D01*
X529480Y46614D01*
X528813Y46891D01*
Y50050D01*
X528366Y52294D01*
X527095Y54195D01*
X520877Y60414D01*
X521470Y61617D01*
X522850Y61435D01*
X524808Y61693D01*
X526632Y62449D01*
X528199Y63651D01*
X529401Y65218D01*
X530157Y67042D01*
X530415Y69000D01*
X530157Y70958D01*
X529401Y72782D01*
X528199Y74349D01*
X526632Y75551D01*
X524808Y76307D01*
X522850Y76565D01*
D02*
G37*
G36*
X952500Y87921D02*
Y52500D01*
X987921D01*
X987648Y55963D01*
X986252Y61779D01*
X983963Y67305D01*
X980838Y72405D01*
X976953Y76953D01*
X972405Y80838D01*
X967305Y83963D01*
X961779Y86252D01*
X955963Y87648D01*
X952500Y87921D01*
D02*
G37*
G36*
X436700Y69757D02*
Y62500D01*
X443957D01*
X443943Y62611D01*
X442935Y65043D01*
X441332Y67132D01*
X439243Y68735D01*
X436810Y69743D01*
X436700Y69757D01*
D02*
G37*
G36*
X431700D02*
X431590Y69743D01*
X429157Y68735D01*
X427068Y67132D01*
X425465Y65043D01*
X424457Y62611D01*
X424443Y62500D01*
X431700D01*
Y69757D01*
D02*
G37*
G36*
X578200Y28615D02*
X577825D01*
X575533Y28159D01*
X573589Y26861D01*
X572291Y24917D01*
X571835Y22625D01*
Y17500D01*
X578200D01*
Y28615D01*
D02*
G37*
G36*
X422175D02*
X421800D01*
Y17500D01*
X428165D01*
Y22625D01*
X427709Y24917D01*
X426411Y26861D01*
X424467Y28159D01*
X422175Y28615D01*
D02*
G37*
G36*
X154000Y56573D02*
X151060Y56283D01*
X148232Y55425D01*
X145626Y54032D01*
X143342Y52158D01*
X141468Y49874D01*
X140075Y47268D01*
X139217Y44440D01*
X138927Y41500D01*
X139217Y38560D01*
X140075Y35732D01*
X141468Y33126D01*
X143342Y30842D01*
X145626Y28968D01*
X148232Y27575D01*
X151060Y26717D01*
X154000Y26428D01*
X156940Y26717D01*
X159768Y27575D01*
X162374Y28968D01*
X164658Y30842D01*
X166532Y33126D01*
X167925Y35732D01*
X168783Y38560D01*
X169073Y41500D01*
X168783Y44440D01*
X167925Y47268D01*
X166532Y49874D01*
X164658Y52158D01*
X162374Y54032D01*
X159768Y55425D01*
X156940Y56283D01*
X154000Y56573D01*
D02*
G37*
G36*
X583575Y28615D02*
X583200D01*
Y17500D01*
X589565D01*
Y22625D01*
X589109Y24917D01*
X587811Y26861D01*
X585867Y28159D01*
X583575Y28615D01*
D02*
G37*
G36*
X416800D02*
X416425D01*
X414133Y28159D01*
X412189Y26861D01*
X410891Y24917D01*
X410435Y22625D01*
Y17500D01*
X416800D01*
Y28615D01*
D02*
G37*
G36*
X87921Y47500D02*
X52500D01*
Y12079D01*
X55963Y12352D01*
X61779Y13748D01*
X67305Y16037D01*
X72405Y19162D01*
X76953Y23047D01*
X80838Y27595D01*
X83963Y32695D01*
X86252Y38221D01*
X87648Y44037D01*
X87921Y47500D01*
D02*
G37*
G36*
X47500D02*
X12079D01*
X12352Y44037D01*
X13748Y38221D01*
X16037Y32695D01*
X19162Y27595D01*
X23047Y23047D01*
X27595Y19162D01*
X32695Y16037D01*
X38221Y13748D01*
X44037Y12352D01*
X47500Y12079D01*
Y47500D01*
D02*
G37*
G36*
X987921D02*
X952500D01*
Y12079D01*
X955963Y12352D01*
X961779Y13748D01*
X967305Y16037D01*
X972405Y19162D01*
X976953Y23047D01*
X980838Y27595D01*
X983963Y32695D01*
X986252Y38221D01*
X987648Y44037D01*
X987921Y47500D01*
D02*
G37*
G36*
X947500D02*
X912079D01*
X912352Y44037D01*
X913748Y38221D01*
X916037Y32695D01*
X919163Y27595D01*
X923047Y23047D01*
X927595Y19162D01*
X932695Y16037D01*
X938221Y13748D01*
X944037Y12352D01*
X947500Y12079D01*
Y47500D01*
D02*
G37*
G36*
X204000Y56573D02*
X201059Y56283D01*
X198232Y55425D01*
X195626Y54032D01*
X193342Y52158D01*
X191468Y49874D01*
X190075Y47268D01*
X189217Y44440D01*
X188927Y41500D01*
X189217Y38560D01*
X190075Y35732D01*
X191468Y33126D01*
X193342Y30842D01*
X195626Y28968D01*
X198232Y27575D01*
X201059Y26717D01*
X204000Y26428D01*
X206940Y26717D01*
X209768Y27575D01*
X212374Y28968D01*
X214658Y30842D01*
X216532Y33126D01*
X217925Y35732D01*
X218783Y38560D01*
X219073Y41500D01*
X218783Y44440D01*
X217925Y47268D01*
X216532Y49874D01*
X214658Y52158D01*
X212374Y54032D01*
X209768Y55425D01*
X206940Y56283D01*
X204000Y56573D01*
D02*
G37*
G36*
X815000Y61573D02*
X812060Y61283D01*
X809232Y60425D01*
X806626Y59032D01*
X804342Y57158D01*
X802468Y54874D01*
X801075Y52268D01*
X800217Y49440D01*
X799928Y46500D01*
X800217Y43559D01*
X801075Y40732D01*
X802468Y38126D01*
X804342Y35842D01*
X806626Y33968D01*
X809232Y32575D01*
X812060Y31717D01*
X815000Y31427D01*
X817941Y31717D01*
X820768Y32575D01*
X823374Y33968D01*
X825658Y35842D01*
X827533Y38126D01*
X828925Y40732D01*
X829783Y43559D01*
X830073Y46500D01*
X829783Y49440D01*
X828925Y52268D01*
X827533Y54874D01*
X825658Y57158D01*
X823374Y59032D01*
X820768Y60425D01*
X817941Y61283D01*
X815000Y61573D01*
D02*
G37*
G36*
X695790Y32500D02*
X691749D01*
Y28459D01*
X692779Y28886D01*
X694241Y30008D01*
X695363Y31470D01*
X695790Y32500D01*
D02*
G37*
G36*
X878792Y44000D02*
X867500D01*
Y32708D01*
X868655Y32860D01*
X872060Y34271D01*
X874985Y36515D01*
X877229Y39440D01*
X878640Y42845D01*
X878792Y44000D01*
D02*
G37*
G36*
X862500D02*
X851208D01*
X851360Y42845D01*
X852771Y39440D01*
X855015Y36515D01*
X857940Y34271D01*
X861345Y32860D01*
X862500Y32708D01*
Y44000D01*
D02*
G37*
G36*
X686749Y32500D02*
X682708D01*
X683134Y31470D01*
X684256Y30008D01*
X685719Y28886D01*
X686749Y28459D01*
Y32500D01*
D02*
G37*
G36*
X304000Y56573D02*
X301059Y56283D01*
X298232Y55425D01*
X295626Y54032D01*
X293342Y52158D01*
X291468Y49874D01*
X290075Y47268D01*
X289217Y44440D01*
X288927Y41500D01*
X289217Y38560D01*
X290075Y35732D01*
X291468Y33126D01*
X293342Y30842D01*
X295626Y28968D01*
X298232Y27575D01*
X301059Y26717D01*
X304000Y26428D01*
X306940Y26717D01*
X309768Y27575D01*
X312374Y28968D01*
X314658Y30842D01*
X316532Y33126D01*
X317925Y35732D01*
X318783Y38560D01*
X319073Y41500D01*
X318783Y44440D01*
X317925Y47268D01*
X316532Y49874D01*
X314658Y52158D01*
X312374Y54032D01*
X309768Y55425D01*
X306940Y56283D01*
X304000Y56573D01*
D02*
G37*
G36*
X151000Y185065D02*
X149042Y184807D01*
X147218Y184051D01*
X145651Y182849D01*
X144449Y181282D01*
X143693Y179458D01*
X143435Y177500D01*
X143693Y175542D01*
X144449Y173718D01*
X145651Y172151D01*
X147218Y170949D01*
X149042Y170193D01*
X151000Y169935D01*
X152958Y170193D01*
X154771Y170944D01*
X195784D01*
X247444Y119284D01*
Y55004D01*
X245626Y54032D01*
X243342Y52158D01*
X241468Y49874D01*
X240075Y47268D01*
X239217Y44440D01*
X238927Y41500D01*
X239217Y38560D01*
X240075Y35732D01*
X241468Y33126D01*
X243342Y30842D01*
X245626Y28968D01*
X248232Y27575D01*
X251059Y26717D01*
X254000Y26428D01*
X256940Y26717D01*
X259768Y27575D01*
X262374Y28968D01*
X264658Y30842D01*
X266532Y33126D01*
X267925Y35732D01*
X268783Y38560D01*
X269073Y41500D01*
X268783Y44440D01*
X267925Y47268D01*
X266532Y49874D01*
X264658Y52158D01*
X262374Y54032D01*
X260556Y55004D01*
Y122000D01*
X260333Y123697D01*
X260061Y124352D01*
X259678Y125278D01*
X258636Y126636D01*
X203136Y182136D01*
X201778Y183178D01*
X200852Y183561D01*
X200197Y183833D01*
X198500Y184056D01*
X154771D01*
X152958Y184807D01*
X151000Y185065D01*
D02*
G37*
G36*
X648249Y55573D02*
X646030Y55281D01*
X643962Y54425D01*
X642187Y53062D01*
X640824Y51287D01*
X639968Y49219D01*
X639675Y47000D01*
X639968Y44781D01*
X640824Y42713D01*
X642187Y40938D01*
X643404Y40004D01*
X644261Y39035D01*
X643455Y37088D01*
X643180Y35000D01*
X643455Y32912D01*
X644261Y30965D01*
X645543Y29294D01*
X647214Y28012D01*
X649160Y27206D01*
X651249Y26931D01*
X653337Y27206D01*
X655283Y28012D01*
X656954Y29294D01*
X658237Y30965D01*
X659043Y32912D01*
X659318Y35000D01*
X659043Y37088D01*
X658237Y39035D01*
X656954Y40706D01*
X655283Y41988D01*
X655586Y42599D01*
X655674Y42713D01*
X656530Y44781D01*
X656822Y47000D01*
X656530Y49219D01*
X655674Y51287D01*
X654311Y53062D01*
X652535Y54425D01*
X650468Y55281D01*
X648249Y55573D01*
D02*
G37*
G36*
X354000Y56573D02*
X351059Y56283D01*
X348232Y55425D01*
X345626Y54032D01*
X343342Y52158D01*
X341468Y49874D01*
X340075Y47268D01*
X339217Y44440D01*
X338927Y41500D01*
X339217Y38560D01*
X340075Y35732D01*
X341468Y33126D01*
X343342Y30842D01*
X345626Y28968D01*
X348232Y27575D01*
X351059Y26717D01*
X354000Y26428D01*
X356940Y26717D01*
X359768Y27575D01*
X362374Y28968D01*
X364658Y30842D01*
X366532Y33126D01*
X367925Y35732D01*
X368783Y38560D01*
X369073Y41500D01*
X368783Y44440D01*
X367925Y47268D01*
X366532Y49874D01*
X364658Y52158D01*
X362374Y54032D01*
X359768Y55425D01*
X356940Y56283D01*
X354000Y56573D01*
D02*
G37*
G36*
X972292Y122500D02*
X961000D01*
Y111208D01*
X962155Y111360D01*
X965560Y112771D01*
X968485Y115015D01*
X970729Y117940D01*
X972140Y121345D01*
X972292Y122500D01*
D02*
G37*
G36*
X390527Y381565D02*
X388569Y381307D01*
X386745Y380551D01*
X385178Y379349D01*
X383976Y377782D01*
X383220Y375958D01*
X383127Y375252D01*
X370674Y362799D01*
X369348Y360814D01*
X368882Y358473D01*
Y339564D01*
X368096Y338932D01*
X366854Y339394D01*
X366691Y340633D01*
X365482Y343552D01*
X363559Y346059D01*
X361052Y347982D01*
X358133Y349191D01*
X358416Y350382D01*
X361000D01*
X363341Y350848D01*
X365326Y352174D01*
X366652Y354159D01*
X367118Y356500D01*
Y368500D01*
X366652Y370841D01*
X365326Y372826D01*
X363341Y374152D01*
X361000Y374618D01*
X349000D01*
X346659Y374152D01*
X344674Y372826D01*
X343348Y370841D01*
X342882Y368500D01*
Y359034D01*
X337466Y353618D01*
X318346D01*
X317508Y354572D01*
X317565Y355000D01*
X317307Y356958D01*
X316551Y358782D01*
X315349Y360349D01*
X313782Y361551D01*
X311958Y362307D01*
X310000Y362565D01*
X308042Y362307D01*
X306218Y361551D01*
X305652Y361118D01*
X203393D01*
X201052Y360652D01*
X200257Y360121D01*
X199068Y359326D01*
X171887Y332145D01*
X171042Y332034D01*
X169218Y331278D01*
X167651Y330076D01*
X166449Y328509D01*
X165693Y326685D01*
X165435Y324727D01*
X165693Y322769D01*
X166449Y320945D01*
X167651Y319378D01*
X169218Y318176D01*
X171042Y317420D01*
X173000Y317162D01*
X174958Y317420D01*
X176782Y318176D01*
X178349Y319378D01*
X178558Y319651D01*
X178651D01*
X180218Y318449D01*
X182042Y317693D01*
X184000Y317435D01*
X185958Y317693D01*
X187782Y318449D01*
X189349Y319651D01*
X189651D01*
X191218Y318449D01*
X193042Y317693D01*
X195000Y317435D01*
X196958Y317693D01*
X198782Y318449D01*
X200349Y319651D01*
X200651D01*
X202218Y318449D01*
X204042Y317693D01*
X204748Y317600D01*
X213674Y308674D01*
X215659Y307348D01*
X218000Y306882D01*
X317466D01*
X321255Y303093D01*
X320769Y301920D01*
X281179D01*
X278838Y301454D01*
X276853Y300128D01*
X261748Y285023D01*
X261042Y284930D01*
X259218Y284175D01*
X257651Y282973D01*
X256449Y281406D01*
X255693Y279582D01*
X255600Y278875D01*
X236842Y260117D01*
X160347D01*
X159782Y260551D01*
X157958Y261307D01*
X156000Y261565D01*
X154042Y261307D01*
X152218Y260551D01*
X150651Y259349D01*
X149449Y257782D01*
X148693Y255958D01*
X148435Y254000D01*
X148693Y252042D01*
X149449Y250218D01*
X150651Y248651D01*
X152218Y247449D01*
X154042Y246693D01*
X156000Y246435D01*
X157958Y246693D01*
X159782Y247449D01*
X160347Y247882D01*
X239376D01*
X241717Y248348D01*
X243702Y249674D01*
X264252Y270224D01*
X264958Y270317D01*
X266782Y271072D01*
X268349Y272274D01*
X269551Y273841D01*
X270307Y275666D01*
X270400Y276372D01*
X283713Y289685D01*
X323758D01*
X324622Y288415D01*
X324600Y288252D01*
X318171Y281822D01*
X316845Y279838D01*
X316379Y277496D01*
Y240348D01*
X315945Y239782D01*
X315190Y237958D01*
X315185Y237922D01*
X313841Y237447D01*
X312390Y238416D01*
X310147Y238863D01*
X279000D01*
X276756Y238416D01*
X274855Y237146D01*
X274855Y237145D01*
X271164Y233454D01*
X270042Y233307D01*
X268218Y232551D01*
X266651Y231349D01*
X265531Y231976D01*
X264782Y232551D01*
X262958Y233307D01*
X261000Y233565D01*
X259042Y233307D01*
X257218Y232551D01*
X255651Y231349D01*
X254531Y231976D01*
X253782Y232551D01*
X251958Y233307D01*
X250000Y233565D01*
X248042Y233307D01*
X246218Y232551D01*
X244651Y231349D01*
X243449Y229782D01*
X242693Y227958D01*
X242435Y226000D01*
X242693Y224042D01*
X243449Y222218D01*
X244651Y220651D01*
X246218Y219449D01*
X248042Y218693D01*
X248748Y218600D01*
X281674Y185674D01*
X282864Y184879D01*
X283659Y184348D01*
X286000Y183883D01*
X296334D01*
X313293Y166924D01*
X315277Y165598D01*
X317618Y165133D01*
X324894D01*
X327352Y162674D01*
X329337Y161348D01*
X331678Y160882D01*
X499499D01*
X501840Y161348D01*
X503825Y162674D01*
X524252Y183101D01*
X524958Y183194D01*
X526782Y183950D01*
X528349Y185152D01*
X529551Y186718D01*
X530307Y188543D01*
X530565Y190501D01*
X530307Y192459D01*
X529829Y193612D01*
X530611Y194883D01*
X602750D01*
X605091Y195348D01*
X607076Y196674D01*
X614652Y204250D01*
X627000D01*
Y208561D01*
X628270Y208954D01*
X629581Y207949D01*
X631405Y207193D01*
X633363Y206935D01*
X635321Y207193D01*
X637145Y207949D01*
X638712Y209151D01*
X639914Y210718D01*
X640670Y212542D01*
X640928Y214500D01*
X640670Y216458D01*
X639914Y218282D01*
X639481Y218848D01*
Y225011D01*
X639015Y227352D01*
X637689Y229336D01*
X574618Y292408D01*
Y297500D01*
X574152Y299841D01*
X572826Y301826D01*
X540326Y334326D01*
X538341Y335652D01*
X536000Y336118D01*
X478848D01*
X478283Y336551D01*
X476459Y337307D01*
X474501Y337565D01*
X472543Y337307D01*
X470718Y336551D01*
X469152Y335349D01*
X467950Y333782D01*
X467194Y331958D01*
X467101Y331252D01*
X437769Y301920D01*
X385231D01*
X384745Y303093D01*
X396534Y314883D01*
X419902D01*
X420468Y314449D01*
X422292Y313693D01*
X424250Y313435D01*
X426208Y313693D01*
X428032Y314449D01*
X429599Y315651D01*
X430801Y317218D01*
X431557Y319042D01*
X431815Y321000D01*
X431557Y322958D01*
X430801Y324782D01*
X429599Y326349D01*
X428032Y327551D01*
X426208Y328307D01*
X424250Y328565D01*
X422292Y328307D01*
X420468Y327551D01*
X419902Y327118D01*
X394000D01*
X391659Y326652D01*
X389674Y325326D01*
X375468Y311119D01*
X372430D01*
X371944Y312292D01*
X395326Y335674D01*
X396652Y337659D01*
X397118Y340000D01*
Y356152D01*
X397551Y356718D01*
X398307Y358542D01*
X398565Y360500D01*
X398307Y362458D01*
X397551Y364282D01*
X396349Y365849D01*
X395330Y366631D01*
X395228Y368059D01*
X395291Y368202D01*
X395876Y368651D01*
X397078Y370218D01*
X397834Y372042D01*
X398092Y374000D01*
X397834Y375958D01*
X397078Y377782D01*
X395876Y379349D01*
X394309Y380551D01*
X392485Y381307D01*
X390527Y381565D01*
D02*
G37*
G36*
X958500Y340073D02*
X955559Y339783D01*
X952732Y338925D01*
X950126Y337532D01*
X947842Y335658D01*
X945968Y333374D01*
X944575Y330768D01*
X943717Y327940D01*
X943427Y325000D01*
X943717Y322060D01*
X944575Y319232D01*
X945968Y316626D01*
X947842Y314342D01*
X950126Y312468D01*
X952732Y311075D01*
X955559Y310217D01*
X958500Y309927D01*
X961441Y310217D01*
X964268Y311075D01*
X966874Y312468D01*
X969158Y314342D01*
X971032Y316626D01*
X972425Y319232D01*
X973283Y322060D01*
X973573Y325000D01*
X973283Y327940D01*
X972425Y330768D01*
X971032Y333374D01*
X969158Y335658D01*
X966874Y337532D01*
X964268Y338925D01*
X961441Y339783D01*
X958500Y340073D01*
D02*
G37*
G36*
Y390073D02*
X955559Y389783D01*
X952732Y388925D01*
X950126Y387532D01*
X947842Y385658D01*
X945968Y383374D01*
X944575Y380768D01*
X943717Y377940D01*
X943427Y375000D01*
X943717Y372060D01*
X944575Y369232D01*
X945968Y366626D01*
X947842Y364342D01*
X950126Y362468D01*
X952732Y361075D01*
X955559Y360217D01*
X958500Y359927D01*
X961441Y360217D01*
X964268Y361075D01*
X966874Y362468D01*
X969158Y364342D01*
X971032Y366626D01*
X972425Y369232D01*
X973283Y372060D01*
X973573Y375000D01*
X973283Y377940D01*
X972425Y380768D01*
X971032Y383374D01*
X969158Y385658D01*
X966874Y387532D01*
X964268Y388925D01*
X961441Y389783D01*
X958500Y390073D01*
D02*
G37*
G36*
X435000Y408565D02*
X433042Y408307D01*
X431218Y407551D01*
X429651Y406349D01*
X428449Y404782D01*
X427693Y402958D01*
X427435Y401000D01*
X427693Y399042D01*
X428449Y397218D01*
X428882Y396652D01*
Y369347D01*
X428449Y368782D01*
X427693Y366958D01*
X427435Y365000D01*
X427693Y363042D01*
X428449Y361218D01*
X429651Y359651D01*
X431218Y358449D01*
X433042Y357693D01*
X435000Y357435D01*
X436958Y357693D01*
X438782Y358449D01*
X439347Y358882D01*
X665866D01*
X666715Y357612D01*
X666444Y356958D01*
X666186Y355000D01*
X666444Y353042D01*
X667199Y351218D01*
X668134Y350000D01*
X667199Y348782D01*
X666444Y346958D01*
X666186Y345000D01*
X666361Y343666D01*
X665394Y342513D01*
X665000Y342565D01*
X663042Y342307D01*
X661218Y341551D01*
X659651Y340349D01*
X658449Y338782D01*
X657693Y336958D01*
X657435Y335000D01*
X657693Y333042D01*
X658449Y331218D01*
X659651Y329651D01*
X661218Y328449D01*
X663042Y327693D01*
X665000Y327435D01*
X666958Y327693D01*
X668782Y328449D01*
X669348Y328882D01*
X890652D01*
X891218Y328449D01*
X893042Y327693D01*
X895000Y327435D01*
X896958Y327693D01*
X898782Y328449D01*
X900349Y329651D01*
X901551Y331218D01*
X902307Y333042D01*
X902565Y335000D01*
X902307Y336958D01*
X901551Y338782D01*
X900617Y340000D01*
X901551Y341218D01*
X902307Y343042D01*
X902565Y345000D01*
X902307Y346958D01*
X901551Y348782D01*
X900617Y350000D01*
X901551Y351218D01*
X902307Y353042D01*
X902565Y355000D01*
X902307Y356958D01*
X901551Y358782D01*
X900617Y360000D01*
X901551Y361218D01*
X902307Y363042D01*
X902565Y365000D01*
X902307Y366958D01*
X901551Y368782D01*
X900742Y369837D01*
X901801Y371218D01*
X902557Y373042D01*
X902815Y375000D01*
X902557Y376958D01*
X901801Y378782D01*
X900599Y380349D01*
X899032Y381551D01*
X897208Y382307D01*
X895250Y382565D01*
X893292Y382307D01*
X891468Y381551D01*
X890902Y381118D01*
X503348D01*
X502783Y381551D01*
X500959Y382307D01*
X499001Y382565D01*
X497043Y382307D01*
X495219Y381551D01*
X493652Y380349D01*
X492450Y378782D01*
X491694Y376958D01*
X491436Y375000D01*
X491694Y373042D01*
X491965Y372388D01*
X491116Y371118D01*
X441118D01*
Y396652D01*
X441551Y397218D01*
X442307Y399042D01*
X442565Y401000D01*
X442307Y402958D01*
X441551Y404782D01*
X440349Y406349D01*
X438782Y407551D01*
X436958Y408307D01*
X435000Y408565D01*
D02*
G37*
G36*
X958500Y240073D02*
X955560Y239783D01*
X952732Y238926D01*
X950126Y237533D01*
X947842Y235658D01*
X945968Y233374D01*
X944575Y230768D01*
X943717Y227941D01*
X943428Y225000D01*
X943717Y222060D01*
X944575Y219232D01*
X945968Y216627D01*
X947842Y214342D01*
X950126Y212468D01*
X952732Y211075D01*
X955560Y210217D01*
X958500Y209928D01*
X961441Y210217D01*
X964268Y211075D01*
X966874Y212468D01*
X969158Y214342D01*
X971033Y216627D01*
X972426Y219232D01*
X973283Y222060D01*
X973573Y225000D01*
X973283Y227941D01*
X972426Y230768D01*
X971033Y233374D01*
X969158Y235658D01*
X966874Y237533D01*
X964268Y238926D01*
X961441Y239783D01*
X958500Y240073D01*
D02*
G37*
G36*
X677450Y201027D02*
Y191500D01*
X686977D01*
X686885Y192198D01*
X685650Y195178D01*
X683687Y197737D01*
X681128Y199700D01*
X678148Y200935D01*
X677450Y201027D01*
D02*
G37*
G36*
X802700Y293364D02*
X799241Y292909D01*
X796018Y291574D01*
X793250Y289450D01*
X791126Y286682D01*
X790635Y285496D01*
X789365D01*
X788874Y286682D01*
X786750Y289450D01*
X783982Y291574D01*
X780759Y292909D01*
X777300Y293364D01*
X773841Y292909D01*
X770618Y291574D01*
X767850Y289450D01*
X765726Y286682D01*
X764391Y283459D01*
X763936Y280000D01*
X764391Y276541D01*
X765726Y273318D01*
X767850Y270550D01*
X770618Y268426D01*
X773841Y267091D01*
X777300Y266636D01*
X780759Y267091D01*
X783982Y268426D01*
X786750Y270550D01*
X788874Y273318D01*
X789365Y274504D01*
X790635D01*
X791126Y273318D01*
X793250Y270550D01*
X796018Y268426D01*
X799241Y267091D01*
X802700Y266636D01*
X806159Y267091D01*
X809382Y268426D01*
X812150Y270550D01*
X814274Y273318D01*
X815609Y276541D01*
X816064Y280000D01*
X815609Y283459D01*
X814274Y286682D01*
X812150Y289450D01*
X809382Y291574D01*
X806159Y292909D01*
X802700Y293364D01*
D02*
G37*
G36*
X958500Y290073D02*
X955560Y289783D01*
X952732Y288926D01*
X950126Y287533D01*
X947842Y285658D01*
X945968Y283374D01*
X944575Y280769D01*
X943717Y277941D01*
X943428Y275000D01*
X943717Y272060D01*
X944575Y269232D01*
X945968Y266627D01*
X947842Y264342D01*
X950126Y262468D01*
X952732Y261075D01*
X955560Y260217D01*
X958500Y259928D01*
X961441Y260217D01*
X964268Y261075D01*
X966874Y262468D01*
X969158Y264342D01*
X971033Y266627D01*
X972426Y269232D01*
X973283Y272060D01*
X973573Y275000D01*
X973283Y277941D01*
X972426Y280769D01*
X971033Y283374D01*
X969158Y285658D01*
X966874Y287533D01*
X964268Y288926D01*
X961441Y289783D01*
X958500Y290073D01*
D02*
G37*
G36*
X47500Y447500D02*
X12079D01*
X12352Y444037D01*
X13748Y438221D01*
X16037Y432695D01*
X19162Y427595D01*
X23047Y423047D01*
X27595Y419162D01*
X32695Y416037D01*
X38221Y413748D01*
X44037Y412352D01*
X47500Y412079D01*
Y447500D01*
D02*
G37*
G36*
X52500Y487921D02*
Y452500D01*
X87921D01*
X87648Y455963D01*
X86252Y461779D01*
X83963Y467305D01*
X80838Y472405D01*
X76953Y476953D01*
X72405Y480838D01*
X67305Y483963D01*
X61779Y486252D01*
X55963Y487648D01*
X52500Y487921D01*
D02*
G37*
G36*
X47500D02*
X44037Y487648D01*
X38221Y486252D01*
X32695Y483963D01*
X27595Y480838D01*
X23047Y476953D01*
X19162Y472405D01*
X16037Y467305D01*
X13748Y461779D01*
X12352Y455963D01*
X12079Y452500D01*
X47500D01*
Y487921D01*
D02*
G37*
G36*
X952500D02*
Y452500D01*
X987921D01*
X987648Y455963D01*
X986252Y461779D01*
X983963Y467305D01*
X980838Y472405D01*
X976953Y476953D01*
X972405Y480838D01*
X967305Y483963D01*
X961779Y486252D01*
X955963Y487648D01*
X952500Y487921D01*
D02*
G37*
G36*
X947500D02*
X944037Y487648D01*
X938221Y486252D01*
X932695Y483963D01*
X927595Y480838D01*
X923047Y476953D01*
X919163Y472405D01*
X916037Y467305D01*
X913748Y461779D01*
X912352Y455963D01*
X912079Y452500D01*
X947500D01*
Y487921D01*
D02*
G37*
G36*
Y447500D02*
X912079D01*
X912352Y444037D01*
X913748Y438221D01*
X916037Y432695D01*
X919163Y427595D01*
X923047Y423047D01*
X927595Y419162D01*
X932695Y416037D01*
X938221Y413748D01*
X944037Y412352D01*
X947500Y412079D01*
Y447500D01*
D02*
G37*
G36*
X87921D02*
X52500D01*
Y412079D01*
X55963Y412352D01*
X61779Y413748D01*
X67305Y416037D01*
X72405Y419162D01*
X76953Y423047D01*
X80838Y427595D01*
X83963Y432695D01*
X86252Y438221D01*
X87648Y444037D01*
X87921Y447500D01*
D02*
G37*
G36*
X151000Y466580D02*
X147765Y466261D01*
X144655Y465318D01*
X141789Y463786D01*
X139276Y461724D01*
X137214Y459211D01*
X135682Y456345D01*
X134739Y453235D01*
X134420Y450000D01*
X134739Y446765D01*
X135682Y443655D01*
X137214Y440789D01*
X139276Y438276D01*
X141789Y436214D01*
X144655Y434682D01*
X147765Y433739D01*
X151000Y433420D01*
X154235Y433739D01*
X157345Y434682D01*
X160211Y436214D01*
X162724Y438276D01*
X164786Y440789D01*
X166318Y443655D01*
X167261Y446765D01*
X167580Y450000D01*
X167261Y453235D01*
X166318Y456345D01*
X164786Y459211D01*
X162724Y461724D01*
X160211Y463786D01*
X157345Y465318D01*
X154235Y466261D01*
X151000Y466580D01*
D02*
G37*
G36*
X987921Y447500D02*
X952500D01*
Y412079D01*
X955963Y412352D01*
X961779Y413748D01*
X967305Y416037D01*
X972405Y419162D01*
X976953Y423047D01*
X980838Y427595D01*
X983963Y432695D01*
X986252Y438221D01*
X987648Y444037D01*
X987921Y447500D01*
D02*
G37*
G36*
X614000Y161750D02*
X607253D01*
X608202Y159459D01*
X609725Y157474D01*
X611709Y155952D01*
X614000Y155003D01*
Y161750D01*
D02*
G37*
G36*
X616500Y149341D02*
X613759Y148980D01*
X611205Y147922D01*
X609011Y146239D01*
X607959Y144867D01*
X478597D01*
X478032Y145301D01*
X476208Y146057D01*
X474250Y146315D01*
X472292Y146057D01*
X470468Y145301D01*
X468901Y144099D01*
X467699Y142532D01*
X466943Y140708D01*
X466685Y138750D01*
X466943Y136792D01*
X467699Y134968D01*
X468901Y133401D01*
X470468Y132199D01*
X472292Y131443D01*
X474250Y131185D01*
X476208Y131443D01*
X478032Y132199D01*
X478597Y132632D01*
X607959D01*
X609011Y131261D01*
X611205Y129578D01*
X613759Y128520D01*
X616500Y128159D01*
X619241Y128520D01*
X621795Y129578D01*
X623989Y131261D01*
X625672Y133455D01*
X626730Y136009D01*
X627091Y138750D01*
X626730Y141491D01*
X625672Y144045D01*
X623989Y146239D01*
X621795Y147922D01*
X619241Y148980D01*
X616500Y149341D01*
D02*
G37*
G36*
X625747Y161750D02*
X619000D01*
Y155003D01*
X621291Y155952D01*
X623275Y157474D01*
X624798Y159459D01*
X625747Y161750D01*
D02*
G37*
G36*
X614000Y173497D02*
X611709Y172548D01*
X609725Y171025D01*
X608202Y169041D01*
X607253Y166750D01*
X614000D01*
Y173497D01*
D02*
G37*
G36*
X958500Y190073D02*
X955559Y189783D01*
X952732Y188925D01*
X950126Y187532D01*
X947842Y185658D01*
X945968Y183374D01*
X944575Y180768D01*
X943717Y177941D01*
X943427Y175000D01*
X943717Y172059D01*
X944575Y169232D01*
X945968Y166626D01*
X947842Y164342D01*
X950126Y162468D01*
X952732Y161075D01*
X955559Y160217D01*
X958500Y159927D01*
X961441Y160217D01*
X964268Y161075D01*
X966874Y162468D01*
X969158Y164342D01*
X971032Y166626D01*
X972425Y169232D01*
X973283Y172059D01*
X973573Y175000D01*
X973283Y177941D01*
X972425Y180768D01*
X971032Y183374D01*
X969158Y185658D01*
X966874Y187532D01*
X964268Y188925D01*
X961441Y189783D01*
X958500Y190073D01*
D02*
G37*
G36*
X907750Y143362D02*
X904356Y142915D01*
X901194Y141606D01*
X898478Y139522D01*
X896395Y136806D01*
X895085Y133644D01*
X894638Y130250D01*
X895085Y126856D01*
X896395Y123694D01*
X898478Y120978D01*
X901194Y118895D01*
X904356Y117585D01*
X907750Y117138D01*
X911144Y117585D01*
X914306Y118895D01*
X917022Y120978D01*
X919106Y123694D01*
X920415Y126856D01*
X920862Y130250D01*
X920415Y133644D01*
X919106Y136806D01*
X917022Y139522D01*
X914306Y141606D01*
X911144Y142915D01*
X907750Y143362D01*
D02*
G37*
G36*
X677199Y172425D02*
X674258Y172135D01*
X671431Y171277D01*
X668825Y169884D01*
X666541Y168010D01*
X664666Y165726D01*
X663274Y163120D01*
X662416Y160292D01*
X662126Y157352D01*
X662416Y154411D01*
X663274Y151584D01*
X664666Y148978D01*
X666541Y146694D01*
X668825Y144820D01*
X671431Y143427D01*
X672029Y143245D01*
X672091Y141977D01*
X671194Y141606D01*
X668478Y139522D01*
X666395Y136806D01*
X665085Y133644D01*
X664638Y130250D01*
X665085Y126856D01*
X666395Y123694D01*
X668478Y120978D01*
X671194Y118895D01*
X674356Y117585D01*
X677750Y117138D01*
X681144Y117585D01*
X684306Y118895D01*
X687022Y120978D01*
X689106Y123694D01*
X690415Y126856D01*
X690862Y130250D01*
X690415Y133644D01*
X689106Y136806D01*
X687022Y139522D01*
X684306Y141606D01*
X682906Y142185D01*
X682939Y142862D01*
X683081Y143488D01*
X685573Y144820D01*
X687857Y146694D01*
X689731Y148978D01*
X691124Y151584D01*
X691982Y154411D01*
X692271Y157352D01*
X691982Y160292D01*
X691124Y163120D01*
X689731Y165726D01*
X687857Y168010D01*
X685573Y169884D01*
X682967Y171277D01*
X680139Y172135D01*
X677199Y172425D01*
D02*
G37*
G36*
X616500Y123841D02*
X613759Y123480D01*
X611205Y122422D01*
X609011Y120739D01*
X607959Y119368D01*
X467098D01*
X466532Y119801D01*
X464708Y120557D01*
X462750Y120815D01*
X460792Y120557D01*
X458968Y119801D01*
X457401Y118599D01*
X456199Y117032D01*
X455443Y115208D01*
X455185Y113250D01*
X455443Y111292D01*
X456199Y109468D01*
X457401Y107901D01*
X458968Y106699D01*
X460792Y105943D01*
X462750Y105685D01*
X464708Y105943D01*
X466532Y106699D01*
X467098Y107133D01*
X607959D01*
X609011Y105761D01*
X611205Y104078D01*
X613759Y103020D01*
X616500Y102659D01*
X619241Y103020D01*
X621795Y104078D01*
X623989Y105761D01*
X625672Y107955D01*
X626730Y110509D01*
X627091Y113250D01*
X626730Y115991D01*
X625672Y118545D01*
X623989Y120739D01*
X621795Y122422D01*
X619241Y123480D01*
X616500Y123841D01*
D02*
G37*
G36*
X961000Y138792D02*
Y127500D01*
X972292D01*
X972140Y128655D01*
X970729Y132060D01*
X968485Y134985D01*
X965560Y137229D01*
X962155Y138640D01*
X961000Y138792D01*
D02*
G37*
G36*
X956000D02*
X954845Y138640D01*
X951440Y137229D01*
X948515Y134985D01*
X946271Y132060D01*
X944860Y128655D01*
X944708Y127500D01*
X956000D01*
Y138792D01*
D02*
G37*
G36*
X619000Y173497D02*
Y166750D01*
X625747D01*
X624798Y169041D01*
X623275Y171025D01*
X621291Y172548D01*
X619000Y173497D01*
D02*
G37*
G36*
X616500Y199841D02*
X613759Y199480D01*
X611205Y198422D01*
X609011Y196739D01*
X607328Y194545D01*
X606270Y191991D01*
X605909Y189250D01*
X606270Y186509D01*
X607328Y183955D01*
X609011Y181761D01*
X611205Y180078D01*
X613759Y179020D01*
X616500Y178659D01*
X619241Y179020D01*
X621795Y180078D01*
X623989Y181761D01*
X625672Y183955D01*
X626730Y186509D01*
X627091Y189250D01*
X626730Y191991D01*
X625672Y194545D01*
X623989Y196739D01*
X621795Y198422D01*
X619241Y199480D01*
X616500Y199841D01*
D02*
G37*
G36*
X829363Y231064D02*
X825904Y230609D01*
X822681Y229274D01*
X819913Y227150D01*
X817789Y224382D01*
X816454Y221159D01*
X815999Y217700D01*
X816454Y214241D01*
X817789Y211018D01*
X819913Y208250D01*
X822681Y206126D01*
X823866Y205635D01*
Y204365D01*
X822681Y203874D01*
X819913Y201750D01*
X817789Y198982D01*
X816454Y195759D01*
X815999Y192300D01*
X816454Y188841D01*
X817789Y185618D01*
X819913Y182850D01*
X822681Y180726D01*
X825904Y179391D01*
X829363Y178936D01*
X832822Y179391D01*
X836045Y180726D01*
X838813Y182850D01*
X840937Y185618D01*
X842272Y188841D01*
X842727Y192300D01*
X842272Y195759D01*
X840937Y198982D01*
X838813Y201750D01*
X836045Y203874D01*
X834859Y204365D01*
Y205635D01*
X836045Y206126D01*
X838813Y208250D01*
X840937Y211018D01*
X842272Y214241D01*
X842727Y217700D01*
X842272Y221159D01*
X840937Y224382D01*
X838813Y227150D01*
X836045Y229274D01*
X832822Y230609D01*
X829363Y231064D01*
D02*
G37*
G36*
X889000D02*
X885541Y230609D01*
X882318Y229274D01*
X879550Y227150D01*
X877426Y224382D01*
X876091Y221159D01*
X875636Y217700D01*
X876091Y214241D01*
X877426Y211018D01*
X879550Y208250D01*
X882318Y206126D01*
X883504Y205635D01*
Y204365D01*
X882318Y203874D01*
X879550Y201750D01*
X877426Y198982D01*
X876091Y195759D01*
X875636Y192300D01*
X876091Y188841D01*
X877426Y185618D01*
X879550Y182850D01*
X882318Y180726D01*
X885541Y179391D01*
X889000Y178936D01*
X892459Y179391D01*
X895682Y180726D01*
X898450Y182850D01*
X900574Y185618D01*
X901909Y188841D01*
X902364Y192300D01*
X901909Y195759D01*
X900574Y198982D01*
X898450Y201750D01*
X895682Y203874D01*
X894497Y204365D01*
Y205635D01*
X895682Y206126D01*
X898450Y208250D01*
X900574Y211018D01*
X901909Y214241D01*
X902364Y217700D01*
X901909Y221159D01*
X900574Y224382D01*
X898450Y227150D01*
X895682Y229274D01*
X892459Y230609D01*
X889000Y231064D01*
D02*
G37*
G36*
X662800Y202250D02*
X636300D01*
Y175750D01*
X662800D01*
Y183003D01*
X664070Y183256D01*
X664250Y182822D01*
X666213Y180263D01*
X668772Y178300D01*
X671752Y177065D01*
X672450Y176973D01*
Y189000D01*
Y201027D01*
X671752Y200935D01*
X668772Y199700D01*
X666213Y197737D01*
X664250Y195178D01*
X664070Y194744D01*
X662800Y194997D01*
Y202250D01*
D02*
G37*
G36*
X686977Y186500D02*
X677450D01*
Y176973D01*
X678148Y177065D01*
X681128Y178300D01*
X683687Y180263D01*
X685650Y182822D01*
X686885Y185802D01*
X686977Y186500D01*
D02*
G37*
%LPD*%
G36*
X494174Y196674D02*
X496158Y195348D01*
X498499Y194883D01*
X515389D01*
X516171Y193612D01*
X515693Y192459D01*
X515600Y191752D01*
X496965Y173118D01*
X478968D01*
X478482Y174291D01*
X485736Y181545D01*
X486858Y181693D01*
X488682Y182449D01*
X490249Y183651D01*
X491451Y185218D01*
X492207Y187042D01*
X492465Y189000D01*
X492207Y190958D01*
X491451Y192782D01*
X490249Y194349D01*
X488682Y195551D01*
X486858Y196307D01*
X484900Y196565D01*
X482942Y196307D01*
X481118Y195551D01*
X479551Y194349D01*
X478349Y192782D01*
X477593Y190958D01*
X477445Y189836D01*
X470472Y182863D01*
X389313D01*
X388827Y184036D01*
X399928Y195137D01*
X467520D01*
X468418Y194449D01*
X470242Y193693D01*
X472200Y193435D01*
X474158Y193693D01*
X475982Y194449D01*
X477549Y195651D01*
X478751Y197218D01*
X479507Y199042D01*
X479765Y201000D01*
X479552Y202612D01*
X480328Y203883D01*
X486965D01*
X494174Y196674D01*
D02*
G37*
G36*
X331703Y202612D02*
X331382Y201000D01*
Y189000D01*
X331270Y188863D01*
X327428D01*
X314219Y202072D01*
X314466Y203318D01*
X314782Y203449D01*
X315347Y203883D01*
X330799D01*
X331703Y202612D01*
D02*
G37*
G36*
X489076Y322612D02*
X487918Y321839D01*
X468004Y301925D01*
X466734Y300023D01*
X466528Y298991D01*
X465620Y298615D01*
X464158Y297493D01*
X463036Y296030D01*
X462330Y294327D01*
X462090Y292500D01*
Y278500D01*
X462330Y276673D01*
X463036Y274970D01*
X464158Y273508D01*
X465620Y272386D01*
X467323Y271680D01*
X469150Y271440D01*
X475150D01*
X476977Y271680D01*
X478680Y272386D01*
X480142Y273508D01*
X481264Y274970D01*
X481970Y276673D01*
X482210Y278500D01*
Y292500D01*
X481970Y294327D01*
X481264Y296030D01*
X480147Y297486D01*
X494492Y311830D01*
X527681D01*
X541545Y297966D01*
X541693Y296844D01*
X542449Y295020D01*
X543651Y293453D01*
X545218Y292251D01*
X547042Y291495D01*
X549000Y291238D01*
X550958Y291495D01*
X552782Y292251D01*
X554349Y293453D01*
X555551Y295020D01*
X556307Y296844D01*
X556565Y298802D01*
X556537Y299016D01*
X557739Y299609D01*
X562382Y294966D01*
Y289874D01*
X562848Y287533D01*
X564174Y285548D01*
X623299Y226423D01*
X622813Y225250D01*
X606000D01*
Y212901D01*
X600216Y207118D01*
X561041D01*
X560414Y208388D01*
X561051Y209218D01*
X561807Y211042D01*
X562065Y213000D01*
X561807Y214958D01*
X561051Y216782D01*
X559849Y218349D01*
X558282Y219551D01*
X556458Y220307D01*
X554500Y220565D01*
X552542Y220307D01*
X550718Y219551D01*
X549820Y218863D01*
X518688D01*
X517635Y220133D01*
X517765Y221122D01*
X517507Y223080D01*
X516751Y224904D01*
X515549Y226471D01*
X513982Y227673D01*
X512158Y228429D01*
X511036Y228576D01*
X509967Y229646D01*
X508065Y230916D01*
X505822Y231363D01*
X478929D01*
X478302Y232633D01*
X478751Y233218D01*
X479507Y235042D01*
X479655Y236164D01*
X498628Y255137D01*
X516000D01*
X518243Y255584D01*
X520145Y256854D01*
X527095Y263804D01*
X528366Y265707D01*
X528813Y267950D01*
Y272109D01*
X529480Y272386D01*
X530942Y273508D01*
X532065Y274970D01*
X532770Y276673D01*
X533010Y278500D01*
Y292500D01*
X532770Y294327D01*
X532065Y296030D01*
X530942Y297493D01*
X529480Y298615D01*
X527777Y299320D01*
X525950Y299560D01*
X519950D01*
X518123Y299320D01*
X516420Y298615D01*
X514958Y297493D01*
X513835Y296030D01*
X513130Y294327D01*
X512890Y292500D01*
Y278500D01*
X513130Y276673D01*
X513835Y274970D01*
X514958Y273508D01*
X516420Y272386D01*
X517087Y272109D01*
Y270378D01*
X513572Y266863D01*
X496200D01*
X493956Y266416D01*
X492054Y265145D01*
X471364Y244455D01*
X470242Y244307D01*
X468418Y243551D01*
X466851Y242349D01*
X465649Y240782D01*
X464893Y238958D01*
X464635Y237000D01*
X464893Y235042D01*
X465649Y233218D01*
X466098Y232633D01*
X465471Y231363D01*
X462339D01*
X461620Y232633D01*
X462672Y235172D01*
X463110Y238500D01*
X462672Y241828D01*
X461387Y244930D01*
X459343Y247593D01*
X456680Y249637D01*
X453578Y250922D01*
X450250Y251360D01*
X446922Y250922D01*
X443820Y249637D01*
X441157Y247593D01*
X439113Y244930D01*
X437828Y241828D01*
X437390Y238500D01*
X437828Y235172D01*
X438880Y232633D01*
X438161Y231363D01*
X329852D01*
X329220Y232633D01*
X329804Y234042D01*
X330061Y236000D01*
X329804Y237958D01*
X329048Y239782D01*
X328614Y240348D01*
Y274963D01*
X333252Y279600D01*
X333958Y279693D01*
X335782Y280449D01*
X337349Y281651D01*
X338551Y283218D01*
X339307Y285042D01*
X339565Y287000D01*
X339378Y288415D01*
X340242Y289685D01*
X440303D01*
X442644Y290150D01*
X444629Y291477D01*
X475752Y322600D01*
X476459Y322693D01*
X478283Y323449D01*
X478848Y323882D01*
X488691D01*
X489076Y322612D01*
D02*
G37*
%LPC*%
G36*
X544750Y251360D02*
X541422Y250922D01*
X538320Y249637D01*
X535657Y247593D01*
X533613Y244930D01*
X532328Y241828D01*
X531890Y238500D01*
X532328Y235172D01*
X533613Y232070D01*
X535657Y229407D01*
X538320Y227363D01*
X541422Y226078D01*
X544750Y225640D01*
X548078Y226078D01*
X551180Y227363D01*
X553843Y229407D01*
X555887Y232070D01*
X557172Y235172D01*
X557610Y238500D01*
X557172Y241828D01*
X555887Y244930D01*
X553843Y247593D01*
X551180Y249637D01*
X548078Y250922D01*
X544750Y251360D01*
D02*
G37*
G36*
X497550Y307565D02*
X495592Y307307D01*
X493768Y306551D01*
X492201Y305349D01*
X490999Y303782D01*
X490243Y301958D01*
X489985Y300000D01*
X490243Y298042D01*
X490251Y298024D01*
X489558Y297493D01*
X488436Y296030D01*
X487730Y294327D01*
X487490Y292500D01*
Y278500D01*
X487730Y276673D01*
X488436Y274970D01*
X489558Y273508D01*
X491020Y272386D01*
X492723Y271680D01*
X494550Y271440D01*
X500550D01*
X502377Y271680D01*
X504080Y272386D01*
X505542Y273508D01*
X506665Y274970D01*
X507370Y276673D01*
X507610Y278500D01*
Y292500D01*
X507370Y294327D01*
X506665Y296030D01*
X505542Y297493D01*
X504850Y298024D01*
X504857Y298042D01*
X505115Y300000D01*
X504857Y301958D01*
X504101Y303782D01*
X502899Y305349D01*
X501332Y306551D01*
X499508Y307307D01*
X497550Y307565D01*
D02*
G37*
%LPD*%
D45*
Y285500D02*
D03*
X522950Y33500D02*
D03*
X497550D02*
D03*
X472150D02*
D03*
Y285500D02*
D03*
X522950D02*
D03*
D50*
X497450Y33600D02*
X497550Y33500D01*
X497450Y33600D02*
Y50000D01*
X497550Y285500D02*
Y300000D01*
X530109Y317693D02*
X549000Y298802D01*
X492063Y317693D02*
X530109D01*
X472150Y297780D02*
X492063Y317693D01*
X512001Y60999D02*
X522950Y50050D01*
X490000Y60999D02*
X512001D01*
X485000Y56000D02*
X490000Y60999D01*
X297000Y211000D02*
X301000Y207000D01*
X325000Y183000D01*
X379500D01*
X397500Y201000D01*
X504622Y213000D02*
X554500D01*
X497622Y220000D02*
X504622Y213000D01*
X300500Y220000D02*
X497622D01*
X505822Y225500D02*
X510200Y221122D01*
X276000Y211000D02*
X297000D01*
X397500Y201000D02*
X472200D01*
X320000Y177000D02*
X472900D01*
X317647Y225500D02*
X505822D01*
X310147Y233000D02*
X317647Y225500D01*
X279000Y233000D02*
X310147D01*
X472900Y177000D02*
X484900Y189000D01*
X295000Y202000D02*
X320000Y177000D01*
X261000Y226000D02*
X276000Y211000D01*
X272000Y226000D02*
X279000Y233000D01*
X522950Y33500D02*
Y50050D01*
X484000Y69000D02*
X522850D01*
X472150Y57150D02*
X484000Y69000D01*
X472150Y33500D02*
Y57150D01*
X472200Y237000D02*
X496200Y261000D01*
X516000D01*
X522950Y267950D01*
Y285500D01*
X472150D02*
Y297780D01*
D51*
X435000Y365000D02*
Y401000D01*
X440303Y295802D02*
X474501Y330000D01*
X281179Y295802D02*
X440303D01*
X263000Y277624D02*
X281179Y295802D01*
X322496Y277496D02*
X332000Y287000D01*
X322496Y236000D02*
Y277496D01*
X239376Y254000D02*
X263000Y277624D01*
X156000Y254000D02*
X239376D01*
X474501Y330000D02*
X536000D01*
X568500Y297500D01*
Y289874D02*
Y297500D01*
Y289874D02*
X633363Y225011D01*
Y214500D02*
Y225011D01*
X474250Y138750D02*
X616500D01*
X462750Y113250D02*
X616500D01*
X602750Y201000D02*
X616500Y214750D01*
X498499Y201000D02*
X602750D01*
X489499Y210000D02*
X498499Y201000D01*
X311000Y210000D02*
X489499D01*
X327428Y171250D02*
X331678Y167000D01*
X317618Y171250D02*
X327428D01*
X298868Y190000D02*
X317618Y171250D01*
X286000Y190000D02*
X298868D01*
X331678Y167000D02*
X499499D01*
X523000Y190501D01*
X250000Y226000D02*
X286000Y190000D01*
X616500Y212500D02*
Y214750D01*
X378002Y305002D02*
X394000Y321000D01*
X424250D01*
X327998Y305002D02*
X378002D01*
X320000Y313000D02*
X327998Y305002D01*
X218000Y313000D02*
X320000D01*
X206000Y325000D02*
X218000Y313000D01*
X228000Y325000D02*
X331000D01*
X342000Y314000D01*
X365000D01*
X391000Y340000D01*
Y360500D01*
X375000Y358473D02*
X390527Y374000D01*
X375000Y336666D02*
Y358473D01*
X362333Y324000D02*
X375000Y336666D01*
X347000Y324000D02*
X362333D01*
X337015Y333985D02*
X347000Y324000D01*
X337015Y333985D02*
Y334000D01*
X226000D02*
X337015D01*
X217000Y325000D02*
X226000Y334000D01*
X342000Y337500D02*
X355000D01*
X338500Y341000D02*
X342000Y337500D01*
X211000Y341000D02*
X338500D01*
X195000Y325000D02*
X211000Y341000D01*
X340000Y347500D02*
X355000Y362500D01*
X206500Y347500D02*
X340000D01*
X184000Y325000D02*
X206500Y347500D01*
X203393Y355000D02*
X310000D01*
X173120Y324727D02*
X203393Y355000D01*
X435000Y365000D02*
X895000D01*
X499001Y375000D02*
X895250D01*
X673751Y355000D02*
X895000D01*
X673751Y345000D02*
X895000D01*
X665000Y335000D02*
X895000D01*
X173000Y324727D02*
X173120D01*
X641750Y101750D02*
Y149500D01*
D52*
X151000Y177500D02*
X198500D01*
X254000Y122000D01*
Y41500D02*
Y122000D01*
D55*
X354000Y41500D02*
D03*
X304000D02*
D03*
X254000D02*
D03*
X677199Y157352D02*
D03*
X865000Y46500D02*
D03*
X815000D02*
D03*
X958500Y175000D02*
D03*
Y125000D02*
D03*
X958500Y275000D02*
D03*
Y225000D02*
D03*
X154000Y41500D02*
D03*
X204000D02*
D03*
X958500Y325000D02*
D03*
Y375000D02*
D03*
D56*
X950000Y450000D02*
D03*
Y50000D02*
D03*
X50000D02*
D03*
Y450000D02*
D03*
D57*
X176400Y424600D02*
D03*
Y475400D02*
D03*
X125600D02*
D03*
X151000Y450000D02*
D03*
X125600Y424600D02*
D03*
D58*
X907750Y130250D02*
D03*
X677750D02*
D03*
D59*
X889000Y192300D02*
D03*
Y217700D02*
D03*
X802700Y280000D02*
D03*
X777300D02*
D03*
X829363Y192300D02*
D03*
Y217700D02*
D03*
X674950Y189000D02*
D03*
D60*
X355000Y337500D02*
D03*
X368500Y195000D02*
D03*
D61*
X355000Y362500D02*
D03*
D62*
X343500Y195000D02*
D03*
D63*
X692249Y47000D02*
D03*
X648249D02*
D03*
D64*
X649550Y189000D02*
D03*
D65*
X616500Y214750D02*
D03*
D66*
Y189250D02*
D03*
Y164250D02*
D03*
Y138750D02*
D03*
Y113250D02*
D03*
D67*
X419300Y15000D02*
D03*
X580700D02*
D03*
D68*
X689249Y35000D02*
D03*
X651249D02*
D03*
X497550Y300000D02*
D03*
X497450Y50000D02*
D03*
X584000Y341551D02*
D03*
X548078Y341218D02*
D03*
X564697Y341551D02*
D03*
X582500Y400000D02*
D03*
X547500D02*
D03*
X565000D02*
D03*
X662500Y240250D02*
D03*
X612307Y230750D02*
D03*
X449183Y350462D02*
D03*
X408000Y350001D02*
D03*
X432000Y335501D02*
D03*
X398484Y307348D02*
D03*
X349000Y286440D02*
D03*
X388569Y282973D02*
D03*
X410332Y284175D02*
D03*
X440000Y286440D02*
D03*
X886113Y287000D02*
D03*
X907485Y278516D02*
D03*
X916111Y254000D02*
D03*
X914612Y233337D02*
D03*
X915384Y205000D02*
D03*
X914455Y177500D02*
D03*
X915969Y153500D02*
D03*
X929684Y127837D02*
D03*
X923047Y108500D02*
D03*
X907863Y93307D02*
D03*
X893500Y80000D02*
D03*
X876500Y398817D02*
D03*
X830900Y400000D02*
D03*
X810000D02*
D03*
X684633Y399160D02*
D03*
X703500Y399500D02*
D03*
X762000D02*
D03*
X787500Y400000D02*
D03*
X790000Y323500D02*
D03*
X686459Y300760D02*
D03*
X705787Y299714D02*
D03*
X766750Y304205D02*
D03*
X790000Y303500D02*
D03*
X808084Y306500D02*
D03*
X876091Y322327D02*
D03*
X875500Y307000D02*
D03*
X825787Y276541D02*
D03*
Y259249D02*
D03*
X825000Y245574D02*
D03*
X750000Y220000D02*
D03*
X810000Y230000D02*
D03*
X810433Y217505D02*
D03*
X809912Y195759D02*
D03*
Y173633D02*
D03*
X810000Y150000D02*
D03*
Y130000D02*
D03*
X809912Y92942D02*
D03*
X798674Y85339D02*
D03*
X778120D02*
D03*
X756317D02*
D03*
X736751D02*
D03*
X699673Y227673D02*
D03*
X750500Y230000D02*
D03*
Y246035D02*
D03*
X605091Y275302D02*
D03*
Y293628D02*
D03*
X559296Y178159D02*
D03*
X559659Y125000D02*
D03*
X581107Y260000D02*
D03*
Y230000D02*
D03*
X554104Y90893D02*
D03*
X559296Y160000D02*
D03*
X570750Y180000D02*
D03*
X599450Y80000D02*
D03*
X580673Y99000D02*
D03*
X578200Y124902D02*
D03*
X548078Y127029D02*
D03*
X537916Y84616D02*
D03*
X509967D02*
D03*
X522950Y153000D02*
D03*
X522485Y126750D02*
D03*
X436250Y119750D02*
D03*
X468418Y126606D02*
D03*
X398601Y187042D02*
D03*
X360074Y254000D02*
D03*
X270000Y250000D02*
D03*
X260000Y260000D02*
D03*
X210000Y240000D02*
D03*
X190000Y230000D02*
D03*
X170000D02*
D03*
Y270000D02*
D03*
X190000D02*
D03*
X210000D02*
D03*
X230000D02*
D03*
X260000Y300000D02*
D03*
X240000D02*
D03*
X220000D02*
D03*
X200000D02*
D03*
X180000D02*
D03*
X160000D02*
D03*
X890000Y440000D02*
D03*
X870000D02*
D03*
X850000D02*
D03*
X830000D02*
D03*
X810000D02*
D03*
X790000D02*
D03*
X770000D02*
D03*
X750000D02*
D03*
X730000D02*
D03*
X710000D02*
D03*
X690000D02*
D03*
X670000D02*
D03*
X650000D02*
D03*
X630000D02*
D03*
X610000D02*
D03*
X590000D02*
D03*
X570000D02*
D03*
X550000D02*
D03*
X530000D02*
D03*
X510000D02*
D03*
X490000D02*
D03*
X470000D02*
D03*
X450000D02*
D03*
X430000D02*
D03*
X410000D02*
D03*
X900000Y460000D02*
D03*
X880000D02*
D03*
X860000D02*
D03*
X840000D02*
D03*
X820000D02*
D03*
X800000D02*
D03*
X780000D02*
D03*
X760000D02*
D03*
X740000D02*
D03*
X720000D02*
D03*
X700000D02*
D03*
X680000D02*
D03*
X660000D02*
D03*
X640000D02*
D03*
X620000D02*
D03*
X600000D02*
D03*
X580000D02*
D03*
X560000D02*
D03*
X540000D02*
D03*
X520000D02*
D03*
X500000D02*
D03*
X480000D02*
D03*
X460000D02*
D03*
X440000D02*
D03*
X420000D02*
D03*
X910000Y420000D02*
D03*
X890000D02*
D03*
X870000D02*
D03*
X850000D02*
D03*
X830000D02*
D03*
X810000D02*
D03*
X790000D02*
D03*
X770000D02*
D03*
X750000D02*
D03*
X730000D02*
D03*
X710000D02*
D03*
X690000D02*
D03*
X670000D02*
D03*
X650000D02*
D03*
X630000D02*
D03*
X610000D02*
D03*
X590000D02*
D03*
X570000D02*
D03*
X550000D02*
D03*
X530000D02*
D03*
X510000D02*
D03*
X490000D02*
D03*
X470000D02*
D03*
X450000D02*
D03*
X430000D02*
D03*
X450000Y40000D02*
D03*
Y60000D02*
D03*
Y80000D02*
D03*
X440000Y100000D02*
D03*
X420000D02*
D03*
X400000D02*
D03*
X300000Y170000D02*
D03*
X280000D02*
D03*
X260000D02*
D03*
X240000D02*
D03*
X380000Y140000D02*
D03*
Y120000D02*
D03*
Y100000D02*
D03*
Y80000D02*
D03*
Y60000D02*
D03*
Y40000D02*
D03*
X279000Y50000D02*
D03*
X280000Y70000D02*
D03*
Y90000D02*
D03*
Y110000D02*
D03*
Y130000D02*
D03*
X230000D02*
D03*
Y110000D02*
D03*
Y90000D02*
D03*
Y70000D02*
D03*
Y50000D02*
D03*
Y30000D02*
D03*
X70000Y100000D02*
D03*
X30000D02*
D03*
X50000D02*
D03*
X140000Y170000D02*
D03*
X120000D02*
D03*
X100000Y50000D02*
D03*
Y70000D02*
D03*
Y90000D02*
D03*
Y110000D02*
D03*
Y130000D02*
D03*
Y150000D02*
D03*
Y170000D02*
D03*
Y190000D02*
D03*
Y210000D02*
D03*
Y230000D02*
D03*
Y250000D02*
D03*
Y270000D02*
D03*
Y290000D02*
D03*
Y310000D02*
D03*
Y330000D02*
D03*
Y370000D02*
D03*
X110000Y380000D02*
D03*
X190000D02*
D03*
X210000D02*
D03*
X230000D02*
D03*
X270000D02*
D03*
X290000D02*
D03*
X310000D02*
D03*
X330000D02*
D03*
X350000D02*
D03*
X370000D02*
D03*
X380000Y400000D02*
D03*
X360000D02*
D03*
X340000D02*
D03*
X320000D02*
D03*
X300000D02*
D03*
X280000D02*
D03*
X220000D02*
D03*
X200000D02*
D03*
X180000D02*
D03*
X120000D02*
D03*
X20000D02*
D03*
X40000D02*
D03*
X60000D02*
D03*
X80000D02*
D03*
X100000D02*
D03*
Y420000D02*
D03*
Y440000D02*
D03*
Y460000D02*
D03*
Y480000D02*
D03*
X430000D02*
D03*
X450000D02*
D03*
X470000D02*
D03*
X490000D02*
D03*
X510000D02*
D03*
X530000D02*
D03*
X550000D02*
D03*
X570000D02*
D03*
X590000D02*
D03*
X610000D02*
D03*
X630000D02*
D03*
X650000D02*
D03*
X670000D02*
D03*
X690000D02*
D03*
X710000D02*
D03*
X730000D02*
D03*
X750000D02*
D03*
X770000D02*
D03*
X790000D02*
D03*
X810000D02*
D03*
X830000D02*
D03*
X850000D02*
D03*
X870000D02*
D03*
X890000D02*
D03*
X910000D02*
D03*
X980000Y410000D02*
D03*
Y390000D02*
D03*
Y370000D02*
D03*
Y350000D02*
D03*
Y330000D02*
D03*
Y310000D02*
D03*
Y290000D02*
D03*
Y270000D02*
D03*
Y250000D02*
D03*
Y230000D02*
D03*
Y210000D02*
D03*
Y190000D02*
D03*
Y170000D02*
D03*
Y150000D02*
D03*
Y130000D02*
D03*
Y110000D02*
D03*
X900000Y20000D02*
D03*
X880000D02*
D03*
X860000D02*
D03*
X840000D02*
D03*
X820000D02*
D03*
X800000D02*
D03*
X780000D02*
D03*
X760000D02*
D03*
X740000D02*
D03*
X697127Y73680D02*
D03*
X720000Y40000D02*
D03*
Y50000D02*
D03*
X620000Y40000D02*
D03*
Y50000D02*
D03*
X690000Y20000D02*
D03*
X670000D02*
D03*
X650000D02*
D03*
X600000D02*
D03*
X560000D02*
D03*
X540000D02*
D03*
X460000D02*
D03*
X440000D02*
D03*
X400000D02*
D03*
X380000D02*
D03*
X360000D02*
D03*
X340000D02*
D03*
X320000D02*
D03*
X300000D02*
D03*
X280000D02*
D03*
X260000D02*
D03*
X240000D02*
D03*
X220000D02*
D03*
X200000D02*
D03*
X180000D02*
D03*
X160000D02*
D03*
X140000D02*
D03*
X120000D02*
D03*
X100000D02*
D03*
X435000Y401000D02*
D03*
X332000Y287000D02*
D03*
X263000Y277624D02*
D03*
X156000Y254000D02*
D03*
X474501Y330000D02*
D03*
X633363Y214500D02*
D03*
X462750Y113250D02*
D03*
X474250Y138750D02*
D03*
X311000Y210000D02*
D03*
X510200Y221122D02*
D03*
X554500Y213000D02*
D03*
X523000Y190501D02*
D03*
X484900Y189000D02*
D03*
X472200Y201000D02*
D03*
X322496Y236000D02*
D03*
X300500Y220000D02*
D03*
X295000Y202000D02*
D03*
X272000Y226000D02*
D03*
X261000D02*
D03*
X250000Y226000D02*
D03*
X485000Y56000D02*
D03*
X522850Y69000D02*
D03*
X472200Y237000D02*
D03*
X549000Y298802D02*
D03*
X424250Y321000D02*
D03*
X391000Y360500D02*
D03*
X390527Y374000D02*
D03*
X173000Y324727D02*
D03*
X184000Y325000D02*
D03*
X195000D02*
D03*
X206000D02*
D03*
X217000Y325000D02*
D03*
X228000Y325000D02*
D03*
X310000Y355000D02*
D03*
X499001Y375000D02*
D03*
X435000Y365000D02*
D03*
X673751Y355000D02*
D03*
Y345000D02*
D03*
X665000Y335000D02*
D03*
X895000D02*
D03*
Y345000D02*
D03*
Y355000D02*
D03*
Y365000D02*
D03*
X895250Y375000D02*
D03*
X641750Y101750D02*
D03*
Y149500D02*
D03*
X151000Y177500D02*
D03*
D69*
X191000Y81000D02*
D03*
X167000D02*
D03*
D70*
X434200Y60000D02*
D03*
X574200D02*
D03*
D71*
X570250Y80500D02*
D03*
X450250Y238500D02*
D03*
X544750D02*
D03*
X424750Y80500D02*
D03*
M02*
