%FSLAX44Y44*%
%MOMM*%
G71*
G01*
G75*
G04 Layer_Color=65535*
G04:AMPARAMS|DCode=10|XSize=1.5mm|YSize=3mm|CornerRadius=0.375mm|HoleSize=0mm|Usage=FLASHONLY|Rotation=0.000|XOffset=0mm|YOffset=0mm|HoleType=Round|Shape=RoundedRectangle|*
%AMROUNDEDRECTD10*
21,1,1.5000,2.2500,0,0,0.0*
21,1,0.7500,3.0000,0,0,0.0*
1,1,0.7500,0.3750,-1.1250*
1,1,0.7500,-0.3750,-1.1250*
1,1,0.7500,-0.3750,1.1250*
1,1,0.7500,0.3750,1.1250*
%
%ADD10ROUNDEDRECTD10*%
%ADD11R,0.4000X1.4000*%
%ADD12R,1.8000X1.9000*%
G04:AMPARAMS|DCode=13|XSize=1mm|YSize=1.2mm|CornerRadius=0.165mm|HoleSize=0mm|Usage=FLASHONLY|Rotation=0.000|XOffset=0mm|YOffset=0mm|HoleType=Round|Shape=RoundedRectangle|*
%AMROUNDEDRECTD13*
21,1,1.0000,0.8700,0,0,0.0*
21,1,0.6700,1.2000,0,0,0.0*
1,1,0.3300,0.3350,-0.4350*
1,1,0.3300,-0.3350,-0.4350*
1,1,0.3300,-0.3350,0.4350*
1,1,0.3300,0.3350,0.4350*
%
%ADD13ROUNDEDRECTD13*%
G04:AMPARAMS|DCode=14|XSize=2.35mm|YSize=1.15mm|CornerRadius=0.3852mm|HoleSize=0mm|Usage=FLASHONLY|Rotation=180.000|XOffset=0mm|YOffset=0mm|HoleType=Round|Shape=RoundedRectangle|*
%AMROUNDEDRECTD14*
21,1,2.3500,0.3795,0,0,180.0*
21,1,1.5795,1.1500,0,0,180.0*
1,1,0.7705,-0.7897,0.1898*
1,1,0.7705,0.7897,0.1898*
1,1,0.7705,0.7897,-0.1898*
1,1,0.7705,-0.7897,-0.1898*
%
%ADD14ROUNDEDRECTD14*%
G04:AMPARAMS|DCode=15|XSize=1.3mm|YSize=1mm|CornerRadius=0.25mm|HoleSize=0mm|Usage=FLASHONLY|Rotation=180.000|XOffset=0mm|YOffset=0mm|HoleType=Round|Shape=RoundedRectangle|*
%AMROUNDEDRECTD15*
21,1,1.3000,0.5000,0,0,180.0*
21,1,0.8000,1.0000,0,0,180.0*
1,1,0.5000,-0.4000,0.2500*
1,1,0.5000,0.4000,0.2500*
1,1,0.5000,0.4000,-0.2500*
1,1,0.5000,-0.4000,-0.2500*
%
%ADD15ROUNDEDRECTD15*%
G04:AMPARAMS|DCode=16|XSize=2.5mm|YSize=1.15mm|CornerRadius=0.3852mm|HoleSize=0mm|Usage=FLASHONLY|Rotation=180.000|XOffset=0mm|YOffset=0mm|HoleType=Round|Shape=RoundedRectangle|*
%AMROUNDEDRECTD16*
21,1,2.5000,0.3795,0,0,180.0*
21,1,1.7295,1.1500,0,0,180.0*
1,1,0.7705,-0.8648,0.1898*
1,1,0.7705,0.8648,0.1898*
1,1,0.7705,0.8648,-0.1898*
1,1,0.7705,-0.8648,-0.1898*
%
%ADD16ROUNDEDRECTD16*%
%ADD17O,0.7000X2.5000*%
%ADD18O,2.5000X0.7000*%
%ADD19R,1.1000X1.1000*%
%ADD20R,4.0000X4.0000*%
%ADD21O,1.1000X0.4000*%
%ADD22O,0.4000X1.1000*%
G04:AMPARAMS|DCode=23|XSize=1.1mm|YSize=0.6mm|CornerRadius=0.201mm|HoleSize=0mm|Usage=FLASHONLY|Rotation=180.000|XOffset=0mm|YOffset=0mm|HoleType=Round|Shape=RoundedRectangle|*
%AMROUNDEDRECTD23*
21,1,1.1000,0.1980,0,0,180.0*
21,1,0.6980,0.6000,0,0,180.0*
1,1,0.4020,-0.3490,0.0990*
1,1,0.4020,0.3490,0.0990*
1,1,0.4020,0.3490,-0.0990*
1,1,0.4020,-0.3490,-0.0990*
%
%ADD23ROUNDEDRECTD23*%
G04:AMPARAMS|DCode=24|XSize=1mm|YSize=0.9mm|CornerRadius=0.198mm|HoleSize=0mm|Usage=FLASHONLY|Rotation=90.000|XOffset=0mm|YOffset=0mm|HoleType=Round|Shape=RoundedRectangle|*
%AMROUNDEDRECTD24*
21,1,1.0000,0.5040,0,0,90.0*
21,1,0.6040,0.9000,0,0,90.0*
1,1,0.3960,0.2520,0.3020*
1,1,0.3960,0.2520,-0.3020*
1,1,0.3960,-0.2520,-0.3020*
1,1,0.3960,-0.2520,0.3020*
%
%ADD24ROUNDEDRECTD24*%
G04:AMPARAMS|DCode=25|XSize=0.67mm|YSize=0.67mm|CornerRadius=0.1508mm|HoleSize=0mm|Usage=FLASHONLY|Rotation=180.000|XOffset=0mm|YOffset=0mm|HoleType=Round|Shape=RoundedRectangle|*
%AMROUNDEDRECTD25*
21,1,0.6700,0.3685,0,0,180.0*
21,1,0.3685,0.6700,0,0,180.0*
1,1,0.3015,-0.1843,0.1843*
1,1,0.3015,0.1843,0.1843*
1,1,0.3015,0.1843,-0.1843*
1,1,0.3015,-0.1843,-0.1843*
%
%ADD25ROUNDEDRECTD25*%
G04:AMPARAMS|DCode=26|XSize=0.67mm|YSize=0.67mm|CornerRadius=0.1508mm|HoleSize=0mm|Usage=FLASHONLY|Rotation=270.000|XOffset=0mm|YOffset=0mm|HoleType=Round|Shape=RoundedRectangle|*
%AMROUNDEDRECTD26*
21,1,0.6700,0.3685,0,0,270.0*
21,1,0.3685,0.6700,0,0,270.0*
1,1,0.3015,-0.1843,-0.1843*
1,1,0.3015,-0.1843,0.1843*
1,1,0.3015,0.1843,0.1843*
1,1,0.3015,0.1843,-0.1843*
%
%ADD26ROUNDEDRECTD26*%
G04:AMPARAMS|DCode=27|XSize=1.05mm|YSize=0.65mm|CornerRadius=0.2015mm|HoleSize=0mm|Usage=FLASHONLY|Rotation=90.000|XOffset=0mm|YOffset=0mm|HoleType=Round|Shape=RoundedRectangle|*
%AMROUNDEDRECTD27*
21,1,1.0500,0.2470,0,0,90.0*
21,1,0.6470,0.6500,0,0,90.0*
1,1,0.4030,0.1235,0.3235*
1,1,0.4030,0.1235,-0.3235*
1,1,0.4030,-0.1235,-0.3235*
1,1,0.4030,-0.1235,0.3235*
%
%ADD27ROUNDEDRECTD27*%
G04:AMPARAMS|DCode=28|XSize=0.65mm|YSize=0.5mm|CornerRadius=0.2mm|HoleSize=0mm|Usage=FLASHONLY|Rotation=270.000|XOffset=0mm|YOffset=0mm|HoleType=Round|Shape=RoundedRectangle|*
%AMROUNDEDRECTD28*
21,1,0.6500,0.1000,0,0,270.0*
21,1,0.2500,0.5000,0,0,270.0*
1,1,0.4000,-0.0500,-0.1250*
1,1,0.4000,-0.0500,0.1250*
1,1,0.4000,0.0500,0.1250*
1,1,0.4000,0.0500,-0.1250*
%
%ADD28ROUNDEDRECTD28*%
G04:AMPARAMS|DCode=29|XSize=0.62mm|YSize=0.62mm|CornerRadius=0.1488mm|HoleSize=0mm|Usage=FLASHONLY|Rotation=270.000|XOffset=0mm|YOffset=0mm|HoleType=Round|Shape=RoundedRectangle|*
%AMROUNDEDRECTD29*
21,1,0.6200,0.3224,0,0,270.0*
21,1,0.3224,0.6200,0,0,270.0*
1,1,0.2976,-0.1612,-0.1612*
1,1,0.2976,-0.1612,0.1612*
1,1,0.2976,0.1612,0.1612*
1,1,0.2976,0.1612,-0.1612*
%
%ADD29ROUNDEDRECTD29*%
G04:AMPARAMS|DCode=30|XSize=1mm|YSize=0.95mm|CornerRadius=0.1995mm|HoleSize=0mm|Usage=FLASHONLY|Rotation=0.000|XOffset=0mm|YOffset=0mm|HoleType=Round|Shape=RoundedRectangle|*
%AMROUNDEDRECTD30*
21,1,1.0000,0.5510,0,0,0.0*
21,1,0.6010,0.9500,0,0,0.0*
1,1,0.3990,0.3005,-0.2755*
1,1,0.3990,-0.3005,-0.2755*
1,1,0.3990,-0.3005,0.2755*
1,1,0.3990,0.3005,0.2755*
%
%ADD30ROUNDEDRECTD30*%
G04:AMPARAMS|DCode=31|XSize=1mm|YSize=0.95mm|CornerRadius=0.1995mm|HoleSize=0mm|Usage=FLASHONLY|Rotation=270.000|XOffset=0mm|YOffset=0mm|HoleType=Round|Shape=RoundedRectangle|*
%AMROUNDEDRECTD31*
21,1,1.0000,0.5510,0,0,270.0*
21,1,0.6010,0.9500,0,0,270.0*
1,1,0.3990,-0.2755,-0.3005*
1,1,0.3990,-0.2755,0.3005*
1,1,0.3990,0.2755,0.3005*
1,1,0.3990,0.2755,-0.3005*
%
%ADD31ROUNDEDRECTD31*%
G04:AMPARAMS|DCode=32|XSize=0.5mm|YSize=0.21mm|CornerRadius=0.0347mm|HoleSize=0mm|Usage=FLASHONLY|Rotation=180.000|XOffset=0mm|YOffset=0mm|HoleType=Round|Shape=RoundedRectangle|*
%AMROUNDEDRECTD32*
21,1,0.5000,0.1407,0,0,180.0*
21,1,0.4307,0.2100,0,0,180.0*
1,1,0.0693,-0.2154,0.0704*
1,1,0.0693,0.2154,0.0704*
1,1,0.0693,0.2154,-0.0704*
1,1,0.0693,-0.2154,-0.0704*
%
%ADD32ROUNDEDRECTD32*%
G04:AMPARAMS|DCode=33|XSize=0.3mm|YSize=0.65mm|CornerRadius=0.0495mm|HoleSize=0mm|Usage=FLASHONLY|Rotation=180.000|XOffset=0mm|YOffset=0mm|HoleType=Round|Shape=RoundedRectangle|*
%AMROUNDEDRECTD33*
21,1,0.3000,0.5510,0,0,180.0*
21,1,0.2010,0.6500,0,0,180.0*
1,1,0.0990,-0.1005,0.2755*
1,1,0.0990,0.1005,0.2755*
1,1,0.0990,0.1005,-0.2755*
1,1,0.0990,-0.1005,-0.2755*
%
%ADD33ROUNDEDRECTD33*%
G04:AMPARAMS|DCode=34|XSize=0.65mm|YSize=0.35mm|CornerRadius=0.0735mm|HoleSize=0mm|Usage=FLASHONLY|Rotation=270.000|XOffset=0mm|YOffset=0mm|HoleType=Round|Shape=RoundedRectangle|*
%AMROUNDEDRECTD34*
21,1,0.6500,0.2030,0,0,270.0*
21,1,0.5030,0.3500,0,0,270.0*
1,1,0.1470,-0.1015,-0.2515*
1,1,0.1470,-0.1015,0.2515*
1,1,0.1470,0.1015,0.2515*
1,1,0.1470,0.1015,-0.2515*
%
%ADD34ROUNDEDRECTD34*%
G04:AMPARAMS|DCode=35|XSize=0.3mm|YSize=0.25mm|CornerRadius=0.0525mm|HoleSize=0mm|Usage=FLASHONLY|Rotation=270.000|XOffset=0mm|YOffset=0mm|HoleType=Round|Shape=RoundedRectangle|*
%AMROUNDEDRECTD35*
21,1,0.3000,0.1450,0,0,270.0*
21,1,0.1950,0.2500,0,0,270.0*
1,1,0.1050,-0.0725,-0.0975*
1,1,0.1050,-0.0725,0.0975*
1,1,0.1050,0.0725,0.0975*
1,1,0.1050,0.0725,-0.0975*
%
%ADD35ROUNDEDRECTD35*%
%ADD36C,0.2500*%
%ADD37C,0.3500*%
%ADD38C,0.2000*%
%ADD39C,0.6000*%
%ADD40C,0.3000*%
%ADD41C,0.7000*%
%ADD42C,0.4000*%
%ADD43C,0.5000*%
%ADD44C,0.7000*%
%ADD45C,0.8000*%
G04:AMPARAMS|DCode=46|XSize=1.15mm|YSize=2.1mm|CornerRadius=0.2875mm|HoleSize=0mm|Usage=FLASHONLY|Rotation=90.000|XOffset=0mm|YOffset=0mm|HoleType=Round|Shape=RoundedRectangle|*
%AMROUNDEDRECTD46*
21,1,1.1500,1.5250,0,0,90.0*
21,1,0.5750,2.1000,0,0,90.0*
1,1,0.5750,0.7625,0.2875*
1,1,0.5750,0.7625,-0.2875*
1,1,0.5750,-0.7625,-0.2875*
1,1,0.5750,-0.7625,0.2875*
%
%ADD46ROUNDEDRECTD46*%
%ADD47C,1.8500*%
%ADD48R,1.3000X1.3000*%
%ADD49C,1.3000*%
%ADD50C,0.6000*%
G04:AMPARAMS|DCode=51|XSize=1mm|YSize=0.9mm|CornerRadius=0.198mm|HoleSize=0mm|Usage=FLASHONLY|Rotation=0.000|XOffset=0mm|YOffset=0mm|HoleType=Round|Shape=RoundedRectangle|*
%AMROUNDEDRECTD51*
21,1,1.0000,0.5040,0,0,0.0*
21,1,0.6040,0.9000,0,0,0.0*
1,1,0.3960,0.3020,-0.2520*
1,1,0.3960,-0.3020,-0.2520*
1,1,0.3960,-0.3020,0.2520*
1,1,0.3960,0.3020,0.2520*
%
%ADD51ROUNDEDRECTD51*%
G04:AMPARAMS|DCode=52|XSize=1mm|YSize=1.2mm|CornerRadius=0.165mm|HoleSize=0mm|Usage=FLASHONLY|Rotation=90.000|XOffset=0mm|YOffset=0mm|HoleType=Round|Shape=RoundedRectangle|*
%AMROUNDEDRECTD52*
21,1,1.0000,0.8700,0,0,90.0*
21,1,0.6700,1.2000,0,0,90.0*
1,1,0.3300,0.4350,0.3350*
1,1,0.3300,0.4350,-0.3350*
1,1,0.3300,-0.4350,-0.3350*
1,1,0.3300,-0.4350,0.3350*
%
%ADD52ROUNDEDRECTD52*%
G04:AMPARAMS|DCode=53|XSize=3.5mm|YSize=1.2mm|CornerRadius=0.198mm|HoleSize=0mm|Usage=FLASHONLY|Rotation=180.000|XOffset=0mm|YOffset=0mm|HoleType=Round|Shape=RoundedRectangle|*
%AMROUNDEDRECTD53*
21,1,3.5000,0.8040,0,0,180.0*
21,1,3.1040,1.2000,0,0,180.0*
1,1,0.3960,-1.5520,0.4020*
1,1,0.3960,1.5520,0.4020*
1,1,0.3960,1.5520,-0.4020*
1,1,0.3960,-1.5520,-0.4020*
%
%ADD53ROUNDEDRECTD53*%
G04:AMPARAMS|DCode=54|XSize=0.62mm|YSize=0.62mm|CornerRadius=0.1488mm|HoleSize=0mm|Usage=FLASHONLY|Rotation=0.000|XOffset=0mm|YOffset=0mm|HoleType=Round|Shape=RoundedRectangle|*
%AMROUNDEDRECTD54*
21,1,0.6200,0.3224,0,0,0.0*
21,1,0.3224,0.6200,0,0,0.0*
1,1,0.2976,0.1612,-0.1612*
1,1,0.2976,-0.1612,-0.1612*
1,1,0.2976,-0.1612,0.1612*
1,1,0.2976,0.1612,0.1612*
%
%ADD54ROUNDEDRECTD54*%
%ADD55C,0.2540*%
%ADD56C,0.1000*%
%ADD57C,0.0100*%
%ADD58C,0.1500*%
%ADD59C,0.0500*%
G36*
X266148Y267648D02*
X266624Y266500D01*
X266148Y265352D01*
X265000Y264876D01*
X263852Y265352D01*
X263376Y266500D01*
X263852Y267648D01*
X265000Y268124D01*
X266148Y267648D01*
D02*
G37*
G36*
X169148Y298398D02*
X169624Y297250D01*
X169148Y296102D01*
X168000Y295626D01*
X166852Y296102D01*
X166376Y297250D01*
X166852Y298398D01*
X168000Y298874D01*
X169148Y298398D01*
D02*
G37*
G36*
X286148Y298648D02*
X286624Y297500D01*
X286148Y296352D01*
X285000Y295876D01*
X283852Y296352D01*
X283376Y297500D01*
X283852Y298648D01*
X285000Y299124D01*
X286148Y298648D01*
D02*
G37*
D36*
X241531Y46000D02*
G03*
X241531Y46000I-1031J0D01*
G01*
X379750Y82000D02*
G03*
X379750Y82000I-1250J0D01*
G01*
D38*
X63000Y53000D02*
G03*
X63000Y53000I-20000J0D01*
G01*
X173207Y262500D02*
G03*
X173207Y262500I-707J0D01*
G01*
X43000Y46500D02*
Y59500D01*
X320000Y18000D02*
Y23000D01*
Y18000D02*
X325000D01*
X320000Y73000D02*
Y78000D01*
X325000D01*
X380000Y18000D02*
Y23000D01*
X375000Y18000D02*
X380000D01*
Y73000D02*
Y74000D01*
X376000Y78000D02*
X380000Y74000D01*
X375000Y78000D02*
X376000D01*
X242503Y267001D02*
Y296999D01*
Y267001D02*
X249497D01*
Y296999D01*
X242503D02*
X249497D01*
X307497Y267001D02*
Y296999D01*
X300503D02*
X307497D01*
X300503Y267001D02*
Y296999D01*
Y267001D02*
X307497D01*
X344500Y269500D02*
X395500D01*
X344500D02*
Y294500D01*
X395500D01*
Y269500D02*
Y294500D01*
D55*
X73000Y43000D02*
G03*
X73000Y43000I-30000J0D01*
G01*
X213000Y0D02*
X313000D01*
D56*
X397500Y86000D02*
Y264000D01*
X221500Y86000D02*
X397500D01*
X221500D02*
Y264000D01*
X397500D01*
X183537Y54533D02*
X184870D01*
X184203D01*
Y58532D01*
X183537Y57865D01*
X186869Y54533D02*
Y55199D01*
X187536D01*
Y54533D01*
X186869D01*
X192867Y58532D02*
X190201D01*
Y56532D01*
X191534Y57199D01*
X192201D01*
X192867Y56532D01*
Y55199D01*
X192201Y54533D01*
X190868D01*
X190201Y55199D01*
X194200Y54533D02*
Y57199D01*
X196200D01*
X196866Y56532D01*
Y54533D01*
X198199Y58532D02*
Y54533D01*
Y56532D01*
X200865D01*
Y58532D01*
Y54533D01*
X166500Y58599D02*
Y54600D01*
X169166D01*
X170499D02*
X171832D01*
X171165D01*
Y58599D01*
X170499Y57932D01*
X185366Y23300D02*
X182700D01*
X185366Y25966D01*
Y26632D01*
X184699Y27299D01*
X183366D01*
X182700Y26632D01*
X186699Y23300D02*
Y23966D01*
X187365D01*
Y23300D01*
X186699D01*
X192697D02*
X190031D01*
X192697Y25966D01*
Y26632D01*
X192030Y27299D01*
X190697D01*
X190031Y26632D01*
X194030Y21967D02*
Y25966D01*
X196029D01*
X196695Y25299D01*
Y23966D01*
X196029Y23300D01*
X194030D01*
X200694Y27299D02*
X198028D01*
Y25299D01*
X199361D01*
X198028D01*
Y23300D01*
X192266Y19932D02*
X191599Y20599D01*
X190266D01*
X189600Y19932D01*
Y17266D01*
X190266Y16600D01*
X191599D01*
X192266Y17266D01*
X193599D02*
X194265Y16600D01*
X195598D01*
X196264Y17266D01*
Y19932D01*
X195598Y20599D01*
X194265D01*
X193599Y19932D01*
Y19266D01*
X194265Y18599D01*
X196264D01*
X111100Y18000D02*
X112433D01*
X111767D01*
Y21999D01*
X111100Y21332D01*
X117098Y21999D02*
X114432D01*
Y19999D01*
X115765Y20666D01*
X116432D01*
X117098Y19999D01*
Y18666D01*
X116432Y18000D01*
X115099D01*
X114432Y18666D01*
X118431Y16667D02*
Y20666D01*
X120430D01*
X121097Y19999D01*
Y18666D01*
X120430Y18000D01*
X118431D01*
X125096Y21999D02*
X122430D01*
Y19999D01*
X123763D01*
X122430D01*
Y18000D01*
X102966Y21232D02*
X102299Y21899D01*
X100966D01*
X100300Y21232D01*
Y18566D01*
X100966Y17900D01*
X102299D01*
X102966Y18566D01*
X104299Y21899D02*
X106965D01*
Y21232D01*
X104299Y18566D01*
Y17900D01*
X55493Y257775D02*
Y255109D01*
X54160Y253776D01*
X52827Y255109D01*
Y257775D01*
Y255776D01*
X55493D01*
X51494Y257775D02*
X50161D01*
X50828D01*
Y253776D01*
X51494Y254443D01*
X270284Y258000D02*
X271617D01*
X270951D01*
Y261999D01*
X270284Y261332D01*
X273617Y260666D02*
Y258666D01*
X274283Y258000D01*
X276282D01*
Y260666D01*
X280281Y261999D02*
X277615D01*
Y259999D01*
X278948D01*
X277615D01*
Y258000D01*
X270935Y307049D02*
X270268Y307716D01*
X268935D01*
X268269Y307049D01*
Y304383D01*
X268935Y303717D01*
X270268D01*
X270935Y304383D01*
X274933Y303717D02*
X272268D01*
X274933Y306383D01*
Y307049D01*
X274267Y307716D01*
X272934D01*
X272268Y307049D01*
X328187Y258000D02*
X329520D01*
X328854D01*
Y261999D01*
X328187Y261332D01*
X331520Y260666D02*
Y258666D01*
X332186Y258000D01*
X334185D01*
Y260666D01*
X338184Y261999D02*
X335518D01*
Y259999D01*
X336851D01*
X335518D01*
Y258000D01*
X331666Y283332D02*
X330999Y283999D01*
X329666D01*
X329000Y283332D01*
Y280666D01*
X329666Y280000D01*
X330999D01*
X331666Y280666D01*
X332999Y283332D02*
X333665Y283999D01*
X334998D01*
X335664Y283332D01*
Y282666D01*
X334998Y281999D01*
X334332D01*
X334998D01*
X335664Y281333D01*
Y280666D01*
X334998Y280000D01*
X333665D01*
X332999Y280666D01*
X293000Y87750D02*
X294333D01*
X293666D01*
Y91749D01*
X293000Y91082D01*
X296332D02*
X296999Y91749D01*
X298332D01*
X298998Y91082D01*
Y88417D01*
X298332Y87750D01*
X296999D01*
X296332Y88417D01*
Y91082D01*
X300331Y90416D02*
Y88417D01*
X300997Y87750D01*
X302997D01*
Y90416D01*
X306996Y91749D02*
X304330D01*
Y89749D01*
X305663D01*
X304330D01*
Y87750D01*
X284092Y91082D02*
X283425Y91749D01*
X282092D01*
X281426Y91082D01*
Y88417D01*
X282092Y87750D01*
X283425D01*
X284092Y88417D01*
X287424Y87750D02*
Y91749D01*
X285425Y89749D01*
X288090D01*
X223731Y307781D02*
X222398D01*
X223065D01*
Y303782D01*
X223731Y304449D01*
X220399D02*
X219732Y303782D01*
X218399D01*
X217733Y304449D01*
Y307115D01*
X218399Y307781D01*
X219732D01*
X220399Y307115D01*
Y304449D01*
X216400Y305115D02*
Y307115D01*
X215734Y307781D01*
X213734D01*
Y305115D01*
X209736Y303782D02*
X212401D01*
Y305782D01*
X211068D01*
X212401D01*
Y307781D01*
X221065Y256951D02*
X221732Y256284D01*
X223065D01*
X223731Y256951D01*
Y259617D01*
X223065Y260283D01*
X221732D01*
X221065Y259617D01*
X217066Y256284D02*
X219732D01*
Y258284D01*
X218399Y257617D01*
X217733D01*
X217066Y258284D01*
Y259617D01*
X217733Y260283D01*
X219066D01*
X219732Y259617D01*
X123231Y305381D02*
X121898D01*
X122565D01*
Y301382D01*
X123231Y302049D01*
X119899D02*
X119232Y301382D01*
X117899D01*
X117233Y302049D01*
Y304715D01*
X117899Y305381D01*
X119232D01*
X119899Y304715D01*
Y302049D01*
X115900Y302715D02*
Y304715D01*
X115234Y305381D01*
X113234D01*
Y302715D01*
X109236Y301382D02*
X111901D01*
Y303382D01*
X110569D01*
X111901D01*
Y305381D01*
X120565Y254551D02*
X121232Y253884D01*
X122565D01*
X123231Y254551D01*
Y257217D01*
X122565Y257883D01*
X121232D01*
X120565Y257217D01*
X116566Y253884D02*
X117899Y254551D01*
X119232Y255884D01*
Y257217D01*
X118566Y257883D01*
X117233D01*
X116566Y257217D01*
Y256550D01*
X117233Y255884D01*
X119232D01*
X255564Y70000D02*
X256897D01*
X256231D01*
Y73999D01*
X255564Y73332D01*
X258897D02*
X259563Y73999D01*
X260896D01*
X261562Y73332D01*
Y70666D01*
X260896Y70000D01*
X259563D01*
X258897Y70666D01*
Y73332D01*
X262895D02*
X263562Y73999D01*
X264895D01*
X265561Y73332D01*
Y70666D01*
X264895Y70000D01*
X263562D01*
X262895Y70666D01*
Y73332D01*
X266894Y70000D02*
Y72666D01*
X268894D01*
X269560Y71999D01*
Y70000D01*
X273559Y73999D02*
X270893D01*
Y71999D01*
X272226D01*
X270893D01*
Y70000D01*
X258230Y87932D02*
X257564Y88599D01*
X256231D01*
X255564Y87932D01*
Y85266D01*
X256231Y84600D01*
X257564D01*
X258230Y85266D01*
X259563Y87932D02*
X260230Y88599D01*
X261562D01*
X262229Y87932D01*
Y87266D01*
X261562Y86599D01*
X262229Y85933D01*
Y85266D01*
X261562Y84600D01*
X260230D01*
X259563Y85266D01*
Y85933D01*
X260230Y86599D01*
X259563Y87266D01*
Y87932D01*
X260230Y86599D02*
X261562D01*
X17761Y37816D02*
X17095Y38483D01*
Y39816D01*
X17761Y40482D01*
X18428D01*
X19094Y39816D01*
Y39149D01*
Y39816D01*
X19761Y40482D01*
X20427D01*
X21094Y39816D01*
Y38483D01*
X20427Y37816D01*
X17761Y41815D02*
X17095Y42481D01*
Y43814D01*
X17761Y44481D01*
X18428D01*
X19094Y43814D01*
Y43148D01*
Y43814D01*
X19761Y44481D01*
X20427D01*
X21094Y43814D01*
Y42481D01*
X20427Y41815D01*
X22427Y45814D02*
X18428D01*
Y47813D01*
X19094Y48479D01*
X20427D01*
X21094Y47813D01*
Y45814D01*
X17095Y52478D02*
Y49812D01*
X19094D01*
Y51145D01*
Y49812D01*
X21094D01*
X6868Y43166D02*
X6201Y42499D01*
Y41166D01*
X6868Y40500D01*
X9534D01*
X10200Y41166D01*
Y42499D01*
X9534Y43166D01*
X10200Y44499D02*
Y45832D01*
Y45165D01*
X6201D01*
X6868Y44499D01*
X10200Y50497D02*
Y47831D01*
X7534Y50497D01*
X6868D01*
X6201Y49830D01*
Y48497D01*
X6868Y47831D01*
X4600Y16200D02*
X5933D01*
X5266D01*
Y20199D01*
X4600Y19532D01*
X7932D02*
X8599Y20199D01*
X9932D01*
X10598Y19532D01*
Y16866D01*
X9932Y16200D01*
X8599D01*
X7932Y16866D01*
Y19532D01*
X11931Y14867D02*
Y18866D01*
X13930D01*
X14597Y18199D01*
Y16866D01*
X13930Y16200D01*
X11931D01*
X18595Y20199D02*
X15930D01*
Y18199D01*
X17263D01*
X15930D01*
Y16200D01*
X7866Y26932D02*
X7199Y27599D01*
X5866D01*
X5200Y26932D01*
Y24266D01*
X5866Y23600D01*
X7199D01*
X7866Y24266D01*
X9199Y23600D02*
X10532D01*
X9865D01*
Y27599D01*
X9199Y26932D01*
X14530Y23600D02*
Y27599D01*
X12531Y25599D01*
X15197D01*
X4200Y64532D02*
X4866Y65199D01*
X6199D01*
X6866Y64532D01*
Y63866D01*
X6199Y63199D01*
X5533D01*
X6199D01*
X6866Y62533D01*
Y61866D01*
X6199Y61200D01*
X4866D01*
X4200Y61866D01*
X8199Y64532D02*
X8865Y65199D01*
X10198D01*
X10864Y64532D01*
Y63866D01*
X10198Y63199D01*
X9532D01*
X10198D01*
X10864Y62533D01*
Y61866D01*
X10198Y61200D01*
X8865D01*
X8199Y61866D01*
X12197Y59867D02*
Y63866D01*
X14197D01*
X14863Y63199D01*
Y61866D01*
X14197Y61200D01*
X12197D01*
X18862Y65199D02*
X16196D01*
Y63199D01*
X17529D01*
X16196D01*
Y61200D01*
X6966Y70932D02*
X6299Y71599D01*
X4966D01*
X4300Y70932D01*
Y68266D01*
X4966Y67600D01*
X6299D01*
X6966Y68266D01*
X8299Y67600D02*
X9632D01*
X8965D01*
Y71599D01*
X8299Y70932D01*
X14297Y71599D02*
X12964Y70932D01*
X11631Y69599D01*
Y68266D01*
X12297Y67600D01*
X13630D01*
X14297Y68266D01*
Y68933D01*
X13630Y69599D01*
X11631D01*
X70300Y11400D02*
X71633D01*
X70967D01*
Y15399D01*
X70300Y14732D01*
X73632D02*
X74299Y15399D01*
X75632D01*
X76298Y14732D01*
Y12066D01*
X75632Y11400D01*
X74299D01*
X73632Y12066D01*
Y14732D01*
X77631Y10067D02*
Y14066D01*
X79630D01*
X80297Y13399D01*
Y12066D01*
X79630Y11400D01*
X77631D01*
X84296Y15399D02*
X81630D01*
Y13399D01*
X82963D01*
X81630D01*
Y11400D01*
X72766Y21332D02*
X72099Y21999D01*
X70767D01*
X70100Y21332D01*
Y18666D01*
X70767Y18000D01*
X72099D01*
X72766Y18666D01*
X74099Y18000D02*
X75432D01*
X74765D01*
Y21999D01*
X74099Y21332D01*
X77431D02*
X78097Y21999D01*
X79430D01*
X80097Y21332D01*
Y20666D01*
X79430Y19999D01*
X80097Y19333D01*
Y18666D01*
X79430Y18000D01*
X78097D01*
X77431Y18666D01*
Y19333D01*
X78097Y19999D01*
X77431Y20666D01*
Y21332D01*
X78097Y19999D02*
X79430D01*
X76400Y42432D02*
X77066Y43099D01*
X78399D01*
X79066Y42432D01*
Y41766D01*
X78399Y41099D01*
X77733D01*
X78399D01*
X79066Y40433D01*
Y39766D01*
X78399Y39100D01*
X77066D01*
X76400Y39766D01*
X80399Y42432D02*
X81065Y43099D01*
X82398D01*
X83064Y42432D01*
Y41766D01*
X82398Y41099D01*
X81732D01*
X82398D01*
X83064Y40433D01*
Y39766D01*
X82398Y39100D01*
X81065D01*
X80399Y39766D01*
X84397Y37767D02*
Y41766D01*
X86397D01*
X87063Y41099D01*
Y39766D01*
X86397Y39100D01*
X84397D01*
X91062Y43099D02*
X88396D01*
Y41099D01*
X89729D01*
X88396D01*
Y39100D01*
X79666Y50132D02*
X78999Y50799D01*
X77666D01*
X77000Y50132D01*
Y47467D01*
X77666Y46800D01*
X78999D01*
X79666Y47467D01*
X83665Y46800D02*
X80999D01*
X83665Y49466D01*
Y50132D01*
X82998Y50799D01*
X81665D01*
X80999Y50132D01*
X84997D02*
X85664Y50799D01*
X86997D01*
X87663Y50132D01*
Y47467D01*
X86997Y46800D01*
X85664D01*
X84997Y47467D01*
Y50132D01*
X76600Y25000D02*
X77933D01*
X77266D01*
Y28999D01*
X76600Y28332D01*
X79932D02*
X80599Y28999D01*
X81932D01*
X82598Y28332D01*
Y25666D01*
X81932Y25000D01*
X80599D01*
X79932Y25666D01*
Y28332D01*
X83931Y23667D02*
Y27666D01*
X85930D01*
X86597Y26999D01*
Y25666D01*
X85930Y25000D01*
X83931D01*
X90595Y28999D02*
X87930D01*
Y26999D01*
X89263D01*
X87930D01*
Y25000D01*
X79366Y34432D02*
X78699Y35099D01*
X77366D01*
X76700Y34432D01*
Y31766D01*
X77366Y31100D01*
X78699D01*
X79366Y31766D01*
X83364Y31100D02*
X80699D01*
X83364Y33766D01*
Y34432D01*
X82698Y35099D01*
X81365D01*
X80699Y34432D01*
X87363Y31100D02*
X84697D01*
X87363Y33766D01*
Y34432D01*
X86697Y35099D01*
X85364D01*
X84697Y34432D01*
X178875Y294602D02*
Y298601D01*
X176876D01*
X176209Y297935D01*
Y295269D01*
X176876Y294602D01*
X178875D01*
X169223Y259042D02*
Y263041D01*
X167224D01*
X166557Y262375D01*
Y259709D01*
X167224Y259042D01*
X169223D01*
X165224Y263041D02*
X163891D01*
X164558D01*
Y259042D01*
X165224Y259709D01*
X353632Y229334D02*
X354299Y230001D01*
Y231334D01*
X353632Y232000D01*
X350966D01*
X350300Y231334D01*
Y230001D01*
X350966Y229334D01*
X354299Y226002D02*
Y227335D01*
X353632Y228001D01*
X350966D01*
X350300Y227335D01*
Y226002D01*
X350966Y225336D01*
X353632D01*
X354299Y226002D01*
X350300Y224003D02*
X354299D01*
X350300Y221337D01*
X354299D01*
X349633Y220004D02*
Y217338D01*
X354299Y213339D02*
Y216005D01*
X352299D01*
X352966Y214672D01*
Y214006D01*
X352299Y213339D01*
X350966D01*
X350300Y214006D01*
Y215339D01*
X350966Y216005D01*
X350300Y212006D02*
X354299D01*
Y210007D01*
X353632Y209341D01*
X352299D01*
X351633Y210007D01*
Y212006D01*
X354299Y208008D02*
Y206675D01*
Y207341D01*
X350300D01*
Y208008D01*
Y206675D01*
Y204676D02*
X354299D01*
X350300Y202010D01*
X354299D01*
X353632Y198011D02*
X354299Y198678D01*
Y200010D01*
X353632Y200677D01*
X352966D01*
X352299Y200010D01*
Y198678D01*
X351633Y198011D01*
X350966D01*
X350300Y198678D01*
Y200010D01*
X350966Y200677D01*
X368299Y214334D02*
Y215667D01*
Y215001D01*
X364966D01*
X364300Y215667D01*
Y216334D01*
X364966Y217000D01*
X364300Y211002D02*
X368299D01*
X366299Y213001D01*
Y210336D01*
X346166Y246332D02*
X345499Y246999D01*
X344166D01*
X343500Y246332D01*
Y243666D01*
X344166Y243000D01*
X345499D01*
X346166Y243666D01*
X349498Y246999D02*
X348165D01*
X347499Y246332D01*
Y243666D01*
X348165Y243000D01*
X349498D01*
X350164Y243666D01*
Y246332D01*
X349498Y246999D01*
X351497Y243000D02*
Y246999D01*
X354163Y243000D01*
Y246999D01*
X355496Y242334D02*
X358162D01*
X362161Y243000D02*
X359495D01*
X362161Y245666D01*
Y246332D01*
X361494Y246999D01*
X360161D01*
X359495Y246332D01*
X363493Y243000D02*
Y246999D01*
X365493D01*
X366159Y246332D01*
Y244999D01*
X365493Y244333D01*
X363493D01*
X367492Y246999D02*
X368825D01*
X368159D01*
Y243000D01*
X367492D01*
X368825D01*
X370824D02*
Y246999D01*
X373490Y243000D01*
Y246999D01*
X377489Y246332D02*
X376823Y246999D01*
X375490D01*
X374823Y246332D01*
Y245666D01*
X375490Y244999D01*
X376823D01*
X377489Y244333D01*
Y243666D01*
X376823Y243000D01*
X375490D01*
X374823Y243666D01*
X345666Y253999D02*
X344333D01*
X344999D01*
Y250667D01*
X344333Y250000D01*
X343666D01*
X343000Y250667D01*
X349664Y253999D02*
X346999D01*
Y251999D01*
X348332Y252666D01*
X348998D01*
X349664Y251999D01*
Y250667D01*
X348998Y250000D01*
X347665D01*
X346999Y250667D01*
X211814Y261331D02*
X215813D01*
Y263330D01*
X215147Y263997D01*
X214480D01*
X213814Y263330D01*
Y261331D01*
Y263330D01*
X213147Y263997D01*
X212481D01*
X211814Y263330D01*
Y261331D01*
X212481Y267995D02*
X211814Y267329D01*
Y265996D01*
X212481Y265330D01*
X213147D01*
X213814Y265996D01*
Y267329D01*
X214480Y267995D01*
X215147D01*
X215813Y267329D01*
Y265996D01*
X215147Y265330D01*
X211814Y269328D02*
X215813D01*
X213814D01*
Y271994D01*
X211814D01*
X215813D01*
Y275993D02*
Y273327D01*
X213147Y275993D01*
X212481D01*
X211814Y275326D01*
Y273993D01*
X212481Y273327D01*
Y277326D02*
X211814Y277992D01*
Y279325D01*
X212481Y279992D01*
X215147D01*
X215813Y279325D01*
Y277992D01*
X215147Y277326D01*
X212481D01*
X215813Y283990D02*
Y281325D01*
X213147Y283990D01*
X212481D01*
X211814Y283324D01*
Y281991D01*
X212481Y281325D01*
X163585Y263997D02*
X160919D01*
X160252Y263330D01*
Y261997D01*
X160919Y261331D01*
X163585D01*
X164251Y261997D01*
Y263330D01*
X162918Y262664D02*
X164251Y263997D01*
Y263330D02*
X163585Y263997D01*
X164251Y265330D02*
Y266663D01*
Y265996D01*
X160252D01*
X160919Y265330D01*
X235885Y52000D02*
X233219D01*
X235885Y54666D01*
Y55332D01*
X235218Y55999D01*
X233885D01*
X233219Y55332D01*
X237218D02*
X237884Y55999D01*
X239217D01*
X239883Y55332D01*
Y52666D01*
X239217Y52000D01*
X237884D01*
X237218Y52666D01*
Y55332D01*
X241216Y52000D02*
Y55999D01*
Y53333D02*
X243216Y54666D01*
X241216Y53333D02*
X243216Y52000D01*
X238000Y60000D02*
Y63999D01*
X239999D01*
X240666Y63332D01*
Y61999D01*
X239999Y61333D01*
X238000D01*
X239333D02*
X240666Y60000D01*
X241999D02*
X243332D01*
X242665D01*
Y63999D01*
X241999Y63332D01*
X235885Y71269D02*
X233219D01*
X235885Y73935D01*
Y74601D01*
X235218Y75268D01*
X233885D01*
X233219Y74601D01*
X237218D02*
X237884Y75268D01*
X239217D01*
X239883Y74601D01*
Y71935D01*
X239217Y71269D01*
X237884D01*
X237218Y71935D01*
Y74601D01*
X241216Y71269D02*
Y75268D01*
Y72602D02*
X243216Y73935D01*
X241216Y72602D02*
X243216Y71269D01*
X236212Y78750D02*
Y82749D01*
X238211D01*
X238877Y82082D01*
Y80749D01*
X238211Y80083D01*
X236212D01*
X237544D02*
X238877Y78750D01*
X242876D02*
X240210D01*
X242876Y81416D01*
Y82082D01*
X242210Y82749D01*
X240877D01*
X240210Y82082D01*
X251250Y70084D02*
Y72750D01*
X253916Y70084D01*
X254582D01*
X255249Y70751D01*
Y72084D01*
X254582Y72750D01*
X251250Y68751D02*
X255249D01*
X252583D02*
X253916Y66752D01*
X252583Y68751D02*
X251250Y66752D01*
X275750Y72750D02*
X279749D01*
Y70751D01*
X279082Y70084D01*
X277749D01*
X277083Y70751D01*
Y72750D01*
Y71417D02*
X275750Y70084D01*
X279082Y68751D02*
X279749Y68085D01*
Y66752D01*
X279082Y66086D01*
X278416D01*
X277749Y66752D01*
Y67418D01*
Y66752D01*
X277083Y66086D01*
X276416D01*
X275750Y66752D01*
Y68085D01*
X276416Y68751D01*
X340066Y4000D02*
X337400D01*
X340066Y6666D01*
Y7332D01*
X339399Y7999D01*
X338066D01*
X337400Y7332D01*
X341399D02*
X342065Y7999D01*
X343398D01*
X344064Y7332D01*
Y4666D01*
X343398Y4000D01*
X342065D01*
X341399Y4666D01*
Y7332D01*
X345397Y4000D02*
Y7999D01*
Y5333D02*
X347397Y6666D01*
X345397Y5333D02*
X347397Y4000D01*
X308400D02*
Y7999D01*
X310399D01*
X311066Y7332D01*
Y5999D01*
X310399Y5333D01*
X308400D01*
X309733D02*
X311066Y4000D01*
X314398D02*
Y7999D01*
X312399Y5999D01*
X315065D01*
X114227Y294331D02*
Y292998D01*
Y293665D01*
X118226D01*
X117559Y294331D01*
X114227Y290999D02*
X118226D01*
X115560D02*
X116893Y288999D01*
X115560Y290999D02*
X114227Y288999D01*
X160709Y294331D02*
X164708D01*
Y292332D01*
X164041Y291665D01*
X162708D01*
X162042Y292332D01*
Y294331D01*
Y292998D02*
X160709Y291665D01*
X164708Y287666D02*
X164041Y288999D01*
X162708Y290332D01*
X161376D01*
X160709Y289666D01*
Y288333D01*
X161376Y287666D01*
X162042D01*
X162708Y288333D01*
Y290332D01*
X285000Y248000D02*
Y251999D01*
X286333Y250666D01*
X287666Y251999D01*
Y248000D01*
X291665Y251332D02*
X290998Y251999D01*
X289665D01*
X288999Y251332D01*
Y248666D01*
X289665Y248000D01*
X290998D01*
X291665Y248666D01*
X292997Y248000D02*
Y251999D01*
X294997D01*
X295663Y251332D01*
Y249999D01*
X294997Y249333D01*
X292997D01*
X296996Y251999D02*
X299662D01*
Y251332D01*
X296996Y248666D01*
Y248000D01*
X300995Y251332D02*
X301661Y251999D01*
X302994D01*
X303661Y251332D01*
Y250666D01*
X302994Y249999D01*
X302328D01*
X302994D01*
X303661Y249333D01*
Y248666D01*
X302994Y248000D01*
X301661D01*
X300995Y248666D01*
X304993Y251332D02*
X305660Y251999D01*
X306993D01*
X307659Y251332D01*
Y250666D01*
X306993Y249999D01*
X307659Y249333D01*
Y248666D01*
X306993Y248000D01*
X305660D01*
X304993Y248666D01*
Y249333D01*
X305660Y249999D01*
X304993Y250666D01*
Y251332D01*
X305660Y249999D02*
X306993D01*
X308992Y248000D02*
X310325D01*
X309659D01*
Y251999D01*
X308992Y251332D01*
X312324Y248000D02*
X313657D01*
X312991D01*
Y251999D01*
X312324Y251332D01*
X321655Y248000D02*
Y251999D01*
X319655Y249999D01*
X322321D01*
X326320Y251999D02*
X323654D01*
Y249999D01*
X324987Y250666D01*
X325653D01*
X326320Y249999D01*
Y248666D01*
X325653Y248000D01*
X324320D01*
X323654Y248666D01*
X327653Y251332D02*
X328319Y251999D01*
X329652D01*
X330319Y251332D01*
Y248666D01*
X329652Y248000D01*
X328319D01*
X327653Y248666D01*
Y251332D01*
X331651Y248000D02*
Y250666D01*
X332318D01*
X332984Y249999D01*
Y248000D01*
Y249999D01*
X333651Y250666D01*
X334317Y249999D01*
Y248000D01*
X335650D02*
Y250666D01*
X336983Y251999D01*
X338316Y250666D01*
Y248000D01*
Y249999D01*
X335650D01*
X300933Y259699D02*
Y256366D01*
X301600Y255700D01*
X302933D01*
X303599Y256366D01*
Y259699D01*
X306932Y255700D02*
Y259699D01*
X304932Y257699D01*
X307598D01*
X266193Y305814D02*
Y309813D01*
X264194D01*
X263527Y309146D01*
Y308480D01*
X264194Y307814D01*
X266193D01*
X264194D01*
X263527Y307147D01*
Y306481D01*
X264194Y305814D01*
X266193D01*
X262194D02*
Y309146D01*
X261528Y309813D01*
X260195D01*
X259529Y309146D01*
Y305814D01*
X258196Y306481D02*
X257529Y305814D01*
X256196D01*
X255530Y306481D01*
Y307147D01*
X256196Y307814D01*
X256863D01*
X256196D01*
X255530Y308480D01*
Y309146D01*
X256196Y309813D01*
X257529D01*
X258196Y309146D01*
X254197Y306481D02*
X253531Y305814D01*
X252197D01*
X251531Y306481D01*
Y307147D01*
X252197Y307814D01*
X252864D01*
X252197D01*
X251531Y308480D01*
Y309146D01*
X252197Y309813D01*
X253531D01*
X254197Y309146D01*
X250198Y305814D02*
X247532D01*
X248865D01*
Y309813D01*
X246199Y305814D02*
Y309813D01*
X244200D01*
X243534Y309146D01*
Y306481D01*
X244200Y305814D01*
X246199D01*
X242201Y306481D02*
X241534Y305814D01*
X240201D01*
X239535Y306481D01*
Y307147D01*
X240201Y307814D01*
X240868D01*
X240201D01*
X239535Y308480D01*
Y309146D01*
X240201Y309813D01*
X241534D01*
X242201Y309146D01*
X238202Y305814D02*
Y309813D01*
X236869Y308480D01*
X235536Y309813D01*
Y305814D01*
X231538Y306481D02*
X232204Y305814D01*
X233537D01*
X234203Y306481D01*
Y309146D01*
X233537Y309813D01*
X232204D01*
X231538Y309146D01*
Y307814D01*
X232871D01*
X266193Y254252D02*
Y257584D01*
X265527Y258251D01*
X264194D01*
X263527Y257584D01*
Y254252D01*
X259529D02*
X262194D01*
Y256252D01*
X260861Y255585D01*
X260195D01*
X259529Y256252D01*
Y257584D01*
X260195Y258251D01*
X261528D01*
X262194Y257584D01*
X316791Y91000D02*
Y94999D01*
X318790D01*
X319457Y94332D01*
Y92999D01*
X318790Y92333D01*
X316791D01*
X320790Y94999D02*
X322123D01*
X321456D01*
Y91000D01*
X320790D01*
X322123D01*
X326788Y94332D02*
X326121Y94999D01*
X324788D01*
X324122Y94332D01*
Y91666D01*
X324788Y91000D01*
X326121D01*
X326788Y91666D01*
X328121Y91000D02*
X329454D01*
X328787D01*
Y94999D01*
X328121Y94332D01*
X331453D02*
X332119Y94999D01*
X333452D01*
X334119Y94332D01*
Y93666D01*
X333452Y92999D01*
X334119Y92333D01*
Y91666D01*
X333452Y91000D01*
X332119D01*
X331453Y91666D01*
Y92333D01*
X332119Y92999D01*
X331453Y93666D01*
Y94332D01*
X332119Y92999D02*
X333452D01*
X338117Y94999D02*
X335452D01*
Y92999D01*
X336785D01*
X335452D01*
Y91000D01*
X342116D02*
X339450D01*
X342116Y93666D01*
Y94332D01*
X341450Y94999D01*
X340117D01*
X339450Y94332D01*
X343449Y94999D02*
X346115D01*
Y94332D01*
X343449Y91666D01*
Y91000D01*
X350113Y94999D02*
X348781D01*
X349447D01*
Y91666D01*
X348781Y91000D01*
X348114D01*
X347448Y91666D01*
X354112Y94999D02*
X351446D01*
Y92999D01*
X352779Y93666D01*
X353446D01*
X354112Y92999D01*
Y91666D01*
X353446Y91000D01*
X352113D01*
X351446Y91666D01*
X355445Y94332D02*
X356111Y94999D01*
X357444D01*
X358111Y94332D01*
Y93666D01*
X357444Y92999D01*
X356778D01*
X357444D01*
X358111Y92333D01*
Y91666D01*
X357444Y91000D01*
X356111D01*
X355445Y91666D01*
X359444Y90334D02*
X362110D01*
X366108Y91666D02*
Y94332D01*
X365442Y94999D01*
X364109D01*
X363442Y94332D01*
Y91666D01*
X364109Y91000D01*
X365442D01*
X364775Y92333D02*
X366108Y91000D01*
X365442D02*
X366108Y91666D01*
X370107Y94999D02*
X367441D01*
Y92999D01*
X368774D01*
X367441D01*
Y91000D01*
X371440D02*
Y94999D01*
X374106Y91000D01*
Y94999D01*
X389000Y83999D02*
Y80666D01*
X389666Y80000D01*
X390999D01*
X391666Y80666D01*
Y83999D01*
X395664Y80000D02*
X392999D01*
X395664Y82666D01*
Y83332D01*
X394998Y83999D01*
X393665D01*
X392999Y83332D01*
X117000Y108500D02*
Y112499D01*
X118333Y111166D01*
X119666Y112499D01*
Y108500D01*
X122998Y112499D02*
X121665D01*
X120999Y111832D01*
Y109166D01*
X121665Y108500D01*
X122998D01*
X123665Y109166D01*
Y111832D01*
X122998Y112499D01*
X124997D02*
Y108500D01*
X126997D01*
X127663Y109166D01*
Y111832D01*
X126997Y112499D01*
X124997D01*
X128996Y107833D02*
X131662D01*
X135661Y109166D02*
Y111832D01*
X134994Y112499D01*
X133661D01*
X132995Y111832D01*
Y109166D01*
X133661Y108500D01*
X134994D01*
X134328Y109833D02*
X135661Y108500D01*
X134994D02*
X135661Y109166D01*
X136994Y112499D02*
Y109166D01*
X137660Y108500D01*
X138993D01*
X139659Y109166D01*
Y112499D01*
X143658D02*
X140992D01*
Y108500D01*
X143658D01*
X140992Y110499D02*
X142325D01*
X147657Y111832D02*
X146990Y112499D01*
X145657D01*
X144991Y111832D01*
Y109166D01*
X145657Y108500D01*
X146990D01*
X147657Y109166D01*
X148990Y112499D02*
X151655D01*
X150323D01*
Y108500D01*
X155654Y112499D02*
X152988D01*
Y108500D01*
X155654D01*
X152988Y110499D02*
X154321D01*
X156987Y112499D02*
Y108500D01*
X159653D01*
X160986Y107833D02*
X163652D01*
X164984Y108500D02*
Y112499D01*
X166317Y111166D01*
X167650Y112499D01*
Y108500D01*
X171649Y111832D02*
X170982Y112499D01*
X169650D01*
X168983Y111832D01*
Y109166D01*
X169650Y108500D01*
X170982D01*
X171649Y109166D01*
X175648Y112499D02*
X174315Y111832D01*
X172982Y110499D01*
Y109166D01*
X173648Y108500D01*
X174981D01*
X175648Y109166D01*
Y109833D01*
X174981Y110499D01*
X172982D01*
X176980Y111832D02*
X177647Y112499D01*
X178980D01*
X179646Y111832D01*
Y109166D01*
X178980Y108500D01*
X177647D01*
X176980Y109166D01*
Y111832D01*
X106800Y112499D02*
Y109166D01*
X107466Y108500D01*
X108799D01*
X109466Y109166D01*
Y112499D01*
X110799Y108500D02*
X112132D01*
X111465D01*
Y112499D01*
X110799Y111832D01*
X270666Y109332D02*
X269999Y109999D01*
X268666D01*
X268000Y109332D01*
Y106666D01*
X268666Y106000D01*
X269999D01*
X270666Y106666D01*
X273998Y109999D02*
X272665D01*
X271999Y109332D01*
Y106666D01*
X272665Y106000D01*
X273998D01*
X274664Y106666D01*
Y109332D01*
X273998Y109999D01*
X275997Y106000D02*
Y109999D01*
X278663Y106000D01*
Y109999D01*
X279996Y105333D02*
X282662D01*
X283995Y106000D02*
X285328D01*
X284661D01*
Y109999D01*
X283995Y109332D01*
X287327D02*
X287994Y109999D01*
X289326D01*
X289993Y109332D01*
Y108666D01*
X289326Y107999D01*
X288660D01*
X289326D01*
X289993Y107333D01*
Y106666D01*
X289326Y106000D01*
X287994D01*
X287327Y106666D01*
X291326Y106000D02*
Y109999D01*
X293325D01*
X293992Y109332D01*
Y107999D01*
X293325Y107333D01*
X291326D01*
X295324Y109999D02*
X296657D01*
X295991D01*
Y106000D01*
X295324D01*
X296657D01*
X298657D02*
Y109999D01*
X301322Y106000D01*
Y109999D01*
X305321Y109332D02*
X304655Y109999D01*
X303322D01*
X302655Y109332D01*
Y108666D01*
X303322Y107999D01*
X304655D01*
X305321Y107333D01*
Y106666D01*
X304655Y106000D01*
X303322D01*
X302655Y106666D01*
X259666Y109999D02*
X258333D01*
X258999D01*
Y106666D01*
X258333Y106000D01*
X257666D01*
X257000Y106666D01*
X260999Y109332D02*
X261665Y109999D01*
X262998D01*
X263664Y109332D01*
Y108666D01*
X262998Y107999D01*
X263664Y107333D01*
Y106666D01*
X262998Y106000D01*
X261665D01*
X260999Y106666D01*
Y107333D01*
X261665Y107999D01*
X260999Y108666D01*
Y109332D01*
X261665Y107999D02*
X262998D01*
X28097Y8932D02*
X27430Y9599D01*
X26097D01*
X25431Y8932D01*
Y6266D01*
X26097Y5600D01*
X27430D01*
X28097Y6266D01*
X31429Y9599D02*
X30096D01*
X29430Y8932D01*
Y6266D01*
X30096Y5600D01*
X31429D01*
X32095Y6266D01*
Y8932D01*
X31429Y9599D01*
X33428Y5600D02*
Y9599D01*
X36094Y5600D01*
Y9599D01*
X37427Y4933D02*
X40093D01*
X44092Y5600D02*
X41426D01*
X44092Y8266D01*
Y8932D01*
X43425Y9599D01*
X42092D01*
X41426Y8932D01*
X45424Y5600D02*
Y9599D01*
X47424D01*
X48090Y8932D01*
Y7599D01*
X47424Y6933D01*
X45424D01*
X49423Y9599D02*
X50756D01*
X50090D01*
Y5600D01*
X49423D01*
X50756D01*
X52755D02*
Y9599D01*
X55421Y5600D01*
Y9599D01*
X59420Y8932D02*
X58753Y9599D01*
X57421D01*
X56754Y8932D01*
Y8266D01*
X57421Y7599D01*
X58753D01*
X59420Y6933D01*
Y6266D01*
X58753Y5600D01*
X57421D01*
X56754Y6266D01*
X19066Y9799D02*
X17733D01*
X18399D01*
Y6466D01*
X17733Y5800D01*
X17066D01*
X16400Y6466D01*
X23064Y5800D02*
X20399D01*
X23064Y8466D01*
Y9132D01*
X22398Y9799D01*
X21065D01*
X20399Y9132D01*
X228700Y25300D02*
Y27966D01*
X230033Y29299D01*
X231366Y27966D01*
Y25300D01*
Y27299D01*
X228700D01*
X232699Y29299D02*
X235364D01*
X234032D01*
Y25300D01*
X236697Y29299D02*
X239363D01*
X238030D01*
Y25300D01*
X243362Y29299D02*
X240696D01*
Y25300D01*
X243362D01*
X240696Y27299D02*
X242029D01*
X244695Y25300D02*
Y29299D01*
X247361Y25300D01*
Y29299D01*
X248694D02*
Y25300D01*
X250693D01*
X251359Y25966D01*
Y28632D01*
X250693Y29299D01*
X248694D01*
X259357Y25300D02*
X256691D01*
X259357Y27966D01*
Y28632D01*
X258690Y29299D01*
X257357D01*
X256691Y28632D01*
X260690D02*
X261356Y29299D01*
X262689D01*
X263355Y28632D01*
Y25966D01*
X262689Y25300D01*
X261356D01*
X260690Y25966D01*
Y28632D01*
X264688Y29299D02*
X267354D01*
Y28632D01*
X264688Y25966D01*
Y25300D01*
X268687D02*
Y27966D01*
X270020Y29299D01*
X271353Y27966D01*
Y25300D01*
Y27299D01*
X268687D01*
X272686D02*
X275352D01*
X276684Y29299D02*
Y25300D01*
X278684D01*
X279350Y25966D01*
Y26633D01*
X278684Y27299D01*
X276684D01*
X278684D01*
X279350Y27966D01*
Y28632D01*
X278684Y29299D01*
X276684D01*
X280683D02*
Y25300D01*
X282682D01*
X283349Y25966D01*
Y26633D01*
X282682Y27299D01*
X280683D01*
X282682D01*
X283349Y27966D01*
Y28632D01*
X282682Y29299D01*
X280683D01*
X284682Y25300D02*
Y27966D01*
X286015Y29299D01*
X287348Y27966D01*
Y25300D01*
Y27299D01*
X284682D01*
X288680Y28632D02*
X289347Y29299D01*
X290680D01*
X291346Y28632D01*
Y25966D01*
X290680Y25300D01*
X289347D01*
X288680Y25966D01*
Y28632D01*
X292679Y27299D02*
X295345D01*
X296678Y25300D02*
Y29299D01*
X298677D01*
X299344Y28632D01*
Y27299D01*
X298677Y26633D01*
X296678D01*
X298011D02*
X299344Y25300D01*
X262439Y21399D02*
X261106D01*
X261772D01*
Y18066D01*
X261106Y17400D01*
X260439D01*
X259773Y18066D01*
X263772Y17400D02*
X265105D01*
X264438D01*
Y21399D01*
X263772Y20732D01*
X111300Y37200D02*
Y39866D01*
X112633Y41199D01*
X113966Y39866D01*
Y37200D01*
Y39199D01*
X111300D01*
X115299Y37200D02*
Y41199D01*
X117964Y37200D01*
Y41199D01*
X119297D02*
X121963D01*
X120630D01*
Y37200D01*
X125962Y41199D02*
X123296D01*
Y37200D01*
X125962D01*
X123296Y39199D02*
X124629D01*
X127295Y37200D02*
Y41199D01*
X129961Y37200D01*
Y41199D01*
X131293Y37200D02*
Y41199D01*
X133959Y37200D01*
Y41199D01*
X135292Y37200D02*
Y39866D01*
X136625Y41199D01*
X137958Y39866D01*
Y37200D01*
Y39199D01*
X135292D01*
X139291Y36534D02*
X141957D01*
X145955Y40532D02*
X145289Y41199D01*
X143956D01*
X143290Y40532D01*
Y37866D01*
X143956Y37200D01*
X145289D01*
X145955Y37866D01*
Y39199D01*
X144622D01*
X147288Y37200D02*
Y41199D01*
X149288D01*
X149954Y40532D01*
Y39199D01*
X149288Y38533D01*
X147288D01*
X153953Y40532D02*
X153286Y41199D01*
X151953D01*
X151287Y40532D01*
Y39866D01*
X151953Y39199D01*
X153286D01*
X153953Y38533D01*
Y37866D01*
X153286Y37200D01*
X151953D01*
X151287Y37866D01*
X155286Y36534D02*
X157951D01*
X159284Y41199D02*
Y37200D01*
X161284D01*
X161950Y37866D01*
Y38533D01*
X161284Y39199D01*
X159284D01*
X161284D01*
X161950Y39866D01*
Y40532D01*
X161284Y41199D01*
X159284D01*
X163283D02*
X165949D01*
X164616D01*
Y37200D01*
X111300Y46400D02*
Y49066D01*
X112633Y50399D01*
X113966Y49066D01*
Y46400D01*
Y48399D01*
X111300D01*
X117964Y46400D02*
X115299D01*
X117964Y49066D01*
Y49732D01*
X117298Y50399D01*
X115965D01*
X115299Y49732D01*
X224237Y90303D02*
Y94302D01*
X226236D01*
X226903Y93635D01*
Y92302D01*
X226236Y91636D01*
X224237D01*
X225570D02*
X226903Y90303D01*
X228236D02*
X229569D01*
X228902D01*
Y94302D01*
X228236Y93635D01*
X234234Y94302D02*
X231568D01*
Y92302D01*
X232901Y92969D01*
X233567D01*
X234234Y92302D01*
Y90969D01*
X233567Y90303D01*
X232234D01*
X231568Y90969D01*
D57*
X14500Y88000D02*
X201500D01*
Y248000D01*
X14500D02*
X201500D01*
X14500Y88000D02*
Y248000D01*
Y90000D02*
X16500Y88000D01*
X14500Y91000D02*
X17500Y88000D01*
X14500Y89000D02*
X15500Y88000D01*
D58*
X139500Y283600D02*
Y291600D01*
X174000Y277000D02*
Y283000D01*
X202000D01*
Y277000D02*
Y283000D01*
X174000Y277000D02*
X202000D01*
X159000Y286750D02*
X167000D01*
X159000Y281750D02*
Y286750D01*
Y281750D02*
X167000D01*
Y286750D01*
D59*
X101400Y5000D02*
Y15000D01*
X170900Y62500D02*
Y72500D01*
X169000Y20700D02*
X173500D01*
Y5000D02*
Y15000D01*
X175000Y13200D02*
Y15900D01*
X182500Y62500D02*
Y72500D01*
Y20700D02*
X187000D01*
X181000Y13200D02*
Y15900D01*
X199400Y5000D02*
Y15000D01*
X173500D02*
Y20700D01*
X169000Y15000D02*
Y20700D01*
X187000Y15000D02*
Y20700D01*
X182500Y5000D02*
Y20700D01*
X187000Y15000D02*
Y20700D01*
X67400Y2500D02*
Y72500D01*
X97400Y2500D02*
Y62500D01*
X175000Y17900D02*
Y72500D01*
X181000Y17900D02*
Y72500D01*
X202400Y2500D02*
Y62500D01*
X242400Y2500D02*
Y72500D01*
X202400D02*
X242400D01*
X175000D02*
X181000D01*
X182500Y62500D02*
X202400D01*
X182500Y72500D02*
X202400D01*
X175000Y17900D02*
X181000D01*
X202400Y2500D02*
X242400D01*
X182500Y5000D02*
X199400D01*
X187000Y15000D02*
X199400D01*
X175000Y13200D02*
X181000D01*
X175000Y15900D02*
X181000D01*
X97400Y62500D02*
X170900D01*
X67400Y72500D02*
X170900D01*
X101400Y15000D02*
X169000D01*
X101400Y5000D02*
X173500D01*
X67400Y2500D02*
X97400D01*
M02*
