%FSLAX44Y44*%
%MOMM*%
G71*
G01*
G75*
G04 Layer_Color=8388736*
G04:AMPARAMS|DCode=10|XSize=1.5mm|YSize=3mm|CornerRadius=0.375mm|HoleSize=0mm|Usage=FLASHONLY|Rotation=0.000|XOffset=0mm|YOffset=0mm|HoleType=Round|Shape=RoundedRectangle|*
%AMROUNDEDRECTD10*
21,1,1.5000,2.2500,0,0,0.0*
21,1,0.7500,3.0000,0,0,0.0*
1,1,0.7500,0.3750,-1.1250*
1,1,0.7500,-0.3750,-1.1250*
1,1,0.7500,-0.3750,1.1250*
1,1,0.7500,0.3750,1.1250*
%
%ADD10ROUNDEDRECTD10*%
%ADD11R,0.4000X1.4000*%
%ADD12R,1.8000X1.9000*%
G04:AMPARAMS|DCode=13|XSize=1mm|YSize=1.2mm|CornerRadius=0.165mm|HoleSize=0mm|Usage=FLASHONLY|Rotation=0.000|XOffset=0mm|YOffset=0mm|HoleType=Round|Shape=RoundedRectangle|*
%AMROUNDEDRECTD13*
21,1,1.0000,0.8700,0,0,0.0*
21,1,0.6700,1.2000,0,0,0.0*
1,1,0.3300,0.3350,-0.4350*
1,1,0.3300,-0.3350,-0.4350*
1,1,0.3300,-0.3350,0.4350*
1,1,0.3300,0.3350,0.4350*
%
%ADD13ROUNDEDRECTD13*%
G04:AMPARAMS|DCode=14|XSize=2.35mm|YSize=1.15mm|CornerRadius=0.3852mm|HoleSize=0mm|Usage=FLASHONLY|Rotation=180.000|XOffset=0mm|YOffset=0mm|HoleType=Round|Shape=RoundedRectangle|*
%AMROUNDEDRECTD14*
21,1,2.3500,0.3795,0,0,180.0*
21,1,1.5795,1.1500,0,0,180.0*
1,1,0.7705,-0.7897,0.1898*
1,1,0.7705,0.7897,0.1898*
1,1,0.7705,0.7897,-0.1898*
1,1,0.7705,-0.7897,-0.1898*
%
%ADD14ROUNDEDRECTD14*%
G04:AMPARAMS|DCode=15|XSize=1.3mm|YSize=1mm|CornerRadius=0.25mm|HoleSize=0mm|Usage=FLASHONLY|Rotation=180.000|XOffset=0mm|YOffset=0mm|HoleType=Round|Shape=RoundedRectangle|*
%AMROUNDEDRECTD15*
21,1,1.3000,0.5000,0,0,180.0*
21,1,0.8000,1.0000,0,0,180.0*
1,1,0.5000,-0.4000,0.2500*
1,1,0.5000,0.4000,0.2500*
1,1,0.5000,0.4000,-0.2500*
1,1,0.5000,-0.4000,-0.2500*
%
%ADD15ROUNDEDRECTD15*%
G04:AMPARAMS|DCode=16|XSize=2.5mm|YSize=1.15mm|CornerRadius=0.3852mm|HoleSize=0mm|Usage=FLASHONLY|Rotation=180.000|XOffset=0mm|YOffset=0mm|HoleType=Round|Shape=RoundedRectangle|*
%AMROUNDEDRECTD16*
21,1,2.5000,0.3795,0,0,180.0*
21,1,1.7295,1.1500,0,0,180.0*
1,1,0.7705,-0.8648,0.1898*
1,1,0.7705,0.8648,0.1898*
1,1,0.7705,0.8648,-0.1898*
1,1,0.7705,-0.8648,-0.1898*
%
%ADD16ROUNDEDRECTD16*%
%ADD17O,0.7000X2.5000*%
%ADD18O,2.5000X0.7000*%
%ADD19R,1.1000X1.1000*%
%ADD20R,4.0000X4.0000*%
%ADD21O,1.1000X0.4000*%
%ADD22O,0.4000X1.1000*%
G04:AMPARAMS|DCode=23|XSize=1.1mm|YSize=0.6mm|CornerRadius=0.201mm|HoleSize=0mm|Usage=FLASHONLY|Rotation=180.000|XOffset=0mm|YOffset=0mm|HoleType=Round|Shape=RoundedRectangle|*
%AMROUNDEDRECTD23*
21,1,1.1000,0.1980,0,0,180.0*
21,1,0.6980,0.6000,0,0,180.0*
1,1,0.4020,-0.3490,0.0990*
1,1,0.4020,0.3490,0.0990*
1,1,0.4020,0.3490,-0.0990*
1,1,0.4020,-0.3490,-0.0990*
%
%ADD23ROUNDEDRECTD23*%
G04:AMPARAMS|DCode=24|XSize=1mm|YSize=0.9mm|CornerRadius=0.198mm|HoleSize=0mm|Usage=FLASHONLY|Rotation=90.000|XOffset=0mm|YOffset=0mm|HoleType=Round|Shape=RoundedRectangle|*
%AMROUNDEDRECTD24*
21,1,1.0000,0.5040,0,0,90.0*
21,1,0.6040,0.9000,0,0,90.0*
1,1,0.3960,0.2520,0.3020*
1,1,0.3960,0.2520,-0.3020*
1,1,0.3960,-0.2520,-0.3020*
1,1,0.3960,-0.2520,0.3020*
%
%ADD24ROUNDEDRECTD24*%
G04:AMPARAMS|DCode=25|XSize=0.67mm|YSize=0.67mm|CornerRadius=0.1508mm|HoleSize=0mm|Usage=FLASHONLY|Rotation=180.000|XOffset=0mm|YOffset=0mm|HoleType=Round|Shape=RoundedRectangle|*
%AMROUNDEDRECTD25*
21,1,0.6700,0.3685,0,0,180.0*
21,1,0.3685,0.6700,0,0,180.0*
1,1,0.3015,-0.1843,0.1843*
1,1,0.3015,0.1843,0.1843*
1,1,0.3015,0.1843,-0.1843*
1,1,0.3015,-0.1843,-0.1843*
%
%ADD25ROUNDEDRECTD25*%
G04:AMPARAMS|DCode=26|XSize=0.67mm|YSize=0.67mm|CornerRadius=0.1508mm|HoleSize=0mm|Usage=FLASHONLY|Rotation=270.000|XOffset=0mm|YOffset=0mm|HoleType=Round|Shape=RoundedRectangle|*
%AMROUNDEDRECTD26*
21,1,0.6700,0.3685,0,0,270.0*
21,1,0.3685,0.6700,0,0,270.0*
1,1,0.3015,-0.1843,-0.1843*
1,1,0.3015,-0.1843,0.1843*
1,1,0.3015,0.1843,0.1843*
1,1,0.3015,0.1843,-0.1843*
%
%ADD26ROUNDEDRECTD26*%
G04:AMPARAMS|DCode=27|XSize=1.05mm|YSize=0.65mm|CornerRadius=0.2015mm|HoleSize=0mm|Usage=FLASHONLY|Rotation=90.000|XOffset=0mm|YOffset=0mm|HoleType=Round|Shape=RoundedRectangle|*
%AMROUNDEDRECTD27*
21,1,1.0500,0.2470,0,0,90.0*
21,1,0.6470,0.6500,0,0,90.0*
1,1,0.4030,0.1235,0.3235*
1,1,0.4030,0.1235,-0.3235*
1,1,0.4030,-0.1235,-0.3235*
1,1,0.4030,-0.1235,0.3235*
%
%ADD27ROUNDEDRECTD27*%
G04:AMPARAMS|DCode=28|XSize=0.65mm|YSize=0.5mm|CornerRadius=0.2mm|HoleSize=0mm|Usage=FLASHONLY|Rotation=270.000|XOffset=0mm|YOffset=0mm|HoleType=Round|Shape=RoundedRectangle|*
%AMROUNDEDRECTD28*
21,1,0.6500,0.1000,0,0,270.0*
21,1,0.2500,0.5000,0,0,270.0*
1,1,0.4000,-0.0500,-0.1250*
1,1,0.4000,-0.0500,0.1250*
1,1,0.4000,0.0500,0.1250*
1,1,0.4000,0.0500,-0.1250*
%
%ADD28ROUNDEDRECTD28*%
G04:AMPARAMS|DCode=29|XSize=0.62mm|YSize=0.62mm|CornerRadius=0.1488mm|HoleSize=0mm|Usage=FLASHONLY|Rotation=270.000|XOffset=0mm|YOffset=0mm|HoleType=Round|Shape=RoundedRectangle|*
%AMROUNDEDRECTD29*
21,1,0.6200,0.3224,0,0,270.0*
21,1,0.3224,0.6200,0,0,270.0*
1,1,0.2976,-0.1612,-0.1612*
1,1,0.2976,-0.1612,0.1612*
1,1,0.2976,0.1612,0.1612*
1,1,0.2976,0.1612,-0.1612*
%
%ADD29ROUNDEDRECTD29*%
G04:AMPARAMS|DCode=30|XSize=1mm|YSize=0.95mm|CornerRadius=0.1995mm|HoleSize=0mm|Usage=FLASHONLY|Rotation=0.000|XOffset=0mm|YOffset=0mm|HoleType=Round|Shape=RoundedRectangle|*
%AMROUNDEDRECTD30*
21,1,1.0000,0.5510,0,0,0.0*
21,1,0.6010,0.9500,0,0,0.0*
1,1,0.3990,0.3005,-0.2755*
1,1,0.3990,-0.3005,-0.2755*
1,1,0.3990,-0.3005,0.2755*
1,1,0.3990,0.3005,0.2755*
%
%ADD30ROUNDEDRECTD30*%
G04:AMPARAMS|DCode=31|XSize=1mm|YSize=0.95mm|CornerRadius=0.1995mm|HoleSize=0mm|Usage=FLASHONLY|Rotation=270.000|XOffset=0mm|YOffset=0mm|HoleType=Round|Shape=RoundedRectangle|*
%AMROUNDEDRECTD31*
21,1,1.0000,0.5510,0,0,270.0*
21,1,0.6010,0.9500,0,0,270.0*
1,1,0.3990,-0.2755,-0.3005*
1,1,0.3990,-0.2755,0.3005*
1,1,0.3990,0.2755,0.3005*
1,1,0.3990,0.2755,-0.3005*
%
%ADD31ROUNDEDRECTD31*%
G04:AMPARAMS|DCode=32|XSize=0.5mm|YSize=0.21mm|CornerRadius=0.0347mm|HoleSize=0mm|Usage=FLASHONLY|Rotation=180.000|XOffset=0mm|YOffset=0mm|HoleType=Round|Shape=RoundedRectangle|*
%AMROUNDEDRECTD32*
21,1,0.5000,0.1407,0,0,180.0*
21,1,0.4307,0.2100,0,0,180.0*
1,1,0.0693,-0.2154,0.0704*
1,1,0.0693,0.2154,0.0704*
1,1,0.0693,0.2154,-0.0704*
1,1,0.0693,-0.2154,-0.0704*
%
%ADD32ROUNDEDRECTD32*%
G04:AMPARAMS|DCode=33|XSize=0.3mm|YSize=0.65mm|CornerRadius=0.0495mm|HoleSize=0mm|Usage=FLASHONLY|Rotation=180.000|XOffset=0mm|YOffset=0mm|HoleType=Round|Shape=RoundedRectangle|*
%AMROUNDEDRECTD33*
21,1,0.3000,0.5510,0,0,180.0*
21,1,0.2010,0.6500,0,0,180.0*
1,1,0.0990,-0.1005,0.2755*
1,1,0.0990,0.1005,0.2755*
1,1,0.0990,0.1005,-0.2755*
1,1,0.0990,-0.1005,-0.2755*
%
%ADD33ROUNDEDRECTD33*%
G04:AMPARAMS|DCode=34|XSize=0.65mm|YSize=0.35mm|CornerRadius=0.0735mm|HoleSize=0mm|Usage=FLASHONLY|Rotation=270.000|XOffset=0mm|YOffset=0mm|HoleType=Round|Shape=RoundedRectangle|*
%AMROUNDEDRECTD34*
21,1,0.6500,0.2030,0,0,270.0*
21,1,0.5030,0.3500,0,0,270.0*
1,1,0.1470,-0.1015,-0.2515*
1,1,0.1470,-0.1015,0.2515*
1,1,0.1470,0.1015,0.2515*
1,1,0.1470,0.1015,-0.2515*
%
%ADD34ROUNDEDRECTD34*%
G04:AMPARAMS|DCode=35|XSize=0.3mm|YSize=0.25mm|CornerRadius=0.0525mm|HoleSize=0mm|Usage=FLASHONLY|Rotation=270.000|XOffset=0mm|YOffset=0mm|HoleType=Round|Shape=RoundedRectangle|*
%AMROUNDEDRECTD35*
21,1,0.3000,0.1450,0,0,270.0*
21,1,0.1950,0.2500,0,0,270.0*
1,1,0.1050,-0.0725,-0.0975*
1,1,0.1050,-0.0725,0.0975*
1,1,0.1050,0.0725,0.0975*
1,1,0.1050,0.0725,-0.0975*
%
%ADD35ROUNDEDRECTD35*%
%ADD36C,0.2500*%
%ADD37C,0.3500*%
%ADD38C,0.2000*%
%ADD39C,0.6000*%
%ADD40C,0.3000*%
%ADD41C,0.7000*%
%ADD42C,0.4000*%
%ADD43C,0.5000*%
%ADD44C,0.7000*%
%ADD45C,0.8000*%
G04:AMPARAMS|DCode=46|XSize=1.15mm|YSize=2.1mm|CornerRadius=0.2875mm|HoleSize=0mm|Usage=FLASHONLY|Rotation=90.000|XOffset=0mm|YOffset=0mm|HoleType=Round|Shape=RoundedRectangle|*
%AMROUNDEDRECTD46*
21,1,1.1500,1.5250,0,0,90.0*
21,1,0.5750,2.1000,0,0,90.0*
1,1,0.5750,0.7625,0.2875*
1,1,0.5750,0.7625,-0.2875*
1,1,0.5750,-0.7625,-0.2875*
1,1,0.5750,-0.7625,0.2875*
%
%ADD46ROUNDEDRECTD46*%
%ADD47C,1.8500*%
%ADD48R,1.3000X1.3000*%
%ADD49C,1.3000*%
%ADD50C,0.6000*%
G04:AMPARAMS|DCode=51|XSize=1mm|YSize=0.9mm|CornerRadius=0.198mm|HoleSize=0mm|Usage=FLASHONLY|Rotation=0.000|XOffset=0mm|YOffset=0mm|HoleType=Round|Shape=RoundedRectangle|*
%AMROUNDEDRECTD51*
21,1,1.0000,0.5040,0,0,0.0*
21,1,0.6040,0.9000,0,0,0.0*
1,1,0.3960,0.3020,-0.2520*
1,1,0.3960,-0.3020,-0.2520*
1,1,0.3960,-0.3020,0.2520*
1,1,0.3960,0.3020,0.2520*
%
%ADD51ROUNDEDRECTD51*%
G04:AMPARAMS|DCode=52|XSize=1mm|YSize=1.2mm|CornerRadius=0.165mm|HoleSize=0mm|Usage=FLASHONLY|Rotation=90.000|XOffset=0mm|YOffset=0mm|HoleType=Round|Shape=RoundedRectangle|*
%AMROUNDEDRECTD52*
21,1,1.0000,0.8700,0,0,90.0*
21,1,0.6700,1.2000,0,0,90.0*
1,1,0.3300,0.4350,0.3350*
1,1,0.3300,0.4350,-0.3350*
1,1,0.3300,-0.4350,-0.3350*
1,1,0.3300,-0.4350,0.3350*
%
%ADD52ROUNDEDRECTD52*%
G04:AMPARAMS|DCode=53|XSize=3.5mm|YSize=1.2mm|CornerRadius=0.198mm|HoleSize=0mm|Usage=FLASHONLY|Rotation=180.000|XOffset=0mm|YOffset=0mm|HoleType=Round|Shape=RoundedRectangle|*
%AMROUNDEDRECTD53*
21,1,3.5000,0.8040,0,0,180.0*
21,1,3.1040,1.2000,0,0,180.0*
1,1,0.3960,-1.5520,0.4020*
1,1,0.3960,1.5520,0.4020*
1,1,0.3960,1.5520,-0.4020*
1,1,0.3960,-1.5520,-0.4020*
%
%ADD53ROUNDEDRECTD53*%
G04:AMPARAMS|DCode=54|XSize=0.62mm|YSize=0.62mm|CornerRadius=0.1488mm|HoleSize=0mm|Usage=FLASHONLY|Rotation=0.000|XOffset=0mm|YOffset=0mm|HoleType=Round|Shape=RoundedRectangle|*
%AMROUNDEDRECTD54*
21,1,0.6200,0.3224,0,0,0.0*
21,1,0.3224,0.6200,0,0,0.0*
1,1,0.2976,0.1612,-0.1612*
1,1,0.2976,-0.1612,-0.1612*
1,1,0.2976,-0.1612,0.1612*
1,1,0.2976,0.1612,0.1612*
%
%ADD54ROUNDEDRECTD54*%
%ADD55C,0.2540*%
%ADD56C,0.1000*%
%ADD57C,0.0100*%
%ADD58C,0.1500*%
%ADD59C,0.0500*%
%ADD60R,2.1000X2.1000*%
G04:AMPARAMS|DCode=61|XSize=1.7032mm|YSize=3.2032mm|CornerRadius=0.4766mm|HoleSize=0mm|Usage=FLASHONLY|Rotation=0.000|XOffset=0mm|YOffset=0mm|HoleType=Round|Shape=RoundedRectangle|*
%AMROUNDEDRECTD61*
21,1,1.7032,2.2500,0,0,0.0*
21,1,0.7500,3.2032,0,0,0.0*
1,1,0.9532,0.3750,-1.1250*
1,1,0.9532,-0.3750,-1.1250*
1,1,0.9532,-0.3750,1.1250*
1,1,0.9532,0.3750,1.1250*
%
%ADD61ROUNDEDRECTD61*%
%ADD62R,0.6032X1.6032*%
%ADD63R,2.0032X2.1032*%
G04:AMPARAMS|DCode=64|XSize=1.15mm|YSize=1.35mm|CornerRadius=0.24mm|HoleSize=0mm|Usage=FLASHONLY|Rotation=0.000|XOffset=0mm|YOffset=0mm|HoleType=Round|Shape=RoundedRectangle|*
%AMROUNDEDRECTD64*
21,1,1.1500,0.8700,0,0,0.0*
21,1,0.6700,1.3500,0,0,0.0*
1,1,0.4800,0.3350,-0.4350*
1,1,0.4800,-0.3350,-0.4350*
1,1,0.4800,-0.3350,0.4350*
1,1,0.4800,0.3350,0.4350*
%
%ADD64ROUNDEDRECTD64*%
G04:AMPARAMS|DCode=65|XSize=2.45mm|YSize=1.25mm|CornerRadius=0.4353mm|HoleSize=0mm|Usage=FLASHONLY|Rotation=180.000|XOffset=0mm|YOffset=0mm|HoleType=Round|Shape=RoundedRectangle|*
%AMROUNDEDRECTD65*
21,1,2.4500,0.3795,0,0,180.0*
21,1,1.5795,1.2500,0,0,180.0*
1,1,0.8705,-0.7897,0.1898*
1,1,0.8705,0.7897,0.1898*
1,1,0.8705,0.7897,-0.1898*
1,1,0.8705,-0.7897,-0.1898*
%
%ADD65ROUNDEDRECTD65*%
G04:AMPARAMS|DCode=66|XSize=1.4mm|YSize=1.1mm|CornerRadius=0.3mm|HoleSize=0mm|Usage=FLASHONLY|Rotation=180.000|XOffset=0mm|YOffset=0mm|HoleType=Round|Shape=RoundedRectangle|*
%AMROUNDEDRECTD66*
21,1,1.4000,0.5000,0,0,180.0*
21,1,0.8000,1.1000,0,0,180.0*
1,1,0.6000,-0.4000,0.2500*
1,1,0.6000,0.4000,0.2500*
1,1,0.6000,0.4000,-0.2500*
1,1,0.6000,-0.4000,-0.2500*
%
%ADD66ROUNDEDRECTD66*%
G04:AMPARAMS|DCode=67|XSize=2.6mm|YSize=1.25mm|CornerRadius=0.4353mm|HoleSize=0mm|Usage=FLASHONLY|Rotation=180.000|XOffset=0mm|YOffset=0mm|HoleType=Round|Shape=RoundedRectangle|*
%AMROUNDEDRECTD67*
21,1,2.6000,0.3795,0,0,180.0*
21,1,1.7295,1.2500,0,0,180.0*
1,1,0.8705,-0.8648,0.1898*
1,1,0.8705,0.8648,0.1898*
1,1,0.8705,0.8648,-0.1898*
1,1,0.8705,-0.8648,-0.1898*
%
%ADD67ROUNDEDRECTD67*%
%ADD68O,0.9032X2.7032*%
%ADD69O,2.7032X0.9032*%
%ADD70R,1.3032X1.3032*%
%ADD71R,4.1000X4.1000*%
%ADD72O,1.2000X0.5000*%
%ADD73O,0.5000X1.2000*%
G04:AMPARAMS|DCode=74|XSize=1.25mm|YSize=0.75mm|CornerRadius=0.276mm|HoleSize=0mm|Usage=FLASHONLY|Rotation=180.000|XOffset=0mm|YOffset=0mm|HoleType=Round|Shape=RoundedRectangle|*
%AMROUNDEDRECTD74*
21,1,1.2500,0.1980,0,0,180.0*
21,1,0.6980,0.7500,0,0,180.0*
1,1,0.5520,-0.3490,0.0990*
1,1,0.5520,0.3490,0.0990*
1,1,0.5520,0.3490,-0.0990*
1,1,0.5520,-0.3490,-0.0990*
%
%ADD74ROUNDEDRECTD74*%
G04:AMPARAMS|DCode=75|XSize=1.15mm|YSize=1.05mm|CornerRadius=0.273mm|HoleSize=0mm|Usage=FLASHONLY|Rotation=90.000|XOffset=0mm|YOffset=0mm|HoleType=Round|Shape=RoundedRectangle|*
%AMROUNDEDRECTD75*
21,1,1.1500,0.5040,0,0,90.0*
21,1,0.6040,1.0500,0,0,90.0*
1,1,0.5460,0.2520,0.3020*
1,1,0.5460,0.2520,-0.3020*
1,1,0.5460,-0.2520,-0.3020*
1,1,0.5460,-0.2520,0.3020*
%
%ADD75ROUNDEDRECTD75*%
G04:AMPARAMS|DCode=76|XSize=0.77mm|YSize=0.77mm|CornerRadius=0.2008mm|HoleSize=0mm|Usage=FLASHONLY|Rotation=180.000|XOffset=0mm|YOffset=0mm|HoleType=Round|Shape=RoundedRectangle|*
%AMROUNDEDRECTD76*
21,1,0.7700,0.3685,0,0,180.0*
21,1,0.3685,0.7700,0,0,180.0*
1,1,0.4015,-0.1843,0.1843*
1,1,0.4015,0.1843,0.1843*
1,1,0.4015,0.1843,-0.1843*
1,1,0.4015,-0.1843,-0.1843*
%
%ADD76ROUNDEDRECTD76*%
G04:AMPARAMS|DCode=77|XSize=0.77mm|YSize=0.77mm|CornerRadius=0.2008mm|HoleSize=0mm|Usage=FLASHONLY|Rotation=270.000|XOffset=0mm|YOffset=0mm|HoleType=Round|Shape=RoundedRectangle|*
%AMROUNDEDRECTD77*
21,1,0.7700,0.3685,0,0,270.0*
21,1,0.3685,0.7700,0,0,270.0*
1,1,0.4015,-0.1843,-0.1843*
1,1,0.4015,-0.1843,0.1843*
1,1,0.4015,0.1843,0.1843*
1,1,0.4015,0.1843,-0.1843*
%
%ADD77ROUNDEDRECTD77*%
G04:AMPARAMS|DCode=78|XSize=1.2mm|YSize=0.8mm|CornerRadius=0.2765mm|HoleSize=0mm|Usage=FLASHONLY|Rotation=90.000|XOffset=0mm|YOffset=0mm|HoleType=Round|Shape=RoundedRectangle|*
%AMROUNDEDRECTD78*
21,1,1.2000,0.2470,0,0,90.0*
21,1,0.6470,0.8000,0,0,90.0*
1,1,0.5530,0.1235,0.3235*
1,1,0.5530,0.1235,-0.3235*
1,1,0.5530,-0.1235,-0.3235*
1,1,0.5530,-0.1235,0.3235*
%
%ADD78ROUNDEDRECTD78*%
G04:AMPARAMS|DCode=79|XSize=0.8mm|YSize=0.65mm|CornerRadius=0.275mm|HoleSize=0mm|Usage=FLASHONLY|Rotation=270.000|XOffset=0mm|YOffset=0mm|HoleType=Round|Shape=RoundedRectangle|*
%AMROUNDEDRECTD79*
21,1,0.8000,0.1000,0,0,270.0*
21,1,0.2500,0.6500,0,0,270.0*
1,1,0.5500,-0.0500,-0.1250*
1,1,0.5500,-0.0500,0.1250*
1,1,0.5500,0.0500,0.1250*
1,1,0.5500,0.0500,-0.1250*
%
%ADD79ROUNDEDRECTD79*%
G04:AMPARAMS|DCode=80|XSize=0.77mm|YSize=0.77mm|CornerRadius=0.2238mm|HoleSize=0mm|Usage=FLASHONLY|Rotation=270.000|XOffset=0mm|YOffset=0mm|HoleType=Round|Shape=RoundedRectangle|*
%AMROUNDEDRECTD80*
21,1,0.7700,0.3224,0,0,270.0*
21,1,0.3224,0.7700,0,0,270.0*
1,1,0.4476,-0.1612,-0.1612*
1,1,0.4476,-0.1612,0.1612*
1,1,0.4476,0.1612,0.1612*
1,1,0.4476,0.1612,-0.1612*
%
%ADD80ROUNDEDRECTD80*%
G04:AMPARAMS|DCode=81|XSize=1.15mm|YSize=1.1mm|CornerRadius=0.2745mm|HoleSize=0mm|Usage=FLASHONLY|Rotation=0.000|XOffset=0mm|YOffset=0mm|HoleType=Round|Shape=RoundedRectangle|*
%AMROUNDEDRECTD81*
21,1,1.1500,0.5510,0,0,0.0*
21,1,0.6010,1.1000,0,0,0.0*
1,1,0.5490,0.3005,-0.2755*
1,1,0.5490,-0.3005,-0.2755*
1,1,0.5490,-0.3005,0.2755*
1,1,0.5490,0.3005,0.2755*
%
%ADD81ROUNDEDRECTD81*%
G04:AMPARAMS|DCode=82|XSize=1.15mm|YSize=1.1mm|CornerRadius=0.2745mm|HoleSize=0mm|Usage=FLASHONLY|Rotation=270.000|XOffset=0mm|YOffset=0mm|HoleType=Round|Shape=RoundedRectangle|*
%AMROUNDEDRECTD82*
21,1,1.1500,0.5510,0,0,270.0*
21,1,0.6010,1.1000,0,0,270.0*
1,1,0.5490,-0.2755,-0.3005*
1,1,0.5490,-0.2755,0.3005*
1,1,0.5490,0.2755,0.3005*
1,1,0.5490,0.2755,-0.3005*
%
%ADD82ROUNDEDRECTD82*%
G04:AMPARAMS|DCode=83|XSize=0.65mm|YSize=0.36mm|CornerRadius=0.1097mm|HoleSize=0mm|Usage=FLASHONLY|Rotation=180.000|XOffset=0mm|YOffset=0mm|HoleType=Round|Shape=RoundedRectangle|*
%AMROUNDEDRECTD83*
21,1,0.6500,0.1407,0,0,180.0*
21,1,0.4307,0.3600,0,0,180.0*
1,1,0.2193,-0.2154,0.0704*
1,1,0.2193,0.2154,0.0704*
1,1,0.2193,0.2154,-0.0704*
1,1,0.2193,-0.2154,-0.0704*
%
%ADD83ROUNDEDRECTD83*%
G04:AMPARAMS|DCode=84|XSize=0.45mm|YSize=0.8mm|CornerRadius=0.1245mm|HoleSize=0mm|Usage=FLASHONLY|Rotation=180.000|XOffset=0mm|YOffset=0mm|HoleType=Round|Shape=RoundedRectangle|*
%AMROUNDEDRECTD84*
21,1,0.4500,0.5510,0,0,180.0*
21,1,0.2010,0.8000,0,0,180.0*
1,1,0.2490,-0.1005,0.2755*
1,1,0.2490,0.1005,0.2755*
1,1,0.2490,0.1005,-0.2755*
1,1,0.2490,-0.1005,-0.2755*
%
%ADD84ROUNDEDRECTD84*%
G04:AMPARAMS|DCode=85|XSize=0.8mm|YSize=0.5mm|CornerRadius=0.1485mm|HoleSize=0mm|Usage=FLASHONLY|Rotation=270.000|XOffset=0mm|YOffset=0mm|HoleType=Round|Shape=RoundedRectangle|*
%AMROUNDEDRECTD85*
21,1,0.8000,0.2030,0,0,270.0*
21,1,0.5030,0.5000,0,0,270.0*
1,1,0.2970,-0.1015,-0.2515*
1,1,0.2970,-0.1015,0.2515*
1,1,0.2970,0.1015,0.2515*
1,1,0.2970,0.1015,-0.2515*
%
%ADD85ROUNDEDRECTD85*%
G04:AMPARAMS|DCode=86|XSize=0.45mm|YSize=0.4mm|CornerRadius=0.1275mm|HoleSize=0mm|Usage=FLASHONLY|Rotation=270.000|XOffset=0mm|YOffset=0mm|HoleType=Round|Shape=RoundedRectangle|*
%AMROUNDEDRECTD86*
21,1,0.4500,0.1450,0,0,270.0*
21,1,0.1950,0.4000,0,0,270.0*
1,1,0.2550,-0.0725,-0.0975*
1,1,0.2550,-0.0725,0.0975*
1,1,0.2550,0.0725,0.0975*
1,1,0.2550,0.0725,-0.0975*
%
%ADD86ROUNDEDRECTD86*%
%ADD87C,0.9032*%
%ADD88C,1.0032*%
G04:AMPARAMS|DCode=89|XSize=1.25mm|YSize=2.2mm|CornerRadius=0.3375mm|HoleSize=0mm|Usage=FLASHONLY|Rotation=90.000|XOffset=0mm|YOffset=0mm|HoleType=Round|Shape=RoundedRectangle|*
%AMROUNDEDRECTD89*
21,1,1.2500,1.5250,0,0,90.0*
21,1,0.5750,2.2000,0,0,90.0*
1,1,0.6750,0.7625,0.2875*
1,1,0.6750,0.7625,-0.2875*
1,1,0.6750,-0.7625,-0.2875*
1,1,0.6750,-0.7625,0.2875*
%
%ADD89ROUNDEDRECTD89*%
%ADD90C,2.0000*%
%ADD91R,1.5032X1.5032*%
%ADD92C,1.5032*%
D61*
X28100Y279955D02*
D03*
X48000D02*
D03*
D62*
X276000Y41000D02*
D03*
X250000D02*
D03*
X269500D02*
D03*
X256500D02*
D03*
X263000D02*
D03*
D63*
X303000Y14500D02*
D03*
X223000D02*
D03*
D64*
X35500Y53000D02*
D03*
X50500D02*
D03*
D65*
X268200Y91700D02*
D03*
D66*
X228500Y109100D02*
D03*
Y121800D02*
D03*
Y147200D02*
D03*
Y198000D02*
D03*
Y134500D02*
D03*
Y210700D02*
D03*
Y185300D02*
D03*
Y159900D02*
D03*
Y172600D02*
D03*
D67*
X245000Y258300D02*
D03*
D68*
X38000Y89000D02*
D03*
X48000D02*
D03*
X58000D02*
D03*
X68000D02*
D03*
X78000D02*
D03*
X88000D02*
D03*
X98000D02*
D03*
X108000D02*
D03*
X118000D02*
D03*
X128000D02*
D03*
X138000D02*
D03*
X148000D02*
D03*
X158000D02*
D03*
X168000D02*
D03*
X178000D02*
D03*
Y247000D02*
D03*
X168000D02*
D03*
X158000D02*
D03*
X148000D02*
D03*
X138000D02*
D03*
X128000D02*
D03*
X118000D02*
D03*
X108000D02*
D03*
X98000D02*
D03*
X88000D02*
D03*
X78000D02*
D03*
X68000D02*
D03*
X58000D02*
D03*
X48000D02*
D03*
X38000D02*
D03*
D69*
X200500Y113000D02*
D03*
Y123000D02*
D03*
Y133000D02*
D03*
Y143000D02*
D03*
Y153000D02*
D03*
Y163000D02*
D03*
Y173000D02*
D03*
Y183000D02*
D03*
Y193000D02*
D03*
Y203000D02*
D03*
Y213000D02*
D03*
Y223000D02*
D03*
X15500D02*
D03*
Y213000D02*
D03*
Y203000D02*
D03*
Y193000D02*
D03*
Y183000D02*
D03*
Y173000D02*
D03*
Y163000D02*
D03*
Y153000D02*
D03*
Y143000D02*
D03*
Y133000D02*
D03*
Y123000D02*
D03*
Y113000D02*
D03*
D70*
X81000Y132000D02*
D03*
X99000D02*
D03*
X117000D02*
D03*
X135000D02*
D03*
X153000Y150000D02*
D03*
Y168000D02*
D03*
Y186000D02*
D03*
X135000Y204000D02*
D03*
X117000D02*
D03*
X99000D02*
D03*
X81000D02*
D03*
X63000Y186000D02*
D03*
Y168000D02*
D03*
Y150000D02*
D03*
D71*
X350000Y48000D02*
D03*
D72*
X380000Y67500D02*
D03*
Y61000D02*
D03*
Y54500D02*
D03*
Y48000D02*
D03*
Y41500D02*
D03*
Y35000D02*
D03*
Y28500D02*
D03*
X320000D02*
D03*
Y35000D02*
D03*
Y41500D02*
D03*
Y48000D02*
D03*
Y54500D02*
D03*
Y61000D02*
D03*
Y67500D02*
D03*
D73*
X369500Y18000D02*
D03*
X363000D02*
D03*
X356500D02*
D03*
X350000D02*
D03*
X343500D02*
D03*
X337000D02*
D03*
X330500D02*
D03*
Y78000D02*
D03*
X337000D02*
D03*
X343500D02*
D03*
X350000D02*
D03*
X356500D02*
D03*
X363000D02*
D03*
X369500D02*
D03*
D74*
X259000Y272500D02*
D03*
Y282000D02*
D03*
Y291500D02*
D03*
X233000D02*
D03*
Y272500D02*
D03*
X291000Y291500D02*
D03*
Y282000D02*
D03*
Y272500D02*
D03*
X317000D02*
D03*
Y291500D02*
D03*
D75*
X147500Y287600D02*
D03*
X131500D02*
D03*
D76*
X322000Y6000D02*
D03*
X330800D02*
D03*
X269150Y69750D02*
D03*
X260350D02*
D03*
X228600Y79000D02*
D03*
X237400D02*
D03*
D77*
X250000Y72600D02*
D03*
Y81400D02*
D03*
Y53600D02*
D03*
Y62400D02*
D03*
D78*
X178500Y268500D02*
D03*
X197500D02*
D03*
X188000Y291500D02*
D03*
D79*
X163000Y275250D02*
D03*
Y293250D02*
D03*
D80*
X260165Y80000D02*
D03*
X269165D02*
D03*
X35500Y41000D02*
D03*
X26500D02*
D03*
X35499Y31999D02*
D03*
X26499D02*
D03*
X47500Y64000D02*
D03*
X38500D02*
D03*
X47500Y23000D02*
D03*
X38500D02*
D03*
X59500Y41000D02*
D03*
X50500D02*
D03*
X59499Y31999D02*
D03*
X50499D02*
D03*
D81*
X116500Y271600D02*
D03*
Y287600D02*
D03*
X217000Y274000D02*
D03*
Y290000D02*
D03*
X333000D02*
D03*
Y274000D02*
D03*
X275000Y290000D02*
D03*
Y274000D02*
D03*
D82*
X286000Y77750D02*
D03*
X302000D02*
D03*
D83*
X178000Y19200D02*
D03*
Y14600D02*
D03*
D84*
X184750Y16900D02*
D03*
X171250D02*
D03*
D85*
X95100Y10000D02*
D03*
X103600D02*
D03*
X168700Y65700D02*
D03*
X177200D02*
D03*
X103600Y10000D02*
D03*
X95100D02*
D03*
X177200Y65700D02*
D03*
X168700D02*
D03*
D86*
X203600Y10000D02*
D03*
X198100D02*
D03*
X203600D02*
D03*
X198100D02*
D03*
D87*
X282000Y35000D02*
D03*
X244000D02*
D03*
D88*
X33500Y51000D02*
D03*
X52500D02*
D03*
X40750Y108500D02*
D03*
Y127500D02*
D03*
D89*
X386000Y255700D02*
D03*
Y94300D02*
D03*
D90*
X382700Y282000D02*
D03*
X357300D02*
D03*
D91*
X366300Y225750D02*
D03*
D92*
Y200250D02*
D03*
Y175250D02*
D03*
Y149750D02*
D03*
Y124250D02*
D03*
M02*
