%FSLAX44Y44*%
%MOMM*%
G71*
G01*
G75*
G04 Layer_Color=65535*
G04:AMPARAMS|DCode=10|XSize=0.67mm|YSize=0.67mm|CornerRadius=0.1508mm|HoleSize=0mm|Usage=FLASHONLY|Rotation=90.000|XOffset=0mm|YOffset=0mm|HoleType=Round|Shape=RoundedRectangle|*
%AMROUNDEDRECTD10*
21,1,0.6700,0.3685,0,0,90.0*
21,1,0.3685,0.6700,0,0,90.0*
1,1,0.3015,0.1843,0.1843*
1,1,0.3015,0.1843,-0.1843*
1,1,0.3015,-0.1843,-0.1843*
1,1,0.3015,-0.1843,0.1843*
%
%ADD10ROUNDEDRECTD10*%
G04:AMPARAMS|DCode=11|XSize=0.67mm|YSize=0.67mm|CornerRadius=0.1508mm|HoleSize=0mm|Usage=FLASHONLY|Rotation=180.000|XOffset=0mm|YOffset=0mm|HoleType=Round|Shape=RoundedRectangle|*
%AMROUNDEDRECTD11*
21,1,0.6700,0.3685,0,0,180.0*
21,1,0.3685,0.6700,0,0,180.0*
1,1,0.3015,-0.1843,0.1843*
1,1,0.3015,0.1843,0.1843*
1,1,0.3015,0.1843,-0.1843*
1,1,0.3015,-0.1843,-0.1843*
%
%ADD11ROUNDEDRECTD11*%
G04:AMPARAMS|DCode=12|XSize=1.1mm|YSize=0.6mm|CornerRadius=0.201mm|HoleSize=0mm|Usage=FLASHONLY|Rotation=270.000|XOffset=0mm|YOffset=0mm|HoleType=Round|Shape=RoundedRectangle|*
%AMROUNDEDRECTD12*
21,1,1.1000,0.1980,0,0,270.0*
21,1,0.6980,0.6000,0,0,270.0*
1,1,0.4020,-0.0990,-0.3490*
1,1,0.4020,-0.0990,0.3490*
1,1,0.4020,0.0990,0.3490*
1,1,0.4020,0.0990,-0.3490*
%
%ADD12ROUNDEDRECTD12*%
G04:AMPARAMS|DCode=13|XSize=2.5mm|YSize=2mm|CornerRadius=0.25mm|HoleSize=0mm|Usage=FLASHONLY|Rotation=270.000|XOffset=0mm|YOffset=0mm|HoleType=Round|Shape=RoundedRectangle|*
%AMROUNDEDRECTD13*
21,1,2.5000,1.5000,0,0,270.0*
21,1,2.0000,2.0000,0,0,270.0*
1,1,0.5000,-0.7500,-1.0000*
1,1,0.5000,-0.7500,1.0000*
1,1,0.5000,0.7500,1.0000*
1,1,0.5000,0.7500,-1.0000*
%
%ADD13ROUNDEDRECTD13*%
G04:AMPARAMS|DCode=14|XSize=2.7mm|YSize=1.2mm|CornerRadius=0.21mm|HoleSize=0mm|Usage=FLASHONLY|Rotation=0.000|XOffset=0mm|YOffset=0mm|HoleType=Round|Shape=RoundedRectangle|*
%AMROUNDEDRECTD14*
21,1,2.7000,0.7800,0,0,0.0*
21,1,2.2800,1.2000,0,0,0.0*
1,1,0.4200,1.1400,-0.3900*
1,1,0.4200,-1.1400,-0.3900*
1,1,0.4200,-1.1400,0.3900*
1,1,0.4200,1.1400,0.3900*
%
%ADD14ROUNDEDRECTD14*%
G04:AMPARAMS|DCode=15|XSize=1.05mm|YSize=0.65mm|CornerRadius=0.2015mm|HoleSize=0mm|Usage=FLASHONLY|Rotation=90.000|XOffset=0mm|YOffset=0mm|HoleType=Round|Shape=RoundedRectangle|*
%AMROUNDEDRECTD15*
21,1,1.0500,0.2470,0,0,90.0*
21,1,0.6470,0.6500,0,0,90.0*
1,1,0.4030,0.1235,0.3235*
1,1,0.4030,0.1235,-0.3235*
1,1,0.4030,-0.1235,-0.3235*
1,1,0.4030,-0.1235,0.3235*
%
%ADD15ROUNDEDRECTD15*%
G04:AMPARAMS|DCode=16|XSize=2.5mm|YSize=2mm|CornerRadius=0.2mm|HoleSize=0mm|Usage=FLASHONLY|Rotation=90.000|XOffset=0mm|YOffset=0mm|HoleType=Round|Shape=RoundedRectangle|*
%AMROUNDEDRECTD16*
21,1,2.5000,1.6000,0,0,90.0*
21,1,2.1000,2.0000,0,0,90.0*
1,1,0.4000,0.8000,1.0500*
1,1,0.4000,0.8000,-1.0500*
1,1,0.4000,-0.8000,-1.0500*
1,1,0.4000,-0.8000,1.0500*
%
%ADD16ROUNDEDRECTD16*%
G04:AMPARAMS|DCode=17|XSize=2.3mm|YSize=0.5mm|CornerRadius=0.2mm|HoleSize=0mm|Usage=FLASHONLY|Rotation=90.000|XOffset=0mm|YOffset=0mm|HoleType=Round|Shape=RoundedRectangle|*
%AMROUNDEDRECTD17*
21,1,2.3000,0.1000,0,0,90.0*
21,1,1.9000,0.5000,0,0,90.0*
1,1,0.4000,0.0500,0.9500*
1,1,0.4000,0.0500,-0.9500*
1,1,0.4000,-0.0500,-0.9500*
1,1,0.4000,-0.0500,0.9500*
%
%ADD17ROUNDEDRECTD17*%
G04:AMPARAMS|DCode=18|XSize=1.1mm|YSize=0.6mm|CornerRadius=0.201mm|HoleSize=0mm|Usage=FLASHONLY|Rotation=180.000|XOffset=0mm|YOffset=0mm|HoleType=Round|Shape=RoundedRectangle|*
%AMROUNDEDRECTD18*
21,1,1.1000,0.1980,0,0,180.0*
21,1,0.6980,0.6000,0,0,180.0*
1,1,0.4020,-0.3490,0.0990*
1,1,0.4020,0.3490,0.0990*
1,1,0.4020,0.3490,-0.0990*
1,1,0.4020,-0.3490,-0.0990*
%
%ADD18ROUNDEDRECTD18*%
G04:AMPARAMS|DCode=19|XSize=1mm|YSize=0.95mm|CornerRadius=0.1995mm|HoleSize=0mm|Usage=FLASHONLY|Rotation=270.000|XOffset=0mm|YOffset=0mm|HoleType=Round|Shape=RoundedRectangle|*
%AMROUNDEDRECTD19*
21,1,1.0000,0.5510,0,0,270.0*
21,1,0.6010,0.9500,0,0,270.0*
1,1,0.3990,-0.2755,-0.3005*
1,1,0.3990,-0.2755,0.3005*
1,1,0.3990,0.2755,0.3005*
1,1,0.3990,0.2755,-0.3005*
%
%ADD19ROUNDEDRECTD19*%
%ADD20R,0.4000X1.4000*%
G04:AMPARAMS|DCode=21|XSize=1.8mm|YSize=1.9mm|CornerRadius=0.45mm|HoleSize=0mm|Usage=FLASHONLY|Rotation=0.000|XOffset=0mm|YOffset=0mm|HoleType=Round|Shape=RoundedRectangle|*
%AMROUNDEDRECTD21*
21,1,1.8000,1.0000,0,0,0.0*
21,1,0.9000,1.9000,0,0,0.0*
1,1,0.9000,0.4500,-0.5000*
1,1,0.9000,-0.4500,-0.5000*
1,1,0.9000,-0.4500,0.5000*
1,1,0.9000,0.4500,0.5000*
%
%ADD21ROUNDEDRECTD21*%
G04:AMPARAMS|DCode=22|XSize=0.7mm|YSize=1mm|CornerRadius=0.175mm|HoleSize=0mm|Usage=FLASHONLY|Rotation=180.000|XOffset=0mm|YOffset=0mm|HoleType=Round|Shape=RoundedRectangle|*
%AMROUNDEDRECTD22*
21,1,0.7000,0.6500,0,0,180.0*
21,1,0.3500,1.0000,0,0,180.0*
1,1,0.3500,-0.1750,0.3250*
1,1,0.3500,0.1750,0.3250*
1,1,0.3500,0.1750,-0.3250*
1,1,0.3500,-0.1750,-0.3250*
%
%ADD22ROUNDEDRECTD22*%
G04:AMPARAMS|DCode=23|XSize=0.8mm|YSize=2mm|CornerRadius=0.2mm|HoleSize=0mm|Usage=FLASHONLY|Rotation=180.000|XOffset=0mm|YOffset=0mm|HoleType=Round|Shape=RoundedRectangle|*
%AMROUNDEDRECTD23*
21,1,0.8000,1.6000,0,0,180.0*
21,1,0.4000,2.0000,0,0,180.0*
1,1,0.4000,-0.2000,0.8000*
1,1,0.4000,0.2000,0.8000*
1,1,0.4000,0.2000,-0.8000*
1,1,0.4000,-0.2000,-0.8000*
%
%ADD23ROUNDEDRECTD23*%
G04:AMPARAMS|DCode=24|XSize=1mm|YSize=0.9mm|CornerRadius=0.198mm|HoleSize=0mm|Usage=FLASHONLY|Rotation=180.000|XOffset=0mm|YOffset=0mm|HoleType=Round|Shape=RoundedRectangle|*
%AMROUNDEDRECTD24*
21,1,1.0000,0.5040,0,0,180.0*
21,1,0.6040,0.9000,0,0,180.0*
1,1,0.3960,-0.3020,0.2520*
1,1,0.3960,0.3020,0.2520*
1,1,0.3960,0.3020,-0.2520*
1,1,0.3960,-0.3020,-0.2520*
%
%ADD24ROUNDEDRECTD24*%
G04:AMPARAMS|DCode=25|XSize=1.05mm|YSize=0.65mm|CornerRadius=0.2015mm|HoleSize=0mm|Usage=FLASHONLY|Rotation=0.000|XOffset=0mm|YOffset=0mm|HoleType=Round|Shape=RoundedRectangle|*
%AMROUNDEDRECTD25*
21,1,1.0500,0.2470,0,0,0.0*
21,1,0.6470,0.6500,0,0,0.0*
1,1,0.4030,0.3235,-0.1235*
1,1,0.4030,-0.3235,-0.1235*
1,1,0.4030,-0.3235,0.1235*
1,1,0.4030,0.3235,0.1235*
%
%ADD25ROUNDEDRECTD25*%
G04:AMPARAMS|DCode=26|XSize=2.5mm|YSize=1.7mm|CornerRadius=0.204mm|HoleSize=0mm|Usage=FLASHONLY|Rotation=0.000|XOffset=0mm|YOffset=0mm|HoleType=Round|Shape=RoundedRectangle|*
%AMROUNDEDRECTD26*
21,1,2.5000,1.2920,0,0,0.0*
21,1,2.0920,1.7000,0,0,0.0*
1,1,0.4080,1.0460,-0.6460*
1,1,0.4080,-1.0460,-0.6460*
1,1,0.4080,-1.0460,0.6460*
1,1,0.4080,1.0460,0.6460*
%
%ADD26ROUNDEDRECTD26*%
G04:AMPARAMS|DCode=27|XSize=5.2mm|YSize=2mm|CornerRadius=0.25mm|HoleSize=0mm|Usage=FLASHONLY|Rotation=180.000|XOffset=0mm|YOffset=0mm|HoleType=Round|Shape=RoundedRectangle|*
%AMROUNDEDRECTD27*
21,1,5.2000,1.5000,0,0,180.0*
21,1,4.7000,2.0000,0,0,180.0*
1,1,0.5000,-2.3500,0.7500*
1,1,0.5000,2.3500,0.7500*
1,1,0.5000,2.3500,-0.7500*
1,1,0.5000,-2.3500,-0.7500*
%
%ADD27ROUNDEDRECTD27*%
G04:AMPARAMS|DCode=28|XSize=0.65mm|YSize=0.35mm|CornerRadius=0.0735mm|HoleSize=0mm|Usage=FLASHONLY|Rotation=0.000|XOffset=0mm|YOffset=0mm|HoleType=Round|Shape=RoundedRectangle|*
%AMROUNDEDRECTD28*
21,1,0.6500,0.2030,0,0,0.0*
21,1,0.5030,0.3500,0,0,0.0*
1,1,0.1470,0.2515,-0.1015*
1,1,0.1470,-0.2515,-0.1015*
1,1,0.1470,-0.2515,0.1015*
1,1,0.1470,0.2515,0.1015*
%
%ADD28ROUNDEDRECTD28*%
G04:AMPARAMS|DCode=29|XSize=0.62mm|YSize=0.62mm|CornerRadius=0.1488mm|HoleSize=0mm|Usage=FLASHONLY|Rotation=0.000|XOffset=0mm|YOffset=0mm|HoleType=Round|Shape=RoundedRectangle|*
%AMROUNDEDRECTD29*
21,1,0.6200,0.3224,0,0,0.0*
21,1,0.3224,0.6200,0,0,0.0*
1,1,0.2976,0.1612,-0.1612*
1,1,0.2976,-0.1612,-0.1612*
1,1,0.2976,-0.1612,0.1612*
1,1,0.2976,0.1612,0.1612*
%
%ADD29ROUNDEDRECTD29*%
G04:AMPARAMS|DCode=30|XSize=0.3mm|YSize=0.25mm|CornerRadius=0.0525mm|HoleSize=0mm|Usage=FLASHONLY|Rotation=0.000|XOffset=0mm|YOffset=0mm|HoleType=Round|Shape=RoundedRectangle|*
%AMROUNDEDRECTD30*
21,1,0.3000,0.1450,0,0,0.0*
21,1,0.1950,0.2500,0,0,0.0*
1,1,0.1050,0.0975,-0.0725*
1,1,0.1050,-0.0975,-0.0725*
1,1,0.1050,-0.0975,0.0725*
1,1,0.1050,0.0975,0.0725*
%
%ADD30ROUNDEDRECTD30*%
%ADD31O,1.5500X0.6000*%
G04:AMPARAMS|DCode=32|XSize=0.62mm|YSize=0.62mm|CornerRadius=0.1488mm|HoleSize=0mm|Usage=FLASHONLY|Rotation=270.000|XOffset=0mm|YOffset=0mm|HoleType=Round|Shape=RoundedRectangle|*
%AMROUNDEDRECTD32*
21,1,0.6200,0.3224,0,0,270.0*
21,1,0.3224,0.6200,0,0,270.0*
1,1,0.2976,-0.1612,-0.1612*
1,1,0.2976,-0.1612,0.1612*
1,1,0.2976,0.1612,0.1612*
1,1,0.2976,0.1612,-0.1612*
%
%ADD32ROUNDEDRECTD32*%
G04:AMPARAMS|DCode=33|XSize=1mm|YSize=0.95mm|CornerRadius=0.1995mm|HoleSize=0mm|Usage=FLASHONLY|Rotation=0.000|XOffset=0mm|YOffset=0mm|HoleType=Round|Shape=RoundedRectangle|*
%AMROUNDEDRECTD33*
21,1,1.0000,0.5510,0,0,0.0*
21,1,0.6010,0.9500,0,0,0.0*
1,1,0.3990,0.3005,-0.2755*
1,1,0.3990,-0.3005,-0.2755*
1,1,0.3990,-0.3005,0.2755*
1,1,0.3990,0.3005,0.2755*
%
%ADD33ROUNDEDRECTD33*%
%ADD34O,0.6000X1.5500*%
G04:AMPARAMS|DCode=35|XSize=3.3mm|YSize=1.65mm|CornerRadius=0.198mm|HoleSize=0mm|Usage=FLASHONLY|Rotation=90.000|XOffset=0mm|YOffset=0mm|HoleType=Round|Shape=RoundedRectangle|*
%AMROUNDEDRECTD35*
21,1,3.3000,1.2540,0,0,90.0*
21,1,2.9040,1.6500,0,0,90.0*
1,1,0.3960,0.6270,1.4520*
1,1,0.3960,0.6270,-1.4520*
1,1,0.3960,-0.6270,-1.4520*
1,1,0.3960,-0.6270,1.4520*
%
%ADD35ROUNDEDRECTD35*%
G04:AMPARAMS|DCode=36|XSize=1mm|YSize=0.9mm|CornerRadius=0.198mm|HoleSize=0mm|Usage=FLASHONLY|Rotation=270.000|XOffset=0mm|YOffset=0mm|HoleType=Round|Shape=RoundedRectangle|*
%AMROUNDEDRECTD36*
21,1,1.0000,0.5040,0,0,270.0*
21,1,0.6040,0.9000,0,0,270.0*
1,1,0.3960,-0.2520,-0.3020*
1,1,0.3960,-0.2520,0.3020*
1,1,0.3960,0.2520,0.3020*
1,1,0.3960,0.2520,-0.3020*
%
%ADD36ROUNDEDRECTD36*%
G04:AMPARAMS|DCode=37|XSize=1.2mm|YSize=2mm|CornerRadius=0.3mm|HoleSize=0mm|Usage=FLASHONLY|Rotation=90.000|XOffset=0mm|YOffset=0mm|HoleType=Round|Shape=RoundedRectangle|*
%AMROUNDEDRECTD37*
21,1,1.2000,1.4000,0,0,90.0*
21,1,0.6000,2.0000,0,0,90.0*
1,1,0.6000,0.7000,0.3000*
1,1,0.6000,0.7000,-0.3000*
1,1,0.6000,-0.7000,-0.3000*
1,1,0.6000,-0.7000,0.3000*
%
%ADD37ROUNDEDRECTD37*%
G04:AMPARAMS|DCode=38|XSize=1.2mm|YSize=1.2mm|CornerRadius=0.198mm|HoleSize=0mm|Usage=FLASHONLY|Rotation=90.000|XOffset=0mm|YOffset=0mm|HoleType=Round|Shape=RoundedRectangle|*
%AMROUNDEDRECTD38*
21,1,1.2000,0.8040,0,0,90.0*
21,1,0.8040,1.2000,0,0,90.0*
1,1,0.3960,0.4020,0.4020*
1,1,0.3960,0.4020,-0.4020*
1,1,0.3960,-0.4020,-0.4020*
1,1,0.3960,-0.4020,0.4020*
%
%ADD38ROUNDEDRECTD38*%
G04:AMPARAMS|DCode=39|XSize=1.45mm|YSize=0.95mm|CornerRadius=0.1995mm|HoleSize=0mm|Usage=FLASHONLY|Rotation=90.000|XOffset=0mm|YOffset=0mm|HoleType=Round|Shape=RoundedRectangle|*
%AMROUNDEDRECTD39*
21,1,1.4500,0.5510,0,0,90.0*
21,1,1.0510,0.9500,0,0,90.0*
1,1,0.3990,0.2755,0.5255*
1,1,0.3990,0.2755,-0.5255*
1,1,0.3990,-0.2755,-0.5255*
1,1,0.3990,-0.2755,0.5255*
%
%ADD39ROUNDEDRECTD39*%
G04:AMPARAMS|DCode=40|XSize=0.3mm|YSize=0.65mm|CornerRadius=0.0495mm|HoleSize=0mm|Usage=FLASHONLY|Rotation=90.000|XOffset=0mm|YOffset=0mm|HoleType=Round|Shape=RoundedRectangle|*
%AMROUNDEDRECTD40*
21,1,0.3000,0.5510,0,0,90.0*
21,1,0.2010,0.6500,0,0,90.0*
1,1,0.0990,0.2755,0.1005*
1,1,0.0990,0.2755,-0.1005*
1,1,0.0990,-0.2755,-0.1005*
1,1,0.0990,-0.2755,0.1005*
%
%ADD40ROUNDEDRECTD40*%
G04:AMPARAMS|DCode=41|XSize=0.5mm|YSize=0.21mm|CornerRadius=0.0347mm|HoleSize=0mm|Usage=FLASHONLY|Rotation=90.000|XOffset=0mm|YOffset=0mm|HoleType=Round|Shape=RoundedRectangle|*
%AMROUNDEDRECTD41*
21,1,0.5000,0.1407,0,0,90.0*
21,1,0.4307,0.2100,0,0,90.0*
1,1,0.0693,0.0704,0.2154*
1,1,0.0693,0.0704,-0.2154*
1,1,0.0693,-0.0704,-0.2154*
1,1,0.0693,-0.0704,0.2154*
%
%ADD41ROUNDEDRECTD41*%
G04:AMPARAMS|DCode=42|XSize=0.7mm|YSize=1.5mm|CornerRadius=0.175mm|HoleSize=0mm|Usage=FLASHONLY|Rotation=0.000|XOffset=0mm|YOffset=0mm|HoleType=Round|Shape=RoundedRectangle|*
%AMROUNDEDRECTD42*
21,1,0.7000,1.1500,0,0,0.0*
21,1,0.3500,1.5000,0,0,0.0*
1,1,0.3500,0.1750,-0.5750*
1,1,0.3500,-0.1750,-0.5750*
1,1,0.3500,-0.1750,0.5750*
1,1,0.3500,0.1750,0.5750*
%
%ADD42ROUNDEDRECTD42*%
%ADD43O,2.5000X0.5000*%
%ADD44O,0.5000X2.5000*%
%ADD45O,1.8000X0.8000*%
%ADD46O,2.5000X1.0000*%
G04:AMPARAMS|DCode=47|XSize=0.8mm|YSize=2mm|CornerRadius=0.2mm|HoleSize=0mm|Usage=FLASHONLY|Rotation=270.000|XOffset=0mm|YOffset=0mm|HoleType=Round|Shape=RoundedRectangle|*
%AMROUNDEDRECTD47*
21,1,0.8000,1.6000,0,0,270.0*
21,1,0.4000,2.0000,0,0,270.0*
1,1,0.4000,-0.8000,-0.2000*
1,1,0.4000,-0.8000,0.2000*
1,1,0.4000,0.8000,0.2000*
1,1,0.4000,0.8000,-0.2000*
%
%ADD47ROUNDEDRECTD47*%
G04:AMPARAMS|DCode=48|XSize=0.7mm|YSize=1mm|CornerRadius=0.175mm|HoleSize=0mm|Usage=FLASHONLY|Rotation=90.000|XOffset=0mm|YOffset=0mm|HoleType=Round|Shape=RoundedRectangle|*
%AMROUNDEDRECTD48*
21,1,0.7000,0.6500,0,0,90.0*
21,1,0.3500,1.0000,0,0,90.0*
1,1,0.3500,0.3250,0.1750*
1,1,0.3500,0.3250,-0.1750*
1,1,0.3500,-0.3250,-0.1750*
1,1,0.3500,-0.3250,0.1750*
%
%ADD48ROUNDEDRECTD48*%
%ADD49O,0.7000X2.5000*%
%ADD50O,2.5000X0.7000*%
%ADD51C,0.5000*%
%ADD52C,0.4000*%
%ADD53C,0.7000*%
%ADD54C,0.2500*%
%ADD55C,0.2000*%
%ADD56C,0.3000*%
%ADD57C,1.0000*%
%ADD58C,0.6000*%
%ADD59C,0.8000*%
%ADD60C,0.9000*%
%ADD61C,1.8000*%
G04:AMPARAMS|DCode=62|XSize=1.3mm|YSize=1.3mm|CornerRadius=0.1625mm|HoleSize=0mm|Usage=FLASHONLY|Rotation=0.000|XOffset=0mm|YOffset=0mm|HoleType=Round|Shape=RoundedRectangle|*
%AMROUNDEDRECTD62*
21,1,1.3000,0.9750,0,0,0.0*
21,1,0.9750,1.3000,0,0,0.0*
1,1,0.3250,0.4875,-0.4875*
1,1,0.3250,-0.4875,-0.4875*
1,1,0.3250,-0.4875,0.4875*
1,1,0.3250,0.4875,0.4875*
%
%ADD62ROUNDEDRECTD62*%
%ADD63C,1.3000*%
%ADD64C,7.0000*%
%ADD65C,0.1000*%
%ADD66C,0.5000*%
G04:AMPARAMS|DCode=67|XSize=2mm|YSize=2mm|CornerRadius=0.25mm|HoleSize=0mm|Usage=FLASHONLY|Rotation=90.000|XOffset=0mm|YOffset=0mm|HoleType=Round|Shape=RoundedRectangle|*
%AMROUNDEDRECTD67*
21,1,2.0000,1.5000,0,0,90.0*
21,1,1.5000,2.0000,0,0,90.0*
1,1,0.5000,0.7500,0.7500*
1,1,0.5000,0.7500,-0.7500*
1,1,0.5000,-0.7500,-0.7500*
1,1,0.5000,-0.7500,0.7500*
%
%ADD67ROUNDEDRECTD67*%
%ADD68C,2.0000*%
%ADD69C,2.5000*%
G04:AMPARAMS|DCode=70|XSize=1.85mm|YSize=1.85mm|CornerRadius=0.2313mm|HoleSize=0mm|Usage=FLASHONLY|Rotation=0.000|XOffset=0mm|YOffset=0mm|HoleType=Round|Shape=RoundedRectangle|*
%AMROUNDEDRECTD70*
21,1,1.8500,1.3875,0,0,0.0*
21,1,1.3875,1.8500,0,0,0.0*
1,1,0.4625,0.6937,-0.6937*
1,1,0.4625,-0.6937,-0.6937*
1,1,0.4625,-0.6937,0.6937*
1,1,0.4625,0.6937,0.6937*
%
%ADD70ROUNDEDRECTD70*%
%ADD71C,1.8500*%
%ADD72C,1.6000*%
%ADD73R,1.6000X1.6000*%
G04:AMPARAMS|DCode=74|XSize=1.3mm|YSize=1.3mm|CornerRadius=0.325mm|HoleSize=0mm|Usage=FLASHONLY|Rotation=90.000|XOffset=0mm|YOffset=0mm|HoleType=Round|Shape=RoundedRectangle|*
%AMROUNDEDRECTD74*
21,1,1.3000,0.6500,0,0,90.0*
21,1,0.6500,1.3000,0,0,90.0*
1,1,0.6500,0.3250,0.3250*
1,1,0.6500,0.3250,-0.3250*
1,1,0.6500,-0.3250,-0.3250*
1,1,0.6500,-0.3250,0.3250*
%
%ADD74ROUNDEDRECTD74*%
%ADD75R,2.5000X5.0000*%
%ADD76R,5.0000X2.5000*%
G04:AMPARAMS|DCode=77|XSize=1mm|YSize=1mm|CornerRadius=0.25mm|HoleSize=0mm|Usage=FLASHONLY|Rotation=0.000|XOffset=0mm|YOffset=0mm|HoleType=Round|Shape=RoundedRectangle|*
%AMROUNDEDRECTD77*
21,1,1.0000,0.5000,0,0,0.0*
21,1,0.5000,1.0000,0,0,0.0*
1,1,0.5000,0.2500,-0.2500*
1,1,0.5000,-0.2500,-0.2500*
1,1,0.5000,-0.2500,0.2500*
1,1,0.5000,0.2500,0.2500*
%
%ADD77ROUNDEDRECTD77*%
%ADD78C,2.2000*%
G04:AMPARAMS|DCode=79|XSize=1.6mm|YSize=1.6mm|CornerRadius=0.2mm|HoleSize=0mm|Usage=FLASHONLY|Rotation=90.000|XOffset=0mm|YOffset=0mm|HoleType=Round|Shape=RoundedRectangle|*
%AMROUNDEDRECTD79*
21,1,1.6000,1.2000,0,0,90.0*
21,1,1.2000,1.6000,0,0,90.0*
1,1,0.4000,0.6000,0.6000*
1,1,0.4000,0.6000,-0.6000*
1,1,0.4000,-0.6000,-0.6000*
1,1,0.4000,-0.6000,0.6000*
%
%ADD79ROUNDEDRECTD79*%
G04:AMPARAMS|DCode=80|XSize=1.4mm|YSize=1.4mm|CornerRadius=0.175mm|HoleSize=0mm|Usage=FLASHONLY|Rotation=90.000|XOffset=0mm|YOffset=0mm|HoleType=Round|Shape=RoundedRectangle|*
%AMROUNDEDRECTD80*
21,1,1.4000,1.0500,0,0,90.0*
21,1,1.0500,1.4000,0,0,90.0*
1,1,0.3500,0.5250,0.5250*
1,1,0.3500,0.5250,-0.5250*
1,1,0.3500,-0.5250,-0.5250*
1,1,0.3500,-0.5250,0.5250*
%
%ADD80ROUNDEDRECTD80*%
%ADD81C,1.0000*%
%ADD82C,0.6000*%
G04:AMPARAMS|DCode=83|XSize=1.15mm|YSize=2.1mm|CornerRadius=0.2875mm|HoleSize=0mm|Usage=FLASHONLY|Rotation=90.000|XOffset=0mm|YOffset=0mm|HoleType=Round|Shape=RoundedRectangle|*
%AMROUNDEDRECTD83*
21,1,1.1500,1.5250,0,0,90.0*
21,1,0.5750,2.1000,0,0,90.0*
1,1,0.5750,0.7625,0.2875*
1,1,0.5750,0.7625,-0.2875*
1,1,0.5750,-0.7625,-0.2875*
1,1,0.5750,-0.7625,0.2875*
%
%ADD83ROUNDEDRECTD83*%
G04:AMPARAMS|DCode=84|XSize=2.5mm|YSize=1.15mm|CornerRadius=0.3852mm|HoleSize=0mm|Usage=FLASHONLY|Rotation=0.000|XOffset=0mm|YOffset=0mm|HoleType=Round|Shape=RoundedRectangle|*
%AMROUNDEDRECTD84*
21,1,2.5000,0.3795,0,0,0.0*
21,1,1.7295,1.1500,0,0,0.0*
1,1,0.7705,0.8648,-0.1898*
1,1,0.7705,-0.8648,-0.1898*
1,1,0.7705,-0.8648,0.1898*
1,1,0.7705,0.8648,0.1898*
%
%ADD84ROUNDEDRECTD84*%
G04:AMPARAMS|DCode=85|XSize=1.3mm|YSize=1mm|CornerRadius=0.25mm|HoleSize=0mm|Usage=FLASHONLY|Rotation=0.000|XOffset=0mm|YOffset=0mm|HoleType=Round|Shape=RoundedRectangle|*
%AMROUNDEDRECTD85*
21,1,1.3000,0.5000,0,0,0.0*
21,1,0.8000,1.0000,0,0,0.0*
1,1,0.5000,0.4000,-0.2500*
1,1,0.5000,-0.4000,-0.2500*
1,1,0.5000,-0.4000,0.2500*
1,1,0.5000,0.4000,0.2500*
%
%ADD85ROUNDEDRECTD85*%
G04:AMPARAMS|DCode=86|XSize=2.35mm|YSize=1.15mm|CornerRadius=0.3852mm|HoleSize=0mm|Usage=FLASHONLY|Rotation=0.000|XOffset=0mm|YOffset=0mm|HoleType=Round|Shape=RoundedRectangle|*
%AMROUNDEDRECTD86*
21,1,2.3500,0.3795,0,0,0.0*
21,1,1.5795,1.1500,0,0,0.0*
1,1,0.7705,0.7897,-0.1898*
1,1,0.7705,-0.7897,-0.1898*
1,1,0.7705,-0.7897,0.1898*
1,1,0.7705,0.7897,0.1898*
%
%ADD86ROUNDEDRECTD86*%
G04:AMPARAMS|DCode=87|XSize=1mm|YSize=1.2mm|CornerRadius=0.165mm|HoleSize=0mm|Usage=FLASHONLY|Rotation=180.000|XOffset=0mm|YOffset=0mm|HoleType=Round|Shape=RoundedRectangle|*
%AMROUNDEDRECTD87*
21,1,1.0000,0.8700,0,0,180.0*
21,1,0.6700,1.2000,0,0,180.0*
1,1,0.3300,-0.3350,0.4350*
1,1,0.3300,0.3350,0.4350*
1,1,0.3300,0.3350,-0.4350*
1,1,0.3300,-0.3350,-0.4350*
%
%ADD87ROUNDEDRECTD87*%
G04:AMPARAMS|DCode=88|XSize=1.6mm|YSize=1.3mm|CornerRadius=0.2015mm|HoleSize=0mm|Usage=FLASHONLY|Rotation=90.000|XOffset=0mm|YOffset=0mm|HoleType=Round|Shape=RoundedRectangle|*
%AMROUNDEDRECTD88*
21,1,1.6000,0.8970,0,0,90.0*
21,1,1.1970,1.3000,0,0,90.0*
1,1,0.4030,0.4485,0.5985*
1,1,0.4030,0.4485,-0.5985*
1,1,0.4030,-0.4485,-0.5985*
1,1,0.4030,-0.4485,0.5985*
%
%ADD88ROUNDEDRECTD88*%
G04:AMPARAMS|DCode=89|XSize=0.7mm|YSize=2.5mm|CornerRadius=0.175mm|HoleSize=0mm|Usage=FLASHONLY|Rotation=180.000|XOffset=0mm|YOffset=0mm|HoleType=Round|Shape=RoundedRectangle|*
%AMROUNDEDRECTD89*
21,1,0.7000,2.1500,0,0,180.0*
21,1,0.3500,2.5000,0,0,180.0*
1,1,0.3500,-0.1750,1.0750*
1,1,0.3500,0.1750,1.0750*
1,1,0.3500,0.1750,-1.0750*
1,1,0.3500,-0.1750,-1.0750*
%
%ADD89ROUNDEDRECTD89*%
G04:AMPARAMS|DCode=90|XSize=1.45mm|YSize=1.15mm|CornerRadius=0.2013mm|HoleSize=0mm|Usage=FLASHONLY|Rotation=90.000|XOffset=0mm|YOffset=0mm|HoleType=Round|Shape=RoundedRectangle|*
%AMROUNDEDRECTD90*
21,1,1.4500,0.7475,0,0,90.0*
21,1,1.0475,1.1500,0,0,90.0*
1,1,0.4025,0.3738,0.5238*
1,1,0.4025,0.3738,-0.5238*
1,1,0.4025,-0.3738,-0.5238*
1,1,0.4025,-0.3738,0.5238*
%
%ADD90ROUNDEDRECTD90*%
G04:AMPARAMS|DCode=91|XSize=1.2mm|YSize=1.2mm|CornerRadius=0.198mm|HoleSize=0mm|Usage=FLASHONLY|Rotation=0.000|XOffset=0mm|YOffset=0mm|HoleType=Round|Shape=RoundedRectangle|*
%AMROUNDEDRECTD91*
21,1,1.2000,0.8040,0,0,0.0*
21,1,0.8040,1.2000,0,0,0.0*
1,1,0.3960,0.4020,-0.4020*
1,1,0.3960,-0.4020,-0.4020*
1,1,0.3960,-0.4020,0.4020*
1,1,0.3960,0.4020,0.4020*
%
%ADD91ROUNDEDRECTD91*%
%ADD92C,5.0000*%
%ADD93C,0.2540*%
%ADD94C,0.1500*%
%ADD95C,0.1000*%
%ADD96C,0.0500*%
%ADD97C,0.0100*%
%ADD98C,0.0750*%
G36*
X381289Y186884D02*
X381644Y186028D01*
X381289Y185173D01*
X380434Y184818D01*
X379578Y185173D01*
X379223Y186028D01*
X379578Y186884D01*
X380434Y187238D01*
X381289Y186884D01*
D02*
G37*
G36*
X462784Y221389D02*
X463138Y220533D01*
X462784Y219678D01*
X461928Y219323D01*
X461073Y219678D01*
X460718Y220533D01*
X461073Y221389D01*
X461928Y221743D01*
X462784Y221389D01*
D02*
G37*
G36*
X60519Y165144D02*
X61180Y164702D01*
X61622Y164040D01*
X61778Y163260D01*
X61622Y162479D01*
X61180Y161818D01*
X60519Y161376D01*
X59738Y161221D01*
X58958Y161376D01*
X58296Y161818D01*
X57854Y162479D01*
X57699Y163260D01*
X57854Y164040D01*
X58296Y164702D01*
X58958Y165144D01*
X59738Y165299D01*
X60519Y165144D01*
D02*
G37*
G36*
X165916Y44156D02*
X166518Y43754D01*
X166921Y43152D01*
X167062Y42442D01*
X166921Y41732D01*
X166518Y41130D01*
X165916Y40728D01*
X165206Y40586D01*
X164496Y40728D01*
X163894Y41130D01*
X163492Y41732D01*
X163351Y42442D01*
X163492Y43152D01*
X163894Y43754D01*
X164496Y44156D01*
X165206Y44298D01*
X165916Y44156D01*
D02*
G37*
G36*
X374456Y98156D02*
X374810Y97300D01*
X374456Y96444D01*
X373600Y96090D01*
X372744Y96444D01*
X372390Y97300D01*
X372744Y98156D01*
X373600Y98510D01*
X374456Y98156D01*
D02*
G37*
G36*
X231504Y260272D02*
X232106Y259870D01*
X232508Y259268D01*
X232649Y258558D01*
X232508Y257848D01*
X232106Y257246D01*
X231504Y256844D01*
X230794Y256702D01*
X230084Y256844D01*
X229482Y257246D01*
X229079Y257848D01*
X228938Y258558D01*
X229079Y259268D01*
X229482Y259870D01*
X230084Y260272D01*
X230794Y260414D01*
X231504Y260272D01*
D02*
G37*
G36*
X652948Y435148D02*
X653424Y434000D01*
X652948Y432852D01*
X651800Y432376D01*
X650652Y432852D01*
X650176Y434000D01*
X650652Y435148D01*
X651800Y435624D01*
X652948Y435148D01*
D02*
G37*
G36*
X83530Y459634D02*
X84192Y459192D01*
X84634Y458530D01*
X84789Y457750D01*
X84634Y456970D01*
X84192Y456308D01*
X83530Y455866D01*
X82750Y455711D01*
X81970Y455866D01*
X81308Y456308D01*
X80866Y456970D01*
X80711Y457750D01*
X80866Y458530D01*
X81308Y459192D01*
X81970Y459634D01*
X82750Y459789D01*
X83530Y459634D01*
D02*
G37*
G36*
X339148Y352898D02*
X339624Y351750D01*
X339148Y350602D01*
X338000Y350126D01*
X336852Y350602D01*
X336376Y351750D01*
X336852Y352898D01*
X338000Y353374D01*
X339148Y352898D01*
D02*
G37*
G36*
X62269Y268144D02*
X62930Y267702D01*
X63372Y267040D01*
X63528Y266260D01*
X63372Y265480D01*
X62930Y264818D01*
X62269Y264376D01*
X61488Y264221D01*
X60708Y264376D01*
X60047Y264818D01*
X59605Y265480D01*
X59449Y266260D01*
X59605Y267040D01*
X60047Y267702D01*
X60708Y268144D01*
X61488Y268299D01*
X62269Y268144D01*
D02*
G37*
G36*
X102250Y322250D02*
X95250D01*
Y424250D01*
X102250D01*
Y322250D01*
D02*
G37*
D51*
X765000Y474600D02*
Y525000D01*
Y474600D02*
Y500000D01*
X685000Y490000D02*
Y510000D01*
X640000Y535000D02*
X660000D01*
X640000Y465000D02*
X660000D01*
X615000Y490000D02*
Y510000D01*
X766750Y161850D02*
Y212250D01*
Y161850D02*
Y187250D01*
X686750Y177250D02*
Y197250D01*
X641750Y222250D02*
X661750D01*
X641750Y152250D02*
X661750D01*
X616750Y177250D02*
Y197250D01*
X766750Y111050D02*
Y161450D01*
Y111050D02*
Y136450D01*
X686750Y126450D02*
Y146450D01*
X641750Y171450D02*
X661750D01*
X641750Y101450D02*
X661750D01*
X616750Y126450D02*
Y146450D01*
D54*
X296731Y46250D02*
G03*
X296731Y46250I-1031J0D01*
G01*
X368000Y195750D02*
G03*
X368000Y195750I-1250J0D01*
G01*
X193750Y178000D02*
G03*
X193750Y178000I-1250J0D01*
G01*
D55*
X330457Y297500D02*
G03*
X330457Y297500I-707J0D01*
G01*
X135786Y312250D02*
G03*
X135786Y312250I-3535J0D01*
G01*
X396457Y332500D02*
G03*
X396457Y332500I-707J0D01*
G01*
X423707Y231200D02*
G03*
X423707Y231200I-707J0D01*
G01*
X158500Y132500D02*
G03*
X158500Y132500I-40000J0D01*
G01*
Y47750D02*
G03*
X158500Y47750I-40000J0D01*
G01*
X331250Y252000D02*
G03*
X331250Y252000I-40000J0D01*
G01*
X246000Y218000D02*
G03*
X246000Y218000I-40000J0D01*
G01*
X420250Y235750D02*
G03*
X420250Y235750I-40000J0D01*
G01*
X489250Y205500D02*
G03*
X489250Y205500I-50000J0D01*
G01*
X506900Y455800D02*
G03*
X506900Y455800I-26000J0D01*
G01*
X295407Y297500D02*
G03*
X295407Y297500I-707J0D01*
G01*
X436700Y425750D02*
G03*
X436700Y425750I-26000J0D01*
G01*
X621301Y411503D02*
X651299D01*
Y418497D01*
X621301D02*
X651299D01*
X621301Y411503D02*
Y418497D01*
X72000Y88750D02*
Y168750D01*
X4000Y88750D02*
X72000D01*
X4000D02*
Y168750D01*
X72000D01*
X494800Y462300D02*
Y487300D01*
Y462300D02*
X570800D01*
Y487300D01*
X494800D02*
X570800D01*
X315503Y382249D02*
X322497D01*
Y352251D02*
Y382249D01*
X315503Y352251D02*
X322497D01*
X315503D02*
Y382249D01*
X140250Y322250D02*
Y424250D01*
X95250D02*
X140250D01*
X95250Y322250D02*
Y424250D01*
Y322250D02*
X140250D01*
X303000Y403500D02*
Y453500D01*
Y403500D02*
X363000D01*
Y453500D01*
X303000D02*
X363000D01*
X220997Y13254D02*
Y15252D01*
X175000Y13250D02*
X220997Y13254D01*
X175000Y13250D02*
Y15250D01*
X175003Y40248D02*
Y42246D01*
X221000Y42250D01*
Y40250D02*
Y42250D01*
X91000Y35250D02*
Y60250D01*
X146000Y35250D02*
Y60250D01*
X175003Y285748D02*
Y287746D01*
X221000Y287750D01*
Y285750D02*
Y287750D01*
X220997Y258754D02*
Y260752D01*
X175000Y258750D02*
X220997Y258754D01*
X175000Y258750D02*
Y260750D01*
X353600Y98300D02*
Y185300D01*
X322600D02*
X353600D01*
X322600Y98300D02*
Y185300D01*
Y98300D02*
X353600D01*
X347250Y268750D02*
X368250D01*
X347250Y219250D02*
Y268750D01*
Y219250D02*
X363750Y202750D01*
X368250D01*
X392250Y268750D02*
X413250D01*
Y219250D02*
Y268750D01*
X396750Y202750D02*
X413250Y219250D01*
X392250Y202750D02*
X396750D01*
X173000Y251000D02*
X194000D01*
X173000Y201500D02*
Y251000D01*
Y201500D02*
X189500Y185000D01*
X194000D01*
X218000Y251000D02*
X239000D01*
Y201500D02*
Y251000D01*
X222500Y185000D02*
X239000Y201500D01*
X218000Y185000D02*
X222500D01*
X298750Y186000D02*
Y211000D01*
X247750D02*
X298750D01*
X247750Y186000D02*
Y211000D01*
Y186000D02*
X298750D01*
X1736Y174591D02*
Y289403D01*
Y174591D02*
X160452D01*
Y289403D01*
X1736D02*
X160452D01*
X5750Y271750D02*
X73750D01*
X5750Y191750D02*
Y271750D01*
Y191750D02*
X73750D01*
Y271750D01*
X439250Y155500D02*
Y255500D01*
Y174000D02*
Y187000D01*
X84750Y295750D02*
Y450750D01*
X4750Y295750D02*
X84750D01*
X4750D02*
Y450750D01*
X84750D01*
X365499Y391250D02*
X390499D01*
X365499Y340250D02*
Y391250D01*
Y340250D02*
X390499D01*
Y391250D01*
X482700Y187750D02*
X507700D01*
Y238750D01*
X482700D02*
X507700D01*
X482700Y187750D02*
Y238750D01*
X470000Y220000D02*
X567000D01*
Y119000D02*
Y220000D01*
X470000Y119000D02*
X567000D01*
X470000D02*
Y220000D01*
X387901Y183350D02*
X547901D01*
Y23350D02*
Y183350D01*
X387901Y23350D02*
X547901D01*
X387901D02*
Y183350D01*
X96250Y450750D02*
X288250D01*
Y296750D02*
Y450750D01*
X96250Y296750D02*
X288250D01*
X96250D02*
Y450750D01*
D93*
X469250Y190500D02*
G03*
X469250Y190500I-30000J0D01*
G01*
X268200Y250D02*
X368200D01*
D94*
X127250Y126500D02*
Y138500D01*
X154250Y126500D02*
Y138500D01*
X331250Y312000D02*
Y318000D01*
X359250D01*
Y312000D02*
Y318000D01*
X331250Y312000D02*
X359250D01*
X366250Y318000D02*
X394250D01*
X366250Y312000D02*
Y318000D01*
Y312000D02*
X394250D01*
Y318000D01*
X437500Y201700D02*
Y229700D01*
Y201700D02*
X443500D01*
Y229700D01*
X437500D02*
X443500D01*
X218500Y212000D02*
Y224000D01*
X245500Y212000D02*
Y224000D01*
X165700Y73401D02*
Y128901D01*
X216700Y87900D02*
Y128901D01*
X296200Y312000D02*
X324200D01*
Y318000D01*
X296200D02*
X324200D01*
X296200Y312000D02*
Y318000D01*
X185800Y149800D02*
X189800D01*
X185800Y163800D02*
X189800D01*
D95*
X241200Y23700D02*
X538200D01*
X241200D02*
Y195700D01*
X538200D01*
Y23700D02*
Y195700D01*
X470000Y169500D02*
X567000D01*
X375901Y11350D02*
X559901Y195350D01*
X375901D02*
X559901Y11350D01*
X269097Y155837D02*
X265098D01*
Y157836D01*
X265765Y158503D01*
X267098D01*
X267764Y157836D01*
Y155837D01*
Y157170D02*
X269097Y158503D01*
X268431Y159836D02*
X269097Y160502D01*
Y161835D01*
X268431Y162502D01*
X265765D01*
X265098Y161835D01*
Y160502D01*
X265765Y159836D01*
X266431D01*
X267098Y160502D01*
Y162502D01*
X254728Y173169D02*
X250729D01*
Y175168D01*
X251396Y175835D01*
X252729D01*
X253395Y175168D01*
Y173169D01*
Y174502D02*
X254728Y175835D01*
Y177168D02*
Y178501D01*
Y177834D01*
X250729D01*
X251396Y177168D01*
Y180500D02*
X250729Y181166D01*
Y182499D01*
X251396Y183166D01*
X254062D01*
X254728Y182499D01*
Y181166D01*
X254062Y180500D01*
X251396D01*
X72545Y73824D02*
X73878D01*
X73212D01*
Y77157D01*
X73878Y77823D01*
X74545D01*
X75211Y77157D01*
X68547Y73824D02*
X71212D01*
Y75824D01*
X69879Y75157D01*
X69213D01*
X68547Y75824D01*
Y77157D01*
X69213Y77823D01*
X70546D01*
X71212Y77157D01*
X320835Y298997D02*
X318169D01*
X317502Y298330D01*
Y296998D01*
X318169Y296331D01*
X320835D01*
X321501Y296998D01*
Y298330D01*
X320168Y297664D02*
X321501Y298997D01*
Y298330D02*
X320835Y298997D01*
X321501Y302995D02*
Y300330D01*
X318835Y302995D01*
X318169D01*
X317502Y302329D01*
Y300996D01*
X318169Y300330D01*
X455503Y516563D02*
X459502D01*
Y514564D01*
X458835Y513897D01*
X457502D01*
X456836Y514564D01*
Y516563D01*
Y515230D02*
X455503Y513897D01*
Y512564D02*
Y511231D01*
Y511898D01*
X459502D01*
X458835Y512564D01*
X459502Y506566D02*
X458835Y507899D01*
X457502Y509232D01*
X456169D01*
X455503Y508566D01*
Y507233D01*
X456169Y506566D01*
X456836D01*
X457502Y507233D01*
Y509232D01*
X85237Y439321D02*
Y441987D01*
X84570Y442654D01*
X83237D01*
X82571Y441987D01*
Y439321D01*
X83237Y438655D01*
X84570D01*
X83904Y439988D02*
X85237Y438655D01*
X84570D02*
X85237Y439321D01*
X86570Y441987D02*
X87236Y442654D01*
X88569D01*
X89235Y441987D01*
Y441321D01*
X88569Y440654D01*
X87903D01*
X88569D01*
X89235Y439988D01*
Y439321D01*
X88569Y438655D01*
X87236D01*
X86570Y439321D01*
X625064Y515441D02*
Y516774D01*
Y516108D01*
X621731D01*
X621065Y516774D01*
Y517440D01*
X621731Y518107D01*
X621065Y514108D02*
Y512775D01*
Y513442D01*
X625064D01*
X624397Y514108D01*
X625064Y508110D02*
X624397Y509443D01*
X623064Y510776D01*
X621731D01*
X621065Y510110D01*
Y508777D01*
X621731Y508110D01*
X622398D01*
X623064Y508777D01*
Y510776D01*
X617741Y96036D02*
X616408D01*
X617075D01*
Y92704D01*
X616408Y92037D01*
X615742D01*
X615075Y92704D01*
X619074Y95369D02*
X619740Y96036D01*
X621073D01*
X621740Y95369D01*
Y94703D01*
X621073Y94036D01*
X621740Y93370D01*
Y92704D01*
X621073Y92037D01*
X619740D01*
X619074Y92704D01*
Y93370D01*
X619740Y94036D01*
X619074Y94703D01*
Y95369D01*
X619740Y94036D02*
X621073D01*
X82259Y3964D02*
X83592D01*
X82926D01*
Y7297D01*
X83592Y7963D01*
X84259D01*
X84925Y7297D01*
X80926D02*
X80260Y7963D01*
X78927D01*
X78260Y7297D01*
Y4631D01*
X78927Y3964D01*
X80260D01*
X80926Y4631D01*
Y5297D01*
X80260Y5964D01*
X78260D01*
X17741Y546036D02*
X16408D01*
X17074D01*
Y542703D01*
X16408Y542037D01*
X15741D01*
X15075Y542703D01*
X19074Y542037D02*
X20407D01*
X19740D01*
Y546036D01*
X19074Y545369D01*
X22406D02*
X23072Y546036D01*
X24405D01*
X25072Y545369D01*
Y542703D01*
X24405Y542037D01*
X23072D01*
X22406Y542703D01*
Y545369D01*
X612027Y545085D02*
Y547751D01*
X613360Y549084D01*
X614693Y547751D01*
Y545085D01*
Y547084D01*
X612027D01*
X618025Y545085D02*
Y549084D01*
X616026Y547084D01*
X618691D01*
X424261Y477645D02*
Y480311D01*
X425594Y481644D01*
X426927Y480311D01*
Y477645D01*
Y479644D01*
X424261D01*
X428260Y480977D02*
X428926Y481644D01*
X430259D01*
X430925Y480977D01*
Y480311D01*
X430259Y479644D01*
X429593D01*
X430259D01*
X430925Y478978D01*
Y478312D01*
X430259Y477645D01*
X428926D01*
X428260Y478312D01*
X85391Y305878D02*
X86724D01*
X86058D01*
Y309210D01*
X86724Y309877D01*
X87391D01*
X88057Y309210D01*
X81392Y309877D02*
X84058D01*
X81392Y307211D01*
Y306545D01*
X82059Y305878D01*
X83392D01*
X84058Y306545D01*
X80060D02*
X79393Y305878D01*
X78060D01*
X77394Y306545D01*
Y309210D01*
X78060Y309877D01*
X79393D01*
X80060Y309210D01*
Y306545D01*
X367752Y407081D02*
X371751D01*
Y409080D01*
X371085Y409747D01*
X368419D01*
X367752Y409080D01*
Y407081D01*
X371751Y413745D02*
Y411080D01*
X369085Y413745D01*
X368419D01*
X367752Y413079D01*
Y411746D01*
X368419Y411080D01*
X373554Y393237D02*
Y391904D01*
Y392570D01*
X376886D01*
X377553Y391904D01*
Y391237D01*
X376886Y390571D01*
X374221Y394570D02*
X373554Y395236D01*
Y396569D01*
X374221Y397235D01*
X374887D01*
X375554Y396569D01*
Y395903D01*
Y396569D01*
X376220Y397235D01*
X376886D01*
X377553Y396569D01*
Y395236D01*
X376886Y394570D01*
X440259Y523172D02*
X438926D01*
X439592D01*
Y519839D01*
X438926Y519173D01*
X438259D01*
X437593Y519839D01*
X444258Y519173D02*
X441592D01*
X444258Y521839D01*
Y522505D01*
X443591Y523172D01*
X442258D01*
X441592Y522505D01*
X339193Y339502D02*
Y342835D01*
X338527Y343501D01*
X337194D01*
X336527Y342835D01*
Y339502D01*
X332528D02*
X333861Y340169D01*
X335194Y341502D01*
Y342835D01*
X334528Y343501D01*
X333195D01*
X332528Y342835D01*
Y342168D01*
X333195Y341502D01*
X335194D01*
X80648Y18357D02*
X83981D01*
X84647Y19024D01*
Y20357D01*
X83981Y21023D01*
X80648D01*
Y22356D02*
Y25022D01*
X81315D01*
X83981Y22356D01*
X84647D01*
X372432Y433701D02*
Y435034D01*
Y434368D01*
X369099D01*
X368433Y435034D01*
Y435701D01*
X369099Y436367D01*
X372432Y432368D02*
Y429702D01*
X371765D01*
X369099Y432368D01*
X368433D01*
X314951Y388185D02*
X314284Y387518D01*
Y386185D01*
X314951Y385519D01*
X317617D01*
X318283Y386185D01*
Y387518D01*
X317617Y388185D01*
X314284Y392183D02*
Y389518D01*
X316284D01*
X315617Y390851D01*
Y391517D01*
X316284Y392183D01*
X317617D01*
X318283Y391517D01*
Y390184D01*
X317617Y389518D01*
X144815Y107451D02*
X145482Y106784D01*
X146815D01*
X147481Y107451D01*
Y110117D01*
X146815Y110783D01*
X145482D01*
X144815Y110117D01*
X140816Y110783D02*
X143482D01*
X140816Y108117D01*
Y107451D01*
X141483Y106784D01*
X142816D01*
X143482Y107451D01*
X139484D02*
X138817Y106784D01*
X137484D01*
X136818Y107451D01*
Y110117D01*
X137484Y110783D01*
X138817D01*
X139484Y110117D01*
Y107451D01*
X316107Y32768D02*
Y31435D01*
Y32101D01*
X319440D01*
X320106Y31435D01*
Y30768D01*
X319440Y30102D01*
X320106Y34101D02*
Y35434D01*
Y34767D01*
X316107D01*
X316774Y34101D01*
Y37433D02*
X316107Y38099D01*
Y39432D01*
X316774Y40099D01*
X317440D01*
X318107Y39432D01*
Y38766D01*
Y39432D01*
X318773Y40099D01*
X319440D01*
X320106Y39432D01*
Y38099D01*
X319440Y37433D01*
X319949Y17584D02*
Y18917D01*
Y18250D01*
X316616D01*
X315950Y18917D01*
Y19583D01*
X316616Y20250D01*
X315950Y16251D02*
Y14918D01*
Y15585D01*
X319949D01*
X319282Y16251D01*
X315950Y10253D02*
Y12919D01*
X318616Y10253D01*
X319282D01*
X319949Y10919D01*
Y12252D01*
X319282Y12919D01*
X404665Y331003D02*
X407331D01*
X407998Y331670D01*
Y333003D01*
X407331Y333669D01*
X404665D01*
X403999Y333003D01*
Y331670D01*
X405332Y332336D02*
X403999Y331003D01*
Y331670D02*
X404665Y331003D01*
X403999Y327671D02*
X407998D01*
X405998Y329670D01*
Y327005D01*
X345769Y382209D02*
Y386208D01*
X347768D01*
X348435Y385541D01*
Y384208D01*
X347768Y383542D01*
X345769D01*
X347102D02*
X348435Y382209D01*
X349768D02*
X351101D01*
X350434D01*
Y386208D01*
X349768Y385541D01*
X355099Y382209D02*
Y386208D01*
X353100Y384208D01*
X355766D01*
X412544Y293298D02*
X413877D01*
X413210D01*
Y296630D01*
X413877Y297297D01*
X414543D01*
X415210Y296630D01*
X411211Y297297D02*
X409878D01*
X410545D01*
Y293298D01*
X411211Y293965D01*
X407879Y297297D02*
X406546D01*
X407212D01*
Y293298D01*
X407879Y293965D01*
X424497Y240115D02*
Y242781D01*
X423830Y243448D01*
X422497D01*
X421831Y242781D01*
Y240115D01*
X422497Y239449D01*
X423830D01*
X423164Y240782D02*
X424497Y239449D01*
X423830D02*
X424497Y240115D01*
X425830Y239449D02*
X427163D01*
X426496D01*
Y243448D01*
X425830Y242781D01*
X333799Y346315D02*
X334466Y346982D01*
Y348315D01*
X333799Y348981D01*
X331133D01*
X330467Y348315D01*
Y346982D01*
X331133Y346315D01*
X334466Y342317D02*
X333799Y343649D01*
X332466Y344982D01*
X331133D01*
X330467Y344316D01*
Y342983D01*
X331133Y342317D01*
X331800D01*
X332466Y342983D01*
Y344982D01*
X267561Y160947D02*
X268228Y160280D01*
X269561D01*
X270227Y160947D01*
Y163613D01*
X269561Y164279D01*
X268228D01*
X267561Y163613D01*
X263563Y164279D02*
X266228D01*
X263563Y161613D01*
Y160947D01*
X264229Y160280D01*
X265562D01*
X266228Y160947D01*
X262230D02*
X261563Y160280D01*
X260230D01*
X259564Y160947D01*
Y161613D01*
X260230Y162280D01*
X260897D01*
X260230D01*
X259564Y162946D01*
Y163613D01*
X260230Y164279D01*
X261563D01*
X262230Y163613D01*
X262753Y98861D02*
X263420Y99528D01*
Y100861D01*
X262753Y101527D01*
X260087D01*
X259421Y100861D01*
Y99528D01*
X260087Y98861D01*
X259421Y94862D02*
Y97528D01*
X262087Y94862D01*
X262753D01*
X263420Y95529D01*
Y96862D01*
X262753Y97528D01*
X263420Y90864D02*
X262753Y92197D01*
X261420Y93530D01*
X260087D01*
X259421Y92863D01*
Y91530D01*
X260087Y90864D01*
X260754D01*
X261420Y91530D01*
Y93530D01*
X278549Y285177D02*
X277882Y285844D01*
X276549D01*
X275883Y285177D01*
Y282511D01*
X276549Y281845D01*
X277882D01*
X278549Y282511D01*
X282547Y281845D02*
X279882D01*
X282547Y284511D01*
Y285177D01*
X281881Y285844D01*
X280548D01*
X279882Y285177D01*
X283880Y281845D02*
X285213D01*
X284547D01*
Y285844D01*
X283880Y285177D01*
X193299Y251177D02*
X192632Y251844D01*
X191299D01*
X190633Y251177D01*
Y248511D01*
X191299Y247845D01*
X192632D01*
X193299Y248511D01*
X197297Y247845D02*
X194632D01*
X197297Y250511D01*
Y251177D01*
X196631Y251844D01*
X195298D01*
X194632Y251177D01*
X201296Y251844D02*
X198630D01*
Y249844D01*
X199963Y250511D01*
X200630D01*
X201296Y249844D01*
Y248511D01*
X200630Y247845D01*
X199297D01*
X198630Y248511D01*
X152218Y256613D02*
X156217D01*
Y258612D01*
X155551Y259279D01*
X152885D01*
X152218Y258612D01*
Y256613D01*
X156217Y262611D02*
X152218D01*
X154218Y260612D01*
Y263277D01*
X243782Y44387D02*
X239783D01*
Y42388D01*
X240450Y41721D01*
X243115D01*
X243782Y42388D01*
Y44387D01*
Y37722D02*
Y40388D01*
X241782D01*
X242449Y39055D01*
Y38389D01*
X241782Y37722D01*
X240450D01*
X239783Y38389D01*
Y39722D01*
X240450Y40388D01*
X73226Y13587D02*
X77225D01*
Y16253D01*
Y20252D02*
Y17586D01*
X74559Y20252D01*
X73893D01*
X73226Y19585D01*
Y18252D01*
X73893Y17586D01*
X432767Y473321D02*
X433434Y473988D01*
Y475321D01*
X432767Y475987D01*
X430102D01*
X429435Y475321D01*
Y473988D01*
X430102Y473321D01*
X429435Y469323D02*
Y471988D01*
X432101Y469323D01*
X432767D01*
X433434Y469989D01*
Y471322D01*
X432767Y471988D01*
X433434Y467990D02*
Y465324D01*
X432767D01*
X430102Y467990D01*
X429435D01*
X63733Y80429D02*
X63066Y79762D01*
Y78429D01*
X63733Y77763D01*
X66399D01*
X67065Y78429D01*
Y79762D01*
X66399Y80429D01*
X67065Y84427D02*
Y81762D01*
X64399Y84427D01*
X63733D01*
X63066Y83761D01*
Y82428D01*
X63733Y81762D01*
X67065Y88426D02*
Y85760D01*
X64399Y88426D01*
X63733D01*
X63066Y87760D01*
Y86427D01*
X63733Y85760D01*
X63066Y-6987D02*
X67065D01*
Y-4321D01*
X63733Y-2988D02*
X63066Y-2322D01*
Y-989D01*
X63733Y-322D01*
X64399D01*
X65066Y-989D01*
Y-1655D01*
Y-989D01*
X65732Y-322D01*
X66399D01*
X67065Y-989D01*
Y-2322D01*
X66399Y-2988D01*
X404581Y294243D02*
X405248Y294910D01*
Y296243D01*
X404581Y296909D01*
X401916D01*
X401249Y296243D01*
Y294910D01*
X401916Y294243D01*
X401249Y292910D02*
Y291577D01*
Y292244D01*
X405248D01*
X404581Y292910D01*
Y289578D02*
X405248Y288912D01*
Y287579D01*
X404581Y286912D01*
X403915D01*
X403248Y287579D01*
Y288245D01*
Y287579D01*
X402582Y286912D01*
X401916D01*
X401249Y287579D01*
Y288912D01*
X401916Y289578D01*
X452043Y122119D02*
X452710Y121452D01*
X454043D01*
X454709Y122119D01*
Y124785D01*
X454043Y125451D01*
X452710D01*
X452043Y124785D01*
X450710Y125451D02*
X449377D01*
X450044D01*
Y121452D01*
X450710Y122119D01*
X447378Y124785D02*
X446712Y125451D01*
X445379D01*
X444712Y124785D01*
Y122119D01*
X445379Y121452D01*
X446712D01*
X447378Y122119D01*
Y122785D01*
X446712Y123452D01*
X444712D01*
X702681Y340943D02*
X703348Y341610D01*
Y342943D01*
X702681Y343609D01*
X700015D01*
X699349Y342943D01*
Y341610D01*
X700015Y340943D01*
X699349Y339610D02*
Y338277D01*
Y338944D01*
X703348D01*
X702681Y339610D01*
X699349Y336278D02*
Y334945D01*
Y335612D01*
X703348D01*
X702681Y336278D01*
X701665Y237411D02*
X702332Y238078D01*
Y239410D01*
X701665Y240077D01*
X698999D01*
X698333Y239410D01*
Y238078D01*
X698999Y237411D01*
X698333Y236078D02*
Y234745D01*
Y235412D01*
X702332D01*
X701665Y236078D01*
X698333Y230080D02*
Y232746D01*
X700999Y230080D01*
X701665D01*
X702332Y230747D01*
Y232080D01*
X701665Y232746D01*
X399843Y-5281D02*
X400510Y-5948D01*
X401843D01*
X402509Y-5281D01*
Y-2615D01*
X401843Y-1949D01*
X400510D01*
X399843Y-2615D01*
X398510Y-1949D02*
X397177D01*
X397844D01*
Y-5948D01*
X398510Y-5281D01*
X395178D02*
X394512Y-5948D01*
X393179D01*
X392512Y-5281D01*
Y-4615D01*
X393179Y-3948D01*
X392512Y-3282D01*
Y-2615D01*
X393179Y-1949D01*
X394512D01*
X395178Y-2615D01*
Y-3282D01*
X394512Y-3948D01*
X395178Y-4615D01*
Y-5281D01*
X394512Y-3948D02*
X393179D01*
X615757Y394681D02*
X615090Y395348D01*
X613757D01*
X613091Y394681D01*
Y392015D01*
X613757Y391349D01*
X615090D01*
X615757Y392015D01*
X617090Y394681D02*
X617756Y395348D01*
X619089D01*
X619756Y394681D01*
Y394015D01*
X619089Y393348D01*
X618423D01*
X619089D01*
X619756Y392682D01*
Y392015D01*
X619089Y391349D01*
X617756D01*
X617090Y392015D01*
X334689Y217288D02*
X333356D01*
X334022D01*
Y213955D01*
X333356Y213289D01*
X332690D01*
X332023Y213955D01*
X336022Y213289D02*
X337355D01*
X336688D01*
Y217288D01*
X336022Y216621D01*
X339354Y213955D02*
X340020Y213289D01*
X341353D01*
X342020Y213955D01*
Y216621D01*
X341353Y217288D01*
X340020D01*
X339354Y216621D01*
Y215955D01*
X340020Y215288D01*
X342020D01*
X647902Y270263D02*
X643903D01*
Y267597D01*
Y266264D02*
Y264931D01*
Y265598D01*
X647902D01*
X647235Y266264D01*
X324337Y351803D02*
Y355802D01*
X326336D01*
X327003Y355135D01*
Y353802D01*
X326336Y353136D01*
X324337D01*
X325670D02*
X327003Y351803D01*
X328336Y355135D02*
X329002Y355802D01*
X330335D01*
X331002Y355135D01*
Y354469D01*
X330335Y353802D01*
X331002Y353136D01*
Y352469D01*
X330335Y351803D01*
X329002D01*
X328336Y352469D01*
Y353136D01*
X329002Y353802D01*
X328336Y354469D01*
Y355135D01*
X329002Y353802D02*
X330335D01*
X334237Y173589D02*
Y177588D01*
X336236D01*
X336903Y176922D01*
Y175589D01*
X336236Y174922D01*
X334237D01*
X335570D02*
X336903Y173589D01*
X338236D02*
X339569D01*
X338902D01*
Y177588D01*
X338236Y176922D01*
X341568Y177588D02*
X344234D01*
Y176922D01*
X341568Y174256D01*
Y173589D01*
X339397Y139337D02*
X335398D01*
Y141336D01*
X336065Y142003D01*
X337398D01*
X338064Y141336D01*
Y139337D01*
Y140670D02*
X339397Y142003D01*
Y143336D02*
Y144669D01*
Y144002D01*
X335398D01*
X336065Y143336D01*
Y146668D02*
X335398Y147334D01*
Y148667D01*
X336065Y149334D01*
X336731D01*
X337398Y148667D01*
X338064Y149334D01*
X338731D01*
X339397Y148667D01*
Y147334D01*
X338731Y146668D01*
X338064D01*
X337398Y147334D01*
X336731Y146668D01*
X336065D01*
X337398Y147334D02*
Y148667D01*
X671103Y415063D02*
X675102D01*
Y413064D01*
X674435Y412397D01*
X673102D01*
X672436Y413064D01*
Y415063D01*
Y413730D02*
X671103Y412397D01*
X675102Y411064D02*
Y408399D01*
X674435D01*
X671769Y411064D01*
X671103D01*
X664048Y435193D02*
X660715D01*
X660049Y434527D01*
Y433194D01*
X660715Y432527D01*
X664048D01*
X660049Y429195D02*
X664048D01*
X662048Y431194D01*
Y428529D01*
X588158Y221951D02*
X584826D01*
X584159Y221285D01*
Y219952D01*
X584826Y219286D01*
X588158D01*
X584159Y217953D02*
Y216620D01*
Y217286D01*
X588158D01*
X587492Y217953D01*
X376334Y206028D02*
Y202696D01*
X377000Y202029D01*
X378333D01*
X378999Y202696D01*
Y206028D01*
X380332Y205362D02*
X380999Y206028D01*
X382332D01*
X382998Y205362D01*
Y204695D01*
X382332Y204029D01*
X381665D01*
X382332D01*
X382998Y203362D01*
Y202696D01*
X382332Y202029D01*
X380999D01*
X380332Y202696D01*
X374803Y85096D02*
Y88429D01*
X374137Y89095D01*
X372804D01*
X372137Y88429D01*
Y85096D01*
X368139Y89095D02*
X370804D01*
X368139Y86429D01*
Y85763D01*
X368805Y85096D01*
X370138D01*
X370804Y85763D01*
X290543Y127219D02*
X291210Y126552D01*
X292542D01*
X293209Y127219D01*
Y129885D01*
X292542Y130551D01*
X291210D01*
X290543Y129885D01*
X287211Y130551D02*
Y126552D01*
X289210Y128552D01*
X286544D01*
X366543Y76019D02*
X367210Y75352D01*
X368543D01*
X369209Y76019D01*
Y78685D01*
X368543Y79351D01*
X367210D01*
X366543Y78685D01*
X365210Y79351D02*
X363877D01*
X364544D01*
Y75352D01*
X365210Y76019D01*
X301437Y344272D02*
Y340273D01*
X303436D01*
X304103Y340939D01*
Y343605D01*
X303436Y344272D01*
X301437D01*
X305436Y343605D02*
X306102Y344272D01*
X307435D01*
X308102Y343605D01*
Y342939D01*
X307435Y342272D01*
X306769D01*
X307435D01*
X308102Y341606D01*
Y340939D01*
X307435Y340273D01*
X306102D01*
X305436Y340939D01*
X350663Y329197D02*
Y325198D01*
X348664D01*
X347997Y325865D01*
Y327198D01*
X348664Y327864D01*
X350663D01*
X349330D02*
X347997Y329197D01*
X344665D02*
Y325198D01*
X346664Y327198D01*
X343998D01*
X170439Y275053D02*
X169772Y275720D01*
X168439D01*
X167773Y275053D01*
Y272387D01*
X168439Y271721D01*
X169772D01*
X170439Y272387D01*
X174438Y271721D02*
X171772D01*
X174438Y274387D01*
Y275053D01*
X173771Y275720D01*
X172438D01*
X171772Y275053D01*
X177770Y271721D02*
Y275720D01*
X175770Y273720D01*
X178436D01*
X325483Y183679D02*
X324816Y183012D01*
Y181679D01*
X325483Y181013D01*
X328148D01*
X328815Y181679D01*
Y183012D01*
X328148Y183679D01*
X328815Y187677D02*
Y185012D01*
X326149Y187677D01*
X325483D01*
X324816Y187011D01*
Y185678D01*
X325483Y185012D01*
Y189010D02*
X324816Y189677D01*
Y191010D01*
X325483Y191676D01*
X326149D01*
X326816Y191010D01*
X327482Y191676D01*
X328148D01*
X328815Y191010D01*
Y189677D01*
X328148Y189010D01*
X327482D01*
X326816Y189677D01*
X326149Y189010D01*
X325483D01*
X326816Y189677D02*
Y191010D01*
X344689Y292803D02*
X344022Y293470D01*
X342689D01*
X342023Y292803D01*
Y290137D01*
X342689Y289471D01*
X344022D01*
X344689Y290137D01*
X348688Y289471D02*
X346022D01*
X348688Y292137D01*
Y292803D01*
X348021Y293470D01*
X346688D01*
X346022Y292803D01*
X350020Y290137D02*
X350687Y289471D01*
X352020D01*
X352686Y290137D01*
Y292803D01*
X352020Y293470D01*
X350687D01*
X350020Y292803D01*
Y292137D01*
X350687Y291470D01*
X352686D01*
X548774Y192449D02*
Y193782D01*
Y193116D01*
X545442D01*
X544775Y193782D01*
Y194449D01*
X545442Y195115D01*
X544775Y189117D02*
X548774D01*
X546774Y191116D01*
Y188451D01*
X486495Y144464D02*
X487828D01*
X487162D01*
Y147797D01*
X487828Y148463D01*
X488495D01*
X489161Y147797D01*
X485162Y148463D02*
X483829D01*
X484496D01*
Y144464D01*
X485162Y145131D01*
X479164Y144464D02*
X481830D01*
Y146464D01*
X480497Y145797D01*
X479831D01*
X479164Y146464D01*
Y147797D01*
X479831Y148463D01*
X481164D01*
X481830Y147797D01*
X171470Y287474D02*
Y288807D01*
Y288141D01*
X168137D01*
X167471Y288807D01*
Y289473D01*
X168137Y290140D01*
X167471Y283475D02*
Y286141D01*
X170137Y283475D01*
X170803D01*
X171470Y284142D01*
Y285475D01*
X170803Y286141D01*
X167471Y282143D02*
Y280810D01*
Y281476D01*
X171470D01*
X170803Y282143D01*
X74295Y176824D02*
X75628D01*
X74962D01*
Y180157D01*
X75628Y180823D01*
X76295D01*
X76961Y180157D01*
X70297Y180823D02*
X72962D01*
X70297Y178157D01*
Y177491D01*
X70963Y176824D01*
X72296D01*
X72962Y177491D01*
X66298Y180823D02*
X68964D01*
X66298Y178157D01*
Y177491D01*
X66964Y176824D01*
X68297D01*
X68964Y177491D01*
X233818Y185799D02*
Y184466D01*
Y185132D01*
X237151D01*
X237817Y184466D01*
Y183799D01*
X237151Y183133D01*
X237817Y189797D02*
Y187132D01*
X235151Y189797D01*
X234485D01*
X233818Y189131D01*
Y187798D01*
X234485Y187132D01*
Y191130D02*
X233818Y191797D01*
Y193130D01*
X234485Y193796D01*
X235151D01*
X235818Y193130D01*
Y192463D01*
Y193130D01*
X236484Y193796D01*
X237151D01*
X237817Y193130D01*
Y191797D01*
X237151Y191130D01*
X247981Y252291D02*
Y248292D01*
X245982D01*
X245315Y248959D01*
Y250292D01*
X245982Y250958D01*
X247981D01*
X246648D02*
X245315Y252291D01*
X241317D02*
X243982D01*
X241317Y249625D01*
Y248959D01*
X241983Y248292D01*
X243316D01*
X243982Y248959D01*
X239984D02*
X239317Y248292D01*
X237984D01*
X237318Y248959D01*
Y251625D01*
X237984Y252291D01*
X239317D01*
X239984Y251625D01*
Y248959D01*
X232931Y106192D02*
Y102193D01*
X230932D01*
X230265Y102859D01*
Y104192D01*
X230932Y104859D01*
X232931D01*
X231598D02*
X230265Y106192D01*
X226266D02*
X228932D01*
X226266Y103526D01*
Y102859D01*
X226933Y102193D01*
X228266D01*
X228932Y102859D01*
X222268Y106192D02*
X224934D01*
X222268Y103526D01*
Y102859D01*
X222934Y102193D01*
X224267D01*
X224934Y102859D01*
X288291Y385769D02*
X284292D01*
Y387768D01*
X284959Y388435D01*
X286292D01*
X286958Y387768D01*
Y385769D01*
Y387102D02*
X288291Y388435D01*
Y392434D02*
Y389768D01*
X285625Y392434D01*
X284959D01*
X284292Y391767D01*
Y390434D01*
X284959Y389768D01*
Y393766D02*
X284292Y394433D01*
Y395766D01*
X284959Y396432D01*
X285625D01*
X286292Y395766D01*
Y395099D01*
Y395766D01*
X286958Y396432D01*
X287624D01*
X288291Y395766D01*
Y394433D01*
X287624Y393766D01*
X232931Y68192D02*
Y64193D01*
X230932D01*
X230265Y64859D01*
Y66192D01*
X230932Y66859D01*
X232931D01*
X231598D02*
X230265Y68192D01*
X226266D02*
X228932D01*
X226266Y65526D01*
Y64859D01*
X226933Y64193D01*
X228266D01*
X228932Y64859D01*
X222934Y68192D02*
Y64193D01*
X224934Y66192D01*
X222268D01*
X387552Y243325D02*
X390884D01*
X391551Y243991D01*
Y245324D01*
X390884Y245991D01*
X387552D01*
Y249989D02*
Y247323D01*
X389552D01*
X388885Y248656D01*
Y249323D01*
X389552Y249989D01*
X390884D01*
X391551Y249323D01*
Y247990D01*
X390884Y247323D01*
X482499Y252682D02*
X481166D01*
X481832D01*
Y249349D01*
X481166Y248683D01*
X480499D01*
X479833Y249349D01*
X483831Y248683D02*
X485164D01*
X484498D01*
Y252682D01*
X483831Y252015D01*
X303564Y454403D02*
X299565D01*
X300898D01*
X303564Y451737D01*
X301564Y453736D01*
X299565Y451737D01*
Y450404D02*
Y449071D01*
Y449738D01*
X303564D01*
X302897Y450404D01*
X370809Y294231D02*
X374808D01*
Y292232D01*
X374141Y291565D01*
X372808D01*
X372142Y292232D01*
Y294231D01*
Y292898D02*
X370809Y291565D01*
Y287567D02*
Y290232D01*
X373475Y287567D01*
X374141D01*
X374808Y288233D01*
Y289566D01*
X374141Y290232D01*
X386809Y294231D02*
X390808D01*
Y292232D01*
X390141Y291565D01*
X388808D01*
X388142Y292232D01*
Y294231D01*
Y292898D02*
X386809Y291565D01*
X390808Y287567D02*
Y290232D01*
X388808D01*
X389475Y288899D01*
Y288233D01*
X388808Y287567D01*
X387476D01*
X386809Y288233D01*
Y289566D01*
X387476Y290232D01*
X211549Y166071D02*
X215548D01*
Y164072D01*
X214881Y163405D01*
X213548D01*
X212882Y164072D01*
Y166071D01*
Y164738D02*
X211549Y163405D01*
Y159406D02*
Y162072D01*
X214215Y159406D01*
X214881D01*
X215548Y160073D01*
Y161406D01*
X214881Y162072D01*
X211549Y158074D02*
Y156741D01*
Y157407D01*
X215548D01*
X214881Y158074D01*
X694989Y195667D02*
Y193001D01*
X693656Y191668D01*
X692323Y193001D01*
Y195667D01*
Y193667D01*
X694989D01*
X690990Y192334D02*
X690324Y191668D01*
X688991D01*
X688325Y192334D01*
Y193001D01*
X688991Y193667D01*
X688325Y194334D01*
Y195000D01*
X688991Y195667D01*
X690324D01*
X690990Y195000D01*
Y194334D01*
X690324Y193667D01*
X690990Y193001D01*
Y192334D01*
X690324Y193667D02*
X688991D01*
X473741Y544623D02*
X476407D01*
X477740Y543290D01*
X476407Y541957D01*
X473741D01*
X475740D01*
Y544623D01*
X477740Y537958D02*
Y540624D01*
X475740D01*
X476407Y539291D01*
Y538625D01*
X475740Y537958D01*
X474407D01*
X473741Y538625D01*
Y539958D01*
X474407Y540624D01*
X775321Y225223D02*
X777987D01*
X779320Y223890D01*
X777987Y222558D01*
X775321D01*
X777321D01*
Y225223D01*
X779320Y221225D02*
Y218559D01*
X778653D01*
X775988Y221225D01*
X775321D01*
X601987Y267803D02*
Y271802D01*
X603986D01*
X604653Y271135D01*
Y269802D01*
X603986Y269136D01*
X601987D01*
X603320D02*
X604653Y267803D01*
X605986D02*
X607319D01*
X606652D01*
Y271802D01*
X605986Y271135D01*
X609318Y268469D02*
X609984Y267803D01*
X611317D01*
X611984Y268469D01*
Y271135D01*
X611317Y271802D01*
X609984D01*
X609318Y271135D01*
Y270469D01*
X609984Y269802D01*
X611984D01*
X775321Y174423D02*
X777987D01*
X779320Y173090D01*
X777987Y171758D01*
X775321D01*
X777321D01*
Y174423D01*
X775988Y170425D02*
X775321Y169758D01*
Y168425D01*
X775988Y167759D01*
X778653D01*
X779320Y168425D01*
Y169758D01*
X778653Y170425D01*
X777987D01*
X777321Y169758D01*
Y167759D01*
X619095Y155373D02*
X621761D01*
X623094Y154040D01*
X621761Y152708D01*
X619095D01*
X621095D01*
Y155373D01*
X619095Y151375D02*
Y150042D01*
Y150708D01*
X623094D01*
X622427Y151375D01*
Y148042D02*
X623094Y147376D01*
Y146043D01*
X622427Y145377D01*
X619762D01*
X619095Y146043D01*
Y147376D01*
X619762Y148042D01*
X622427D01*
X272569Y361709D02*
Y365708D01*
X274568D01*
X275235Y365041D01*
Y363708D01*
X274568Y363042D01*
X272569D01*
X273902D02*
X275235Y361709D01*
X276568D02*
X277901D01*
X277234D01*
Y365708D01*
X276568Y365041D01*
X279900Y361709D02*
X281233D01*
X280566D01*
Y365708D01*
X279900Y365041D01*
X271031Y319291D02*
Y315292D01*
X269032D01*
X268365Y315959D01*
Y317292D01*
X269032Y317958D01*
X271031D01*
X269698D02*
X268365Y319291D01*
X267032D02*
X265699D01*
X266366D01*
Y315292D01*
X267032Y315959D01*
X263700D02*
X263034Y315292D01*
X261701D01*
X261034Y315959D01*
Y316625D01*
X261701Y317292D01*
X262367D01*
X261701D01*
X261034Y317958D01*
Y318625D01*
X261701Y319291D01*
X263034D01*
X263700Y318625D01*
D96*
X625800Y263600D02*
Y367100D01*
X695800D01*
Y337100D02*
Y367100D01*
X635800Y337100D02*
X695800D01*
X635800Y263600D02*
Y337100D01*
X625800Y263600D02*
X635800D01*
X625800Y232100D02*
Y252000D01*
X635800D01*
Y232100D02*
Y252000D01*
Y232100D02*
X695800D01*
X625800Y253500D02*
Y259500D01*
Y253500D02*
X680400D01*
Y259500D01*
X625800D02*
X680400D01*
X682400Y253500D02*
X685100D01*
X682400D02*
Y259500D01*
X685100D01*
Y253500D02*
Y259500D01*
X677600Y265500D02*
X683300D01*
X677600Y261000D02*
Y265500D01*
Y261000D02*
X683300D01*
X693300D02*
Y333100D01*
X683300Y265500D02*
Y333100D01*
X677600Y247500D02*
X683300D01*
Y235100D02*
Y247500D01*
Y235100D02*
X693300D01*
Y252000D01*
X677600D02*
X693300D01*
X625800Y202100D02*
Y232100D01*
Y202100D02*
X695800D01*
Y232100D01*
X677600Y247500D02*
X683300D01*
X677600D02*
Y252000D01*
X683300Y333100D02*
X693300D01*
X683300Y261000D02*
X693300D01*
D97*
X410700Y255400D02*
X597700D01*
Y415400D01*
X410700D02*
X597700D01*
X410700Y255400D02*
Y415400D01*
Y257400D02*
X412700Y255400D01*
X410700Y258400D02*
X413700Y255400D01*
X410700Y256400D02*
X411700Y255400D01*
D98*
X116036Y80750D02*
X122464D01*
X119250Y77536D02*
Y83964D01*
X116036Y-4000D02*
X122464D01*
X119250Y-7214D02*
Y-786D01*
X288786Y200250D02*
X295214D01*
X292000Y197036D02*
Y203464D01*
X203536Y166250D02*
X209964D01*
X206750Y163036D02*
Y169464D01*
X377786Y184000D02*
X384214D01*
X381000Y180786D02*
Y187214D01*
X479686Y425728D02*
X478972Y425371D01*
X478258Y424657D01*
X477901Y423943D01*
Y422514D01*
X478258Y421800D01*
X478972Y421086D01*
X479686Y420729D01*
X480757Y420372D01*
X482543D01*
X483614Y420729D01*
X484328Y421086D01*
X485042Y421800D01*
X485399Y422514D01*
Y423943D01*
X485042Y424657D01*
X484328Y425371D01*
X483614Y425728D01*
X409486Y395678D02*
X408772Y395321D01*
X408058Y394607D01*
X407701Y393893D01*
Y392464D01*
X408058Y391750D01*
X408772Y391036D01*
X409486Y390679D01*
X410557Y390322D01*
X412342D01*
X413414Y390679D01*
X414128Y391036D01*
X414842Y391750D01*
X415199Y392464D01*
Y393893D01*
X414842Y394607D01*
X414128Y395321D01*
X413414Y395678D01*
M02*
