%FSLAX44Y44*%
%MOMM*%
G71*
G01*
G75*
G04 Layer_Physical_Order=1*
G04 Layer_Color=191*
G04:AMPARAMS|DCode=10|XSize=0.67mm|YSize=0.67mm|CornerRadius=0.1508mm|HoleSize=0mm|Usage=FLASHONLY|Rotation=90.000|XOffset=0mm|YOffset=0mm|HoleType=Round|Shape=RoundedRectangle|*
%AMROUNDEDRECTD10*
21,1,0.6700,0.3685,0,0,90.0*
21,1,0.3685,0.6700,0,0,90.0*
1,1,0.3015,0.1843,0.1843*
1,1,0.3015,0.1843,-0.1843*
1,1,0.3015,-0.1843,-0.1843*
1,1,0.3015,-0.1843,0.1843*
%
%ADD10ROUNDEDRECTD10*%
G04:AMPARAMS|DCode=11|XSize=0.67mm|YSize=0.67mm|CornerRadius=0.1508mm|HoleSize=0mm|Usage=FLASHONLY|Rotation=180.000|XOffset=0mm|YOffset=0mm|HoleType=Round|Shape=RoundedRectangle|*
%AMROUNDEDRECTD11*
21,1,0.6700,0.3685,0,0,180.0*
21,1,0.3685,0.6700,0,0,180.0*
1,1,0.3015,-0.1843,0.1843*
1,1,0.3015,0.1843,0.1843*
1,1,0.3015,0.1843,-0.1843*
1,1,0.3015,-0.1843,-0.1843*
%
%ADD11ROUNDEDRECTD11*%
G04:AMPARAMS|DCode=12|XSize=1.1mm|YSize=0.6mm|CornerRadius=0.201mm|HoleSize=0mm|Usage=FLASHONLY|Rotation=270.000|XOffset=0mm|YOffset=0mm|HoleType=Round|Shape=RoundedRectangle|*
%AMROUNDEDRECTD12*
21,1,1.1000,0.1980,0,0,270.0*
21,1,0.6980,0.6000,0,0,270.0*
1,1,0.4020,-0.0990,-0.3490*
1,1,0.4020,-0.0990,0.3490*
1,1,0.4020,0.0990,0.3490*
1,1,0.4020,0.0990,-0.3490*
%
%ADD12ROUNDEDRECTD12*%
G04:AMPARAMS|DCode=13|XSize=2.5mm|YSize=2mm|CornerRadius=0.25mm|HoleSize=0mm|Usage=FLASHONLY|Rotation=270.000|XOffset=0mm|YOffset=0mm|HoleType=Round|Shape=RoundedRectangle|*
%AMROUNDEDRECTD13*
21,1,2.5000,1.5000,0,0,270.0*
21,1,2.0000,2.0000,0,0,270.0*
1,1,0.5000,-0.7500,-1.0000*
1,1,0.5000,-0.7500,1.0000*
1,1,0.5000,0.7500,1.0000*
1,1,0.5000,0.7500,-1.0000*
%
%ADD13ROUNDEDRECTD13*%
G04:AMPARAMS|DCode=14|XSize=2.7mm|YSize=1.2mm|CornerRadius=0.21mm|HoleSize=0mm|Usage=FLASHONLY|Rotation=0.000|XOffset=0mm|YOffset=0mm|HoleType=Round|Shape=RoundedRectangle|*
%AMROUNDEDRECTD14*
21,1,2.7000,0.7800,0,0,0.0*
21,1,2.2800,1.2000,0,0,0.0*
1,1,0.4200,1.1400,-0.3900*
1,1,0.4200,-1.1400,-0.3900*
1,1,0.4200,-1.1400,0.3900*
1,1,0.4200,1.1400,0.3900*
%
%ADD14ROUNDEDRECTD14*%
G04:AMPARAMS|DCode=15|XSize=1.05mm|YSize=0.65mm|CornerRadius=0.2015mm|HoleSize=0mm|Usage=FLASHONLY|Rotation=90.000|XOffset=0mm|YOffset=0mm|HoleType=Round|Shape=RoundedRectangle|*
%AMROUNDEDRECTD15*
21,1,1.0500,0.2470,0,0,90.0*
21,1,0.6470,0.6500,0,0,90.0*
1,1,0.4030,0.1235,0.3235*
1,1,0.4030,0.1235,-0.3235*
1,1,0.4030,-0.1235,-0.3235*
1,1,0.4030,-0.1235,0.3235*
%
%ADD15ROUNDEDRECTD15*%
G04:AMPARAMS|DCode=16|XSize=2.5mm|YSize=2mm|CornerRadius=0.2mm|HoleSize=0mm|Usage=FLASHONLY|Rotation=90.000|XOffset=0mm|YOffset=0mm|HoleType=Round|Shape=RoundedRectangle|*
%AMROUNDEDRECTD16*
21,1,2.5000,1.6000,0,0,90.0*
21,1,2.1000,2.0000,0,0,90.0*
1,1,0.4000,0.8000,1.0500*
1,1,0.4000,0.8000,-1.0500*
1,1,0.4000,-0.8000,-1.0500*
1,1,0.4000,-0.8000,1.0500*
%
%ADD16ROUNDEDRECTD16*%
G04:AMPARAMS|DCode=17|XSize=2.3mm|YSize=0.5mm|CornerRadius=0.2mm|HoleSize=0mm|Usage=FLASHONLY|Rotation=90.000|XOffset=0mm|YOffset=0mm|HoleType=Round|Shape=RoundedRectangle|*
%AMROUNDEDRECTD17*
21,1,2.3000,0.1000,0,0,90.0*
21,1,1.9000,0.5000,0,0,90.0*
1,1,0.4000,0.0500,0.9500*
1,1,0.4000,0.0500,-0.9500*
1,1,0.4000,-0.0500,-0.9500*
1,1,0.4000,-0.0500,0.9500*
%
%ADD17ROUNDEDRECTD17*%
G04:AMPARAMS|DCode=18|XSize=1.1mm|YSize=0.6mm|CornerRadius=0.201mm|HoleSize=0mm|Usage=FLASHONLY|Rotation=180.000|XOffset=0mm|YOffset=0mm|HoleType=Round|Shape=RoundedRectangle|*
%AMROUNDEDRECTD18*
21,1,1.1000,0.1980,0,0,180.0*
21,1,0.6980,0.6000,0,0,180.0*
1,1,0.4020,-0.3490,0.0990*
1,1,0.4020,0.3490,0.0990*
1,1,0.4020,0.3490,-0.0990*
1,1,0.4020,-0.3490,-0.0990*
%
%ADD18ROUNDEDRECTD18*%
G04:AMPARAMS|DCode=19|XSize=1mm|YSize=0.95mm|CornerRadius=0.1995mm|HoleSize=0mm|Usage=FLASHONLY|Rotation=270.000|XOffset=0mm|YOffset=0mm|HoleType=Round|Shape=RoundedRectangle|*
%AMROUNDEDRECTD19*
21,1,1.0000,0.5510,0,0,270.0*
21,1,0.6010,0.9500,0,0,270.0*
1,1,0.3990,-0.2755,-0.3005*
1,1,0.3990,-0.2755,0.3005*
1,1,0.3990,0.2755,0.3005*
1,1,0.3990,0.2755,-0.3005*
%
%ADD19ROUNDEDRECTD19*%
%ADD20R,0.4000X1.4000*%
G04:AMPARAMS|DCode=21|XSize=1.8mm|YSize=1.9mm|CornerRadius=0.45mm|HoleSize=0mm|Usage=FLASHONLY|Rotation=0.000|XOffset=0mm|YOffset=0mm|HoleType=Round|Shape=RoundedRectangle|*
%AMROUNDEDRECTD21*
21,1,1.8000,1.0000,0,0,0.0*
21,1,0.9000,1.9000,0,0,0.0*
1,1,0.9000,0.4500,-0.5000*
1,1,0.9000,-0.4500,-0.5000*
1,1,0.9000,-0.4500,0.5000*
1,1,0.9000,0.4500,0.5000*
%
%ADD21ROUNDEDRECTD21*%
G04:AMPARAMS|DCode=22|XSize=0.7mm|YSize=1mm|CornerRadius=0.175mm|HoleSize=0mm|Usage=FLASHONLY|Rotation=180.000|XOffset=0mm|YOffset=0mm|HoleType=Round|Shape=RoundedRectangle|*
%AMROUNDEDRECTD22*
21,1,0.7000,0.6500,0,0,180.0*
21,1,0.3500,1.0000,0,0,180.0*
1,1,0.3500,-0.1750,0.3250*
1,1,0.3500,0.1750,0.3250*
1,1,0.3500,0.1750,-0.3250*
1,1,0.3500,-0.1750,-0.3250*
%
%ADD22ROUNDEDRECTD22*%
G04:AMPARAMS|DCode=23|XSize=0.8mm|YSize=2mm|CornerRadius=0.2mm|HoleSize=0mm|Usage=FLASHONLY|Rotation=180.000|XOffset=0mm|YOffset=0mm|HoleType=Round|Shape=RoundedRectangle|*
%AMROUNDEDRECTD23*
21,1,0.8000,1.6000,0,0,180.0*
21,1,0.4000,2.0000,0,0,180.0*
1,1,0.4000,-0.2000,0.8000*
1,1,0.4000,0.2000,0.8000*
1,1,0.4000,0.2000,-0.8000*
1,1,0.4000,-0.2000,-0.8000*
%
%ADD23ROUNDEDRECTD23*%
G04:AMPARAMS|DCode=24|XSize=1mm|YSize=0.9mm|CornerRadius=0.198mm|HoleSize=0mm|Usage=FLASHONLY|Rotation=180.000|XOffset=0mm|YOffset=0mm|HoleType=Round|Shape=RoundedRectangle|*
%AMROUNDEDRECTD24*
21,1,1.0000,0.5040,0,0,180.0*
21,1,0.6040,0.9000,0,0,180.0*
1,1,0.3960,-0.3020,0.2520*
1,1,0.3960,0.3020,0.2520*
1,1,0.3960,0.3020,-0.2520*
1,1,0.3960,-0.3020,-0.2520*
%
%ADD24ROUNDEDRECTD24*%
G04:AMPARAMS|DCode=25|XSize=1.05mm|YSize=0.65mm|CornerRadius=0.2015mm|HoleSize=0mm|Usage=FLASHONLY|Rotation=0.000|XOffset=0mm|YOffset=0mm|HoleType=Round|Shape=RoundedRectangle|*
%AMROUNDEDRECTD25*
21,1,1.0500,0.2470,0,0,0.0*
21,1,0.6470,0.6500,0,0,0.0*
1,1,0.4030,0.3235,-0.1235*
1,1,0.4030,-0.3235,-0.1235*
1,1,0.4030,-0.3235,0.1235*
1,1,0.4030,0.3235,0.1235*
%
%ADD25ROUNDEDRECTD25*%
G04:AMPARAMS|DCode=26|XSize=2.5mm|YSize=1.7mm|CornerRadius=0.204mm|HoleSize=0mm|Usage=FLASHONLY|Rotation=0.000|XOffset=0mm|YOffset=0mm|HoleType=Round|Shape=RoundedRectangle|*
%AMROUNDEDRECTD26*
21,1,2.5000,1.2920,0,0,0.0*
21,1,2.0920,1.7000,0,0,0.0*
1,1,0.4080,1.0460,-0.6460*
1,1,0.4080,-1.0460,-0.6460*
1,1,0.4080,-1.0460,0.6460*
1,1,0.4080,1.0460,0.6460*
%
%ADD26ROUNDEDRECTD26*%
G04:AMPARAMS|DCode=27|XSize=5.2mm|YSize=2mm|CornerRadius=0.25mm|HoleSize=0mm|Usage=FLASHONLY|Rotation=180.000|XOffset=0mm|YOffset=0mm|HoleType=Round|Shape=RoundedRectangle|*
%AMROUNDEDRECTD27*
21,1,5.2000,1.5000,0,0,180.0*
21,1,4.7000,2.0000,0,0,180.0*
1,1,0.5000,-2.3500,0.7500*
1,1,0.5000,2.3500,0.7500*
1,1,0.5000,2.3500,-0.7500*
1,1,0.5000,-2.3500,-0.7500*
%
%ADD27ROUNDEDRECTD27*%
G04:AMPARAMS|DCode=28|XSize=0.65mm|YSize=0.35mm|CornerRadius=0.0735mm|HoleSize=0mm|Usage=FLASHONLY|Rotation=0.000|XOffset=0mm|YOffset=0mm|HoleType=Round|Shape=RoundedRectangle|*
%AMROUNDEDRECTD28*
21,1,0.6500,0.2030,0,0,0.0*
21,1,0.5030,0.3500,0,0,0.0*
1,1,0.1470,0.2515,-0.1015*
1,1,0.1470,-0.2515,-0.1015*
1,1,0.1470,-0.2515,0.1015*
1,1,0.1470,0.2515,0.1015*
%
%ADD28ROUNDEDRECTD28*%
G04:AMPARAMS|DCode=29|XSize=0.62mm|YSize=0.62mm|CornerRadius=0.1488mm|HoleSize=0mm|Usage=FLASHONLY|Rotation=0.000|XOffset=0mm|YOffset=0mm|HoleType=Round|Shape=RoundedRectangle|*
%AMROUNDEDRECTD29*
21,1,0.6200,0.3224,0,0,0.0*
21,1,0.3224,0.6200,0,0,0.0*
1,1,0.2976,0.1612,-0.1612*
1,1,0.2976,-0.1612,-0.1612*
1,1,0.2976,-0.1612,0.1612*
1,1,0.2976,0.1612,0.1612*
%
%ADD29ROUNDEDRECTD29*%
G04:AMPARAMS|DCode=30|XSize=0.3mm|YSize=0.25mm|CornerRadius=0.0525mm|HoleSize=0mm|Usage=FLASHONLY|Rotation=0.000|XOffset=0mm|YOffset=0mm|HoleType=Round|Shape=RoundedRectangle|*
%AMROUNDEDRECTD30*
21,1,0.3000,0.1450,0,0,0.0*
21,1,0.1950,0.2500,0,0,0.0*
1,1,0.1050,0.0975,-0.0725*
1,1,0.1050,-0.0975,-0.0725*
1,1,0.1050,-0.0975,0.0725*
1,1,0.1050,0.0975,0.0725*
%
%ADD30ROUNDEDRECTD30*%
%ADD31O,1.5500X0.6000*%
G04:AMPARAMS|DCode=32|XSize=0.62mm|YSize=0.62mm|CornerRadius=0.1488mm|HoleSize=0mm|Usage=FLASHONLY|Rotation=270.000|XOffset=0mm|YOffset=0mm|HoleType=Round|Shape=RoundedRectangle|*
%AMROUNDEDRECTD32*
21,1,0.6200,0.3224,0,0,270.0*
21,1,0.3224,0.6200,0,0,270.0*
1,1,0.2976,-0.1612,-0.1612*
1,1,0.2976,-0.1612,0.1612*
1,1,0.2976,0.1612,0.1612*
1,1,0.2976,0.1612,-0.1612*
%
%ADD32ROUNDEDRECTD32*%
G04:AMPARAMS|DCode=33|XSize=1mm|YSize=0.95mm|CornerRadius=0.1995mm|HoleSize=0mm|Usage=FLASHONLY|Rotation=0.000|XOffset=0mm|YOffset=0mm|HoleType=Round|Shape=RoundedRectangle|*
%AMROUNDEDRECTD33*
21,1,1.0000,0.5510,0,0,0.0*
21,1,0.6010,0.9500,0,0,0.0*
1,1,0.3990,0.3005,-0.2755*
1,1,0.3990,-0.3005,-0.2755*
1,1,0.3990,-0.3005,0.2755*
1,1,0.3990,0.3005,0.2755*
%
%ADD33ROUNDEDRECTD33*%
%ADD34O,0.6000X1.5500*%
G04:AMPARAMS|DCode=35|XSize=3.3mm|YSize=1.65mm|CornerRadius=0.198mm|HoleSize=0mm|Usage=FLASHONLY|Rotation=90.000|XOffset=0mm|YOffset=0mm|HoleType=Round|Shape=RoundedRectangle|*
%AMROUNDEDRECTD35*
21,1,3.3000,1.2540,0,0,90.0*
21,1,2.9040,1.6500,0,0,90.0*
1,1,0.3960,0.6270,1.4520*
1,1,0.3960,0.6270,-1.4520*
1,1,0.3960,-0.6270,-1.4520*
1,1,0.3960,-0.6270,1.4520*
%
%ADD35ROUNDEDRECTD35*%
G04:AMPARAMS|DCode=36|XSize=1mm|YSize=0.9mm|CornerRadius=0.198mm|HoleSize=0mm|Usage=FLASHONLY|Rotation=270.000|XOffset=0mm|YOffset=0mm|HoleType=Round|Shape=RoundedRectangle|*
%AMROUNDEDRECTD36*
21,1,1.0000,0.5040,0,0,270.0*
21,1,0.6040,0.9000,0,0,270.0*
1,1,0.3960,-0.2520,-0.3020*
1,1,0.3960,-0.2520,0.3020*
1,1,0.3960,0.2520,0.3020*
1,1,0.3960,0.2520,-0.3020*
%
%ADD36ROUNDEDRECTD36*%
G04:AMPARAMS|DCode=37|XSize=1.2mm|YSize=2mm|CornerRadius=0.3mm|HoleSize=0mm|Usage=FLASHONLY|Rotation=90.000|XOffset=0mm|YOffset=0mm|HoleType=Round|Shape=RoundedRectangle|*
%AMROUNDEDRECTD37*
21,1,1.2000,1.4000,0,0,90.0*
21,1,0.6000,2.0000,0,0,90.0*
1,1,0.6000,0.7000,0.3000*
1,1,0.6000,0.7000,-0.3000*
1,1,0.6000,-0.7000,-0.3000*
1,1,0.6000,-0.7000,0.3000*
%
%ADD37ROUNDEDRECTD37*%
G04:AMPARAMS|DCode=38|XSize=1.2mm|YSize=1.2mm|CornerRadius=0.198mm|HoleSize=0mm|Usage=FLASHONLY|Rotation=90.000|XOffset=0mm|YOffset=0mm|HoleType=Round|Shape=RoundedRectangle|*
%AMROUNDEDRECTD38*
21,1,1.2000,0.8040,0,0,90.0*
21,1,0.8040,1.2000,0,0,90.0*
1,1,0.3960,0.4020,0.4020*
1,1,0.3960,0.4020,-0.4020*
1,1,0.3960,-0.4020,-0.4020*
1,1,0.3960,-0.4020,0.4020*
%
%ADD38ROUNDEDRECTD38*%
G04:AMPARAMS|DCode=39|XSize=1.45mm|YSize=0.95mm|CornerRadius=0.1995mm|HoleSize=0mm|Usage=FLASHONLY|Rotation=90.000|XOffset=0mm|YOffset=0mm|HoleType=Round|Shape=RoundedRectangle|*
%AMROUNDEDRECTD39*
21,1,1.4500,0.5510,0,0,90.0*
21,1,1.0510,0.9500,0,0,90.0*
1,1,0.3990,0.2755,0.5255*
1,1,0.3990,0.2755,-0.5255*
1,1,0.3990,-0.2755,-0.5255*
1,1,0.3990,-0.2755,0.5255*
%
%ADD39ROUNDEDRECTD39*%
G04:AMPARAMS|DCode=40|XSize=0.3mm|YSize=0.65mm|CornerRadius=0.0495mm|HoleSize=0mm|Usage=FLASHONLY|Rotation=90.000|XOffset=0mm|YOffset=0mm|HoleType=Round|Shape=RoundedRectangle|*
%AMROUNDEDRECTD40*
21,1,0.3000,0.5510,0,0,90.0*
21,1,0.2010,0.6500,0,0,90.0*
1,1,0.0990,0.2755,0.1005*
1,1,0.0990,0.2755,-0.1005*
1,1,0.0990,-0.2755,-0.1005*
1,1,0.0990,-0.2755,0.1005*
%
%ADD40ROUNDEDRECTD40*%
G04:AMPARAMS|DCode=41|XSize=0.5mm|YSize=0.21mm|CornerRadius=0.0347mm|HoleSize=0mm|Usage=FLASHONLY|Rotation=90.000|XOffset=0mm|YOffset=0mm|HoleType=Round|Shape=RoundedRectangle|*
%AMROUNDEDRECTD41*
21,1,0.5000,0.1407,0,0,90.0*
21,1,0.4307,0.2100,0,0,90.0*
1,1,0.0693,0.0704,0.2154*
1,1,0.0693,0.0704,-0.2154*
1,1,0.0693,-0.0704,-0.2154*
1,1,0.0693,-0.0704,0.2154*
%
%ADD41ROUNDEDRECTD41*%
G04:AMPARAMS|DCode=42|XSize=0.7mm|YSize=1.5mm|CornerRadius=0.175mm|HoleSize=0mm|Usage=FLASHONLY|Rotation=0.000|XOffset=0mm|YOffset=0mm|HoleType=Round|Shape=RoundedRectangle|*
%AMROUNDEDRECTD42*
21,1,0.7000,1.1500,0,0,0.0*
21,1,0.3500,1.5000,0,0,0.0*
1,1,0.3500,0.1750,-0.5750*
1,1,0.3500,-0.1750,-0.5750*
1,1,0.3500,-0.1750,0.5750*
1,1,0.3500,0.1750,0.5750*
%
%ADD42ROUNDEDRECTD42*%
%ADD43O,2.5000X0.5000*%
%ADD44O,0.5000X2.5000*%
%ADD45O,1.8000X0.8000*%
%ADD46O,2.5000X1.0000*%
G04:AMPARAMS|DCode=47|XSize=0.8mm|YSize=2mm|CornerRadius=0.2mm|HoleSize=0mm|Usage=FLASHONLY|Rotation=270.000|XOffset=0mm|YOffset=0mm|HoleType=Round|Shape=RoundedRectangle|*
%AMROUNDEDRECTD47*
21,1,0.8000,1.6000,0,0,270.0*
21,1,0.4000,2.0000,0,0,270.0*
1,1,0.4000,-0.8000,-0.2000*
1,1,0.4000,-0.8000,0.2000*
1,1,0.4000,0.8000,0.2000*
1,1,0.4000,0.8000,-0.2000*
%
%ADD47ROUNDEDRECTD47*%
G04:AMPARAMS|DCode=48|XSize=0.7mm|YSize=1mm|CornerRadius=0.175mm|HoleSize=0mm|Usage=FLASHONLY|Rotation=90.000|XOffset=0mm|YOffset=0mm|HoleType=Round|Shape=RoundedRectangle|*
%AMROUNDEDRECTD48*
21,1,0.7000,0.6500,0,0,90.0*
21,1,0.3500,1.0000,0,0,90.0*
1,1,0.3500,0.3250,0.1750*
1,1,0.3500,0.3250,-0.1750*
1,1,0.3500,-0.3250,-0.1750*
1,1,0.3500,-0.3250,0.1750*
%
%ADD48ROUNDEDRECTD48*%
%ADD49O,0.7000X2.5000*%
%ADD50O,2.5000X0.7000*%
%ADD51C,0.5000*%
%ADD52C,0.4000*%
%ADD53C,0.7000*%
%ADD54C,0.2500*%
%ADD55C,0.2000*%
%ADD56C,0.3000*%
%ADD57C,1.0000*%
%ADD58C,0.6000*%
%ADD59C,0.8000*%
%ADD60C,0.9000*%
%ADD61C,1.8000*%
G04:AMPARAMS|DCode=62|XSize=1.3mm|YSize=1.3mm|CornerRadius=0.1625mm|HoleSize=0mm|Usage=FLASHONLY|Rotation=0.000|XOffset=0mm|YOffset=0mm|HoleType=Round|Shape=RoundedRectangle|*
%AMROUNDEDRECTD62*
21,1,1.3000,0.9750,0,0,0.0*
21,1,0.9750,1.3000,0,0,0.0*
1,1,0.3250,0.4875,-0.4875*
1,1,0.3250,-0.4875,-0.4875*
1,1,0.3250,-0.4875,0.4875*
1,1,0.3250,0.4875,0.4875*
%
%ADD62ROUNDEDRECTD62*%
%ADD63C,1.3000*%
%ADD64C,7.0000*%
%ADD65C,0.1000*%
%ADD66C,0.5000*%
G04:AMPARAMS|DCode=67|XSize=2mm|YSize=2mm|CornerRadius=0.25mm|HoleSize=0mm|Usage=FLASHONLY|Rotation=90.000|XOffset=0mm|YOffset=0mm|HoleType=Round|Shape=RoundedRectangle|*
%AMROUNDEDRECTD67*
21,1,2.0000,1.5000,0,0,90.0*
21,1,1.5000,2.0000,0,0,90.0*
1,1,0.5000,0.7500,0.7500*
1,1,0.5000,0.7500,-0.7500*
1,1,0.5000,-0.7500,-0.7500*
1,1,0.5000,-0.7500,0.7500*
%
%ADD67ROUNDEDRECTD67*%
%ADD68C,2.0000*%
%ADD69C,2.5000*%
G04:AMPARAMS|DCode=70|XSize=1.85mm|YSize=1.85mm|CornerRadius=0.2313mm|HoleSize=0mm|Usage=FLASHONLY|Rotation=0.000|XOffset=0mm|YOffset=0mm|HoleType=Round|Shape=RoundedRectangle|*
%AMROUNDEDRECTD70*
21,1,1.8500,1.3875,0,0,0.0*
21,1,1.3875,1.8500,0,0,0.0*
1,1,0.4625,0.6937,-0.6937*
1,1,0.4625,-0.6937,-0.6937*
1,1,0.4625,-0.6937,0.6937*
1,1,0.4625,0.6937,0.6937*
%
%ADD70ROUNDEDRECTD70*%
%ADD71C,1.8500*%
%ADD72C,1.6000*%
%ADD73R,1.6000X1.6000*%
G04:AMPARAMS|DCode=74|XSize=1.3mm|YSize=1.3mm|CornerRadius=0.325mm|HoleSize=0mm|Usage=FLASHONLY|Rotation=90.000|XOffset=0mm|YOffset=0mm|HoleType=Round|Shape=RoundedRectangle|*
%AMROUNDEDRECTD74*
21,1,1.3000,0.6500,0,0,90.0*
21,1,0.6500,1.3000,0,0,90.0*
1,1,0.6500,0.3250,0.3250*
1,1,0.6500,0.3250,-0.3250*
1,1,0.6500,-0.3250,-0.3250*
1,1,0.6500,-0.3250,0.3250*
%
%ADD74ROUNDEDRECTD74*%
%ADD75R,2.5000X5.0000*%
%ADD76R,5.0000X2.5000*%
G04:AMPARAMS|DCode=77|XSize=1mm|YSize=1mm|CornerRadius=0.25mm|HoleSize=0mm|Usage=FLASHONLY|Rotation=0.000|XOffset=0mm|YOffset=0mm|HoleType=Round|Shape=RoundedRectangle|*
%AMROUNDEDRECTD77*
21,1,1.0000,0.5000,0,0,0.0*
21,1,0.5000,1.0000,0,0,0.0*
1,1,0.5000,0.2500,-0.2500*
1,1,0.5000,-0.2500,-0.2500*
1,1,0.5000,-0.2500,0.2500*
1,1,0.5000,0.2500,0.2500*
%
%ADD77ROUNDEDRECTD77*%
%ADD78C,2.2000*%
G04:AMPARAMS|DCode=79|XSize=1.6mm|YSize=1.6mm|CornerRadius=0.2mm|HoleSize=0mm|Usage=FLASHONLY|Rotation=90.000|XOffset=0mm|YOffset=0mm|HoleType=Round|Shape=RoundedRectangle|*
%AMROUNDEDRECTD79*
21,1,1.6000,1.2000,0,0,90.0*
21,1,1.2000,1.6000,0,0,90.0*
1,1,0.4000,0.6000,0.6000*
1,1,0.4000,0.6000,-0.6000*
1,1,0.4000,-0.6000,-0.6000*
1,1,0.4000,-0.6000,0.6000*
%
%ADD79ROUNDEDRECTD79*%
G04:AMPARAMS|DCode=80|XSize=1.4mm|YSize=1.4mm|CornerRadius=0.175mm|HoleSize=0mm|Usage=FLASHONLY|Rotation=90.000|XOffset=0mm|YOffset=0mm|HoleType=Round|Shape=RoundedRectangle|*
%AMROUNDEDRECTD80*
21,1,1.4000,1.0500,0,0,90.0*
21,1,1.0500,1.4000,0,0,90.0*
1,1,0.3500,0.5250,0.5250*
1,1,0.3500,0.5250,-0.5250*
1,1,0.3500,-0.5250,-0.5250*
1,1,0.3500,-0.5250,0.5250*
%
%ADD80ROUNDEDRECTD80*%
%ADD81C,1.0000*%
%ADD82C,0.6000*%
G36*
X366425Y346368D02*
X368549Y343600D01*
X371316Y341476D01*
X371443Y341424D01*
Y335601D01*
X370782Y334848D01*
X369515D01*
X367558Y334459D01*
X365899Y333351D01*
X364791Y331692D01*
X364402Y329735D01*
Y329000D01*
X370750D01*
Y326500D01*
X373250D01*
Y318403D01*
X373524Y318458D01*
X373832Y318383D01*
X374586Y317903D01*
X374863Y317629D01*
X375017Y316453D01*
X375289Y315798D01*
X375672Y314872D01*
X376587Y313680D01*
X376613Y313266D01*
X376599Y313145D01*
X376286Y312146D01*
X375141Y311381D01*
X372999Y312268D01*
X370650Y312578D01*
X368301Y312268D01*
X366111Y311362D01*
X364231Y309919D01*
X362789Y308039D01*
X362337Y306949D01*
X361025Y307101D01*
X360709Y308692D01*
X359601Y310351D01*
X357942Y311459D01*
X357250Y311597D01*
Y303500D01*
X352250D01*
Y311597D01*
X351558Y311459D01*
X349899Y310351D01*
X348791Y308692D01*
X348484Y307150D01*
X347231Y306607D01*
X345802Y308036D01*
X345396Y308348D01*
X345293Y309771D01*
X345381Y309960D01*
X349886Y314464D01*
X350928Y315822D01*
X351311Y316748D01*
X351583Y317403D01*
X351806Y319100D01*
Y320402D01*
X352151Y320918D01*
X352618Y323265D01*
Y329735D01*
X352151Y332082D01*
X351755Y332674D01*
X352434Y333944D01*
X357000D01*
X358697Y334167D01*
X360278Y334822D01*
X361636Y335864D01*
X362678Y337222D01*
X363333Y338803D01*
X363556Y340500D01*
Y345400D01*
X363538Y345539D01*
X364375Y346494D01*
X366373D01*
X366425Y346368D01*
D02*
G37*
G36*
X222600Y470481D02*
X435737Y470481D01*
X436635Y469583D01*
Y448991D01*
X436587Y448750D01*
Y442250D01*
X436635Y442009D01*
Y430661D01*
X435365Y429802D01*
X434200Y429956D01*
X432503Y429733D01*
X430922Y429077D01*
X429564Y428036D01*
X428522Y426678D01*
X427867Y425097D01*
X427644Y423400D01*
Y416900D01*
X434200D01*
Y411900D01*
X427644D01*
Y405400D01*
X427867Y403703D01*
X428522Y402122D01*
X429564Y400764D01*
X430922Y399722D01*
X432503Y399067D01*
X434099Y398857D01*
X434510Y398720D01*
X435263Y397967D01*
X435122Y396900D01*
X435432Y394551D01*
X436339Y392361D01*
X437781Y390481D01*
X439661Y389039D01*
X441851Y388132D01*
X444200Y387822D01*
X446549Y388132D01*
X448739Y389039D01*
X450619Y390481D01*
X452062Y392361D01*
X452968Y394551D01*
X453278Y396900D01*
X453137Y397967D01*
X453889Y398719D01*
X454301Y398857D01*
X455897Y399067D01*
X456274Y399223D01*
X457544Y398375D01*
Y381940D01*
X456239Y380239D01*
X455332Y378050D01*
X455022Y375700D01*
X455332Y373350D01*
X456239Y371161D01*
X457681Y369281D01*
X459561Y367839D01*
X461750Y366932D01*
X462292Y366860D01*
X462793Y365513D01*
X461739Y364139D01*
X460832Y361950D01*
X460522Y359600D01*
X460832Y357251D01*
X461739Y355061D01*
X463181Y353181D01*
X463483Y352950D01*
Y315434D01*
X429418Y281369D01*
X428077Y281825D01*
X428007Y282358D01*
X427251Y284182D01*
X426317Y285400D01*
X427251Y286617D01*
X428007Y288442D01*
X428265Y290400D01*
X428007Y292358D01*
X427251Y294182D01*
X426317Y295400D01*
X427251Y296617D01*
X428007Y298442D01*
X428265Y300400D01*
X428007Y302358D01*
X427251Y304182D01*
X426317Y305400D01*
X427251Y306617D01*
X428007Y308442D01*
X428265Y310400D01*
X428007Y312358D01*
X427829Y312788D01*
X428534Y313844D01*
X437360D01*
X439061Y312539D01*
X441250Y311632D01*
X443600Y311322D01*
X445950Y311632D01*
X448139Y312539D01*
X450019Y313981D01*
X451461Y315861D01*
X452368Y318050D01*
X452678Y320400D01*
X452368Y322749D01*
X451461Y324939D01*
X450019Y326819D01*
X448139Y328261D01*
X445950Y329168D01*
X443600Y329478D01*
X441250Y329168D01*
X439061Y328261D01*
X437360Y326956D01*
X427683D01*
X427053Y327900D01*
X421195D01*
X420700Y327965D01*
X411700D01*
Y332900D01*
X426700D01*
X426378Y333678D01*
X425336Y335036D01*
Y335764D01*
X426378Y337122D01*
X426700Y337900D01*
X411700D01*
Y342835D01*
X420700D01*
X421195Y342900D01*
X426700D01*
X426378Y343678D01*
X425943Y344244D01*
X426049Y345051D01*
X427251Y346617D01*
X428007Y348442D01*
X428265Y350400D01*
X428007Y352358D01*
X427251Y354182D01*
X426317Y355400D01*
X427251Y356617D01*
X428007Y358442D01*
X428265Y360400D01*
X428007Y362358D01*
X427251Y364182D01*
X426049Y365749D01*
X425943Y366555D01*
X426378Y367122D01*
X426700Y367900D01*
X421195D01*
X420700Y367965D01*
X411700D01*
Y372900D01*
X426700D01*
X426378Y373678D01*
X425757Y374487D01*
X425456Y375400D01*
X425757Y376313D01*
X426378Y377122D01*
X426700Y377900D01*
X411700D01*
Y382835D01*
X420700D01*
X421195Y382900D01*
X426700D01*
X426378Y383678D01*
X425943Y384244D01*
X426049Y385051D01*
X427251Y386617D01*
X428007Y388442D01*
X428265Y390400D01*
X428007Y392358D01*
X427251Y394182D01*
X426049Y395749D01*
X424482Y396951D01*
X422658Y397707D01*
X420700Y397965D01*
X402700D01*
X401126Y397757D01*
X399856Y398550D01*
Y403736D01*
X401126Y404121D01*
X401304Y403854D01*
X403206Y402584D01*
X405450Y402137D01*
X415950D01*
X418193Y402584D01*
X420095Y403854D01*
X421366Y405756D01*
X421812Y408000D01*
Y418500D01*
X421366Y420743D01*
X420095Y422645D01*
X418193Y423916D01*
X415950Y424363D01*
X405450D01*
X403302Y423935D01*
X401853Y424903D01*
X399520Y425367D01*
X391480D01*
X389147Y424903D01*
X387169Y423581D01*
X385847Y421603D01*
X384971Y421827D01*
X384606Y422894D01*
X385710Y424546D01*
X386098Y426495D01*
Y429035D01*
X387368Y429421D01*
X387890Y428640D01*
X389537Y427539D01*
X391480Y427152D01*
X393000D01*
Y436250D01*
Y445348D01*
X391480D01*
X389537Y444961D01*
X387890Y443860D01*
X386789Y442213D01*
X386403Y440270D01*
Y435204D01*
X385132Y434819D01*
X384606Y435606D01*
X382954Y436710D01*
X381005Y437098D01*
X380500D01*
Y429250D01*
X378000D01*
Y426750D01*
X369902D01*
Y426495D01*
X370290Y424546D01*
X371394Y422894D01*
X371811Y422615D01*
X371811Y421088D01*
X370673Y420327D01*
X370325Y419806D01*
X367266D01*
X361436Y425636D01*
X360078Y426678D01*
X359152Y427061D01*
X359074Y427094D01*
Y427938D01*
X358584Y430401D01*
X357188Y432489D01*
X355101Y433884D01*
X352637Y434374D01*
X338763D01*
X336300Y433884D01*
X334211Y432489D01*
X332816Y430401D01*
X332326Y427938D01*
Y427295D01*
X331056Y427043D01*
X331000Y427178D01*
X329037Y429737D01*
X326478Y431700D01*
X323498Y432935D01*
X322800Y433027D01*
Y421000D01*
Y408490D01*
X323169Y407741D01*
X317045Y401617D01*
X314980D01*
X312647Y401153D01*
X310669Y399831D01*
X310135Y399033D01*
X308865D01*
X308331Y399831D01*
X306353Y401153D01*
X304020Y401617D01*
X298980D01*
X296647Y401153D01*
X294669Y399831D01*
X293347Y397853D01*
X292883Y395520D01*
Y389480D01*
X293347Y387147D01*
X294669Y385169D01*
X294944Y384985D01*
Y381250D01*
X295167Y379553D01*
X295439Y378898D01*
X295620Y377843D01*
X294785Y377310D01*
X293461Y376762D01*
X291581Y375319D01*
X290138Y373439D01*
X289232Y371250D01*
X288922Y368900D01*
X289232Y366550D01*
X290138Y364361D01*
X291581Y362481D01*
X291663Y361235D01*
X286109Y355681D01*
X284653Y356653D01*
X282320Y357117D01*
X276280D01*
X273947Y356653D01*
X271969Y355331D01*
X271631D01*
X269653Y356653D01*
X267320Y357117D01*
X261280D01*
X258947Y356653D01*
X256969Y355331D01*
X255647Y353353D01*
X255183Y351020D01*
Y345980D01*
X255647Y343647D01*
X256969Y341669D01*
X258475Y340662D01*
X258595Y339292D01*
X258562Y339193D01*
X257690Y338610D01*
X256589Y336963D01*
X256203Y335020D01*
Y335000D01*
X264300D01*
Y330000D01*
X256203D01*
Y329980D01*
X256540Y328284D01*
X255804Y327100D01*
X253750Y327371D01*
X250095Y326890D01*
X246690Y325479D01*
X243765Y323235D01*
X241521Y320310D01*
X240110Y316905D01*
X239629Y313250D01*
X239736Y312436D01*
X238597Y311874D01*
X198086Y352386D01*
X196728Y353428D01*
X195937Y353755D01*
X195147Y354083D01*
X193450Y354306D01*
X135306D01*
Y355250D01*
X135083Y356947D01*
X134428Y358528D01*
X133386Y359886D01*
X132028Y360928D01*
X130890Y361399D01*
X130571Y362756D01*
X131235Y363265D01*
X131931Y364172D01*
X263069D01*
X263765Y363265D01*
X266690Y361021D01*
X270095Y359610D01*
X273750Y359129D01*
X277405Y359610D01*
X280810Y361021D01*
X283735Y363265D01*
X285979Y366190D01*
X287390Y369595D01*
X287871Y373250D01*
X287390Y376905D01*
X285979Y380310D01*
X283735Y383235D01*
X280810Y385479D01*
X277405Y386890D01*
X273750Y387371D01*
X270095Y386890D01*
X266690Y385479D01*
X263765Y383235D01*
X263069Y382328D01*
X131931D01*
X131235Y383235D01*
X128310Y385479D01*
X127279Y385906D01*
Y387176D01*
X127806Y387394D01*
X130522Y389478D01*
X132605Y392194D01*
X133915Y395356D01*
X134033Y396250D01*
X108467D01*
X108585Y395356D01*
X109895Y392194D01*
X111978Y389478D01*
X114694Y387394D01*
X115221Y387176D01*
Y385906D01*
X114190Y385479D01*
X111265Y383235D01*
X110569Y382328D01*
X53205D01*
X51908Y383908D01*
X49624Y385782D01*
X47018Y387175D01*
X44191Y388033D01*
X41250Y388322D01*
X38310Y388033D01*
X35482Y387175D01*
X32876Y385782D01*
X30592Y383908D01*
X28718Y381624D01*
X27325Y379018D01*
X26467Y376190D01*
X26177Y373250D01*
X26467Y370309D01*
X27325Y367482D01*
X28718Y364876D01*
X30592Y362592D01*
X32876Y360718D01*
X35482Y359325D01*
X38310Y358467D01*
X41250Y358177D01*
X44191Y358467D01*
X47018Y359325D01*
X49624Y360718D01*
X51908Y362592D01*
X53205Y364172D01*
X110569D01*
X111265Y363265D01*
X111929Y362756D01*
X111610Y361399D01*
X110472Y360928D01*
X109114Y359886D01*
X108072Y358528D01*
X107417Y356947D01*
X107194Y355250D01*
Y340250D01*
X107417Y338553D01*
X108072Y336972D01*
X109114Y335614D01*
X110472Y334572D01*
X112053Y333917D01*
X113750Y333694D01*
X128750D01*
X130447Y333917D01*
X132028Y334572D01*
X133386Y335614D01*
X134428Y336972D01*
X135083Y338553D01*
X135306Y340250D01*
Y341194D01*
X190734D01*
X240638Y291290D01*
X240152Y290117D01*
X238230D01*
X235897Y289653D01*
X235771Y289569D01*
X226250D01*
X224162Y289294D01*
X222215Y288488D01*
X220544Y287206D01*
X219207Y285868D01*
X207540D01*
X205183Y285399D01*
X203185Y284065D01*
X201850Y282067D01*
X201382Y279710D01*
Y266790D01*
X201764Y264868D01*
X200998Y263598D01*
X199730D01*
X197787Y263211D01*
X196140Y262110D01*
X195039Y260463D01*
X194652Y258520D01*
Y246500D01*
X206000D01*
Y241500D01*
X194652D01*
Y233000D01*
X206000D01*
Y230500D01*
X208500D01*
Y219734D01*
X208872Y219783D01*
X211547Y220891D01*
X213845Y222655D01*
X215484Y224791D01*
X216746Y225020D01*
X216961Y224898D01*
X218610Y223796D01*
X220600Y223400D01*
X229500D01*
Y232500D01*
X232000D01*
Y235000D01*
X248600D01*
Y236400D01*
X248583Y236483D01*
X249754Y237108D01*
X251472Y235390D01*
Y212578D01*
X246631D01*
X245780Y213146D01*
X243400Y213619D01*
X220600D01*
X219270Y213355D01*
X218000Y214397D01*
Y217500D01*
X194000D01*
Y208366D01*
X193633Y206520D01*
Y177480D01*
X194097Y175147D01*
X194823Y174060D01*
X191381Y170619D01*
X189939Y168739D01*
X189032Y166549D01*
X188722Y164200D01*
Y156800D01*
X188933Y155204D01*
Y151545D01*
X189398Y149206D01*
X189481Y149081D01*
Y146824D01*
X188211Y146335D01*
X186677Y146970D01*
X186272Y147024D01*
X185654Y148386D01*
X186202Y149206D01*
X186667Y151545D01*
Y162055D01*
X186202Y164394D01*
X184877Y166377D01*
X182894Y167702D01*
X180555Y168167D01*
X175045D01*
X172706Y167702D01*
X170723Y166377D01*
X169398Y164394D01*
X168933Y162055D01*
Y157204D01*
X167514Y155786D01*
X166472Y154428D01*
X166230Y153844D01*
X165817Y152847D01*
X165594Y151150D01*
Y142615D01*
X165330Y141978D01*
X165090Y140150D01*
Y130651D01*
X165330Y128823D01*
X165594Y128187D01*
Y88615D01*
X165330Y87978D01*
X165090Y86151D01*
Y76651D01*
X165330Y74823D01*
X166035Y73120D01*
X167158Y71658D01*
X168620Y70536D01*
X170323Y69831D01*
X172150Y69590D01*
X173977Y69831D01*
X175680Y70536D01*
X176520Y71180D01*
X177790Y70554D01*
Y55075D01*
X173008Y50292D01*
X171886Y48830D01*
X171180Y47127D01*
X170940Y45300D01*
Y40368D01*
X167540D01*
X165183Y39899D01*
X163185Y38565D01*
X162025Y36828D01*
X148348D01*
X148333Y36947D01*
X147678Y38528D01*
X146636Y39886D01*
X145278Y40928D01*
X143697Y41583D01*
X142000Y41806D01*
X130500D01*
Y47250D01*
X121420D01*
X121337Y48520D01*
X121633Y48559D01*
X124552Y49768D01*
X127058Y51691D01*
X128595Y53694D01*
X142000D01*
X143697Y53917D01*
X145278Y54572D01*
X146636Y55614D01*
X147678Y56972D01*
X148333Y58553D01*
X148556Y60250D01*
Y75250D01*
X148333Y76947D01*
X147678Y78528D01*
X146636Y79886D01*
X145278Y80928D01*
X143697Y81583D01*
X142000Y81806D01*
X127578D01*
Y107876D01*
X128848Y107980D01*
X129350Y107880D01*
X152150D01*
X154530Y108354D01*
X156548Y109702D01*
X157896Y111720D01*
X158370Y114100D01*
Y121900D01*
X157896Y124280D01*
X156548Y126298D01*
X154530Y127646D01*
X152150Y128119D01*
X149828D01*
Y132500D01*
X149518Y134850D01*
X148781Y136630D01*
X149410Y137900D01*
X152150D01*
X154140Y138296D01*
X155827Y139423D01*
X156954Y141110D01*
X157350Y143100D01*
Y144500D01*
X140750D01*
Y147000D01*
X138250D01*
Y156100D01*
X129350D01*
X127360Y155704D01*
X125673Y154577D01*
X125652Y154545D01*
X124399Y154339D01*
X124047Y154608D01*
X121372Y155717D01*
X121000Y155766D01*
Y145000D01*
Y134234D01*
X121372Y134283D01*
X124047Y135392D01*
X126345Y137155D01*
X127268Y138357D01*
X127360Y138296D01*
X129350Y137900D01*
X132091D01*
X132719Y136630D01*
X131982Y134850D01*
X131672Y132500D01*
Y132236D01*
X130500Y132000D01*
X130500Y132000D01*
X130500Y132000D01*
X106500D01*
Y108000D01*
X109422D01*
Y81806D01*
X95000D01*
X93303Y81583D01*
X91722Y80928D01*
X90364Y79886D01*
X89322Y78528D01*
X88667Y76947D01*
X88444Y75250D01*
Y60250D01*
X88667Y58553D01*
X89322Y56972D01*
X90364Y55614D01*
X91722Y54572D01*
X93303Y53917D01*
X95000Y53694D01*
X108405D01*
X109942Y51691D01*
X112448Y49768D01*
X115367Y48559D01*
X115663Y48520D01*
X115580Y47250D01*
X106500D01*
Y41806D01*
X95000D01*
X93303Y41583D01*
X91722Y40928D01*
X90364Y39886D01*
X89322Y38528D01*
X88667Y36947D01*
X88444Y35250D01*
Y20250D01*
X88667Y18553D01*
X89322Y16972D01*
X90364Y15614D01*
X91722Y14572D01*
X93303Y13917D01*
X95000Y13694D01*
X142000D01*
X143697Y13917D01*
X145278Y14572D01*
X146636Y15614D01*
X147678Y16972D01*
X148333Y18553D01*
X148348Y18672D01*
X162025D01*
X163185Y16935D01*
X165183Y15601D01*
X167540Y15132D01*
X188460D01*
X190817Y15601D01*
X192815Y16935D01*
X194149Y18933D01*
X194618Y21290D01*
Y34210D01*
X194149Y36567D01*
X192815Y38565D01*
X190817Y39899D01*
X188460Y40368D01*
X185060D01*
Y42375D01*
X189842Y47158D01*
X190965Y48620D01*
X191670Y50323D01*
X191910Y52150D01*
Y53701D01*
X193180Y54534D01*
X194945Y54183D01*
X200455D01*
X202794Y54648D01*
X204777Y55973D01*
X205538Y57111D01*
X207065Y57111D01*
X207344Y56694D01*
X208996Y55590D01*
X210945Y55202D01*
X211200D01*
Y63300D01*
X213700D01*
Y65800D01*
X221548D01*
Y66305D01*
X221160Y68254D01*
X220056Y69906D01*
X218404Y71010D01*
X216455Y71398D01*
X215296D01*
X214801Y72668D01*
X215898Y74310D01*
X216363Y76651D01*
Y86151D01*
X215898Y88492D01*
X214572Y90476D01*
X212746Y91696D01*
Y81400D01*
X207746D01*
Y91696D01*
X205920Y90476D01*
X205173Y89358D01*
X203740Y89499D01*
X203664Y89681D01*
X202542Y91143D01*
X201080Y92265D01*
X199377Y92970D01*
X197550Y93211D01*
X195723Y92970D01*
X194020Y92265D01*
X192558Y91143D01*
X191987Y90399D01*
X190413D01*
X189842Y91143D01*
X188380Y92265D01*
X186677Y92970D01*
X184850Y93211D01*
X183023Y92970D01*
X181320Y92265D01*
X179976Y91234D01*
X179477Y91337D01*
X178706Y91729D01*
Y125072D01*
X179477Y125464D01*
X179976Y125567D01*
X181320Y124536D01*
X183023Y123831D01*
X184850Y123590D01*
X186677Y123831D01*
X188380Y124536D01*
X189842Y125658D01*
X190413Y126402D01*
X191987D01*
X192558Y125658D01*
X194020Y124536D01*
X195723Y123831D01*
X197550Y123590D01*
X199377Y123831D01*
X201080Y124536D01*
X202542Y125658D01*
X202858Y126070D01*
X204128Y125639D01*
Y121754D01*
X204594Y119413D01*
X205920Y117428D01*
X208274Y115075D01*
X210258Y113749D01*
X212599Y113283D01*
X218392D01*
X218869Y112569D01*
X220082Y111758D01*
Y105043D01*
X218869Y104232D01*
X217547Y102254D01*
X217083Y99921D01*
Y94881D01*
X217547Y92547D01*
X218869Y90569D01*
X220375Y89563D01*
X220495Y88193D01*
X220462Y88094D01*
X219590Y87511D01*
X218489Y85864D01*
X218102Y83920D01*
Y78881D01*
X218489Y76937D01*
X219590Y75290D01*
X221237Y74190D01*
X223180Y73803D01*
X223700D01*
Y81400D01*
X228700D01*
Y73803D01*
X229220D01*
X231163Y74190D01*
X232415Y75026D01*
X233123Y74780D01*
X233640Y74419D01*
Y68600D01*
X233880Y66773D01*
X234585Y65070D01*
X235708Y63608D01*
X237170Y62485D01*
X238873Y61780D01*
X239003Y61763D01*
X239616Y60401D01*
X238932Y58749D01*
X238622Y56400D01*
X238932Y54050D01*
X239839Y51861D01*
X241281Y49981D01*
X243161Y48538D01*
X245350Y47632D01*
X247700Y47322D01*
X250049Y47632D01*
X252239Y48538D01*
X254119Y49981D01*
X255562Y51861D01*
X256468Y54050D01*
X256778Y56400D01*
X256468Y58749D01*
X255784Y60401D01*
X256397Y61763D01*
X256527Y61780D01*
X258230Y62485D01*
X259332Y63331D01*
X260602Y62836D01*
Y62049D01*
X260592Y62000D01*
Y54500D01*
X286808D01*
Y62000D01*
X286798Y62049D01*
Y68000D01*
X273700D01*
Y70500D01*
X271200D01*
Y86098D01*
X265700D01*
X263749Y85710D01*
X262095Y84605D01*
X260990Y82951D01*
X260602Y81000D01*
Y80364D01*
X259332Y79869D01*
X258230Y80715D01*
X257091Y81186D01*
X256300Y82593D01*
X256468Y83000D01*
X256778Y85350D01*
X256536Y87184D01*
X258230Y87886D01*
X259692Y89008D01*
X260814Y90470D01*
X261520Y92173D01*
X261760Y94000D01*
Y100000D01*
X261520Y101827D01*
X260814Y103530D01*
X259692Y104992D01*
X258230Y106115D01*
X257038Y106608D01*
X256237Y107993D01*
X256468Y108551D01*
X256778Y110900D01*
X256555Y112592D01*
X258230Y113286D01*
X259692Y114408D01*
X260814Y115870D01*
X261520Y117573D01*
X261760Y119400D01*
Y125400D01*
X261520Y127227D01*
X260814Y128930D01*
X259692Y130392D01*
X258230Y131515D01*
X256527Y132220D01*
X254700Y132460D01*
X240700D01*
X238873Y132220D01*
X237170Y131515D01*
X236191Y130763D01*
X235039Y131480D01*
X235317Y132881D01*
Y137921D01*
X234853Y140254D01*
X233943Y141616D01*
X234361Y142161D01*
X235268Y144351D01*
X235578Y146700D01*
X235268Y149050D01*
X234361Y151239D01*
X232919Y153119D01*
X231039Y154562D01*
X228850Y155468D01*
X226500Y155778D01*
X224151Y155468D01*
X221961Y154562D01*
X220081Y153119D01*
X218639Y151239D01*
X217732Y149050D01*
X217422Y146700D01*
X217732Y144351D01*
X218352Y142854D01*
X218167Y142636D01*
X216697Y142867D01*
X216360Y143681D01*
X215238Y145143D01*
X213776Y146265D01*
X212073Y146970D01*
X210246Y147211D01*
X208419Y146970D01*
X206889Y146337D01*
X205619Y146828D01*
Y148333D01*
X206202Y149206D01*
X206667Y151545D01*
Y155204D01*
X206878Y156800D01*
Y160440D01*
X212419Y165981D01*
X213861Y167861D01*
X214768Y170051D01*
X215044Y172141D01*
X216581Y173169D01*
X217903Y175147D01*
X218367Y177480D01*
Y192824D01*
X219349Y193629D01*
X220600Y193381D01*
X243400D01*
X245780Y193854D01*
X246631Y194422D01*
X247897D01*
X248976Y191818D01*
X251100Y189050D01*
X253868Y186926D01*
X257091Y185591D01*
X260550Y185136D01*
X263863Y185572D01*
X264125Y185454D01*
X264893Y184470D01*
X264507Y183891D01*
X264079Y181742D01*
Y178057D01*
X264507Y175909D01*
X264944Y175254D01*
Y135300D01*
Y111708D01*
X265167Y110011D01*
X265495Y109220D01*
X265822Y108430D01*
X266864Y107072D01*
X295583Y78354D01*
Y62000D01*
X296048Y59659D01*
X296082Y59608D01*
Y53554D01*
X294112Y53294D01*
X292166Y52488D01*
X290494Y51206D01*
X289212Y49535D01*
X288406Y47588D01*
X288131Y45500D01*
X288406Y43412D01*
X289212Y41466D01*
X290494Y39794D01*
X292166Y38512D01*
X292299Y38189D01*
X291893Y37208D01*
X291635Y35250D01*
X291893Y33292D01*
X292649Y31468D01*
X293851Y29901D01*
X295418Y28699D01*
X297242Y27943D01*
X299200Y27685D01*
X301158Y27943D01*
X302982Y28699D01*
X303612Y29182D01*
X305706Y29598D01*
X306681Y30250D01*
X330700D01*
Y31250D01*
X330700D01*
Y36409D01*
X330818Y37000D01*
Y41250D01*
X333377D01*
X333700Y40829D01*
Y29743D01*
X333922Y29572D01*
X334700Y29250D01*
Y35250D01*
X339700D01*
Y29250D01*
X340478Y29572D01*
X341836Y30614D01*
X342878Y31972D01*
X343533Y33553D01*
X343756Y35250D01*
X343533Y36947D01*
X343426Y37205D01*
X343912Y38378D01*
X344235Y38512D01*
X345906Y39794D01*
X347188Y41466D01*
X347994Y43412D01*
X348269Y45500D01*
X347994Y47588D01*
X347188Y49535D01*
X345906Y51206D01*
X344235Y52488D01*
X342288Y53294D01*
X340200Y53569D01*
X338112Y53294D01*
X336166Y52488D01*
X334552Y51250D01*
X332525D01*
X332015Y52203D01*
X331974Y52520D01*
X332417Y54750D01*
Y56156D01*
X333399Y56962D01*
X333700Y56902D01*
X334700D01*
X336651Y57290D01*
X338305Y58395D01*
X339410Y60049D01*
X339798Y62000D01*
Y69000D01*
X334200D01*
Y74000D01*
X339798D01*
Y81000D01*
X339410Y82951D01*
X338305Y84605D01*
X338195Y85723D01*
X340059Y87587D01*
X341750D01*
X343643Y87837D01*
X345406Y88567D01*
X346921Y89729D01*
X348083Y91244D01*
X348813Y93007D01*
X349062Y94900D01*
Y97981D01*
X349984Y98596D01*
X350332Y98621D01*
X352600Y98322D01*
X352626Y98326D01*
X353022Y98022D01*
X353758Y97718D01*
X353801Y97613D01*
X353627Y96397D01*
X352837Y96240D01*
X351352Y95248D01*
X350360Y93763D01*
X350189Y92900D01*
X356200D01*
Y87900D01*
X350189D01*
X350360Y87037D01*
X351352Y85552D01*
X350907Y84323D01*
X349990Y82951D01*
X349602Y81000D01*
Y73000D01*
X375798D01*
Y81000D01*
X375410Y82951D01*
X374305Y84605D01*
X372651Y85710D01*
X372344Y85771D01*
X371982Y86647D01*
X372407Y88788D01*
Y92012D01*
X371982Y94153D01*
X371656Y94640D01*
Y96877D01*
X371677Y96880D01*
X373380Y97585D01*
X374842Y98708D01*
X375965Y100170D01*
X376670Y101873D01*
X376910Y103700D01*
X376670Y105527D01*
X375965Y107230D01*
X374842Y108692D01*
X374099Y109263D01*
Y110837D01*
X374842Y111407D01*
X375965Y112870D01*
X376670Y114573D01*
X376910Y116400D01*
X376670Y118227D01*
X375965Y119930D01*
X374842Y121392D01*
X374099Y121963D01*
Y123537D01*
X374842Y124108D01*
X375965Y125570D01*
X376670Y127273D01*
X376910Y129100D01*
X376670Y130927D01*
X376642Y130995D01*
X377751Y131635D01*
X378982Y130032D01*
X380862Y128589D01*
X383051Y127682D01*
X385401Y127373D01*
X400401D01*
X402750Y127682D01*
X404939Y128589D01*
X406819Y130032D01*
X408262Y131912D01*
X409169Y134101D01*
X409478Y136450D01*
X409169Y138800D01*
X408741Y139833D01*
X410264Y140464D01*
X412144Y141906D01*
X413586Y143786D01*
X414493Y145976D01*
X414803Y148325D01*
X414493Y150674D01*
X413586Y152864D01*
X412360Y154463D01*
X412777Y155733D01*
X420750D01*
X423092Y156199D01*
X425076Y157525D01*
X442956Y175404D01*
X444223Y175322D01*
X444461Y175011D01*
X446655Y173328D01*
X449209Y172270D01*
X451950Y171909D01*
X454691Y172270D01*
X456409Y172982D01*
X457381Y172010D01*
X457206Y171589D01*
X456931Y169500D01*
X457206Y167412D01*
X457656Y166326D01*
X456807Y165056D01*
X454900D01*
X453204Y164833D01*
X452548Y164562D01*
X451622Y164178D01*
X450265Y163136D01*
X446064Y158936D01*
X445022Y157578D01*
X444639Y156652D01*
X444367Y155997D01*
X444144Y154300D01*
Y143371D01*
X443312Y142688D01*
X440088D01*
X438337Y142340D01*
X436852Y141348D01*
X435860Y139863D01*
X435689Y139000D01*
X441700D01*
Y134000D01*
X435689D01*
X435860Y133137D01*
X436852Y131652D01*
X438337Y130660D01*
X440088Y130312D01*
X441081D01*
X441567Y129139D01*
X405506Y93077D01*
X404939Y93512D01*
X402750Y94419D01*
X400401Y94728D01*
X385401D01*
X383051Y94419D01*
X380862Y93512D01*
X378982Y92069D01*
X377539Y90189D01*
X376632Y88000D01*
X376323Y85650D01*
X376632Y83301D01*
X377539Y81112D01*
X378982Y79232D01*
X380862Y77789D01*
X383051Y76882D01*
X385401Y76573D01*
X386344D01*
Y69328D01*
X385401D01*
X383051Y69019D01*
X380862Y68112D01*
X378982Y66669D01*
X377539Y64789D01*
X377068Y63652D01*
X375798Y63904D01*
Y68000D01*
X349602D01*
Y62049D01*
X349592Y62000D01*
Y54500D01*
X375808D01*
Y56573D01*
X377078Y56825D01*
X377539Y55712D01*
X378982Y53832D01*
X380862Y52389D01*
X383051Y51482D01*
X385401Y51173D01*
X400401D01*
X402750Y51482D01*
X404939Y52389D01*
X406641Y53694D01*
X410544D01*
Y36485D01*
X409274Y36402D01*
X409169Y37200D01*
X408262Y39389D01*
X406819Y41269D01*
X404939Y42712D01*
X402750Y43619D01*
X400401Y43928D01*
X385401D01*
X383051Y43619D01*
X380862Y42712D01*
X378982Y41269D01*
X377539Y39389D01*
X376632Y37200D01*
X376323Y34850D01*
X376632Y32501D01*
X377539Y30312D01*
X378982Y28432D01*
X380862Y26989D01*
X383051Y26082D01*
X385401Y25773D01*
X400401D01*
X402750Y26082D01*
X404939Y26989D01*
X406819Y28432D01*
X408262Y30312D01*
X409169Y32501D01*
X409274Y33299D01*
X410544Y33215D01*
Y20016D01*
X406184Y15656D01*
X402591D01*
X402253Y15882D01*
X400112Y16307D01*
X396888D01*
X394747Y15882D01*
X393100Y14781D01*
X392863Y14940D01*
X392000Y15111D01*
Y13276D01*
X391718Y12853D01*
X391292Y10712D01*
Y9100D01*
X389500D01*
Y6600D01*
X383489D01*
X383660Y5737D01*
X384601Y4329D01*
X384512Y3918D01*
X384153Y3059D01*
X376413D01*
X375607Y4040D01*
X375798Y5000D01*
Y13000D01*
X362700D01*
Y15500D01*
X360200D01*
Y31098D01*
X354700D01*
X352749Y30710D01*
X351095Y29605D01*
X349990Y27951D01*
X349616Y26070D01*
X348351Y25099D01*
X347149Y23532D01*
X346393Y21708D01*
X346135Y19750D01*
Y17250D01*
X358200D01*
Y12250D01*
X346135D01*
Y9750D01*
X346393Y7792D01*
X347149Y5968D01*
X348351Y4401D01*
X348445Y4329D01*
X348014Y3059D01*
X288386D01*
X287955Y4329D01*
X288049Y4401D01*
X289251Y5968D01*
X290007Y7792D01*
X290265Y9750D01*
Y12250D01*
X278200D01*
Y17250D01*
X290265D01*
Y19750D01*
X290007Y21708D01*
X289251Y23532D01*
X288049Y25099D01*
X286784Y26070D01*
X286410Y27951D01*
X285305Y29605D01*
X283651Y30710D01*
X281700Y31098D01*
X276200D01*
Y15500D01*
X273700D01*
Y13000D01*
X260602D01*
Y5000D01*
X260793Y4040D01*
X259987Y3059D01*
X3059D01*
Y546941D01*
X222600D01*
X222600Y470481D01*
D02*
G37*
G36*
X294519Y307576D02*
X294352Y306735D01*
Y306000D01*
X300700D01*
Y301000D01*
X294352D01*
Y300265D01*
X294610Y298966D01*
X293739Y297696D01*
X253592D01*
X253475Y297884D01*
X253556Y298252D01*
X254163Y299184D01*
X257405Y299610D01*
X260810Y301021D01*
X263735Y303265D01*
X265979Y306190D01*
X266188Y306694D01*
X289150D01*
X290847Y306917D01*
X291637Y307245D01*
X292428Y307572D01*
X293367Y308293D01*
X294519Y307576D01*
D02*
G37*
G36*
X460418Y240849D02*
X462242Y240093D01*
X464200Y239835D01*
X466158Y240093D01*
X466812Y240364D01*
X468082Y239515D01*
Y232068D01*
X462250D01*
X459909Y231602D01*
X457924Y230276D01*
X450716Y223068D01*
X448765D01*
X446418Y222601D01*
X444428Y221272D01*
X443099Y219282D01*
X442632Y216935D01*
Y214465D01*
X443099Y212118D01*
X444428Y210128D01*
X445222Y209599D01*
X444953Y208250D01*
X444459Y208152D01*
X442474Y206826D01*
X438447Y202798D01*
X438203Y202844D01*
X437621Y203700D01*
X420903D01*
X421041Y203008D01*
X421790Y201887D01*
X421133Y200618D01*
X420450D01*
X418109Y200152D01*
X416124Y198826D01*
X406101Y188803D01*
X405725Y188853D01*
X403376Y188543D01*
X401186Y187636D01*
X399306Y186194D01*
X397864Y184314D01*
X396957Y182125D01*
X396647Y179775D01*
X396957Y177425D01*
X397864Y175236D01*
X399306Y173356D01*
X400884Y172145D01*
X400401Y170928D01*
X385401D01*
X383051Y170619D01*
X380862Y169712D01*
X379831Y168921D01*
X377226Y171526D01*
X375241Y172852D01*
X374454Y173008D01*
X374137Y174366D01*
X374842Y174907D01*
X375965Y176370D01*
X376670Y178073D01*
X376910Y179900D01*
X376670Y181727D01*
X375965Y183430D01*
X374842Y184892D01*
X373380Y186014D01*
X371677Y186720D01*
X369850Y186960D01*
X360350D01*
X358523Y186720D01*
X358484Y186704D01*
X357149Y187378D01*
X356968Y188750D01*
X356061Y190939D01*
X354619Y192819D01*
X352739Y194261D01*
X350550Y195168D01*
X349444Y195314D01*
X348643Y196700D01*
X348730Y196909D01*
X349091Y199650D01*
X348730Y202391D01*
X347672Y204945D01*
X345989Y207139D01*
X343795Y208822D01*
X341241Y209880D01*
X338500Y210241D01*
X335759Y209880D01*
X333205Y208822D01*
X331011Y207139D01*
X329328Y204945D01*
X328270Y202391D01*
X327909Y199650D01*
X328135Y197936D01*
X321874Y191676D01*
X320548Y189691D01*
X320083Y187350D01*
Y186972D01*
X318812Y186250D01*
X317677Y186720D01*
X315850Y186960D01*
X312971D01*
X312797Y187033D01*
X311100Y187256D01*
X295038D01*
X294629Y188459D01*
X295400Y189050D01*
X297524Y191818D01*
X298859Y195041D01*
X299314Y198500D01*
X298859Y201959D01*
X297524Y205182D01*
X295400Y207950D01*
X295028Y208236D01*
Y227500D01*
X303250D01*
Y229632D01*
X368250D01*
Y226116D01*
X367883Y224270D01*
Y195230D01*
X368347Y192897D01*
X369669Y190919D01*
X371647Y189597D01*
X373980Y189133D01*
X386520D01*
X388853Y189597D01*
X390831Y190919D01*
X392153Y192897D01*
X392617Y195230D01*
Y222229D01*
X393790Y222715D01*
X395631Y220874D01*
X397616Y219548D01*
X399957Y219083D01*
X422245D01*
X423418Y218299D01*
X425765Y217832D01*
X432235D01*
X434582Y218299D01*
X436572Y219628D01*
X437901Y221618D01*
X438368Y223965D01*
Y226435D01*
X437901Y228782D01*
X436660Y230639D01*
X437025Y231113D01*
X437881Y233181D01*
X438068Y234596D01*
X438255Y234784D01*
X438679Y234907D01*
X439808Y234844D01*
X439971Y234757D01*
X440132Y234596D01*
X440319Y233181D01*
X441175Y231113D01*
X442538Y229338D01*
X444313Y227975D01*
X446381Y227119D01*
X448600Y226827D01*
X450819Y227119D01*
X452887Y227975D01*
X454662Y229338D01*
X456025Y231113D01*
X456881Y233181D01*
X457173Y235400D01*
X456881Y237619D01*
X456367Y238859D01*
X456353Y238945D01*
X456933Y240379D01*
X457034Y240456D01*
X457982Y240849D01*
X459200Y241783D01*
X460418Y240849D01*
D02*
G37*
G36*
X315033Y283314D02*
X314438Y282539D01*
X313532Y280350D01*
X313222Y278000D01*
X313532Y275651D01*
X314438Y273461D01*
X315881Y271581D01*
X317761Y270139D01*
X318680Y269758D01*
X318846Y268499D01*
X318481Y268219D01*
X317039Y266339D01*
X316132Y264149D01*
X315822Y261800D01*
X316132Y259450D01*
X317039Y257261D01*
X318481Y255381D01*
X320361Y253939D01*
X322551Y253032D01*
X324900Y252722D01*
X327249Y253032D01*
X329439Y253939D01*
X331140Y255244D01*
X331900D01*
X333597Y255467D01*
X334387Y255795D01*
X335178Y256122D01*
X336536Y257164D01*
X357755Y278383D01*
X360120D01*
X362453Y278847D01*
X364431Y280169D01*
X365438Y281675D01*
X366808Y281795D01*
X366907Y281762D01*
X367490Y280890D01*
X368914Y279938D01*
X369533Y278832D01*
X369598Y278676D01*
X369289Y278213D01*
X368902Y276270D01*
Y264250D01*
X391598D01*
Y276270D01*
X391538Y276570D01*
X392575Y277864D01*
X393563Y278060D01*
X394114Y278428D01*
X394379Y278431D01*
X395616Y277904D01*
X396149Y276617D01*
X397351Y275051D01*
X398918Y273849D01*
X400742Y273093D01*
X402700Y272835D01*
X419087D01*
X419614Y271565D01*
X408924Y260876D01*
X407598Y258891D01*
X407132Y256550D01*
Y231318D01*
X402491D01*
X394233Y239576D01*
X392248Y240902D01*
X390365Y241276D01*
X389724Y242528D01*
X389859Y242703D01*
X390469Y244176D01*
X391211Y245287D01*
X391303Y245750D01*
X369197D01*
X369289Y245287D01*
X370031Y244176D01*
X370461Y243138D01*
X369817Y241868D01*
X303250D01*
Y251500D01*
X288438D01*
X286929Y253009D01*
X287648Y254086D01*
X288378Y253783D01*
X288750Y253734D01*
Y262000D01*
X280484D01*
X280533Y261628D01*
X280836Y260898D01*
X279759Y260179D01*
X268019Y271919D01*
X266139Y273361D01*
X263950Y274268D01*
X261600Y274578D01*
X258251D01*
X257549Y274868D01*
X255200Y275178D01*
X252850Y274868D01*
X252149Y274578D01*
X250048D01*
X249369Y275848D01*
X249903Y276647D01*
X250367Y278980D01*
Y284020D01*
X250830Y284584D01*
X314407D01*
X315033Y283314D01*
D02*
G37*
G36*
X690800Y326077D02*
X690815D01*
X691980Y326309D01*
X693250Y325609D01*
Y261050D01*
X688030D01*
X687537Y261787D01*
X686099Y262748D01*
X684404Y263085D01*
X682997D01*
X681400Y262767D01*
X679804Y263085D01*
X678397D01*
X677550Y264018D01*
Y265550D01*
X683250D01*
Y325769D01*
X684520Y326328D01*
X685785Y326077D01*
X685800D01*
Y330900D01*
X690800D01*
Y326077D01*
D02*
G37*
G36*
X619682Y405490D02*
Y403534D01*
X612774Y396626D01*
X611816Y395192D01*
X610336Y395036D01*
X608978Y396077D01*
X607397Y396732D01*
X605700Y396956D01*
X599200D01*
Y390400D01*
X594200D01*
Y396956D01*
X588424D01*
X587897Y398226D01*
X596016Y406344D01*
X618981D01*
X619682Y405490D01*
D02*
G37*
G36*
X520418Y398849D02*
X522242Y398093D01*
X523942Y397869D01*
X525122Y397100D01*
X525432Y394751D01*
X526338Y392561D01*
X527781Y390681D01*
X529661Y389239D01*
X531850Y388332D01*
X532485Y388248D01*
X532893Y387046D01*
X511587Y365740D01*
X510317Y366265D01*
Y397515D01*
X511587Y398364D01*
X512242Y398093D01*
X514200Y397835D01*
X516158Y398093D01*
X517982Y398849D01*
X519200Y399783D01*
X520418Y398849D01*
D02*
G37*
G36*
X325644Y385644D02*
X326856Y384834D01*
X326588Y383485D01*
X326165Y383401D01*
X324177Y382073D01*
X322849Y380085D01*
X322382Y377740D01*
Y375760D01*
X322849Y373415D01*
X324177Y371427D01*
X324277Y370923D01*
X323791Y370195D01*
X323702Y369750D01*
X327916D01*
X328510Y369632D01*
X332000D01*
Y364868D01*
X328510D01*
X327916Y364750D01*
X323702D01*
X323791Y364305D01*
X324277Y363577D01*
X324177Y363073D01*
X322849Y361085D01*
X322382Y358740D01*
Y356760D01*
X322460Y356370D01*
X322367Y356147D01*
X322144Y354450D01*
Y350910D01*
X320874Y350075D01*
X319505Y350348D01*
X319250D01*
Y342250D01*
X314250D01*
Y350348D01*
X313995D01*
X312574Y350065D01*
X312079Y351261D01*
X313823Y352427D01*
X315151Y354415D01*
X315618Y356760D01*
Y358740D01*
X315151Y361085D01*
X313823Y363073D01*
X311835Y364401D01*
X309490Y364868D01*
X307214D01*
X306509Y365924D01*
X306768Y366550D01*
X307048Y368676D01*
X307054Y368683D01*
X307697Y368767D01*
X309278Y369422D01*
X309573Y369649D01*
X311835Y370099D01*
X313823Y371427D01*
X315151Y373415D01*
X315618Y375760D01*
Y377740D01*
X315151Y380085D01*
X313823Y382073D01*
X313300Y382422D01*
X313796Y383618D01*
X314980Y383383D01*
X320020D01*
X322353Y383847D01*
X324331Y385169D01*
X324649Y385644D01*
X325644D01*
D02*
G37*
G36*
X580650Y390682D02*
X581169Y390210D01*
X581367Y388703D01*
X581746Y387787D01*
X580967Y386517D01*
X576500D01*
X574159Y386052D01*
X572174Y384725D01*
X568866Y381418D01*
X555687D01*
X553346Y380952D01*
X551361Y379626D01*
X536092Y364356D01*
X534766Y362372D01*
X534300Y360031D01*
Y319251D01*
X520077Y305028D01*
X519700Y305078D01*
X517351Y304768D01*
X515161Y303861D01*
X513281Y302419D01*
X512548Y301464D01*
X511125Y301311D01*
X510317Y302027D01*
Y342287D01*
X511587Y342926D01*
X513350Y342196D01*
X515700Y341886D01*
X518050Y342196D01*
X520239Y343103D01*
X522119Y344545D01*
X523562Y346425D01*
X524468Y348615D01*
X524778Y350964D01*
X524468Y353314D01*
X523562Y355503D01*
X522256Y357204D01*
Y357865D01*
X554935Y390544D01*
X577500D01*
X579197Y390767D01*
X579852Y391039D01*
X579952Y391080D01*
X580650Y390682D01*
D02*
G37*
G36*
X285447Y134818D02*
X287588Y134392D01*
X290812D01*
X292953Y134818D01*
X293291Y135044D01*
X300410D01*
X300795Y133774D01*
X300274Y133426D01*
X291638Y124789D01*
X290312Y122805D01*
X289846Y120464D01*
Y104293D01*
X288673Y103807D01*
X278056Y114423D01*
Y134223D01*
X278588Y135412D01*
X281812D01*
X283563Y135760D01*
X283800Y135919D01*
X285447Y134818D01*
D02*
G37*
G36*
X297200Y160453D02*
X299491Y161402D01*
X300661Y162299D01*
X301358Y162208D01*
X302101Y161637D01*
Y160063D01*
X301358Y159492D01*
X300236Y158030D01*
X299530Y156327D01*
X299290Y154500D01*
X299530Y152673D01*
X300236Y150970D01*
X301358Y149508D01*
X301464Y149426D01*
X301033Y148156D01*
X293291D01*
X292953Y148382D01*
X290812Y148807D01*
X287588D01*
X285447Y148382D01*
X283800Y147281D01*
X283563Y147440D01*
X281812Y147788D01*
X278588D01*
X278056Y148224D01*
Y153350D01*
X278557Y153762D01*
X282243D01*
X284001Y154111D01*
X285492Y155108D01*
X286488Y156599D01*
X286838Y158357D01*
Y162043D01*
X286785Y162309D01*
X287830Y162871D01*
X287964Y162894D01*
X289909Y161402D01*
X292200Y160453D01*
Y169700D01*
X297200D01*
Y160453D01*
D02*
G37*
G36*
X696941Y337100D02*
X695368D01*
X694563Y338082D01*
X694623Y338385D01*
Y340415D01*
X694333Y341872D01*
X693508Y343108D01*
X692272Y343933D01*
X690815Y344223D01*
X690800D01*
Y339400D01*
X685800D01*
Y344223D01*
X685785D01*
X684328Y343933D01*
X683092Y343108D01*
X682267Y341872D01*
X681977Y340415D01*
Y338385D01*
X682037Y338082D01*
X681232Y337100D01*
X637070D01*
X637070Y337100D01*
X635960Y337100D01*
X635956Y337100D01*
X635813Y337100D01*
X635800Y337100D01*
X635800Y337100D01*
X635800Y337100D01*
X635800Y336524D01*
X635800Y335896D01*
Y335830D01*
Y335830D01*
Y271185D01*
X635115Y270623D01*
X635100D01*
Y265800D01*
X632600D01*
Y263300D01*
X625535D01*
X625337Y263056D01*
X619851D01*
X619141Y263530D01*
X616992Y263958D01*
X613307D01*
X611159Y263530D01*
X610750Y263258D01*
X610341Y263530D01*
X608192Y263958D01*
X604911D01*
X604100Y264065D01*
X598526D01*
X598139Y264361D01*
X595950Y265268D01*
X593600Y265578D01*
X591250Y265268D01*
X589061Y264361D01*
X588674Y264065D01*
X581765D01*
Y265400D01*
X581507Y267358D01*
X580751Y269182D01*
X579549Y270749D01*
X577982Y271951D01*
X576158Y272707D01*
X574200Y272964D01*
X572242Y272707D01*
X570418Y271951D01*
X568851Y270749D01*
X568045Y270643D01*
X567478Y271077D01*
X566700Y271400D01*
Y265895D01*
X566635Y265400D01*
Y256400D01*
Y247400D01*
X566700Y246905D01*
Y241400D01*
X567478Y241722D01*
X568045Y242157D01*
X568851Y242051D01*
X570418Y240849D01*
X572242Y240093D01*
X574200Y239835D01*
X576158Y240093D01*
X577982Y240849D01*
X579549Y242051D01*
X580751Y243617D01*
X581507Y245442D01*
X581765Y247400D01*
Y248935D01*
X586035D01*
Y199300D01*
X586293Y197342D01*
X587049Y195518D01*
X588251Y193951D01*
X600300Y181901D01*
X600301Y181901D01*
X601867Y180699D01*
X603692Y179943D01*
X605650Y179686D01*
X637085D01*
X637965Y178039D01*
X640026Y175527D01*
X642539Y173465D01*
X645405Y171933D01*
X648516Y170989D01*
X651750Y170671D01*
X654985Y170989D01*
X658095Y171933D01*
X660962Y173465D01*
X663474Y175527D01*
X665536Y178039D01*
X667068Y180906D01*
X668011Y184016D01*
X668330Y187250D01*
X668011Y190485D01*
X667068Y193595D01*
X665536Y196462D01*
X663474Y198974D01*
X660962Y201036D01*
X658095Y202568D01*
X654985Y203512D01*
X651750Y203830D01*
X648516Y203512D01*
X645405Y202568D01*
X642539Y201036D01*
X640026Y198974D01*
X637965Y196462D01*
X637085Y194815D01*
X608783D01*
X601165Y202433D01*
Y248935D01*
X604100D01*
X604911Y249042D01*
X608192D01*
X610341Y249470D01*
X610750Y249743D01*
X611159Y249470D01*
X613307Y249042D01*
X616992D01*
X619141Y249470D01*
X619851Y249944D01*
X635800D01*
Y232100D01*
X681296D01*
X682734Y231139D01*
X683731Y230941D01*
Y230175D01*
X684005Y228800D01*
X684784Y227634D01*
X685143Y227393D01*
X684490Y226303D01*
X683111Y227040D01*
X680189Y227926D01*
X679650Y227979D01*
Y215150D01*
X692479D01*
X692426Y215689D01*
X691540Y218611D01*
X690100Y221303D01*
X688163Y223664D01*
X685803Y225600D01*
X686271Y226791D01*
X687325Y226581D01*
X689275D01*
X690650Y226854D01*
X691816Y227634D01*
X692596Y228800D01*
X692869Y230175D01*
Y230909D01*
X694026Y231139D01*
X695465Y232100D01*
X696941D01*
Y3059D01*
X413791D01*
X413359Y4329D01*
X413536Y4464D01*
X421736Y12664D01*
X422778Y14022D01*
X423161Y14948D01*
X423433Y15603D01*
X423656Y17300D01*
Y56600D01*
X423433Y58297D01*
X423241Y58760D01*
X422778Y59878D01*
X421736Y61236D01*
X418085Y64886D01*
X416728Y65928D01*
X415801Y66312D01*
X415146Y66583D01*
X413450Y66807D01*
X406641D01*
X404939Y68112D01*
X402750Y69019D01*
X400401Y69328D01*
X399457D01*
Y76573D01*
X400401D01*
X402750Y76882D01*
X404939Y77789D01*
X406641Y79094D01*
X407350D01*
X409047Y79318D01*
X409702Y79589D01*
X410628Y79973D01*
X411986Y81015D01*
X439894Y108922D01*
X441063Y108295D01*
X441332Y106250D01*
X442239Y104061D01*
X443681Y102181D01*
X445561Y100738D01*
X447751Y99832D01*
X450100Y99522D01*
X452449Y99832D01*
X454639Y100738D01*
X456519Y102181D01*
X456750Y102482D01*
X464322D01*
X468828Y97977D01*
X468778Y97600D01*
X469088Y95251D01*
X469995Y93061D01*
X471437Y91181D01*
X473317Y89739D01*
X475507Y88832D01*
X477856Y88522D01*
X480205Y88832D01*
X482395Y89739D01*
X484275Y91181D01*
X484707Y91744D01*
X486145Y91532D01*
X486586Y90470D01*
X487708Y89008D01*
X489170Y87886D01*
X490873Y87180D01*
X492700Y86940D01*
X506700D01*
X508527Y87180D01*
X510230Y87886D01*
X511693Y89008D01*
X512814Y90470D01*
X513520Y92173D01*
X513760Y94000D01*
Y100000D01*
X513520Y101827D01*
X512814Y103530D01*
X511693Y104992D01*
X510230Y106115D01*
X508527Y106820D01*
X506700Y107060D01*
X492700D01*
X490873Y106820D01*
X489170Y106115D01*
X487708Y104992D01*
X486586Y103530D01*
X486468Y103247D01*
X485014Y103055D01*
X484275Y104019D01*
X482395Y105462D01*
X480205Y106368D01*
X477856Y106678D01*
X477480Y106628D01*
X471182Y112926D01*
X469197Y114252D01*
X466856Y114718D01*
X456750D01*
X456519Y115019D01*
X454639Y116461D01*
X452449Y117368D01*
X450405Y117637D01*
X449778Y118806D01*
X455336Y124364D01*
X455732Y124881D01*
X456270Y124865D01*
X457060Y124525D01*
X457206Y123412D01*
X458012Y121466D01*
X459295Y119795D01*
X460966Y118512D01*
X462912Y117706D01*
X465000Y117431D01*
X475000D01*
X477089Y117706D01*
X479035Y118512D01*
X480706Y119795D01*
X481988Y121466D01*
X482794Y123412D01*
X483069Y125500D01*
X482794Y127589D01*
X481988Y129535D01*
X480864Y131000D01*
X481988Y132466D01*
X482794Y134412D01*
X483069Y136500D01*
X482794Y138589D01*
X481988Y140535D01*
X480864Y142000D01*
X481988Y143466D01*
X482794Y145412D01*
X483069Y147500D01*
X482794Y149589D01*
X482345Y150674D01*
X483193Y151944D01*
X484400D01*
X486097Y152168D01*
X486752Y152439D01*
X487678Y152823D01*
X489036Y153864D01*
X498886Y163714D01*
X499407Y164393D01*
X499928Y165072D01*
X500583Y166653D01*
X500806Y168350D01*
Y169760D01*
X502112Y171461D01*
X503018Y173650D01*
X503328Y176000D01*
X503018Y178349D01*
X502112Y180539D01*
X500669Y182419D01*
X498789Y183862D01*
X496600Y184768D01*
X494250Y185078D01*
X491900Y184768D01*
X489711Y183862D01*
X487831Y182419D01*
X486389Y180539D01*
X485482Y178349D01*
X485172Y176000D01*
X485482Y173650D01*
X486389Y171461D01*
X487127Y170499D01*
X484081Y167452D01*
X482878Y168046D01*
X483069Y169500D01*
X482794Y171589D01*
X481988Y173535D01*
X480864Y175000D01*
X481988Y176466D01*
X482794Y178412D01*
X483069Y180500D01*
X482794Y182589D01*
X481988Y184535D01*
X480864Y186000D01*
X481988Y187466D01*
X482794Y189412D01*
X483069Y191500D01*
X482794Y193589D01*
X481988Y195535D01*
X480864Y197000D01*
X481860Y198298D01*
X482491Y198277D01*
X483177Y198018D01*
X483265Y197352D01*
X484500Y194372D01*
X486463Y191813D01*
X489022Y189850D01*
X492002Y188615D01*
X492700Y188523D01*
Y200550D01*
X495200D01*
Y203050D01*
X507226D01*
X507135Y203748D01*
X505900Y206728D01*
X503937Y209287D01*
X501378Y211250D01*
X499516Y212022D01*
Y213396D01*
X501882Y214376D01*
X504650Y216500D01*
X506774Y219268D01*
X508109Y222491D01*
X508564Y225950D01*
X508109Y229409D01*
X506774Y232632D01*
X504650Y235400D01*
X501882Y237524D01*
X498659Y238859D01*
X497019Y239075D01*
X496847Y240378D01*
X497982Y240849D01*
X499200Y241783D01*
X500418Y240849D01*
X502242Y240093D01*
X504200Y239835D01*
X506158Y240093D01*
X507982Y240849D01*
X509200Y241783D01*
X510418Y240849D01*
X512242Y240093D01*
X514200Y239835D01*
X516158Y240093D01*
X517982Y240849D01*
X519200Y241783D01*
X520418Y240849D01*
X522242Y240093D01*
X524200Y239835D01*
X526158Y240093D01*
X527982Y240849D01*
X529200Y241783D01*
X530418Y240849D01*
X532242Y240093D01*
X534200Y239835D01*
X536158Y240093D01*
X537982Y240849D01*
X539200Y241783D01*
X540418Y240849D01*
X542242Y240093D01*
X544200Y239835D01*
X546158Y240093D01*
X547982Y240849D01*
X549200Y241783D01*
X550418Y240849D01*
X552242Y240093D01*
X554200Y239835D01*
X556158Y240093D01*
X557982Y240849D01*
X559549Y242051D01*
X560355Y242157D01*
X560922Y241722D01*
X561700Y241400D01*
Y246905D01*
X561765Y247400D01*
Y256400D01*
Y265400D01*
X561700Y265895D01*
Y271400D01*
X560922Y271077D01*
X560355Y270643D01*
X559549Y270749D01*
X557982Y271951D01*
X556158Y272707D01*
X554200Y272964D01*
X552242Y272707D01*
X550418Y271951D01*
X549200Y271017D01*
X547982Y271951D01*
X546158Y272707D01*
X544200Y272964D01*
X542242Y272707D01*
X540418Y271951D01*
X539200Y271017D01*
X537982Y271951D01*
X536158Y272707D01*
X534200Y272964D01*
X532242Y272707D01*
X530418Y271951D01*
X529200Y271017D01*
X527982Y271951D01*
X526158Y272707D01*
X524200Y272964D01*
X522242Y272707D01*
X520418Y271951D01*
X519200Y271017D01*
X517982Y271951D01*
X516158Y272707D01*
X514200Y272964D01*
X512242Y272707D01*
X510418Y271951D01*
X509200Y271017D01*
X507982Y271951D01*
X506158Y272707D01*
X504200Y272964D01*
X502242Y272707D01*
X500418Y271951D01*
X499200Y271017D01*
X497982Y271951D01*
X496158Y272707D01*
X494200Y272964D01*
X492242Y272707D01*
X490418Y271951D01*
X489200Y271017D01*
X487982Y271951D01*
X486158Y272707D01*
X484200Y272964D01*
X482242Y272707D01*
X480418Y271951D01*
X479200Y271017D01*
X477982Y271951D01*
X477162Y272291D01*
X476467Y273880D01*
X476468Y273883D01*
X476881Y274881D01*
X477173Y277100D01*
X476881Y279319D01*
X476025Y281387D01*
X474662Y283162D01*
X472887Y284525D01*
X470819Y285381D01*
X468600Y285673D01*
X466381Y285381D01*
X464313Y284525D01*
X462538Y283162D01*
X461175Y281387D01*
X460319Y279319D01*
X460132Y277904D01*
X459971Y277743D01*
X459809Y277656D01*
X458679Y277593D01*
X458255Y277716D01*
X458068Y277904D01*
X457881Y279319D01*
X457025Y281387D01*
X455662Y283162D01*
X453887Y284525D01*
X452321Y285173D01*
X451906Y286555D01*
X473926Y308574D01*
X475252Y310559D01*
X475718Y312900D01*
Y352950D01*
X476019Y353181D01*
X477462Y355061D01*
X478368Y357251D01*
X478678Y359600D01*
X478368Y361950D01*
X477462Y364139D01*
X476019Y366019D01*
X474139Y367461D01*
X471950Y368368D01*
X471408Y368440D01*
X470907Y369787D01*
X471961Y371161D01*
X472868Y373350D01*
X473178Y375700D01*
X472868Y378050D01*
X471961Y380239D01*
X470656Y381940D01*
Y385742D01*
X471379Y386225D01*
X471926Y386409D01*
X474100Y386122D01*
X476450Y386432D01*
X478639Y387338D01*
X480519Y388781D01*
X481961Y390661D01*
X482868Y392850D01*
X483178Y395200D01*
X482978Y396715D01*
X484047Y397855D01*
X484200Y397835D01*
X486158Y398093D01*
X487982Y398849D01*
X489200Y399783D01*
X490418Y398849D01*
X492242Y398093D01*
X494200Y397835D01*
X496158Y398093D01*
X496812Y398364D01*
X498082Y397515D01*
Y298772D01*
X498548Y296431D01*
X499874Y294447D01*
X514846Y279474D01*
X516831Y278148D01*
X519172Y277682D01*
X565050D01*
X565281Y277381D01*
X567161Y275938D01*
X569351Y275032D01*
X571700Y274722D01*
X574049Y275032D01*
X576239Y275938D01*
X578119Y277381D01*
X579086Y278641D01*
X579997Y278502D01*
X580442Y278323D01*
X581149Y276617D01*
X582351Y275051D01*
X583918Y273849D01*
X585742Y273093D01*
X587700Y272835D01*
X605700D01*
X607658Y273093D01*
X609470Y273844D01*
X609860D01*
X611561Y272539D01*
X613750Y271632D01*
X616100Y271322D01*
X618450Y271632D01*
X620639Y272539D01*
X622519Y273981D01*
X623961Y275861D01*
X624868Y278050D01*
X625178Y280400D01*
X624868Y282750D01*
X623961Y284939D01*
X622519Y286819D01*
X620639Y288262D01*
X618450Y289168D01*
X616100Y289478D01*
X615101Y289346D01*
X614040Y290299D01*
X614500Y291322D01*
X616850Y291632D01*
X619039Y292539D01*
X620919Y293981D01*
X622361Y295861D01*
X623268Y298050D01*
X623578Y300400D01*
X623268Y302750D01*
X622361Y304939D01*
X620919Y306819D01*
X619039Y308262D01*
X616850Y309168D01*
X614500Y309478D01*
X614153Y309432D01*
X613514Y310072D01*
X613239Y310593D01*
X613007Y312358D01*
X612251Y314182D01*
X611317Y315400D01*
X612251Y316618D01*
X613007Y318442D01*
X613265Y320400D01*
X613007Y322358D01*
X612251Y324182D01*
X611317Y325400D01*
X612251Y326617D01*
X613007Y328442D01*
X613265Y330400D01*
X613007Y332358D01*
X612251Y334182D01*
X611317Y335400D01*
X612251Y336617D01*
X613007Y338442D01*
X613265Y340400D01*
X613007Y342358D01*
X612545Y343474D01*
X612466Y344439D01*
X613087Y345179D01*
X614426Y346074D01*
X618726Y350374D01*
X620052Y352359D01*
X620518Y354700D01*
Y366200D01*
X620052Y368541D01*
X618726Y370526D01*
X617332Y371919D01*
X617818Y373092D01*
X618712D01*
X620853Y373518D01*
X622500Y374619D01*
X622737Y374460D01*
X623600Y374289D01*
Y376124D01*
X623882Y376547D01*
X624308Y378688D01*
Y380300D01*
Y381912D01*
X623882Y384053D01*
X623600Y384476D01*
Y386922D01*
X623218Y387236D01*
Y389766D01*
X625834Y392382D01*
X627790D01*
X630135Y392849D01*
X632123Y394177D01*
X633262Y395882D01*
X639338D01*
X640477Y394177D01*
X642465Y392849D01*
X644810Y392382D01*
X646790D01*
X649135Y392849D01*
X651123Y394177D01*
X652262Y395882D01*
X654293D01*
X655809Y394870D01*
X657958Y394442D01*
X661643D01*
X663791Y394870D01*
X665613Y396087D01*
X666830Y397909D01*
X667258Y400057D01*
Y403742D01*
X666830Y405891D01*
X666557Y406300D01*
X666830Y406709D01*
X667258Y408857D01*
Y412542D01*
X666830Y414691D01*
X665613Y416513D01*
X663791Y417730D01*
X661643Y418158D01*
X657958D01*
X657921Y418151D01*
X652693Y423379D01*
X652918Y424510D01*
Y431490D01*
X652451Y433835D01*
X651123Y435823D01*
X649135Y437151D01*
X646790Y437618D01*
X644810D01*
X642465Y437151D01*
X640477Y435823D01*
X639973Y435723D01*
X639245Y436209D01*
X638800Y436298D01*
Y432084D01*
X638682Y431490D01*
Y428000D01*
X633918D01*
Y431490D01*
X633800Y432084D01*
Y436298D01*
X633355Y436209D01*
X632627Y435723D01*
X632123Y435823D01*
X630135Y437151D01*
X627790Y437618D01*
X625810D01*
X623465Y437151D01*
X621477Y435823D01*
X620630Y434556D01*
X596500D01*
X594803Y434333D01*
X593222Y433678D01*
X592543Y433157D01*
X591864Y432636D01*
X582997Y423769D01*
X581656Y424224D01*
X581507Y425358D01*
X580751Y427182D01*
X579549Y428749D01*
X577982Y429951D01*
X576158Y430707D01*
X574200Y430965D01*
X572242Y430707D01*
X570418Y429951D01*
X569200Y429017D01*
X567982Y429951D01*
X566158Y430707D01*
X564200Y430965D01*
X562242Y430707D01*
X560418Y429951D01*
X559200Y429017D01*
X557982Y429951D01*
X556158Y430707D01*
X554200Y430965D01*
X552242Y430707D01*
X550418Y429951D01*
X548851Y428749D01*
X548045Y428643D01*
X547478Y429077D01*
X546700Y429400D01*
Y423895D01*
X546635Y423400D01*
Y414400D01*
X541765D01*
Y423400D01*
X541700Y423895D01*
Y429400D01*
X540922Y429077D01*
X540355Y428643D01*
X539549Y428749D01*
X537982Y429951D01*
X536158Y430707D01*
X534200Y430965D01*
X532242Y430707D01*
X531812Y430529D01*
X530756Y431234D01*
Y463484D01*
X531634Y464363D01*
X532800Y464209D01*
X535541Y464570D01*
X538095Y465628D01*
X540289Y467311D01*
X541972Y469505D01*
X543030Y472059D01*
X543391Y474800D01*
X543030Y477541D01*
X541972Y480095D01*
X540289Y482289D01*
X538095Y483972D01*
X535541Y485030D01*
X532800Y485391D01*
X530059Y485030D01*
X527505Y483972D01*
X525311Y482289D01*
X523628Y480095D01*
X522570Y477541D01*
X522209Y474800D01*
X522363Y473634D01*
X520839Y472111D01*
X519154Y472221D01*
X518836Y472636D01*
X517837Y473634D01*
X517991Y474800D01*
X517630Y477541D01*
X516572Y480095D01*
X514889Y482289D01*
X512695Y483972D01*
X510141Y485030D01*
X507400Y485391D01*
X504659Y485030D01*
X502105Y483972D01*
X499911Y482289D01*
X498228Y480095D01*
X497170Y477541D01*
X496809Y474800D01*
X497170Y472059D01*
X498228Y469505D01*
X499911Y467311D01*
X502105Y465628D01*
X504659Y464570D01*
X507400Y464209D01*
X507644Y463996D01*
Y431234D01*
X506588Y430529D01*
X506158Y430707D01*
X504200Y430965D01*
X502242Y430707D01*
X501573Y430430D01*
X500518Y431135D01*
Y454800D01*
X500052Y457141D01*
X498726Y459126D01*
X492602Y465250D01*
X493004Y468300D01*
X492591Y471433D01*
X491382Y474352D01*
X489459Y476858D01*
X486952Y478782D01*
X484033Y479991D01*
X480900Y480404D01*
X477767Y479991D01*
X474848Y478782D01*
X472341Y476858D01*
X470418Y474352D01*
X469209Y471433D01*
X468797Y468300D01*
X469209Y465167D01*
X470418Y462248D01*
X472341Y459742D01*
X474848Y457818D01*
X477767Y456609D01*
X477484Y455418D01*
X474900D01*
X472559Y454952D01*
X470574Y453626D01*
X469248Y451641D01*
X468783Y449300D01*
Y437300D01*
X469248Y434959D01*
X470574Y432974D01*
X472082Y431967D01*
X472137Y431535D01*
X471929Y430577D01*
X470418Y429951D01*
X469200Y429017D01*
X467982Y429951D01*
X466158Y430707D01*
X464200Y430965D01*
X462242Y430707D01*
X460418Y429951D01*
X458851Y428749D01*
X458045Y428643D01*
X457478Y429077D01*
X455897Y429733D01*
X454200Y429956D01*
X453035Y429802D01*
X451765Y430661D01*
Y442009D01*
X451813Y442250D01*
Y448750D01*
X451765Y448991D01*
Y470481D01*
X456559D01*
X456571Y493444D01*
X634795D01*
X636214Y490789D01*
X638276Y488276D01*
X640789Y486214D01*
X643655Y484682D01*
X646765Y483739D01*
X650000Y483420D01*
X653235Y483739D01*
X656345Y484682D01*
X659211Y486214D01*
X661724Y488276D01*
X663786Y490789D01*
X665318Y493655D01*
X666261Y496765D01*
X666580Y500000D01*
X666261Y503235D01*
X665318Y506345D01*
X663786Y509211D01*
X661724Y511724D01*
X659211Y513786D01*
X656345Y515318D01*
X653235Y516261D01*
X650000Y516580D01*
X646765Y516261D01*
X643655Y515318D01*
X640789Y513786D01*
X638276Y511724D01*
X636214Y509211D01*
X634795Y506556D01*
X457476D01*
X456578Y507454D01*
X456599Y546941D01*
X696941D01*
Y337100D01*
D02*
G37*
%LPC*%
G36*
X679650Y177179D02*
Y164350D01*
X692479D01*
X692426Y164889D01*
X691540Y167811D01*
X690100Y170503D01*
X688163Y172864D01*
X685803Y174800D01*
X683111Y176240D01*
X680189Y177126D01*
X679650Y177179D01*
D02*
G37*
G36*
X540401Y169919D02*
X535401D01*
X533312Y169645D01*
X531366Y168838D01*
X529695Y167556D01*
X528413Y165885D01*
X527777Y164350D01*
X540401D01*
Y169919D01*
D02*
G37*
G36*
X390401Y119119D02*
X385401D01*
X383312Y118844D01*
X381366Y118038D01*
X379695Y116756D01*
X378413Y115085D01*
X377777Y113550D01*
X390401D01*
Y119119D01*
D02*
G37*
G36*
X628850Y177179D02*
Y164350D01*
X641679D01*
X641626Y164889D01*
X640740Y167811D01*
X639300Y170503D01*
X637363Y172864D01*
X635003Y174800D01*
X632310Y176240D01*
X629389Y177126D01*
X628850Y177179D01*
D02*
G37*
G36*
X400401Y119119D02*
X395401D01*
Y113550D01*
X408024D01*
X407389Y115085D01*
X406106Y116756D01*
X404435Y118038D01*
X402489Y118844D01*
X400401Y119119D01*
D02*
G37*
G36*
X674650Y177179D02*
X674112Y177126D01*
X671190Y176240D01*
X668497Y174800D01*
X666137Y172864D01*
X664200Y170503D01*
X662761Y167811D01*
X661874Y164889D01*
X661821Y164350D01*
X674650D01*
Y177179D01*
D02*
G37*
G36*
X141750Y188999D02*
X116250D01*
Y175999D01*
X141750D01*
Y188999D01*
D02*
G37*
G36*
X507226Y198050D02*
X497700D01*
Y188523D01*
X498398Y188615D01*
X501378Y189850D01*
X503937Y191813D01*
X505900Y194372D01*
X507135Y197352D01*
X507226Y198050D01*
D02*
G37*
G36*
X111250Y206999D02*
X85750D01*
Y193999D01*
X111250D01*
Y206999D01*
D02*
G37*
G36*
Y188999D02*
X85750D01*
Y175999D01*
X111250D01*
Y188999D01*
D02*
G37*
G36*
X572000Y221569D02*
X562000D01*
X559912Y221294D01*
X557966Y220488D01*
X556295Y219206D01*
X555012Y217535D01*
X554206Y215589D01*
X553931Y213500D01*
X554206Y211412D01*
X555012Y209466D01*
X556137Y208000D01*
X555012Y206535D01*
X554206Y204589D01*
X553931Y202500D01*
X554206Y200412D01*
X555012Y198466D01*
X556137Y197000D01*
X555012Y195535D01*
X554206Y193589D01*
X553931Y191500D01*
X554206Y189412D01*
X555012Y187466D01*
X556137Y186000D01*
X555012Y184535D01*
X554206Y182589D01*
X553931Y180500D01*
X554206Y178412D01*
X555012Y176466D01*
X556137Y175000D01*
X555012Y173535D01*
X554206Y171589D01*
X554046Y170374D01*
X552702Y169556D01*
X552489Y169645D01*
X550401Y169919D01*
X545401D01*
Y161850D01*
Y153781D01*
X550401D01*
X552489Y154056D01*
X553614Y154522D01*
X555012Y154466D01*
X556295Y152795D01*
X556889Y152338D01*
X555886Y151031D01*
X555459Y150000D01*
X578542D01*
X578115Y151031D01*
X577111Y152338D01*
X577706Y152795D01*
X578988Y154466D01*
X579794Y156412D01*
X580069Y158500D01*
X579794Y160589D01*
X578988Y162535D01*
X577864Y164000D01*
X578988Y165466D01*
X579794Y167412D01*
X580069Y169500D01*
X579794Y171589D01*
X578988Y173535D01*
X577864Y175000D01*
X578988Y176466D01*
X579794Y178412D01*
X580069Y180500D01*
X579794Y182589D01*
X578988Y184535D01*
X577864Y186000D01*
X578988Y187466D01*
X579794Y189412D01*
X580069Y191500D01*
X579794Y193589D01*
X578988Y195535D01*
X577864Y197000D01*
X578988Y198466D01*
X579794Y200412D01*
X580069Y202500D01*
X579794Y204589D01*
X578988Y206535D01*
X577864Y208000D01*
X578988Y209466D01*
X579794Y211412D01*
X580069Y213500D01*
X579794Y215589D01*
X578988Y217535D01*
X577706Y219206D01*
X576035Y220488D01*
X574089Y221294D01*
X572000Y221569D01*
D02*
G37*
G36*
X679650Y126379D02*
Y113550D01*
X692479D01*
X692426Y114089D01*
X691540Y117011D01*
X690100Y119703D01*
X688163Y122064D01*
X685803Y124001D01*
X683111Y125440D01*
X680189Y126326D01*
X679650Y126379D01*
D02*
G37*
G36*
X674650D02*
X674112Y126326D01*
X671190Y125440D01*
X668497Y124001D01*
X666137Y122064D01*
X664200Y119703D01*
X662761Y117011D01*
X661874Y114089D01*
X661821Y113550D01*
X674650D01*
Y126379D01*
D02*
G37*
G36*
X599450Y118950D02*
X588952D01*
X589240Y117500D01*
X590345Y115846D01*
X591999Y114740D01*
X593950Y114352D01*
X599450D01*
Y118950D01*
D02*
G37*
G36*
X116000Y155766D02*
X115628Y155717D01*
X112953Y154608D01*
X110655Y152845D01*
X108891Y150547D01*
X107783Y147872D01*
X107734Y147500D01*
X116000D01*
Y155766D01*
D02*
G37*
G36*
X692479Y159350D02*
X679650D01*
Y146522D01*
X680189Y146575D01*
X683111Y147461D01*
X685803Y148900D01*
X688163Y150837D01*
X690100Y153197D01*
X691540Y155890D01*
X692426Y158812D01*
X692479Y159350D01*
D02*
G37*
G36*
X674650D02*
X661821D01*
X661874Y158812D01*
X662761Y155890D01*
X664200Y153197D01*
X666137Y150837D01*
X668497Y148900D01*
X671190Y147461D01*
X674112Y146575D01*
X674650Y146522D01*
Y159350D01*
D02*
G37*
G36*
X599450Y158548D02*
X593950D01*
X591999Y158160D01*
X590345Y157055D01*
X589240Y155401D01*
X588952Y153950D01*
X599450D01*
Y158548D01*
D02*
G37*
G36*
X540401Y159350D02*
X527777D01*
X528413Y157816D01*
X529695Y156145D01*
X531366Y154862D01*
X533312Y154056D01*
X535401Y153781D01*
X540401D01*
Y159350D01*
D02*
G37*
G36*
X152150Y156100D02*
X143250D01*
Y149500D01*
X157350D01*
Y150900D01*
X156954Y152890D01*
X155827Y154577D01*
X154140Y155704D01*
X152150Y156100D01*
D02*
G37*
G36*
X641679Y159350D02*
X628850D01*
Y146522D01*
X629389Y146575D01*
X632310Y147461D01*
X635003Y148900D01*
X637363Y150837D01*
X639300Y153197D01*
X640740Y155890D01*
X641626Y158812D01*
X641679Y159350D01*
D02*
G37*
G36*
X38000Y159362D02*
X34606Y158915D01*
X31444Y157605D01*
X28728Y155522D01*
X26644Y152806D01*
X25335Y149644D01*
X24888Y146250D01*
X25335Y142856D01*
X26644Y139694D01*
X28728Y136978D01*
X31444Y134895D01*
X34606Y133585D01*
X38000Y133138D01*
X41394Y133585D01*
X44556Y134895D01*
X47272Y136978D01*
X49356Y139694D01*
X50665Y142856D01*
X51112Y146250D01*
X50665Y149644D01*
X49356Y152806D01*
X47272Y155522D01*
X44556Y157605D01*
X41394Y158915D01*
X38000Y159362D01*
D02*
G37*
G36*
X578542Y123000D02*
X569500D01*
Y118440D01*
X572000D01*
X573828Y118680D01*
X575531Y119386D01*
X576993Y120508D01*
X578115Y121970D01*
X578542Y123000D01*
D02*
G37*
G36*
X564500D02*
X555459D01*
X555886Y121970D01*
X557008Y120508D01*
X558470Y119386D01*
X560173Y118680D01*
X562000Y118440D01*
X564500D01*
Y123000D01*
D02*
G37*
G36*
X623850Y159350D02*
X610720D01*
X609979Y158579D01*
X609917Y158559D01*
X609869Y158548D01*
X604450D01*
Y151450D01*
X601950D01*
Y148950D01*
X588952D01*
X589240Y147500D01*
X590345Y145846D01*
X591110Y145335D01*
X590724Y144065D01*
X579297D01*
X578672Y145000D01*
X554655D01*
X554252Y144597D01*
X552750Y145219D01*
X550401Y145528D01*
X535401D01*
X533470Y145274D01*
X533168Y147563D01*
X532261Y149752D01*
X530819Y151632D01*
X528939Y153074D01*
X526749Y153981D01*
X524400Y154291D01*
X522051Y153981D01*
X519861Y153074D01*
X517981Y151632D01*
X516539Y149752D01*
X515632Y147563D01*
X515322Y145213D01*
X515632Y142864D01*
X516539Y140674D01*
X517844Y138973D01*
Y86116D01*
X511482Y79754D01*
X510230Y80715D01*
X508527Y81420D01*
X506700Y81660D01*
X492700D01*
X490873Y81420D01*
X489170Y80715D01*
X487708Y79592D01*
X487626Y79486D01*
X487439Y79461D01*
X485249Y80368D01*
X482900Y80678D01*
X480550Y80368D01*
X478361Y79461D01*
X476481Y78019D01*
X475038Y76139D01*
X474132Y73949D01*
X473822Y71600D01*
X474132Y69250D01*
X475038Y67061D01*
X476481Y65181D01*
X478361Y63739D01*
X480550Y62832D01*
X482900Y62522D01*
X485249Y62832D01*
X487439Y63739D01*
X487626Y63714D01*
X487708Y63608D01*
X489170Y62485D01*
X490873Y61780D01*
X492700Y61540D01*
X506700D01*
X508527Y61780D01*
X510230Y62485D01*
X511693Y63608D01*
X512814Y65070D01*
X512816Y65072D01*
X514297Y65267D01*
X515087Y65595D01*
X515878Y65922D01*
X517236Y66964D01*
X529036Y78764D01*
X529241Y79032D01*
X530862Y77789D01*
X533051Y76882D01*
X535401Y76573D01*
X550401D01*
X552750Y76882D01*
X554939Y77789D01*
X556819Y79232D01*
X558262Y81112D01*
X559169Y83301D01*
X559478Y85650D01*
X559169Y88000D01*
X558262Y90189D01*
X556819Y92069D01*
X554939Y93512D01*
X552750Y94419D01*
X550401Y94728D01*
X535401D01*
X533051Y94419D01*
X532012Y93988D01*
X530956Y94694D01*
Y102007D01*
X532012Y102712D01*
X533051Y102282D01*
X535401Y101973D01*
X550401D01*
X552750Y102282D01*
X554939Y103189D01*
X556819Y104632D01*
X558262Y106512D01*
X559169Y108701D01*
X559478Y111050D01*
X559169Y113400D01*
X558262Y115589D01*
X556819Y117469D01*
X554939Y118912D01*
X552750Y119819D01*
X550401Y120128D01*
X535401D01*
X533051Y119819D01*
X532012Y119388D01*
X530956Y120094D01*
Y127407D01*
X532012Y128112D01*
X533051Y127682D01*
X535401Y127373D01*
X550401D01*
X552750Y127682D01*
X554202Y128284D01*
X554492Y128000D01*
X578672D01*
X579297Y128936D01*
X583208D01*
X583700Y128838D01*
X590200D01*
X590692Y128936D01*
X590874D01*
X591259Y127666D01*
X590345Y127055D01*
X589240Y125401D01*
X588952Y123950D01*
X601950D01*
Y121450D01*
X604450D01*
Y114352D01*
X609869D01*
X609917Y114342D01*
X609979Y114322D01*
X610720Y113550D01*
X623850D01*
Y126379D01*
X623312Y126326D01*
X620390Y125440D01*
X617697Y124001D01*
X616318Y122869D01*
X615048Y123450D01*
X614660Y125401D01*
X613555Y127055D01*
X612641Y127666D01*
X613027Y128936D01*
X637058D01*
X637965Y127239D01*
X640026Y124727D01*
X642539Y122665D01*
X645405Y121133D01*
X648516Y120189D01*
X651750Y119871D01*
X654985Y120189D01*
X658095Y121133D01*
X660962Y122665D01*
X663474Y124727D01*
X665536Y127239D01*
X667068Y130106D01*
X668011Y133216D01*
X668330Y136450D01*
X668011Y139685D01*
X667068Y142795D01*
X665536Y145662D01*
X663474Y148174D01*
X660962Y150236D01*
X658095Y151768D01*
X654985Y152712D01*
X651750Y153030D01*
X648516Y152712D01*
X645405Y151768D01*
X642539Y150236D01*
X640026Y148174D01*
X637965Y145662D01*
X637111Y144065D01*
X613176D01*
X612791Y145335D01*
X613555Y145846D01*
X614660Y147500D01*
X615048Y149450D01*
X616318Y150032D01*
X617697Y148900D01*
X620390Y147461D01*
X623312Y146575D01*
X623850Y146522D01*
Y159350D01*
D02*
G37*
G36*
Y177179D02*
X623312Y177126D01*
X620390Y176240D01*
X617697Y174800D01*
X615337Y172864D01*
X613400Y170503D01*
X611961Y167811D01*
X611074Y164889D01*
X611021Y164350D01*
X623850D01*
Y177179D01*
D02*
G37*
G36*
X116000Y142500D02*
X107734D01*
X107783Y142128D01*
X108891Y139453D01*
X110655Y137155D01*
X112953Y135392D01*
X115628Y134283D01*
X116000Y134234D01*
Y142500D01*
D02*
G37*
G36*
X228460Y39349D02*
X220500D01*
Y30250D01*
X233599D01*
Y34210D01*
X233208Y36177D01*
X232094Y37844D01*
X230427Y38958D01*
X228460Y39349D01*
D02*
G37*
G36*
X271200Y49500D02*
X260592D01*
Y42000D01*
X261019Y39854D01*
X262235Y38035D01*
X264054Y36819D01*
X266200Y36392D01*
X271200D01*
Y49500D01*
D02*
G37*
G36*
X550401Y43928D02*
X535401D01*
X533051Y43619D01*
X530862Y42712D01*
X528982Y41269D01*
X527539Y39389D01*
X526632Y37200D01*
X526323Y34850D01*
X526632Y32501D01*
X527539Y30312D01*
X528982Y28432D01*
X530862Y26989D01*
X533051Y26082D01*
X535401Y25773D01*
X550401D01*
X552750Y26082D01*
X554939Y26989D01*
X556819Y28432D01*
X558262Y30312D01*
X559169Y32501D01*
X559478Y34850D01*
X559169Y37200D01*
X558262Y39389D01*
X556819Y41269D01*
X554939Y42712D01*
X552750Y43619D01*
X550401Y43928D01*
D02*
G37*
G36*
X215500Y39349D02*
X207540D01*
X205574Y38958D01*
X203906Y37844D01*
X202792Y36177D01*
X202401Y34210D01*
Y30250D01*
X215500D01*
Y39349D01*
D02*
G37*
G36*
X286808Y49500D02*
X276200D01*
Y36392D01*
X281200D01*
X283346Y36819D01*
X285165Y38035D01*
X286381Y39854D01*
X286808Y42000D01*
Y49500D01*
D02*
G37*
G36*
X450200Y47200D02*
X441178D01*
X441253Y46633D01*
X442436Y43774D01*
X444320Y41320D01*
X446774Y39436D01*
X449633Y38252D01*
X450200Y38178D01*
Y47200D01*
D02*
G37*
G36*
X464222D02*
X455200D01*
Y38178D01*
X455767Y38252D01*
X458626Y39436D01*
X461080Y41320D01*
X462964Y43774D01*
X464148Y46633D01*
X464222Y47200D01*
D02*
G37*
G36*
X360200Y49500D02*
X349592D01*
Y42000D01*
X350019Y39854D01*
X351235Y38035D01*
X353054Y36819D01*
X355200Y36392D01*
X360200D01*
Y49500D01*
D02*
G37*
G36*
X375808D02*
X365200D01*
Y36392D01*
X370200D01*
X372346Y36819D01*
X374165Y38035D01*
X375381Y39854D01*
X375808Y42000D01*
Y49500D01*
D02*
G37*
G36*
X87921Y47500D02*
X52500D01*
Y12079D01*
X55963Y12352D01*
X61779Y13748D01*
X67305Y16037D01*
X72405Y19162D01*
X76953Y23047D01*
X80838Y27595D01*
X83963Y32695D01*
X86252Y38221D01*
X87648Y44037D01*
X87921Y47500D01*
D02*
G37*
G36*
X647500Y47500D02*
X612079D01*
X612352Y44037D01*
X613748Y38221D01*
X616037Y32695D01*
X619162Y27595D01*
X623047Y23047D01*
X627595Y19162D01*
X632695Y16037D01*
X638221Y13748D01*
X644037Y12352D01*
X647500Y12079D01*
Y47500D01*
D02*
G37*
G36*
X387000Y15111D02*
X386137Y14940D01*
X384652Y13948D01*
X383660Y12463D01*
X383489Y11600D01*
X387000D01*
Y15111D01*
D02*
G37*
G36*
X47500Y47500D02*
X12079D01*
X12352Y44037D01*
X13748Y38221D01*
X16037Y32695D01*
X19162Y27595D01*
X23047Y23047D01*
X27595Y19162D01*
X32695Y16037D01*
X38221Y13748D01*
X44037Y12352D01*
X47500Y12079D01*
Y47500D01*
D02*
G37*
G36*
X687921Y47500D02*
X652500D01*
Y12079D01*
X655963Y12352D01*
X661779Y13748D01*
X667305Y16037D01*
X672405Y19162D01*
X676953Y23047D01*
X680838Y27595D01*
X683963Y32695D01*
X686252Y38221D01*
X687648Y44037D01*
X687921Y47500D01*
D02*
G37*
G36*
X271200Y31098D02*
X265700D01*
X263749Y30710D01*
X262095Y29605D01*
X260990Y27951D01*
X260602Y26000D01*
Y18000D01*
X271200D01*
Y31098D01*
D02*
G37*
G36*
X370700D02*
X365200D01*
Y18000D01*
X375798D01*
Y26000D01*
X375410Y27951D01*
X374305Y29605D01*
X372651Y30710D01*
X370700Y31098D01*
D02*
G37*
G36*
X215500Y25250D02*
X202401D01*
Y21290D01*
X202792Y19324D01*
X203906Y17656D01*
X205574Y16543D01*
X207540Y16151D01*
X215500D01*
Y25250D01*
D02*
G37*
G36*
X233599D02*
X220500D01*
Y16151D01*
X228460D01*
X230427Y16543D01*
X232094Y17656D01*
X233208Y19324D01*
X233599Y21290D01*
Y25250D01*
D02*
G37*
G36*
X674650Y108550D02*
X661821D01*
X661874Y108012D01*
X662761Y105090D01*
X664200Y102397D01*
X666137Y100037D01*
X668497Y98100D01*
X671190Y96661D01*
X674112Y95775D01*
X674650Y95722D01*
Y108550D01*
D02*
G37*
G36*
X692479D02*
X679650D01*
Y95722D01*
X680189Y95775D01*
X683111Y96661D01*
X685803Y98100D01*
X688163Y100037D01*
X690100Y102397D01*
X691540Y105090D01*
X692426Y108012D01*
X692479Y108550D01*
D02*
G37*
G36*
X623850D02*
X611021D01*
X611074Y108012D01*
X611961Y105090D01*
X613400Y102397D01*
X615337Y100037D01*
X617697Y98100D01*
X620390Y96661D01*
X623312Y95775D01*
X623850Y95722D01*
Y108550D01*
D02*
G37*
G36*
X641679D02*
X628850D01*
Y95722D01*
X629389Y95775D01*
X632310Y96661D01*
X635003Y98100D01*
X637363Y100037D01*
X639300Y102397D01*
X640740Y105090D01*
X641626Y108012D01*
X641679Y108550D01*
D02*
G37*
G36*
X38000Y124362D02*
X34606Y123915D01*
X31444Y122605D01*
X28728Y120522D01*
X26644Y117806D01*
X25335Y114644D01*
X24888Y111250D01*
X25335Y107856D01*
X26644Y104694D01*
X28728Y101978D01*
X31444Y99895D01*
X34606Y98585D01*
X38000Y98138D01*
X41394Y98585D01*
X44556Y99895D01*
X47272Y101978D01*
X49356Y104694D01*
X50665Y107856D01*
X51112Y111250D01*
X50665Y114644D01*
X49356Y117806D01*
X47272Y120522D01*
X44556Y122605D01*
X41394Y123915D01*
X38000Y124362D01*
D02*
G37*
G36*
X544200Y229611D02*
X541850Y229301D01*
X539661Y228395D01*
X537781Y226952D01*
X536338Y225072D01*
X535432Y222883D01*
X535122Y220533D01*
X535432Y218184D01*
X536338Y215994D01*
X537644Y214293D01*
Y199515D01*
X495064Y156936D01*
X494022Y155578D01*
X493695Y154788D01*
X493367Y153997D01*
X493144Y152300D01*
Y132460D01*
X492700D01*
X490873Y132220D01*
X489170Y131515D01*
X487708Y130392D01*
X486586Y128930D01*
X485880Y127227D01*
X485640Y125400D01*
Y119400D01*
X485880Y117573D01*
X486586Y115870D01*
X487708Y114408D01*
X489170Y113286D01*
X490873Y112580D01*
X492700Y112340D01*
X506700D01*
X508527Y112580D01*
X510230Y113286D01*
X511693Y114408D01*
X512814Y115870D01*
X513520Y117573D01*
X513760Y119400D01*
Y125400D01*
X513520Y127227D01*
X512814Y128930D01*
X511693Y130392D01*
X510230Y131515D01*
X508527Y132220D01*
X506700Y132460D01*
X506256D01*
Y149584D01*
X548836Y192164D01*
X549878Y193522D01*
X550532Y195103D01*
X550756Y196800D01*
Y214293D01*
X552061Y215994D01*
X552968Y218184D01*
X553278Y220533D01*
X552968Y222883D01*
X552061Y225072D01*
X550619Y226952D01*
X548739Y228395D01*
X546549Y229301D01*
X544200Y229611D01*
D02*
G37*
G36*
X628850Y126379D02*
Y113550D01*
X641679D01*
X641626Y114089D01*
X640740Y117011D01*
X639300Y119703D01*
X637363Y122064D01*
X635003Y124001D01*
X632310Y125440D01*
X629389Y126326D01*
X628850Y126379D01*
D02*
G37*
G36*
X390401Y108550D02*
X377777D01*
X378413Y107016D01*
X379695Y105345D01*
X381366Y104062D01*
X383312Y103256D01*
X385401Y102981D01*
X390401D01*
Y108550D01*
D02*
G37*
G36*
X408024D02*
X395401D01*
Y102981D01*
X400401D01*
X402489Y103256D01*
X404435Y104062D01*
X406106Y105345D01*
X407389Y107016D01*
X408024Y108550D01*
D02*
G37*
G36*
X455200Y61222D02*
Y52200D01*
X464222D01*
X464148Y52767D01*
X462964Y55626D01*
X461080Y58080D01*
X458626Y59964D01*
X455767Y61148D01*
X455200Y61222D01*
D02*
G37*
G36*
X47500Y87921D02*
X44037Y87648D01*
X38221Y86252D01*
X32695Y83963D01*
X27595Y80838D01*
X23047Y76953D01*
X19162Y72405D01*
X16037Y67305D01*
X13748Y61779D01*
X12352Y55963D01*
X12079Y52500D01*
X47500D01*
Y87921D01*
D02*
G37*
G36*
X550401Y69328D02*
X535401D01*
X533051Y69019D01*
X530862Y68112D01*
X528982Y66669D01*
X527539Y64789D01*
X526632Y62600D01*
X526323Y60250D01*
X526632Y57901D01*
X527539Y55712D01*
X528982Y53832D01*
X530862Y52389D01*
X533051Y51482D01*
X535401Y51173D01*
X550401D01*
X552750Y51482D01*
X554939Y52389D01*
X556819Y53832D01*
X558262Y55712D01*
X559169Y57901D01*
X559478Y60250D01*
X559169Y62600D01*
X558262Y64789D01*
X556819Y66669D01*
X554939Y68112D01*
X552750Y69019D01*
X550401Y69328D01*
D02*
G37*
G36*
X450200Y61222D02*
X449633Y61148D01*
X446774Y59964D01*
X444320Y58080D01*
X442436Y55626D01*
X441253Y52767D01*
X441178Y52200D01*
X450200D01*
Y61222D01*
D02*
G37*
G36*
X52500Y87921D02*
Y52500D01*
X87921D01*
X87648Y55963D01*
X86252Y61779D01*
X83963Y67305D01*
X80838Y72405D01*
X76953Y76953D01*
X72405Y80838D01*
X67305Y83963D01*
X61779Y86252D01*
X55963Y87648D01*
X52500Y87921D01*
D02*
G37*
G36*
X221548Y60800D02*
X216200D01*
Y55202D01*
X216455D01*
X218404Y55590D01*
X220056Y56694D01*
X221160Y58346D01*
X221548Y60295D01*
Y60800D01*
D02*
G37*
G36*
X281700Y86098D02*
X276200D01*
Y73000D01*
X286798D01*
Y81000D01*
X286410Y82951D01*
X285305Y84605D01*
X283651Y85710D01*
X281700Y86098D01*
D02*
G37*
G36*
X647500Y87921D02*
X644037Y87648D01*
X638221Y86252D01*
X632695Y83963D01*
X627595Y80838D01*
X623047Y76953D01*
X619162Y72405D01*
X616037Y67305D01*
X613748Y61779D01*
X612352Y55963D01*
X612079Y52500D01*
X647500D01*
Y87921D01*
D02*
G37*
G36*
X652500D02*
Y52500D01*
X687921D01*
X687648Y55963D01*
X686252Y61779D01*
X683963Y67305D01*
X680838Y72405D01*
X676953Y76953D01*
X672405Y80838D01*
X667305Y83963D01*
X661779Y86252D01*
X655963Y87648D01*
X652500Y87921D01*
D02*
G37*
G36*
X672900Y472100D02*
X660071D01*
X660124Y471562D01*
X661011Y468640D01*
X662450Y465947D01*
X664387Y463587D01*
X666747Y461650D01*
X669440Y460211D01*
X672362Y459324D01*
X672900Y459271D01*
Y472100D01*
D02*
G37*
G36*
X690729D02*
X677900D01*
Y459271D01*
X678438Y459324D01*
X681360Y460211D01*
X684053Y461650D01*
X686413Y463587D01*
X688350Y465947D01*
X689789Y468640D01*
X690676Y471562D01*
X690729Y472100D01*
D02*
G37*
G36*
X622100D02*
X609271D01*
X609324Y471562D01*
X610211Y468640D01*
X611650Y465947D01*
X613587Y463587D01*
X615947Y461650D01*
X618640Y460211D01*
X621562Y459324D01*
X622100Y459271D01*
Y472100D01*
D02*
G37*
G36*
X639929D02*
X627100D01*
Y459271D01*
X627639Y459324D01*
X630560Y460211D01*
X633253Y461650D01*
X635613Y463587D01*
X637550Y465947D01*
X638989Y468640D01*
X639876Y471562D01*
X639929Y472100D01*
D02*
G37*
G36*
X555700Y472300D02*
X548609D01*
Y469925D01*
X548968Y468120D01*
X549991Y466591D01*
X551520Y465568D01*
X553325Y465209D01*
X555700D01*
Y472300D01*
D02*
G37*
G36*
X567791D02*
X560700D01*
Y465209D01*
X563075D01*
X564880Y465568D01*
X566409Y466591D01*
X567432Y468120D01*
X567791Y469925D01*
Y472300D01*
D02*
G37*
G36*
X47500Y497500D02*
X12079D01*
X12352Y494037D01*
X13748Y488221D01*
X16037Y482695D01*
X19162Y477595D01*
X23047Y473047D01*
X27595Y469162D01*
X32695Y466037D01*
X38221Y463748D01*
X44037Y462352D01*
X47500Y462079D01*
Y497500D01*
D02*
G37*
G36*
X87921D02*
X52500D01*
Y462079D01*
X55963Y462352D01*
X61779Y463748D01*
X67305Y466037D01*
X72405Y469162D01*
X76953Y473047D01*
X80838Y477595D01*
X83963Y482695D01*
X86252Y488221D01*
X87648Y494037D01*
X87921Y497500D01*
D02*
G37*
G36*
X375500Y437098D02*
X374995D01*
X373046Y436710D01*
X371394Y435606D01*
X370290Y433954D01*
X369902Y432005D01*
Y431750D01*
X375500D01*
Y437098D01*
D02*
G37*
G36*
X130750Y447371D02*
X127095Y446890D01*
X123690Y445479D01*
X120765Y443235D01*
X120069Y442328D01*
X96700D01*
X94351Y442018D01*
X92161Y441111D01*
X90281Y439669D01*
X82940Y432328D01*
X53205D01*
X51908Y433908D01*
X49624Y435782D01*
X47018Y437175D01*
X44191Y438033D01*
X41250Y438322D01*
X38310Y438033D01*
X35482Y437175D01*
X32876Y435782D01*
X30592Y433908D01*
X28718Y431624D01*
X27325Y429018D01*
X26467Y426190D01*
X26177Y423250D01*
X26467Y420309D01*
X27325Y417482D01*
X28718Y414876D01*
X30592Y412592D01*
X32876Y410718D01*
X35482Y409325D01*
X38310Y408467D01*
X41250Y408177D01*
X44191Y408467D01*
X47018Y409325D01*
X49624Y410718D01*
X51908Y412592D01*
X53205Y414172D01*
X86700D01*
X89049Y414482D01*
X90332Y415013D01*
X91239Y415388D01*
X93119Y416831D01*
X100460Y424172D01*
X120069D01*
X120765Y423265D01*
X123690Y421021D01*
X127095Y419610D01*
X130750Y419129D01*
X134405Y419610D01*
X137810Y421021D01*
X140735Y423265D01*
X142979Y426190D01*
X144390Y429595D01*
X144871Y433250D01*
X144390Y436905D01*
X142979Y440310D01*
X140735Y443235D01*
X137810Y445479D01*
X134405Y446890D01*
X130750Y447371D01*
D02*
G37*
G36*
X317800Y433027D02*
X317102Y432935D01*
X314122Y431700D01*
X311563Y429737D01*
X309600Y427178D01*
X308365Y424198D01*
X308273Y423500D01*
X317800D01*
Y433027D01*
D02*
G37*
G36*
X419947Y435750D02*
X413200D01*
Y429003D01*
X415491Y429952D01*
X417475Y431474D01*
X418998Y433459D01*
X419947Y435750D01*
D02*
G37*
G36*
X413200Y447497D02*
Y440750D01*
X419947D01*
X418998Y443041D01*
X417475Y445025D01*
X415491Y446548D01*
X413200Y447497D01*
D02*
G37*
G36*
X408200D02*
X405909Y446548D01*
X403924Y445025D01*
X403058Y443896D01*
X401463Y444961D01*
X399520Y445348D01*
X398000D01*
Y436250D01*
Y427152D01*
X399520D01*
X401463Y427539D01*
X403110Y428640D01*
X403931Y429868D01*
X405416Y430330D01*
X405909Y429952D01*
X408200Y429003D01*
Y438250D01*
Y447497D01*
D02*
G37*
G36*
X251250Y446033D02*
X250356Y445915D01*
X247194Y444605D01*
X244478Y442522D01*
X242395Y439806D01*
X241085Y436644D01*
X240967Y435750D01*
X251250D01*
Y446033D01*
D02*
G37*
G36*
X256250D02*
Y435750D01*
X266533D01*
X266415Y436644D01*
X265105Y439806D01*
X263022Y442522D01*
X260306Y444605D01*
X257144Y445915D01*
X256250Y446033D01*
D02*
G37*
G36*
X672900Y522900D02*
X660071D01*
X660124Y522361D01*
X661011Y519440D01*
X662450Y516747D01*
X664387Y514387D01*
X666747Y512450D01*
X669440Y511011D01*
X672362Y510124D01*
X672900Y510071D01*
Y522900D01*
D02*
G37*
G36*
X690729D02*
X677900D01*
Y510071D01*
X678438Y510124D01*
X681360Y511011D01*
X684053Y512450D01*
X686413Y514387D01*
X688350Y516747D01*
X689789Y519440D01*
X690676Y522361D01*
X690729Y522900D01*
D02*
G37*
G36*
X622100D02*
X609271D01*
X609324Y522361D01*
X610211Y519440D01*
X611650Y516747D01*
X613587Y514387D01*
X615947Y512450D01*
X618640Y511011D01*
X621562Y510124D01*
X622100Y510071D01*
Y522900D01*
D02*
G37*
G36*
X639929D02*
X627100D01*
Y510071D01*
X627639Y510124D01*
X630560Y511011D01*
X633253Y512450D01*
X635613Y514387D01*
X637550Y516747D01*
X638989Y519440D01*
X639876Y522361D01*
X639929Y522900D01*
D02*
G37*
G36*
X672900Y540729D02*
X672362Y540676D01*
X669440Y539789D01*
X666747Y538350D01*
X664387Y536413D01*
X662450Y534053D01*
X661011Y531360D01*
X660124Y528438D01*
X660071Y527900D01*
X672900D01*
Y540729D01*
D02*
G37*
G36*
X677900D02*
Y527900D01*
X690729D01*
X690676Y528438D01*
X689789Y531360D01*
X688350Y534053D01*
X686413Y536413D01*
X684053Y538350D01*
X681360Y539789D01*
X678438Y540676D01*
X677900Y540729D01*
D02*
G37*
G36*
X622100D02*
X621562Y540676D01*
X618640Y539789D01*
X615947Y538350D01*
X613587Y536413D01*
X611650Y534053D01*
X610211Y531360D01*
X609324Y528438D01*
X609271Y527900D01*
X622100D01*
Y540729D01*
D02*
G37*
G36*
X627100D02*
Y527900D01*
X639929D01*
X639876Y528438D01*
X638989Y531360D01*
X637550Y534053D01*
X635613Y536413D01*
X633253Y538350D01*
X630560Y539789D01*
X627639Y540676D01*
X627100Y540729D01*
D02*
G37*
G36*
X672900Y489929D02*
X672362Y489876D01*
X669440Y488989D01*
X666747Y487550D01*
X664387Y485613D01*
X662450Y483253D01*
X661011Y480560D01*
X660124Y477639D01*
X660071Y477100D01*
X672900D01*
Y489929D01*
D02*
G37*
G36*
X677900D02*
Y477100D01*
X690729D01*
X690676Y477639D01*
X689789Y480560D01*
X688350Y483253D01*
X686413Y485613D01*
X684053Y487550D01*
X681360Y488989D01*
X678438Y489876D01*
X677900Y489929D01*
D02*
G37*
G36*
X622100D02*
X621562Y489876D01*
X618640Y488989D01*
X615947Y487550D01*
X613587Y485613D01*
X611650Y483253D01*
X610211Y480560D01*
X609324Y477639D01*
X609271Y477100D01*
X622100D01*
Y489929D01*
D02*
G37*
G36*
X627100D02*
Y477100D01*
X639929D01*
X639876Y477639D01*
X638989Y480560D01*
X637550Y483253D01*
X635613Y485613D01*
X633253Y487550D01*
X630560Y488989D01*
X627639Y489876D01*
X627100Y489929D01*
D02*
G37*
G36*
X47500Y537921D02*
X44037Y537648D01*
X38221Y536252D01*
X32695Y533963D01*
X27595Y530838D01*
X23047Y526953D01*
X19162Y522405D01*
X16037Y517305D01*
X13748Y511779D01*
X12352Y505963D01*
X12079Y502500D01*
X47500D01*
Y537921D01*
D02*
G37*
G36*
X52500D02*
Y502500D01*
X87921D01*
X87648Y505963D01*
X86252Y511779D01*
X83963Y517305D01*
X80838Y522405D01*
X76953Y526953D01*
X72405Y530838D01*
X67305Y533963D01*
X61779Y536252D01*
X55963Y537648D01*
X52500Y537921D01*
D02*
G37*
G36*
X555700Y484391D02*
X553325D01*
X551520Y484032D01*
X549991Y483009D01*
X548968Y481480D01*
X548609Y479675D01*
Y477300D01*
X555700D01*
Y484391D01*
D02*
G37*
G36*
X563075D02*
X560700D01*
Y477300D01*
X567791D01*
Y479675D01*
X567432Y481480D01*
X566409Y483009D01*
X564880Y484032D01*
X563075Y484391D01*
D02*
G37*
G36*
X266533Y430750D02*
X256250D01*
Y420467D01*
X257144Y420585D01*
X260306Y421894D01*
X263022Y423978D01*
X265105Y426694D01*
X266415Y429856D01*
X266533Y430750D01*
D02*
G37*
G36*
X99250Y238999D02*
X86250D01*
Y213499D01*
X99250D01*
Y238999D01*
D02*
G37*
G36*
X623850Y227979D02*
X623312Y227926D01*
X620390Y227040D01*
X617697Y225600D01*
X615337Y223664D01*
X613400Y221303D01*
X611961Y218611D01*
X611074Y215689D01*
X611021Y215150D01*
X623850D01*
Y227979D01*
D02*
G37*
G36*
X432235Y212548D02*
X431500D01*
Y208700D01*
X437097D01*
X436959Y209392D01*
X435851Y211051D01*
X434192Y212159D01*
X432235Y212548D01*
D02*
G37*
G36*
X81250Y238999D02*
X68250D01*
Y213499D01*
X81250D01*
Y238999D01*
D02*
G37*
G36*
X37250Y226024D02*
X36617Y225941D01*
X33698Y224732D01*
X31191Y222808D01*
X29268Y220302D01*
X28059Y217383D01*
X27976Y216750D01*
X37250D01*
Y226024D01*
D02*
G37*
G36*
X42250D02*
Y216750D01*
X51524D01*
X51441Y217383D01*
X50232Y220302D01*
X48309Y222808D01*
X45802Y224732D01*
X42883Y225941D01*
X42250Y226024D01*
D02*
G37*
G36*
X628850Y227979D02*
Y215150D01*
X641679D01*
X641626Y215689D01*
X640740Y218611D01*
X639300Y221303D01*
X637363Y223664D01*
X635003Y225600D01*
X632310Y227040D01*
X629389Y227926D01*
X628850Y227979D01*
D02*
G37*
G36*
X674650D02*
X674112Y227926D01*
X671190Y227040D01*
X668497Y225600D01*
X666137Y223664D01*
X664200Y221303D01*
X662761Y218611D01*
X661874Y215689D01*
X661821Y215150D01*
X674650D01*
Y227979D01*
D02*
G37*
G36*
X641679Y210150D02*
X628850D01*
Y197322D01*
X629389Y197375D01*
X632310Y198261D01*
X635003Y199700D01*
X637363Y201637D01*
X639300Y203997D01*
X640740Y206690D01*
X641626Y209612D01*
X641679Y210150D01*
D02*
G37*
G36*
X674650D02*
X661821D01*
X661874Y209612D01*
X662761Y206690D01*
X664200Y203997D01*
X666137Y201637D01*
X668497Y199700D01*
X671190Y198261D01*
X674112Y197375D01*
X674650Y197322D01*
Y210150D01*
D02*
G37*
G36*
X141750Y206999D02*
X116250D01*
Y193999D01*
X141750D01*
Y206999D01*
D02*
G37*
G36*
X623850Y210150D02*
X611021D01*
X611074Y209612D01*
X611961Y206690D01*
X613400Y203997D01*
X615337Y201637D01*
X617697Y199700D01*
X620390Y198261D01*
X623312Y197375D01*
X623850Y197322D01*
Y210150D01*
D02*
G37*
G36*
X51524Y211750D02*
X42250D01*
Y202476D01*
X42883Y202559D01*
X45802Y203768D01*
X48309Y205692D01*
X50232Y208198D01*
X51441Y211117D01*
X51524Y211750D01*
D02*
G37*
G36*
X426500Y212548D02*
X425765D01*
X423808Y212159D01*
X422149Y211051D01*
X421041Y209392D01*
X420903Y208700D01*
X426500D01*
Y212548D01*
D02*
G37*
G36*
X692479Y210150D02*
X679650D01*
Y197322D01*
X680189Y197375D01*
X683111Y198261D01*
X685803Y199700D01*
X688163Y201637D01*
X690100Y203997D01*
X691540Y206690D01*
X692426Y209612D01*
X692479Y210150D01*
D02*
G37*
G36*
X37250Y211750D02*
X27976D01*
X28059Y211117D01*
X29268Y208198D01*
X31191Y205692D01*
X33698Y203768D01*
X36617Y202559D01*
X37250Y202476D01*
Y211750D01*
D02*
G37*
G36*
X632111Y377800D02*
X628600D01*
Y374289D01*
X629463Y374460D01*
X630948Y375452D01*
X631940Y376937D01*
X632111Y377800D01*
D02*
G37*
G36*
X628600Y386311D02*
Y382800D01*
X632111D01*
X631940Y383663D01*
X630948Y385148D01*
X629463Y386140D01*
X628600Y386311D01*
D02*
G37*
G36*
X41250Y338322D02*
X38310Y338033D01*
X35482Y337175D01*
X32876Y335782D01*
X30592Y333908D01*
X28718Y331624D01*
X27325Y329018D01*
X26467Y326190D01*
X26177Y323250D01*
X26467Y320309D01*
X27325Y317482D01*
X28718Y314876D01*
X30592Y312592D01*
X32876Y310718D01*
X35482Y309325D01*
X38310Y308467D01*
X41250Y308177D01*
X44191Y308467D01*
X47018Y309325D01*
X49624Y310718D01*
X51908Y312592D01*
X53205Y314172D01*
X83990D01*
X91331Y306831D01*
X93211Y305389D01*
X95400Y304482D01*
X97750Y304172D01*
X120069D01*
X120765Y303265D01*
X123690Y301021D01*
X127095Y299610D01*
X130750Y299129D01*
X134405Y299610D01*
X137810Y301021D01*
X140735Y303265D01*
X142979Y306190D01*
X144390Y309595D01*
X144871Y313250D01*
X144390Y316905D01*
X142979Y320310D01*
X140735Y323235D01*
X137810Y325479D01*
X134405Y326890D01*
X130750Y327371D01*
X127095Y326890D01*
X123690Y325479D01*
X120765Y323235D01*
X120069Y322328D01*
X101510D01*
X94169Y329669D01*
X92289Y331111D01*
X91382Y331487D01*
X90099Y332018D01*
X87750Y332328D01*
X53205D01*
X51908Y333908D01*
X49624Y335782D01*
X47018Y337175D01*
X44191Y338033D01*
X41250Y338322D01*
D02*
G37*
G36*
X368250Y324000D02*
X364402D01*
Y323265D01*
X364791Y321308D01*
X365899Y319649D01*
X367558Y318541D01*
X368250Y318403D01*
Y324000D01*
D02*
G37*
G36*
X317800Y418500D02*
X308273D01*
X308365Y417802D01*
X309600Y414822D01*
X311563Y412263D01*
X314122Y410300D01*
X317102Y409065D01*
X317800Y408973D01*
Y418500D01*
D02*
G37*
G36*
X251250Y430750D02*
X240967D01*
X241085Y429856D01*
X242395Y426694D01*
X244478Y423978D01*
X247194Y421894D01*
X250356Y420585D01*
X251250Y420467D01*
Y430750D01*
D02*
G37*
G36*
X118750Y411533D02*
X117856Y411415D01*
X114694Y410106D01*
X111978Y408022D01*
X109895Y405306D01*
X108585Y402144D01*
X108467Y401250D01*
X118750D01*
Y411533D01*
D02*
G37*
G36*
X123750D02*
Y401250D01*
X134033D01*
X133915Y402144D01*
X132605Y405306D01*
X130522Y408022D01*
X127806Y410106D01*
X124644Y411415D01*
X123750Y411533D01*
D02*
G37*
G36*
X391598Y259250D02*
X368902D01*
Y250750D01*
X391598D01*
Y259250D01*
D02*
G37*
G36*
X302016Y262000D02*
X293750D01*
Y253734D01*
X294122Y253783D01*
X296798Y254891D01*
X299095Y256655D01*
X300858Y258953D01*
X301967Y261628D01*
X302016Y262000D01*
D02*
G37*
G36*
X203500Y228000D02*
X194947D01*
X195039Y227537D01*
X195781Y226426D01*
X196392Y224953D01*
X198155Y222655D01*
X200453Y220891D01*
X203128Y219783D01*
X203500Y219734D01*
Y228000D01*
D02*
G37*
G36*
X248600Y230000D02*
X234500D01*
Y223400D01*
X243400D01*
X245390Y223796D01*
X247077Y224923D01*
X248204Y226610D01*
X248600Y228600D01*
Y230000D01*
D02*
G37*
G36*
X293750Y275266D02*
Y267000D01*
X302016D01*
X301967Y267372D01*
X300858Y270047D01*
X299095Y272345D01*
X296798Y274109D01*
X294122Y275217D01*
X293750Y275266D01*
D02*
G37*
G36*
X630100Y270623D02*
X630085D01*
X628628Y270333D01*
X627392Y269508D01*
X626585Y268300D01*
X630100D01*
Y270623D01*
D02*
G37*
G36*
X147547Y288378D02*
X69800D01*
X67450Y288068D01*
X65261Y287162D01*
X63381Y285719D01*
X39992Y262330D01*
X39750Y262362D01*
X36356Y261915D01*
X33194Y260605D01*
X30478Y258522D01*
X28395Y255806D01*
X27085Y252644D01*
X26638Y249250D01*
X27085Y245856D01*
X28395Y242694D01*
X30478Y239978D01*
X33194Y237894D01*
X36356Y236585D01*
X39750Y236138D01*
X43144Y236585D01*
X46306Y237894D01*
X49022Y239978D01*
X51105Y242694D01*
X52415Y245856D01*
X52862Y249250D01*
X52830Y249492D01*
X67077Y263739D01*
X68250Y263253D01*
Y243999D01*
X99250D01*
Y269499D01*
X100220Y270222D01*
X127250D01*
Y212499D01*
X160250D01*
Y264172D01*
X162025D01*
X163185Y262435D01*
X165183Y261101D01*
X167540Y260632D01*
X188460D01*
X190817Y261101D01*
X192815Y262435D01*
X194149Y264433D01*
X194618Y266790D01*
Y279710D01*
X194149Y282067D01*
X192815Y284065D01*
X190817Y285399D01*
X188460Y285868D01*
X167540D01*
X165183Y285399D01*
X163185Y284065D01*
X162025Y282328D01*
X157357D01*
X153966Y285719D01*
X152086Y287162D01*
X151179Y287537D01*
X149897Y288068D01*
X147547Y288378D01*
D02*
G37*
G36*
X288750Y275266D02*
X288378Y275217D01*
X285702Y274109D01*
X283405Y272345D01*
X281642Y270047D01*
X280533Y267372D01*
X280484Y267000D01*
X288750D01*
Y275266D01*
D02*
G37*
%LPD*%
D10*
X280400Y169000D02*
D03*
Y160200D02*
D03*
X444200Y503400D02*
D03*
Y512200D02*
D03*
X659800Y410700D02*
D03*
Y401900D02*
D03*
X350700Y143700D02*
D03*
Y152500D02*
D03*
D11*
X280337Y179900D02*
D03*
X271537D02*
D03*
X338600Y162286D02*
D03*
X347400D02*
D03*
X328700Y340500D02*
D03*
X337500D02*
D03*
X346300D02*
D03*
X337500D02*
D03*
X606350Y256500D02*
D03*
X615150D02*
D03*
D12*
X645800Y428000D02*
D03*
X636300D02*
D03*
X626800D02*
D03*
Y402000D02*
D03*
X645800D02*
D03*
D13*
X362700Y52000D02*
D03*
X273700D02*
D03*
D14*
X140750Y147000D02*
D03*
Y118000D02*
D03*
X232000Y232500D02*
D03*
Y203500D02*
D03*
D15*
X335750Y303500D02*
D03*
X354750D02*
D03*
X345250Y326500D02*
D03*
X380250Y303500D02*
D03*
X370750Y326500D02*
D03*
X389750D02*
D03*
X310200D02*
D03*
X319700Y303500D02*
D03*
X300700D02*
D03*
D16*
X273700Y70500D02*
D03*
Y15500D02*
D03*
X362700D02*
D03*
Y70500D02*
D03*
D17*
X334200Y71500D02*
D03*
X326200D02*
D03*
X318200D02*
D03*
X310200D02*
D03*
X302200D02*
D03*
D18*
X306000Y357750D02*
D03*
Y376750D02*
D03*
X332000D02*
D03*
Y367250D02*
D03*
Y357750D02*
D03*
D19*
Y392250D02*
D03*
X348000D02*
D03*
X300750Y342250D02*
D03*
X316750D02*
D03*
X197700Y63300D02*
D03*
X213700D02*
D03*
D20*
X331200Y41250D02*
D03*
X305200D02*
D03*
X324700D02*
D03*
X311700D02*
D03*
X318200D02*
D03*
D21*
X358200Y14750D02*
D03*
X278200D02*
D03*
D22*
X444200Y445500D02*
D03*
D23*
X459200Y460500D02*
D03*
X429200D02*
D03*
D24*
X352500Y353000D02*
D03*
Y369000D02*
D03*
X226200Y97401D02*
D03*
Y81400D02*
D03*
Y135401D02*
D03*
Y119401D02*
D03*
X241250Y281500D02*
D03*
Y265500D02*
D03*
X264300Y348500D02*
D03*
Y332500D02*
D03*
X279300D02*
D03*
Y348500D02*
D03*
D25*
X452000Y215700D02*
D03*
X429000Y206200D02*
D03*
Y225200D02*
D03*
D26*
X218000Y27750D02*
D03*
X178000D02*
D03*
Y273250D02*
D03*
X218000D02*
D03*
D27*
X118500Y27750D02*
D03*
Y67750D02*
D03*
D28*
X632600Y257300D02*
D03*
Y265800D02*
D03*
X688300Y330900D02*
D03*
Y339400D02*
D03*
X632600Y257300D02*
D03*
Y265800D02*
D03*
X688300Y330900D02*
D03*
Y339400D02*
D03*
D29*
X390200Y292900D02*
D03*
Y283900D02*
D03*
D30*
X688300Y230900D02*
D03*
Y236400D02*
D03*
X688300Y236400D02*
D03*
Y230900D02*
D03*
D31*
X311100Y103700D02*
D03*
Y116400D02*
D03*
Y129100D02*
D03*
Y141800D02*
D03*
Y154500D02*
D03*
Y167200D02*
D03*
Y179900D02*
D03*
X365100D02*
D03*
Y167200D02*
D03*
Y154500D02*
D03*
Y141800D02*
D03*
Y129100D02*
D03*
Y116400D02*
D03*
Y103700D02*
D03*
D32*
X365200Y90400D02*
D03*
X356200D02*
D03*
X289200Y141600D02*
D03*
X280200D02*
D03*
X617100Y380300D02*
D03*
X626100D02*
D03*
X398500Y9100D02*
D03*
X389500D02*
D03*
X450700Y136500D02*
D03*
X441700D02*
D03*
D33*
X378000Y429250D02*
D03*
Y413250D02*
D03*
D34*
X172150Y81400D02*
D03*
X184850D02*
D03*
X197550D02*
D03*
X210246D02*
D03*
Y135400D02*
D03*
X197550D02*
D03*
X184850D02*
D03*
X172150D02*
D03*
D35*
X380250Y209750D02*
D03*
Y261750D02*
D03*
X206000Y192000D02*
D03*
Y244000D02*
D03*
D36*
X317500Y392500D02*
D03*
X301500D02*
D03*
X357600Y287500D02*
D03*
X373600D02*
D03*
X341600D02*
D03*
X357600D02*
D03*
D37*
X499700Y122400D02*
D03*
Y71600D02*
D03*
X247700D02*
D03*
Y97000D02*
D03*
Y122400D02*
D03*
X499700Y97000D02*
D03*
D38*
X395500Y415250D02*
D03*
Y436250D02*
D03*
D39*
X177800Y156800D02*
D03*
X197800D02*
D03*
D40*
X681400Y263250D02*
D03*
Y249750D02*
D03*
D41*
X683700Y256500D02*
D03*
X679100D02*
D03*
D42*
X429250Y463000D02*
D03*
D43*
X430250Y513000D02*
D03*
D44*
X459250Y533000D02*
D03*
Y468022D02*
D03*
D45*
X470000Y213500D02*
D03*
Y202500D02*
D03*
Y191500D02*
D03*
Y180500D02*
D03*
Y169500D02*
D03*
Y158500D02*
D03*
Y147500D02*
D03*
Y136500D02*
D03*
Y125500D02*
D03*
X567000D02*
D03*
Y136500D02*
D03*
Y147500D02*
D03*
Y158500D02*
D03*
Y169500D02*
D03*
Y180500D02*
D03*
Y191500D02*
D03*
Y202500D02*
D03*
Y213500D02*
D03*
D46*
X392901Y161850D02*
D03*
Y136450D02*
D03*
Y111050D02*
D03*
Y85650D02*
D03*
Y60250D02*
D03*
Y34850D02*
D03*
X542901D02*
D03*
Y60250D02*
D03*
Y85650D02*
D03*
Y111050D02*
D03*
Y136450D02*
D03*
Y161850D02*
D03*
D47*
X601950Y151450D02*
D03*
Y121450D02*
D03*
D48*
X586950Y136450D02*
D03*
D49*
X434200Y256400D02*
D03*
X444200D02*
D03*
X454200D02*
D03*
X464200D02*
D03*
X474200D02*
D03*
X484200D02*
D03*
X494200D02*
D03*
X504200D02*
D03*
X514200D02*
D03*
X524200D02*
D03*
X534200D02*
D03*
X544200D02*
D03*
X554200D02*
D03*
X564200D02*
D03*
X574200D02*
D03*
Y414400D02*
D03*
X564200D02*
D03*
X554200D02*
D03*
X544200D02*
D03*
X534200D02*
D03*
X524200D02*
D03*
X514200D02*
D03*
X504200D02*
D03*
X494200D02*
D03*
X484200D02*
D03*
X474200D02*
D03*
X464200D02*
D03*
X454200D02*
D03*
X444200D02*
D03*
X434200D02*
D03*
D50*
X596700Y280400D02*
D03*
Y290400D02*
D03*
Y300400D02*
D03*
Y310400D02*
D03*
Y320400D02*
D03*
Y330400D02*
D03*
Y340400D02*
D03*
Y350400D02*
D03*
Y360400D02*
D03*
Y370400D02*
D03*
Y380400D02*
D03*
Y390400D02*
D03*
X411700D02*
D03*
Y380400D02*
D03*
Y370400D02*
D03*
Y360400D02*
D03*
Y350400D02*
D03*
Y340400D02*
D03*
Y330400D02*
D03*
Y320400D02*
D03*
Y310400D02*
D03*
Y300400D02*
D03*
Y290400D02*
D03*
Y280400D02*
D03*
D51*
X552220Y397100D02*
X577500D01*
X515700Y360580D02*
X552220Y397100D01*
X515700Y350964D02*
Y360580D01*
X161600Y427350D02*
X189500Y455250D01*
X161600Y414100D02*
Y427350D01*
X220750Y354100D02*
X241850Y333000D01*
X217100Y354100D02*
X220750D01*
X524200Y466200D02*
X532800Y474800D01*
X507400D02*
X514200Y468000D01*
X459200Y507300D02*
Y523100D01*
X624600Y474600D02*
Y492750D01*
X459250D02*
X624600D01*
Y507300D02*
Y525400D01*
X444200Y500000D02*
X650000D01*
X464200Y400500D02*
Y414400D01*
X408700Y415250D02*
X410700Y413250D01*
X395500Y415250D02*
X408700D01*
X574200Y256400D02*
X574300Y256500D01*
X450700Y136500D02*
Y154300D01*
X454900Y158500D01*
X470000D01*
X450700Y136500D02*
X470000D01*
X450700Y136500D02*
X450700Y136500D01*
X392901Y60250D02*
Y85650D01*
X429600Y235400D02*
X434200Y240000D01*
Y256400D01*
X444200Y239800D02*
X448600Y235400D01*
X444200Y239800D02*
Y256400D01*
X449600Y277100D02*
X454200Y272500D01*
X464200Y272700D02*
X468600Y277100D01*
X464200Y256400D02*
Y272700D01*
X454200Y256400D02*
Y272500D01*
X615150Y256500D02*
X678150D01*
X678150Y256500D01*
X429250Y458045D02*
Y468045D01*
Y458045D02*
Y463045D01*
Y458045D02*
Y468045D01*
X205250Y543000D02*
X210250D01*
X200250D02*
X220250D01*
X260250Y533000D02*
X430250D01*
X260250Y523000D02*
Y533000D01*
Y523000D02*
X440250D01*
Y543000D01*
X260250Y493100D02*
Y513000D01*
X280250D01*
Y493100D02*
Y513000D01*
Y493100D02*
X300250D01*
Y513000D01*
X320250D01*
Y493100D02*
Y513000D01*
Y493100D02*
X340250D01*
Y513000D01*
X360250D01*
Y493100D02*
Y513000D01*
Y493100D02*
X380250D01*
Y513000D01*
X400250D01*
Y493000D02*
Y513000D01*
Y493000D02*
X420250D01*
Y513000D01*
X245250Y493100D02*
X260250D01*
X245250D02*
Y543000D01*
X440250D01*
X429250Y458045D02*
Y468000D01*
X430250Y513000D02*
X443400D01*
X459250Y468022D02*
Y492750D01*
X210246Y66754D02*
Y81400D01*
Y66754D02*
X213700Y63300D01*
X210246Y81400D02*
X226200D01*
X213700Y32050D02*
Y63300D01*
Y32050D02*
X218000Y27750D01*
X172150Y81400D02*
Y135400D01*
X184850D01*
X172150D02*
Y151150D01*
X177800Y156800D01*
X514200Y414400D02*
Y468000D01*
X524200Y414400D02*
Y466200D01*
X474100Y395200D02*
Y414300D01*
X474200Y414400D01*
X464100Y375700D02*
Y400500D01*
X397700Y350400D02*
X411700D01*
X393300Y354800D02*
X397700Y350400D01*
X393300Y354800D02*
Y413050D01*
X395500Y415250D01*
X563400Y330400D02*
X596700D01*
X596700Y300400D02*
X614500D01*
X596700Y300400D02*
X596700Y300400D01*
X596700Y280400D02*
X616100D01*
X616100Y280400D01*
X645800Y421000D02*
Y428000D01*
X637700Y412900D02*
X645800Y421000D01*
X574200Y414400D02*
X582900D01*
X596500Y428000D01*
X626800D01*
X392901Y60250D02*
X413450D01*
X417100Y56600D01*
Y17300D02*
Y56600D01*
X408900Y9100D02*
X417100Y17300D01*
X398500Y9100D02*
X408900D01*
X482900Y71600D02*
X499700D01*
X247700Y56400D02*
Y71600D01*
X499700D02*
X512600D01*
X524400Y83400D01*
Y145213D01*
X575500Y300400D02*
X596700D01*
X569570Y294470D02*
X575500Y300400D01*
X561500Y294470D02*
X569570D01*
X470000Y158500D02*
X484400D01*
X494250Y168350D01*
Y176000D01*
X499700Y122400D02*
Y152300D01*
X544200Y196800D01*
Y220533D01*
X311100Y116400D02*
X326900D01*
X318200Y67250D02*
Y71500D01*
X310200Y67250D02*
Y71500D01*
X326200Y67250D02*
Y71500D01*
X365100Y90500D02*
Y103700D01*
Y90500D02*
X365200Y90400D01*
X338500Y98150D02*
Y106983D01*
X351300Y119783D01*
X352600Y107400D02*
X356300Y103700D01*
X365100D01*
X289200Y141600D02*
X310900D01*
X311100Y141800D01*
X326200Y71500D02*
Y83000D01*
X338500Y95300D01*
Y98150D01*
X318200Y71500D02*
Y85100D01*
X326900Y93800D01*
Y116400D01*
X302200Y71500D02*
Y81008D01*
X311600Y95200D02*
Y103200D01*
X311100Y103700D02*
X311600Y103200D01*
X351300Y119783D02*
Y130900D01*
X362200Y141800D01*
X365100D01*
X327200Y140100D02*
Y153658D01*
X335829Y162286D01*
X338600D01*
X271500Y111708D02*
X302200Y81008D01*
X271500Y184050D02*
X285950Y198500D01*
X377999Y335601D02*
Y353050D01*
Y335601D02*
X381350Y332250D01*
Y318150D02*
Y332250D01*
Y318150D02*
X389100Y310400D01*
X411700D01*
Y320400D01*
X443600D01*
X352550Y353050D02*
X377999D01*
X352500Y353000D02*
X352550Y353050D01*
X389800Y326550D02*
Y337600D01*
X389750Y326500D02*
X389800Y326550D01*
X397700Y300400D02*
X411700D01*
X390200Y292900D02*
X397700Y300400D01*
X370650Y303500D02*
X380250D01*
X357600Y290450D02*
X370650Y303500D01*
X357600Y287500D02*
Y290450D01*
X335750Y301090D02*
Y303500D01*
X325800Y291140D02*
X335750Y301090D01*
X368549Y369000D02*
X377999Y378450D01*
X352500Y369000D02*
X368549D01*
X332000Y376750D02*
X344750D01*
X352500Y369000D01*
X344750Y376750D02*
Y379450D01*
X348000Y382700D01*
Y392250D01*
X288200Y348500D02*
X297450Y357750D01*
X306000D01*
X264300Y348500D02*
X279300D01*
X288200D01*
X279300Y332500D02*
X291000D01*
X300750Y342250D01*
X253750Y313250D02*
X289150D01*
X306000Y375100D02*
Y376750D01*
X301500Y381250D02*
Y392500D01*
Y381250D02*
X306000Y376750D01*
X352500Y349900D02*
Y353000D01*
Y349900D02*
X357000Y345400D01*
Y340500D02*
Y345400D01*
X346300Y340500D02*
X357000D01*
X305850Y376750D02*
X306000D01*
X298000Y368900D02*
X305850Y376750D01*
X289150Y313250D02*
X302400Y326500D01*
X310200D01*
X328700Y340500D02*
Y354450D01*
X332000Y357750D01*
X345250Y319100D02*
Y326500D01*
X310200Y314500D02*
Y326500D01*
Y314500D02*
X340650D01*
X345250Y319100D01*
X337500Y330400D02*
Y340500D01*
X333500Y326400D02*
X337500Y330400D01*
X328700Y335035D02*
Y340500D01*
X321100Y327435D02*
X328700Y335035D01*
X321100Y325900D02*
Y327435D01*
X241850Y266100D02*
X255200D01*
X241250Y265500D02*
X241850Y266100D01*
X392901Y85650D02*
X407350D01*
X450700Y129000D01*
Y136500D01*
X311100Y179900D02*
Y180700D01*
X280400Y179963D02*
X281137Y180700D01*
X280400Y169000D02*
Y179963D01*
X281137Y180700D02*
X311100D01*
X271500Y111708D02*
Y135300D01*
Y184050D01*
X121250Y347750D02*
X193450D01*
X250060Y291140D01*
X325800D01*
X345700Y404300D02*
Y421000D01*
Y404300D02*
X348000Y402000D01*
Y392250D02*
Y402000D01*
X317500Y392800D02*
X345700Y421000D01*
X317500Y392500D02*
Y392800D01*
X345700Y421000D02*
X356800D01*
X364550Y413250D01*
X378000D01*
Y378451D02*
Y413250D01*
X377999Y378450D02*
X378000Y378451D01*
X357066Y287500D02*
X357600D01*
X341166Y303400D02*
X357066Y287500D01*
X338060Y303400D02*
X341166D01*
X335750Y301090D02*
X338060Y303400D01*
X577500Y397100D02*
X593300Y412900D01*
X637700D01*
X83140Y459712D02*
X86451Y463022D01*
X200250D01*
X205250D01*
X210250D01*
X215250D01*
X220250D01*
X422300D01*
X220250Y458045D02*
Y463022D01*
Y468000D01*
X205250Y458045D02*
Y463022D01*
Y543000D01*
X210250Y458045D02*
Y463022D01*
X200250Y458045D02*
Y463022D01*
Y543000D01*
X220250Y458045D02*
Y463022D01*
Y468000D01*
Y543000D01*
X200250Y458045D02*
X205250D01*
X215250D02*
X220250D01*
X215250D02*
Y463022D01*
Y543000D01*
X400250Y458045D02*
X420250D01*
X429200D01*
X429250D01*
X220250D02*
X400250D01*
X420250D01*
X220250Y463022D02*
X422300D01*
X429200D01*
X429250D01*
X220250Y468000D02*
X429200D01*
X429250D01*
X171300Y470700D02*
Y534000D01*
Y470700D02*
X171900Y470100D01*
X122750Y472850D02*
Y528900D01*
X121300Y471400D02*
X122750Y472850D01*
X597800Y541600D02*
X597900Y541500D01*
X682900Y368800D02*
Y448400D01*
Y368800D02*
X683900Y367800D01*
X691000Y173361D02*
Y195400D01*
Y173361D02*
X692900Y171461D01*
X692000Y124672D02*
Y147700D01*
Y124672D02*
X692272Y124400D01*
X691500Y48500D02*
Y93400D01*
Y48500D02*
X691600Y48400D01*
X691500Y8272D02*
Y29000D01*
Y8272D02*
X692272Y7500D01*
X668100D02*
X692272D01*
X667500Y8100D02*
X668100Y7500D01*
X592508Y8100D02*
X667500D01*
X592200Y7792D02*
X592508Y8100D01*
X527210Y7792D02*
X592200D01*
X527018Y7600D02*
X527210Y7792D01*
X432648Y7600D02*
X527018D01*
X431548Y8700D02*
X432648Y7600D01*
X589500Y26500D02*
Y103256D01*
Y26500D02*
X591100Y24900D01*
X587300Y176359D02*
Y186200D01*
X587400Y160000D02*
X594100Y166700D01*
Y169559D01*
Y182200D01*
X587300Y176359D02*
X594100Y169559D01*
X600100Y163559D01*
X518900Y233300D02*
X575400D01*
X577900Y230800D01*
X523044Y192700D02*
Y228867D01*
X513544Y183200D02*
X523044Y192700D01*
X508160Y183200D02*
X513544D01*
X607640Y237724D02*
X627124D01*
X629200Y239800D01*
X629463Y276119D02*
Y347693D01*
X629200Y347956D02*
X629463Y347693D01*
X631700Y349400D02*
X689400D01*
X689700Y349100D01*
X6700Y12587D02*
Y529600D01*
X11100Y534000D01*
X16500Y236800D02*
Y427400D01*
Y236800D02*
X19000Y234300D01*
X16800Y89600D02*
Y154608D01*
X12700Y85500D02*
X16800Y89600D01*
X10200Y182200D02*
X62537D01*
X63769Y180968D01*
X62800Y98300D02*
Y161000D01*
Y98300D02*
X65400Y95700D01*
X93900Y98800D02*
Y153400D01*
Y98800D02*
X95500Y97200D01*
X159200Y55350D02*
Y103600D01*
X157000Y53150D02*
X159200Y55350D01*
X173500Y59200D02*
Y61100D01*
X162400Y48100D02*
X173500Y59200D01*
X184900Y105600D02*
X206700D01*
X208400Y103900D01*
X184500Y97100D02*
X210700D01*
X210900Y92800D02*
X211300Y92400D01*
X210900Y92800D02*
Y96900D01*
Y110900D01*
X210700Y97100D02*
X210900Y96900D01*
X211100Y96700D01*
X543988Y447700D02*
X682200D01*
X682900Y448400D01*
X693400Y370000D02*
Y531200D01*
X694000Y531800D01*
X587700Y543800D02*
X692100D01*
X585500Y541600D02*
X587700Y543800D01*
X479800Y541600D02*
X585500D01*
X597800D01*
X599300Y507600D02*
Y531300D01*
X599000Y507300D02*
X599300Y507600D01*
X459200Y507300D02*
X599000D01*
X624600D01*
X656100Y410700D02*
X659800D01*
X645800Y421000D02*
X656100Y410700D01*
X121250Y398750D02*
X189950D01*
X211300Y420100D02*
X228100D01*
X243600Y404600D01*
X269000D01*
Y419800D01*
X286100Y436900D01*
X210250Y399634D02*
X216700Y393184D01*
X210250Y399634D02*
Y419050D01*
Y458045D01*
Y458045D01*
Y463022D01*
Y475600D01*
X189950Y398750D02*
X210250Y419050D01*
X211300Y420100D01*
X210250Y463022D02*
Y475600D01*
Y543000D01*
X205250Y458045D02*
X210250D01*
X215250D01*
X357942Y325600D02*
X358842Y326500D01*
X360013D01*
X370750D01*
Y335350D01*
X367300Y338800D02*
X370750Y335350D01*
X357942Y318542D02*
Y325600D01*
X354750Y315350D02*
X357942Y318542D01*
X354750Y303500D02*
Y315350D01*
X641400Y227600D02*
X651205D01*
X354700Y179900D02*
X365100D01*
X348200Y186400D02*
X354700Y179900D01*
X331900Y261800D02*
X357600Y287500D01*
X324900Y261800D02*
X331900D01*
D52*
X555687Y375300D02*
X571400D01*
X540418Y316717D02*
Y360031D01*
X558172Y369300D02*
X567700D01*
X547000Y358128D02*
X558172Y369300D01*
X547000Y294500D02*
Y358128D01*
X540418Y360031D02*
X555687Y375300D01*
X310200Y54450D02*
X311700Y52950D01*
X310200Y54450D02*
Y67250D01*
X310200Y67250D01*
X311700Y41250D02*
Y52950D01*
Y37000D02*
Y41250D01*
X318200D02*
Y67250D01*
Y37000D02*
Y41250D01*
X326200Y67250D02*
X326300Y67150D01*
X324700Y37000D02*
Y41250D01*
X326300Y54750D02*
Y67150D01*
X324700Y53150D02*
X326300Y54750D01*
X324700Y41250D02*
Y53150D01*
X582000Y360400D02*
X596700D01*
X579100Y357500D02*
X582000Y360400D01*
X579100Y343500D02*
Y357500D01*
X582200Y340400D02*
X596700D01*
X579100Y343500D02*
X582200Y340400D01*
X534200Y397100D02*
X534200Y397100D01*
X384250Y85650D02*
X392901D01*
X596800Y380300D02*
X617100D01*
X596700Y370400D02*
X610200D01*
X614400Y366200D01*
X596700Y350400D02*
X610100D01*
X614400Y354700D01*
Y366200D01*
X557600Y320400D02*
X596700D01*
X567700Y310400D02*
X596700D01*
X563800Y306500D02*
X567700Y310400D01*
X484200Y414400D02*
Y440000D01*
X480900Y443300D02*
X484200Y440000D01*
X480900Y468300D02*
X494400Y454800D01*
Y414600D02*
Y454800D01*
X626800Y402000D02*
X645800D01*
X617100Y392300D02*
X626800Y402000D01*
X617100Y380300D02*
Y392300D01*
X247700Y85350D02*
Y97000D01*
Y110900D02*
Y122400D01*
X504200Y298772D02*
Y414400D01*
Y298772D02*
X519172Y283800D01*
X571700D01*
X450100Y108600D02*
X466856D01*
X477856Y97600D01*
X547000Y294500D02*
X547500Y294000D01*
X571900Y349600D02*
Y365100D01*
X563400Y341100D02*
X571900Y349600D01*
X563400Y330400D02*
Y341100D01*
X365100Y167200D02*
X372900D01*
X378250Y161850D01*
X392901D01*
X365100Y154500D02*
X376000D01*
X470000Y202500D02*
Y202500D01*
X446800Y202500D02*
X470000D01*
X459500Y191500D02*
X470000D01*
X456800Y194200D02*
X459500Y191500D01*
X447950Y194200D02*
X456800D01*
X462250Y225950D02*
X495200D01*
X454350Y218050D02*
X462250Y225950D01*
X474200D02*
Y256400D01*
X452000Y215700D02*
X454350Y218050D01*
X438800Y194500D02*
X446800Y202500D01*
X420450Y194500D02*
X438800D01*
X405725Y179775D02*
X420450Y194500D01*
X439400Y185650D02*
X447950Y194200D01*
X439400Y180500D02*
Y185650D01*
X420750Y161850D02*
X439400Y180500D01*
X392901Y161850D02*
X420750D01*
X376000Y154500D02*
X382175Y148325D01*
X405725D01*
X392901Y136450D02*
Y148325D01*
X352700Y154500D02*
X365100D01*
X353800Y167200D02*
X365100D01*
X348886Y162286D02*
X353800Y167200D01*
X347400Y162286D02*
X348886D01*
X310200Y71500D02*
Y82200D01*
X350700Y152500D02*
X352700Y154500D01*
X342100Y135100D02*
X350700Y143700D01*
X334928Y135100D02*
X342100D01*
X328928Y129100D02*
X334928Y135100D01*
X311100Y129100D02*
X328928D01*
X326200Y187350D02*
X338500Y199650D01*
X311100Y154500D02*
X318850D01*
X338500Y174150D01*
X311100Y167200D02*
X322100D01*
X326200Y171300D01*
Y187350D01*
X295964Y96436D02*
X310200Y82200D01*
X304600Y129100D02*
X311100D01*
X302200Y53100D02*
X305200Y50100D01*
X302200Y53100D02*
Y71500D01*
X331200Y41250D02*
Y49667D01*
X334200Y52667D01*
Y71500D01*
X344200D01*
X344300Y71400D01*
X361800D01*
X362700Y70500D01*
X295964Y96436D02*
Y120464D01*
X304600Y129100D01*
X210246Y121754D02*
Y135400D01*
Y121754D02*
X212599Y119401D01*
X226200D01*
Y97401D02*
Y119401D01*
X271399Y135401D02*
X271500Y135300D01*
X226200Y135401D02*
Y146400D01*
X226500Y146700D01*
X380250Y261750D02*
Y280850D01*
X373600Y287500D02*
X380250Y280850D01*
X383300Y283900D02*
X390200D01*
X380250Y280850D02*
X383300Y283900D01*
X389907Y235250D02*
X399957Y225200D01*
X380750Y235250D02*
X389907D01*
X380250Y235750D02*
X380750Y235250D01*
X293600Y239500D02*
X297350Y235750D01*
X380250D01*
X331800Y287500D02*
X341600D01*
X322300Y278000D02*
X331800Y287500D01*
X553000Y351400D02*
X561600Y360000D01*
X553000Y325000D02*
Y351400D01*
Y325000D02*
X557600Y320400D01*
X519700Y296000D02*
X540418Y316717D01*
X319200Y355300D02*
Y367050D01*
X319000Y367250D02*
X319200Y367050D01*
X314000Y367250D02*
X319000D01*
X332000D01*
X319200Y344700D02*
Y355300D01*
X316750Y342250D02*
X319200Y344700D01*
X319000Y379250D02*
X332000Y392250D01*
X319000Y367250D02*
Y379250D01*
X399957Y225200D02*
X413250D01*
X429000D01*
X413250D02*
Y256550D01*
X469600Y312900D02*
Y359600D01*
X413250Y256550D02*
X469600Y312900D01*
X576500Y380400D02*
X596700D01*
X571400Y375300D02*
X576500Y380400D01*
X567700Y369300D02*
X571900Y365100D01*
X561500Y385100D02*
X566800Y390400D01*
X596372D02*
X596700D01*
X598573Y392600D02*
X610300D01*
X596372Y390400D02*
X598573Y392600D01*
X566800Y390400D02*
X596372D01*
X280400Y150300D02*
Y160200D01*
Y150300D02*
X280600Y150100D01*
X280200Y141600D02*
Y150100D01*
X280400Y150300D01*
X206000Y230500D02*
Y244000D01*
X210745Y230500D02*
X210945Y230700D01*
X213900D01*
X214000Y230800D01*
X215800D01*
X218100Y229900D02*
X220700Y232500D01*
X217924Y229900D02*
X218100D01*
X217924D02*
X220524Y232500D01*
X206000Y230500D02*
X210745D01*
X206000Y244000D02*
X217500Y232500D01*
X220524D01*
X220700D02*
X232000D01*
X215800Y230800D02*
X217500Y232500D01*
X220524D02*
X220700D01*
X300700Y303500D02*
X309300D01*
X309500Y303700D01*
X271600Y301600D02*
Y305389D01*
Y301600D02*
X275560Y297640D01*
X299441Y277641D02*
Y280700D01*
Y277641D02*
X312457Y264625D01*
Y250443D02*
Y264625D01*
Y250443D02*
X314000Y248900D01*
X325674D01*
X337500Y223200D02*
X337800Y222900D01*
X327512Y209466D02*
X332746Y214700D01*
X313222Y191500D02*
X316561Y194839D01*
Y209466D01*
Y223200D01*
X308100Y209466D02*
X316561D01*
X327512D01*
X302100Y223200D02*
X316561D01*
X225300Y218000D02*
X246000D01*
X222409Y220891D02*
X225300Y218000D01*
X190010Y219400D02*
X191501Y220891D01*
X182400Y219400D02*
X190010D01*
X182200Y219200D02*
X182400Y219400D01*
X171000Y230400D02*
Y246493D01*
X173008Y248500D01*
X191501Y220891D02*
X222409D01*
X172200Y181600D02*
X181300Y190700D01*
Y220100D01*
Y246000D01*
X171000Y230400D02*
X181300Y220100D01*
X182200Y219200D01*
X158100Y160500D02*
Y199800D01*
X156900Y201000D02*
X158100Y199800D01*
X113400Y214600D02*
Y263600D01*
X113700Y263900D01*
X150000Y331487D02*
X177113D01*
X165700Y302000D02*
X166800Y303100D01*
X205500D01*
X213800D01*
X177113Y331487D02*
X205500Y303100D01*
X206500Y302100D01*
X155900Y320335D02*
Y322300D01*
Y320335D02*
X166640Y309595D01*
X176700D01*
X243135Y155000D02*
X263282D01*
X258200Y149918D02*
X263282Y155000D01*
X258200Y147969D02*
Y149918D01*
X252209Y141978D02*
X258200Y147969D01*
X241700Y141978D02*
X252209D01*
X280200Y121065D02*
Y141600D01*
Y121065D02*
X285165Y116100D01*
X227400Y51600D02*
Y70900D01*
Y51600D02*
X247100Y31900D01*
Y9400D02*
Y31900D01*
Y9400D02*
X247300Y9200D01*
X74863Y7963D02*
X236800D01*
X73100Y6200D02*
X74863Y7963D01*
X151573Y92500D02*
X151900Y92173D01*
X301033Y14500D02*
X336119D01*
X336400Y14781D01*
X383850Y19300D02*
X401400D01*
X401900Y19800D01*
X435033Y12367D02*
Y71200D01*
Y12367D02*
X435500Y11900D01*
X440280Y13500D02*
X516539D01*
X436780Y10000D02*
X440280Y13500D01*
X472500Y52200D02*
X481951D01*
X502051Y54151D02*
X517100D01*
X470800Y22900D02*
X491025Y43125D01*
X502051Y54151D01*
X481951Y52200D02*
X491025Y43125D01*
X512443Y21708D01*
X420300Y72000D02*
X456084D01*
X462784Y78700D01*
X412200Y113900D02*
Y129886D01*
X429647Y133741D02*
Y136400D01*
X416000Y120094D02*
X429647Y133741D01*
X446600Y164286D02*
Y169900D01*
X412200Y129886D02*
X446600Y164286D01*
X383489Y178300D02*
X412800Y207611D01*
Y209880D01*
X340193Y217137D02*
X362100Y195230D01*
X340193Y217137D02*
Y221569D01*
X316561Y223200D02*
X337500D01*
X365261Y247511D02*
Y261889D01*
X354949Y272200D02*
X365261Y261889D01*
X396957Y248744D02*
Y269800D01*
Y248744D02*
X404435Y241266D01*
X360013Y323221D02*
X367800Y315434D01*
X490079Y280121D02*
Y391454D01*
Y280121D02*
X490400Y279800D01*
X431250Y379391D02*
Y394600D01*
X453000Y332100D02*
Y357641D01*
X452600Y331700D02*
X453000Y332100D01*
X452600Y325000D02*
Y331700D01*
Y325000D02*
X456100Y321500D01*
Y315616D02*
Y321500D01*
X448800Y308316D02*
X456100Y315616D01*
X448800Y306150D02*
Y308316D01*
X442750Y300100D02*
X448800Y306150D01*
X439812Y300100D02*
X442750D01*
X433212Y293500D02*
X439812Y300100D01*
X433212Y293500D02*
Y303188D01*
X430800Y305600D02*
X433212Y303188D01*
X435360Y331932D02*
X435654Y332225D01*
Y374987D02*
Y381100D01*
X431250Y379391D02*
X435654Y374987D01*
X453000Y357641D01*
X645800Y402000D02*
X659700D01*
X659800Y401900D01*
X360013Y326500D02*
Y326900D01*
Y323221D02*
Y326500D01*
X305200Y37085D02*
Y41250D01*
X303365Y35250D02*
X305200Y37085D01*
X299200Y35250D02*
X303365D01*
X305396Y41254D02*
X305400Y41050D01*
X305200Y50100D02*
X305396Y41254D01*
X454200Y414400D02*
X455600Y413000D01*
X454200Y401700D02*
Y414400D01*
Y401700D02*
X455600Y400300D01*
Y413000D01*
X454475Y386409D02*
Y392675D01*
X455600Y393800D01*
Y400300D01*
X435654Y332225D02*
Y374987D01*
D53*
X444200Y500000D02*
Y503350D01*
Y445500D02*
Y500000D01*
X444200Y414400D02*
Y445500D01*
Y396900D02*
Y414400D01*
Y445500D02*
X444200Y445500D01*
X534200Y397100D02*
Y414400D01*
X605650Y187250D02*
X651750D01*
X593600Y199300D02*
X605650Y187250D01*
X593600Y199300D02*
Y256500D01*
X604100D01*
X574300D02*
X593600D01*
X542901Y136500D02*
X651700D01*
X651750Y136450D01*
X494200Y414400D02*
X494400Y414600D01*
X454200Y414400D02*
Y428072D01*
X457028Y430900D01*
X470000Y213500D02*
X482249D01*
X495200Y200550D01*
D54*
X688300Y236400D02*
Y240000D01*
Y236400D02*
Y240000D01*
X686413Y241887D02*
X688300Y240000D01*
X686413Y241887D02*
Y244213D01*
X687100Y244900D01*
X688100D01*
X688600Y244400D02*
X690300D01*
Y243100D02*
Y244400D01*
X688300Y241100D02*
X690300Y243100D01*
X688300Y244700D02*
Y247000D01*
Y240000D02*
Y241100D01*
Y244700D01*
X688100Y244900D02*
X688300Y244700D01*
X688600Y244400D01*
X681400Y262143D02*
X681757Y262500D01*
X690100D01*
X684520Y326328D02*
X684915Y326724D01*
Y331932D02*
X691900D01*
Y323900D02*
Y331932D01*
X684915Y326724D02*
Y331932D01*
D55*
X678150Y256500D02*
X679100D01*
X627200D02*
X678150D01*
X443400Y513000D02*
X444200Y512200D01*
D56*
X685550Y249750D02*
X688300Y247000D01*
X681400Y263250D02*
X685350D01*
X688300Y266200D01*
Y306200D01*
X681739Y230332D02*
X687732D01*
X688300Y230900D01*
X693100Y227600D02*
X693500Y227200D01*
X685000Y227600D02*
X693100D01*
X651205D02*
X685000D01*
X681400Y249750D02*
X683303D01*
X684053Y250500D01*
X691880D01*
X684880Y249080D02*
X685550Y249750D01*
X681400D02*
X683303D01*
X685550D01*
X684880Y236320D02*
X691880D01*
X684880D02*
Y249080D01*
X691880Y236320D02*
Y250500D01*
X688300Y306200D02*
Y326200D01*
Y330900D01*
X693508Y339721D02*
X694587Y338641D01*
X693508Y339721D02*
Y343108D01*
X693142Y343474D02*
X693508Y343108D01*
X683640Y343474D02*
X693142D01*
X681977Y341811D02*
X683640Y343474D01*
X681977Y340415D02*
Y341811D01*
Y340415D02*
X687285D01*
X688300Y339400D01*
X690600D01*
X692700Y341500D01*
Y341796D01*
X692596Y341900D02*
X692700Y341796D01*
X682267Y341872D02*
X682294Y341900D01*
X679300Y338641D02*
X694587D01*
X682294Y341900D02*
X692596D01*
X685000Y227600D02*
X687732Y230332D01*
X694861D01*
D57*
X41250Y423250D02*
X86700D01*
X96700Y433250D01*
X130750D01*
X41250Y373250D02*
X273750D01*
X41250Y323250D02*
X87750D01*
X97750Y313250D01*
X130750D01*
X178000Y27750D02*
X178000Y27750D01*
X118500Y27750D02*
X178000D01*
X197800Y156800D02*
Y164200D01*
X206000Y172400D01*
Y192000D01*
Y205500D01*
X208000Y203500D01*
X232000D01*
X255550D01*
X260550Y198500D01*
X143750Y241499D02*
Y263403D01*
X153597Y273250D01*
X39750Y249250D02*
X69800Y279300D01*
X147547D01*
X153597Y273250D01*
X178000D01*
X285950Y198500D02*
Y234200D01*
X291250Y239500D01*
X293600D01*
X118500Y120000D02*
X120500Y118000D01*
X140750D01*
Y132500D01*
X241250Y265500D02*
X261600D01*
X287600Y239500D01*
X291250D01*
X260550Y198500D02*
Y239150D01*
X249300Y250400D02*
X260550Y239150D01*
X229600Y250400D02*
X249300D01*
X221250Y258750D02*
X229600Y250400D01*
X221250Y258750D02*
Y265490D01*
X218000D02*
Y273250D01*
Y265490D02*
X221250D01*
X118500Y67750D02*
Y120000D01*
D58*
X184850Y52150D02*
Y81400D01*
X178000Y45300D02*
X184850Y52150D01*
X178000Y27750D02*
Y45300D01*
X197550Y63450D02*
Y81400D01*
Y63450D02*
X197700Y63300D01*
D59*
X226250Y281500D02*
X241250D01*
X218000Y273250D02*
X226250Y281500D01*
X197550Y135400D02*
Y156550D01*
X197800Y156800D01*
D60*
X448600Y235400D02*
D03*
X429600D02*
D03*
X449600Y277100D02*
D03*
X468600D02*
D03*
D61*
X38000Y146250D02*
D03*
Y111250D02*
D03*
X39750Y214250D02*
D03*
Y249250D02*
D03*
D62*
X558200Y474800D02*
D03*
D63*
X532800D02*
D03*
X507400D02*
D03*
X338500Y123650D02*
D03*
Y148650D02*
D03*
Y174150D02*
D03*
Y199650D02*
D03*
X451950Y182500D02*
D03*
X426550D02*
D03*
X410700Y438250D02*
D03*
D64*
X650000Y50000D02*
D03*
X50000Y50000D02*
D03*
Y500000D02*
D03*
D65*
X340200Y45500D02*
D03*
X296200D02*
D03*
D66*
X337200Y35250D02*
D03*
X299200D02*
D03*
D67*
X121250Y347750D02*
D03*
D68*
Y373250D02*
D03*
Y398750D02*
D03*
X253750Y433250D02*
D03*
Y313250D02*
D03*
X273750Y373250D02*
D03*
X130750Y433250D02*
D03*
Y313250D02*
D03*
D69*
X624600Y525400D02*
D03*
X650000Y500000D02*
D03*
X675400Y525400D02*
D03*
Y474600D02*
D03*
X624600D02*
D03*
X626350Y212650D02*
D03*
X651750Y187250D02*
D03*
X677150Y212650D02*
D03*
X626350Y161850D02*
D03*
X651750Y136450D02*
D03*
X677150Y161850D02*
D03*
Y111050D02*
D03*
X626350D02*
D03*
D70*
X345700Y421000D02*
D03*
D71*
X320300D02*
D03*
X260550Y198500D02*
D03*
X285950D02*
D03*
X377999Y353050D02*
D03*
Y378450D02*
D03*
X495200Y225950D02*
D03*
Y200550D02*
D03*
D72*
X118500Y145000D02*
D03*
Y60250D02*
D03*
X291250Y264500D02*
D03*
X206000Y230500D02*
D03*
X380250Y248250D02*
D03*
X480900Y468300D02*
D03*
D73*
X118500Y120000D02*
D03*
Y35250D02*
D03*
X291250Y239500D02*
D03*
X206000Y205500D02*
D03*
X380250Y223250D02*
D03*
D74*
X338500Y98150D02*
D03*
D75*
X83750Y241499D02*
D03*
X143750D02*
D03*
D76*
X113750Y191499D02*
D03*
D77*
X452700Y49700D02*
D03*
X294700Y169700D02*
D03*
D78*
X41250Y423250D02*
D03*
Y373250D02*
D03*
Y323250D02*
D03*
D79*
X480900Y443300D02*
D03*
D80*
X410700Y413250D02*
D03*
D81*
X529300Y354800D02*
D03*
X543988Y447700D02*
D03*
X515800Y376500D02*
D03*
X238750Y336100D02*
D03*
X222072Y350600D02*
D03*
X444200Y396900D02*
D03*
X534200Y397100D02*
D03*
X593600Y256500D02*
D03*
X474100Y395200D02*
D03*
X464100Y375700D02*
D03*
X563400Y330400D02*
D03*
X561600Y360000D02*
D03*
X563800Y306500D02*
D03*
X616100Y280400D02*
D03*
X614500Y300400D02*
D03*
X515700Y350964D02*
D03*
X482900Y71600D02*
D03*
X247700Y56400D02*
D03*
Y110900D02*
D03*
Y85350D02*
D03*
X524400Y145213D02*
D03*
X519700Y296000D02*
D03*
X571700Y283800D02*
D03*
X561500Y294470D02*
D03*
X494250Y176000D02*
D03*
X450100Y108600D02*
D03*
X477856Y97600D02*
D03*
X544200Y220533D02*
D03*
X547500Y294000D02*
D03*
X405725Y179775D02*
D03*
Y148325D02*
D03*
X326900Y116400D02*
D03*
X352600Y107400D02*
D03*
X311600Y95200D02*
D03*
X327200Y140100D02*
D03*
X389800Y337600D02*
D03*
X298000Y368900D02*
D03*
X291000Y332500D02*
D03*
X314000Y367250D02*
D03*
X319200Y355300D02*
D03*
X321100Y325900D02*
D03*
X333500Y326400D02*
D03*
X255200Y266100D02*
D03*
X226500Y146700D02*
D03*
X140750Y132500D02*
D03*
X322300Y278000D02*
D03*
X469600Y359600D02*
D03*
X443600Y320400D02*
D03*
X561500Y385100D02*
D03*
X597800Y401700D02*
D03*
X610300Y401600D02*
D03*
X309300Y303500D02*
D03*
X271937Y301700D02*
D03*
X305000Y275700D02*
D03*
X312457Y264625D02*
D03*
X316000Y249600D02*
D03*
X308600Y220700D02*
D03*
X327507Y218400D02*
D03*
X318512Y206400D02*
D03*
X311600Y195100D02*
D03*
X160000Y330088D02*
D03*
X182600Y328300D02*
D03*
X197787Y310400D02*
D03*
X166640Y309595D02*
D03*
X178900Y237600D02*
D03*
X181100Y217500D02*
D03*
X232000Y218000D02*
D03*
X180300Y198700D02*
D03*
X175400Y180200D02*
D03*
X156400Y175600D02*
D03*
X113100Y254700D02*
D03*
X114400Y220300D02*
D03*
X240800Y153700D02*
D03*
X255647Y154000D02*
D03*
X250462Y139600D02*
D03*
X292936Y154500D02*
D03*
X285165Y116100D02*
D03*
X357942Y325600D02*
D03*
X577900Y230800D02*
D03*
X493700Y279474D02*
D03*
X482700Y278400D02*
D03*
X586200Y447900D02*
D03*
X608700Y448400D02*
D03*
X632300Y448200D02*
D03*
X656100D02*
D03*
X678600Y448000D02*
D03*
X681500Y423900D02*
D03*
X681000Y401300D02*
D03*
X681200Y379100D02*
D03*
X588700Y538900D02*
D03*
X567600Y538100D02*
D03*
X537800Y538000D02*
D03*
X505800Y538400D02*
D03*
X480900Y537000D02*
D03*
X167200Y530500D02*
D03*
X165600Y500400D02*
D03*
X166200Y471200D02*
D03*
X144000Y464500D02*
D03*
X123700Y478800D02*
D03*
X124000Y510900D02*
D03*
X94500Y464500D02*
D03*
X367300Y338800D02*
D03*
X490079Y340000D02*
D03*
X433800Y340200D02*
D03*
X433300Y390000D02*
D03*
X357600Y271200D02*
D03*
X364600Y257600D02*
D03*
X398700Y262000D02*
D03*
X400300Y246300D02*
D03*
X443600Y165600D02*
D03*
X429300Y149100D02*
D03*
X424400Y134200D02*
D03*
X414300Y117100D02*
D03*
X434900Y97200D02*
D03*
X424700Y87200D02*
D03*
X431700Y46800D02*
D03*
X432000Y28600D02*
D03*
X477856Y50500D02*
D03*
X502300Y51200D02*
D03*
X504700Y31700D02*
D03*
X476600Y29700D02*
D03*
X451200Y11800D02*
D03*
X491200Y11600D02*
D03*
X532100Y10600D02*
D03*
X572100Y11100D02*
D03*
X590500Y31900D02*
D03*
Y70300D02*
D03*
X589500Y103256D02*
D03*
X614600Y11000D02*
D03*
X688600Y83300D02*
D03*
X309300Y13200D02*
D03*
X333034Y12200D02*
D03*
X227400Y63300D02*
D03*
X233500Y45250D02*
D03*
X248100Y19800D02*
D03*
X198300Y10608D02*
D03*
X155100Y10300D02*
D03*
X206700Y105600D02*
D03*
X188700Y105500D02*
D03*
X197300Y97200D02*
D03*
X159900Y196500D02*
D03*
X94900Y143900D02*
D03*
X94200Y115600D02*
D03*
X97700Y90600D02*
D03*
X147500Y91800D02*
D03*
X17800Y143500D02*
D03*
X17100Y118200D02*
D03*
X63151Y128000D02*
D03*
X37400Y181300D02*
D03*
X16500Y236800D02*
D03*
X15600Y280300D02*
D03*
X14900Y314800D02*
D03*
Y344000D02*
D03*
X15900Y397600D02*
D03*
X158600Y396700D02*
D03*
X189950Y398750D02*
D03*
X211300Y420100D02*
D03*
X267700Y409400D02*
D03*
X370650Y303500D02*
D03*
X550000Y233300D02*
D03*
X532300Y212900D02*
D03*
X592800Y171461D02*
D03*
X348200Y186400D02*
D03*
X324900Y261800D02*
D03*
D82*
X688300Y240000D02*
D03*
Y247000D02*
D03*
Y266200D02*
D03*
Y286200D02*
D03*
Y306200D02*
D03*
Y326200D02*
D03*
M02*
