%FSLAX44Y44*%
%MOMM*%
G71*
G01*
G75*
G04 Layer_Physical_Order=2*
G04 Layer_Color=16711680*
G04:AMPARAMS|DCode=10|XSize=0.67mm|YSize=0.67mm|CornerRadius=0.1508mm|HoleSize=0mm|Usage=FLASHONLY|Rotation=90.000|XOffset=0mm|YOffset=0mm|HoleType=Round|Shape=RoundedRectangle|*
%AMROUNDEDRECTD10*
21,1,0.6700,0.3685,0,0,90.0*
21,1,0.3685,0.6700,0,0,90.0*
1,1,0.3015,0.1843,0.1843*
1,1,0.3015,0.1843,-0.1843*
1,1,0.3015,-0.1843,-0.1843*
1,1,0.3015,-0.1843,0.1843*
%
%ADD10ROUNDEDRECTD10*%
G04:AMPARAMS|DCode=11|XSize=0.67mm|YSize=0.67mm|CornerRadius=0.1508mm|HoleSize=0mm|Usage=FLASHONLY|Rotation=180.000|XOffset=0mm|YOffset=0mm|HoleType=Round|Shape=RoundedRectangle|*
%AMROUNDEDRECTD11*
21,1,0.6700,0.3685,0,0,180.0*
21,1,0.3685,0.6700,0,0,180.0*
1,1,0.3015,-0.1843,0.1843*
1,1,0.3015,0.1843,0.1843*
1,1,0.3015,0.1843,-0.1843*
1,1,0.3015,-0.1843,-0.1843*
%
%ADD11ROUNDEDRECTD11*%
G04:AMPARAMS|DCode=12|XSize=1.1mm|YSize=0.6mm|CornerRadius=0.201mm|HoleSize=0mm|Usage=FLASHONLY|Rotation=270.000|XOffset=0mm|YOffset=0mm|HoleType=Round|Shape=RoundedRectangle|*
%AMROUNDEDRECTD12*
21,1,1.1000,0.1980,0,0,270.0*
21,1,0.6980,0.6000,0,0,270.0*
1,1,0.4020,-0.0990,-0.3490*
1,1,0.4020,-0.0990,0.3490*
1,1,0.4020,0.0990,0.3490*
1,1,0.4020,0.0990,-0.3490*
%
%ADD12ROUNDEDRECTD12*%
G04:AMPARAMS|DCode=13|XSize=2.5mm|YSize=2mm|CornerRadius=0.25mm|HoleSize=0mm|Usage=FLASHONLY|Rotation=270.000|XOffset=0mm|YOffset=0mm|HoleType=Round|Shape=RoundedRectangle|*
%AMROUNDEDRECTD13*
21,1,2.5000,1.5000,0,0,270.0*
21,1,2.0000,2.0000,0,0,270.0*
1,1,0.5000,-0.7500,-1.0000*
1,1,0.5000,-0.7500,1.0000*
1,1,0.5000,0.7500,1.0000*
1,1,0.5000,0.7500,-1.0000*
%
%ADD13ROUNDEDRECTD13*%
G04:AMPARAMS|DCode=14|XSize=2.7mm|YSize=1.2mm|CornerRadius=0.21mm|HoleSize=0mm|Usage=FLASHONLY|Rotation=0.000|XOffset=0mm|YOffset=0mm|HoleType=Round|Shape=RoundedRectangle|*
%AMROUNDEDRECTD14*
21,1,2.7000,0.7800,0,0,0.0*
21,1,2.2800,1.2000,0,0,0.0*
1,1,0.4200,1.1400,-0.3900*
1,1,0.4200,-1.1400,-0.3900*
1,1,0.4200,-1.1400,0.3900*
1,1,0.4200,1.1400,0.3900*
%
%ADD14ROUNDEDRECTD14*%
G04:AMPARAMS|DCode=15|XSize=1.05mm|YSize=0.65mm|CornerRadius=0.2015mm|HoleSize=0mm|Usage=FLASHONLY|Rotation=90.000|XOffset=0mm|YOffset=0mm|HoleType=Round|Shape=RoundedRectangle|*
%AMROUNDEDRECTD15*
21,1,1.0500,0.2470,0,0,90.0*
21,1,0.6470,0.6500,0,0,90.0*
1,1,0.4030,0.1235,0.3235*
1,1,0.4030,0.1235,-0.3235*
1,1,0.4030,-0.1235,-0.3235*
1,1,0.4030,-0.1235,0.3235*
%
%ADD15ROUNDEDRECTD15*%
G04:AMPARAMS|DCode=16|XSize=2.5mm|YSize=2mm|CornerRadius=0.2mm|HoleSize=0mm|Usage=FLASHONLY|Rotation=90.000|XOffset=0mm|YOffset=0mm|HoleType=Round|Shape=RoundedRectangle|*
%AMROUNDEDRECTD16*
21,1,2.5000,1.6000,0,0,90.0*
21,1,2.1000,2.0000,0,0,90.0*
1,1,0.4000,0.8000,1.0500*
1,1,0.4000,0.8000,-1.0500*
1,1,0.4000,-0.8000,-1.0500*
1,1,0.4000,-0.8000,1.0500*
%
%ADD16ROUNDEDRECTD16*%
G04:AMPARAMS|DCode=17|XSize=2.3mm|YSize=0.5mm|CornerRadius=0.2mm|HoleSize=0mm|Usage=FLASHONLY|Rotation=90.000|XOffset=0mm|YOffset=0mm|HoleType=Round|Shape=RoundedRectangle|*
%AMROUNDEDRECTD17*
21,1,2.3000,0.1000,0,0,90.0*
21,1,1.9000,0.5000,0,0,90.0*
1,1,0.4000,0.0500,0.9500*
1,1,0.4000,0.0500,-0.9500*
1,1,0.4000,-0.0500,-0.9500*
1,1,0.4000,-0.0500,0.9500*
%
%ADD17ROUNDEDRECTD17*%
G04:AMPARAMS|DCode=18|XSize=1.1mm|YSize=0.6mm|CornerRadius=0.201mm|HoleSize=0mm|Usage=FLASHONLY|Rotation=180.000|XOffset=0mm|YOffset=0mm|HoleType=Round|Shape=RoundedRectangle|*
%AMROUNDEDRECTD18*
21,1,1.1000,0.1980,0,0,180.0*
21,1,0.6980,0.6000,0,0,180.0*
1,1,0.4020,-0.3490,0.0990*
1,1,0.4020,0.3490,0.0990*
1,1,0.4020,0.3490,-0.0990*
1,1,0.4020,-0.3490,-0.0990*
%
%ADD18ROUNDEDRECTD18*%
G04:AMPARAMS|DCode=19|XSize=1mm|YSize=0.95mm|CornerRadius=0.1995mm|HoleSize=0mm|Usage=FLASHONLY|Rotation=270.000|XOffset=0mm|YOffset=0mm|HoleType=Round|Shape=RoundedRectangle|*
%AMROUNDEDRECTD19*
21,1,1.0000,0.5510,0,0,270.0*
21,1,0.6010,0.9500,0,0,270.0*
1,1,0.3990,-0.2755,-0.3005*
1,1,0.3990,-0.2755,0.3005*
1,1,0.3990,0.2755,0.3005*
1,1,0.3990,0.2755,-0.3005*
%
%ADD19ROUNDEDRECTD19*%
%ADD20R,0.4000X1.4000*%
G04:AMPARAMS|DCode=21|XSize=1.8mm|YSize=1.9mm|CornerRadius=0.45mm|HoleSize=0mm|Usage=FLASHONLY|Rotation=0.000|XOffset=0mm|YOffset=0mm|HoleType=Round|Shape=RoundedRectangle|*
%AMROUNDEDRECTD21*
21,1,1.8000,1.0000,0,0,0.0*
21,1,0.9000,1.9000,0,0,0.0*
1,1,0.9000,0.4500,-0.5000*
1,1,0.9000,-0.4500,-0.5000*
1,1,0.9000,-0.4500,0.5000*
1,1,0.9000,0.4500,0.5000*
%
%ADD21ROUNDEDRECTD21*%
G04:AMPARAMS|DCode=22|XSize=0.7mm|YSize=1mm|CornerRadius=0.175mm|HoleSize=0mm|Usage=FLASHONLY|Rotation=180.000|XOffset=0mm|YOffset=0mm|HoleType=Round|Shape=RoundedRectangle|*
%AMROUNDEDRECTD22*
21,1,0.7000,0.6500,0,0,180.0*
21,1,0.3500,1.0000,0,0,180.0*
1,1,0.3500,-0.1750,0.3250*
1,1,0.3500,0.1750,0.3250*
1,1,0.3500,0.1750,-0.3250*
1,1,0.3500,-0.1750,-0.3250*
%
%ADD22ROUNDEDRECTD22*%
G04:AMPARAMS|DCode=23|XSize=0.8mm|YSize=2mm|CornerRadius=0.2mm|HoleSize=0mm|Usage=FLASHONLY|Rotation=180.000|XOffset=0mm|YOffset=0mm|HoleType=Round|Shape=RoundedRectangle|*
%AMROUNDEDRECTD23*
21,1,0.8000,1.6000,0,0,180.0*
21,1,0.4000,2.0000,0,0,180.0*
1,1,0.4000,-0.2000,0.8000*
1,1,0.4000,0.2000,0.8000*
1,1,0.4000,0.2000,-0.8000*
1,1,0.4000,-0.2000,-0.8000*
%
%ADD23ROUNDEDRECTD23*%
G04:AMPARAMS|DCode=24|XSize=1mm|YSize=0.9mm|CornerRadius=0.198mm|HoleSize=0mm|Usage=FLASHONLY|Rotation=180.000|XOffset=0mm|YOffset=0mm|HoleType=Round|Shape=RoundedRectangle|*
%AMROUNDEDRECTD24*
21,1,1.0000,0.5040,0,0,180.0*
21,1,0.6040,0.9000,0,0,180.0*
1,1,0.3960,-0.3020,0.2520*
1,1,0.3960,0.3020,0.2520*
1,1,0.3960,0.3020,-0.2520*
1,1,0.3960,-0.3020,-0.2520*
%
%ADD24ROUNDEDRECTD24*%
G04:AMPARAMS|DCode=25|XSize=1.05mm|YSize=0.65mm|CornerRadius=0.2015mm|HoleSize=0mm|Usage=FLASHONLY|Rotation=0.000|XOffset=0mm|YOffset=0mm|HoleType=Round|Shape=RoundedRectangle|*
%AMROUNDEDRECTD25*
21,1,1.0500,0.2470,0,0,0.0*
21,1,0.6470,0.6500,0,0,0.0*
1,1,0.4030,0.3235,-0.1235*
1,1,0.4030,-0.3235,-0.1235*
1,1,0.4030,-0.3235,0.1235*
1,1,0.4030,0.3235,0.1235*
%
%ADD25ROUNDEDRECTD25*%
G04:AMPARAMS|DCode=26|XSize=2.5mm|YSize=1.7mm|CornerRadius=0.204mm|HoleSize=0mm|Usage=FLASHONLY|Rotation=0.000|XOffset=0mm|YOffset=0mm|HoleType=Round|Shape=RoundedRectangle|*
%AMROUNDEDRECTD26*
21,1,2.5000,1.2920,0,0,0.0*
21,1,2.0920,1.7000,0,0,0.0*
1,1,0.4080,1.0460,-0.6460*
1,1,0.4080,-1.0460,-0.6460*
1,1,0.4080,-1.0460,0.6460*
1,1,0.4080,1.0460,0.6460*
%
%ADD26ROUNDEDRECTD26*%
G04:AMPARAMS|DCode=27|XSize=5.2mm|YSize=2mm|CornerRadius=0.25mm|HoleSize=0mm|Usage=FLASHONLY|Rotation=180.000|XOffset=0mm|YOffset=0mm|HoleType=Round|Shape=RoundedRectangle|*
%AMROUNDEDRECTD27*
21,1,5.2000,1.5000,0,0,180.0*
21,1,4.7000,2.0000,0,0,180.0*
1,1,0.5000,-2.3500,0.7500*
1,1,0.5000,2.3500,0.7500*
1,1,0.5000,2.3500,-0.7500*
1,1,0.5000,-2.3500,-0.7500*
%
%ADD27ROUNDEDRECTD27*%
G04:AMPARAMS|DCode=28|XSize=0.65mm|YSize=0.35mm|CornerRadius=0.0735mm|HoleSize=0mm|Usage=FLASHONLY|Rotation=0.000|XOffset=0mm|YOffset=0mm|HoleType=Round|Shape=RoundedRectangle|*
%AMROUNDEDRECTD28*
21,1,0.6500,0.2030,0,0,0.0*
21,1,0.5030,0.3500,0,0,0.0*
1,1,0.1470,0.2515,-0.1015*
1,1,0.1470,-0.2515,-0.1015*
1,1,0.1470,-0.2515,0.1015*
1,1,0.1470,0.2515,0.1015*
%
%ADD28ROUNDEDRECTD28*%
G04:AMPARAMS|DCode=29|XSize=0.62mm|YSize=0.62mm|CornerRadius=0.1488mm|HoleSize=0mm|Usage=FLASHONLY|Rotation=0.000|XOffset=0mm|YOffset=0mm|HoleType=Round|Shape=RoundedRectangle|*
%AMROUNDEDRECTD29*
21,1,0.6200,0.3224,0,0,0.0*
21,1,0.3224,0.6200,0,0,0.0*
1,1,0.2976,0.1612,-0.1612*
1,1,0.2976,-0.1612,-0.1612*
1,1,0.2976,-0.1612,0.1612*
1,1,0.2976,0.1612,0.1612*
%
%ADD29ROUNDEDRECTD29*%
G04:AMPARAMS|DCode=30|XSize=0.3mm|YSize=0.25mm|CornerRadius=0.0525mm|HoleSize=0mm|Usage=FLASHONLY|Rotation=0.000|XOffset=0mm|YOffset=0mm|HoleType=Round|Shape=RoundedRectangle|*
%AMROUNDEDRECTD30*
21,1,0.3000,0.1450,0,0,0.0*
21,1,0.1950,0.2500,0,0,0.0*
1,1,0.1050,0.0975,-0.0725*
1,1,0.1050,-0.0975,-0.0725*
1,1,0.1050,-0.0975,0.0725*
1,1,0.1050,0.0975,0.0725*
%
%ADD30ROUNDEDRECTD30*%
%ADD31O,1.5500X0.6000*%
G04:AMPARAMS|DCode=32|XSize=0.62mm|YSize=0.62mm|CornerRadius=0.1488mm|HoleSize=0mm|Usage=FLASHONLY|Rotation=270.000|XOffset=0mm|YOffset=0mm|HoleType=Round|Shape=RoundedRectangle|*
%AMROUNDEDRECTD32*
21,1,0.6200,0.3224,0,0,270.0*
21,1,0.3224,0.6200,0,0,270.0*
1,1,0.2976,-0.1612,-0.1612*
1,1,0.2976,-0.1612,0.1612*
1,1,0.2976,0.1612,0.1612*
1,1,0.2976,0.1612,-0.1612*
%
%ADD32ROUNDEDRECTD32*%
G04:AMPARAMS|DCode=33|XSize=1mm|YSize=0.95mm|CornerRadius=0.1995mm|HoleSize=0mm|Usage=FLASHONLY|Rotation=0.000|XOffset=0mm|YOffset=0mm|HoleType=Round|Shape=RoundedRectangle|*
%AMROUNDEDRECTD33*
21,1,1.0000,0.5510,0,0,0.0*
21,1,0.6010,0.9500,0,0,0.0*
1,1,0.3990,0.3005,-0.2755*
1,1,0.3990,-0.3005,-0.2755*
1,1,0.3990,-0.3005,0.2755*
1,1,0.3990,0.3005,0.2755*
%
%ADD33ROUNDEDRECTD33*%
%ADD34O,0.6000X1.5500*%
G04:AMPARAMS|DCode=35|XSize=3.3mm|YSize=1.65mm|CornerRadius=0.198mm|HoleSize=0mm|Usage=FLASHONLY|Rotation=90.000|XOffset=0mm|YOffset=0mm|HoleType=Round|Shape=RoundedRectangle|*
%AMROUNDEDRECTD35*
21,1,3.3000,1.2540,0,0,90.0*
21,1,2.9040,1.6500,0,0,90.0*
1,1,0.3960,0.6270,1.4520*
1,1,0.3960,0.6270,-1.4520*
1,1,0.3960,-0.6270,-1.4520*
1,1,0.3960,-0.6270,1.4520*
%
%ADD35ROUNDEDRECTD35*%
G04:AMPARAMS|DCode=36|XSize=1mm|YSize=0.9mm|CornerRadius=0.198mm|HoleSize=0mm|Usage=FLASHONLY|Rotation=270.000|XOffset=0mm|YOffset=0mm|HoleType=Round|Shape=RoundedRectangle|*
%AMROUNDEDRECTD36*
21,1,1.0000,0.5040,0,0,270.0*
21,1,0.6040,0.9000,0,0,270.0*
1,1,0.3960,-0.2520,-0.3020*
1,1,0.3960,-0.2520,0.3020*
1,1,0.3960,0.2520,0.3020*
1,1,0.3960,0.2520,-0.3020*
%
%ADD36ROUNDEDRECTD36*%
G04:AMPARAMS|DCode=37|XSize=1.2mm|YSize=2mm|CornerRadius=0.3mm|HoleSize=0mm|Usage=FLASHONLY|Rotation=90.000|XOffset=0mm|YOffset=0mm|HoleType=Round|Shape=RoundedRectangle|*
%AMROUNDEDRECTD37*
21,1,1.2000,1.4000,0,0,90.0*
21,1,0.6000,2.0000,0,0,90.0*
1,1,0.6000,0.7000,0.3000*
1,1,0.6000,0.7000,-0.3000*
1,1,0.6000,-0.7000,-0.3000*
1,1,0.6000,-0.7000,0.3000*
%
%ADD37ROUNDEDRECTD37*%
G04:AMPARAMS|DCode=38|XSize=1.2mm|YSize=1.2mm|CornerRadius=0.198mm|HoleSize=0mm|Usage=FLASHONLY|Rotation=90.000|XOffset=0mm|YOffset=0mm|HoleType=Round|Shape=RoundedRectangle|*
%AMROUNDEDRECTD38*
21,1,1.2000,0.8040,0,0,90.0*
21,1,0.8040,1.2000,0,0,90.0*
1,1,0.3960,0.4020,0.4020*
1,1,0.3960,0.4020,-0.4020*
1,1,0.3960,-0.4020,-0.4020*
1,1,0.3960,-0.4020,0.4020*
%
%ADD38ROUNDEDRECTD38*%
G04:AMPARAMS|DCode=39|XSize=1.45mm|YSize=0.95mm|CornerRadius=0.1995mm|HoleSize=0mm|Usage=FLASHONLY|Rotation=90.000|XOffset=0mm|YOffset=0mm|HoleType=Round|Shape=RoundedRectangle|*
%AMROUNDEDRECTD39*
21,1,1.4500,0.5510,0,0,90.0*
21,1,1.0510,0.9500,0,0,90.0*
1,1,0.3990,0.2755,0.5255*
1,1,0.3990,0.2755,-0.5255*
1,1,0.3990,-0.2755,-0.5255*
1,1,0.3990,-0.2755,0.5255*
%
%ADD39ROUNDEDRECTD39*%
G04:AMPARAMS|DCode=40|XSize=0.3mm|YSize=0.65mm|CornerRadius=0.0495mm|HoleSize=0mm|Usage=FLASHONLY|Rotation=90.000|XOffset=0mm|YOffset=0mm|HoleType=Round|Shape=RoundedRectangle|*
%AMROUNDEDRECTD40*
21,1,0.3000,0.5510,0,0,90.0*
21,1,0.2010,0.6500,0,0,90.0*
1,1,0.0990,0.2755,0.1005*
1,1,0.0990,0.2755,-0.1005*
1,1,0.0990,-0.2755,-0.1005*
1,1,0.0990,-0.2755,0.1005*
%
%ADD40ROUNDEDRECTD40*%
G04:AMPARAMS|DCode=41|XSize=0.5mm|YSize=0.21mm|CornerRadius=0.0347mm|HoleSize=0mm|Usage=FLASHONLY|Rotation=90.000|XOffset=0mm|YOffset=0mm|HoleType=Round|Shape=RoundedRectangle|*
%AMROUNDEDRECTD41*
21,1,0.5000,0.1407,0,0,90.0*
21,1,0.4307,0.2100,0,0,90.0*
1,1,0.0693,0.0704,0.2154*
1,1,0.0693,0.0704,-0.2154*
1,1,0.0693,-0.0704,-0.2154*
1,1,0.0693,-0.0704,0.2154*
%
%ADD41ROUNDEDRECTD41*%
G04:AMPARAMS|DCode=42|XSize=0.7mm|YSize=1.5mm|CornerRadius=0.175mm|HoleSize=0mm|Usage=FLASHONLY|Rotation=0.000|XOffset=0mm|YOffset=0mm|HoleType=Round|Shape=RoundedRectangle|*
%AMROUNDEDRECTD42*
21,1,0.7000,1.1500,0,0,0.0*
21,1,0.3500,1.5000,0,0,0.0*
1,1,0.3500,0.1750,-0.5750*
1,1,0.3500,-0.1750,-0.5750*
1,1,0.3500,-0.1750,0.5750*
1,1,0.3500,0.1750,0.5750*
%
%ADD42ROUNDEDRECTD42*%
%ADD43O,2.5000X0.5000*%
%ADD44O,0.5000X2.5000*%
%ADD45O,1.8000X0.8000*%
%ADD46O,2.5000X1.0000*%
G04:AMPARAMS|DCode=47|XSize=0.8mm|YSize=2mm|CornerRadius=0.2mm|HoleSize=0mm|Usage=FLASHONLY|Rotation=270.000|XOffset=0mm|YOffset=0mm|HoleType=Round|Shape=RoundedRectangle|*
%AMROUNDEDRECTD47*
21,1,0.8000,1.6000,0,0,270.0*
21,1,0.4000,2.0000,0,0,270.0*
1,1,0.4000,-0.8000,-0.2000*
1,1,0.4000,-0.8000,0.2000*
1,1,0.4000,0.8000,0.2000*
1,1,0.4000,0.8000,-0.2000*
%
%ADD47ROUNDEDRECTD47*%
G04:AMPARAMS|DCode=48|XSize=0.7mm|YSize=1mm|CornerRadius=0.175mm|HoleSize=0mm|Usage=FLASHONLY|Rotation=90.000|XOffset=0mm|YOffset=0mm|HoleType=Round|Shape=RoundedRectangle|*
%AMROUNDEDRECTD48*
21,1,0.7000,0.6500,0,0,90.0*
21,1,0.3500,1.0000,0,0,90.0*
1,1,0.3500,0.3250,0.1750*
1,1,0.3500,0.3250,-0.1750*
1,1,0.3500,-0.3250,-0.1750*
1,1,0.3500,-0.3250,0.1750*
%
%ADD48ROUNDEDRECTD48*%
%ADD49O,0.7000X2.5000*%
%ADD50O,2.5000X0.7000*%
%ADD51C,0.5000*%
%ADD52C,0.4000*%
%ADD53C,0.7000*%
%ADD54C,0.2500*%
%ADD55C,0.2000*%
%ADD56C,0.3000*%
%ADD57C,1.0000*%
%ADD58C,0.6000*%
%ADD59C,0.8000*%
%ADD60C,0.9000*%
%ADD61C,1.8000*%
G04:AMPARAMS|DCode=62|XSize=1.3mm|YSize=1.3mm|CornerRadius=0.1625mm|HoleSize=0mm|Usage=FLASHONLY|Rotation=0.000|XOffset=0mm|YOffset=0mm|HoleType=Round|Shape=RoundedRectangle|*
%AMROUNDEDRECTD62*
21,1,1.3000,0.9750,0,0,0.0*
21,1,0.9750,1.3000,0,0,0.0*
1,1,0.3250,0.4875,-0.4875*
1,1,0.3250,-0.4875,-0.4875*
1,1,0.3250,-0.4875,0.4875*
1,1,0.3250,0.4875,0.4875*
%
%ADD62ROUNDEDRECTD62*%
%ADD63C,1.3000*%
%ADD64C,7.0000*%
%ADD65C,0.1000*%
%ADD66C,0.5000*%
G04:AMPARAMS|DCode=67|XSize=2mm|YSize=2mm|CornerRadius=0.25mm|HoleSize=0mm|Usage=FLASHONLY|Rotation=90.000|XOffset=0mm|YOffset=0mm|HoleType=Round|Shape=RoundedRectangle|*
%AMROUNDEDRECTD67*
21,1,2.0000,1.5000,0,0,90.0*
21,1,1.5000,2.0000,0,0,90.0*
1,1,0.5000,0.7500,0.7500*
1,1,0.5000,0.7500,-0.7500*
1,1,0.5000,-0.7500,-0.7500*
1,1,0.5000,-0.7500,0.7500*
%
%ADD67ROUNDEDRECTD67*%
%ADD68C,2.0000*%
%ADD69C,2.5000*%
G04:AMPARAMS|DCode=70|XSize=1.85mm|YSize=1.85mm|CornerRadius=0.2313mm|HoleSize=0mm|Usage=FLASHONLY|Rotation=0.000|XOffset=0mm|YOffset=0mm|HoleType=Round|Shape=RoundedRectangle|*
%AMROUNDEDRECTD70*
21,1,1.8500,1.3875,0,0,0.0*
21,1,1.3875,1.8500,0,0,0.0*
1,1,0.4625,0.6937,-0.6937*
1,1,0.4625,-0.6937,-0.6937*
1,1,0.4625,-0.6937,0.6937*
1,1,0.4625,0.6937,0.6937*
%
%ADD70ROUNDEDRECTD70*%
%ADD71C,1.8500*%
%ADD72C,1.6000*%
%ADD73R,1.6000X1.6000*%
G04:AMPARAMS|DCode=74|XSize=1.3mm|YSize=1.3mm|CornerRadius=0.325mm|HoleSize=0mm|Usage=FLASHONLY|Rotation=90.000|XOffset=0mm|YOffset=0mm|HoleType=Round|Shape=RoundedRectangle|*
%AMROUNDEDRECTD74*
21,1,1.3000,0.6500,0,0,90.0*
21,1,0.6500,1.3000,0,0,90.0*
1,1,0.6500,0.3250,0.3250*
1,1,0.6500,0.3250,-0.3250*
1,1,0.6500,-0.3250,-0.3250*
1,1,0.6500,-0.3250,0.3250*
%
%ADD74ROUNDEDRECTD74*%
%ADD75R,2.5000X5.0000*%
%ADD76R,5.0000X2.5000*%
G04:AMPARAMS|DCode=77|XSize=1mm|YSize=1mm|CornerRadius=0.25mm|HoleSize=0mm|Usage=FLASHONLY|Rotation=0.000|XOffset=0mm|YOffset=0mm|HoleType=Round|Shape=RoundedRectangle|*
%AMROUNDEDRECTD77*
21,1,1.0000,0.5000,0,0,0.0*
21,1,0.5000,1.0000,0,0,0.0*
1,1,0.5000,0.2500,-0.2500*
1,1,0.5000,-0.2500,-0.2500*
1,1,0.5000,-0.2500,0.2500*
1,1,0.5000,0.2500,0.2500*
%
%ADD77ROUNDEDRECTD77*%
%ADD78C,2.2000*%
G04:AMPARAMS|DCode=79|XSize=1.6mm|YSize=1.6mm|CornerRadius=0.2mm|HoleSize=0mm|Usage=FLASHONLY|Rotation=90.000|XOffset=0mm|YOffset=0mm|HoleType=Round|Shape=RoundedRectangle|*
%AMROUNDEDRECTD79*
21,1,1.6000,1.2000,0,0,90.0*
21,1,1.2000,1.6000,0,0,90.0*
1,1,0.4000,0.6000,0.6000*
1,1,0.4000,0.6000,-0.6000*
1,1,0.4000,-0.6000,-0.6000*
1,1,0.4000,-0.6000,0.6000*
%
%ADD79ROUNDEDRECTD79*%
G04:AMPARAMS|DCode=80|XSize=1.4mm|YSize=1.4mm|CornerRadius=0.175mm|HoleSize=0mm|Usage=FLASHONLY|Rotation=90.000|XOffset=0mm|YOffset=0mm|HoleType=Round|Shape=RoundedRectangle|*
%AMROUNDEDRECTD80*
21,1,1.4000,1.0500,0,0,90.0*
21,1,1.0500,1.4000,0,0,90.0*
1,1,0.3500,0.5250,0.5250*
1,1,0.3500,0.5250,-0.5250*
1,1,0.3500,-0.5250,-0.5250*
1,1,0.3500,-0.5250,0.5250*
%
%ADD80ROUNDEDRECTD80*%
%ADD81C,1.0000*%
%ADD82C,0.6000*%
G04:AMPARAMS|DCode=83|XSize=1.15mm|YSize=2.1mm|CornerRadius=0.2875mm|HoleSize=0mm|Usage=FLASHONLY|Rotation=90.000|XOffset=0mm|YOffset=0mm|HoleType=Round|Shape=RoundedRectangle|*
%AMROUNDEDRECTD83*
21,1,1.1500,1.5250,0,0,90.0*
21,1,0.5750,2.1000,0,0,90.0*
1,1,0.5750,0.7625,0.2875*
1,1,0.5750,0.7625,-0.2875*
1,1,0.5750,-0.7625,-0.2875*
1,1,0.5750,-0.7625,0.2875*
%
%ADD83ROUNDEDRECTD83*%
G04:AMPARAMS|DCode=84|XSize=2.5mm|YSize=1.15mm|CornerRadius=0.3852mm|HoleSize=0mm|Usage=FLASHONLY|Rotation=0.000|XOffset=0mm|YOffset=0mm|HoleType=Round|Shape=RoundedRectangle|*
%AMROUNDEDRECTD84*
21,1,2.5000,0.3795,0,0,0.0*
21,1,1.7295,1.1500,0,0,0.0*
1,1,0.7705,0.8648,-0.1898*
1,1,0.7705,-0.8648,-0.1898*
1,1,0.7705,-0.8648,0.1898*
1,1,0.7705,0.8648,0.1898*
%
%ADD84ROUNDEDRECTD84*%
G04:AMPARAMS|DCode=85|XSize=1.3mm|YSize=1mm|CornerRadius=0.25mm|HoleSize=0mm|Usage=FLASHONLY|Rotation=0.000|XOffset=0mm|YOffset=0mm|HoleType=Round|Shape=RoundedRectangle|*
%AMROUNDEDRECTD85*
21,1,1.3000,0.5000,0,0,0.0*
21,1,0.8000,1.0000,0,0,0.0*
1,1,0.5000,0.4000,-0.2500*
1,1,0.5000,-0.4000,-0.2500*
1,1,0.5000,-0.4000,0.2500*
1,1,0.5000,0.4000,0.2500*
%
%ADD85ROUNDEDRECTD85*%
G04:AMPARAMS|DCode=86|XSize=2.35mm|YSize=1.15mm|CornerRadius=0.3852mm|HoleSize=0mm|Usage=FLASHONLY|Rotation=0.000|XOffset=0mm|YOffset=0mm|HoleType=Round|Shape=RoundedRectangle|*
%AMROUNDEDRECTD86*
21,1,2.3500,0.3795,0,0,0.0*
21,1,1.5795,1.1500,0,0,0.0*
1,1,0.7705,0.7897,-0.1898*
1,1,0.7705,-0.7897,-0.1898*
1,1,0.7705,-0.7897,0.1898*
1,1,0.7705,0.7897,0.1898*
%
%ADD86ROUNDEDRECTD86*%
G04:AMPARAMS|DCode=87|XSize=1mm|YSize=1.2mm|CornerRadius=0.165mm|HoleSize=0mm|Usage=FLASHONLY|Rotation=180.000|XOffset=0mm|YOffset=0mm|HoleType=Round|Shape=RoundedRectangle|*
%AMROUNDEDRECTD87*
21,1,1.0000,0.8700,0,0,180.0*
21,1,0.6700,1.2000,0,0,180.0*
1,1,0.3300,-0.3350,0.4350*
1,1,0.3300,0.3350,0.4350*
1,1,0.3300,0.3350,-0.4350*
1,1,0.3300,-0.3350,-0.4350*
%
%ADD87ROUNDEDRECTD87*%
G04:AMPARAMS|DCode=88|XSize=1.6mm|YSize=1.3mm|CornerRadius=0.2015mm|HoleSize=0mm|Usage=FLASHONLY|Rotation=90.000|XOffset=0mm|YOffset=0mm|HoleType=Round|Shape=RoundedRectangle|*
%AMROUNDEDRECTD88*
21,1,1.6000,0.8970,0,0,90.0*
21,1,1.1970,1.3000,0,0,90.0*
1,1,0.4030,0.4485,0.5985*
1,1,0.4030,0.4485,-0.5985*
1,1,0.4030,-0.4485,-0.5985*
1,1,0.4030,-0.4485,0.5985*
%
%ADD88ROUNDEDRECTD88*%
G04:AMPARAMS|DCode=89|XSize=0.7mm|YSize=2.5mm|CornerRadius=0.175mm|HoleSize=0mm|Usage=FLASHONLY|Rotation=180.000|XOffset=0mm|YOffset=0mm|HoleType=Round|Shape=RoundedRectangle|*
%AMROUNDEDRECTD89*
21,1,0.7000,2.1500,0,0,180.0*
21,1,0.3500,2.5000,0,0,180.0*
1,1,0.3500,-0.1750,1.0750*
1,1,0.3500,0.1750,1.0750*
1,1,0.3500,0.1750,-1.0750*
1,1,0.3500,-0.1750,-1.0750*
%
%ADD89ROUNDEDRECTD89*%
G04:AMPARAMS|DCode=90|XSize=1.45mm|YSize=1.15mm|CornerRadius=0.2013mm|HoleSize=0mm|Usage=FLASHONLY|Rotation=90.000|XOffset=0mm|YOffset=0mm|HoleType=Round|Shape=RoundedRectangle|*
%AMROUNDEDRECTD90*
21,1,1.4500,0.7475,0,0,90.0*
21,1,1.0475,1.1500,0,0,90.0*
1,1,0.4025,0.3738,0.5238*
1,1,0.4025,0.3738,-0.5238*
1,1,0.4025,-0.3738,-0.5238*
1,1,0.4025,-0.3738,0.5238*
%
%ADD90ROUNDEDRECTD90*%
G04:AMPARAMS|DCode=91|XSize=1.2mm|YSize=1.2mm|CornerRadius=0.198mm|HoleSize=0mm|Usage=FLASHONLY|Rotation=0.000|XOffset=0mm|YOffset=0mm|HoleType=Round|Shape=RoundedRectangle|*
%AMROUNDEDRECTD91*
21,1,1.2000,0.8040,0,0,0.0*
21,1,0.8040,1.2000,0,0,0.0*
1,1,0.3960,0.4020,-0.4020*
1,1,0.3960,-0.4020,-0.4020*
1,1,0.3960,-0.4020,0.4020*
1,1,0.3960,0.4020,0.4020*
%
%ADD91ROUNDEDRECTD91*%
%ADD92C,5.0000*%
G36*
X693300Y235089D02*
X692402Y234191D01*
X683300Y234200D01*
Y252000D01*
X693300D01*
Y235089D01*
D02*
G37*
G36*
X696941Y338462D02*
X695671Y337826D01*
X694861Y338368D01*
X693300Y338678D01*
X683300D01*
X681739Y338368D01*
X680416Y337484D01*
X680176Y337124D01*
X637070D01*
X637070Y337124D01*
X635960Y337124D01*
X635956Y337124D01*
X635813Y337124D01*
X635800Y337124D01*
X635800Y337124D01*
X635800Y337123D01*
X635800Y336548D01*
X635800Y335920D01*
Y335854D01*
Y335854D01*
Y232124D01*
X679876D01*
X679978Y231972D01*
X680413Y231319D01*
X680415Y231318D01*
X680416Y231316D01*
X681080Y230873D01*
X681736Y230434D01*
X681738Y230433D01*
X681739Y230432D01*
X682523Y230276D01*
X683296Y230122D01*
X692398Y230113D01*
X692399Y230113D01*
X692400Y230113D01*
X693163Y230264D01*
X693959Y230422D01*
X693960Y230422D01*
X693960Y230422D01*
X694604Y230852D01*
X695283Y231304D01*
X695283Y231305D01*
X695284Y231306D01*
X695671Y231693D01*
X696941Y231166D01*
Y3059D01*
X3059D01*
Y546941D01*
X222918D01*
Y470500D01*
X442882Y470500D01*
X442922Y546941D01*
X696941D01*
Y338462D01*
D02*
G37*
G36*
X693300Y261000D02*
X683300D01*
Y334600D01*
X693300D01*
Y261000D01*
D02*
G37*
%LPC*%
G36*
X628850Y227979D02*
Y215150D01*
X641679D01*
X641626Y215689D01*
X640740Y218611D01*
X639300Y221303D01*
X637363Y223664D01*
X635003Y225600D01*
X632310Y227040D01*
X629389Y227926D01*
X628850Y227979D01*
D02*
G37*
G36*
X99250Y238999D02*
X86250D01*
Y213499D01*
X99250D01*
Y238999D01*
D02*
G37*
G36*
X623850Y227979D02*
X623312Y227926D01*
X620390Y227040D01*
X617697Y225600D01*
X615337Y223664D01*
X613400Y221303D01*
X611961Y218611D01*
X611074Y215689D01*
X611021Y215150D01*
X623850D01*
Y227979D01*
D02*
G37*
G36*
X37250Y226024D02*
X36617Y225941D01*
X33698Y224732D01*
X31191Y222808D01*
X29268Y220302D01*
X28059Y217383D01*
X27976Y216750D01*
X37250D01*
Y226024D01*
D02*
G37*
G36*
X42250D02*
Y216750D01*
X51524D01*
X51441Y217383D01*
X50232Y220302D01*
X48309Y222808D01*
X45802Y224732D01*
X42883Y225941D01*
X42250Y226024D01*
D02*
G37*
G36*
X674650Y227979D02*
X674112Y227926D01*
X671190Y227040D01*
X668497Y225600D01*
X666137Y223664D01*
X664200Y221303D01*
X662761Y218611D01*
X661874Y215689D01*
X661821Y215150D01*
X674650D01*
Y227979D01*
D02*
G37*
G36*
X679650D02*
Y215150D01*
X692479D01*
X692426Y215689D01*
X691540Y218611D01*
X690100Y221303D01*
X688163Y223664D01*
X685803Y225600D01*
X683111Y227040D01*
X680189Y227926D01*
X679650Y227979D01*
D02*
G37*
G36*
X674650Y210150D02*
X661821D01*
X661874Y209612D01*
X662761Y206690D01*
X664200Y203997D01*
X666137Y201637D01*
X668497Y199700D01*
X671190Y198261D01*
X674112Y197375D01*
X674650Y197322D01*
Y210150D01*
D02*
G37*
G36*
X692479D02*
X679650D01*
Y197322D01*
X680189Y197375D01*
X683111Y198261D01*
X685803Y199700D01*
X688163Y201637D01*
X690100Y203997D01*
X691540Y206690D01*
X692426Y209612D01*
X692479Y210150D01*
D02*
G37*
G36*
X623850D02*
X611021D01*
X611074Y209612D01*
X611961Y206690D01*
X613400Y203997D01*
X615337Y201637D01*
X617697Y199700D01*
X620390Y198261D01*
X623312Y197375D01*
X623850Y197322D01*
Y210150D01*
D02*
G37*
G36*
X641679D02*
X628850D01*
Y197322D01*
X629389Y197375D01*
X632310Y198261D01*
X635003Y199700D01*
X637363Y201637D01*
X639300Y203997D01*
X640740Y206690D01*
X641626Y209612D01*
X641679Y210150D01*
D02*
G37*
G36*
X37250Y211750D02*
X27976D01*
X28059Y211117D01*
X29268Y208198D01*
X31191Y205692D01*
X33698Y203768D01*
X36617Y202559D01*
X37250Y202476D01*
Y211750D01*
D02*
G37*
G36*
X160250Y270499D02*
X127250D01*
Y212499D01*
X160250D01*
Y270499D01*
D02*
G37*
G36*
X81250Y238999D02*
X68250D01*
Y213499D01*
X81250D01*
Y238999D01*
D02*
G37*
G36*
X51524Y211750D02*
X42250D01*
Y202476D01*
X42883Y202559D01*
X45802Y203768D01*
X48309Y205692D01*
X50232Y208198D01*
X51441Y211117D01*
X51524Y211750D01*
D02*
G37*
G36*
X285950Y211864D02*
X282491Y211409D01*
X279268Y210074D01*
X276500Y207950D01*
X274376Y205182D01*
X273885Y203996D01*
X272615D01*
X272124Y205182D01*
X270000Y207950D01*
X267232Y210074D01*
X264009Y211409D01*
X260550Y211864D01*
X257091Y211409D01*
X253868Y210074D01*
X251100Y207950D01*
X248976Y205182D01*
X247641Y201959D01*
X247186Y198500D01*
X247641Y195041D01*
X248976Y191818D01*
X251100Y189050D01*
X253868Y186926D01*
X257091Y185591D01*
X258418Y185416D01*
X258826Y184214D01*
X255890Y181278D01*
X224500D01*
X222150Y180968D01*
X219961Y180061D01*
X218081Y178619D01*
X181040Y141578D01*
X140750D01*
X138400Y141268D01*
X136211Y140361D01*
X134331Y138919D01*
X132889Y137039D01*
X131982Y134850D01*
X131739Y133008D01*
D01*
D01*
X130974Y132046D01*
X130752Y132026D01*
X130520Y132006D01*
X130520D01*
X130509Y132005D01*
X130464Y132001D01*
X130457Y132000D01*
X130457D01*
X130457D01*
X130347D01*
X130001Y132000D01*
X129382D01*
X129382D01*
X129382D01*
X129364Y132000D01*
X129364D01*
X106500D01*
Y108000D01*
X130500D01*
Y113882D01*
X199800D01*
X202141Y114348D01*
X204126Y115674D01*
X226123Y137672D01*
X226500Y137622D01*
X228850Y137932D01*
X231039Y138839D01*
X232919Y140281D01*
X234361Y142161D01*
X235268Y144351D01*
X235578Y146700D01*
X235268Y149050D01*
X234361Y151239D01*
X232919Y153119D01*
X231039Y154562D01*
X228850Y155468D01*
X226500Y155778D01*
X224151Y155468D01*
X221961Y154562D01*
X220081Y153119D01*
X218639Y151239D01*
X217732Y149050D01*
X217422Y146700D01*
X217472Y146323D01*
X197266Y126117D01*
X192915D01*
X192429Y127291D01*
X228260Y163122D01*
X259650D01*
X261999Y163432D01*
X263282Y163963D01*
X264189Y164339D01*
X266069Y165781D01*
X285485Y185197D01*
X285950Y185136D01*
X289409Y185591D01*
X292632Y186926D01*
X295400Y189050D01*
X297524Y191818D01*
X298859Y195041D01*
X299314Y198500D01*
X298859Y201959D01*
X297524Y205182D01*
X295400Y207950D01*
X292632Y210074D01*
X289409Y211409D01*
X285950Y211864D01*
D02*
G37*
G36*
X52500Y87921D02*
Y52500D01*
X87921D01*
X87648Y55963D01*
X86252Y61779D01*
X83963Y67305D01*
X80838Y72405D01*
X76953Y76953D01*
X72405Y80838D01*
X67305Y83963D01*
X61779Y86252D01*
X55963Y87648D01*
X52500Y87921D01*
D02*
G37*
G36*
X47500D02*
X44037Y87648D01*
X38221Y86252D01*
X32695Y83963D01*
X27595Y80838D01*
X23047Y76953D01*
X19162Y72405D01*
X16037Y67305D01*
X13748Y61779D01*
X12352Y55963D01*
X12079Y52500D01*
X47500D01*
Y87921D01*
D02*
G37*
G36*
X99250Y269499D02*
X86250D01*
Y243999D01*
X99250D01*
Y269499D01*
D02*
G37*
G36*
X647500Y87921D02*
X644037Y87648D01*
X638221Y86252D01*
X632695Y83963D01*
X627595Y80838D01*
X623047Y76953D01*
X619162Y72405D01*
X616037Y67305D01*
X613748Y61779D01*
X612352Y55963D01*
X612079Y52500D01*
X647500D01*
Y87921D01*
D02*
G37*
G36*
X464222Y47200D02*
X455200D01*
Y38178D01*
X455767Y38252D01*
X458626Y39436D01*
X461080Y41320D01*
X462964Y43774D01*
X464148Y46633D01*
X464222Y47200D01*
D02*
G37*
G36*
X450200D02*
X441178D01*
X441253Y46633D01*
X442436Y43774D01*
X444320Y41320D01*
X446774Y39436D01*
X449633Y38252D01*
X450200Y38178D01*
Y47200D01*
D02*
G37*
G36*
X288750Y262000D02*
X280484D01*
X280533Y261628D01*
X281642Y258953D01*
X283405Y256655D01*
X285702Y254891D01*
X288378Y253783D01*
X288750Y253734D01*
Y262000D01*
D02*
G37*
G36*
X302016D02*
X293750D01*
Y253734D01*
X294122Y253783D01*
X296798Y254891D01*
X299095Y256655D01*
X300858Y258953D01*
X301967Y261628D01*
X302016Y262000D01*
D02*
G37*
G36*
X81250Y269499D02*
X68250D01*
Y243999D01*
X81250D01*
Y269499D01*
D02*
G37*
G36*
X303250Y251500D02*
X279250D01*
Y227500D01*
X303250D01*
Y251500D01*
D02*
G37*
G36*
X203500Y241266D02*
X203128Y241217D01*
X200453Y240109D01*
X198155Y238345D01*
X196392Y236047D01*
X195283Y233372D01*
X195234Y233000D01*
X203500D01*
Y241266D01*
D02*
G37*
G36*
Y228000D02*
X195234D01*
X195283Y227628D01*
X196392Y224953D01*
X198155Y222655D01*
X200453Y220891D01*
X203128Y219783D01*
X203500Y219734D01*
Y228000D01*
D02*
G37*
G36*
X216766D02*
X208500D01*
Y219734D01*
X208872Y219783D01*
X211547Y220891D01*
X213845Y222655D01*
X215609Y224953D01*
X216717Y227628D01*
X216766Y228000D01*
D02*
G37*
G36*
X39750Y262362D02*
X36356Y261915D01*
X33194Y260605D01*
X30478Y258522D01*
X28395Y255806D01*
X27085Y252644D01*
X26638Y249250D01*
X27085Y245856D01*
X28395Y242694D01*
X30478Y239978D01*
X33194Y237894D01*
X36356Y236585D01*
X39750Y236138D01*
X43144Y236585D01*
X46306Y237894D01*
X49022Y239978D01*
X51105Y242694D01*
X52415Y245856D01*
X52862Y249250D01*
X52415Y252644D01*
X51105Y255806D01*
X49022Y258522D01*
X46306Y260605D01*
X43144Y261915D01*
X39750Y262362D01*
D02*
G37*
G36*
X652500Y87921D02*
Y52500D01*
X687921D01*
X687648Y55963D01*
X686252Y61779D01*
X683963Y67305D01*
X680838Y72405D01*
X676953Y76953D01*
X672405Y80838D01*
X667305Y83963D01*
X661779Y86252D01*
X655963Y87648D01*
X652500Y87921D01*
D02*
G37*
G36*
X208500Y241266D02*
Y233000D01*
X216766D01*
X216717Y233372D01*
X215609Y236047D01*
X213845Y238345D01*
X211547Y240109D01*
X208872Y241217D01*
X208500Y241266D01*
D02*
G37*
G36*
X623850Y108550D02*
X611021D01*
X611074Y108012D01*
X611961Y105090D01*
X613400Y102397D01*
X615337Y100037D01*
X617697Y98100D01*
X620390Y96661D01*
X623312Y95775D01*
X623850Y95722D01*
Y108550D01*
D02*
G37*
G36*
X129266Y142500D02*
X121000D01*
Y134234D01*
X121372Y134283D01*
X124047Y135392D01*
X126345Y137155D01*
X128109Y139453D01*
X129217Y142128D01*
X129266Y142500D01*
D02*
G37*
G36*
X405725Y188853D02*
X403376Y188543D01*
X401186Y187636D01*
X399306Y186194D01*
X397864Y184314D01*
X396957Y182125D01*
X396647Y179775D01*
X396957Y177425D01*
X397864Y175236D01*
X399306Y173356D01*
X399608Y173125D01*
Y154975D01*
X399306Y154744D01*
X397864Y152864D01*
X396957Y150674D01*
X396647Y148325D01*
X396957Y145976D01*
X397864Y143786D01*
X399306Y141906D01*
X401186Y140464D01*
X403376Y139557D01*
X405725Y139247D01*
X408074Y139557D01*
X410264Y140464D01*
X412144Y141906D01*
X413586Y143786D01*
X414493Y145976D01*
X414803Y148325D01*
X414493Y150674D01*
X413586Y152864D01*
X412144Y154744D01*
X411842Y154975D01*
Y173125D01*
X412144Y173356D01*
X413586Y175236D01*
X414493Y177425D01*
X414803Y179775D01*
X414493Y182125D01*
X413586Y184314D01*
X412144Y186194D01*
X410264Y187636D01*
X408074Y188543D01*
X405725Y188853D01*
D02*
G37*
G36*
X38000Y159362D02*
X34606Y158915D01*
X31444Y157605D01*
X28728Y155522D01*
X26644Y152806D01*
X25335Y149644D01*
X24888Y146250D01*
X25335Y142856D01*
X26644Y139694D01*
X28728Y136978D01*
X31444Y134895D01*
X34606Y133585D01*
X38000Y133138D01*
X41394Y133585D01*
X44556Y134895D01*
X47272Y136978D01*
X49356Y139694D01*
X50665Y142856D01*
X51112Y146250D01*
X50665Y149644D01*
X49356Y152806D01*
X47272Y155522D01*
X44556Y157605D01*
X41394Y158915D01*
X38000Y159362D01*
D02*
G37*
G36*
X116000Y142500D02*
X107734D01*
X107783Y142128D01*
X108891Y139453D01*
X110655Y137155D01*
X112953Y135392D01*
X115628Y134283D01*
X116000Y134234D01*
Y142500D01*
D02*
G37*
G36*
X674650Y159350D02*
X661821D01*
X661874Y158812D01*
X662761Y155890D01*
X664200Y153197D01*
X666137Y150837D01*
X668497Y148900D01*
X671190Y147461D01*
X674112Y146575D01*
X674650Y146522D01*
Y159350D01*
D02*
G37*
G36*
X692479D02*
X679650D01*
Y146522D01*
X680189Y146575D01*
X683111Y147461D01*
X685803Y148900D01*
X688163Y150837D01*
X690100Y153197D01*
X691540Y155890D01*
X692426Y158812D01*
X692479Y159350D01*
D02*
G37*
G36*
X623850D02*
X611021D01*
X611074Y158812D01*
X611961Y155890D01*
X613400Y153197D01*
X615337Y150837D01*
X617697Y148900D01*
X620390Y147461D01*
X623312Y146575D01*
X623850Y146522D01*
Y159350D01*
D02*
G37*
G36*
X641679D02*
X628850D01*
Y146522D01*
X629389Y146575D01*
X632310Y147461D01*
X635003Y148900D01*
X637363Y150837D01*
X639300Y153197D01*
X640740Y155890D01*
X641626Y158812D01*
X641679Y159350D01*
D02*
G37*
G36*
X651750Y153030D02*
X648516Y152712D01*
X645405Y151768D01*
X642539Y150236D01*
X640026Y148174D01*
X637965Y145662D01*
X636432Y142795D01*
X635489Y139685D01*
X635170Y136450D01*
X635489Y133216D01*
X636432Y130106D01*
X637965Y127239D01*
X640026Y124727D01*
X642539Y122665D01*
X645405Y121133D01*
X648516Y120189D01*
X651750Y119871D01*
X654985Y120189D01*
X658095Y121133D01*
X660962Y122665D01*
X663474Y124727D01*
X665536Y127239D01*
X667068Y130106D01*
X668011Y133216D01*
X668330Y136450D01*
X668011Y139685D01*
X667068Y142795D01*
X665536Y145662D01*
X663474Y148174D01*
X660962Y150236D01*
X658095Y151768D01*
X654985Y152712D01*
X651750Y153030D01*
D02*
G37*
G36*
X692479Y108550D02*
X679650D01*
Y95722D01*
X680189Y95775D01*
X683111Y96661D01*
X685803Y98100D01*
X688163Y100037D01*
X690100Y102397D01*
X691540Y105090D01*
X692426Y108012D01*
X692479Y108550D01*
D02*
G37*
G36*
X38000Y124362D02*
X34606Y123915D01*
X31444Y122605D01*
X28728Y120522D01*
X26644Y117806D01*
X25335Y114644D01*
X24888Y111250D01*
X25335Y107856D01*
X26644Y104694D01*
X28728Y101978D01*
X31444Y99895D01*
X34606Y98585D01*
X38000Y98138D01*
X41394Y98585D01*
X44556Y99895D01*
X47272Y101978D01*
X49356Y104694D01*
X50665Y107856D01*
X51112Y111250D01*
X50665Y114644D01*
X49356Y117806D01*
X47272Y120522D01*
X44556Y122605D01*
X41394Y123915D01*
X38000Y124362D01*
D02*
G37*
G36*
X641679Y108550D02*
X628850D01*
Y95722D01*
X629389Y95775D01*
X632310Y96661D01*
X635003Y98100D01*
X637363Y100037D01*
X639300Y102397D01*
X640740Y105090D01*
X641626Y108012D01*
X641679Y108550D01*
D02*
G37*
G36*
X674650D02*
X661821D01*
X661874Y108012D01*
X662761Y105090D01*
X664200Y102397D01*
X666137Y100037D01*
X668497Y98100D01*
X671190Y96661D01*
X674112Y95775D01*
X674650Y95722D01*
Y108550D01*
D02*
G37*
G36*
Y126379D02*
X674112Y126326D01*
X671190Y125440D01*
X668497Y124001D01*
X666137Y122064D01*
X664200Y119703D01*
X662761Y117011D01*
X661874Y114089D01*
X661821Y113550D01*
X674650D01*
Y126379D01*
D02*
G37*
G36*
X679650D02*
Y113550D01*
X692479D01*
X692426Y114089D01*
X691540Y117011D01*
X690100Y119703D01*
X688163Y122064D01*
X685803Y124001D01*
X683111Y125440D01*
X680189Y126326D01*
X679650Y126379D01*
D02*
G37*
G36*
X623850D02*
X623312Y126326D01*
X620390Y125440D01*
X617697Y124001D01*
X615337Y122064D01*
X613400Y119703D01*
X611961Y117011D01*
X611074Y114089D01*
X611021Y113550D01*
X623850D01*
Y126379D01*
D02*
G37*
G36*
X628850D02*
Y113550D01*
X641679D01*
X641626Y114089D01*
X640740Y117011D01*
X639300Y119703D01*
X637363Y122064D01*
X635003Y124001D01*
X632310Y125440D01*
X629389Y126326D01*
X628850Y126379D01*
D02*
G37*
G36*
X116000Y155766D02*
X115628Y155717D01*
X112953Y154608D01*
X110655Y152845D01*
X108891Y150547D01*
X107783Y147872D01*
X107734Y147500D01*
X116000D01*
Y155766D01*
D02*
G37*
G36*
X111250Y188999D02*
X85750D01*
Y175999D01*
X111250D01*
Y188999D01*
D02*
G37*
G36*
X141750D02*
X116250D01*
Y175999D01*
X141750D01*
Y188999D01*
D02*
G37*
G36*
X292200Y178947D02*
X289909Y177998D01*
X287925Y176475D01*
X286402Y174491D01*
X285453Y172200D01*
X292200D01*
Y178947D01*
D02*
G37*
G36*
X297200D02*
Y172200D01*
X303947D01*
X302998Y174491D01*
X301476Y176475D01*
X299491Y177998D01*
X297200Y178947D01*
D02*
G37*
G36*
X141750Y206999D02*
X116250D01*
Y193999D01*
X141750D01*
Y206999D01*
D02*
G37*
G36*
X397750Y202250D02*
X392402D01*
Y201745D01*
X392790Y199796D01*
X393894Y198144D01*
X395546Y197040D01*
X397495Y196652D01*
X397750D01*
Y202250D01*
D02*
G37*
G36*
X218000Y217500D02*
X194000D01*
Y193500D01*
X218000D01*
Y217500D01*
D02*
G37*
G36*
X111250Y206999D02*
X85750D01*
Y193999D01*
X111250D01*
Y206999D01*
D02*
G37*
G36*
X651750Y203830D02*
X648516Y203512D01*
X645405Y202568D01*
X642539Y201036D01*
X640026Y198974D01*
X637965Y196462D01*
X636432Y193595D01*
X635489Y190485D01*
X635170Y187250D01*
X635489Y184016D01*
X636432Y180906D01*
X637965Y178039D01*
X640026Y175527D01*
X642539Y173465D01*
X645405Y171933D01*
X648516Y170989D01*
X651750Y170671D01*
X654985Y170989D01*
X658095Y171933D01*
X660962Y173465D01*
X663474Y175527D01*
X665536Y178039D01*
X667068Y180906D01*
X668011Y184016D01*
X668330Y187250D01*
X668011Y190485D01*
X667068Y193595D01*
X665536Y196462D01*
X663474Y198974D01*
X660962Y201036D01*
X658095Y202568D01*
X654985Y203512D01*
X651750Y203830D01*
D02*
G37*
G36*
X292200Y167200D02*
X285453D01*
X286402Y164909D01*
X287925Y162924D01*
X289909Y161402D01*
X292200Y160453D01*
Y167200D01*
D02*
G37*
G36*
X303947D02*
X297200D01*
Y160453D01*
X299491Y161402D01*
X301476Y162924D01*
X302998Y164909D01*
X303947Y167200D01*
D02*
G37*
G36*
X121000Y155766D02*
Y147500D01*
X129266D01*
X129217Y147872D01*
X128109Y150547D01*
X126345Y152845D01*
X124047Y154608D01*
X121372Y155717D01*
X121000Y155766D01*
D02*
G37*
G36*
X341000Y157897D02*
Y151150D01*
X347747D01*
X346798Y153441D01*
X345275Y155426D01*
X343291Y156948D01*
X341000Y157897D01*
D02*
G37*
G36*
X674650Y177179D02*
X674112Y177126D01*
X671190Y176240D01*
X668497Y174800D01*
X666137Y172864D01*
X664200Y170503D01*
X662761Y167811D01*
X661874Y164889D01*
X661821Y164350D01*
X674650D01*
Y177179D01*
D02*
G37*
G36*
X679650D02*
Y164350D01*
X692479D01*
X692426Y164889D01*
X691540Y167811D01*
X690100Y170503D01*
X688163Y172864D01*
X685803Y174800D01*
X683111Y176240D01*
X680189Y177126D01*
X679650Y177179D01*
D02*
G37*
G36*
X623850D02*
X623312Y177126D01*
X620390Y176240D01*
X617697Y174800D01*
X615337Y172864D01*
X613400Y170503D01*
X611961Y167811D01*
X611074Y164889D01*
X611021Y164350D01*
X623850D01*
Y177179D01*
D02*
G37*
G36*
X628850D02*
Y164350D01*
X641679D01*
X641626Y164889D01*
X640740Y167811D01*
X639300Y170503D01*
X637363Y172864D01*
X635003Y174800D01*
X632310Y176240D01*
X629389Y177126D01*
X628850Y177179D01*
D02*
G37*
G36*
X690729Y472100D02*
X677900D01*
Y459271D01*
X678438Y459324D01*
X681360Y460211D01*
X684053Y461650D01*
X686413Y463587D01*
X688350Y465947D01*
X689789Y468640D01*
X690676Y471562D01*
X690729Y472100D01*
D02*
G37*
G36*
X507400Y485391D02*
X504659Y485030D01*
X502105Y483972D01*
X499911Y482289D01*
X498228Y480095D01*
X497170Y477541D01*
X496809Y474800D01*
X497170Y472059D01*
X498228Y469505D01*
X499911Y467311D01*
X502105Y465628D01*
X504659Y464570D01*
X507400Y464209D01*
X510141Y464570D01*
X512695Y465628D01*
X514889Y467311D01*
X516572Y469505D01*
X517630Y472059D01*
X517991Y474800D01*
X517630Y477541D01*
X516572Y480095D01*
X514889Y482289D01*
X512695Y483972D01*
X510141Y485030D01*
X507400Y485391D01*
D02*
G37*
G36*
X639929Y472100D02*
X627100D01*
Y459271D01*
X627639Y459324D01*
X630560Y460211D01*
X633253Y461650D01*
X635613Y463587D01*
X637550Y465947D01*
X638989Y468640D01*
X639876Y471562D01*
X639929Y472100D01*
D02*
G37*
G36*
X672900D02*
X660071D01*
X660124Y471562D01*
X661011Y468640D01*
X662450Y465947D01*
X664387Y463587D01*
X666747Y461650D01*
X669440Y460211D01*
X672362Y459324D01*
X672900Y459271D01*
Y472100D01*
D02*
G37*
G36*
X567791Y472300D02*
X560700D01*
Y465209D01*
X563075D01*
X564880Y465568D01*
X566409Y466591D01*
X567432Y468120D01*
X567791Y469925D01*
Y472300D01*
D02*
G37*
G36*
X47500Y497500D02*
X22110D01*
X22259Y495606D01*
X23288Y491321D01*
X24975Y487249D01*
X27278Y483491D01*
X30140Y480140D01*
X33491Y477277D01*
X37249Y474975D01*
X41321Y473288D01*
X45606Y472259D01*
X47500Y472110D01*
Y497500D01*
D02*
G37*
G36*
X532800Y485391D02*
X530059Y485030D01*
X527505Y483972D01*
X525311Y482289D01*
X523628Y480095D01*
X522570Y477541D01*
X522209Y474800D01*
X522570Y472059D01*
X523628Y469505D01*
X525311Y467311D01*
X527505Y465628D01*
X530059Y464570D01*
X532800Y464209D01*
X535541Y464570D01*
X538095Y465628D01*
X540289Y467311D01*
X541972Y469505D01*
X543030Y472059D01*
X543391Y474800D01*
X543030Y477541D01*
X541972Y480095D01*
X540289Y482289D01*
X538095Y483972D01*
X535541Y485030D01*
X532800Y485391D01*
D02*
G37*
G36*
X555700Y472300D02*
X548609D01*
Y469925D01*
X548968Y468120D01*
X549991Y466591D01*
X551520Y465568D01*
X553325Y465209D01*
X555700D01*
Y472300D01*
D02*
G37*
G36*
X622100Y472100D02*
X609271D01*
X609324Y471562D01*
X610211Y468640D01*
X611650Y465947D01*
X613587Y463587D01*
X615947Y461650D01*
X618640Y460211D01*
X621562Y459324D01*
X622100Y459271D01*
Y472100D01*
D02*
G37*
G36*
X576548Y441809D02*
X570400D01*
Y435500D01*
X583380D01*
X583224Y436686D01*
X582533Y438353D01*
X581435Y439785D01*
X580003Y440883D01*
X578336Y441574D01*
X576548Y441809D01*
D02*
G37*
G36*
X251250Y446033D02*
X250356Y445915D01*
X247194Y444605D01*
X244478Y442522D01*
X242395Y439806D01*
X241085Y436644D01*
X240967Y435750D01*
X251250D01*
Y446033D01*
D02*
G37*
G36*
X392600Y437200D02*
X378500D01*
Y430600D01*
X387400D01*
X389390Y430996D01*
X391077Y432123D01*
X392204Y433810D01*
X392600Y435800D01*
Y437200D01*
D02*
G37*
G36*
X565400Y441809D02*
X559253D01*
X557464Y441574D01*
X555797Y440883D01*
X554365Y439785D01*
X553267Y438353D01*
X552576Y436686D01*
X552420Y435500D01*
X565400D01*
Y441809D01*
D02*
G37*
G36*
X373500Y448800D02*
X364600D01*
X362610Y448404D01*
X360923Y447277D01*
X359796Y445590D01*
X359400Y443600D01*
Y442200D01*
X373500D01*
Y448800D01*
D02*
G37*
G36*
X387400D02*
X378500D01*
Y442200D01*
X392600D01*
Y443600D01*
X392204Y445590D01*
X391077Y447277D01*
X389390Y448404D01*
X387400Y448800D01*
D02*
G37*
G36*
X256250Y446033D02*
Y435750D01*
X266533D01*
X266415Y436644D01*
X265105Y439806D01*
X263022Y442522D01*
X260306Y444605D01*
X257144Y445915D01*
X256250Y446033D01*
D02*
G37*
G36*
X408200Y447497D02*
X405909Y446548D01*
X403924Y445025D01*
X402402Y443041D01*
X401453Y440750D01*
X408200D01*
Y447497D01*
D02*
G37*
G36*
X77890Y497500D02*
X52500D01*
Y472110D01*
X54394Y472259D01*
X58679Y473288D01*
X62751Y474975D01*
X66509Y477277D01*
X69860Y480140D01*
X72723Y483491D01*
X75025Y487249D01*
X76712Y491321D01*
X77741Y495606D01*
X77890Y497500D01*
D02*
G37*
G36*
X672900Y522900D02*
X660071D01*
X660124Y522361D01*
X661011Y519440D01*
X662450Y516747D01*
X664387Y514387D01*
X666747Y512450D01*
X669440Y511011D01*
X672362Y510124D01*
X672900Y510071D01*
Y522900D01*
D02*
G37*
G36*
X690729D02*
X677900D01*
Y510071D01*
X678438Y510124D01*
X681360Y511011D01*
X684053Y512450D01*
X686413Y514387D01*
X688350Y516747D01*
X689789Y519440D01*
X690676Y522361D01*
X690729Y522900D01*
D02*
G37*
G36*
X622100D02*
X609271D01*
X609324Y522361D01*
X610211Y519440D01*
X611650Y516747D01*
X613587Y514387D01*
X615947Y512450D01*
X618640Y511011D01*
X621562Y510124D01*
X622100Y510071D01*
Y522900D01*
D02*
G37*
G36*
X639929D02*
X627100D01*
Y510071D01*
X627639Y510124D01*
X630560Y511011D01*
X633253Y512450D01*
X635613Y514387D01*
X637550Y516747D01*
X638989Y519440D01*
X639876Y522361D01*
X639929Y522900D01*
D02*
G37*
G36*
X672900Y540729D02*
X672362Y540676D01*
X669440Y539789D01*
X666747Y538350D01*
X664387Y536413D01*
X662450Y534053D01*
X661011Y531360D01*
X660124Y528438D01*
X660071Y527900D01*
X672900D01*
Y540729D01*
D02*
G37*
G36*
X677900D02*
Y527900D01*
X690729D01*
X690676Y528438D01*
X689789Y531360D01*
X688350Y534053D01*
X686413Y536413D01*
X684053Y538350D01*
X681360Y539789D01*
X678438Y540676D01*
X677900Y540729D01*
D02*
G37*
G36*
X622100D02*
X621562Y540676D01*
X618640Y539789D01*
X615947Y538350D01*
X613587Y536413D01*
X611650Y534053D01*
X610211Y531360D01*
X609324Y528438D01*
X609271Y527900D01*
X622100D01*
Y540729D01*
D02*
G37*
G36*
X627100D02*
Y527900D01*
X639929D01*
X639876Y528438D01*
X638989Y531360D01*
X637550Y534053D01*
X635613Y536413D01*
X633253Y538350D01*
X630560Y539789D01*
X627639Y540676D01*
X627100Y540729D01*
D02*
G37*
G36*
X52500Y527890D02*
Y502500D01*
X77890D01*
X77741Y504394D01*
X76712Y508679D01*
X75025Y512751D01*
X72723Y516509D01*
X69860Y519860D01*
X66509Y522723D01*
X62751Y525025D01*
X58679Y526712D01*
X54394Y527741D01*
X52500Y527890D01*
D02*
G37*
G36*
X672900Y489929D02*
X672362Y489876D01*
X669440Y488989D01*
X666747Y487550D01*
X664387Y485613D01*
X662450Y483253D01*
X661011Y480560D01*
X660124Y477639D01*
X660071Y477100D01*
X672900D01*
Y489929D01*
D02*
G37*
G36*
X677900D02*
Y477100D01*
X690729D01*
X690676Y477639D01*
X689789Y480560D01*
X688350Y483253D01*
X686413Y485613D01*
X684053Y487550D01*
X681360Y488989D01*
X678438Y489876D01*
X677900Y489929D01*
D02*
G37*
G36*
X622100D02*
X621562Y489876D01*
X618640Y488989D01*
X615947Y487550D01*
X613587Y485613D01*
X611650Y483253D01*
X610211Y480560D01*
X609324Y477639D01*
X609271Y477100D01*
X622100D01*
Y489929D01*
D02*
G37*
G36*
X627100D02*
Y477100D01*
X639929D01*
X639876Y477639D01*
X638989Y480560D01*
X637550Y483253D01*
X635613Y485613D01*
X633253Y487550D01*
X630560Y488989D01*
X627639Y489876D01*
X627100Y489929D01*
D02*
G37*
G36*
X650000Y516580D02*
X646765Y516261D01*
X643655Y515318D01*
X640789Y513786D01*
X638276Y511724D01*
X636214Y509211D01*
X634682Y506345D01*
X633739Y503235D01*
X633420Y500000D01*
X633739Y496765D01*
X634682Y493655D01*
X636214Y490789D01*
X638276Y488276D01*
X640789Y486214D01*
X643655Y484682D01*
X646765Y483739D01*
X650000Y483420D01*
X653235Y483739D01*
X656345Y484682D01*
X659211Y486214D01*
X661724Y488276D01*
X663786Y490789D01*
X665318Y493655D01*
X666261Y496765D01*
X666580Y500000D01*
X666261Y503235D01*
X665318Y506345D01*
X663786Y509211D01*
X661724Y511724D01*
X659211Y513786D01*
X656345Y515318D01*
X653235Y516261D01*
X650000Y516580D01*
D02*
G37*
G36*
X47500Y527890D02*
X45606Y527741D01*
X41321Y526712D01*
X37249Y525025D01*
X33491Y522723D01*
X30140Y519860D01*
X27278Y516509D01*
X24975Y512751D01*
X23288Y508679D01*
X22259Y504394D01*
X22110Y502500D01*
X47500D01*
Y527890D01*
D02*
G37*
G36*
X555700Y484391D02*
X553325D01*
X551520Y484032D01*
X549991Y483009D01*
X548968Y481480D01*
X548609Y479675D01*
Y477300D01*
X555700D01*
Y484391D01*
D02*
G37*
G36*
X563075D02*
X560700D01*
Y477300D01*
X567791D01*
Y479675D01*
X567432Y481480D01*
X566409Y483009D01*
X564880Y484032D01*
X563075Y484391D01*
D02*
G37*
G36*
X373500Y437200D02*
X359400D01*
Y435800D01*
X359796Y433810D01*
X360923Y432123D01*
X362610Y430996D01*
X364600Y430600D01*
X373500D01*
Y437200D01*
D02*
G37*
G36*
X481011Y329899D02*
X477500D01*
Y326388D01*
X478363Y326560D01*
X479848Y327552D01*
X480840Y329036D01*
X481011Y329899D01*
D02*
G37*
G36*
X134033Y396250D02*
X108467D01*
X108585Y395356D01*
X109895Y392194D01*
X111978Y389478D01*
X114694Y387394D01*
X115221Y387176D01*
Y385906D01*
X114190Y385479D01*
X111265Y383235D01*
X109021Y380310D01*
X107610Y376905D01*
X107129Y373250D01*
X107610Y369595D01*
X109021Y366190D01*
X111265Y363265D01*
X111929Y362756D01*
X111610Y361399D01*
X110472Y360928D01*
X109114Y359886D01*
X108072Y358528D01*
X107417Y356947D01*
X107194Y355250D01*
Y340250D01*
X107417Y338553D01*
X108072Y336972D01*
X109114Y335614D01*
X110472Y334572D01*
X112053Y333917D01*
X113750Y333694D01*
X128750D01*
X130447Y333917D01*
X132028Y334572D01*
X133386Y335614D01*
X134428Y336972D01*
X135083Y338553D01*
X135306Y340250D01*
Y355250D01*
X135083Y356947D01*
X134428Y358528D01*
X133386Y359886D01*
X132028Y360928D01*
X130890Y361399D01*
X130571Y362756D01*
X131235Y363265D01*
X133479Y366190D01*
X134890Y369595D01*
X135371Y373250D01*
X134890Y376905D01*
X133479Y380310D01*
X131235Y383235D01*
X128310Y385479D01*
X127279Y385906D01*
Y387176D01*
X127806Y387394D01*
X130522Y389478D01*
X132605Y392194D01*
X133915Y395356D01*
X134033Y396250D01*
D02*
G37*
G36*
X41250Y338322D02*
X38310Y338033D01*
X35482Y337175D01*
X32876Y335782D01*
X30592Y333908D01*
X28718Y331624D01*
X27325Y329018D01*
X26467Y326190D01*
X26177Y323250D01*
X26467Y320309D01*
X27325Y317482D01*
X28718Y314876D01*
X30592Y312592D01*
X32876Y310718D01*
X35482Y309325D01*
X38310Y308467D01*
X41250Y308177D01*
X44191Y308467D01*
X47018Y309325D01*
X49624Y310718D01*
X51908Y312592D01*
X53782Y314876D01*
X55175Y317482D01*
X56033Y320309D01*
X56323Y323250D01*
X56033Y326190D01*
X55175Y329018D01*
X53782Y331624D01*
X51908Y333908D01*
X49624Y335782D01*
X47018Y337175D01*
X44191Y338033D01*
X41250Y338322D01*
D02*
G37*
G36*
X87921Y47500D02*
X52500D01*
Y12079D01*
X55963Y12352D01*
X61779Y13748D01*
X67305Y16037D01*
X72405Y19162D01*
X76953Y23047D01*
X80838Y27595D01*
X83963Y32695D01*
X86252Y38221D01*
X87648Y44037D01*
X87921Y47500D01*
D02*
G37*
G36*
X41250Y388322D02*
X38310Y388033D01*
X35482Y387175D01*
X32876Y385782D01*
X30592Y383908D01*
X28718Y381624D01*
X27325Y379018D01*
X26467Y376190D01*
X26177Y373250D01*
X26467Y370309D01*
X27325Y367482D01*
X28718Y364876D01*
X30592Y362592D01*
X32876Y360718D01*
X35482Y359325D01*
X38310Y358467D01*
X41250Y358177D01*
X44191Y358467D01*
X47018Y359325D01*
X49624Y360718D01*
X51908Y362592D01*
X53782Y364876D01*
X55175Y367482D01*
X56033Y370309D01*
X56323Y373250D01*
X56033Y376190D01*
X55175Y379018D01*
X53782Y381624D01*
X51908Y383908D01*
X49624Y385782D01*
X47018Y387175D01*
X44191Y388033D01*
X41250Y388322D01*
D02*
G37*
G36*
X273750Y387371D02*
X270095Y386890D01*
X266690Y385479D01*
X263765Y383235D01*
X261521Y380310D01*
X260110Y376905D01*
X259629Y373250D01*
X260110Y369595D01*
X261521Y366190D01*
X263765Y363265D01*
X266690Y361021D01*
X270095Y359610D01*
X273750Y359129D01*
X277405Y359610D01*
X280810Y361021D01*
X283735Y363265D01*
X285979Y366190D01*
X287390Y369595D01*
X287871Y373250D01*
X287390Y376905D01*
X285979Y380310D01*
X283735Y383235D01*
X280810Y385479D01*
X277405Y386890D01*
X273750Y387371D01*
D02*
G37*
G36*
X47500Y47500D02*
X12079D01*
X12352Y44037D01*
X13748Y38221D01*
X16037Y32695D01*
X19162Y27595D01*
X23047Y23047D01*
X27595Y19162D01*
X32695Y16037D01*
X38221Y13748D01*
X44037Y12352D01*
X47500Y12079D01*
Y47500D01*
D02*
G37*
G36*
X320900Y365100D02*
X314552D01*
Y362363D01*
X314941Y360407D01*
X316049Y358749D01*
X317707Y357641D01*
X319662Y357252D01*
X320900D01*
Y365100D01*
D02*
G37*
G36*
X293750Y275266D02*
Y267000D01*
X302016D01*
X301967Y267372D01*
X300858Y270047D01*
X299095Y272345D01*
X296798Y274109D01*
X294122Y275217D01*
X293750Y275266D01*
D02*
G37*
G36*
X118500Y72354D02*
X115367Y71941D01*
X112448Y70732D01*
X109942Y68808D01*
X108018Y66302D01*
X106809Y63383D01*
X106397Y60250D01*
X106809Y57117D01*
X108018Y54198D01*
X109942Y51691D01*
X112448Y49768D01*
X115367Y48559D01*
X115663Y48520D01*
X115580Y47250D01*
X106500D01*
Y23250D01*
X130500D01*
Y47250D01*
X121420D01*
X121337Y48520D01*
X121633Y48559D01*
X124552Y49768D01*
X127058Y51691D01*
X128982Y54198D01*
X130191Y57117D01*
X130604Y60250D01*
X130191Y63383D01*
X128982Y66302D01*
X127058Y68808D01*
X124552Y70732D01*
X121633Y71941D01*
X118500Y72354D01*
D02*
G37*
G36*
X334700Y32750D02*
X331200D01*
X331522Y31972D01*
X332564Y30614D01*
X333922Y29572D01*
X334700Y29250D01*
Y32750D01*
D02*
G37*
G36*
X288750Y275266D02*
X288378Y275217D01*
X285702Y274109D01*
X283405Y272345D01*
X281642Y270047D01*
X280533Y267372D01*
X280484Y267000D01*
X288750D01*
Y275266D01*
D02*
G37*
G36*
X130750Y327371D02*
X127095Y326890D01*
X123690Y325479D01*
X120765Y323235D01*
X118521Y320310D01*
X117110Y316905D01*
X116629Y313250D01*
X117110Y309595D01*
X118521Y306190D01*
X120765Y303265D01*
X123690Y301021D01*
X127095Y299610D01*
X130750Y299129D01*
X134405Y299610D01*
X137810Y301021D01*
X140735Y303265D01*
X142979Y306190D01*
X144390Y309595D01*
X144871Y313250D01*
X144390Y316905D01*
X142979Y320310D01*
X140735Y323235D01*
X137810Y325479D01*
X134405Y326890D01*
X130750Y327371D01*
D02*
G37*
G36*
X253750D02*
X250095Y326890D01*
X246690Y325479D01*
X243765Y323235D01*
X241521Y320310D01*
X240110Y316905D01*
X239629Y313250D01*
X240110Y309595D01*
X241521Y306190D01*
X243765Y303265D01*
X246690Y301021D01*
X250095Y299610D01*
X253750Y299129D01*
X257405Y299610D01*
X260810Y301021D01*
X263735Y303265D01*
X265979Y306190D01*
X267390Y309595D01*
X267871Y313250D01*
X267390Y316905D01*
X265979Y320310D01*
X263735Y323235D01*
X260810Y325479D01*
X257405Y326890D01*
X253750Y327371D01*
D02*
G37*
G36*
X687921Y47500D02*
X652500D01*
Y12079D01*
X655963Y12352D01*
X661779Y13748D01*
X667305Y16037D01*
X672405Y19162D01*
X676953Y23047D01*
X680838Y27595D01*
X683963Y32695D01*
X686252Y38221D01*
X687648Y44037D01*
X687921Y47500D01*
D02*
G37*
G36*
X647500D02*
X612079D01*
X612352Y44037D01*
X613748Y38221D01*
X616037Y32695D01*
X619162Y27595D01*
X623047Y23047D01*
X627595Y19162D01*
X632695Y16037D01*
X638221Y13748D01*
X644037Y12352D01*
X647500Y12079D01*
Y47500D01*
D02*
G37*
G36*
X266533Y430750D02*
X256250D01*
Y420467D01*
X257144Y420585D01*
X260306Y421894D01*
X263022Y423978D01*
X265105Y426694D01*
X266415Y429856D01*
X266533Y430750D01*
D02*
G37*
G36*
X317800Y433027D02*
X317102Y432935D01*
X314122Y431700D01*
X311563Y429737D01*
X309600Y427178D01*
X308365Y424198D01*
X308273Y423500D01*
X317800D01*
Y433027D01*
D02*
G37*
G36*
X130750Y447371D02*
X127095Y446890D01*
X123690Y445479D01*
X120765Y443235D01*
X118521Y440310D01*
X117110Y436905D01*
X116629Y433250D01*
X117110Y429595D01*
X118521Y426190D01*
X120765Y423265D01*
X123690Y421021D01*
X127095Y419610D01*
X130750Y419129D01*
X134405Y419610D01*
X137810Y421021D01*
X140735Y423265D01*
X142979Y426190D01*
X144390Y429595D01*
X144871Y433250D01*
X144390Y436905D01*
X142979Y440310D01*
X140735Y443235D01*
X137810Y445479D01*
X134405Y446890D01*
X130750Y447371D01*
D02*
G37*
G36*
X251250Y430750D02*
X240967D01*
X241085Y429856D01*
X242395Y426694D01*
X244478Y423978D01*
X247194Y421894D01*
X250356Y420585D01*
X251250Y420467D01*
Y430750D01*
D02*
G37*
G36*
X352637Y434374D02*
X338763D01*
X336300Y433884D01*
X334211Y432489D01*
X332816Y430401D01*
X332326Y427938D01*
Y427295D01*
X331056Y427043D01*
X331000Y427178D01*
X329037Y429737D01*
X326478Y431700D01*
X323498Y432935D01*
X322800Y433027D01*
Y421000D01*
X320300D01*
Y418500D01*
X308273D01*
X308365Y417802D01*
X309600Y414822D01*
X311563Y412263D01*
X314122Y410300D01*
X317102Y409065D01*
X317647Y407713D01*
X316940Y406654D01*
X316552Y404705D01*
Y404200D01*
X324400D01*
Y399200D01*
X316552D01*
Y398695D01*
X316940Y396746D01*
X318044Y395094D01*
X318631Y394702D01*
Y393432D01*
X318144Y393106D01*
X317040Y391454D01*
X316652Y389505D01*
Y389000D01*
X324500D01*
Y384000D01*
X316652D01*
Y383495D01*
X317040Y381546D01*
X318144Y379894D01*
X319243Y379160D01*
X318974Y377811D01*
X317707Y377559D01*
X316049Y376451D01*
X314941Y374793D01*
X314552Y372837D01*
Y370100D01*
X323400D01*
Y367600D01*
X325900D01*
Y357252D01*
X327137D01*
X329093Y357641D01*
X330751Y358749D01*
X331035Y359173D01*
X332562D01*
X333328Y358028D01*
X335317Y356699D01*
X337663Y356232D01*
X344713D01*
X345311Y355034D01*
X341664Y351387D01*
X340622Y350029D01*
X340159Y348911D01*
X339967Y348448D01*
X339744Y346751D01*
Y334389D01*
X338605Y333827D01*
X338039Y334262D01*
X335849Y335168D01*
X333500Y335478D01*
X331151Y335168D01*
X328961Y334262D01*
X327081Y332819D01*
X327002Y332716D01*
X325639Y333761D01*
X323450Y334668D01*
X321100Y334978D01*
X318750Y334668D01*
X316561Y333761D01*
X314860Y332456D01*
X302024D01*
X301498Y333726D01*
X302636Y334864D01*
X303678Y336222D01*
X304141Y337340D01*
X304333Y337803D01*
X304556Y339500D01*
Y362660D01*
X305861Y364361D01*
X306768Y366550D01*
X307078Y368900D01*
X306768Y371250D01*
X305861Y373439D01*
X304419Y375319D01*
X302539Y376762D01*
X300350Y377668D01*
X298000Y377978D01*
X295651Y377668D01*
X293461Y376762D01*
X291581Y375319D01*
X290138Y373439D01*
X289232Y371250D01*
X288922Y368900D01*
X289232Y366550D01*
X290138Y364361D01*
X291444Y362660D01*
Y342216D01*
X290777Y341548D01*
X288650Y341268D01*
X286461Y340361D01*
X284581Y338919D01*
X283139Y337039D01*
X282232Y334850D01*
X281922Y332500D01*
X282232Y330150D01*
X283139Y327961D01*
X284581Y326081D01*
X286461Y324638D01*
X288650Y323732D01*
X290777Y323452D01*
X291044Y323184D01*
Y311216D01*
X254977Y275148D01*
X252850Y274868D01*
X250661Y273962D01*
X248781Y272519D01*
X247339Y270639D01*
X246432Y268449D01*
X246122Y266100D01*
X246432Y263750D01*
X247339Y261561D01*
X248781Y259681D01*
X250661Y258239D01*
X252850Y257332D01*
X255200Y257022D01*
X257549Y257332D01*
X259739Y258239D01*
X261619Y259681D01*
X263061Y261561D01*
X263968Y263750D01*
X264248Y265877D01*
X302236Y303864D01*
X303278Y305222D01*
X303741Y306340D01*
X303933Y306803D01*
X304156Y308500D01*
Y319344D01*
X314544D01*
Y282676D01*
X314438Y282539D01*
X313532Y280350D01*
X313222Y278000D01*
X313532Y275651D01*
X314438Y273461D01*
X315881Y271581D01*
X317761Y270139D01*
X318680Y269758D01*
X318846Y268499D01*
X318481Y268219D01*
X317039Y266339D01*
X316132Y264149D01*
X315822Y261800D01*
X316132Y259450D01*
X317039Y257261D01*
X318344Y255560D01*
Y254735D01*
X318567Y253038D01*
X318895Y252248D01*
X319222Y251457D01*
X320264Y250099D01*
X348393Y221970D01*
Y206091D01*
X347123Y205660D01*
X345989Y207139D01*
X343795Y208822D01*
X341241Y209880D01*
X338500Y210241D01*
X335759Y209880D01*
X333205Y208822D01*
X331011Y207139D01*
X329328Y204945D01*
X328270Y202391D01*
X327909Y199650D01*
X328270Y196909D01*
X329328Y194355D01*
X331011Y192161D01*
X333205Y190478D01*
X335759Y189420D01*
X338258Y189091D01*
X338278Y189086D01*
X338752Y188698D01*
X339318Y187886D01*
X339122Y186400D01*
X339206Y185766D01*
X338067Y184684D01*
X335759Y184380D01*
X333205Y183322D01*
X331011Y181639D01*
X329328Y179445D01*
X328270Y176891D01*
X327909Y174150D01*
X328270Y171409D01*
X329328Y168855D01*
X331011Y166661D01*
X333205Y164978D01*
X335759Y163920D01*
X338500Y163559D01*
X341241Y163920D01*
X343795Y164978D01*
X345989Y166661D01*
X347672Y168855D01*
X348730Y171409D01*
X349091Y174150D01*
X348730Y176891D01*
X349043Y177433D01*
X350550Y177632D01*
X352739Y178539D01*
X354619Y179981D01*
X355774Y181486D01*
X357044Y181055D01*
Y151466D01*
X339665Y134087D01*
X338500Y134241D01*
X335759Y133880D01*
X335192Y133645D01*
X334391Y134688D01*
X335061Y135561D01*
X335968Y137751D01*
X336182Y139373D01*
X338500Y139068D01*
X340980Y139395D01*
X343291Y140352D01*
X345275Y141875D01*
X346798Y143859D01*
X347747Y146150D01*
X338500D01*
Y148650D01*
X336000D01*
Y157897D01*
X333709Y156948D01*
X331725Y155426D01*
X330202Y153441D01*
X329245Y151130D01*
X329074Y149837D01*
X328067Y149064D01*
X327200Y149178D01*
X324851Y148868D01*
X322661Y147962D01*
X320781Y146519D01*
X319339Y144639D01*
X318432Y142450D01*
X318122Y140100D01*
X318432Y137751D01*
X319339Y135561D01*
X320644Y133860D01*
Y122944D01*
X320481Y122819D01*
X319039Y120939D01*
X318132Y118750D01*
X317822Y116400D01*
X318132Y114051D01*
X319039Y111861D01*
X320481Y109981D01*
X322361Y108539D01*
X324551Y107632D01*
X326900Y107322D01*
X329249Y107632D01*
X329524Y107745D01*
X330164Y106636D01*
X330079Y106571D01*
X328917Y105056D01*
X328187Y103293D01*
X327938Y101400D01*
Y94900D01*
X328187Y93007D01*
X328917Y91244D01*
X330079Y89729D01*
X331594Y88567D01*
X333357Y87837D01*
X335250Y87587D01*
X341750D01*
X343643Y87837D01*
X345406Y88567D01*
X346921Y89729D01*
X348083Y91244D01*
X348813Y93007D01*
X349062Y94900D01*
Y97981D01*
X349984Y98596D01*
X350332Y98621D01*
X352600Y98322D01*
X354949Y98632D01*
X357139Y99538D01*
X359019Y100981D01*
X360462Y102861D01*
X361368Y105050D01*
X361678Y107400D01*
X361368Y109749D01*
X360462Y111939D01*
X359019Y113819D01*
X357139Y115261D01*
X354949Y116168D01*
X352823Y116448D01*
X348622Y120649D01*
X348730Y120909D01*
X349091Y123650D01*
X348937Y124816D01*
X368236Y144114D01*
X369278Y145472D01*
X369741Y146590D01*
X369933Y147053D01*
X370156Y148750D01*
Y211250D01*
X392250D01*
Y213173D01*
X393418Y213563D01*
X393887Y213155D01*
X393894Y213144D01*
X393916Y213129D01*
X394280Y212811D01*
X394238Y211586D01*
X393894Y211356D01*
X392790Y209704D01*
X392402Y207755D01*
Y207250D01*
X400250D01*
Y204750D01*
X402750D01*
Y196652D01*
X403005D01*
X404954Y197040D01*
X406606Y198144D01*
X406885Y198561D01*
X408412Y198561D01*
X409173Y197423D01*
X411156Y196098D01*
X413495Y195633D01*
X419005D01*
X419012Y195634D01*
X419994Y194828D01*
Y190704D01*
X419061Y189989D01*
X417378Y187795D01*
X416320Y185241D01*
X415959Y182500D01*
X416320Y179759D01*
X417378Y177205D01*
X419061Y175011D01*
X421255Y173328D01*
X423809Y172270D01*
X426550Y171909D01*
X429291Y172270D01*
X431845Y173328D01*
X434039Y175011D01*
X435722Y177205D01*
X436780Y179759D01*
X437141Y182500D01*
X436780Y185241D01*
X435722Y187795D01*
X434039Y189989D01*
X433106Y190704D01*
Y195633D01*
X434005D01*
X436344Y196098D01*
X438327Y197423D01*
X438615Y197854D01*
X439885D01*
X440173Y197423D01*
X442156Y196098D01*
X444495Y195633D01*
X445394D01*
Y190704D01*
X444461Y189989D01*
X442778Y187795D01*
X441720Y185241D01*
X441359Y182500D01*
X441720Y179759D01*
X442778Y177205D01*
X444461Y175011D01*
X446655Y173328D01*
X449209Y172270D01*
X451950Y171909D01*
X454691Y172270D01*
X457245Y173328D01*
X459439Y175011D01*
X461122Y177205D01*
X462180Y179759D01*
X462541Y182500D01*
X462180Y185241D01*
X461122Y187795D01*
X459439Y189989D01*
X458506Y190704D01*
Y194828D01*
X459488Y195634D01*
X459495Y195633D01*
X465005D01*
X467344Y196098D01*
X469327Y197423D01*
X470088Y198561D01*
X471615Y198561D01*
X471894Y198144D01*
X473546Y197040D01*
X475495Y196652D01*
X475750D01*
Y204750D01*
X480750D01*
Y196652D01*
X481005D01*
X482954Y197040D01*
X483458Y196887D01*
X484500Y194372D01*
X486463Y191813D01*
X489022Y189850D01*
X492002Y188615D01*
X495200Y188194D01*
X496227Y188330D01*
X496789Y187190D01*
X494627Y185028D01*
X494250Y185078D01*
X491900Y184768D01*
X489711Y183862D01*
X487831Y182419D01*
X486389Y180539D01*
X485482Y178349D01*
X485172Y176000D01*
X485482Y173650D01*
X486389Y171461D01*
X487831Y169581D01*
X489711Y168139D01*
X491900Y167232D01*
X494250Y166922D01*
X496006Y167154D01*
X496599Y165951D01*
X472024Y141376D01*
X470698Y139391D01*
X470233Y137050D01*
Y116399D01*
X460159Y106325D01*
X458956Y106919D01*
X459178Y108600D01*
X458868Y110949D01*
X457961Y113139D01*
X456519Y115019D01*
X454639Y116461D01*
X452449Y117368D01*
X450100Y117678D01*
X447751Y117368D01*
X445561Y116461D01*
X443681Y115019D01*
X442239Y113139D01*
X441332Y110949D01*
X441022Y108600D01*
X441332Y106250D01*
X442239Y104061D01*
X443681Y102181D01*
X443982Y101950D01*
Y98634D01*
X423666Y78317D01*
X288934D01*
X256728Y110524D01*
X256778Y110900D01*
X256468Y113250D01*
X255562Y115439D01*
X254119Y117319D01*
X252239Y118762D01*
X250049Y119668D01*
X247700Y119978D01*
X245350Y119668D01*
X243161Y118762D01*
X241281Y117319D01*
X239839Y115439D01*
X238932Y113250D01*
X238622Y110900D01*
X238932Y108551D01*
X239839Y106361D01*
X241281Y104481D01*
X243161Y103039D01*
X245350Y102132D01*
X247700Y101822D01*
X248077Y101872D01*
X264158Y85791D01*
X263672Y84618D01*
X257877D01*
X256778Y85350D01*
X256468Y87699D01*
X255562Y89889D01*
X254119Y91769D01*
X252239Y93211D01*
X250049Y94118D01*
X247700Y94428D01*
X245350Y94118D01*
X243161Y93211D01*
X241281Y91769D01*
X239839Y89889D01*
X238932Y87699D01*
X238622Y85350D01*
X238932Y83000D01*
X239839Y80811D01*
X241281Y78931D01*
X243161Y77488D01*
X245350Y76582D01*
X247700Y76272D01*
X248077Y76322D01*
X250224Y74174D01*
X252209Y72848D01*
X253113Y72668D01*
X253481Y71453D01*
X247477Y65448D01*
X245350Y65168D01*
X243161Y64261D01*
X241281Y62819D01*
X239839Y60939D01*
X238932Y58749D01*
X238622Y56400D01*
X238932Y54050D01*
X239839Y51861D01*
X241281Y49981D01*
X243161Y48538D01*
X245350Y47632D01*
X247700Y47322D01*
X250049Y47632D01*
X252239Y48538D01*
X254119Y49981D01*
X255562Y51861D01*
X256468Y54050D01*
X256748Y56177D01*
X265460Y64888D01*
X266763D01*
X276587Y55064D01*
X277944Y54022D01*
X278871Y53639D01*
X279526Y53367D01*
X281222Y53144D01*
X290934D01*
X291365Y51874D01*
X290494Y51206D01*
X289212Y49535D01*
X288406Y47588D01*
X288131Y45500D01*
X288406Y43412D01*
X289212Y41466D01*
X290494Y39794D01*
X292166Y38512D01*
X292299Y38189D01*
X291893Y37208D01*
X291635Y35250D01*
X291893Y33292D01*
X292649Y31468D01*
X293851Y29901D01*
X295418Y28699D01*
X297242Y27943D01*
X299200Y27685D01*
X301158Y27943D01*
X302982Y28699D01*
X304549Y29901D01*
X305751Y31468D01*
X306507Y33292D01*
X306765Y35250D01*
X306507Y37208D01*
X305751Y39032D01*
X304549Y40599D01*
X303244Y41600D01*
X303994Y43412D01*
X304269Y45500D01*
X303994Y47588D01*
X303188Y49535D01*
X301906Y51206D01*
X301035Y51874D01*
X301466Y53144D01*
X334934D01*
X335365Y51874D01*
X334494Y51206D01*
X333212Y49535D01*
X332406Y47588D01*
X332131Y45500D01*
X332406Y43412D01*
X333212Y41466D01*
X333735Y40784D01*
X332564Y39886D01*
X331522Y38528D01*
X331200Y37750D01*
X337200D01*
Y35250D01*
X339700D01*
Y29250D01*
X340478Y29572D01*
X341836Y30614D01*
X342878Y31972D01*
X343533Y33553D01*
X343756Y35250D01*
X343533Y36947D01*
X343426Y37205D01*
X343912Y38378D01*
X344235Y38512D01*
X345906Y39794D01*
X347188Y41466D01*
X347994Y43412D01*
X348269Y45500D01*
X347994Y47588D01*
X347188Y49535D01*
X345906Y51206D01*
X345035Y51874D01*
X345466Y53144D01*
X431378D01*
X433074Y53367D01*
X433729Y53639D01*
X434656Y54022D01*
X436013Y55064D01*
X445621Y64672D01*
X447010Y64575D01*
X447279Y64173D01*
X449262Y62848D01*
X450678Y62566D01*
X450636Y61280D01*
X449633Y61148D01*
X446774Y59964D01*
X444320Y58080D01*
X442436Y55626D01*
X441253Y52767D01*
X441178Y52200D01*
X464222D01*
X464148Y52767D01*
X462964Y55626D01*
X461080Y58080D01*
X458626Y59964D01*
X455767Y61148D01*
X455975Y62383D01*
X457111D01*
X459450Y62848D01*
X461433Y64173D01*
X461721Y64604D01*
X462991D01*
X463279Y64173D01*
X465262Y62848D01*
X467601Y62383D01*
X473111D01*
X475450Y62848D01*
X477433Y64173D01*
X477731Y64222D01*
X478361Y63739D01*
X480550Y62832D01*
X482900Y62522D01*
X485249Y62832D01*
X487439Y63739D01*
X489319Y65181D01*
X490761Y67061D01*
X491668Y69250D01*
X491978Y71600D01*
X491668Y73949D01*
X490761Y76139D01*
X490404Y76605D01*
X490704Y77213D01*
X491119Y77760D01*
X492697Y77967D01*
X493487Y78295D01*
X494278Y78622D01*
X495636Y79664D01*
X515636Y99664D01*
X516678Y101022D01*
X517061Y101948D01*
X517333Y102603D01*
X517556Y104300D01*
Y137520D01*
X518826Y138146D01*
X519861Y137352D01*
X522051Y136445D01*
X524400Y136135D01*
X526749Y136445D01*
X528939Y137352D01*
X530819Y138794D01*
X532261Y140674D01*
X533168Y142864D01*
X533448Y144990D01*
X620736Y232277D01*
X621778Y233635D01*
X622020Y234219D01*
X622433Y235216D01*
X622656Y236913D01*
Y274160D01*
X623961Y275861D01*
X624868Y278050D01*
X625178Y280400D01*
X624868Y282750D01*
X623961Y284939D01*
X622519Y286819D01*
X620639Y288262D01*
X618450Y289168D01*
X616484Y289427D01*
X615775Y290382D01*
X616215Y291548D01*
X616850Y291632D01*
X619039Y292539D01*
X620919Y293981D01*
X622361Y295861D01*
X623268Y298050D01*
X623578Y300400D01*
X623268Y302750D01*
X622361Y304939D01*
X620919Y306819D01*
X619039Y308262D01*
X616850Y309168D01*
X615256Y309378D01*
Y368800D01*
X615033Y370496D01*
X614841Y370959D01*
X614378Y372077D01*
X613336Y373435D01*
X599935Y386836D01*
X598577Y387878D01*
X597651Y388261D01*
X596996Y388533D01*
X595299Y388756D01*
X594843D01*
X594733Y389597D01*
X594078Y391178D01*
X593036Y392536D01*
X591678Y393578D01*
X590097Y394233D01*
X588400Y394456D01*
X580400D01*
X578703Y394233D01*
X577122Y393578D01*
X575764Y392536D01*
X574722Y391178D01*
X574067Y389597D01*
X573844Y387900D01*
Y382900D01*
X574067Y381203D01*
X574722Y379622D01*
X575161Y379050D01*
X574722Y378478D01*
X574067Y376897D01*
X573844Y375200D01*
Y370200D01*
X574067Y368503D01*
X574529Y367388D01*
X573963Y366301D01*
X573739Y366118D01*
X568250D01*
X568019Y366419D01*
X566139Y367862D01*
X563950Y368768D01*
X561600Y369078D01*
X559250Y368768D01*
X557061Y367862D01*
X555181Y366419D01*
X554950Y366118D01*
X553400D01*
X551059Y365652D01*
X549074Y364326D01*
X521474Y336726D01*
X520148Y334741D01*
X519683Y332400D01*
Y306100D01*
X518619Y304935D01*
X517351Y304768D01*
X515161Y303861D01*
X513281Y302419D01*
X511838Y300539D01*
X510932Y298349D01*
X510622Y296000D01*
X510672Y295623D01*
X507172Y292123D01*
X505998Y292609D01*
Y296505D01*
X505611Y298454D01*
X504507Y300107D01*
X504119Y300365D01*
Y301635D01*
X504507Y301894D01*
X505611Y303546D01*
X505998Y305495D01*
Y306000D01*
X498151D01*
Y311000D01*
X505998D01*
Y311505D01*
X505611Y313454D01*
X504875Y314556D01*
X505351Y315268D01*
X505818Y317615D01*
Y329585D01*
X505351Y331932D01*
X504021Y333922D01*
X502032Y335251D01*
X499685Y335718D01*
X490715D01*
X488368Y335251D01*
X486379Y333922D01*
X485049Y331932D01*
X484582Y329585D01*
Y317618D01*
X479396D01*
X477056Y317152D01*
X475545Y316142D01*
X474651Y315928D01*
X473756Y316142D01*
X472245Y317152D01*
X469906Y317618D01*
X464396D01*
X462056Y317152D01*
X460073Y315827D01*
X459786Y315397D01*
X458516D01*
X458228Y315827D01*
X457484Y316324D01*
X457360Y317588D01*
X459536Y319764D01*
X460578Y321122D01*
X460961Y322048D01*
X461233Y322703D01*
X461456Y324400D01*
Y325291D01*
X462450Y326107D01*
Y332400D01*
X467450D01*
Y326389D01*
X468313Y326560D01*
X468987Y327010D01*
X470152Y327552D01*
X471637Y326560D01*
X472500Y326388D01*
Y332399D01*
X475000D01*
Y334191D01*
X476612D01*
X478754Y334617D01*
X479176Y334899D01*
X481011D01*
X480840Y335762D01*
X480681Y335999D01*
X481782Y337646D01*
X482095Y339223D01*
X487280Y344408D01*
X509460D01*
X511161Y343103D01*
X513350Y342196D01*
X515700Y341886D01*
X518050Y342196D01*
X520239Y343103D01*
X522119Y344545D01*
X523562Y346425D01*
X524468Y348615D01*
X524778Y350964D01*
X524468Y353314D01*
X523562Y355503D01*
X522119Y357383D01*
X520239Y358826D01*
X518050Y359733D01*
X515700Y360042D01*
X513350Y359733D01*
X511161Y358826D01*
X509460Y357520D01*
X484565D01*
X482868Y357297D01*
X481871Y356884D01*
X481287Y356642D01*
X479929Y355600D01*
X477981Y353652D01*
X477024Y354491D01*
X477462Y355061D01*
X478368Y357251D01*
X478648Y359376D01*
X479905Y360633D01*
X482270D01*
X484603Y361097D01*
X486581Y362419D01*
X487063Y363140D01*
X487640D01*
X489287Y362039D01*
X491230Y361652D01*
X491750D01*
Y369250D01*
X494250D01*
Y371750D01*
X502348D01*
Y371770D01*
X501961Y373713D01*
X500860Y375360D01*
X499988Y375943D01*
X499955Y376042D01*
X500075Y377412D01*
X501581Y378419D01*
X502903Y380397D01*
X503367Y382730D01*
Y387770D01*
X502903Y390103D01*
X501581Y392081D01*
X499603Y393403D01*
X497270Y393867D01*
X491230D01*
X488897Y393403D01*
X488016Y392815D01*
X485484D01*
X484603Y393403D01*
X482984Y393725D01*
X483178Y395200D01*
X482868Y397550D01*
X481961Y399739D01*
X480519Y401619D01*
X478639Y403061D01*
X476450Y403968D01*
X474100Y404278D01*
X471750Y403968D01*
X469561Y403061D01*
X467681Y401619D01*
X466239Y399739D01*
X465332Y397550D01*
X465022Y395200D01*
X465332Y392850D01*
X466239Y390661D01*
X467681Y388781D01*
X467766Y388716D01*
X467767Y388703D01*
X468039Y388048D01*
X468422Y387122D01*
X469464Y385764D01*
X470042Y385186D01*
X469923Y383912D01*
X468863Y383390D01*
X468639Y383562D01*
X466450Y384468D01*
X464100Y384778D01*
X461750Y384468D01*
X459561Y383562D01*
X458574Y382804D01*
X457153Y383753D01*
X454820Y384217D01*
X448780D01*
X446447Y383753D01*
X444469Y382431D01*
X444131D01*
X442153Y383753D01*
X439820Y384217D01*
X433780D01*
X431447Y383753D01*
X429469Y382431D01*
X429131D01*
X427153Y383753D01*
X424820Y384217D01*
X418780D01*
X416447Y383753D01*
X414469Y382431D01*
X414218Y382056D01*
X409000D01*
X407303Y381833D01*
X406840Y381641D01*
X405722Y381178D01*
X404364Y380136D01*
X399464Y375236D01*
X398422Y373878D01*
X398095Y373087D01*
X397767Y372297D01*
X397544Y370600D01*
Y362816D01*
X391976Y357248D01*
X390478Y357546D01*
X389572Y359732D01*
X387449Y362500D01*
X384681Y364624D01*
X383495Y365115D01*
Y366385D01*
X384681Y366876D01*
X387449Y369000D01*
X389572Y371768D01*
X390908Y374991D01*
X391363Y378450D01*
X390908Y381909D01*
X389572Y385132D01*
X387449Y387900D01*
X384681Y390024D01*
X384555Y390076D01*
Y400580D01*
X387400D01*
X389780Y401054D01*
X391798Y402402D01*
X393146Y404420D01*
X393619Y406800D01*
Y414600D01*
X393146Y416980D01*
X391798Y418998D01*
X389780Y420346D01*
X387400Y420820D01*
X364600D01*
X362220Y420346D01*
X360344Y419092D01*
X359074Y419421D01*
Y427938D01*
X358584Y430401D01*
X357188Y432489D01*
X355101Y433884D01*
X352637Y434374D01*
D02*
G37*
G36*
X408200Y435750D02*
X401453D01*
X402402Y433459D01*
X403924Y431474D01*
X405909Y429952D01*
X408200Y429003D01*
Y435750D01*
D02*
G37*
G36*
X565400Y430500D02*
X552420D01*
X552576Y429314D01*
X553267Y427647D01*
X554365Y426215D01*
X555797Y425117D01*
X557464Y424426D01*
X559253Y424191D01*
X565400D01*
Y430500D01*
D02*
G37*
G36*
X583380D02*
X570400D01*
Y424191D01*
X576548D01*
X578336Y424426D01*
X580003Y425117D01*
X581435Y426215D01*
X582533Y427647D01*
X583224Y429314D01*
X583380Y430500D01*
D02*
G37*
G36*
X480900Y480404D02*
X477767Y479991D01*
X474848Y478782D01*
X472341Y476858D01*
X470418Y474352D01*
X469209Y471433D01*
X468797Y468300D01*
X469209Y465167D01*
X470418Y462248D01*
X472341Y459742D01*
X474848Y457818D01*
X477767Y456609D01*
X477484Y455418D01*
X474900D01*
X472559Y454952D01*
X470574Y453626D01*
X469248Y451641D01*
X468783Y449300D01*
Y437300D01*
X469248Y434959D01*
X469509Y434569D01*
X469097Y433953D01*
X468633Y431620D01*
Y423580D01*
X469097Y421247D01*
X470419Y419269D01*
X472397Y417947D01*
X474730Y417483D01*
X482770D01*
X485103Y417947D01*
X487081Y419269D01*
X488403Y421247D01*
X488603Y422250D01*
X489897D01*
X490097Y421247D01*
X491419Y419269D01*
X493397Y417947D01*
X495730Y417483D01*
X503770D01*
X506103Y417947D01*
X508081Y419269D01*
X509403Y421247D01*
X509867Y423580D01*
Y431620D01*
X509403Y433953D01*
X508081Y435931D01*
X506103Y437253D01*
X505588Y437355D01*
X505402Y438291D01*
X504076Y440276D01*
X500518Y443834D01*
Y454800D01*
X500052Y457141D01*
X498726Y459126D01*
X492602Y465250D01*
X493004Y468300D01*
X492591Y471433D01*
X491382Y474352D01*
X489459Y476858D01*
X486952Y478782D01*
X484033Y479991D01*
X480900Y480404D01*
D02*
G37*
G36*
X535950Y415913D02*
X532450D01*
X530206Y415466D01*
X528304Y414196D01*
X527034Y412294D01*
X526587Y410050D01*
Y403550D01*
X526635Y403310D01*
Y402026D01*
X526338Y401639D01*
X525432Y399450D01*
X525122Y397100D01*
X525432Y394751D01*
X526338Y392561D01*
X527781Y390681D01*
X529661Y389239D01*
X531850Y388332D01*
X534200Y388022D01*
X536549Y388332D01*
X538739Y389239D01*
X540619Y390681D01*
X542061Y392561D01*
X542968Y394751D01*
X543278Y397100D01*
X542968Y399450D01*
X542061Y401639D01*
X541765Y402026D01*
Y403308D01*
X541813Y403550D01*
Y410050D01*
X541366Y412294D01*
X540095Y414196D01*
X538194Y415466D01*
X535950Y415913D01*
D02*
G37*
G36*
X118750Y411533D02*
X117856Y411415D01*
X114694Y410106D01*
X111978Y408022D01*
X109895Y405306D01*
X108585Y402144D01*
X108467Y401250D01*
X118750D01*
Y411533D01*
D02*
G37*
G36*
X502348Y366750D02*
X496750D01*
Y361652D01*
X497270D01*
X499213Y362039D01*
X500860Y363140D01*
X501961Y364787D01*
X502348Y366730D01*
Y366750D01*
D02*
G37*
G36*
X434525Y439265D02*
X429400D01*
Y430400D01*
Y421535D01*
X434525D01*
X435654Y421759D01*
X436635Y420954D01*
Y401826D01*
X436339Y401439D01*
X435432Y399249D01*
X435122Y396900D01*
X435432Y394551D01*
X436339Y392361D01*
X437781Y390481D01*
X439661Y389039D01*
X441851Y388132D01*
X444200Y387822D01*
X446549Y388132D01*
X448739Y389039D01*
X450619Y390481D01*
X452062Y392361D01*
X452968Y394551D01*
X453278Y396900D01*
X452968Y399249D01*
X452062Y401439D01*
X451765Y401826D01*
Y425508D01*
X451863Y426000D01*
Y432500D01*
X451416Y434743D01*
X450145Y436646D01*
X448243Y437916D01*
X446000Y438363D01*
X442500D01*
X440257Y437916D01*
X439035Y437100D01*
X438761Y437511D01*
X436817Y438809D01*
X434525Y439265D01*
D02*
G37*
G36*
X123750Y411533D02*
Y401250D01*
X134033D01*
X133915Y402144D01*
X132605Y405306D01*
X130522Y408022D01*
X127806Y410106D01*
X124644Y411415D01*
X123750Y411533D01*
D02*
G37*
G36*
X413200Y447497D02*
Y438250D01*
Y427802D01*
X413285Y427727D01*
Y427525D01*
X413661Y425633D01*
X412911Y424363D01*
X405450D01*
X403206Y423916D01*
X401304Y422645D01*
X400033Y420743D01*
X399587Y418500D01*
Y408000D01*
X400033Y405756D01*
X401304Y403854D01*
X403206Y402584D01*
X405450Y402137D01*
X415950D01*
X418193Y402584D01*
X420095Y403854D01*
X421366Y405756D01*
X421812Y408000D01*
Y418500D01*
X421461Y420265D01*
X422248Y421535D01*
X424400D01*
Y430400D01*
Y439265D01*
X420148D01*
X419955Y440730D01*
X418998Y443041D01*
X417475Y445025D01*
X415491Y446548D01*
X413200Y447497D01*
D02*
G37*
G36*
X41250Y438322D02*
X38310Y438033D01*
X35482Y437175D01*
X32876Y435782D01*
X30592Y433908D01*
X28718Y431624D01*
X27325Y429018D01*
X26467Y426190D01*
X26177Y423250D01*
X26467Y420309D01*
X27325Y417482D01*
X28718Y414876D01*
X30592Y412592D01*
X32876Y410718D01*
X35482Y409325D01*
X38310Y408467D01*
X41250Y408177D01*
X44191Y408467D01*
X47018Y409325D01*
X49624Y410718D01*
X51908Y412592D01*
X53782Y414876D01*
X55175Y417482D01*
X56033Y420309D01*
X56323Y423250D01*
X56033Y426190D01*
X55175Y429018D01*
X53782Y431624D01*
X51908Y433908D01*
X49624Y435782D01*
X47018Y437175D01*
X44191Y438033D01*
X41250Y438322D01*
D02*
G37*
%LPD*%
G36*
X607052Y280177D02*
X607332Y278050D01*
X608239Y275861D01*
X609544Y274160D01*
Y239629D01*
X607640Y237724D01*
X606469Y238350D01*
X606599Y239000D01*
X596100D01*
Y234402D01*
X601600D01*
X602750Y234631D01*
X603376Y233460D01*
X569128Y199213D01*
X567925Y199806D01*
X568056Y200800D01*
X567833Y202497D01*
X567617Y203016D01*
Y274606D01*
X568674Y275312D01*
X569351Y275032D01*
X571700Y274722D01*
X574049Y275032D01*
X576239Y275938D01*
X576474Y276119D01*
X577122Y275622D01*
X578703Y274967D01*
X579479Y274865D01*
X580165Y274000D01*
X606599D01*
X606310Y275451D01*
X605205Y277105D01*
X603551Y278210D01*
X601600Y278598D01*
X595507D01*
X594767Y279868D01*
X594956Y281300D01*
Y286300D01*
X594733Y287997D01*
X594078Y289578D01*
X593639Y290150D01*
X594078Y290722D01*
X594263Y291169D01*
X595761Y291467D01*
X607052Y280177D01*
D02*
G37*
G36*
X439300Y352002D02*
X439820D01*
X441763Y352389D01*
X443410Y353490D01*
X443987D01*
X444469Y352769D01*
X446447Y351447D01*
X448780Y350983D01*
X454820D01*
X457153Y351447D01*
X459131Y352769D01*
X459315Y353044D01*
X463360D01*
X465061Y351739D01*
X467251Y350832D01*
X469600Y350522D01*
X471950Y350832D01*
X474139Y351739D01*
X474709Y352176D01*
X475548Y351219D01*
X472824Y348495D01*
X471247Y348181D01*
X470910Y347956D01*
X469041D01*
X468703Y348181D01*
X466562Y348607D01*
X463338D01*
X461197Y348181D01*
X460859Y347956D01*
X459589D01*
X458653Y348582D01*
X456512Y349007D01*
X453288D01*
X451147Y348582D01*
X449500Y347481D01*
X449263Y347640D01*
X448400Y347811D01*
Y345975D01*
X448118Y345553D01*
X447692Y343412D01*
Y341800D01*
X445900D01*
Y339300D01*
X439889D01*
X440060Y338437D01*
X440534Y337729D01*
X440964Y336750D01*
X440534Y335771D01*
X440060Y335063D01*
X439712Y333312D01*
Y330088D01*
X439998Y328650D01*
X439061Y328261D01*
X437181Y326819D01*
X435738Y324939D01*
X434832Y322749D01*
X434522Y320400D01*
X434721Y318888D01*
X433727Y317618D01*
X433396D01*
X431056Y317152D01*
X429073Y315827D01*
X428313Y314689D01*
X426786Y314689D01*
X426507Y315107D01*
X424855Y316210D01*
X422906Y316598D01*
X422651D01*
Y308500D01*
X420151D01*
Y306000D01*
X412303D01*
Y305495D01*
X412690Y303546D01*
X413794Y301894D01*
X414182Y301635D01*
Y300365D01*
X413794Y300107D01*
X412690Y298454D01*
X412303Y296505D01*
Y296000D01*
X420151D01*
Y293500D01*
X422651D01*
Y285402D01*
X422906D01*
X424855Y285790D01*
X426507Y286894D01*
X426786Y287311D01*
X428313Y287311D01*
X429073Y286173D01*
X431056Y284848D01*
X433396Y284383D01*
X438906D01*
X441245Y284848D01*
X441507Y285024D01*
X442650Y284260D01*
X442489Y283450D01*
Y281796D01*
X442175Y281387D01*
X441319Y279319D01*
X441027Y277100D01*
X441319Y274881D01*
X442175Y272813D01*
X443538Y271038D01*
X445313Y269675D01*
X447381Y268819D01*
X449600Y268527D01*
X451145Y268730D01*
X452503Y268167D01*
X454200Y267944D01*
X455897Y268167D01*
X457478Y268822D01*
X458836Y269864D01*
X459219Y270364D01*
X459464D01*
X460822Y269322D01*
X462403Y268667D01*
X464100Y268444D01*
X465797Y268667D01*
X466272Y268864D01*
X466381Y268819D01*
X468600Y268527D01*
X470819Y268819D01*
X472887Y269675D01*
X474662Y271038D01*
X476025Y272813D01*
X476881Y274881D01*
X477173Y277100D01*
X476881Y279319D01*
X476025Y281387D01*
X475711Y281796D01*
Y283450D01*
X475534Y284338D01*
X476677Y285102D01*
X477056Y284848D01*
X479396Y284383D01*
X484906D01*
X487245Y284848D01*
X489228Y286173D01*
X489988Y287311D01*
X491516Y287311D01*
X491794Y286894D01*
X493447Y285790D01*
X495396Y285402D01*
X495651D01*
Y293500D01*
X500651D01*
Y285402D01*
X500906D01*
X501553Y285531D01*
X501730Y285484D01*
X502783Y284481D01*
Y256161D01*
X501512Y255354D01*
X499685Y255718D01*
X490715D01*
X488368Y255251D01*
X486379Y253922D01*
X485049Y251932D01*
X484582Y249585D01*
Y237615D01*
X485049Y235268D01*
X485328Y234850D01*
X483626Y232632D01*
X482291Y229409D01*
X482179Y228559D01*
X481147Y227820D01*
X481005Y227848D01*
X480750D01*
Y219750D01*
X475750D01*
Y227848D01*
X475495D01*
X473546Y227460D01*
X471894Y226356D01*
X471615Y225939D01*
X470088Y225939D01*
X469327Y227077D01*
X467344Y228402D01*
X465005Y228867D01*
X459495D01*
X457156Y228402D01*
X455644Y227392D01*
X454998Y227238D01*
X454361Y227615D01*
X454298Y229058D01*
X454662Y229338D01*
X456025Y231113D01*
X456881Y233181D01*
X457173Y235400D01*
X456881Y237619D01*
X456025Y239687D01*
X455711Y240096D01*
Y241750D01*
X455272Y243955D01*
X454023Y245823D01*
X452155Y247072D01*
X449950Y247511D01*
X443250D01*
X441045Y247072D01*
X439177Y245823D01*
X439023D01*
X437155Y247072D01*
X434950Y247511D01*
X428250D01*
X426045Y247072D01*
X424177Y245823D01*
X422928Y243955D01*
X422489Y241750D01*
Y240096D01*
X422175Y239687D01*
X421319Y237619D01*
X421027Y235400D01*
X421319Y233181D01*
X422175Y231113D01*
X423538Y229338D01*
X423801Y229135D01*
X423728Y227591D01*
X423256Y227296D01*
X422856Y227392D01*
X421344Y228402D01*
X419005Y228867D01*
X413495D01*
X411156Y228402D01*
X409173Y227077D01*
X408412Y225939D01*
X406885Y225939D01*
X406606Y226356D01*
X404954Y227460D01*
X403005Y227848D01*
X402750D01*
Y219750D01*
X397750D01*
Y227848D01*
X397495D01*
X395546Y227460D01*
X393894Y226356D01*
X393520Y225797D01*
X392250Y226182D01*
Y235250D01*
X377522D01*
X376072Y236700D01*
X376791Y237776D01*
X377378Y237533D01*
X377750Y237484D01*
Y245750D01*
X369484D01*
X369533Y245378D01*
X369776Y244791D01*
X368700Y244072D01*
X352856Y259916D01*
Y344036D01*
X363657Y354836D01*
X364796Y354274D01*
X364634Y353050D01*
X365090Y349591D01*
X366425Y346368D01*
X368549Y343600D01*
X371316Y341476D01*
X374540Y340141D01*
X377999Y339686D01*
X379746Y339916D01*
X380878Y338784D01*
X380722Y337600D01*
X381032Y335251D01*
X381939Y333061D01*
X383381Y331181D01*
X385261Y329739D01*
X387450Y328832D01*
X388214Y328731D01*
X388669Y327390D01*
X373386Y312108D01*
X372999Y312268D01*
X370650Y312578D01*
X368301Y312268D01*
X366111Y311362D01*
X364231Y309919D01*
X362789Y308039D01*
X361882Y305849D01*
X361572Y303500D01*
X361882Y301150D01*
X362789Y298961D01*
X364231Y297081D01*
X366111Y295639D01*
X368301Y294732D01*
X370650Y294422D01*
X372999Y294732D01*
X375189Y295639D01*
X377069Y297081D01*
X378081Y298400D01*
X378686Y298864D01*
X411536Y331714D01*
X412578Y333072D01*
X413041Y334190D01*
X413233Y334653D01*
X413456Y336350D01*
Y341984D01*
X422455Y350983D01*
X424820D01*
X427153Y351447D01*
X429131Y352769D01*
X429613Y353490D01*
X430190D01*
X431837Y352389D01*
X433780Y352002D01*
X434300D01*
Y359600D01*
X439300D01*
Y352002D01*
D02*
G37*
G36*
X547200Y257591D02*
X552598D01*
X554112Y257790D01*
X555382Y257047D01*
Y203954D01*
X528191Y176763D01*
X527018Y177249D01*
Y227405D01*
X528191Y227891D01*
X535172Y220910D01*
X535122Y220533D01*
X535432Y218184D01*
X536338Y215994D01*
X537781Y214114D01*
X539661Y212672D01*
X541850Y211765D01*
X544200Y211456D01*
X546549Y211765D01*
X548739Y212672D01*
X550619Y214114D01*
X552061Y215994D01*
X552968Y218184D01*
X553278Y220533D01*
X552968Y222883D01*
X552061Y225072D01*
X550619Y226952D01*
X548739Y228395D01*
X546549Y229301D01*
X544200Y229611D01*
X543823Y229561D01*
X542056Y231328D01*
X542542Y232502D01*
X544685D01*
X546642Y232891D01*
X548301Y233999D01*
X549409Y235658D01*
X549798Y237615D01*
Y241100D01*
X540200D01*
Y243600D01*
X537700D01*
Y254698D01*
X535715D01*
X534794Y255501D01*
X534792Y256704D01*
X535988Y257698D01*
X536802Y257591D01*
X542200D01*
Y266400D01*
X547200D01*
Y257591D01*
D02*
G37*
%LPC*%
G36*
X434525Y277865D02*
X429400D01*
Y271500D01*
X440515D01*
Y271875D01*
X440059Y274167D01*
X438761Y276111D01*
X436817Y277409D01*
X434525Y277865D01*
D02*
G37*
G36*
X424400D02*
X419275D01*
X416983Y277409D01*
X415039Y276111D01*
X413741Y274167D01*
X413285Y271875D01*
Y271500D01*
X424400D01*
Y277865D01*
D02*
G37*
G36*
X606599Y269000D02*
X580602D01*
X580890Y267549D01*
X581995Y265895D01*
X582834Y265335D01*
X582449Y264065D01*
X582091D01*
X581850Y264113D01*
X575350D01*
X573106Y263666D01*
X571204Y262395D01*
X569934Y260494D01*
X569487Y258250D01*
Y254750D01*
X569934Y252507D01*
X571204Y250604D01*
X573106Y249334D01*
X575350Y248887D01*
X581850D01*
X582091Y248935D01*
X582449D01*
X582834Y247665D01*
X581995Y247105D01*
X580890Y245451D01*
X580602Y244000D01*
X606599D01*
X606310Y245451D01*
X605205Y247105D01*
X603551Y248210D01*
X601600Y248598D01*
X600172D01*
X599741Y249868D01*
X600019Y250081D01*
X601461Y251961D01*
X602368Y254151D01*
X602678Y256500D01*
X602368Y258850D01*
X601461Y261039D01*
X600019Y262919D01*
X599741Y263132D01*
X600172Y264402D01*
X601600D01*
X603551Y264790D01*
X605205Y265895D01*
X606310Y267549D01*
X606599Y269000D01*
D02*
G37*
G36*
X443400Y347811D02*
X442537Y347640D01*
X441052Y346648D01*
X440060Y345163D01*
X439889Y344300D01*
X443400D01*
Y347811D01*
D02*
G37*
G36*
X417651Y316598D02*
X417396D01*
X415447Y316210D01*
X413794Y315107D01*
X412690Y313454D01*
X412303Y311505D01*
Y311000D01*
X417651D01*
Y316598D01*
D02*
G37*
G36*
Y291000D02*
X412303D01*
Y290495D01*
X412690Y288546D01*
X413794Y286894D01*
X415447Y285790D01*
X417396Y285402D01*
X417651D01*
Y291000D01*
D02*
G37*
G36*
X440515Y266500D02*
X429400D01*
Y260135D01*
X434525D01*
X436817Y260591D01*
X438761Y261889D01*
X440059Y263833D01*
X440515Y266125D01*
Y266500D01*
D02*
G37*
G36*
X544685Y254698D02*
X542700D01*
Y246100D01*
X549798D01*
Y249585D01*
X549409Y251542D01*
X548301Y253201D01*
X546642Y254309D01*
X544685Y254698D01*
D02*
G37*
G36*
X391016Y245750D02*
X382750D01*
Y237484D01*
X383122Y237533D01*
X385798Y238641D01*
X388095Y240405D01*
X389859Y242703D01*
X390967Y245378D01*
X391016Y245750D01*
D02*
G37*
G36*
X591100Y239000D02*
X580602D01*
X580890Y237549D01*
X581995Y235895D01*
X583649Y234790D01*
X585600Y234402D01*
X591100D01*
Y239000D01*
D02*
G37*
G36*
X424400Y266500D02*
X413285D01*
Y266125D01*
X413741Y263833D01*
X415039Y261889D01*
X416983Y260591D01*
X419275Y260135D01*
X424400D01*
Y266500D01*
D02*
G37*
G36*
X382750Y259016D02*
Y250750D01*
X391016D01*
X390967Y251122D01*
X389859Y253797D01*
X388095Y256095D01*
X385798Y257859D01*
X383122Y258967D01*
X382750Y259016D01*
D02*
G37*
G36*
X377750D02*
X377378Y258967D01*
X374702Y257859D01*
X372405Y256095D01*
X370642Y253797D01*
X369533Y251122D01*
X369484Y250750D01*
X377750D01*
Y259016D01*
D02*
G37*
%LPD*%
D14*
X376000Y410700D02*
D03*
Y439700D02*
D03*
D19*
X454356Y71500D02*
D03*
X470356D02*
D03*
X431250Y204750D02*
D03*
X447250D02*
D03*
X400250Y219750D02*
D03*
X416250D02*
D03*
X400250Y204750D02*
D03*
X416250D02*
D03*
X462250Y219750D02*
D03*
X478250D02*
D03*
X431250D02*
D03*
X447250D02*
D03*
X462250Y204750D02*
D03*
X478250D02*
D03*
X482151Y308500D02*
D03*
X498151D02*
D03*
X482151Y293500D02*
D03*
X498151D02*
D03*
X451151Y308500D02*
D03*
X467151D02*
D03*
X451151Y293500D02*
D03*
X467151D02*
D03*
X420151D02*
D03*
X436151D02*
D03*
X420151Y308500D02*
D03*
X436151D02*
D03*
X340400Y401700D02*
D03*
X324400D02*
D03*
X340500Y386500D02*
D03*
X324500D02*
D03*
D22*
X444250Y429250D02*
D03*
X534200Y406800D02*
D03*
D23*
X429250Y414250D02*
D03*
X459250D02*
D03*
X519200Y391800D02*
D03*
X549200D02*
D03*
D24*
X479250Y385250D02*
D03*
Y369250D02*
D03*
X494250D02*
D03*
Y385250D02*
D03*
X451800Y359600D02*
D03*
Y375600D02*
D03*
X421800D02*
D03*
Y359600D02*
D03*
X436800Y375600D02*
D03*
Y359600D02*
D03*
D29*
X464950Y341400D02*
D03*
Y332400D02*
D03*
X475000Y341399D02*
D03*
Y332399D02*
D03*
D32*
X454900Y341800D02*
D03*
X445900D02*
D03*
X454900Y331700D02*
D03*
X445900D02*
D03*
D47*
X593600Y241500D02*
D03*
Y271500D02*
D03*
D48*
X578600Y256500D02*
D03*
D51*
X447250Y204750D02*
X451950Y200050D01*
Y182500D02*
Y200050D01*
X426550Y200050D02*
X431250Y204750D01*
X426550Y182500D02*
Y200050D01*
X464100Y275000D02*
Y279100D01*
X454200Y274500D02*
Y277100D01*
X449600D02*
X454200D01*
X447250Y204750D02*
Y219750D01*
Y204750D02*
X462250D01*
Y219750D01*
X447250D02*
X462250D01*
X431250D02*
Y233750D01*
Y204750D02*
Y219750D01*
X416250Y204750D02*
X431250D01*
X416250D02*
Y219750D01*
X431250D01*
X447250Y234050D02*
X448600Y235400D01*
X447250Y219750D02*
Y234050D01*
X429600Y235400D02*
X431250Y233750D01*
X436151Y293500D02*
X451151D01*
X436151D02*
Y308500D01*
X451151D01*
Y293500D02*
Y308500D01*
X467151Y293500D02*
Y308500D01*
X482151D01*
Y293500D02*
Y308500D01*
X467151Y293500D02*
X482151D01*
X460250Y543000D02*
X465250D01*
X455250Y448000D02*
X460250D01*
Y543000D01*
X455250D02*
X460250D01*
X450250Y448000D02*
X455250D01*
X450250Y543000D02*
X455250D01*
X445250D02*
X450250D01*
Y448000D02*
Y543000D01*
X445250Y448000D02*
X450250D01*
X445250D02*
Y543000D01*
X455250Y448000D02*
Y458000D01*
Y543000D01*
X460250Y448000D02*
X465100D01*
Y453337D01*
X465250Y453487D01*
Y543000D01*
X474100Y390400D02*
Y395200D01*
Y390400D02*
X479250Y385250D01*
X451800Y375600D02*
X451950Y375750D01*
X452000Y375700D02*
X464100D01*
X571900Y321900D02*
X584400D01*
X563400Y330400D02*
X571900Y321900D01*
X584400Y372700D02*
X594900D01*
X598600Y369000D01*
Y297900D02*
Y369000D01*
Y297900D02*
X616100Y280400D01*
X584400Y385400D02*
X587600Y382200D01*
X595299D01*
X608700Y368800D01*
Y306200D02*
Y368800D01*
Y306200D02*
X614500Y300400D01*
X420600Y375500D02*
X420700Y375600D01*
X451950Y375750D02*
X452000Y375700D01*
X484565Y350964D02*
X515700D01*
X467151Y278549D02*
X468600Y277100D01*
X467151Y278549D02*
Y293500D01*
X449600Y277100D02*
X451151Y278651D01*
Y293500D01*
X470456Y71600D02*
X482900D01*
X470356Y71500D02*
X470456Y71600D01*
X247700Y56400D02*
X262800Y71500D01*
X616100Y236913D02*
Y280400D01*
X524400Y145213D02*
X616100Y236913D01*
X511000Y150300D02*
X561500Y200800D01*
X511000Y104300D02*
Y150300D01*
X491000Y84300D02*
X511000Y104300D01*
X467156Y84300D02*
X491000D01*
X454356Y71500D02*
X467156Y84300D01*
X338500Y121500D02*
Y123650D01*
Y121500D02*
X352600Y107400D01*
X262800Y71500D02*
X269422D01*
X281222Y59700D01*
X326900Y116400D02*
X327200Y116700D01*
Y140100D01*
X409000Y375500D02*
X420600D01*
X389800Y337600D02*
X395900Y343700D01*
X420700Y375600D02*
X451800D01*
X341400Y367600D02*
X367149D01*
X377999Y378450D01*
X340400Y401700D02*
X341400Y400700D01*
X340400Y401700D02*
Y415700D01*
X345700Y421000D01*
X298000Y339500D02*
Y368900D01*
X291000Y332500D02*
X298000Y339500D01*
X297600Y325900D02*
X321100D01*
X291000Y332500D02*
X297600Y325900D01*
X338500Y123650D02*
X363600Y148750D01*
X297600Y308500D02*
Y325900D01*
X255200Y266100D02*
X297600Y308500D01*
X431378Y59700D02*
X443178Y71500D01*
X454356D01*
X281222Y59700D02*
X431378D01*
X341400Y367600D02*
Y400700D01*
X376000Y410700D02*
X377999Y408701D01*
Y378450D02*
Y408701D01*
X321100Y279200D02*
Y325900D01*
Y279200D02*
X322300Y278000D01*
X475001Y341400D02*
X484565Y350964D01*
X454850Y341400D02*
X464950D01*
X475001D01*
X346300Y257200D02*
X380250Y223250D01*
X346300Y257200D02*
Y346751D01*
X367149Y367600D01*
X451800Y359600D02*
X469600D01*
X479250Y369250D01*
X443600Y320400D02*
X450900D01*
X454900Y324400D01*
Y331700D01*
Y341800D01*
X406900Y344700D02*
X421800Y359600D01*
X406900Y336350D02*
Y344700D01*
X374050Y303500D02*
X406900Y336350D01*
X370650Y303500D02*
X374050D01*
X395900Y343700D02*
Y351900D01*
X404100Y360100D01*
Y370600D01*
X409000Y375500D01*
X348200Y186400D02*
X354949Y193150D01*
Y224686D01*
X324900Y254735D02*
X354949Y224686D01*
X324900Y254735D02*
Y261800D01*
X363600Y148750D02*
Y229900D01*
X333500Y280900D02*
Y326400D01*
Y280900D02*
X338400Y276000D01*
Y255100D02*
Y276000D01*
Y255100D02*
X363600Y229900D01*
X445900Y331700D02*
Y341800D01*
X446400Y341300D01*
X435654Y332225D02*
X436179Y331700D01*
X446400D02*
Y341300D01*
X436179Y331700D02*
X445900D01*
X446400D01*
D52*
X553400Y360000D02*
X561600D01*
X525800Y332400D02*
X553400Y360000D01*
X525800Y306100D02*
Y332400D01*
X495200Y243600D02*
X495200Y243600D01*
X495200Y225950D02*
Y243600D01*
X571700Y283800D02*
X584400D01*
X561600Y360000D02*
X584400D01*
X561600D02*
X561600Y360000D01*
X574100Y334600D02*
X584400D01*
X565500Y343200D02*
X574100Y334600D01*
X557300Y343200D02*
X565500D01*
X478750Y427600D02*
Y441150D01*
X480900Y443300D01*
X499750Y427600D02*
Y435950D01*
X494400Y441300D02*
X499750Y435950D01*
X480900Y468300D02*
X494400Y454800D01*
Y441300D02*
Y454800D01*
X561500Y200800D02*
Y294470D01*
X525800Y306100D02*
X529400Y302500D01*
X546600Y306500D02*
X563800D01*
X538400Y298300D02*
X546600Y306500D01*
X485700Y105444D02*
Y135500D01*
X477856Y97600D02*
X485700Y105444D01*
Y135500D02*
X520900Y170700D01*
X476350Y137050D02*
X514900Y175600D01*
X494250Y176000D02*
X508900Y190650D01*
Y285200D01*
X519700Y296000D01*
X520900Y170700D02*
Y275885D01*
X528600Y236133D02*
X544200Y220533D01*
X528600Y236133D02*
Y275100D01*
X547500Y294000D01*
X538400Y293385D02*
Y298300D01*
X529400Y292871D02*
Y302500D01*
X514900Y278370D02*
X529400Y292871D01*
X520900Y275885D02*
X538400Y293385D01*
X514900Y175600D02*
Y278370D01*
X405725Y148325D02*
Y179775D01*
X405600Y148200D02*
X405725Y148325D01*
X247700Y85350D02*
X254550Y78500D01*
X271615D01*
X247700Y110900D02*
X286400Y72200D01*
X271615Y78500D02*
X283915Y66200D01*
X286400Y72200D02*
X426200D01*
X450100Y96100D01*
Y108600D01*
X428685Y66200D02*
X476350Y113865D01*
X283915Y66200D02*
X428685D01*
X476350Y113865D02*
Y137050D01*
X199800Y120000D02*
X226500Y146700D01*
X118500Y120000D02*
X199800D01*
X553141Y317159D02*
X563800Y306500D01*
X553141Y317159D02*
Y339041D01*
X557300Y343200D01*
D53*
X534200Y397100D02*
Y406800D01*
X479250Y385250D02*
X494250D01*
X444200Y429200D02*
X444250Y429250D01*
X444200Y396900D02*
Y429200D01*
X578600Y256500D02*
X593600D01*
D56*
X675400Y228600D02*
X695400Y228580D01*
D57*
X140750Y132500D02*
X184800D01*
X224500Y172200D01*
X259650D01*
X285950Y198500D01*
D60*
X448600Y235400D02*
D03*
X429600D02*
D03*
X449600Y277100D02*
D03*
X468600D02*
D03*
D61*
X38000Y146250D02*
D03*
Y111250D02*
D03*
X39750Y214250D02*
D03*
Y249250D02*
D03*
D62*
X558200Y474800D02*
D03*
D63*
X532800D02*
D03*
X507400D02*
D03*
X338500Y123650D02*
D03*
Y148650D02*
D03*
Y174150D02*
D03*
Y199650D02*
D03*
X451950Y182500D02*
D03*
X426550D02*
D03*
X410700Y438250D02*
D03*
D64*
X650000Y50000D02*
D03*
X50000Y50000D02*
D03*
D65*
X340200Y45500D02*
D03*
X296200D02*
D03*
D66*
X337200Y35250D02*
D03*
X299200D02*
D03*
D67*
X121250Y347750D02*
D03*
D68*
Y373250D02*
D03*
Y398750D02*
D03*
X253750Y433250D02*
D03*
Y313250D02*
D03*
X273750Y373250D02*
D03*
X130750Y433250D02*
D03*
Y313250D02*
D03*
D69*
X624600Y525400D02*
D03*
X650000Y500000D02*
D03*
X675400Y525400D02*
D03*
Y474600D02*
D03*
X624600D02*
D03*
X626350Y212650D02*
D03*
X651750Y187250D02*
D03*
X677150Y212650D02*
D03*
X626350Y161850D02*
D03*
X651750Y136450D02*
D03*
X677150Y161850D02*
D03*
Y111050D02*
D03*
X626350D02*
D03*
D70*
X345700Y421000D02*
D03*
D71*
X320300D02*
D03*
X260550Y198500D02*
D03*
X285950D02*
D03*
X377999Y353050D02*
D03*
Y378450D02*
D03*
X495200Y225950D02*
D03*
Y200550D02*
D03*
D72*
X118500Y145000D02*
D03*
Y60250D02*
D03*
X291250Y264500D02*
D03*
X206000Y230500D02*
D03*
X380250Y248250D02*
D03*
X480900Y468300D02*
D03*
D73*
X118500Y120000D02*
D03*
Y35250D02*
D03*
X291250Y239500D02*
D03*
X206000Y205500D02*
D03*
X380250Y223250D02*
D03*
D74*
X338500Y98150D02*
D03*
D75*
X83750Y241499D02*
D03*
X143750D02*
D03*
D76*
X113750Y191499D02*
D03*
D77*
X452700Y49700D02*
D03*
X294700Y169700D02*
D03*
D78*
X41250Y423250D02*
D03*
Y373250D02*
D03*
Y323250D02*
D03*
D79*
X480900Y443300D02*
D03*
D80*
X410700Y413250D02*
D03*
D81*
X529300Y354800D02*
D03*
X543988Y447700D02*
D03*
X515800Y376500D02*
D03*
X238750Y336100D02*
D03*
X222072Y350600D02*
D03*
X444200Y396900D02*
D03*
X534200Y397100D02*
D03*
X593600Y256500D02*
D03*
X474100Y395200D02*
D03*
X464100Y375700D02*
D03*
X563400Y330400D02*
D03*
X561600Y360000D02*
D03*
X563800Y306500D02*
D03*
X616100Y280400D02*
D03*
X614500Y300400D02*
D03*
X515700Y350964D02*
D03*
X482900Y71600D02*
D03*
X247700Y56400D02*
D03*
Y110900D02*
D03*
Y85350D02*
D03*
X524400Y145213D02*
D03*
X519700Y296000D02*
D03*
X571700Y283800D02*
D03*
X561500Y294470D02*
D03*
X494250Y176000D02*
D03*
X450100Y108600D02*
D03*
X477856Y97600D02*
D03*
X544200Y220533D02*
D03*
X547500Y294000D02*
D03*
X405725Y179775D02*
D03*
Y148325D02*
D03*
X326900Y116400D02*
D03*
X352600Y107400D02*
D03*
X311600Y95200D02*
D03*
X327200Y140100D02*
D03*
X389800Y337600D02*
D03*
X298000Y368900D02*
D03*
X291000Y332500D02*
D03*
X314000Y367250D02*
D03*
X319200Y355300D02*
D03*
X321100Y325900D02*
D03*
X333500Y326400D02*
D03*
X255200Y266100D02*
D03*
X226500Y146700D02*
D03*
X140750Y132500D02*
D03*
X322300Y278000D02*
D03*
X469600Y359600D02*
D03*
X443600Y320400D02*
D03*
X561500Y385100D02*
D03*
X597800Y401700D02*
D03*
X610300Y401600D02*
D03*
X309300Y303500D02*
D03*
X271937Y301700D02*
D03*
X305000Y275700D02*
D03*
X312457Y264625D02*
D03*
X316000Y249600D02*
D03*
X308600Y220700D02*
D03*
X327507Y218400D02*
D03*
X318512Y206400D02*
D03*
X311600Y195100D02*
D03*
X160000Y330088D02*
D03*
X182600Y328300D02*
D03*
X197787Y310400D02*
D03*
X166640Y309595D02*
D03*
X178900Y237600D02*
D03*
X181100Y217500D02*
D03*
X232000Y218000D02*
D03*
X180300Y198700D02*
D03*
X175400Y180200D02*
D03*
X156400Y175600D02*
D03*
X113100Y254700D02*
D03*
X114400Y220300D02*
D03*
X240800Y153700D02*
D03*
X255647Y154000D02*
D03*
X250462Y139600D02*
D03*
X292936Y154500D02*
D03*
X285165Y116100D02*
D03*
X357942Y325600D02*
D03*
X577900Y230800D02*
D03*
X493700Y279474D02*
D03*
X482700Y278400D02*
D03*
X586200Y447900D02*
D03*
X608700Y448400D02*
D03*
X632300Y448200D02*
D03*
X656100D02*
D03*
X678600Y448000D02*
D03*
X681500Y423900D02*
D03*
X681000Y401300D02*
D03*
X681200Y379100D02*
D03*
X588700Y538900D02*
D03*
X567600Y538100D02*
D03*
X537800Y538000D02*
D03*
X505800Y538400D02*
D03*
X480900Y537000D02*
D03*
X167200Y530500D02*
D03*
X165600Y500400D02*
D03*
X166200Y471200D02*
D03*
X144000Y464500D02*
D03*
X123700Y478800D02*
D03*
X124000Y510900D02*
D03*
X94500Y464500D02*
D03*
X367300Y338800D02*
D03*
X490079Y340000D02*
D03*
X433800Y340200D02*
D03*
X433300Y390000D02*
D03*
X357600Y271200D02*
D03*
X364600Y257600D02*
D03*
X398700Y262000D02*
D03*
X400300Y246300D02*
D03*
X443600Y165600D02*
D03*
X429300Y149100D02*
D03*
X424400Y134200D02*
D03*
X414300Y117100D02*
D03*
X434900Y97200D02*
D03*
X424700Y87200D02*
D03*
X431700Y46800D02*
D03*
X432000Y28600D02*
D03*
X477856Y50500D02*
D03*
X502300Y51200D02*
D03*
X504700Y31700D02*
D03*
X476600Y29700D02*
D03*
X451200Y11800D02*
D03*
X491200Y11600D02*
D03*
X532100Y10600D02*
D03*
X572100Y11100D02*
D03*
X590500Y31900D02*
D03*
Y70300D02*
D03*
X589500Y103256D02*
D03*
X614600Y11000D02*
D03*
X688600Y83300D02*
D03*
X309300Y13200D02*
D03*
X333034Y12200D02*
D03*
X227400Y63300D02*
D03*
X233500Y45250D02*
D03*
X248100Y19800D02*
D03*
X198300Y10608D02*
D03*
X155100Y10300D02*
D03*
X206700Y105600D02*
D03*
X188700Y105500D02*
D03*
X197300Y97200D02*
D03*
X159900Y196500D02*
D03*
X94900Y143900D02*
D03*
X94200Y115600D02*
D03*
X97700Y90600D02*
D03*
X147500Y91800D02*
D03*
X17800Y143500D02*
D03*
X17100Y118200D02*
D03*
X63151Y128000D02*
D03*
X37400Y181300D02*
D03*
X16500Y236800D02*
D03*
X15600Y280300D02*
D03*
X14900Y314800D02*
D03*
Y344000D02*
D03*
X15900Y397600D02*
D03*
X158600Y396700D02*
D03*
X189950Y398750D02*
D03*
X211300Y420100D02*
D03*
X267700Y409400D02*
D03*
X370650Y303500D02*
D03*
X550000Y233300D02*
D03*
X532300Y212900D02*
D03*
X592800Y171461D02*
D03*
X348200Y186400D02*
D03*
X324900Y261800D02*
D03*
D82*
X688300Y240000D02*
D03*
Y247000D02*
D03*
Y266200D02*
D03*
Y286200D02*
D03*
Y306200D02*
D03*
Y326200D02*
D03*
D83*
X426900Y269000D02*
D03*
Y430400D02*
D03*
D84*
X567900Y433000D02*
D03*
D85*
X584400Y347300D02*
D03*
Y334600D02*
D03*
Y360000D02*
D03*
Y385400D02*
D03*
Y309200D02*
D03*
Y372700D02*
D03*
Y321900D02*
D03*
Y296500D02*
D03*
Y283800D02*
D03*
D86*
X544700Y266400D02*
D03*
D87*
X446600Y237400D02*
D03*
X431600D02*
D03*
X451600Y279100D02*
D03*
X466600D02*
D03*
D88*
X540200Y323600D02*
D03*
Y243600D02*
D03*
X495200Y323600D02*
D03*
Y243600D02*
D03*
D89*
X450250Y458000D02*
D03*
D90*
X341400Y367600D02*
D03*
X323400D02*
D03*
D91*
X478750Y427600D02*
D03*
X499750D02*
D03*
D92*
X50000Y500000D02*
D03*
M02*
