%FSLAX44Y44*%
%MOMM*%
G71*
G01*
G75*
G04 Layer_Color=16711935*
G04:AMPARAMS|DCode=10|XSize=0.67mm|YSize=0.67mm|CornerRadius=0.1508mm|HoleSize=0mm|Usage=FLASHONLY|Rotation=90.000|XOffset=0mm|YOffset=0mm|HoleType=Round|Shape=RoundedRectangle|*
%AMROUNDEDRECTD10*
21,1,0.6700,0.3685,0,0,90.0*
21,1,0.3685,0.6700,0,0,90.0*
1,1,0.3015,0.1843,0.1843*
1,1,0.3015,0.1843,-0.1843*
1,1,0.3015,-0.1843,-0.1843*
1,1,0.3015,-0.1843,0.1843*
%
%ADD10ROUNDEDRECTD10*%
G04:AMPARAMS|DCode=11|XSize=0.67mm|YSize=0.67mm|CornerRadius=0.1508mm|HoleSize=0mm|Usage=FLASHONLY|Rotation=180.000|XOffset=0mm|YOffset=0mm|HoleType=Round|Shape=RoundedRectangle|*
%AMROUNDEDRECTD11*
21,1,0.6700,0.3685,0,0,180.0*
21,1,0.3685,0.6700,0,0,180.0*
1,1,0.3015,-0.1843,0.1843*
1,1,0.3015,0.1843,0.1843*
1,1,0.3015,0.1843,-0.1843*
1,1,0.3015,-0.1843,-0.1843*
%
%ADD11ROUNDEDRECTD11*%
G04:AMPARAMS|DCode=12|XSize=1.1mm|YSize=0.6mm|CornerRadius=0.201mm|HoleSize=0mm|Usage=FLASHONLY|Rotation=270.000|XOffset=0mm|YOffset=0mm|HoleType=Round|Shape=RoundedRectangle|*
%AMROUNDEDRECTD12*
21,1,1.1000,0.1980,0,0,270.0*
21,1,0.6980,0.6000,0,0,270.0*
1,1,0.4020,-0.0990,-0.3490*
1,1,0.4020,-0.0990,0.3490*
1,1,0.4020,0.0990,0.3490*
1,1,0.4020,0.0990,-0.3490*
%
%ADD12ROUNDEDRECTD12*%
G04:AMPARAMS|DCode=13|XSize=2.5mm|YSize=2mm|CornerRadius=0.25mm|HoleSize=0mm|Usage=FLASHONLY|Rotation=270.000|XOffset=0mm|YOffset=0mm|HoleType=Round|Shape=RoundedRectangle|*
%AMROUNDEDRECTD13*
21,1,2.5000,1.5000,0,0,270.0*
21,1,2.0000,2.0000,0,0,270.0*
1,1,0.5000,-0.7500,-1.0000*
1,1,0.5000,-0.7500,1.0000*
1,1,0.5000,0.7500,1.0000*
1,1,0.5000,0.7500,-1.0000*
%
%ADD13ROUNDEDRECTD13*%
G04:AMPARAMS|DCode=14|XSize=2.7mm|YSize=1.2mm|CornerRadius=0.21mm|HoleSize=0mm|Usage=FLASHONLY|Rotation=0.000|XOffset=0mm|YOffset=0mm|HoleType=Round|Shape=RoundedRectangle|*
%AMROUNDEDRECTD14*
21,1,2.7000,0.7800,0,0,0.0*
21,1,2.2800,1.2000,0,0,0.0*
1,1,0.4200,1.1400,-0.3900*
1,1,0.4200,-1.1400,-0.3900*
1,1,0.4200,-1.1400,0.3900*
1,1,0.4200,1.1400,0.3900*
%
%ADD14ROUNDEDRECTD14*%
G04:AMPARAMS|DCode=15|XSize=1.05mm|YSize=0.65mm|CornerRadius=0.2015mm|HoleSize=0mm|Usage=FLASHONLY|Rotation=90.000|XOffset=0mm|YOffset=0mm|HoleType=Round|Shape=RoundedRectangle|*
%AMROUNDEDRECTD15*
21,1,1.0500,0.2470,0,0,90.0*
21,1,0.6470,0.6500,0,0,90.0*
1,1,0.4030,0.1235,0.3235*
1,1,0.4030,0.1235,-0.3235*
1,1,0.4030,-0.1235,-0.3235*
1,1,0.4030,-0.1235,0.3235*
%
%ADD15ROUNDEDRECTD15*%
G04:AMPARAMS|DCode=16|XSize=2.5mm|YSize=2mm|CornerRadius=0.2mm|HoleSize=0mm|Usage=FLASHONLY|Rotation=90.000|XOffset=0mm|YOffset=0mm|HoleType=Round|Shape=RoundedRectangle|*
%AMROUNDEDRECTD16*
21,1,2.5000,1.6000,0,0,90.0*
21,1,2.1000,2.0000,0,0,90.0*
1,1,0.4000,0.8000,1.0500*
1,1,0.4000,0.8000,-1.0500*
1,1,0.4000,-0.8000,-1.0500*
1,1,0.4000,-0.8000,1.0500*
%
%ADD16ROUNDEDRECTD16*%
G04:AMPARAMS|DCode=17|XSize=2.3mm|YSize=0.5mm|CornerRadius=0.2mm|HoleSize=0mm|Usage=FLASHONLY|Rotation=90.000|XOffset=0mm|YOffset=0mm|HoleType=Round|Shape=RoundedRectangle|*
%AMROUNDEDRECTD17*
21,1,2.3000,0.1000,0,0,90.0*
21,1,1.9000,0.5000,0,0,90.0*
1,1,0.4000,0.0500,0.9500*
1,1,0.4000,0.0500,-0.9500*
1,1,0.4000,-0.0500,-0.9500*
1,1,0.4000,-0.0500,0.9500*
%
%ADD17ROUNDEDRECTD17*%
G04:AMPARAMS|DCode=18|XSize=1.1mm|YSize=0.6mm|CornerRadius=0.201mm|HoleSize=0mm|Usage=FLASHONLY|Rotation=180.000|XOffset=0mm|YOffset=0mm|HoleType=Round|Shape=RoundedRectangle|*
%AMROUNDEDRECTD18*
21,1,1.1000,0.1980,0,0,180.0*
21,1,0.6980,0.6000,0,0,180.0*
1,1,0.4020,-0.3490,0.0990*
1,1,0.4020,0.3490,0.0990*
1,1,0.4020,0.3490,-0.0990*
1,1,0.4020,-0.3490,-0.0990*
%
%ADD18ROUNDEDRECTD18*%
G04:AMPARAMS|DCode=19|XSize=1mm|YSize=0.95mm|CornerRadius=0.1995mm|HoleSize=0mm|Usage=FLASHONLY|Rotation=270.000|XOffset=0mm|YOffset=0mm|HoleType=Round|Shape=RoundedRectangle|*
%AMROUNDEDRECTD19*
21,1,1.0000,0.5510,0,0,270.0*
21,1,0.6010,0.9500,0,0,270.0*
1,1,0.3990,-0.2755,-0.3005*
1,1,0.3990,-0.2755,0.3005*
1,1,0.3990,0.2755,0.3005*
1,1,0.3990,0.2755,-0.3005*
%
%ADD19ROUNDEDRECTD19*%
%ADD20R,0.4000X1.4000*%
G04:AMPARAMS|DCode=21|XSize=1.8mm|YSize=1.9mm|CornerRadius=0.45mm|HoleSize=0mm|Usage=FLASHONLY|Rotation=0.000|XOffset=0mm|YOffset=0mm|HoleType=Round|Shape=RoundedRectangle|*
%AMROUNDEDRECTD21*
21,1,1.8000,1.0000,0,0,0.0*
21,1,0.9000,1.9000,0,0,0.0*
1,1,0.9000,0.4500,-0.5000*
1,1,0.9000,-0.4500,-0.5000*
1,1,0.9000,-0.4500,0.5000*
1,1,0.9000,0.4500,0.5000*
%
%ADD21ROUNDEDRECTD21*%
G04:AMPARAMS|DCode=22|XSize=0.7mm|YSize=1mm|CornerRadius=0.175mm|HoleSize=0mm|Usage=FLASHONLY|Rotation=180.000|XOffset=0mm|YOffset=0mm|HoleType=Round|Shape=RoundedRectangle|*
%AMROUNDEDRECTD22*
21,1,0.7000,0.6500,0,0,180.0*
21,1,0.3500,1.0000,0,0,180.0*
1,1,0.3500,-0.1750,0.3250*
1,1,0.3500,0.1750,0.3250*
1,1,0.3500,0.1750,-0.3250*
1,1,0.3500,-0.1750,-0.3250*
%
%ADD22ROUNDEDRECTD22*%
G04:AMPARAMS|DCode=23|XSize=0.8mm|YSize=2mm|CornerRadius=0.2mm|HoleSize=0mm|Usage=FLASHONLY|Rotation=180.000|XOffset=0mm|YOffset=0mm|HoleType=Round|Shape=RoundedRectangle|*
%AMROUNDEDRECTD23*
21,1,0.8000,1.6000,0,0,180.0*
21,1,0.4000,2.0000,0,0,180.0*
1,1,0.4000,-0.2000,0.8000*
1,1,0.4000,0.2000,0.8000*
1,1,0.4000,0.2000,-0.8000*
1,1,0.4000,-0.2000,-0.8000*
%
%ADD23ROUNDEDRECTD23*%
G04:AMPARAMS|DCode=24|XSize=1mm|YSize=0.9mm|CornerRadius=0.198mm|HoleSize=0mm|Usage=FLASHONLY|Rotation=180.000|XOffset=0mm|YOffset=0mm|HoleType=Round|Shape=RoundedRectangle|*
%AMROUNDEDRECTD24*
21,1,1.0000,0.5040,0,0,180.0*
21,1,0.6040,0.9000,0,0,180.0*
1,1,0.3960,-0.3020,0.2520*
1,1,0.3960,0.3020,0.2520*
1,1,0.3960,0.3020,-0.2520*
1,1,0.3960,-0.3020,-0.2520*
%
%ADD24ROUNDEDRECTD24*%
G04:AMPARAMS|DCode=25|XSize=1.05mm|YSize=0.65mm|CornerRadius=0.2015mm|HoleSize=0mm|Usage=FLASHONLY|Rotation=0.000|XOffset=0mm|YOffset=0mm|HoleType=Round|Shape=RoundedRectangle|*
%AMROUNDEDRECTD25*
21,1,1.0500,0.2470,0,0,0.0*
21,1,0.6470,0.6500,0,0,0.0*
1,1,0.4030,0.3235,-0.1235*
1,1,0.4030,-0.3235,-0.1235*
1,1,0.4030,-0.3235,0.1235*
1,1,0.4030,0.3235,0.1235*
%
%ADD25ROUNDEDRECTD25*%
G04:AMPARAMS|DCode=26|XSize=2.5mm|YSize=1.7mm|CornerRadius=0.204mm|HoleSize=0mm|Usage=FLASHONLY|Rotation=0.000|XOffset=0mm|YOffset=0mm|HoleType=Round|Shape=RoundedRectangle|*
%AMROUNDEDRECTD26*
21,1,2.5000,1.2920,0,0,0.0*
21,1,2.0920,1.7000,0,0,0.0*
1,1,0.4080,1.0460,-0.6460*
1,1,0.4080,-1.0460,-0.6460*
1,1,0.4080,-1.0460,0.6460*
1,1,0.4080,1.0460,0.6460*
%
%ADD26ROUNDEDRECTD26*%
G04:AMPARAMS|DCode=27|XSize=5.2mm|YSize=2mm|CornerRadius=0.25mm|HoleSize=0mm|Usage=FLASHONLY|Rotation=180.000|XOffset=0mm|YOffset=0mm|HoleType=Round|Shape=RoundedRectangle|*
%AMROUNDEDRECTD27*
21,1,5.2000,1.5000,0,0,180.0*
21,1,4.7000,2.0000,0,0,180.0*
1,1,0.5000,-2.3500,0.7500*
1,1,0.5000,2.3500,0.7500*
1,1,0.5000,2.3500,-0.7500*
1,1,0.5000,-2.3500,-0.7500*
%
%ADD27ROUNDEDRECTD27*%
G04:AMPARAMS|DCode=28|XSize=0.65mm|YSize=0.35mm|CornerRadius=0.0735mm|HoleSize=0mm|Usage=FLASHONLY|Rotation=0.000|XOffset=0mm|YOffset=0mm|HoleType=Round|Shape=RoundedRectangle|*
%AMROUNDEDRECTD28*
21,1,0.6500,0.2030,0,0,0.0*
21,1,0.5030,0.3500,0,0,0.0*
1,1,0.1470,0.2515,-0.1015*
1,1,0.1470,-0.2515,-0.1015*
1,1,0.1470,-0.2515,0.1015*
1,1,0.1470,0.2515,0.1015*
%
%ADD28ROUNDEDRECTD28*%
G04:AMPARAMS|DCode=29|XSize=0.62mm|YSize=0.62mm|CornerRadius=0.1488mm|HoleSize=0mm|Usage=FLASHONLY|Rotation=0.000|XOffset=0mm|YOffset=0mm|HoleType=Round|Shape=RoundedRectangle|*
%AMROUNDEDRECTD29*
21,1,0.6200,0.3224,0,0,0.0*
21,1,0.3224,0.6200,0,0,0.0*
1,1,0.2976,0.1612,-0.1612*
1,1,0.2976,-0.1612,-0.1612*
1,1,0.2976,-0.1612,0.1612*
1,1,0.2976,0.1612,0.1612*
%
%ADD29ROUNDEDRECTD29*%
G04:AMPARAMS|DCode=30|XSize=0.3mm|YSize=0.25mm|CornerRadius=0.0525mm|HoleSize=0mm|Usage=FLASHONLY|Rotation=0.000|XOffset=0mm|YOffset=0mm|HoleType=Round|Shape=RoundedRectangle|*
%AMROUNDEDRECTD30*
21,1,0.3000,0.1450,0,0,0.0*
21,1,0.1950,0.2500,0,0,0.0*
1,1,0.1050,0.0975,-0.0725*
1,1,0.1050,-0.0975,-0.0725*
1,1,0.1050,-0.0975,0.0725*
1,1,0.1050,0.0975,0.0725*
%
%ADD30ROUNDEDRECTD30*%
%ADD31O,1.5500X0.6000*%
G04:AMPARAMS|DCode=32|XSize=0.62mm|YSize=0.62mm|CornerRadius=0.1488mm|HoleSize=0mm|Usage=FLASHONLY|Rotation=270.000|XOffset=0mm|YOffset=0mm|HoleType=Round|Shape=RoundedRectangle|*
%AMROUNDEDRECTD32*
21,1,0.6200,0.3224,0,0,270.0*
21,1,0.3224,0.6200,0,0,270.0*
1,1,0.2976,-0.1612,-0.1612*
1,1,0.2976,-0.1612,0.1612*
1,1,0.2976,0.1612,0.1612*
1,1,0.2976,0.1612,-0.1612*
%
%ADD32ROUNDEDRECTD32*%
G04:AMPARAMS|DCode=33|XSize=1mm|YSize=0.95mm|CornerRadius=0.1995mm|HoleSize=0mm|Usage=FLASHONLY|Rotation=0.000|XOffset=0mm|YOffset=0mm|HoleType=Round|Shape=RoundedRectangle|*
%AMROUNDEDRECTD33*
21,1,1.0000,0.5510,0,0,0.0*
21,1,0.6010,0.9500,0,0,0.0*
1,1,0.3990,0.3005,-0.2755*
1,1,0.3990,-0.3005,-0.2755*
1,1,0.3990,-0.3005,0.2755*
1,1,0.3990,0.3005,0.2755*
%
%ADD33ROUNDEDRECTD33*%
%ADD34O,0.6000X1.5500*%
G04:AMPARAMS|DCode=35|XSize=3.3mm|YSize=1.65mm|CornerRadius=0.198mm|HoleSize=0mm|Usage=FLASHONLY|Rotation=90.000|XOffset=0mm|YOffset=0mm|HoleType=Round|Shape=RoundedRectangle|*
%AMROUNDEDRECTD35*
21,1,3.3000,1.2540,0,0,90.0*
21,1,2.9040,1.6500,0,0,90.0*
1,1,0.3960,0.6270,1.4520*
1,1,0.3960,0.6270,-1.4520*
1,1,0.3960,-0.6270,-1.4520*
1,1,0.3960,-0.6270,1.4520*
%
%ADD35ROUNDEDRECTD35*%
G04:AMPARAMS|DCode=36|XSize=1mm|YSize=0.9mm|CornerRadius=0.198mm|HoleSize=0mm|Usage=FLASHONLY|Rotation=270.000|XOffset=0mm|YOffset=0mm|HoleType=Round|Shape=RoundedRectangle|*
%AMROUNDEDRECTD36*
21,1,1.0000,0.5040,0,0,270.0*
21,1,0.6040,0.9000,0,0,270.0*
1,1,0.3960,-0.2520,-0.3020*
1,1,0.3960,-0.2520,0.3020*
1,1,0.3960,0.2520,0.3020*
1,1,0.3960,0.2520,-0.3020*
%
%ADD36ROUNDEDRECTD36*%
G04:AMPARAMS|DCode=37|XSize=1.2mm|YSize=2mm|CornerRadius=0.3mm|HoleSize=0mm|Usage=FLASHONLY|Rotation=90.000|XOffset=0mm|YOffset=0mm|HoleType=Round|Shape=RoundedRectangle|*
%AMROUNDEDRECTD37*
21,1,1.2000,1.4000,0,0,90.0*
21,1,0.6000,2.0000,0,0,90.0*
1,1,0.6000,0.7000,0.3000*
1,1,0.6000,0.7000,-0.3000*
1,1,0.6000,-0.7000,-0.3000*
1,1,0.6000,-0.7000,0.3000*
%
%ADD37ROUNDEDRECTD37*%
G04:AMPARAMS|DCode=38|XSize=1.2mm|YSize=1.2mm|CornerRadius=0.198mm|HoleSize=0mm|Usage=FLASHONLY|Rotation=90.000|XOffset=0mm|YOffset=0mm|HoleType=Round|Shape=RoundedRectangle|*
%AMROUNDEDRECTD38*
21,1,1.2000,0.8040,0,0,90.0*
21,1,0.8040,1.2000,0,0,90.0*
1,1,0.3960,0.4020,0.4020*
1,1,0.3960,0.4020,-0.4020*
1,1,0.3960,-0.4020,-0.4020*
1,1,0.3960,-0.4020,0.4020*
%
%ADD38ROUNDEDRECTD38*%
G04:AMPARAMS|DCode=39|XSize=1.45mm|YSize=0.95mm|CornerRadius=0.1995mm|HoleSize=0mm|Usage=FLASHONLY|Rotation=90.000|XOffset=0mm|YOffset=0mm|HoleType=Round|Shape=RoundedRectangle|*
%AMROUNDEDRECTD39*
21,1,1.4500,0.5510,0,0,90.0*
21,1,1.0510,0.9500,0,0,90.0*
1,1,0.3990,0.2755,0.5255*
1,1,0.3990,0.2755,-0.5255*
1,1,0.3990,-0.2755,-0.5255*
1,1,0.3990,-0.2755,0.5255*
%
%ADD39ROUNDEDRECTD39*%
G04:AMPARAMS|DCode=40|XSize=0.3mm|YSize=0.65mm|CornerRadius=0.0495mm|HoleSize=0mm|Usage=FLASHONLY|Rotation=90.000|XOffset=0mm|YOffset=0mm|HoleType=Round|Shape=RoundedRectangle|*
%AMROUNDEDRECTD40*
21,1,0.3000,0.5510,0,0,90.0*
21,1,0.2010,0.6500,0,0,90.0*
1,1,0.0990,0.2755,0.1005*
1,1,0.0990,0.2755,-0.1005*
1,1,0.0990,-0.2755,-0.1005*
1,1,0.0990,-0.2755,0.1005*
%
%ADD40ROUNDEDRECTD40*%
G04:AMPARAMS|DCode=41|XSize=0.5mm|YSize=0.21mm|CornerRadius=0.0347mm|HoleSize=0mm|Usage=FLASHONLY|Rotation=90.000|XOffset=0mm|YOffset=0mm|HoleType=Round|Shape=RoundedRectangle|*
%AMROUNDEDRECTD41*
21,1,0.5000,0.1407,0,0,90.0*
21,1,0.4307,0.2100,0,0,90.0*
1,1,0.0693,0.0704,0.2154*
1,1,0.0693,0.0704,-0.2154*
1,1,0.0693,-0.0704,-0.2154*
1,1,0.0693,-0.0704,0.2154*
%
%ADD41ROUNDEDRECTD41*%
G04:AMPARAMS|DCode=42|XSize=0.7mm|YSize=1.5mm|CornerRadius=0.175mm|HoleSize=0mm|Usage=FLASHONLY|Rotation=0.000|XOffset=0mm|YOffset=0mm|HoleType=Round|Shape=RoundedRectangle|*
%AMROUNDEDRECTD42*
21,1,0.7000,1.1500,0,0,0.0*
21,1,0.3500,1.5000,0,0,0.0*
1,1,0.3500,0.1750,-0.5750*
1,1,0.3500,-0.1750,-0.5750*
1,1,0.3500,-0.1750,0.5750*
1,1,0.3500,0.1750,0.5750*
%
%ADD42ROUNDEDRECTD42*%
%ADD43O,2.5000X0.5000*%
%ADD44O,0.5000X2.5000*%
%ADD45O,1.8000X0.8000*%
%ADD46O,2.5000X1.0000*%
G04:AMPARAMS|DCode=47|XSize=0.8mm|YSize=2mm|CornerRadius=0.2mm|HoleSize=0mm|Usage=FLASHONLY|Rotation=270.000|XOffset=0mm|YOffset=0mm|HoleType=Round|Shape=RoundedRectangle|*
%AMROUNDEDRECTD47*
21,1,0.8000,1.6000,0,0,270.0*
21,1,0.4000,2.0000,0,0,270.0*
1,1,0.4000,-0.8000,-0.2000*
1,1,0.4000,-0.8000,0.2000*
1,1,0.4000,0.8000,0.2000*
1,1,0.4000,0.8000,-0.2000*
%
%ADD47ROUNDEDRECTD47*%
G04:AMPARAMS|DCode=48|XSize=0.7mm|YSize=1mm|CornerRadius=0.175mm|HoleSize=0mm|Usage=FLASHONLY|Rotation=90.000|XOffset=0mm|YOffset=0mm|HoleType=Round|Shape=RoundedRectangle|*
%AMROUNDEDRECTD48*
21,1,0.7000,0.6500,0,0,90.0*
21,1,0.3500,1.0000,0,0,90.0*
1,1,0.3500,0.3250,0.1750*
1,1,0.3500,0.3250,-0.1750*
1,1,0.3500,-0.3250,-0.1750*
1,1,0.3500,-0.3250,0.1750*
%
%ADD48ROUNDEDRECTD48*%
%ADD49O,0.7000X2.5000*%
%ADD50O,2.5000X0.7000*%
%ADD51C,0.5000*%
%ADD52C,0.4000*%
%ADD53C,0.7000*%
%ADD54C,0.2500*%
%ADD55C,0.2000*%
%ADD56C,0.3000*%
%ADD57C,1.0000*%
%ADD58C,0.6000*%
%ADD59C,0.8000*%
%ADD60C,0.9000*%
%ADD61C,1.8000*%
G04:AMPARAMS|DCode=62|XSize=1.3mm|YSize=1.3mm|CornerRadius=0.1625mm|HoleSize=0mm|Usage=FLASHONLY|Rotation=0.000|XOffset=0mm|YOffset=0mm|HoleType=Round|Shape=RoundedRectangle|*
%AMROUNDEDRECTD62*
21,1,1.3000,0.9750,0,0,0.0*
21,1,0.9750,1.3000,0,0,0.0*
1,1,0.3250,0.4875,-0.4875*
1,1,0.3250,-0.4875,-0.4875*
1,1,0.3250,-0.4875,0.4875*
1,1,0.3250,0.4875,0.4875*
%
%ADD62ROUNDEDRECTD62*%
%ADD63C,1.3000*%
%ADD64C,7.0000*%
%ADD65C,0.1000*%
%ADD66C,0.5000*%
G04:AMPARAMS|DCode=67|XSize=2mm|YSize=2mm|CornerRadius=0.25mm|HoleSize=0mm|Usage=FLASHONLY|Rotation=90.000|XOffset=0mm|YOffset=0mm|HoleType=Round|Shape=RoundedRectangle|*
%AMROUNDEDRECTD67*
21,1,2.0000,1.5000,0,0,90.0*
21,1,1.5000,2.0000,0,0,90.0*
1,1,0.5000,0.7500,0.7500*
1,1,0.5000,0.7500,-0.7500*
1,1,0.5000,-0.7500,-0.7500*
1,1,0.5000,-0.7500,0.7500*
%
%ADD67ROUNDEDRECTD67*%
%ADD68C,2.0000*%
%ADD69C,2.5000*%
G04:AMPARAMS|DCode=70|XSize=1.85mm|YSize=1.85mm|CornerRadius=0.2313mm|HoleSize=0mm|Usage=FLASHONLY|Rotation=0.000|XOffset=0mm|YOffset=0mm|HoleType=Round|Shape=RoundedRectangle|*
%AMROUNDEDRECTD70*
21,1,1.8500,1.3875,0,0,0.0*
21,1,1.3875,1.8500,0,0,0.0*
1,1,0.4625,0.6937,-0.6937*
1,1,0.4625,-0.6937,-0.6937*
1,1,0.4625,-0.6937,0.6937*
1,1,0.4625,0.6937,0.6937*
%
%ADD70ROUNDEDRECTD70*%
%ADD71C,1.8500*%
%ADD72C,1.6000*%
%ADD73R,1.6000X1.6000*%
G04:AMPARAMS|DCode=74|XSize=1.3mm|YSize=1.3mm|CornerRadius=0.325mm|HoleSize=0mm|Usage=FLASHONLY|Rotation=90.000|XOffset=0mm|YOffset=0mm|HoleType=Round|Shape=RoundedRectangle|*
%AMROUNDEDRECTD74*
21,1,1.3000,0.6500,0,0,90.0*
21,1,0.6500,1.3000,0,0,90.0*
1,1,0.6500,0.3250,0.3250*
1,1,0.6500,0.3250,-0.3250*
1,1,0.6500,-0.3250,-0.3250*
1,1,0.6500,-0.3250,0.3250*
%
%ADD74ROUNDEDRECTD74*%
%ADD75R,2.5000X5.0000*%
%ADD76R,5.0000X2.5000*%
G04:AMPARAMS|DCode=77|XSize=1mm|YSize=1mm|CornerRadius=0.25mm|HoleSize=0mm|Usage=FLASHONLY|Rotation=0.000|XOffset=0mm|YOffset=0mm|HoleType=Round|Shape=RoundedRectangle|*
%AMROUNDEDRECTD77*
21,1,1.0000,0.5000,0,0,0.0*
21,1,0.5000,1.0000,0,0,0.0*
1,1,0.5000,0.2500,-0.2500*
1,1,0.5000,-0.2500,-0.2500*
1,1,0.5000,-0.2500,0.2500*
1,1,0.5000,0.2500,0.2500*
%
%ADD77ROUNDEDRECTD77*%
%ADD78C,2.2000*%
G04:AMPARAMS|DCode=79|XSize=1.6mm|YSize=1.6mm|CornerRadius=0.2mm|HoleSize=0mm|Usage=FLASHONLY|Rotation=90.000|XOffset=0mm|YOffset=0mm|HoleType=Round|Shape=RoundedRectangle|*
%AMROUNDEDRECTD79*
21,1,1.6000,1.2000,0,0,90.0*
21,1,1.2000,1.6000,0,0,90.0*
1,1,0.4000,0.6000,0.6000*
1,1,0.4000,0.6000,-0.6000*
1,1,0.4000,-0.6000,-0.6000*
1,1,0.4000,-0.6000,0.6000*
%
%ADD79ROUNDEDRECTD79*%
G04:AMPARAMS|DCode=80|XSize=1.4mm|YSize=1.4mm|CornerRadius=0.175mm|HoleSize=0mm|Usage=FLASHONLY|Rotation=90.000|XOffset=0mm|YOffset=0mm|HoleType=Round|Shape=RoundedRectangle|*
%AMROUNDEDRECTD80*
21,1,1.4000,1.0500,0,0,90.0*
21,1,1.0500,1.4000,0,0,90.0*
1,1,0.3500,0.5250,0.5250*
1,1,0.3500,0.5250,-0.5250*
1,1,0.3500,-0.5250,-0.5250*
1,1,0.3500,-0.5250,0.5250*
%
%ADD80ROUNDEDRECTD80*%
%ADD81C,1.0000*%
%ADD82C,0.6000*%
G04:AMPARAMS|DCode=83|XSize=1.15mm|YSize=2.1mm|CornerRadius=0.2875mm|HoleSize=0mm|Usage=FLASHONLY|Rotation=90.000|XOffset=0mm|YOffset=0mm|HoleType=Round|Shape=RoundedRectangle|*
%AMROUNDEDRECTD83*
21,1,1.1500,1.5250,0,0,90.0*
21,1,0.5750,2.1000,0,0,90.0*
1,1,0.5750,0.7625,0.2875*
1,1,0.5750,0.7625,-0.2875*
1,1,0.5750,-0.7625,-0.2875*
1,1,0.5750,-0.7625,0.2875*
%
%ADD83ROUNDEDRECTD83*%
G04:AMPARAMS|DCode=84|XSize=2.5mm|YSize=1.15mm|CornerRadius=0.3852mm|HoleSize=0mm|Usage=FLASHONLY|Rotation=0.000|XOffset=0mm|YOffset=0mm|HoleType=Round|Shape=RoundedRectangle|*
%AMROUNDEDRECTD84*
21,1,2.5000,0.3795,0,0,0.0*
21,1,1.7295,1.1500,0,0,0.0*
1,1,0.7705,0.8648,-0.1898*
1,1,0.7705,-0.8648,-0.1898*
1,1,0.7705,-0.8648,0.1898*
1,1,0.7705,0.8648,0.1898*
%
%ADD84ROUNDEDRECTD84*%
G04:AMPARAMS|DCode=85|XSize=1.3mm|YSize=1mm|CornerRadius=0.25mm|HoleSize=0mm|Usage=FLASHONLY|Rotation=0.000|XOffset=0mm|YOffset=0mm|HoleType=Round|Shape=RoundedRectangle|*
%AMROUNDEDRECTD85*
21,1,1.3000,0.5000,0,0,0.0*
21,1,0.8000,1.0000,0,0,0.0*
1,1,0.5000,0.4000,-0.2500*
1,1,0.5000,-0.4000,-0.2500*
1,1,0.5000,-0.4000,0.2500*
1,1,0.5000,0.4000,0.2500*
%
%ADD85ROUNDEDRECTD85*%
G04:AMPARAMS|DCode=86|XSize=2.35mm|YSize=1.15mm|CornerRadius=0.3852mm|HoleSize=0mm|Usage=FLASHONLY|Rotation=0.000|XOffset=0mm|YOffset=0mm|HoleType=Round|Shape=RoundedRectangle|*
%AMROUNDEDRECTD86*
21,1,2.3500,0.3795,0,0,0.0*
21,1,1.5795,1.1500,0,0,0.0*
1,1,0.7705,0.7897,-0.1898*
1,1,0.7705,-0.7897,-0.1898*
1,1,0.7705,-0.7897,0.1898*
1,1,0.7705,0.7897,0.1898*
%
%ADD86ROUNDEDRECTD86*%
G04:AMPARAMS|DCode=87|XSize=1mm|YSize=1.2mm|CornerRadius=0.165mm|HoleSize=0mm|Usage=FLASHONLY|Rotation=180.000|XOffset=0mm|YOffset=0mm|HoleType=Round|Shape=RoundedRectangle|*
%AMROUNDEDRECTD87*
21,1,1.0000,0.8700,0,0,180.0*
21,1,0.6700,1.2000,0,0,180.0*
1,1,0.3300,-0.3350,0.4350*
1,1,0.3300,0.3350,0.4350*
1,1,0.3300,0.3350,-0.4350*
1,1,0.3300,-0.3350,-0.4350*
%
%ADD87ROUNDEDRECTD87*%
G04:AMPARAMS|DCode=88|XSize=1.6mm|YSize=1.3mm|CornerRadius=0.2015mm|HoleSize=0mm|Usage=FLASHONLY|Rotation=90.000|XOffset=0mm|YOffset=0mm|HoleType=Round|Shape=RoundedRectangle|*
%AMROUNDEDRECTD88*
21,1,1.6000,0.8970,0,0,90.0*
21,1,1.1970,1.3000,0,0,90.0*
1,1,0.4030,0.4485,0.5985*
1,1,0.4030,0.4485,-0.5985*
1,1,0.4030,-0.4485,-0.5985*
1,1,0.4030,-0.4485,0.5985*
%
%ADD88ROUNDEDRECTD88*%
G04:AMPARAMS|DCode=89|XSize=0.7mm|YSize=2.5mm|CornerRadius=0.175mm|HoleSize=0mm|Usage=FLASHONLY|Rotation=180.000|XOffset=0mm|YOffset=0mm|HoleType=Round|Shape=RoundedRectangle|*
%AMROUNDEDRECTD89*
21,1,0.7000,2.1500,0,0,180.0*
21,1,0.3500,2.5000,0,0,180.0*
1,1,0.3500,-0.1750,1.0750*
1,1,0.3500,0.1750,1.0750*
1,1,0.3500,0.1750,-1.0750*
1,1,0.3500,-0.1750,-1.0750*
%
%ADD89ROUNDEDRECTD89*%
G04:AMPARAMS|DCode=90|XSize=1.45mm|YSize=1.15mm|CornerRadius=0.2013mm|HoleSize=0mm|Usage=FLASHONLY|Rotation=90.000|XOffset=0mm|YOffset=0mm|HoleType=Round|Shape=RoundedRectangle|*
%AMROUNDEDRECTD90*
21,1,1.4500,0.7475,0,0,90.0*
21,1,1.0475,1.1500,0,0,90.0*
1,1,0.4025,0.3738,0.5238*
1,1,0.4025,0.3738,-0.5238*
1,1,0.4025,-0.3738,-0.5238*
1,1,0.4025,-0.3738,0.5238*
%
%ADD90ROUNDEDRECTD90*%
G04:AMPARAMS|DCode=91|XSize=1.2mm|YSize=1.2mm|CornerRadius=0.198mm|HoleSize=0mm|Usage=FLASHONLY|Rotation=0.000|XOffset=0mm|YOffset=0mm|HoleType=Round|Shape=RoundedRectangle|*
%AMROUNDEDRECTD91*
21,1,1.2000,0.8040,0,0,0.0*
21,1,0.8040,1.2000,0,0,0.0*
1,1,0.3960,0.4020,-0.4020*
1,1,0.3960,-0.4020,-0.4020*
1,1,0.3960,-0.4020,0.4020*
1,1,0.3960,0.4020,0.4020*
%
%ADD91ROUNDEDRECTD91*%
%ADD92C,5.0000*%
%ADD93C,0.2540*%
%ADD94C,0.1500*%
%ADD95C,0.1000*%
%ADD96C,0.0500*%
%ADD97C,0.0100*%
%ADD98C,0.0750*%
G04:AMPARAMS|DCode=99|XSize=0.77mm|YSize=0.77mm|CornerRadius=0.2008mm|HoleSize=0mm|Usage=FLASHONLY|Rotation=90.000|XOffset=0mm|YOffset=0mm|HoleType=Round|Shape=RoundedRectangle|*
%AMROUNDEDRECTD99*
21,1,0.7700,0.3685,0,0,90.0*
21,1,0.3685,0.7700,0,0,90.0*
1,1,0.4015,0.1843,0.1843*
1,1,0.4015,0.1843,-0.1843*
1,1,0.4015,-0.1843,-0.1843*
1,1,0.4015,-0.1843,0.1843*
%
%ADD99ROUNDEDRECTD99*%
G04:AMPARAMS|DCode=100|XSize=0.77mm|YSize=0.77mm|CornerRadius=0.2008mm|HoleSize=0mm|Usage=FLASHONLY|Rotation=180.000|XOffset=0mm|YOffset=0mm|HoleType=Round|Shape=RoundedRectangle|*
%AMROUNDEDRECTD100*
21,1,0.7700,0.3685,0,0,180.0*
21,1,0.3685,0.7700,0,0,180.0*
1,1,0.4015,-0.1843,0.1843*
1,1,0.4015,0.1843,0.1843*
1,1,0.4015,0.1843,-0.1843*
1,1,0.4015,-0.1843,-0.1843*
%
%ADD100ROUNDEDRECTD100*%
G04:AMPARAMS|DCode=101|XSize=1.25mm|YSize=0.75mm|CornerRadius=0.276mm|HoleSize=0mm|Usage=FLASHONLY|Rotation=270.000|XOffset=0mm|YOffset=0mm|HoleType=Round|Shape=RoundedRectangle|*
%AMROUNDEDRECTD101*
21,1,1.2500,0.1980,0,0,270.0*
21,1,0.6980,0.7500,0,0,270.0*
1,1,0.5520,-0.0990,-0.3490*
1,1,0.5520,-0.0990,0.3490*
1,1,0.5520,0.0990,0.3490*
1,1,0.5520,0.0990,-0.3490*
%
%ADD101ROUNDEDRECTD101*%
G04:AMPARAMS|DCode=102|XSize=2.7032mm|YSize=2.2032mm|CornerRadius=0.3516mm|HoleSize=0mm|Usage=FLASHONLY|Rotation=270.000|XOffset=0mm|YOffset=0mm|HoleType=Round|Shape=RoundedRectangle|*
%AMROUNDEDRECTD102*
21,1,2.7032,1.5000,0,0,270.0*
21,1,2.0000,2.2032,0,0,270.0*
1,1,0.7032,-0.7500,-1.0000*
1,1,0.7032,-0.7500,1.0000*
1,1,0.7032,0.7500,1.0000*
1,1,0.7032,0.7500,-1.0000*
%
%ADD102ROUNDEDRECTD102*%
G04:AMPARAMS|DCode=103|XSize=2.85mm|YSize=1.35mm|CornerRadius=0.285mm|HoleSize=0mm|Usage=FLASHONLY|Rotation=0.000|XOffset=0mm|YOffset=0mm|HoleType=Round|Shape=RoundedRectangle|*
%AMROUNDEDRECTD103*
21,1,2.8500,0.7800,0,0,0.0*
21,1,2.2800,1.3500,0,0,0.0*
1,1,0.5700,1.1400,-0.3900*
1,1,0.5700,-1.1400,-0.3900*
1,1,0.5700,-1.1400,0.3900*
1,1,0.5700,1.1400,0.3900*
%
%ADD103ROUNDEDRECTD103*%
G04:AMPARAMS|DCode=104|XSize=1.2mm|YSize=0.8mm|CornerRadius=0.2765mm|HoleSize=0mm|Usage=FLASHONLY|Rotation=90.000|XOffset=0mm|YOffset=0mm|HoleType=Round|Shape=RoundedRectangle|*
%AMROUNDEDRECTD104*
21,1,1.2000,0.2470,0,0,90.0*
21,1,0.6470,0.8000,0,0,90.0*
1,1,0.5530,0.1235,0.3235*
1,1,0.5530,0.1235,-0.3235*
1,1,0.5530,-0.1235,-0.3235*
1,1,0.5530,-0.1235,0.3235*
%
%ADD104ROUNDEDRECTD104*%
G04:AMPARAMS|DCode=105|XSize=2.65mm|YSize=2.15mm|CornerRadius=0.275mm|HoleSize=0mm|Usage=FLASHONLY|Rotation=90.000|XOffset=0mm|YOffset=0mm|HoleType=Round|Shape=RoundedRectangle|*
%AMROUNDEDRECTD105*
21,1,2.6500,1.6000,0,0,90.0*
21,1,2.1000,2.1500,0,0,90.0*
1,1,0.5500,0.8000,1.0500*
1,1,0.5500,0.8000,-1.0500*
1,1,0.5500,-0.8000,-1.0500*
1,1,0.5500,-0.8000,1.0500*
%
%ADD105ROUNDEDRECTD105*%
G04:AMPARAMS|DCode=106|XSize=2.45mm|YSize=0.65mm|CornerRadius=0.275mm|HoleSize=0mm|Usage=FLASHONLY|Rotation=90.000|XOffset=0mm|YOffset=0mm|HoleType=Round|Shape=RoundedRectangle|*
%AMROUNDEDRECTD106*
21,1,2.4500,0.1000,0,0,90.0*
21,1,1.9000,0.6500,0,0,90.0*
1,1,0.5500,0.0500,0.9500*
1,1,0.5500,0.0500,-0.9500*
1,1,0.5500,-0.0500,-0.9500*
1,1,0.5500,-0.0500,0.9500*
%
%ADD106ROUNDEDRECTD106*%
G04:AMPARAMS|DCode=107|XSize=1.25mm|YSize=0.75mm|CornerRadius=0.276mm|HoleSize=0mm|Usage=FLASHONLY|Rotation=180.000|XOffset=0mm|YOffset=0mm|HoleType=Round|Shape=RoundedRectangle|*
%AMROUNDEDRECTD107*
21,1,1.2500,0.1980,0,0,180.0*
21,1,0.6980,0.7500,0,0,180.0*
1,1,0.5520,-0.3490,0.0990*
1,1,0.5520,0.3490,0.0990*
1,1,0.5520,0.3490,-0.0990*
1,1,0.5520,-0.3490,-0.0990*
%
%ADD107ROUNDEDRECTD107*%
G04:AMPARAMS|DCode=108|XSize=1.15mm|YSize=1.1mm|CornerRadius=0.2745mm|HoleSize=0mm|Usage=FLASHONLY|Rotation=270.000|XOffset=0mm|YOffset=0mm|HoleType=Round|Shape=RoundedRectangle|*
%AMROUNDEDRECTD108*
21,1,1.1500,0.5510,0,0,270.0*
21,1,0.6010,1.1000,0,0,270.0*
1,1,0.5490,-0.2755,-0.3005*
1,1,0.5490,-0.2755,0.3005*
1,1,0.5490,0.2755,0.3005*
1,1,0.5490,0.2755,-0.3005*
%
%ADD108ROUNDEDRECTD108*%
%ADD109R,0.6032X1.6032*%
G04:AMPARAMS|DCode=110|XSize=2.0032mm|YSize=2.1032mm|CornerRadius=0.5516mm|HoleSize=0mm|Usage=FLASHONLY|Rotation=0.000|XOffset=0mm|YOffset=0mm|HoleType=Round|Shape=RoundedRectangle|*
%AMROUNDEDRECTD110*
21,1,2.0032,1.0000,0,0,0.0*
21,1,0.9000,2.1032,0,0,0.0*
1,1,1.1032,0.4500,-0.5000*
1,1,1.1032,-0.4500,-0.5000*
1,1,1.1032,-0.4500,0.5000*
1,1,1.1032,0.4500,0.5000*
%
%ADD110ROUNDEDRECTD110*%
G04:AMPARAMS|DCode=111|XSize=0.9032mm|YSize=1.2032mm|CornerRadius=0.2766mm|HoleSize=0mm|Usage=FLASHONLY|Rotation=180.000|XOffset=0mm|YOffset=0mm|HoleType=Round|Shape=RoundedRectangle|*
%AMROUNDEDRECTD111*
21,1,0.9032,0.6500,0,0,180.0*
21,1,0.3500,1.2032,0,0,180.0*
1,1,0.5532,-0.1750,0.3250*
1,1,0.5532,0.1750,0.3250*
1,1,0.5532,0.1750,-0.3250*
1,1,0.5532,-0.1750,-0.3250*
%
%ADD111ROUNDEDRECTD111*%
G04:AMPARAMS|DCode=112|XSize=1.0032mm|YSize=2.2032mm|CornerRadius=0.3016mm|HoleSize=0mm|Usage=FLASHONLY|Rotation=180.000|XOffset=0mm|YOffset=0mm|HoleType=Round|Shape=RoundedRectangle|*
%AMROUNDEDRECTD112*
21,1,1.0032,1.6000,0,0,180.0*
21,1,0.4000,2.2032,0,0,180.0*
1,1,0.6032,-0.2000,0.8000*
1,1,0.6032,0.2000,0.8000*
1,1,0.6032,0.2000,-0.8000*
1,1,0.6032,-0.2000,-0.8000*
%
%ADD112ROUNDEDRECTD112*%
G04:AMPARAMS|DCode=113|XSize=1.15mm|YSize=1.05mm|CornerRadius=0.273mm|HoleSize=0mm|Usage=FLASHONLY|Rotation=180.000|XOffset=0mm|YOffset=0mm|HoleType=Round|Shape=RoundedRectangle|*
%AMROUNDEDRECTD113*
21,1,1.1500,0.5040,0,0,180.0*
21,1,0.6040,1.0500,0,0,180.0*
1,1,0.5460,-0.3020,0.2520*
1,1,0.5460,0.3020,0.2520*
1,1,0.5460,0.3020,-0.2520*
1,1,0.5460,-0.3020,-0.2520*
%
%ADD113ROUNDEDRECTD113*%
G04:AMPARAMS|DCode=114|XSize=1.2mm|YSize=0.8mm|CornerRadius=0.2765mm|HoleSize=0mm|Usage=FLASHONLY|Rotation=0.000|XOffset=0mm|YOffset=0mm|HoleType=Round|Shape=RoundedRectangle|*
%AMROUNDEDRECTD114*
21,1,1.2000,0.2470,0,0,0.0*
21,1,0.6470,0.8000,0,0,0.0*
1,1,0.5530,0.3235,-0.1235*
1,1,0.5530,-0.3235,-0.1235*
1,1,0.5530,-0.3235,0.1235*
1,1,0.5530,0.3235,0.1235*
%
%ADD114ROUNDEDRECTD114*%
G04:AMPARAMS|DCode=115|XSize=2.65mm|YSize=1.85mm|CornerRadius=0.279mm|HoleSize=0mm|Usage=FLASHONLY|Rotation=0.000|XOffset=0mm|YOffset=0mm|HoleType=Round|Shape=RoundedRectangle|*
%AMROUNDEDRECTD115*
21,1,2.6500,1.2920,0,0,0.0*
21,1,2.0920,1.8500,0,0,0.0*
1,1,0.5580,1.0460,-0.6460*
1,1,0.5580,-1.0460,-0.6460*
1,1,0.5580,-1.0460,0.6460*
1,1,0.5580,1.0460,0.6460*
%
%ADD115ROUNDEDRECTD115*%
G04:AMPARAMS|DCode=116|XSize=5.35mm|YSize=2.15mm|CornerRadius=0.325mm|HoleSize=0mm|Usage=FLASHONLY|Rotation=180.000|XOffset=0mm|YOffset=0mm|HoleType=Round|Shape=RoundedRectangle|*
%AMROUNDEDRECTD116*
21,1,5.3500,1.5000,0,0,180.0*
21,1,4.7000,2.1500,0,0,180.0*
1,1,0.6500,-2.3500,0.7500*
1,1,0.6500,2.3500,0.7500*
1,1,0.6500,2.3500,-0.7500*
1,1,0.6500,-2.3500,-0.7500*
%
%ADD116ROUNDEDRECTD116*%
G04:AMPARAMS|DCode=117|XSize=0.8mm|YSize=0.5mm|CornerRadius=0.1485mm|HoleSize=0mm|Usage=FLASHONLY|Rotation=0.000|XOffset=0mm|YOffset=0mm|HoleType=Round|Shape=RoundedRectangle|*
%AMROUNDEDRECTD117*
21,1,0.8000,0.2030,0,0,0.0*
21,1,0.5030,0.5000,0,0,0.0*
1,1,0.2970,0.2515,-0.1015*
1,1,0.2970,-0.2515,-0.1015*
1,1,0.2970,-0.2515,0.1015*
1,1,0.2970,0.2515,0.1015*
%
%ADD117ROUNDEDRECTD117*%
G04:AMPARAMS|DCode=118|XSize=0.77mm|YSize=0.77mm|CornerRadius=0.2238mm|HoleSize=0mm|Usage=FLASHONLY|Rotation=0.000|XOffset=0mm|YOffset=0mm|HoleType=Round|Shape=RoundedRectangle|*
%AMROUNDEDRECTD118*
21,1,0.7700,0.3224,0,0,0.0*
21,1,0.3224,0.7700,0,0,0.0*
1,1,0.4476,0.1612,-0.1612*
1,1,0.4476,-0.1612,-0.1612*
1,1,0.4476,-0.1612,0.1612*
1,1,0.4476,0.1612,0.1612*
%
%ADD118ROUNDEDRECTD118*%
G04:AMPARAMS|DCode=119|XSize=0.45mm|YSize=0.4mm|CornerRadius=0.1275mm|HoleSize=0mm|Usage=FLASHONLY|Rotation=0.000|XOffset=0mm|YOffset=0mm|HoleType=Round|Shape=RoundedRectangle|*
%AMROUNDEDRECTD119*
21,1,0.4500,0.1450,0,0,0.0*
21,1,0.1950,0.4000,0,0,0.0*
1,1,0.2550,0.0975,-0.0725*
1,1,0.2550,-0.0975,-0.0725*
1,1,0.2550,-0.0975,0.0725*
1,1,0.2550,0.0975,0.0725*
%
%ADD119ROUNDEDRECTD119*%
%ADD120O,1.7000X0.7500*%
G04:AMPARAMS|DCode=121|XSize=0.77mm|YSize=0.77mm|CornerRadius=0.2238mm|HoleSize=0mm|Usage=FLASHONLY|Rotation=270.000|XOffset=0mm|YOffset=0mm|HoleType=Round|Shape=RoundedRectangle|*
%AMROUNDEDRECTD121*
21,1,0.7700,0.3224,0,0,270.0*
21,1,0.3224,0.7700,0,0,270.0*
1,1,0.4476,-0.1612,-0.1612*
1,1,0.4476,-0.1612,0.1612*
1,1,0.4476,0.1612,0.1612*
1,1,0.4476,0.1612,-0.1612*
%
%ADD121ROUNDEDRECTD121*%
G04:AMPARAMS|DCode=122|XSize=1.15mm|YSize=1.1mm|CornerRadius=0.2745mm|HoleSize=0mm|Usage=FLASHONLY|Rotation=0.000|XOffset=0mm|YOffset=0mm|HoleType=Round|Shape=RoundedRectangle|*
%AMROUNDEDRECTD122*
21,1,1.1500,0.5510,0,0,0.0*
21,1,0.6010,1.1000,0,0,0.0*
1,1,0.5490,0.3005,-0.2755*
1,1,0.5490,-0.3005,-0.2755*
1,1,0.5490,-0.3005,0.2755*
1,1,0.5490,0.3005,0.2755*
%
%ADD122ROUNDEDRECTD122*%
%ADD123O,0.7500X1.7000*%
G04:AMPARAMS|DCode=124|XSize=3.45mm|YSize=1.8mm|CornerRadius=0.273mm|HoleSize=0mm|Usage=FLASHONLY|Rotation=90.000|XOffset=0mm|YOffset=0mm|HoleType=Round|Shape=RoundedRectangle|*
%AMROUNDEDRECTD124*
21,1,3.4500,1.2540,0,0,90.0*
21,1,2.9040,1.8000,0,0,90.0*
1,1,0.5460,0.6270,1.4520*
1,1,0.5460,0.6270,-1.4520*
1,1,0.5460,-0.6270,-1.4520*
1,1,0.5460,-0.6270,1.4520*
%
%ADD124ROUNDEDRECTD124*%
G04:AMPARAMS|DCode=125|XSize=1.15mm|YSize=1.05mm|CornerRadius=0.273mm|HoleSize=0mm|Usage=FLASHONLY|Rotation=270.000|XOffset=0mm|YOffset=0mm|HoleType=Round|Shape=RoundedRectangle|*
%AMROUNDEDRECTD125*
21,1,1.1500,0.5040,0,0,270.0*
21,1,0.6040,1.0500,0,0,270.0*
1,1,0.5460,-0.2520,-0.3020*
1,1,0.5460,-0.2520,0.3020*
1,1,0.5460,0.2520,0.3020*
1,1,0.5460,0.2520,-0.3020*
%
%ADD125ROUNDEDRECTD125*%
G04:AMPARAMS|DCode=126|XSize=1.3mm|YSize=2.1mm|CornerRadius=0.35mm|HoleSize=0mm|Usage=FLASHONLY|Rotation=90.000|XOffset=0mm|YOffset=0mm|HoleType=Round|Shape=RoundedRectangle|*
%AMROUNDEDRECTD126*
21,1,1.3000,1.4000,0,0,90.0*
21,1,0.6000,2.1000,0,0,90.0*
1,1,0.7000,0.7000,0.3000*
1,1,0.7000,0.7000,-0.3000*
1,1,0.7000,-0.7000,-0.3000*
1,1,0.7000,-0.7000,0.3000*
%
%ADD126ROUNDEDRECTD126*%
G04:AMPARAMS|DCode=127|XSize=1.35mm|YSize=1.35mm|CornerRadius=0.273mm|HoleSize=0mm|Usage=FLASHONLY|Rotation=90.000|XOffset=0mm|YOffset=0mm|HoleType=Round|Shape=RoundedRectangle|*
%AMROUNDEDRECTD127*
21,1,1.3500,0.8040,0,0,90.0*
21,1,0.8040,1.3500,0,0,90.0*
1,1,0.5460,0.4020,0.4020*
1,1,0.5460,0.4020,-0.4020*
1,1,0.5460,-0.4020,-0.4020*
1,1,0.5460,-0.4020,0.4020*
%
%ADD127ROUNDEDRECTD127*%
G04:AMPARAMS|DCode=128|XSize=1.55mm|YSize=1.05mm|CornerRadius=0.2495mm|HoleSize=0mm|Usage=FLASHONLY|Rotation=90.000|XOffset=0mm|YOffset=0mm|HoleType=Round|Shape=RoundedRectangle|*
%AMROUNDEDRECTD128*
21,1,1.5500,0.5510,0,0,90.0*
21,1,1.0510,1.0500,0,0,90.0*
1,1,0.4990,0.2755,0.5255*
1,1,0.4990,0.2755,-0.5255*
1,1,0.4990,-0.2755,-0.5255*
1,1,0.4990,-0.2755,0.5255*
%
%ADD128ROUNDEDRECTD128*%
G04:AMPARAMS|DCode=129|XSize=0.45mm|YSize=0.8mm|CornerRadius=0.1245mm|HoleSize=0mm|Usage=FLASHONLY|Rotation=90.000|XOffset=0mm|YOffset=0mm|HoleType=Round|Shape=RoundedRectangle|*
%AMROUNDEDRECTD129*
21,1,0.4500,0.5510,0,0,90.0*
21,1,0.2010,0.8000,0,0,90.0*
1,1,0.2490,0.2755,0.1005*
1,1,0.2490,0.2755,-0.1005*
1,1,0.2490,-0.2755,-0.1005*
1,1,0.2490,-0.2755,0.1005*
%
%ADD129ROUNDEDRECTD129*%
G04:AMPARAMS|DCode=130|XSize=0.65mm|YSize=0.36mm|CornerRadius=0.1097mm|HoleSize=0mm|Usage=FLASHONLY|Rotation=90.000|XOffset=0mm|YOffset=0mm|HoleType=Round|Shape=RoundedRectangle|*
%AMROUNDEDRECTD130*
21,1,0.6500,0.1407,0,0,90.0*
21,1,0.4307,0.3600,0,0,90.0*
1,1,0.2193,0.0704,0.2154*
1,1,0.2193,0.0704,-0.2154*
1,1,0.2193,-0.0704,-0.2154*
1,1,0.2193,-0.0704,0.2154*
%
%ADD130ROUNDEDRECTD130*%
%ADD131O,1.9500X0.9500*%
%ADD132O,2.6500X1.1500*%
G04:AMPARAMS|DCode=133|XSize=1.0032mm|YSize=2.2032mm|CornerRadius=0.3016mm|HoleSize=0mm|Usage=FLASHONLY|Rotation=270.000|XOffset=0mm|YOffset=0mm|HoleType=Round|Shape=RoundedRectangle|*
%AMROUNDEDRECTD133*
21,1,1.0032,1.6000,0,0,270.0*
21,1,0.4000,2.2032,0,0,270.0*
1,1,0.6032,-0.8000,-0.2000*
1,1,0.6032,-0.8000,0.2000*
1,1,0.6032,0.8000,0.2000*
1,1,0.6032,0.8000,-0.2000*
%
%ADD133ROUNDEDRECTD133*%
G04:AMPARAMS|DCode=134|XSize=0.9032mm|YSize=1.2032mm|CornerRadius=0.2766mm|HoleSize=0mm|Usage=FLASHONLY|Rotation=90.000|XOffset=0mm|YOffset=0mm|HoleType=Round|Shape=RoundedRectangle|*
%AMROUNDEDRECTD134*
21,1,0.9032,0.6500,0,0,90.0*
21,1,0.3500,1.2032,0,0,90.0*
1,1,0.5532,0.3250,0.1750*
1,1,0.5532,0.3250,-0.1750*
1,1,0.5532,-0.3250,-0.1750*
1,1,0.5532,-0.3250,0.1750*
%
%ADD134ROUNDEDRECTD134*%
%ADD135O,0.9032X2.7032*%
%ADD136O,2.7032X0.9032*%
%ADD137C,1.1032*%
%ADD138C,1.9500*%
G04:AMPARAMS|DCode=139|XSize=1.45mm|YSize=1.45mm|CornerRadius=0.2375mm|HoleSize=0mm|Usage=FLASHONLY|Rotation=0.000|XOffset=0mm|YOffset=0mm|HoleType=Round|Shape=RoundedRectangle|*
%AMROUNDEDRECTD139*
21,1,1.4500,0.9750,0,0,0.0*
21,1,0.9750,1.4500,0,0,0.0*
1,1,0.4750,0.4875,-0.4875*
1,1,0.4750,-0.4875,-0.4875*
1,1,0.4750,-0.4875,0.4875*
1,1,0.4750,0.4875,0.4875*
%
%ADD139ROUNDEDRECTD139*%
%ADD140C,1.4500*%
%ADD141C,7.2032*%
%ADD142C,0.6500*%
%ADD143C,0.7032*%
G04:AMPARAMS|DCode=144|XSize=2.15mm|YSize=2.15mm|CornerRadius=0.325mm|HoleSize=0mm|Usage=FLASHONLY|Rotation=90.000|XOffset=0mm|YOffset=0mm|HoleType=Round|Shape=RoundedRectangle|*
%AMROUNDEDRECTD144*
21,1,2.1500,1.5000,0,0,90.0*
21,1,1.5000,2.1500,0,0,90.0*
1,1,0.6500,0.7500,0.7500*
1,1,0.6500,0.7500,-0.7500*
1,1,0.6500,-0.7500,-0.7500*
1,1,0.6500,-0.7500,0.7500*
%
%ADD144ROUNDEDRECTD144*%
%ADD145C,2.1500*%
%ADD146C,2.7032*%
G04:AMPARAMS|DCode=147|XSize=2mm|YSize=2mm|CornerRadius=0.3063mm|HoleSize=0mm|Usage=FLASHONLY|Rotation=0.000|XOffset=0mm|YOffset=0mm|HoleType=Round|Shape=RoundedRectangle|*
%AMROUNDEDRECTD147*
21,1,2.0000,1.3875,0,0,0.0*
21,1,1.3875,2.0000,0,0,0.0*
1,1,0.6125,0.6937,-0.6937*
1,1,0.6125,-0.6937,-0.6937*
1,1,0.6125,-0.6937,0.6937*
1,1,0.6125,0.6937,0.6937*
%
%ADD147ROUNDEDRECTD147*%
%ADD148C,1.7500*%
%ADD149R,1.7500X1.7500*%
G04:AMPARAMS|DCode=150|XSize=1.5032mm|YSize=1.5032mm|CornerRadius=0.4266mm|HoleSize=0mm|Usage=FLASHONLY|Rotation=90.000|XOffset=0mm|YOffset=0mm|HoleType=Round|Shape=RoundedRectangle|*
%AMROUNDEDRECTD150*
21,1,1.5032,0.6500,0,0,90.0*
21,1,0.6500,1.5032,0,0,90.0*
1,1,0.8532,0.3250,0.3250*
1,1,0.8532,0.3250,-0.3250*
1,1,0.8532,-0.3250,-0.3250*
1,1,0.8532,-0.3250,0.3250*
%
%ADD150ROUNDEDRECTD150*%
%ADD151C,1.5032*%
%ADD152R,2.6500X5.1500*%
%ADD153R,5.1500X2.6500*%
G04:AMPARAMS|DCode=154|XSize=1.1mm|YSize=1.1mm|CornerRadius=0.3mm|HoleSize=0mm|Usage=FLASHONLY|Rotation=0.000|XOffset=0mm|YOffset=0mm|HoleType=Round|Shape=RoundedRectangle|*
%AMROUNDEDRECTD154*
21,1,1.1000,0.5000,0,0,0.0*
21,1,0.5000,1.1000,0,0,0.0*
1,1,0.6000,0.2500,-0.2500*
1,1,0.6000,-0.2500,-0.2500*
1,1,0.6000,-0.2500,0.2500*
1,1,0.6000,0.2500,0.2500*
%
%ADD154ROUNDEDRECTD154*%
%ADD155C,2.3500*%
G04:AMPARAMS|DCode=156|XSize=1.75mm|YSize=1.75mm|CornerRadius=0.275mm|HoleSize=0mm|Usage=FLASHONLY|Rotation=90.000|XOffset=0mm|YOffset=0mm|HoleType=Round|Shape=RoundedRectangle|*
%AMROUNDEDRECTD156*
21,1,1.7500,1.2000,0,0,90.0*
21,1,1.2000,1.7500,0,0,90.0*
1,1,0.5500,0.6000,0.6000*
1,1,0.5500,0.6000,-0.6000*
1,1,0.5500,-0.6000,-0.6000*
1,1,0.5500,-0.6000,0.6000*
%
%ADD156ROUNDEDRECTD156*%
G04:AMPARAMS|DCode=157|XSize=1.55mm|YSize=1.55mm|CornerRadius=0.25mm|HoleSize=0mm|Usage=FLASHONLY|Rotation=90.000|XOffset=0mm|YOffset=0mm|HoleType=Round|Shape=RoundedRectangle|*
%AMROUNDEDRECTD157*
21,1,1.5500,1.0500,0,0,90.0*
21,1,1.0500,1.5500,0,0,90.0*
1,1,0.5000,0.5250,0.5250*
1,1,0.5000,0.5250,-0.5250*
1,1,0.5000,-0.5250,-0.5250*
1,1,0.5000,-0.5250,0.5250*
%
%ADD157ROUNDEDRECTD157*%
G04:AMPARAMS|DCode=158|XSize=1.25mm|YSize=2.2mm|CornerRadius=0.3375mm|HoleSize=0mm|Usage=FLASHONLY|Rotation=90.000|XOffset=0mm|YOffset=0mm|HoleType=Round|Shape=RoundedRectangle|*
%AMROUNDEDRECTD158*
21,1,1.2500,1.5250,0,0,90.0*
21,1,0.5750,2.2000,0,0,90.0*
1,1,0.6750,0.7625,0.2875*
1,1,0.6750,0.7625,-0.2875*
1,1,0.6750,-0.7625,-0.2875*
1,1,0.6750,-0.7625,0.2875*
%
%ADD158ROUNDEDRECTD158*%
G04:AMPARAMS|DCode=159|XSize=2.6mm|YSize=1.25mm|CornerRadius=0.4353mm|HoleSize=0mm|Usage=FLASHONLY|Rotation=0.000|XOffset=0mm|YOffset=0mm|HoleType=Round|Shape=RoundedRectangle|*
%AMROUNDEDRECTD159*
21,1,2.6000,0.3795,0,0,0.0*
21,1,1.7295,1.2500,0,0,0.0*
1,1,0.8705,0.8648,-0.1898*
1,1,0.8705,-0.8648,-0.1898*
1,1,0.8705,-0.8648,0.1898*
1,1,0.8705,0.8648,0.1898*
%
%ADD159ROUNDEDRECTD159*%
G04:AMPARAMS|DCode=160|XSize=1.4mm|YSize=1.1mm|CornerRadius=0.3mm|HoleSize=0mm|Usage=FLASHONLY|Rotation=0.000|XOffset=0mm|YOffset=0mm|HoleType=Round|Shape=RoundedRectangle|*
%AMROUNDEDRECTD160*
21,1,1.4000,0.5000,0,0,0.0*
21,1,0.8000,1.1000,0,0,0.0*
1,1,0.6000,0.4000,-0.2500*
1,1,0.6000,-0.4000,-0.2500*
1,1,0.6000,-0.4000,0.2500*
1,1,0.6000,0.4000,0.2500*
%
%ADD160ROUNDEDRECTD160*%
G04:AMPARAMS|DCode=161|XSize=2.45mm|YSize=1.25mm|CornerRadius=0.4353mm|HoleSize=0mm|Usage=FLASHONLY|Rotation=0.000|XOffset=0mm|YOffset=0mm|HoleType=Round|Shape=RoundedRectangle|*
%AMROUNDEDRECTD161*
21,1,2.4500,0.3795,0,0,0.0*
21,1,1.5795,1.2500,0,0,0.0*
1,1,0.8705,0.7897,-0.1898*
1,1,0.8705,-0.7897,-0.1898*
1,1,0.8705,-0.7897,0.1898*
1,1,0.8705,0.7897,0.1898*
%
%ADD161ROUNDEDRECTD161*%
G04:AMPARAMS|DCode=162|XSize=1.15mm|YSize=1.35mm|CornerRadius=0.24mm|HoleSize=0mm|Usage=FLASHONLY|Rotation=180.000|XOffset=0mm|YOffset=0mm|HoleType=Round|Shape=RoundedRectangle|*
%AMROUNDEDRECTD162*
21,1,1.1500,0.8700,0,0,180.0*
21,1,0.6700,1.3500,0,0,180.0*
1,1,0.4800,-0.3350,0.4350*
1,1,0.4800,0.3350,0.4350*
1,1,0.4800,0.3350,-0.4350*
1,1,0.4800,-0.3350,-0.4350*
%
%ADD162ROUNDEDRECTD162*%
G04:AMPARAMS|DCode=163|XSize=1.75mm|YSize=1.45mm|CornerRadius=0.2765mm|HoleSize=0mm|Usage=FLASHONLY|Rotation=90.000|XOffset=0mm|YOffset=0mm|HoleType=Round|Shape=RoundedRectangle|*
%AMROUNDEDRECTD163*
21,1,1.7500,0.8970,0,0,90.0*
21,1,1.1970,1.4500,0,0,90.0*
1,1,0.5530,0.4485,0.5985*
1,1,0.5530,0.4485,-0.5985*
1,1,0.5530,-0.4485,-0.5985*
1,1,0.5530,-0.4485,0.5985*
%
%ADD163ROUNDEDRECTD163*%
G04:AMPARAMS|DCode=164|XSize=1.6mm|YSize=1.3mm|CornerRadius=0.2763mm|HoleSize=0mm|Usage=FLASHONLY|Rotation=90.000|XOffset=0mm|YOffset=0mm|HoleType=Round|Shape=RoundedRectangle|*
%AMROUNDEDRECTD164*
21,1,1.6000,0.7475,0,0,90.0*
21,1,1.0475,1.3000,0,0,90.0*
1,1,0.5525,0.3738,0.5238*
1,1,0.5525,0.3738,-0.5238*
1,1,0.5525,-0.3738,-0.5238*
1,1,0.5525,-0.3738,0.5238*
%
%ADD164ROUNDEDRECTD164*%
G04:AMPARAMS|DCode=165|XSize=1.35mm|YSize=1.35mm|CornerRadius=0.273mm|HoleSize=0mm|Usage=FLASHONLY|Rotation=0.000|XOffset=0mm|YOffset=0mm|HoleType=Round|Shape=RoundedRectangle|*
%AMROUNDEDRECTD165*
21,1,1.3500,0.8040,0,0,0.0*
21,1,0.8040,1.3500,0,0,0.0*
1,1,0.5460,0.4020,-0.4020*
1,1,0.5460,-0.4020,-0.4020*
1,1,0.5460,-0.4020,0.4020*
1,1,0.5460,0.4020,0.4020*
%
%ADD165ROUNDEDRECTD165*%
%ADD166C,5.2032*%
D68*
X320300Y421000D02*
D03*
X260550Y198500D02*
D03*
X285950D02*
D03*
X377999Y353050D02*
D03*
Y378450D02*
D03*
X495200Y225950D02*
D03*
Y200550D02*
D03*
D103*
X376000Y410700D02*
D03*
Y439700D02*
D03*
D108*
X454356Y71500D02*
D03*
X470356D02*
D03*
X431250Y204750D02*
D03*
X447250D02*
D03*
X400250Y219750D02*
D03*
X416250D02*
D03*
X400250Y204750D02*
D03*
X416250D02*
D03*
X462250Y219750D02*
D03*
X478250D02*
D03*
X431250D02*
D03*
X447250D02*
D03*
X462250Y204750D02*
D03*
X478250D02*
D03*
X482151Y308500D02*
D03*
X498151D02*
D03*
X482151Y293500D02*
D03*
X498151D02*
D03*
X451151Y308500D02*
D03*
X467151D02*
D03*
X451151Y293500D02*
D03*
X467151D02*
D03*
X420151D02*
D03*
X436151D02*
D03*
X420151Y308500D02*
D03*
X436151D02*
D03*
X340400Y401700D02*
D03*
X324400D02*
D03*
X340500Y386500D02*
D03*
X324500D02*
D03*
D111*
X444250Y429250D02*
D03*
X534200Y406800D02*
D03*
D112*
X429250Y414250D02*
D03*
X459250D02*
D03*
X519200Y391800D02*
D03*
X549200D02*
D03*
D113*
X479250Y385250D02*
D03*
Y369250D02*
D03*
X494250D02*
D03*
Y385250D02*
D03*
X451800Y359600D02*
D03*
Y375600D02*
D03*
X421800D02*
D03*
Y359600D02*
D03*
X436800Y375600D02*
D03*
Y359600D02*
D03*
D118*
X464950Y341400D02*
D03*
Y332400D02*
D03*
X475000Y341399D02*
D03*
Y332399D02*
D03*
D121*
X454900Y341800D02*
D03*
X445900D02*
D03*
X454900Y331700D02*
D03*
X445900D02*
D03*
D133*
X593600Y241500D02*
D03*
Y271500D02*
D03*
D134*
X578600Y256500D02*
D03*
D137*
X448600Y235400D02*
D03*
X429600D02*
D03*
X449600Y277100D02*
D03*
X468600D02*
D03*
D138*
X38000Y146250D02*
D03*
Y111250D02*
D03*
X39750Y214250D02*
D03*
Y249250D02*
D03*
D139*
X558200Y474800D02*
D03*
D140*
X532800D02*
D03*
X507400D02*
D03*
X410700Y438250D02*
D03*
D141*
X650000Y50000D02*
D03*
X50000Y50000D02*
D03*
D142*
X340200Y45500D02*
D03*
X296200D02*
D03*
D143*
X337200Y35250D02*
D03*
X299200D02*
D03*
D144*
X121250Y347750D02*
D03*
D145*
Y373250D02*
D03*
Y398750D02*
D03*
X253750Y433250D02*
D03*
Y313250D02*
D03*
X273750Y373250D02*
D03*
X130750Y433250D02*
D03*
Y313250D02*
D03*
D146*
X624600Y525400D02*
D03*
X650000Y500000D02*
D03*
X675400Y525400D02*
D03*
Y474600D02*
D03*
X624600D02*
D03*
X626350Y212650D02*
D03*
X651750Y187250D02*
D03*
X677150Y212650D02*
D03*
X626350Y161850D02*
D03*
X651750Y136450D02*
D03*
X677150Y161850D02*
D03*
Y111050D02*
D03*
X626350D02*
D03*
D147*
X345700Y421000D02*
D03*
D148*
X118500Y145000D02*
D03*
Y60250D02*
D03*
X291250Y264500D02*
D03*
X206000Y230500D02*
D03*
X380250Y248250D02*
D03*
X480900Y468300D02*
D03*
D149*
X118500Y120000D02*
D03*
Y35250D02*
D03*
X291250Y239500D02*
D03*
X206000Y205500D02*
D03*
X380250Y223250D02*
D03*
D150*
X338500Y98150D02*
D03*
D151*
Y123650D02*
D03*
Y148650D02*
D03*
Y174150D02*
D03*
Y199650D02*
D03*
X451950Y182500D02*
D03*
X426550D02*
D03*
D152*
X83750Y241499D02*
D03*
X143750D02*
D03*
D153*
X113750Y191499D02*
D03*
D154*
X452700Y49700D02*
D03*
X294700Y169700D02*
D03*
D155*
X41250Y423250D02*
D03*
Y373250D02*
D03*
Y323250D02*
D03*
D156*
X480900Y443300D02*
D03*
D157*
X410700Y413250D02*
D03*
D158*
X426900Y269000D02*
D03*
Y430400D02*
D03*
D159*
X567900Y433000D02*
D03*
D160*
X584400Y347300D02*
D03*
Y334600D02*
D03*
Y360000D02*
D03*
Y385400D02*
D03*
Y309200D02*
D03*
Y372700D02*
D03*
Y321900D02*
D03*
Y296500D02*
D03*
Y283800D02*
D03*
D161*
X544700Y266400D02*
D03*
D162*
X446600Y237400D02*
D03*
X431600D02*
D03*
X451600Y279100D02*
D03*
X466600D02*
D03*
D163*
X540200Y323600D02*
D03*
Y243600D02*
D03*
X495200Y323600D02*
D03*
Y243600D02*
D03*
D164*
X341400Y367600D02*
D03*
X323400D02*
D03*
D165*
X478750Y427600D02*
D03*
X499750D02*
D03*
D166*
X50000Y500000D02*
D03*
M02*
