M48
;Layer_Color=9474304
;FILE_FORMAT=4:4
METRIC,LZ
;TYPE=PLATED
T1F00S00C0.4000
T2F00S00C0.5000
T3F00S00C0.6500
T4F00S00C0.7000
T5F00S00C0.8500
T6F00S00C0.9000
T8F00S00C1.1500
T9F00S00C1.2000
T10F00S00C1.3000
T11F00S00C1.5000
T12F00S00C1.7000
T13F00S00C1.7500
T14F00S00C4.0000
%
T01
X006883Y0024
Y00247
Y002662
Y002862
Y003062
Y003262
T02
X001551Y000103
X001983Y00010608
X002481Y000198
X002477Y000564
X002335Y0004525
X002274Y000633
X002477Y0008535
X001475Y000918
X000977Y000906
X003093Y000132
X00333034Y000122
X00432Y000286
X004317Y000468
X004247Y000872
X00477856Y000505
X004766Y000297
X004512Y000118
X004912Y000116
X005047Y000317
X005023Y000512
X004829Y000716
X005905Y000703
Y000319
X005721Y000111
X005321Y000106
X006146Y00011
X006886Y000833
X005895Y00103256
X005928Y00171461
X005779Y002308
X0055Y002333
X005442Y00220533
X005323Y002129
X0049425Y00176
X005244Y00145213
X005197Y00296
X005475Y00294
X005615Y0029447
X005638Y003065
X005634Y003304
X005616Y0036
X005615Y003851
X005342Y003971
X005158Y003765
X005157Y00350964
X005293Y003548
X00490079Y0034
X004937Y00279474
X004827Y002784
X005717Y002838
X006161Y002804
X006145Y003004
X005936Y002565
X005978Y004017
X006103Y004016
X006087Y004484
X005862Y004479
X00543988Y004477
X006323Y004482
X006561
X006786Y00448
X006815Y004239
X00681Y004013
X006812Y003791
X004641Y003757
X004696Y003596
X004741Y003952
X004442Y003969
X004333Y0039
X004338Y003402
X004436Y003204
X003898Y003376
X003673Y003388
X00357942Y003256
X003335Y003264
X003211Y003259
X003192Y003553
X00314Y0036725
X00298Y003689
X00291Y003325
X003093Y003035
X00305Y002757
X00312457Y00264625
X003249Y002618
X003223Y00278
X00316Y002496
X003086Y002207
X00327507Y002184
X00318512Y002064
X003116Y001951
X003482Y001864
X00405725Y00179775
Y00148325
X004293Y001491
X004244Y001342
X004143Y001171
X004349Y000972
X004501Y001086
X00477856Y000976
X004436Y001656
X004003Y002463
X003987Y00262
X003646Y002576
X003576Y002712
X0037065Y003035
X00271937Y003017
X002552Y002661
X00232Y00218
X001811Y002175
X001803Y001987
X001599Y001965
X001564Y001756
X001754Y001802
X001789Y002376
X001144Y002203
X001131Y002547
X0016664Y00309595
X0016Y00330088
X001826Y003283
X00197787Y003104
X00222072Y003506
X0023875Y003361
X002677Y004094
X002113Y004201
X0018995Y0039875
X001586Y003967
X001662Y004712
X00144Y004645
X001237Y004788
X000945Y004645
X000949Y001439
X000942Y001156
X0014075Y001325
X001887Y001055
X001973Y000972
X002067Y001056
X002477Y001109
X00250462Y001396
X00255647Y00154
X002408Y001537
X002265Y001467
X00292936Y001545
X00285165Y001161
X003269Y001164
X003272Y001401
X003526Y001074
X003116Y000952
X00063151Y00128
X000171Y001182
X000178Y001435
X000374Y001813
X000165Y002368
X000156Y002803
X000149Y003148
Y00344
X000159Y003976
X00124Y005109
X001656Y005004
X001672Y005305
X004809Y00537
X005058Y005384
X005378Y00538
X005676Y005381
X005887Y005389
T03
X004296Y002354
X004486
X004496Y002771
X004686
T04
X002992Y0003525
X003372
T05
X005074Y004748
X005328
X005582
X004107Y0043825
Y0041325
X0042655Y001825
X0045195
T06
X001185Y0003525
Y0006025
X004809Y004433
Y004683
X0038025Y0024825
Y0022325
X003385Y0019965
Y0017415
Y0014865
Y0012365
Y0009815
X0029125Y002395
Y002645
X00206Y002305
Y002055
X001185Y00145
Y0012
T08
X004952Y0020055
Y0022595
X0028595Y001985
X0026055
X00377999Y0035305
Y0037845
X003457Y00421
X003203
T09
X00038Y0011125
Y0014625
X0003975Y0021425
Y0024925
T10
X0013075Y0031325
X0012125Y0034775
Y0037325
Y0039875
X0013075Y0043325
X0025375
X0027375Y0037325
X0025375Y0031325
X002947Y001697
T11
X0004125Y0032325
Y0037325
Y0042325
T12
X0062635Y0011105
Y0016185
Y0021265
X0065175Y0018725
X0067715Y0021265
Y0016185
X0065175Y0013645
X0067715Y0011105
X006754Y004746
X006246
Y005254
X0065Y005
X006754Y005254
T13
X004527Y000497
T14
X0005Y0005
X0065Y0005
X0005Y005
M30
